<svg width="844" height="390" viewBox="0 0 844 390" fill="none" xmlns="http://www.w3.org/2000/svg">
<path d="M865.261 -82.9487H-7.23315V462.36H865.261V-82.9487Z" fill="#CF8AE7"/>
<g opacity="0.5">
<g style="mix-blend-mode:soft-light">
<path d="M423.864 460.542C615.104 460.542 770.135 305.511 770.135 114.271C770.135 -76.9691 615.104 -232 423.864 -232C232.624 -232 77.5927 -76.9691 77.5927 114.271C77.5927 305.511 232.624 460.542 423.864 460.542Z" fill="white" fill-opacity="0.5"/>
<path d="M423.864 460.542C615.104 460.542 770.135 305.511 770.135 114.271C770.135 -76.9691 615.104 -232 423.864 -232C232.624 -232 77.5927 -76.9691 77.5927 114.271C77.5927 305.511 232.624 460.542 423.864 460.542Z" stroke="black"/>
</g>
<g style="mix-blend-mode:soft-light">
<path d="M423.864 390.864C576.622 390.864 700.457 267.029 700.457 114.271C700.457 -38.487 576.622 -162.322 423.864 -162.322C271.106 -162.322 147.271 -38.487 147.271 114.271C147.271 267.029 271.106 390.864 423.864 390.864Z" fill="white" fill-opacity="0.4"/>
<path d="M423.864 390.864C576.622 390.864 700.457 267.029 700.457 114.271C700.457 -38.487 576.622 -162.322 423.864 -162.322C271.106 -162.322 147.271 -38.487 147.271 114.271C147.271 267.029 271.106 390.864 423.864 390.864Z" stroke="black"/>
</g>
<g style="mix-blend-mode:soft-light">
<path d="M423.864 335.121C545.836 335.121 644.714 236.243 644.714 114.271C644.714 -7.70113 545.836 -106.579 423.864 -106.579C301.892 -106.579 203.014 -7.70113 203.014 114.271C203.014 236.243 301.892 335.121 423.864 335.121Z" fill="white" fill-opacity="0.3"/>
<path d="M423.864 335.121C545.836 335.121 644.714 236.243 644.714 114.271C644.714 -7.70113 545.836 -106.579 423.864 -106.579C301.892 -106.579 203.014 -7.70113 203.014 114.271C203.014 236.243 301.892 335.121 423.864 335.121Z" stroke="black"/>
</g>
<g style="mix-blend-mode:soft-light">
<path d="M423.864 292.103C522.077 292.103 601.695 212.485 601.695 114.271C601.695 16.0577 522.077 -63.5601 423.864 -63.5601C325.65 -63.5601 246.032 16.0577 246.032 114.271C246.032 212.485 325.65 292.103 423.864 292.103Z" fill="white" fill-opacity="0.2"/>
<path d="M423.864 292.103C522.077 292.103 601.695 212.485 601.695 114.271C601.695 16.0577 522.077 -63.5601 423.864 -63.5601C325.65 -63.5601 246.032 16.0577 246.032 114.271C246.032 212.485 325.65 292.103 423.864 292.103Z" stroke="black"/>
</g>
<g style="mix-blend-mode:soft-light">
<path d="M423.864 256.96C502.669 256.96 566.553 193.076 566.553 114.271C566.553 35.4661 502.669 -28.418 423.864 -28.418C345.059 -28.418 281.175 35.4661 281.175 114.271C281.175 193.076 345.059 256.96 423.864 256.96Z" fill="white" fill-opacity="0.1"/>
<path d="M423.864 256.96C502.669 256.96 566.553 193.076 566.553 114.271C566.553 35.4661 502.669 -28.418 423.864 -28.418C345.059 -28.418 281.175 35.4661 281.175 114.271C281.175 193.076 345.059 256.96 423.864 256.96Z" stroke="black"/>
</g>
</g>
<path opacity="0.5" d="M871.048 277.147C861.317 278.177 871.351 276.953 857.627 292.113C857.627 292.113 818.668 227.827 771.674 249.161C771.674 249.161 765.724 207.826 725.941 214.933C725.941 214.933 682.292 181.13 649.174 239.733C649.174 239.733 602.677 231.729 601.501 280.631C601.501 280.631 569.504 267.289 546.546 292.113C546.546 292.113 536.204 242.126 500.407 254.802C500.407 254.802 499.813 207.317 463.666 212.637C463.666 212.637 439.242 168.661 409.619 202.506C409.619 202.506 380.361 183.263 360.863 215.667C360.863 215.667 330.331 208.172 320.437 229.832C320.437 229.832 266.664 212.183 254.479 265.417C254.479 265.417 235.872 227.997 188.757 248.088C188.757 248.088 179.747 218.532 157.008 229.832C157.008 229.832 134.723 200.804 105.089 222.156C105.089 222.156 59.8097 201.81 45.3772 241.49C45.3772 241.49 21.2927 236.388 20.9837 266.768C20.9837 266.768 11.1924 263.605 1.88576 267.822C-1.5921 300.183 -16.1216 302.298 0.801202 341.79H873.296C884.196 296.954 878.858 328.412 871.048 277.147Z" fill="white" fill-opacity="0.47"/>
<path opacity="0.5" d="M871.048 264.423C861.317 265.453 871.351 264.229 857.627 279.389C857.627 279.389 818.668 215.103 771.674 236.437C771.674 236.437 765.724 195.102 725.941 202.209C725.941 202.209 682.292 168.406 649.174 227.009C649.174 227.009 602.677 219.005 601.501 267.907C601.501 267.907 569.504 254.565 546.546 279.389C546.546 279.389 536.204 229.402 500.407 242.077C500.407 242.077 499.813 194.593 463.666 199.913C463.666 199.913 439.242 155.937 409.619 189.782C409.619 189.782 380.361 170.539 360.863 202.942C360.863 202.942 330.331 195.447 320.437 217.108C320.437 217.108 266.664 199.459 254.479 252.693C254.479 252.693 235.872 215.272 188.757 235.364C188.757 235.364 179.747 205.808 157.008 217.108C157.008 217.108 134.723 188.08 105.089 209.432C105.089 209.432 59.8097 189.086 45.3772 228.766C45.3772 228.766 21.2927 223.664 20.9837 254.044C20.9837 254.044 11.1924 250.881 1.88576 255.098C-1.5921 287.459 -16.1216 289.574 0.801202 329.066H873.296C884.196 284.23 878.858 315.688 871.048 264.423Z" fill="#5589C6" fill-opacity="0.35"/>
<path d="M684.097 107.592C684.097 107.592 877.27 114.82 879.342 107.592C881.408 100.363 862.813 91.0626 841.122 88.9965C841.122 88.9965 823.557 55.9447 799.8 73.5037C799.8 73.5037 780.175 44.6265 758.478 68.3656C758.478 68.3656 733.684 57.0474 721.287 84.9067C721.287 84.9067 707.764 80.4049 700.626 94.1709C700.626 94.1648 686.164 92.0987 684.097 107.592Z" fill="white"/>
<path d="M-84.0163 100.711C-84.0163 100.711 124.761 103.274 128.602 100.711C132.443 98.1533 133.727 77.6543 87.6158 78.9331C87.6158 78.9331 77.3653 49.4714 50.471 67.4021C50.471 67.4021 44.4916 42.9338 23.147 53.2443C23.147 53.2443 -14.8467 18.7149 -40.4623 69.9598C-40.4623 69.9598 -60.958 61.0661 -68.6405 85.3699C-68.6458 85.3752 -92.9828 89.18 -84.0163 100.711Z" fill="white"/>
<path d="M871.926 292.194H-12.5347V392.806H871.926V292.194Z" fill="#4B81D0"/>
<path d="M871.926 291H-12.5347V293.388H871.926V291Z" fill="#353097"/>
<path d="M862.989 302.064H-12.3955V331.978C105.737 310.289 743.821 308.244 862.995 308.05V302.064H862.989Z" fill="#849FBE" style="mix-blend-mode:soft-light"/>
<path d="M862.989 367.554C680.808 368.061 99.7263 367.981 -12.4014 346.899V392.642H862.989V367.554Z" fill="#849FBE" style="mix-blend-mode:soft-light"/>
<path d="M636.401 57.5846C636.401 41.9766 623.841 29.3982 608.578 30.0223C594.952 30.5736 583.779 41.8494 582.961 55.8881C582.537 63.1831 584.869 69.9086 588.977 75.0708C593.394 80.6148 597.363 86.5163 600.544 92.8903L602.022 95.8471H617.285L618.685 93.0418C621.884 86.6314 625.846 80.6693 630.294 75.1072C634.105 70.3448 636.395 64.2374 636.395 57.5785L636.401 57.5846Z" fill="#E85873"/>
<path d="M630.445 57.5846C630.445 41.9766 620.684 29.3982 608.821 30.0223C598.223 30.5736 589.541 41.8494 588.905 55.8881C588.578 63.1831 590.389 69.9086 593.582 75.0708C597.012 80.6148 600.096 86.5163 602.574 92.8903L603.725 95.8471H615.588L616.679 93.0418C619.169 86.6314 622.247 80.6693 625.707 75.1072C628.67 70.3448 630.451 64.2374 630.451 57.5785L630.445 57.5846Z" fill="#F0AAB8"/>
<path d="M623.065 57.5846C623.065 41.9766 616.77 29.3982 609.117 30.0223C602.289 30.5736 596.684 41.8494 596.272 55.8881C596.06 63.1831 597.23 69.9086 599.29 75.0708C601.501 80.6148 603.495 86.5163 605.088 92.8903L605.827 95.8471H613.48L614.183 93.0418C615.788 86.6314 617.776 80.6693 620.005 75.1072C621.914 70.3448 623.065 64.2374 623.065 57.5785V57.5846Z" fill="#E85873"/>
<path d="M615.207 57.5846C615.207 41.9766 612.601 29.3982 609.433 30.0223C606.603 30.5736 604.282 41.8494 604.119 55.8881C604.028 63.1831 604.513 69.9086 605.367 75.0708C606.282 80.6148 607.106 86.5163 607.766 92.8903L608.075 95.8471H611.244L611.535 93.0418C612.202 86.6314 613.02 80.6693 613.947 75.1072C614.74 70.3448 615.213 64.2374 615.213 57.5785L615.207 57.5846Z" fill="#F0AAB8"/>
<path d="M609.657 91.9268C606.149 91.9268 602.962 92.3327 600.599 92.9992L602.022 95.853H617.285L618.685 93.0477C618.685 93.0477 618.703 93.0174 618.709 92.9992C616.346 92.3327 613.159 91.9268 609.651 91.9268H609.657Z" fill="white"/>
<path d="M617.291 95.8471C617.291 96.4408 613.874 96.9256 609.657 96.9256C605.44 96.9256 602.022 96.4408 602.022 95.8471C602.022 95.2533 605.44 94.7686 609.657 94.7686C613.874 94.7686 617.291 95.2533 617.291 95.8471Z" fill="#9E3C4E"/>
<path d="M602.495 95.8472L603.949 104.354" stroke="#9E3C4E" stroke-width="0.83" stroke-miterlimit="10"/>
<path d="M605.997 95.8472L606.942 104.415" stroke="#9E3C4E" stroke-width="0.83" stroke-miterlimit="10"/>
<path d="M616.819 95.8472L615.364 104.354" stroke="#9E3C4E" stroke-width="0.83" stroke-miterlimit="10"/>
<path d="M613.316 95.8472L612.371 104.415" stroke="#9E3C4E" stroke-width="0.83" stroke-miterlimit="10"/>
<path d="M609.657 95.8472V104.13" stroke="#9E3C4E" stroke-width="0.83" stroke-miterlimit="10"/>
<path d="M613.159 113.909H606.161C605.409 113.909 604.773 113.363 604.658 112.624L603.368 104.408H615.958L614.668 112.624C614.552 113.363 613.916 113.909 613.165 113.909H613.159Z" fill="white"/>
<g style="mix-blend-mode:multiply">
<path d="M614.383 104.415L613.092 112.631C612.977 113.37 612.341 113.915 611.59 113.915H613.159C613.91 113.915 614.547 113.37 614.662 112.631L615.952 104.415H614.383Z" fill="url(#paint0_linear_25_18222)"/>
</g>
<path d="M615.746 105.542C611.711 104.93 607.603 104.93 603.567 105.542C603.071 105.614 602.598 105.287 602.507 104.796C602.416 104.306 602.768 103.827 603.295 103.748C607.512 103.112 611.802 103.112 616.019 103.748C616.54 103.827 616.891 104.306 616.806 104.796C616.715 105.293 616.243 105.62 615.746 105.542Z" fill="#E85873"/>
<path style="mix-blend-mode:multiply" d="M616.806 104.796C616.897 104.306 616.546 103.827 616.019 103.748C615.637 103.688 615.255 103.645 614.868 103.597C614.91 103.663 615.685 105.002 614.231 105.348C614.734 105.402 615.237 105.469 615.74 105.548C616.237 105.62 616.709 105.293 616.8 104.802L616.806 104.796Z" fill="url(#paint1_linear_25_18222)"/>
<path d="M338.735 91.6786C338.735 74.8898 325.216 61.3602 308.794 62.0234C294.131 62.6211 282.104 74.7502 281.227 89.8549C280.773 97.7039 283.278 104.942 287.703 110.492C292.455 116.452 296.723 122.804 300.149 129.663L301.738 132.843H318.163L319.669 129.829C323.116 122.931 327.376 116.517 332.163 110.535C336.265 105.409 338.731 98.8383 338.731 91.6742L338.735 91.6786Z" fill="#FF8D3B"/>
<path d="M332.324 91.6786C332.324 74.8898 321.82 61.3602 309.051 62.0234C297.653 62.6211 288.305 74.7502 287.625 89.8549C287.271 97.7039 289.222 104.942 292.661 110.492C296.352 116.452 299.673 122.804 302.335 129.663L303.57 132.843H316.339L317.509 129.829C320.188 122.931 323.501 116.517 327.223 110.535C330.413 105.409 332.329 98.8383 332.329 91.6742L332.324 91.6786Z" fill="#FFBE77"/>
<path d="M324.382 91.6786C324.382 74.8898 317.605 61.3602 309.375 62.0234C302.026 62.6167 295.995 74.7502 295.554 89.8549C295.327 97.7039 296.584 104.942 298.801 110.492C301.183 116.452 303.322 122.804 305.041 129.663L305.84 132.843H314.075L314.83 129.829C316.558 122.931 318.692 116.517 321.092 110.535C323.147 105.409 324.382 98.8383 324.382 91.6742V91.6786Z" fill="#FF8D3B"/>
<path d="M315.929 91.6786C315.929 74.8898 313.123 61.3602 309.715 62.0234C306.673 62.6167 304.177 74.7502 303.994 89.8549C303.898 97.7039 304.421 104.942 305.338 110.492C306.324 116.452 307.21 122.804 307.921 129.663L308.253 132.843H311.661L311.975 129.829C312.691 122.931 313.577 116.517 314.568 110.535C315.419 105.409 315.929 98.8383 315.929 91.6742V91.6786Z" fill="#FFBE77"/>
<path d="M309.955 128.625C306.18 128.625 302.75 129.065 300.21 129.781L301.742 132.848H318.168L319.673 129.833C319.673 129.833 319.691 129.798 319.7 129.781C317.16 129.065 313.73 128.625 309.955 128.625Z" fill="#5380B8"/>
<path d="M318.168 132.848C318.168 133.489 314.489 134.009 309.955 134.009C305.421 134.009 301.742 133.489 301.742 132.848C301.742 132.207 305.421 131.688 309.955 131.688C314.489 131.688 318.168 132.207 318.168 132.848Z" fill="#334E70"/>
<path d="M302.248 132.848L303.81 141.997" stroke="#334E70" stroke-width="1.24" stroke-miterlimit="10"/>
<path d="M306.014 132.848L307.035 142.062" stroke="#334E70" stroke-width="1.24" stroke-miterlimit="10"/>
<path d="M317.662 132.848L316.095 141.997" stroke="#334E70" stroke-width="1.24" stroke-miterlimit="10"/>
<path d="M313.896 132.848L312.874 142.062" stroke="#334E70" stroke-width="1.24" stroke-miterlimit="10"/>
<path d="M309.955 132.848V141.757" stroke="#334E70" stroke-width="1.24" stroke-miterlimit="10"/>
<path d="M313.721 152.281H306.189C305.382 152.281 304.697 151.696 304.574 150.898L303.182 142.058H316.728L315.336 150.898C315.209 151.692 314.524 152.281 313.721 152.281Z" fill="#5380B8"/>
<g style="mix-blend-mode:multiply">
<path d="M315.039 142.062L313.647 150.902C313.52 151.696 312.835 152.285 312.032 152.285H313.721C314.529 152.285 315.214 151.7 315.336 150.902L316.728 142.062H315.039Z" fill="url(#paint2_linear_25_18222)"/>
</g>
<path d="M316.51 143.28C312.167 142.621 307.747 142.621 303.405 143.28C302.868 143.362 302.362 143.005 302.266 142.477C302.17 141.944 302.549 141.434 303.112 141.347C307.651 140.662 312.268 140.662 316.806 141.347C317.369 141.434 317.749 141.944 317.653 142.477C317.557 143.009 317.051 143.362 316.514 143.28H316.51Z" fill="#FF8D3B"/>
<path style="mix-blend-mode:multiply" d="M317.649 142.473C317.745 141.94 317.365 141.43 316.802 141.343C316.392 141.282 315.977 141.229 315.567 141.181C315.611 141.255 316.449 142.691 314.886 143.062C315.427 143.123 315.973 143.192 316.51 143.275C317.047 143.358 317.553 143.001 317.649 142.473Z" fill="url(#paint3_linear_25_18222)"/>
<defs>
<linearGradient id="paint0_linear_25_18222" x1="613.771" y1="111.249" x2="613.771" y2="103.591" gradientUnits="userSpaceOnUse">
<stop stop-color="white"/>
<stop offset="0.18" stop-color="#FAFDFF"/>
<stop offset="0.37" stop-color="#EDFAFF"/>
<stop offset="0.57" stop-color="#D7F4FF"/>
<stop offset="0.78" stop-color="#B8EBFF"/>
<stop offset="0.99" stop-color="#91E0FF"/>
<stop offset="1" stop-color="#8FE0FF"/>
</linearGradient>
<linearGradient id="paint1_linear_25_18222" x1="614.637" y1="102.639" x2="615.916" y2="105.899" gradientUnits="userSpaceOnUse">
<stop stop-color="white"/>
<stop offset="0.18" stop-color="#FAFDFF"/>
<stop offset="0.37" stop-color="#EDFAFF"/>
<stop offset="0.57" stop-color="#D7F4FF"/>
<stop offset="0.78" stop-color="#B8EBFF"/>
<stop offset="0.99" stop-color="#91E0FF"/>
<stop offset="1" stop-color="#8FE0FF"/>
</linearGradient>
<linearGradient id="paint2_linear_25_18222" x1="314.38" y1="149.414" x2="314.38" y2="141.177" gradientUnits="userSpaceOnUse">
<stop stop-color="white"/>
<stop offset="0.18" stop-color="#FAFDFF"/>
<stop offset="0.37" stop-color="#EDFAFF"/>
<stop offset="0.57" stop-color="#D7F4FF"/>
<stop offset="0.78" stop-color="#B8EBFF"/>
<stop offset="0.99" stop-color="#91E0FF"/>
<stop offset="1" stop-color="#8FE0FF"/>
</linearGradient>
<linearGradient id="paint3_linear_25_18222" x1="315.314" y1="140.156" x2="316.688" y2="143.66" gradientUnits="userSpaceOnUse">
<stop stop-color="white"/>
<stop offset="0.18" stop-color="#FAFDFF"/>
<stop offset="0.37" stop-color="#EDFAFF"/>
<stop offset="0.57" stop-color="#D7F4FF"/>
<stop offset="0.78" stop-color="#B8EBFF"/>
<stop offset="0.99" stop-color="#91E0FF"/>
<stop offset="1" stop-color="#8FE0FF"/>
</linearGradient>
</defs>
</svg>
