<svg width="1440" height="900" viewBox="0 0 1440 900" fill="none" xmlns="http://www.w3.org/2000/svg">
<path d="M1440 0H0V900H1440V0Z" fill="#CF8AE7"/>
<g opacity="0.5">
<g style="mix-blend-mode:soft-light">
<path d="M711.5 897C1027.13 897 1283 641.131 1283 325.5C1283 9.86928 1027.13 -246 711.5 -246C395.869 -246 140 9.86928 140 325.5C140 641.131 395.869 897 711.5 897Z" fill="white" fill-opacity="0.5"/>
<path d="M711.5 897C1027.13 897 1283 641.131 1283 325.5C1283 9.86928 1027.13 -246 711.5 -246C395.869 -246 140 9.86928 140 325.5C140 641.131 395.869 897 711.5 897Z" stroke="black"/>
</g>
<g style="mix-blend-mode:soft-light">
<path d="M711.5 782C963.618 782 1168 577.618 1168 325.5C1168 73.382 963.618 -131 711.5 -131C459.382 -131 255 73.382 255 325.5C255 577.618 459.382 782 711.5 782Z" fill="white" fill-opacity="0.4"/>
<path d="M711.5 782C963.618 782 1168 577.618 1168 325.5C1168 73.382 963.618 -131 711.5 -131C459.382 -131 255 73.382 255 325.5C255 577.618 459.382 782 711.5 782Z" stroke="black"/>
</g>
<g style="mix-blend-mode:soft-light">
<path d="M711.5 690C912.808 690 1076 526.808 1076 325.5C1076 124.192 912.808 -39 711.5 -39C510.192 -39 347 124.192 347 325.5C347 526.808 510.192 690 711.5 690Z" fill="white" fill-opacity="0.3"/>
<path d="M711.5 690C912.808 690 1076 526.808 1076 325.5C1076 124.192 912.808 -39 711.5 -39C510.192 -39 347 124.192 347 325.5C347 526.808 510.192 690 711.5 690Z" stroke="black"/>
</g>
<g style="mix-blend-mode:soft-light">
<path d="M711.5 619C873.596 619 1005 487.596 1005 325.5C1005 163.404 873.596 32 711.5 32C549.404 32 418 163.404 418 325.5C418 487.596 549.404 619 711.5 619Z" fill="white" fill-opacity="0.2"/>
<path d="M711.5 619C873.596 619 1005 487.596 1005 325.5C1005 163.404 873.596 32 711.5 32C549.404 32 418 163.404 418 325.5C418 487.596 549.404 619 711.5 619Z" stroke="black"/>
</g>
<g style="mix-blend-mode:soft-light">
<path d="M711.5 561C841.563 561 947 455.563 947 325.5C947 195.437 841.563 90 711.5 90C581.437 90 476 195.437 476 325.5C476 455.563 581.437 561 711.5 561Z" fill="white" fill-opacity="0.1"/>
<path d="M711.5 561C841.563 561 947 455.563 947 325.5C947 195.437 841.563 90 711.5 90C581.437 90 476 195.437 476 325.5C476 455.563 581.437 561 711.5 561Z" stroke="black"/>
</g>
</g>
<path opacity="0.5" d="M1449.55 594.317C1433.49 596.017 1450.05 593.997 1427.4 619.017C1427.4 619.017 1363.1 512.917 1285.54 548.127C1285.54 548.127 1275.72 479.907 1210.06 491.637C1210.06 491.637 1138.02 435.847 1083.36 532.567C1083.36 532.567 1006.62 519.357 1004.68 600.067C1004.68 600.067 951.87 578.047 913.98 619.017C913.98 619.017 896.91 536.517 837.83 557.437C837.83 557.437 836.85 479.067 777.19 487.847C777.19 487.847 736.88 415.267 687.99 471.127C687.99 471.127 639.7 439.367 607.52 492.847C607.52 492.847 557.13 480.477 540.8 516.227C540.8 516.227 452.05 487.097 431.94 574.957C431.94 574.957 401.23 513.197 323.47 546.357C323.47 546.357 308.6 497.577 271.07 516.227C271.07 516.227 234.29 468.317 185.38 503.557C185.38 503.557 110.65 469.977 86.8302 535.467C86.8302 535.467 47.0802 527.047 46.5702 577.187C46.5702 577.187 30.4102 571.967 15.0502 578.927C9.31016 632.337 -14.6698 635.827 13.2602 701.007H1453.26C1471.25 627.007 1462.44 678.927 1449.55 594.317Z" fill="white" fill-opacity="0.47"/>
<path opacity="0.5" d="M1449.55 573.317C1433.49 575.017 1450.05 572.997 1427.4 598.017C1427.4 598.017 1363.1 491.917 1285.54 527.127C1285.54 527.127 1275.72 458.907 1210.06 470.637C1210.06 470.637 1138.02 414.847 1083.36 511.567C1083.36 511.567 1006.62 498.357 1004.68 579.067C1004.68 579.067 951.87 557.047 913.98 598.017C913.98 598.017 896.91 515.517 837.83 536.437C837.83 536.437 836.85 458.067 777.19 466.847C777.19 466.847 736.88 394.267 687.99 450.127C687.99 450.127 639.7 418.367 607.52 471.847C607.52 471.847 557.13 459.477 540.8 495.227C540.8 495.227 452.05 466.097 431.94 553.957C431.94 553.957 401.23 492.197 323.47 525.357C323.47 525.357 308.6 476.577 271.07 495.227C271.07 495.227 234.29 447.317 185.38 482.557C185.38 482.557 110.65 448.977 86.8302 514.467C86.8302 514.467 47.0802 506.047 46.5702 556.187C46.5702 556.187 30.4102 550.967 15.0502 557.927C9.31016 611.337 -14.6698 614.827 13.2602 680.007H1453.26C1471.25 606.007 1462.44 657.927 1449.55 573.317Z" fill="#5589C6" fill-opacity="0.35"/>
<path d="M1141 243.197C1141 243.197 1459.82 255.127 1463.24 243.197C1466.65 231.267 1435.96 215.917 1400.16 212.507C1400.16 212.507 1371.17 157.957 1331.96 186.937C1331.96 186.937 1299.57 139.277 1263.76 178.457C1263.76 178.457 1222.84 159.777 1202.38 205.757C1202.38 205.757 1180.06 198.327 1168.28 221.047C1168.28 221.037 1144.41 217.627 1141 243.197Z" fill="white"/>
<path d="M-126.726 303.12C-126.726 303.12 217.848 307.35 224.188 303.12C230.527 298.899 232.646 265.066 156.543 267.177C156.543 267.177 139.625 218.552 95.2373 248.145C95.2373 248.145 85.3686 207.762 50.1406 224.779C50.1406 224.779 -12.5657 167.79 -54.8427 252.367C-54.8427 252.367 -88.6696 237.688 -101.349 277.8C-101.358 277.809 -141.525 284.089 -126.726 303.12Z" fill="white"/>
<path d="M1451 636.13H-8.75V899.85H1451V636.13Z" fill="#4B81D0"/>
<path d="M1451 633H-8.75V639.26H1451V633Z" fill="#353097"/>
<path d="M1451 896.72H-8.75V902.98H1451V896.72Z" fill="#353097"/>
<path d="M1436.25 662H-8.52002V740.41C186.45 683.56 1239.57 678.2 1436.26 677.69V662H1436.25Z" fill="#849FBE" style="mix-blend-mode:soft-light"/>
<path d="M1436.25 833.66C1135.57 834.99 176.53 834.78 -8.53003 779.52V899.42H1436.25V833.66Z" fill="#849FBE" style="mix-blend-mode:soft-light"/>
<path d="M1062.28 87.5302C1062.28 61.7702 1041.55 41.0102 1016.36 42.0402C993.87 42.9502 975.43 61.5602 974.08 84.7302C973.38 96.7702 977.23 107.87 984.01 116.39C991.3 125.54 997.85 135.28 1003.1 145.8L1005.54 150.68H1030.73L1033.04 146.05C1038.32 135.47 1044.86 125.63 1052.2 116.45C1058.49 108.59 1062.27 98.5102 1062.27 87.5202L1062.28 87.5302Z" fill="#E85873"/>
<path d="M1052.45 87.5302C1052.45 61.7702 1036.34 41.0102 1016.76 42.0402C999.27 42.9502 984.94 61.5602 983.89 84.7302C983.35 96.7702 986.34 107.87 991.61 116.39C997.27 125.54 1002.36 135.28 1006.45 145.8L1008.35 150.68H1027.93L1029.73 146.05C1033.84 135.47 1038.92 125.63 1044.63 116.45C1049.52 108.59 1052.46 98.5102 1052.46 87.5202L1052.45 87.5302Z" fill="#F0AAB8"/>
<path d="M1040.27 87.5302C1040.27 61.7702 1029.88 41.0102 1017.25 42.0402C1005.98 42.9502 996.73 61.5602 996.05 84.7302C995.7 96.7702 997.63 107.87 1001.03 116.39C1004.68 125.54 1007.97 135.28 1010.6 145.8L1011.82 150.68H1024.45L1025.61 146.05C1028.26 135.47 1031.54 125.63 1035.22 116.45C1038.37 108.59 1040.27 98.5102 1040.27 87.5202V87.5302Z" fill="#E85873"/>
<path d="M1027.3 87.5302C1027.3 61.7702 1023 41.0102 1017.77 42.0402C1013.1 42.9502 1009.27 61.5602 1009 84.7302C1008.85 96.7702 1009.65 107.87 1011.06 116.39C1012.57 125.54 1013.93 135.28 1015.02 145.8L1015.53 150.68H1020.76L1021.24 146.05C1022.34 135.47 1023.69 125.63 1025.22 116.45C1026.53 108.59 1027.31 98.5102 1027.31 87.5202L1027.3 87.5302Z" fill="#F0AAB8"/>
<path d="M1018.14 144.21C1012.35 144.21 1007.09 144.88 1003.19 145.98L1005.54 150.69H1030.73L1033.04 146.06C1033.04 146.06 1033.07 146.01 1033.08 145.98C1029.18 144.88 1023.92 144.21 1018.13 144.21H1018.14Z" fill="white"/>
<path d="M1030.74 150.68C1030.74 151.66 1025.1 152.46 1018.14 152.46C1011.18 152.46 1005.54 151.66 1005.54 150.68C1005.54 149.7 1011.18 148.9 1018.14 148.9C1025.1 148.9 1030.74 149.7 1030.74 150.68Z" fill="#9E3C4E"/>
<path d="M1006.32 150.68L1008.72 164.72" stroke="#9E3C4E" stroke-width="0.83" stroke-miterlimit="10"/>
<path d="M1012.1 150.68L1013.66 164.82" stroke="#9E3C4E" stroke-width="0.83" stroke-miterlimit="10"/>
<path d="M1029.96 150.68L1027.56 164.72" stroke="#9E3C4E" stroke-width="0.83" stroke-miterlimit="10"/>
<path d="M1024.18 150.68L1022.62 164.82" stroke="#9E3C4E" stroke-width="0.83" stroke-miterlimit="10"/>
<path d="M1018.14 150.68V164.35" stroke="#9E3C4E" stroke-width="0.83" stroke-miterlimit="10"/>
<path d="M1023.92 180.49H1012.37C1011.13 180.49 1010.08 179.59 1009.89 178.37L1007.76 164.81H1028.54L1026.41 178.37C1026.22 179.59 1025.17 180.49 1023.93 180.49H1023.92Z" fill="white"/>
<g style="mix-blend-mode:multiply">
<path d="M1025.94 164.82L1023.81 178.38C1023.62 179.6 1022.57 180.5 1021.33 180.5H1023.92C1025.16 180.5 1026.21 179.6 1026.4 178.38L1028.53 164.82H1025.94Z" fill="url(#paint0_linear_24_173)"/>
</g>
<path d="M1028.19 166.68C1021.53 165.67 1014.75 165.67 1008.09 166.68C1007.27 166.8 1006.49 166.26 1006.34 165.45C1006.19 164.64 1006.77 163.85 1007.64 163.72C1014.6 162.67 1021.68 162.67 1028.64 163.72C1029.5 163.85 1030.08 164.64 1029.94 165.45C1029.79 166.27 1029.01 166.81 1028.19 166.68Z" fill="#E85873"/>
<path style="mix-blend-mode:multiply" d="M1029.94 165.45C1030.09 164.64 1029.51 163.85 1028.64 163.72C1028.01 163.62 1027.38 163.55 1026.74 163.47C1026.81 163.58 1028.09 165.79 1025.69 166.36C1026.52 166.45 1027.35 166.56 1028.18 166.69C1029 166.81 1029.78 166.27 1029.93 165.46L1029.94 165.45Z" fill="url(#paint1_linear_24_173)"/>
<path d="M571 173.98C571 146.271 548.687 123.941 521.584 125.036C497.384 126.022 477.534 146.041 476.086 170.97C475.337 183.924 479.472 195.871 486.775 205.03C494.618 214.867 501.662 225.351 507.316 236.671L509.938 241.92H537.048L539.533 236.944C545.223 225.56 552.252 214.975 560.153 205.102C566.923 196.641 570.993 185.797 570.993 173.973L571 173.98Z" fill="#FF8D3B"/>
<path d="M560.42 173.98C560.42 146.271 543.083 123.941 522.009 125.036C503.196 126.022 487.769 146.041 486.645 170.97C486.062 183.924 489.281 195.871 494.957 205.03C501.05 214.867 506.531 225.351 510.925 236.671L512.963 241.92H534.037L535.967 236.944C540.39 225.56 545.856 214.975 552 205.102C557.265 196.641 560.427 185.797 560.427 173.973L560.42 173.98Z" fill="#FFBE77"/>
<path d="M547.311 173.98C547.311 146.271 536.126 123.941 522.542 125.036C510.413 126.015 500.46 146.041 499.732 170.97C499.358 183.924 501.432 195.871 505.091 205.03C509.023 214.867 512.552 225.351 515.39 236.671L516.708 241.92H530.299L531.545 236.944C534.397 225.56 537.919 214.975 541.881 205.102C545.273 196.641 547.311 185.797 547.311 173.973V173.98Z" fill="#FF8D3B"/>
<path d="M533.36 173.98C533.36 146.271 528.729 123.941 523.104 125.036C518.084 126.015 513.964 146.041 513.662 170.97C513.503 183.924 514.367 195.871 515.88 205.03C517.508 214.867 518.97 225.351 520.144 236.671L520.691 241.92H526.316L526.835 236.944C528.016 225.56 529.478 214.975 531.113 205.102C532.517 196.641 533.36 185.797 533.36 173.973V173.98Z" fill="#FFBE77"/>
<path d="M523.5 234.957C517.27 234.957 511.609 235.684 507.417 236.865L509.945 241.927H537.055L539.54 236.952C539.54 236.952 539.569 236.894 539.583 236.865C535.391 235.684 529.73 234.957 523.5 234.957Z" fill="#5380B8"/>
<path d="M537.055 241.927C537.055 242.986 530.983 243.843 523.5 243.843C516.017 243.843 509.945 242.986 509.945 241.927C509.945 240.869 516.017 240.012 523.5 240.012C530.983 240.012 537.055 240.869 537.055 241.927Z" fill="#334E70"/>
<path d="M510.781 241.927L513.359 257.027" stroke="#334E70" stroke-width="1.24" stroke-miterlimit="10"/>
<path d="M516.996 241.927L518.682 257.135" stroke="#334E70" stroke-width="1.24" stroke-miterlimit="10"/>
<path d="M536.22 241.927L533.634 257.027" stroke="#334E70" stroke-width="1.24" stroke-miterlimit="10"/>
<path d="M530.004 241.927L528.318 257.135" stroke="#334E70" stroke-width="1.24" stroke-miterlimit="10"/>
<path d="M523.5 241.927V256.631" stroke="#334E70" stroke-width="1.24" stroke-miterlimit="10"/>
<path d="M529.716 274H517.284C515.952 274 514.821 273.035 514.619 271.717L512.322 257.128H534.678L532.381 271.717C532.172 273.028 531.041 274 529.716 274Z" fill="#5380B8"/>
<g style="mix-blend-mode:multiply">
<path d="M531.891 257.135L529.593 271.724C529.384 273.035 528.254 274.007 526.928 274.007H529.716C531.048 274.007 532.179 273.042 532.381 271.724L534.678 257.135H531.891Z" fill="url(#paint2_linear_24_173)"/>
</g>
<path d="M534.318 259.145C527.152 258.057 519.856 258.057 512.689 259.145C511.803 259.281 510.968 258.691 510.809 257.82C510.651 256.941 511.278 256.099 512.207 255.955C519.697 254.824 527.317 254.824 534.808 255.955C535.737 256.099 536.364 256.941 536.205 257.82C536.047 258.698 535.211 259.281 534.325 259.145H534.318Z" fill="#FF8D3B"/>
<path style="mix-blend-mode:multiply" d="M536.198 257.812C536.356 256.934 535.73 256.091 534.801 255.947C534.124 255.847 533.439 255.76 532.762 255.681C532.834 255.803 534.217 258.172 531.639 258.784C532.532 258.885 533.432 259.001 534.318 259.137C535.204 259.274 536.039 258.684 536.198 257.812Z" fill="url(#paint3_linear_24_173)"/>
<defs>
<linearGradient id="paint0_linear_24_173" x1="1024.93" y1="176.1" x2="1024.93" y2="163.46" gradientUnits="userSpaceOnUse">
<stop stop-color="white"/>
<stop offset="0.18" stop-color="#FAFDFF"/>
<stop offset="0.37" stop-color="#EDFAFF"/>
<stop offset="0.57" stop-color="#D7F4FF"/>
<stop offset="0.78" stop-color="#B8EBFF"/>
<stop offset="0.99" stop-color="#91E0FF"/>
<stop offset="1" stop-color="#8FE0FF"/>
</linearGradient>
<linearGradient id="paint1_linear_24_173" x1="1026.36" y1="161.89" x2="1028.47" y2="167.27" gradientUnits="userSpaceOnUse">
<stop stop-color="white"/>
<stop offset="0.18" stop-color="#FAFDFF"/>
<stop offset="0.37" stop-color="#EDFAFF"/>
<stop offset="0.57" stop-color="#D7F4FF"/>
<stop offset="0.78" stop-color="#B8EBFF"/>
<stop offset="0.99" stop-color="#91E0FF"/>
<stop offset="1" stop-color="#8FE0FF"/>
</linearGradient>
<linearGradient id="paint2_linear_24_173" x1="530.803" y1="269.269" x2="530.803" y2="255.674" gradientUnits="userSpaceOnUse">
<stop stop-color="white"/>
<stop offset="0.18" stop-color="#FAFDFF"/>
<stop offset="0.37" stop-color="#EDFAFF"/>
<stop offset="0.57" stop-color="#D7F4FF"/>
<stop offset="0.78" stop-color="#B8EBFF"/>
<stop offset="0.99" stop-color="#91E0FF"/>
<stop offset="1" stop-color="#8FE0FF"/>
</linearGradient>
<linearGradient id="paint3_linear_24_173" x1="532.345" y1="253.989" x2="534.613" y2="259.771" gradientUnits="userSpaceOnUse">
<stop stop-color="white"/>
<stop offset="0.18" stop-color="#FAFDFF"/>
<stop offset="0.37" stop-color="#EDFAFF"/>
<stop offset="0.57" stop-color="#D7F4FF"/>
<stop offset="0.78" stop-color="#B8EBFF"/>
<stop offset="0.99" stop-color="#91E0FF"/>
<stop offset="1" stop-color="#8FE0FF"/>
</linearGradient>
</defs>
</svg>
