<svg width="314" height="440" viewBox="0 0 314 440" fill="none" xmlns="http://www.w3.org/2000/svg">
<g filter="url(#filter0_d_24_5639)">
<rect x="4" width="306" height="432" rx="35" fill="#FFEFAE"/>
</g>
<path d="M37.7578 196.66L77.5458 183.49L119.328 205.263L70.2025 228.917L42.9691 211.621L37.7578 196.66Z" fill="#545260"/>
<path d="M70.1718 229.525L42.5511 211.986L37.0906 196.312L77.588 182.907L120.52 205.28L70.168 229.525H70.1718ZM43.387 211.257L70.237 228.305L118.131 205.243L77.5036 184.07L38.425 197.005L43.387 211.257Z" fill="#070505"/>
<path d="M123.845 290.038L108.154 286.156L112.211 257.668L138.129 261.955L123.845 290.038Z" fill="#070505"/>
<path d="M170.582 293.888C170.8 309.137 170.957 323.308 159.235 329.779C155.981 331.576 151.293 333.102 145.173 334.358C124.574 338.565 113.162 317.991 112.249 292.652C111.341 267.313 125.364 249.823 143.57 253.579C161.777 257.34 170.217 268.557 170.578 293.888H170.582Z" fill="#313131"/>
<path d="M139.954 335.339C131.652 335.339 124.608 330.963 119.585 322.68C115.022 315.159 112.272 304.501 111.847 292.668C111.609 286.006 112.376 279.778 114.124 274.157C115.823 268.715 118.35 264.123 121.636 260.517C126.334 255.362 132.239 252.639 138.712 252.639C140.33 252.639 141.994 252.813 143.651 253.154C153.218 255.127 159.718 259.018 164.101 265.388C168.557 271.863 170.808 281.184 170.992 293.88C171.21 309.133 171.417 323.543 159.426 330.164L159.392 330.185C156.112 331.995 151.399 333.528 145.254 334.784C143.448 335.153 141.665 335.339 139.954 335.339ZM138.712 253.506C132.461 253.506 126.763 256.14 122.223 261.121C115.685 268.297 112.199 279.786 112.659 292.636C113.077 304.319 115.781 314.822 120.267 322.214C125.137 330.237 131.944 334.476 139.95 334.476C141.607 334.476 143.34 334.294 145.097 333.937C151.163 332.697 155.8 331.192 159.009 329.423L159.043 329.403C170.585 323.028 170.386 308.877 170.167 293.9C169.814 269.408 162.088 257.85 143.49 254.009C141.883 253.677 140.273 253.51 138.704 253.51L138.712 253.506Z" fill="#070202"/>
<path d="M271.604 273.424C271.823 288.673 271.98 302.844 260.258 309.315C257.004 311.112 252.316 312.638 246.196 313.894C225.597 318.101 214.185 297.527 213.272 272.188C212.363 246.848 226.387 229.359 244.593 233.115C262.8 236.876 271.24 248.093 271.601 273.424H271.604Z" fill="#313131"/>
<path d="M240.977 314.875C232.675 314.875 225.631 310.498 220.608 302.215C216.045 294.694 213.295 284.037 212.87 272.204C212.632 265.542 213.399 259.313 215.147 253.693C216.846 248.251 219.373 243.659 222.659 240.053C227.357 234.898 233.262 232.175 239.735 232.175C241.353 232.175 243.017 232.349 244.674 232.69C254.241 234.663 260.741 238.553 265.124 244.924C269.58 251.399 271.831 260.72 272.015 273.416C272.233 288.669 272.44 303.079 260.449 309.7L260.415 309.72C257.135 311.53 252.422 313.064 246.277 314.32C244.471 314.689 242.687 314.875 240.977 314.875ZM239.735 233.042C233.484 233.042 227.786 235.676 223.246 240.656C216.708 247.833 213.222 259.322 213.682 272.171C214.1 283.85 216.804 294.358 221.29 301.749C226.16 309.773 232.967 314.012 240.973 314.012C242.63 314.012 244.363 313.83 246.119 313.473C252.186 312.233 256.823 310.728 260.031 308.959L260.066 308.938C271.608 302.564 271.409 288.413 271.19 273.436C270.837 248.943 263.111 237.386 244.513 233.545C242.906 233.212 241.296 233.046 239.727 233.046L239.735 233.042Z" fill="#070202"/>
<path d="M135.518 332.859C135.518 332.859 136.043 332.742 136.91 332.401C137.343 332.227 137.861 332 138.436 331.7C138.582 331.627 138.727 331.542 138.877 331.461C138.954 331.421 139.03 331.376 139.107 331.336C139.184 331.291 139.26 331.242 139.337 331.194C139.49 331.096 139.655 331.007 139.816 330.902C139.977 330.797 140.138 330.691 140.307 330.578C140.476 330.468 140.637 330.343 140.806 330.221C140.89 330.16 140.974 330.1 141.059 330.035C141.143 329.97 141.224 329.901 141.312 329.836C141.481 329.702 141.653 329.565 141.826 329.427C141.994 329.281 142.163 329.131 142.339 328.981C143.018 328.361 143.705 327.672 144.349 326.898C144.686 326.525 144.982 326.1 145.3 325.691C145.453 325.48 145.595 325.257 145.745 325.042C145.894 324.823 146.048 324.613 146.182 324.382C146.32 324.155 146.462 323.928 146.604 323.697C146.676 323.583 146.742 323.466 146.807 323.348L146.999 322.992C147.125 322.753 147.259 322.518 147.382 322.274L147.731 321.533C148.203 320.548 148.601 319.527 148.962 318.506C149.307 317.481 149.629 316.459 149.878 315.454C149.94 315.203 150.016 314.956 150.066 314.705C150.12 314.453 150.174 314.206 150.227 313.963C150.335 313.473 150.454 312.999 150.526 312.525C150.611 312.054 150.691 311.597 150.768 311.151C150.841 310.705 150.895 310.271 150.956 309.858C151.01 309.445 151.079 309.048 151.113 308.667C151.155 308.286 151.194 307.925 151.228 307.585C151.266 307.244 151.301 306.928 151.332 306.632C151.355 306.337 151.374 306.065 151.393 305.822C151.428 305.332 151.466 304.947 151.489 304.683C151.512 304.42 151.527 304.278 151.527 304.278C151.527 304.278 151.535 304.42 151.546 304.683C151.554 304.947 151.573 305.336 151.585 305.826C151.592 306.073 151.6 306.345 151.608 306.645C151.608 306.94 151.596 307.265 151.592 307.609C151.585 307.954 151.577 308.318 151.569 308.707C151.569 308.902 151.554 309.1 151.539 309.299C151.523 309.502 151.508 309.708 151.493 309.919C151.458 310.34 151.435 310.782 151.393 311.24C151.335 311.694 151.278 312.164 151.22 312.646C151.171 313.132 151.075 313.623 150.99 314.125C150.948 314.376 150.902 314.632 150.856 314.891C150.81 315.15 150.741 315.402 150.687 315.661C150.461 316.698 150.177 317.764 149.828 318.826C149.476 319.888 149.065 320.945 148.578 321.971L148.206 322.732C148.08 322.984 147.934 323.227 147.8 323.474L147.597 323.843C147.532 323.968 147.459 324.09 147.382 324.203C147.232 324.438 147.087 324.678 146.937 324.913C146.795 325.152 146.63 325.375 146.473 325.597C146.312 325.82 146.155 326.043 145.99 326.258C145.645 326.675 145.323 327.105 144.962 327.486C144.272 328.28 143.517 328.953 142.784 329.557C142.052 330.164 141.296 330.647 140.591 331.064C139.882 331.481 139.199 331.789 138.589 332.041C137.976 332.292 137.427 332.454 136.975 332.58C136.519 332.701 136.154 332.762 135.909 332.807C135.66 332.843 135.529 332.851 135.529 332.851L135.518 332.859Z" fill="#848484"/>
<path d="M133.989 324.336C141.99 323.232 147.008 310.462 145.198 295.813C143.388 281.164 135.434 270.184 127.433 271.288C119.433 272.392 114.414 285.162 116.224 299.811C118.034 314.46 125.988 325.44 133.989 324.336Z" fill="#A39E9B"/>
<path d="M132.914 324.828C132.159 324.828 131.388 324.726 130.621 324.524C126.545 323.45 122.726 319.661 119.865 313.846C117.031 308.079 115.47 301 115.47 293.904C115.47 287.485 116.782 281.617 119.167 277.391C121.568 273.136 124.884 270.794 128.516 270.794C129.271 270.794 130.042 270.895 130.809 271.098C134.885 272.167 138.704 275.96 141.565 281.776C144.399 287.542 145.96 294.621 145.96 301.717C145.96 308.136 144.648 314.004 142.263 318.23C139.862 322.485 136.546 324.828 132.914 324.828ZM128.516 271.62C125.172 271.62 122.093 273.821 119.838 277.816C117.526 281.921 116.253 287.635 116.253 293.908C116.253 308.241 122.783 321.614 130.809 323.725C131.515 323.912 132.224 324.005 132.914 324.005C136.258 324.005 139.337 321.805 141.592 317.809C143.904 313.704 145.177 307.99 145.177 301.717C145.177 287.384 138.647 274.011 130.621 271.9C129.915 271.714 129.206 271.62 128.516 271.62Z" fill="#281A0B"/>
<path d="M132.693 311.691C137.535 311.022 140.573 303.294 139.477 294.428C138.382 285.562 133.568 278.917 128.725 279.585C123.883 280.253 120.845 287.982 121.941 296.848C123.036 305.714 127.85 312.359 132.693 311.691Z" fill="#7F7F7F"/>
<path d="M132.044 312.209C131.568 312.209 131.085 312.144 130.606 312.018C128.079 311.354 125.716 309.019 123.96 305.441C122.231 301.92 121.276 297.6 121.276 293.268C121.276 289.341 122.081 285.751 123.542 283.157C125.034 280.511 127.108 279.052 129.382 279.052C129.858 279.052 130.341 279.117 130.82 279.243C133.347 279.907 135.71 282.242 137.466 285.82C139.195 289.341 140.15 293.661 140.15 297.993C140.15 301.92 139.345 305.51 137.884 308.104C136.392 310.75 134.318 312.209 132.044 312.209ZM129.382 280.005C125.272 280.005 122.173 285.706 122.173 293.268C122.173 301.843 126.054 309.842 130.82 311.094C131.231 311.204 131.641 311.256 132.044 311.256C136.154 311.256 139.253 305.555 139.253 297.993C139.253 289.418 135.372 281.419 130.606 280.167C130.195 280.057 129.785 280.005 129.382 280.005Z" fill="#281A0B"/>
<path d="M179.531 328.649L151.201 312.399C151.201 312.399 154.43 277.602 132.086 263.564C115.677 253.255 108.154 285.159 108.154 285.159L69.3782 261.157L39.7864 238.075L37.3438 197.609L69.1366 204.396L69.0062 167.982L134.126 164.371L183.178 209.437L198.735 282.574L179.535 328.649H179.531Z" fill="#545260"/>
<path d="M179.777 329.403L150.661 312.699L150.695 312.342C150.703 312.257 151.47 303.581 149.518 293.321C147.723 283.899 143.198 271.17 131.829 264.026C129.743 262.717 127.699 262.053 125.755 262.053C114.27 262.053 108.71 285.058 108.656 285.289L108.491 285.99L69.0791 261.591L39.2956 238.359L39.2802 238.107L36.7954 196.936L68.6266 203.736L68.4962 167.467L68.9832 167.439L134.31 163.82L134.467 163.962L183.646 209.141L199.276 282.626L199.207 282.789L179.781 329.403H179.777ZM151.738 312.091L179.286 327.891L198.194 282.517L182.71 209.729L133.942 164.926L69.5162 168.496L69.6504 205.061L37.8959 198.281L40.2811 237.791L69.6581 260.707L107.832 284.337C108.296 282.59 109.672 277.812 111.988 273.091C113.695 269.606 115.578 266.822 117.575 264.82C120.122 262.272 122.871 260.979 125.751 260.979C127.883 260.979 130.099 261.696 132.346 263.106C137.519 266.356 141.757 270.984 144.943 276.856C147.482 281.54 149.361 287.019 150.526 293.146C152.279 302.369 151.865 310.34 151.742 312.099L151.738 312.091Z" fill="#070505"/>
<path d="M128.021 238.655L135.456 248.705L131.476 261.94L126.909 262.126C126.759 262.166 126.456 261.879 126.307 261.919C117.595 264.464 116.206 262.284 109.772 279.126L108.625 285.322L76.1846 265.344L79.4862 222.445L106.037 217.246L128.017 238.651L128.021 238.655Z" fill="#DDDDDD"/>
<path d="M108.99 286.176L75.6477 265.643L75.6745 265.303L79.0107 221.991L106.198 216.667L106.386 216.849L128.397 238.282L128.424 238.318L136.028 248.595L131.859 262.466L126.966 262.669C126.94 262.669 126.913 262.673 126.882 262.673C126.686 262.673 126.518 262.58 126.38 262.507C126.364 262.499 126.345 262.486 126.326 262.478C125.13 262.823 124.067 263.082 123.128 263.313C117.407 264.711 115.677 265.133 110.27 279.283L108.994 286.176H108.99ZM76.7214 265.052L108.261 284.474L109.281 278.975L109.3 278.927C112.119 271.547 113.963 267.844 115.877 265.708C117.863 263.491 119.865 263.001 122.898 262.264C123.86 262.028 124.949 261.761 126.173 261.404C126.226 261.388 126.284 261.38 126.341 261.38C126.541 261.38 126.709 261.473 126.848 261.546C126.871 261.558 126.901 261.575 126.924 261.587L131.1 261.417L134.889 248.814L127.645 239.023L105.884 217.834L79.9693 222.907L76.7252 265.056L76.7214 265.052Z" fill="#070505"/>
<path d="M121.725 194.428L129.777 243.526L92.0255 226.271L93.6744 186.448L121.725 194.428Z" fill="#93DBEF"/>
<path d="M130.23 244.133L91.6688 226.506L93.3484 185.974L122.031 194.132L122.07 194.363L130.23 244.133ZM92.3859 226.036L129.329 242.922L121.425 194.719L94.0079 186.922L92.3897 226.036H92.3859Z" fill="#1E1208"/>
<path d="M245.196 231.097C238.899 231.097 233.761 227.421 232.411 221.947C231.587 218.612 232.284 215.074 234.378 211.99C236.453 208.931 239.651 206.682 243.386 205.652C244.812 205.259 246.266 205.061 247.707 205.061C254.004 205.061 259.142 208.736 260.492 214.211C262.183 221.063 257.259 228.374 249.521 230.505C248.095 230.898 246.641 231.097 245.199 231.097H245.196Z" fill="#69779F"/>
<path d="M247.703 205.539C253.601 205.539 258.728 208.971 260.051 214.332C261.681 220.942 256.914 227.973 249.402 230.043C247.983 230.432 246.568 230.619 245.196 230.619C239.298 230.619 234.171 227.186 232.848 221.825C231.218 215.216 235.985 208.185 243.497 206.114C244.916 205.725 246.331 205.539 247.703 205.539ZM247.703 204.583C246.223 204.583 244.732 204.785 243.271 205.19C239.432 206.248 236.146 208.566 234.01 211.715C231.84 214.916 231.115 218.595 231.974 222.072C232.672 224.905 234.344 227.312 236.809 229.034C239.191 230.7 242.09 231.579 245.199 231.579C246.68 231.579 248.171 231.377 249.632 230.971C253.471 229.914 256.757 227.596 258.893 224.447C261.063 221.246 261.788 217.566 260.929 214.089C260.231 211.257 258.559 208.85 256.094 207.127C253.712 205.462 250.813 204.583 247.703 204.583Z" fill="#070505"/>
<path d="M259.211 213.964C258.502 211.086 256.696 208.764 254.261 207.233C255.185 208.412 255.875 209.782 256.251 211.309C257.88 217.915 253.114 224.949 245.602 227.02C241.361 228.187 237.154 227.527 233.998 225.537C237.074 229.46 242.787 231.271 248.562 229.679C256.074 227.608 260.841 220.573 259.211 213.968V213.964Z" fill="#48496D"/>
<path d="M122.867 256.428C118.653 256.428 114.719 255.399 111.785 253.531C108.472 251.42 106.723 248.449 106.723 244.936V244.462C106.716 237.565 106.708 232.114 121.709 231.575C121.897 231.567 122.089 231.563 122.277 231.563C126.123 231.563 129.75 232.969 132.492 235.518C135.226 238.063 136.733 241.406 136.733 244.936C136.733 248.466 135.391 251.489 132.856 253.499C130.441 255.411 126.989 256.424 122.875 256.424L122.867 256.428Z" fill="#69779F"/>
<path d="M122.277 232.106C130.023 232.106 136.219 238.018 136.219 244.94C136.219 251.861 130.874 255.889 122.871 255.889C114.868 255.889 107.237 252.023 107.237 244.94C107.237 237.856 106.888 232.653 121.728 232.118C121.913 232.11 122.097 232.11 122.277 232.11M122.277 231.024C122.081 231.024 121.886 231.024 121.694 231.036C114.611 231.291 110.47 232.576 108.273 235.206C106.206 237.682 106.21 240.976 106.214 244.466V244.94C106.214 246.856 106.712 248.639 107.698 250.232C108.599 251.687 109.887 252.955 111.525 253.997C114.535 255.913 118.565 256.971 122.871 256.971C127.177 256.971 130.655 255.921 133.159 253.936C135.832 251.821 137.243 248.708 137.243 244.94C137.243 241.171 135.675 237.767 132.83 235.117C129.996 232.479 126.249 231.024 122.277 231.024Z" fill="#070505"/>
<path d="M127.822 232.738C129.448 234.845 130.402 237.406 130.402 240.122C130.402 247.205 125.057 251.071 117.054 251.071C113.952 251.071 110.903 250.487 108.334 249.365C110.965 253.211 116.59 255.257 122.415 255.257C130.418 255.257 135.763 251.391 135.763 244.308C135.763 239.311 132.531 234.841 127.822 232.742V232.738Z" fill="#48496D"/>
<path d="M155.331 153.726C205.775 158.24 226.885 171.382 226.885 171.382L126.215 187.19L69.7922 168.314C69.7922 168.314 104.887 149.207 155.331 153.726Z" fill="#7D83BA"/>
<path d="M126.173 187.7L68.5576 168.424L69.5738 167.868C69.6428 167.832 76.7714 163.982 88.9424 160.193C100.166 156.7 118.112 152.534 139.87 152.534C145.02 152.534 150.235 152.765 155.366 153.227C181.468 155.565 199.571 160.25 210.159 163.771C221.659 167.593 227.062 170.92 227.115 170.952L228.266 171.665L126.169 187.7H126.173ZM71.0616 168.217L126.249 186.679L225.394 171.11C223.212 169.943 218.123 167.459 209.829 164.703C199.291 161.206 181.272 156.546 155.289 154.22C150.181 153.762 144.997 153.531 139.87 153.531C118.239 153.531 100.396 157.669 89.2377 161.141C79.8237 164.071 73.4544 167.03 71.0616 168.217Z" fill="#070505"/>
<path d="M286.337 252.862L180.352 279.445L138.129 247.468L247.711 223.28L286.337 252.862Z" fill="#69779F"/>
<path d="M180.252 279.984L136.979 247.213L247.818 222.745L247.987 222.875L287.445 253.097L180.252 279.984ZM139.276 247.724L180.456 278.907L285.229 252.627L247.608 223.811L139.28 247.724H139.276Z" fill="#070505"/>
<path d="M246.162 223.365L137.604 247.594L126.303 187.392L227.081 171.28L246.162 223.365Z" fill="#69779F"/>
<path d="M137.236 248.186L125.747 186.979L227.387 170.733L246.806 223.734L137.239 248.19L137.236 248.186ZM126.863 187.806L137.976 247.002L245.521 223L226.778 171.836L126.863 187.806Z" fill="#070505"/>
<path d="M233.581 222.789L148.797 240.174C145.242 240.916 141.707 238.821 140.453 235.226L133.574 199.229C131.936 194.528 134.866 189.443 139.567 188.815L218.741 176.917C222.265 176.447 225.605 178.704 226.678 182.282L239.171 212.792C240.506 217.222 237.895 221.89 233.581 222.789Z" fill="#93DBEF"/>
<path d="M147.363 240.693C144.146 240.693 141.239 238.549 140.127 235.356L140.111 235.303L133.236 199.335C132.431 196.997 132.669 194.435 133.896 192.308C135.126 190.172 137.178 188.766 139.525 188.458L218.69 176.561C219.016 176.516 219.342 176.496 219.664 176.496C223.031 176.496 225.976 178.769 227.004 182.161L239.497 212.671V212.687C240.168 214.896 239.907 217.311 238.792 219.305C237.676 221.302 235.801 222.705 233.645 223.154L148.858 240.539C148.364 240.64 147.861 240.693 147.359 240.693H147.363ZM140.79 235.125C141.81 238.014 144.448 239.955 147.363 239.955C147.819 239.955 148.279 239.907 148.728 239.813L233.515 222.429C235.475 222.02 237.181 220.743 238.193 218.928C239.206 217.116 239.443 214.928 238.845 212.922L226.352 182.412V182.396C225.416 179.304 222.728 177.225 219.664 177.225C219.373 177.225 219.074 177.245 218.783 177.282L139.617 189.18C137.477 189.463 135.61 190.74 134.49 192.685C133.37 194.63 133.155 196.968 133.899 199.104L133.915 199.156L140.79 235.125Z" fill="#1E1208"/>
<path d="M286.23 290.707L183.416 317.286L180.352 279.445L286.467 252.866L286.23 290.707Z" fill="#616387"/>
<path d="M182.959 317.963L179.807 279.028L180.237 278.918L286.985 252.181L286.74 291.132L286.352 291.234L182.959 317.963ZM180.9 279.863L183.876 316.609L285.72 290.281L285.95 253.551L180.9 279.863Z" fill="#070505"/>
<path d="M176.943 310.081L177.837 310.579C180.268 311.937 183.09 312.281 185.747 311.544L283.925 283.388C285.858 282.857 287.767 284.316 287.894 286.423L288.665 295.885C288.761 297.498 287.756 298.957 286.272 299.354L184.915 330.513C181.917 331.404 178.696 330.906 176.065 329.143L172.368 326.663C170.271 325.257 168.99 322.817 168.975 320.191L168.944 315.215C168.917 310.863 173.296 308.055 176.939 310.089L176.943 310.081Z" fill="url(#paint0_linear_24_5639)"/>
<path d="M181.943 331.437C179.769 331.437 177.649 330.784 175.816 329.556L172.119 327.076C169.876 325.573 168.526 322.996 168.507 320.187L168.476 315.211C168.465 313.529 169.071 311.953 170.183 310.774C171.299 309.586 172.836 308.906 174.401 308.906C175.363 308.906 176.291 309.153 177.162 309.639L178.055 310.138C179.562 310.98 181.257 311.422 182.96 311.422C183.857 311.422 184.754 311.301 185.625 311.057L283.799 282.902C284.105 282.817 284.416 282.776 284.727 282.776C286.644 282.776 288.239 284.361 288.362 286.387L289.132 295.837C289.244 297.697 288.093 299.371 286.395 299.828L185.046 330.983C184.033 331.283 182.99 331.437 181.94 331.437H181.943ZM174.401 309.903C173.085 309.903 171.789 310.474 170.85 311.475C169.918 312.464 169.412 313.789 169.42 315.203L169.45 320.179C169.466 322.647 170.65 324.912 172.625 326.233L176.322 328.714C178.005 329.844 179.949 330.44 181.947 330.44C182.91 330.44 183.865 330.298 184.793 330.022L286.153 298.864H286.161C287.422 298.524 288.281 297.284 288.197 295.91L287.426 286.46C287.334 284.948 286.153 283.773 284.73 283.773C284.5 283.773 284.27 283.806 284.044 283.866L185.87 312.022C184.919 312.285 183.941 312.419 182.963 312.419C181.107 312.419 179.259 311.933 177.618 311.017L176.725 310.519C175.992 310.109 175.21 309.903 174.405 309.903H174.401Z" fill="#01080C"/>
<path d="M288.239 290.439C287.821 291.197 287.127 291.777 286.276 292.004L184.919 323.162C181.92 324.054 178.699 323.555 176.069 321.792L172.372 319.312C170.547 318.089 169.347 316.087 169.051 313.858C168.982 314.231 168.948 314.616 168.952 315.017L168.982 319.993C168.998 322.619 170.275 325.059 172.376 326.465L176.073 328.945C178.703 330.712 181.92 331.21 184.923 330.314L286.28 299.156C287.764 298.759 288.768 297.304 288.672 295.687L288.243 290.435L288.239 290.439Z" fill="#878787"/>
<path d="M115.957 173.821C115.723 173.821 115.52 173.639 115.489 173.388L111.559 141.593C111.544 141.455 111.578 141.317 111.662 141.212C111.747 141.107 111.866 141.042 111.996 141.03L183.328 136.252C183.707 136.207 184.091 136.183 184.47 136.183C187.952 136.183 191.307 138.039 193.911 141.407C196.365 144.58 197.769 148.632 197.769 152.526C197.769 155.906 196.86 158.657 195.069 160.712C193.34 162.698 190.82 163.986 187.58 164.549C187.573 164.549 116.007 173.813 116.007 173.813C115.988 173.813 115.969 173.813 115.95 173.813L115.957 173.821Z" fill="#93DBEF"/>
<path d="M184.474 136.686C191.572 136.686 197.301 144.847 197.301 152.53C197.301 159.16 193.7 162.989 187.511 164.063L115.957 173.327L112.027 141.532L183.37 136.755C183.742 136.71 184.11 136.69 184.47 136.69M184.474 135.693C184.079 135.693 183.68 135.717 183.289 135.762L111.969 140.539C111.709 140.556 111.467 140.689 111.302 140.9C111.137 141.115 111.06 141.39 111.095 141.662L115.025 173.457C115.087 173.959 115.493 174.324 115.961 174.324C115.999 174.324 116.038 174.324 116.076 174.316L187.63 165.052C187.63 165.052 187.657 165.052 187.668 165.048C191.012 164.469 193.624 163.123 195.426 161.056C197.301 158.909 198.248 156.04 198.248 152.53C198.248 148.523 196.803 144.357 194.283 141.099C193.006 139.449 191.541 138.14 189.927 137.208C188.182 136.203 186.349 135.693 184.478 135.693H184.474Z" fill="#1E1208"/>
<path d="M156.865 152.988C155.826 148.133 154.457 143.372 152.751 138.736L112.748 141.747L113.549 173.57L159.227 167.496C158.621 162.637 157.893 157.794 156.861 152.988H156.865Z" fill="#4B53DB"/>
<path d="M182.933 136.394L154.906 138.618C155.124 139.222 155.339 139.83 155.55 140.438C158.529 149.159 160.147 158.544 161.282 167.633L187.162 164.193C193.489 163.35 197.171 159.326 197.171 152.696C197.171 144.62 190.694 135.778 182.933 136.394Z" fill="#E21821"/>
<path d="M123.209 159.816C123.209 168.537 121.234 174.64 112.955 174.336C106.773 174.109 100.661 168.285 100.661 159.488C100.661 150.69 105.673 141.086 111.854 141.313C118.036 141.54 123.205 151.014 123.205 159.812L123.209 159.816Z" fill="#3900A2"/>
<path d="M113.542 174.846C113.346 174.846 113.147 174.846 112.94 174.834C109.718 174.717 106.513 173.124 104.147 170.47C101.597 167.605 100.189 163.707 100.189 159.492C100.189 155.278 101.382 150.512 103.468 146.885C105.773 142.873 108.764 140.71 111.874 140.823C114.957 140.936 117.932 143.165 120.252 147.092C122.43 150.784 123.68 155.419 123.68 159.82C123.68 164.724 123.051 168.128 121.702 170.531C120.068 173.436 117.399 174.85 113.542 174.85V174.846ZM111.64 141.808C105.723 141.808 101.133 151.31 101.133 159.488C101.133 168.197 107.153 173.623 112.974 173.837C113.166 173.845 113.354 173.85 113.542 173.85C117.039 173.85 119.443 172.597 120.889 170.02C122.15 167.775 122.737 164.533 122.737 159.816C122.737 150.767 117.441 142.018 111.839 141.812C111.774 141.812 111.705 141.812 111.64 141.812V141.808Z" fill="#281A0B"/>
<path d="M148.394 170.458C148.226 170.458 148.068 170.364 147.984 170.206C147.888 170.028 147.907 169.805 148.026 169.647C152.206 164.176 153.939 158.673 153.176 153.296C151.922 144.45 144.253 138.878 144.176 138.821C144.011 138.703 143.935 138.485 143.985 138.282C144.034 138.075 144.203 137.929 144.406 137.913L163.246 136.418C163.246 136.418 163.269 136.418 163.28 136.418C163.349 136.418 163.418 136.434 163.48 136.467C168.354 138.866 171.609 142.444 173.151 147.096C176.211 156.319 171.552 166.434 171.352 166.859C171.283 167.005 171.149 167.11 170.996 167.131L148.46 170.462C148.437 170.462 148.417 170.466 148.394 170.466V170.458Z" fill="#878787"/>
<path d="M163.284 136.913C180.824 145.548 170.93 166.628 170.93 166.628L148.394 169.959C162.602 151.359 144.445 138.408 144.445 138.408L163.284 136.913ZM163.284 135.916C163.261 135.916 163.238 135.916 163.215 135.916L144.376 137.411C143.977 137.444 143.639 137.739 143.536 138.149C143.432 138.558 143.586 138.991 143.919 139.231C143.938 139.243 145.852 140.629 147.892 143.072C149.744 145.297 152.087 148.891 152.72 153.369C153.46 158.601 151.757 163.97 147.666 169.327C147.424 169.647 147.39 170.089 147.578 170.446C147.746 170.762 148.061 170.952 148.398 170.952C148.44 170.952 148.486 170.952 148.529 170.944L171.065 167.613C171.371 167.569 171.64 167.362 171.778 167.07C171.828 166.961 173.039 164.363 173.875 160.59C174.654 157.081 175.24 151.866 173.599 146.922C172.012 142.136 168.676 138.465 163.683 136.009C163.556 135.948 163.422 135.916 163.284 135.916Z" fill="#281A0B"/>
<path d="M156.691 241.572L154.947 245.479L210.182 273.009L211.926 269.102L156.691 241.572Z" fill="#5F689F"/>
<path d="M235.201 224.899L232.03 227.625L257.691 260.969L260.862 258.243L235.201 224.899Z" fill="#5F689F"/>
<path d="M156.02 243.075L155.618 243.977L210.853 271.506L211.255 270.605L156.02 243.075Z" fill="#281A0B"/>
<path d="M233.982 225.947L233.25 226.576L258.91 259.92L259.642 259.291L233.982 225.947Z" fill="#281A0B"/>
<path d="M121.011 145.803C120.812 145.803 120.643 145.645 120.62 145.431C120.597 145.204 120.754 144.997 120.969 144.973L144.403 142.31C144.617 142.286 144.813 142.452 144.836 142.679C144.859 142.906 144.702 143.113 144.487 143.137L121.054 145.799C121.054 145.799 121.027 145.799 121.011 145.799V145.803Z" fill="white"/>
<path d="M171.609 141.042C171.41 141.042 171.237 140.88 171.218 140.665C171.199 140.438 171.356 140.235 171.571 140.211L185.433 138.801C185.648 138.781 185.839 138.947 185.862 139.174C185.882 139.401 185.724 139.603 185.51 139.628L171.647 141.038C171.647 141.038 171.621 141.038 171.609 141.038V141.042Z" fill="white"/>
<path d="M181.295 289.779L212.038 282.574L216.727 297.709L182.622 307.107L181.295 289.779Z" fill="url(#paint1_linear_24_5639)"/>
<path d="M182.2 307.739L180.793 289.386L212.352 281.99L217.333 298.058L182.2 307.739ZM181.798 290.172L183.048 306.478L216.121 297.365L211.719 283.161L181.794 290.172H181.798Z" fill="#1C1916"/>
<path d="M258.962 270.956L286.245 261.263L286.537 276.394L255.89 285.791L258.962 270.956Z" fill="url(#paint2_linear_24_5639)"/>
<path d="M255.258 286.505L258.555 270.571L286.701 260.57L287.012 276.763L255.258 286.5V286.505ZM259.364 271.337L256.519 285.082L286.057 276.025L285.785 261.951L259.364 271.341V271.337Z" fill="#1C1916"/>
<path d="M211.539 273.562L221.877 301.34L252.013 291.858L256.615 261.956L211.539 273.562Z" fill="#48496D"/>
<path d="M221.57 302.001L210.849 273.181L257.244 261.234L252.47 292.279L221.574 302.001H221.57ZM212.233 273.942L222.18 300.684L251.561 291.44L255.986 262.677L212.233 273.942Z" fill="#070505"/>
<path d="M255.561 267.431L214.241 278.919L214.502 279.966L255.821 268.478L255.561 267.431Z" fill="#070505"/>
<path d="M253.926 276.577L216.617 287.017L216.879 288.063L254.188 277.623L253.926 276.577Z" fill="#070505"/>
<path d="M252.89 284.739L219.314 294.34L219.581 295.384L253.158 285.783L252.89 284.739Z" fill="#070505"/>
<path d="M202.225 180.066L208 226.651L187.504 230.586L183.473 183.332L202.225 180.066Z" fill="white"/>
<path d="M213.253 178.473L219.032 224.56L212.053 226.335L207.865 179.579L213.253 178.473Z" fill="white"/>
<path d="M38.1337 197.551L119.52 188.101L110.957 211.159H39.564L38.1337 197.551Z" fill="#69779F"/>
<path d="M111.306 211.702H39.1078L37.5701 197.074L120.306 187.469L111.31 211.702H111.306ZM40.0242 210.62H110.612L118.734 188.742L38.7013 198.034L40.0242 210.625V210.62Z" fill="#070505"/>
<path d="M111.287 305.323C108.311 324.621 109.929 332.519 109.258 339.712C106.712 367.093 102.283 352.298 90.4379 350.896C84.6131 350.207 76.7675 350.499 76.7867 342.382C76.802 334.756 78.7155 313.809 82.5616 295.043C86.6378 275.146 97.1446 264.585 105.654 265.979C108.338 266.421 110.32 260.525 111.54 262.523C114.19 266.859 113.403 291.57 111.283 305.323H111.287Z" fill="#313131"/>
<path d="M103.844 356.557C102.467 356.557 100.883 355.666 99.0466 354.632C96.7381 353.335 93.8698 351.723 90.3995 351.309C89.7399 351.232 89.0689 351.167 88.3556 351.099C85.5525 350.831 82.6536 350.556 80.3681 349.409C77.6839 348.067 76.384 345.766 76.3916 342.378C76.4108 334.241 78.4278 313.234 82.1742 294.949C83.9918 286.071 87.1861 278.533 91.4042 273.156C95.3116 268.176 99.8327 265.436 104.135 265.436C104.668 265.436 105.197 265.481 105.715 265.566C105.792 265.578 105.868 265.586 105.945 265.586C107.007 265.586 108.008 264.395 108.89 263.345C109.668 262.421 110.282 261.692 110.961 261.692C111.321 261.692 111.632 261.895 111.877 262.3C114.669 266.867 113.741 292.02 111.678 305.396C109.676 318.368 109.76 326.294 109.818 332.081C109.849 334.93 109.872 337.39 109.653 339.756C108.499 352.164 106.98 356.561 103.84 356.561L103.844 356.557ZM104.139 266.275C100.078 266.275 95.7718 268.909 92.0177 273.695C87.8802 278.971 84.7434 286.383 82.9527 295.132C79.2177 313.359 77.2046 334.285 77.1892 342.386C77.1739 349.194 82.8951 349.741 88.4285 350.268C89.1456 350.337 89.8205 350.402 90.4877 350.479C94.1076 350.908 97.0526 352.561 99.4185 353.895C101.159 354.875 102.666 355.722 103.844 355.722C105.964 355.722 107.628 352.991 108.867 339.671C109.082 337.349 109.059 334.91 109.028 332.085C108.967 326.266 108.886 318.299 110.896 305.254C113.112 290.885 113.683 266.79 111.21 262.75C111.118 262.6 111.037 262.527 110.961 262.527C110.639 262.527 110.025 263.256 109.484 263.9C108.541 265.023 107.364 266.421 105.945 266.421C105.83 266.421 105.711 266.413 105.596 266.393C105.121 266.316 104.63 266.275 104.135 266.275H104.139Z" fill="#070202"/>
<path d="M105.577 310.47C105.577 310.47 105.588 310.827 105.608 311.451C105.627 312.075 105.65 312.966 105.68 314.032C105.696 314.567 105.711 315.142 105.73 315.754C105.749 316.366 105.772 317.006 105.796 317.675C105.822 318.34 105.849 319.029 105.876 319.726C105.911 320.423 105.941 321.132 105.983 321.837C106.022 322.546 106.072 323.251 106.125 323.944C106.148 324.292 106.187 324.633 106.213 324.973C106.24 325.314 106.282 325.646 106.313 325.978C106.352 326.307 106.386 326.631 106.421 326.947C106.463 327.263 106.501 327.571 106.539 327.871C106.585 328.171 106.631 328.462 106.677 328.742C106.727 329.022 106.769 329.293 106.819 329.552C106.873 329.812 106.927 330.059 106.977 330.294C107.034 330.529 107.084 330.748 107.138 330.959C107.256 331.368 107.352 331.733 107.456 332.02C107.51 332.166 107.544 332.3 107.594 332.409C107.64 332.519 107.678 332.616 107.709 332.693C107.77 332.847 107.805 332.928 107.805 332.928C107.805 332.928 107.759 332.855 107.671 332.713C107.582 332.571 107.448 332.369 107.314 332.089C107.164 331.814 107.015 331.465 106.85 331.064C106.773 330.857 106.697 330.643 106.612 330.412C106.536 330.181 106.463 329.933 106.382 329.674C106.309 329.415 106.236 329.143 106.16 328.864C106.091 328.584 106.029 328.288 105.96 327.988C105.899 327.684 105.838 327.376 105.776 327.056C105.719 326.736 105.669 326.412 105.615 326.08C105.519 325.415 105.427 324.726 105.362 324.021C105.293 323.32 105.236 322.603 105.193 321.889C105.113 320.459 105.082 319.029 105.094 317.687C105.098 317.019 105.121 316.37 105.14 315.754C105.159 315.138 105.193 314.559 105.228 314.024C105.259 313.489 105.301 312.999 105.339 312.565C105.378 312.131 105.42 311.755 105.454 311.443C105.489 311.131 105.523 310.887 105.542 310.721C105.565 310.555 105.577 310.466 105.577 310.466V310.47Z" fill="#070202"/>
<path d="M98.7399 274.558C98.7629 277.8 83.4206 288.211 83.2902 292.077C83.1062 297.418 81.1045 307.646 80.0768 318.38C78.7577 332.174 78.2324 346.803 76.5912 352.947C74.6278 360.294 70.9811 350.523 64.8112 351.188C56.3597 352.104 41.3702 358.186 41.305 351.905C41.0826 329.99 43.4754 305.36 43.3757 291.282C43.2952 280.155 44.3497 265.996 46.4396 261.761C48.1728 258.248 51.6278 263.739 55.5314 263.706C64.144 263.637 98.6019 254.199 98.7438 274.558H98.7399Z" fill="#313131"/>
<path d="M74.5625 356.12C73.5923 356.12 72.5378 355.305 71.3184 354.361C69.7194 353.121 67.7292 351.581 65.4208 351.581C65.2329 351.581 65.0373 351.593 64.8494 351.613C62.4144 351.877 59.3506 352.594 56.3902 353.283C52.4789 354.195 48.4372 355.139 45.5229 355.139C42.4821 355.139 40.9252 354.053 40.906 351.913C40.7795 339.598 41.4812 326.404 42.0986 314.761C42.5933 305.473 43.0189 297.454 42.9729 291.29C42.8924 280.098 43.9546 265.874 46.0828 261.57C46.5429 260.642 47.1795 260.172 47.9809 260.172C48.9242 260.172 49.9404 260.8 51.1176 261.53C52.4521 262.357 53.9629 263.293 55.4929 263.293H55.5236C57.1265 263.28 59.7187 262.928 62.7174 262.519C67.5221 261.862 73.5041 261.048 79.2637 261.048C85.0233 261.048 89.6901 261.911 92.9533 263.686C97.0219 265.898 99.104 269.558 99.1386 274.558C99.1501 276.199 96.347 278.858 91.7301 283.044C87.9875 286.436 83.7464 290.277 83.685 292.097C83.5892 294.881 83.0025 298.99 82.3238 303.743C81.6872 308.201 80.9625 313.254 80.4678 318.429C80.0345 322.955 79.6894 327.526 79.3558 331.947C78.6694 341.045 78.0788 348.902 76.9668 353.068C76.6178 354.381 75.9851 356.124 74.5587 356.124L74.5625 356.12ZM65.4169 350.738C67.9823 350.738 70.0913 352.371 71.7824 353.68C72.8906 354.539 73.8454 355.277 74.5587 355.277C74.9843 355.277 75.617 355.021 76.2037 352.829C77.2966 348.74 77.8833 340.923 78.5658 331.87C78.8994 327.445 79.2446 322.87 79.6779 318.336C80.1764 313.14 80.8973 308.075 81.5377 303.609C82.2126 298.88 82.7993 294.796 82.8913 292.06C82.9641 289.876 86.9713 286.245 91.2124 282.403C94.56 279.368 98.3525 275.932 98.341 274.562C98.2796 266.032 92.0407 261.882 79.2599 261.882C73.554 261.882 67.5988 262.693 62.8171 263.345C59.7915 263.759 57.1802 264.115 55.5274 264.127H55.4929C53.7482 264.127 52.1376 263.131 50.7188 262.251C49.6873 261.611 48.7133 261.007 47.9848 261.007C47.6473 261.007 47.2025 261.117 46.7884 261.955C44.7215 266.141 43.69 280.187 43.7705 291.282C43.8127 297.47 43.387 305.506 42.8924 314.806C42.275 326.436 41.5733 339.614 41.6998 351.901C41.7113 352.93 42.1178 354.296 45.5229 354.296C48.349 354.296 52.3486 353.36 56.2177 352.46C59.201 351.763 62.2879 351.042 64.7689 350.774C64.9836 350.75 65.2022 350.738 65.4208 350.738H65.4169Z" fill="#070202"/>
<path d="M77.0551 352.647C76.9094 359.754 67.9095 365.314 56.954 365.059C45.9985 364.804 37.1827 361.169 37.3284 354.061C37.4742 346.953 46.5315 339.063 57.487 339.319C68.4425 339.574 77.2046 345.539 77.0551 352.651V352.647Z" fill="#313131"/>
<path d="M57.6711 365.489C57.4295 365.489 57.1879 365.489 56.9425 365.48C51.2098 365.347 46.3206 364.321 42.8004 362.51C38.8853 360.496 36.8568 357.57 36.9296 354.053C37.0025 350.458 39.1959 346.694 42.9423 343.727C46.8805 340.611 51.8616 338.893 56.9693 338.893C57.1419 338.893 57.3183 338.893 57.4909 338.897C62.8632 339.023 67.8865 340.498 71.6444 343.059C75.4599 345.66 77.5229 349.068 77.4462 352.655C77.2967 359.848 68.6074 365.484 57.6672 365.484L57.6711 365.489ZM56.9693 339.728C46.2976 339.728 37.8576 347.435 37.7196 354.069C37.6352 358.069 40.6262 360.456 43.1455 361.752C46.5622 363.511 51.3401 364.508 56.9578 364.638C57.1956 364.642 57.4333 364.646 57.6672 364.646C62.7443 364.646 67.5107 363.385 71.0846 361.104C74.6086 358.851 76.5872 355.844 76.6524 352.635C76.7943 345.77 68.1894 339.979 57.4717 339.732C57.303 339.732 57.1342 339.728 56.9655 339.728H56.9693Z" fill="#070202"/>
<path d="M72.6184 360.873C71.9819 361.412 71.3032 361.902 70.5976 362.352C70.241 362.567 69.8844 362.79 69.5162 362.98C69.1519 363.183 68.78 363.369 68.4042 363.552C66.8972 364.257 65.3212 364.816 63.7068 365.213C62.0924 365.606 60.4474 365.853 58.7946 365.963C57.1496 366.064 55.5007 366.08 53.8518 365.995C52.2029 365.898 50.554 365.711 48.9243 365.363C47.2985 365.014 45.6841 364.524 44.1617 363.783C43.4025 363.414 42.6586 362.988 41.9722 362.47C41.2858 361.951 40.6454 361.359 40.1009 360.67C39.564 359.981 39.123 359.203 38.847 358.369C38.7818 358.158 38.7281 357.943 38.6667 357.736L38.544 357.092L38.4827 356.44V355.791C38.5862 356.646 38.8086 357.477 39.1691 358.227C39.5257 358.977 39.9973 359.653 40.561 360.233C41.6731 361.408 43.0842 362.218 44.5529 362.822C46.0254 363.43 47.5784 363.835 49.1506 364.127C49.9367 364.269 50.7266 364.39 51.5242 364.471C52.318 364.569 53.1194 364.625 53.9208 364.67C55.5237 364.755 57.1343 364.759 58.7448 364.707C60.3438 364.646 61.939 364.476 63.5189 364.192C63.9139 364.115 64.3088 364.042 64.6999 363.953C65.0911 363.86 65.4822 363.774 65.8733 363.665C66.6556 363.467 67.4225 363.219 68.1856 362.948C68.9525 362.684 69.7003 362.36 70.4442 362.024C71.1805 361.675 71.909 361.286 72.6223 360.869L72.6184 360.873Z" fill="#707070"/>
<path d="M123.554 350.637C123.466 357.749 114.857 359.252 103.901 359.102C92.9458 358.952 80.8016 356.537 80.8898 349.429C80.978 342.317 93.2602 333.204 104.22 333.358C115.175 333.507 123.642 343.529 123.554 350.641V350.637Z" fill="#313131"/>
<path d="M105.308 359.532C104.844 359.532 104.373 359.532 103.897 359.523C99.5144 359.463 93.2179 359.025 88.1332 357.274C83.0217 355.516 80.4525 352.878 80.4947 349.425C80.5368 345.916 83.3975 341.794 88.1485 338.403C93.0108 334.93 98.7704 332.936 103.951 332.936C104.043 332.936 104.135 332.936 104.223 332.936C109.335 333.005 114.335 335.189 118.296 339.079C121.828 342.548 123.995 346.977 123.949 350.641C123.906 353.984 122.035 356.399 118.388 357.817C115.42 358.968 111.141 359.532 105.305 359.532H105.308ZM103.951 333.771C99.0005 333.771 93.2601 335.761 88.5934 339.092C84.057 342.329 81.3268 346.195 81.2884 349.433C81.2501 352.476 83.6352 354.847 88.3786 356.476C92.2746 357.813 97.7888 358.599 103.909 358.681C104.38 358.689 104.848 358.689 105.308 358.689C117.583 358.689 123.09 356.201 123.159 350.629C123.201 347.192 121.13 343.002 117.759 339.691C113.94 335.943 109.132 333.84 104.216 333.771C104.127 333.771 104.039 333.771 103.951 333.771Z" fill="#070202"/>
<path d="M122.844 352.197C122.852 353.238 122.656 354.312 122.189 355.273L122.005 355.625C121.947 355.747 121.863 355.848 121.794 355.961C121.656 356.188 121.483 356.391 121.318 356.598C120.969 356.991 120.59 357.364 120.168 357.676C119.332 358.308 118.4 358.774 117.445 359.134C116.49 359.499 115.505 359.746 114.516 359.945C112.537 360.35 110.535 360.476 108.541 360.541C106.547 360.593 104.557 360.524 102.578 360.407C101.589 360.346 100.6 360.273 99.6104 360.192C98.621 360.103 97.6317 360.002 96.6424 359.876C95.653 359.75 94.6675 359.6 93.682 359.414C92.6965 359.232 91.7187 359.013 90.7486 358.737C89.7784 358.462 88.8159 358.142 87.8841 357.724C86.9523 357.307 86.0473 356.796 85.2382 356.132C84.8317 355.807 84.4636 355.418 84.1262 355.009C83.9728 354.79 83.8041 354.588 83.6737 354.349C83.6085 354.231 83.5318 354.122 83.4781 354L83.3132 353.635C82.8914 352.647 82.7917 351.548 82.9106 350.515C82.9374 351.038 82.9643 351.557 83.0985 352.055C83.202 352.558 83.3938 353.032 83.6277 353.469L83.8156 353.789C83.8808 353.895 83.9574 353.992 84.0265 354.093C84.1607 354.3 84.3371 354.474 84.4905 354.661C84.8356 355.009 85.196 355.333 85.6025 355.601C86.3963 356.156 87.2744 356.581 88.187 356.914C89.0997 357.246 90.0315 357.518 90.9825 357.732C92.8844 358.15 94.8248 358.421 96.7766 358.624C97.7506 358.721 98.7284 358.814 99.7101 358.883C100.692 358.96 101.67 359.025 102.655 359.082C103.637 359.143 104.615 359.195 105.596 359.228C106.574 359.264 107.556 359.284 108.534 359.284C109.511 359.284 110.489 359.264 111.459 359.207L112.188 359.159L112.916 359.094C113.4 359.049 113.883 358.993 114.362 358.924C115.321 358.786 116.272 358.583 117.196 358.308C117.43 358.243 117.652 358.158 117.882 358.081C118.109 358 118.331 357.903 118.553 357.813C118.991 357.611 119.424 357.4 119.826 357.133C120.241 356.881 120.616 356.573 120.969 356.237C121.134 356.059 121.314 355.889 121.46 355.69C121.533 355.593 121.621 355.5 121.686 355.394L121.893 355.082C122.146 354.657 122.373 354.199 122.518 353.704C122.607 353.465 122.66 353.21 122.718 352.959C122.752 352.833 122.764 352.703 122.787 352.578L122.848 352.193L122.844 352.197Z" fill="#707070"/>
<path d="M118.918 346.232C118.918 344.445 116.747 342.994 114.071 342.994C111.394 342.994 109.224 344.445 109.224 346.232C109.224 348.019 111.394 349.47 114.071 349.47C116.747 349.47 118.918 348.019 118.918 346.232Z" fill="#EFEFEF"/>
<path d="M53.5681 353.741C53.3917 351.962 51.4782 350.714 49.2886 350.953C47.1029 351.192 45.4693 352.829 45.6457 354.608C45.8221 356.387 47.7356 357.635 49.9252 357.396C52.1109 357.157 53.7444 355.52 53.5681 353.741Z" fill="#EFEFEF"/>
<path d="M60.4473 350.645C60.3783 349.94 59.4695 349.466 58.4149 349.579C57.3604 349.697 56.5628 350.357 56.6318 351.062C56.7009 351.767 57.6097 352.241 58.6642 352.128C59.7187 352.01 60.5163 351.35 60.4473 350.645Z" fill="#EFEFEF"/>
<path d="M48.1919 309.578C48.3223 312.735 48.2686 315.9 48.1191 319.061C48.0501 320.641 47.9312 322.218 47.8008 323.794C47.6628 325.37 47.4864 326.943 47.2831 328.511C47.0646 330.079 46.8192 331.643 46.5162 333.195C46.3628 333.974 46.1941 334.748 46.01 335.517C45.8298 336.287 45.6304 337.053 45.4042 337.815C44.9555 339.335 44.4263 340.83 43.7323 342.248C43.3795 342.954 42.9922 343.642 42.532 344.275C42.0719 344.907 41.5389 345.486 40.9215 345.936C41.2014 345.673 41.466 345.397 41.6961 345.089C41.9377 344.789 42.1486 344.469 42.348 344.141C42.7468 343.484 43.0842 342.783 43.3795 342.07C43.6786 341.357 43.9394 340.623 44.1694 339.882C44.3995 339.14 44.6142 338.391 44.806 337.633C45.1818 336.117 45.5115 334.589 45.7761 333.046C46.0561 331.506 46.2938 329.954 46.497 328.398C46.7156 326.841 46.892 325.281 47.0569 323.717C47.2295 322.153 47.3637 320.585 47.5055 319.016C47.7701 315.88 47.9925 312.735 48.1919 309.583V309.578Z" fill="#070202"/>
<path d="M84.548 291.987C86.5803 291.388 88.605 290.792 90.622 290.172C91.6267 289.856 92.6352 289.552 93.636 289.216C94.6369 288.887 95.6377 288.555 96.627 288.194C97.6202 287.846 98.6057 287.473 99.5797 287.076C100.067 286.881 100.554 286.675 101.033 286.464C101.512 286.245 101.992 286.026 102.463 285.799C102.939 285.568 103.399 285.321 103.859 285.062C104.319 284.807 104.768 284.531 105.205 284.231C106.076 283.636 106.904 282.951 107.521 282.043C107.291 282.545 106.973 283.003 106.612 283.421C106.252 283.838 105.849 284.215 105.435 284.568C104.592 285.261 103.683 285.856 102.743 286.387C101.808 286.926 100.837 287.38 99.8596 287.818C98.8779 288.243 97.8848 288.628 96.8839 288.993C95.8793 289.341 94.8708 289.678 93.8508 289.977C92.8308 290.269 91.8107 290.561 90.7792 290.804C88.7239 291.307 86.6455 291.728 84.548 291.987Z" fill="#070202"/>
<path d="M105.577 176.358C127.101 182.757 148.302 179.831 147.259 196.332C146.719 204.862 158.188 218.891 115.098 213.222C98.1147 210.989 84.6514 201.004 85.2227 192.478C85.7941 183.952 89.1034 171.463 105.577 176.362V176.358Z" fill="url(#paint3_linear_24_5639)"/>
<path d="M131.894 214.896C127.35 214.896 121.686 214.454 115.056 213.583C106.911 212.513 99.2153 209.644 93.3867 205.51C87.6961 201.474 84.5939 196.713 84.8815 192.45C85.6523 180.961 90.4647 174.891 98.8012 174.891C100.868 174.891 103.18 175.268 105.677 176.009C111.781 177.825 117.967 178.907 123.423 179.859C137.362 182.294 148.375 184.219 147.608 196.36C147.516 197.831 147.788 199.468 148.08 201.203C148.647 204.578 149.23 208.067 147.114 210.738C144.889 213.542 139.912 214.904 131.898 214.904L131.894 214.896ZM98.7973 175.62C88.8005 175.62 86.0856 184.799 85.5679 192.498C85.2995 196.494 88.2905 201.016 93.7702 204.902C99.5106 208.975 107.103 211.8 115.14 212.857C121.74 213.724 127.377 214.166 131.89 214.166C139.686 214.166 144.491 212.89 146.577 210.26C148.486 207.853 147.93 204.534 147.393 201.324C147.094 199.545 146.814 197.868 146.914 196.307C147.248 191.039 145.269 187.477 140.691 185.095C136.419 182.87 130.345 181.808 123.308 180.58C117.832 179.624 111.628 178.538 105.485 176.714C103.05 175.989 100.803 175.624 98.7973 175.624V175.62Z" fill="#1E1208"/>
<path d="M136.338 182.651C157.076 182.38 171.958 172.614 175.612 188.693C177.503 197.005 182.833 212.878 154.898 213.899C148.31 214.138 141.308 216.865 129.685 214.397" fill="#3F77A5"/>
<path d="M139.218 215.799C136.381 215.799 133.228 215.528 129.62 214.762L129.758 214.045C137.922 215.779 143.732 214.94 148.858 214.199C150.96 213.895 152.946 213.607 154.89 213.538C164.991 213.169 171.686 210.77 174.788 206.41C178.293 201.486 176.736 194.938 175.597 190.152C175.486 189.678 175.375 189.22 175.275 188.782C172.806 177.918 165.136 179.195 153.529 181.127C148.44 181.974 142.673 182.935 136.342 183.016L136.335 182.282C142.612 182.201 148.356 181.245 153.422 180.402C164.983 178.477 173.335 177.087 175.95 188.608C176.05 189.042 176.157 189.5 176.268 189.97C177.438 194.897 179.045 201.644 175.34 206.848C172.058 211.455 165.374 213.883 154.909 214.267C153 214.336 151.029 214.62 148.947 214.924C146.025 215.345 142.884 215.799 139.214 215.799H139.218Z" fill="#1E1208"/>
<path d="M164.902 210.373C172.164 210.373 178.051 204.03 178.051 196.206C178.051 188.382 172.164 182.039 164.902 182.039C157.64 182.039 151.753 188.382 151.753 196.206C151.753 204.03 157.64 210.373 164.902 210.373Z" fill="#262A77"/>
<path d="M164.902 210.738C157.459 210.738 151.405 204.218 151.405 196.206C151.405 188.195 157.459 181.675 164.902 181.675C172.345 181.675 178.4 188.195 178.4 196.206C178.4 204.218 172.345 210.738 164.902 210.738ZM164.902 182.408C157.843 182.408 152.099 188.6 152.099 196.206C152.099 203.813 157.843 210.005 164.902 210.005C171.962 210.005 177.706 203.813 177.706 196.206C177.706 188.6 171.962 182.408 164.902 182.408Z" fill="#1E1208"/>
<path d="M184.363 185.561C184.363 176.127 179.877 167.11 172.863 168.48C148.256 173.278 151.777 185.565 151.777 194.999C151.777 204.432 164.63 204.971 171.763 204.971C178.895 204.971 184.363 194.999 184.363 185.565V185.561Z" fill="#F5E2D6"/>
<path d="M171.762 205.543C167.932 205.543 163.016 205.377 158.936 204.068C153.824 202.431 151.228 199.379 151.228 194.995C151.228 193.977 151.186 192.94 151.144 191.842C150.971 187.445 150.776 182.465 153.467 178.117C156.52 173.185 162.832 169.846 172.763 167.909C173.266 167.812 173.768 167.763 174.259 167.763C177.349 167.763 180.137 169.753 182.112 173.363C183.891 176.621 184.908 181.067 184.908 185.557C184.908 190.334 183.554 195.274 181.196 199.112C178.646 203.257 175.298 205.539 171.762 205.539V205.543ZM174.259 168.914C173.833 168.914 173.4 168.958 172.963 169.043C163.338 170.92 157.26 174.093 154.38 178.749C151.88 182.789 152.06 187.368 152.233 191.797C152.275 192.908 152.317 193.957 152.317 194.999C152.317 203.419 163.414 204.396 171.759 204.396C178.657 204.396 183.815 194.456 183.815 185.565C183.815 177.383 180.241 168.922 174.255 168.922L174.259 168.914Z" fill="#281A0B"/>
<path d="M184.969 224.808L162.916 230.688C161.447 231.081 160.021 229.906 160.021 228.305V188.612C160.021 187.486 160.746 186.505 161.777 186.229L183.83 180.35C185.299 179.956 186.725 181.132 186.725 182.732V222.425C186.725 223.551 186.001 224.532 184.969 224.808Z" fill="#313131"/>
<path d="M162.345 231.178C160.845 231.178 159.626 229.885 159.626 228.301V188.608C159.626 187.287 160.473 186.14 161.681 185.82L183.734 179.94C183.957 179.879 184.179 179.851 184.405 179.851C185.905 179.851 187.124 181.144 187.124 182.728V222.421C187.124 223.742 186.276 224.889 185.069 225.209L163.016 231.089C162.793 231.15 162.571 231.178 162.345 231.178ZM184.405 180.69C184.248 180.69 184.087 180.71 183.93 180.755L161.877 186.635C161.018 186.862 160.42 187.676 160.42 188.612V228.305C160.42 229.431 161.282 230.343 162.345 230.343C162.502 230.343 162.663 230.323 162.82 230.278L184.873 224.398C185.732 224.171 186.33 223.357 186.33 222.421V182.728C186.33 181.602 185.467 180.69 184.405 180.69Z" fill="#070202"/>
<path d="M88.5513 90.7238C88.7852 97.4872 93.7779 105.114 98.2222 104.939C102.667 104.769 105.757 97.159 105.523 90.3916C105.289 83.6282 101.823 80.2688 97.3748 80.439C92.9304 80.6092 88.3136 83.9564 88.5475 90.7238H88.5513Z" fill="#848484"/>
<path d="M90.2731 91.0237C90.4725 96.7618 94.7059 103.225 98.4753 103.079C102.245 102.934 104.864 96.4782 104.668 90.74C104.473 85.0019 101.528 82.1531 97.7582 82.299C93.9888 82.4449 90.0737 85.2816 90.2731 91.0197V91.0237Z" fill="#BABABA"/>
<path d="M112.188 193.021C112.748 196.757 112.694 200.076 111.893 205.458C110.727 213.271 110.401 220.593 110.531 227.267C110.573 229.415 112.387 231.498 112.51 233.504C112.579 234.643 110.93 235.761 111.018 236.851C112.088 250.078 115.662 261.838 114.956 266C113.771 272.986 102.287 272.974 81.5684 277.76C65.9155 281.374 56.1103 274.258 50.9068 272.658C37.1942 268.447 47.3943 253.328 45.4463 239.631C43.3717 225.039 41.6807 216.083 40.1507 206.434C36.6458 184.284 40.5418 175.475 84.2296 173.278C90.1503 173.517 95.9597 174.206 100.764 176.309" fill="#3F77A5"/>
<path d="M72.9174 279.142C64.9184 279.142 58.9287 276.475 54.5956 274.55C53.1308 273.898 51.8615 273.335 50.807 273.01C46.5889 271.714 44.2767 269.359 43.5328 265.595C42.877 262.276 43.5328 258.227 44.2307 253.944C44.9899 249.264 45.776 244.421 45.1011 239.688C43.7168 229.95 42.4821 222.607 41.393 216.124C40.837 212.821 40.3155 209.705 39.8055 206.495C38.3023 197.009 38.1298 189.613 42.1485 184.345C47.4019 177.464 59.5883 174.15 84.2104 172.914H84.2257H84.2411C91.6035 173.209 96.7381 174.154 100.895 175.969L100.63 176.646C96.554 174.863 91.4962 173.939 84.2296 173.643C71.8591 174.267 62.6445 175.438 56.0566 177.233C49.5186 179.016 45.2698 181.419 42.6891 184.799C38.8162 189.873 38.9772 196.814 40.4881 206.37C40.9942 209.575 41.5196 212.691 42.0718 215.994C43.1608 222.478 44.3955 229.829 45.7798 239.575C46.4701 244.425 45.6763 249.324 44.9055 254.062C44.223 258.276 43.5749 262.259 44.2038 265.441C44.8902 268.913 47.0453 271.094 50.9911 272.305C52.0878 272.642 53.3685 273.213 54.8564 273.873C59.132 275.774 65.045 278.404 72.9213 278.404C75.5518 278.404 78.4009 278.112 81.484 277.399C86.6645 276.204 91.2354 275.312 95.2733 274.526C107.195 272.204 113.76 270.927 114.607 265.931C114.956 263.876 114.201 259.775 113.25 254.588C112.333 249.596 111.191 243.38 110.665 236.88C110.612 236.199 111.045 235.579 111.467 234.983C111.82 234.481 112.184 233.966 112.157 233.528C112.103 232.637 111.678 231.713 111.229 230.728C110.723 229.618 110.198 228.475 110.175 227.276C110.029 219.69 110.478 212.533 111.54 205.401C112.318 200.186 112.399 196.843 111.835 193.082L112.521 192.969C113.097 196.814 113.016 200.218 112.226 205.519C111.168 212.606 110.723 219.718 110.869 227.264C110.888 228.301 111.379 229.375 111.854 230.412C112.31 231.413 112.786 232.45 112.847 233.484C112.889 234.189 112.449 234.817 112.023 235.425C111.678 235.911 111.325 236.418 111.356 236.823C111.877 243.286 113.016 249.478 113.929 254.455C114.895 259.719 115.658 263.876 115.29 266.069C114.358 271.56 107.625 272.873 95.3998 275.255C91.3696 276.041 86.8026 276.929 81.6335 278.124C78.493 278.85 75.5863 279.15 72.9098 279.15L72.9174 279.142Z" fill="#1E1208"/>
<path d="M93.31 214.486L98.2759 233.476L96.0096 239.287L98.6133 274.923C98.6133 274.923 55.6733 286.253 42.325 269.051L43.9508 257.704" fill="url(#paint4_linear_24_5639)"/>
<path d="M70.31 278.951C65.2023 278.951 60.6353 278.493 56.678 277.585C50.0709 276.066 45.1511 273.274 42.0566 269.286L41.9607 269.16L43.6096 257.652L44.296 257.761L42.6931 268.946C45.6918 272.739 50.4467 275.401 56.8275 276.868C62.0196 278.063 68.2892 278.465 75.4599 278.071C86.5803 277.46 96.466 275.085 98.2491 274.639L95.6607 239.226L97.9116 233.451L92.9765 214.584L93.6437 214.389L98.644 233.5L96.3663 239.343L98.9853 275.202L98.7015 275.279C98.5942 275.308 87.7921 278.128 75.4983 278.805C73.7152 278.902 71.9858 278.951 70.3177 278.951H70.31Z" fill="#1E1208"/>
<path d="M79.4901 197.033L90.4341 189.066L98.69 191.307L94.9628 210.004L90.4341 212.047L79.4901 197.033Z" fill="white"/>
<path d="M90.2806 212.655L78.8113 196.919L90.3381 188.523L99.2421 190.938L95.3692 210.357L90.2806 212.655ZM80.1687 197.146L90.5836 211.439L94.5524 209.648L98.1378 191.672L90.526 189.605L80.1687 197.146Z" fill="#02060A"/>
<path d="M88.9154 200.206L89.0918 208.744L93.3099 214.486L96.646 207.034L93.2294 198.865L88.9154 200.206Z" fill="#313131"/>
<path d="M93.3907 215.285L88.6971 208.894L88.5131 199.898L93.452 198.362L97.0834 207.042L93.3907 215.285ZM89.4832 208.598L93.2258 213.692L96.2091 207.03L93.0034 199.371L89.3145 200.518L89.4794 208.594L89.4832 208.598Z" fill="#070202"/>
<path d="M69.0444 177.063C70.3098 182.606 77.8257 194.553 86.5916 194.541C97.6929 194.524 94.2302 176.374 92.9648 170.83C91.6994 165.287 63.6951 138.46 64.5119 143.635C65.7927 151.76 67.7752 171.519 69.0406 177.063H69.0444Z" fill="#CCA5AC"/>
<path d="M86.5804 194.861C81.5877 194.861 77.408 191.181 74.7774 188.093C71.449 184.187 69.3553 179.778 68.7532 177.14C68.0055 173.87 67.02 165.745 66.0652 157.883C65.3864 152.307 64.7499 147.043 64.2207 143.692C64.167 143.356 64.213 143.092 64.3626 142.906C64.4508 142.796 64.6233 142.663 64.9263 142.663C66.8436 142.663 73.8878 148.749 80.0155 154.779C85.7252 160.396 92.6199 167.953 93.2603 170.761C94.5832 176.56 96.2474 187.036 92.501 192.073C91.1282 193.921 89.1419 194.857 86.5957 194.861H86.5842H86.5804ZM64.9224 143.295C64.8496 143.295 64.8189 143.311 64.8189 143.315C64.8189 143.315 64.7806 143.372 64.8112 143.587C65.3404 146.95 65.9808 152.222 66.6595 157.802C67.6105 165.643 68.596 173.756 69.3361 176.99C70.5133 182.145 77.7991 194.225 86.5804 194.225V194.541L86.5919 194.225C88.9425 194.225 90.7716 193.365 92.0255 191.68C95.7489 186.671 93.7204 175.487 92.6736 170.907C92.1789 168.743 86.9255 162.446 79.6014 155.241C72.5687 148.32 66.3911 143.295 64.9186 143.295H64.9224Z" fill="#1C1713"/>
<path d="M86.2428 190.744L94.307 187.246L93.2295 198.864L88.9155 200.206L86.2428 190.744Z" fill="#313131"/>
<path d="M88.6471 200.729L85.7596 190.5L94.7633 186.598L93.5938 199.189L88.6471 200.729ZM86.726 190.987L89.184 199.687L92.8614 198.544L93.8507 187.899L86.7298 190.987H86.726Z" fill="#070202"/>
<path d="M95.722 176.411L90.4341 189.066L96.4353 197.033C96.4353 197.033 98.5941 189.431 98.7437 182.594L95.7259 176.411H95.722Z" fill="white"/>
<path d="M96.6268 198.091L89.8894 189.139L95.6912 175.256L99.219 182.481V182.607C99.0656 189.431 96.9106 197.102 96.8876 197.175L96.6268 198.087V198.091ZM90.9784 188.989L96.228 195.959C96.7917 193.751 98.13 187.98 98.268 182.708L95.7564 177.562L90.9823 188.989H90.9784Z" fill="#02060A"/>
<path d="M93.5209 174.915C93.5209 174.915 100.761 192.859 92.9956 214.486L104.768 195.388L100.707 190.885L104.235 190.059L96.4161 174.469L93.5209 174.911V174.915Z" fill="#3F77A5"/>
<path d="M92.9957 214.855C92.942 214.855 92.8883 214.843 92.8385 214.815C92.6812 214.729 92.6084 214.535 92.6697 214.357C96.6539 203.253 96.5849 193.155 95.8256 186.635C95.0012 179.579 93.2219 175.102 93.2028 175.057C93.1606 174.952 93.1682 174.834 93.2181 174.733C93.2718 174.636 93.3638 174.567 93.4712 174.551L96.3663 174.109C96.512 174.089 96.6539 174.161 96.7229 174.299L104.542 189.889C104.592 189.99 104.595 190.111 104.549 190.213C104.503 190.318 104.415 190.391 104.308 190.415L101.378 191.1L105.017 195.132C105.128 195.254 105.144 195.444 105.056 195.586L93.2833 214.685C93.2181 214.79 93.1069 214.851 92.9919 214.851L92.9957 214.855ZM94.0042 175.211C94.472 176.52 95.8256 180.657 96.512 186.545C97.2176 192.579 97.3365 201.648 94.2649 211.751L104.323 195.432L100.45 191.141C100.362 191.044 100.331 190.91 100.37 190.78C100.404 190.654 100.504 190.557 100.627 190.529L103.71 189.808L96.2168 174.871L93.9965 175.211H94.0042Z" fill="#1E1208"/>
<path d="M64.5619 176.933L68.4272 172.61C68.4272 172.61 79.586 185.577 90.4303 189.066L85.5565 198.865C85.5565 198.865 72.1276 194.861 64.5581 176.933H64.5619Z" fill="white"/>
<path d="M85.8018 199.456L85.4337 199.347C85.2918 199.306 81.948 198.285 77.6264 195.031C73.6538 192.036 68.0859 186.505 64.1324 177.14L64.0059 176.836L68.4348 171.88L68.7761 172.277C68.8873 172.407 79.9732 185.184 90.5683 188.592L91.1128 188.766L85.798 199.456H85.8018ZM65.1217 177.035C68.9794 186.011 74.3363 191.327 78.1709 194.217C81.5569 196.766 84.36 197.912 85.3263 198.261L89.7515 189.358C80.0231 185.962 70.3828 175.539 68.4233 173.335L65.1217 177.031V177.035Z" fill="#02060A"/>
<path d="M66.9202 173.108L73.4927 181.079C78.125 186.193 82.2012 191.834 85.6485 197.9L93.3101 214.486L71.5793 196.036L75.4944 191.307L68.1511 191.805L61.8125 175.47L66.924 173.108H66.9202Z" fill="#3F77A5"/>
<path d="M93.31 214.855C93.2333 214.855 93.1566 214.827 93.0914 214.774L71.3606 196.324C71.2877 196.263 71.2417 196.17 71.2341 196.069C71.2264 195.967 71.2571 195.87 71.3184 195.797L74.6852 191.729L68.174 192.17C68.0283 192.182 67.8864 192.089 67.8328 191.943L61.4941 175.608C61.4213 175.426 61.5018 175.215 61.6744 175.134L66.7859 172.772C66.9239 172.707 67.085 172.747 67.1847 172.865L73.7496 180.832C78.3895 185.954 82.4925 191.635 85.9437 197.714C85.9475 197.722 85.9552 197.734 85.959 197.742L93.6206 214.328C93.6934 214.482 93.6512 214.669 93.5247 214.774C93.4633 214.827 93.3866 214.855 93.31 214.855ZM72.0738 195.992L92.3168 213.178L85.3416 198.079C81.9135 192.049 77.8449 186.416 73.2434 181.334C73.2396 181.33 73.2357 181.326 73.2319 181.322L66.8281 173.554L62.2572 175.665L68.3734 191.425L75.4675 190.942C75.6055 190.934 75.7397 191.011 75.8011 191.145C75.8624 191.279 75.8433 191.437 75.7512 191.546L72.0738 195.988V195.992Z" fill="#1E1208"/>
<path d="M62.1 283.226C58.8176 290.16 57.2262 294.018 50.3469 290.379C43.4676 286.74 40.5533 278.169 43.8357 271.239C47.1182 264.306 55.3588 261.635 62.2381 265.274C64.8188 266.64 61.3983 267.313 62.3493 269.509C63.9368 273.168 64.1515 278.894 62.0962 283.226H62.1Z" fill="#F5E2D6"/>
<path d="M54.8067 292.21C53.5183 292.21 51.9998 291.74 50.163 290.768C46.7425 288.956 44.158 285.913 42.8926 282.193C41.6233 278.465 41.8304 274.506 43.4677 271.045C45.757 266.214 50.4736 263.216 55.7769 263.216C58.0546 263.216 60.3516 263.795 62.4184 264.889C63.1355 265.266 63.4998 265.635 63.6033 266.085C63.726 266.628 63.4193 267.074 63.1202 267.503C62.729 268.07 62.3878 268.561 62.7214 269.331C64.1977 272.739 64.746 278.602 62.4644 283.425L62.2075 283.968C59.8607 288.932 58.3116 292.21 54.8029 292.21H54.8067ZM55.7807 264.083C50.788 264.083 46.3514 266.899 44.204 271.434C42.6663 274.68 42.4746 278.396 43.6671 281.897C44.8597 285.406 47.2985 288.283 50.5311 289.989C52.249 290.897 53.6448 291.339 54.8067 291.339C57.8054 291.339 59.2664 288.251 61.4751 283.575L61.732 283.028C63.7989 278.663 63.4193 273.01 61.9774 269.683C61.4444 268.451 62.0541 267.568 62.4606 266.984C62.6485 266.713 62.8402 266.433 62.8057 266.283C62.7866 266.206 62.6792 265.992 62.0541 265.659C60.0985 264.626 57.9281 264.079 55.7807 264.079V264.083Z" fill="#281A0B"/>
<path d="M42.6088 280.134C42.6088 280.134 44.7485 291.744 50.7765 297.823L55.1825 296.173L48.4757 281.905" fill="#F5E2D6"/>
<path d="M50.6806 298.309L50.5042 298.131C44.457 292.028 42.3096 280.698 42.2214 280.215L43.0075 280.053C43.0267 280.167 45.1511 291.371 50.8838 297.336L54.6303 295.934L48.1229 282.096L48.84 281.719L55.7461 296.412L50.6806 298.305V298.309Z" fill="#281A0B"/>
<path d="M47.03 282.549C47.03 282.549 49.9175 293 56.5514 298.329L60.758 296.169L52.3678 281.026" fill="#F5E2D6"/>
<path d="M56.5053 298.824L56.3097 298.665C49.649 293.312 46.7654 283.1 46.6465 282.667L47.4134 282.428C47.4403 282.529 50.2855 292.603 56.5973 297.831L60.1904 295.987L52.0188 281.24L52.709 280.815L61.3177 296.352L56.5015 298.824H56.5053Z" fill="#281A0B"/>
<path d="M51.4321 281.22C51.4321 281.22 54.7913 292.502 61.4251 297.831L65.6317 295.671L56.6127 278.704" fill="#F5E2D6"/>
<path d="M61.3755 298.325L61.1799 298.167C54.523 292.818 51.1869 281.812 51.0488 281.346L51.8119 281.091C51.8464 281.2 55.1442 292.085 61.4713 297.332L65.072 295.484L56.2601 278.906L56.958 278.493L66.1841 295.853L61.3755 298.321V298.325Z" fill="#281A0B"/>
<path d="M61.4022 266.964C61.4022 266.964 70.774 273.172 71.7404 278.461L70.7395 281.763L63.0895 278.781" fill="#F5E2D6"/>
<path d="M70.9926 282.314L62.9514 279.178L63.2275 278.384L70.4864 281.212L71.33 278.436C70.3023 273.407 61.2833 267.382 61.1913 267.321L61.6169 266.604C62.0042 266.863 71.146 272.97 72.1353 278.38L72.1545 278.485L70.9926 282.31V282.314Z" fill="#281A0B"/>
<path d="M56.8005 278.935C56.8005 278.935 59.5308 288.887 66.1647 294.216L70.3713 292.056L62.61 277.079" fill="#F5E2D6"/>
<path d="M66.1188 294.71L65.9233 294.552C59.2625 289.199 56.5323 279.466 56.4172 279.052L57.1842 278.817C57.211 278.914 59.9029 288.502 66.2109 293.722L69.8154 291.87L62.2574 277.281L62.9591 276.876L70.9236 292.243L66.1188 294.71Z" fill="#281A0B"/>
<path d="M43.5864 237.305C43.5864 237.305 68.8221 247.942 111.67 234.772L111.938 236.75L112.161 243.748C112.161 243.748 86.584 261.935 43.9277 247.525L43.5903 237.305H43.5864Z" fill="#313131"/>
<path d="M75.9163 253.494C65.5551 253.494 54.7492 251.618 43.8013 247.922C43.6403 247.87 43.5329 247.716 43.5252 247.537L43.1878 237.317C43.184 237.175 43.2453 237.042 43.3565 236.961C43.4677 236.88 43.6058 236.863 43.7323 236.912C43.8282 236.953 53.5067 240.94 70.6705 240.94C83.6085 240.94 97.3671 238.727 111.555 234.367C111.666 234.335 111.785 234.351 111.881 234.416C111.977 234.481 112.042 234.59 112.058 234.708L112.326 236.685C112.326 236.685 112.326 236.713 112.33 236.73L112.552 243.728C112.556 243.874 112.491 244.008 112.376 244.089C112.242 244.186 108.982 246.476 102.835 248.802C97.1754 250.941 87.9109 253.49 75.9124 253.49L75.9163 253.494ZM44.3113 247.213C55.0904 250.824 65.7238 252.659 75.9163 252.659C87.7997 252.659 96.9721 250.135 102.575 248.019C107.828 246.034 110.988 244.036 111.755 243.525L111.54 236.79L111.34 235.311C97.2329 239.607 83.551 241.787 70.6705 241.787C55.6771 241.787 46.3168 238.756 44.0007 237.913L44.3075 247.217L44.3113 247.213Z" fill="#070202"/>
<path d="M87.1248 239.906L87.7345 253.559L105.646 249.786L105.216 236.851L87.1248 239.906Z" fill="#6D6D6D"/>
<path d="M87.3471 254.086L86.6991 239.542L105.608 236.345L106.068 250.139L87.3471 254.086ZM87.5542 240.275L88.1217 253.036L105.224 249.434L104.822 237.358L87.5542 240.279V240.275Z" fill="#1E0606"/>
<path d="M48.6175 135.291C48.0116 167.122 75.1991 179.705 93.0991 176.645C125.751 168.354 113.967 141.524 112.97 119.71C111.973 97.9003 97.7198 93.1996 79.6089 94.1235C61.498 95.0475 49.0393 113.457 48.6213 135.291H48.6175Z" fill="#F5E2D6"/>
<path d="M87.677 177.525C76.8442 177.525 65.9846 172.784 58.626 164.849C51.5856 157.255 47.9811 147.031 48.2073 135.283C48.4144 124.411 51.5894 114.228 57.1496 106.605C59.9566 102.759 63.262 99.6959 66.9816 97.4995C70.8737 95.2018 75.1148 93.9213 79.586 93.6944C81.001 93.6214 82.3776 93.585 83.6775 93.585C92.7272 93.585 99.4608 95.3437 104.266 98.9584C109.956 103.238 112.936 110.021 113.377 119.694C113.568 123.909 114.178 128.407 114.769 132.759C117.273 151.213 119.865 170.3 93.1912 177.071L93.1605 177.079C91.4081 177.379 89.5637 177.529 87.677 177.529V177.525ZM83.6775 94.4522C82.3891 94.4522 81.0278 94.4886 79.6243 94.5616C62.3302 95.445 49.4612 112.578 49.0279 135.304C48.8093 146.816 52.3295 156.826 59.2127 164.246C66.4217 172.018 77.0628 176.658 87.677 176.662C89.5138 176.662 91.3122 176.516 93.0148 176.224C104.649 173.266 111.559 167.637 114.14 159.01C116.452 151.286 115.183 141.929 113.956 132.88C113.361 128.512 112.748 123.99 112.556 119.735C112.127 110.345 109.258 103.781 103.786 99.6635C99.1234 96.1582 92.547 94.4522 83.6737 94.4522H83.6775Z" fill="#281A0B"/>
<path d="M64.8726 114.337C64.8726 114.337 56.7853 125.517 63.2352 143.319L52.7858 135.94L44.4225 145.917C44.4225 145.917 33.0145 126.056 40.9982 108.416L64.8726 114.337Z" fill="#343535"/>
<path d="M44.3611 146.646L44.0735 146.144C44.0466 146.095 41.1707 141.042 39.3224 133.897C37.6121 127.284 36.4502 117.461 40.63 108.23L40.7719 107.914L65.5857 114.065L65.2022 114.596C65.183 114.624 63.2005 117.408 62.0271 122.3C60.9419 126.81 60.3399 134.092 63.6223 143.161L64.0825 144.433L52.8586 136.507L44.3649 146.642L44.3611 146.646ZM41.2282 108.919C37.3245 117.818 38.4596 127.272 40.1123 133.666C41.5925 139.392 43.736 143.736 44.4953 145.179L52.7167 135.372L62.4183 142.221C59.5385 133.5 60.1635 126.474 61.2372 122.044C62.1652 118.203 63.5457 115.662 64.1937 114.612L41.2282 108.919Z" fill="#1E0606"/>
<path d="M103.123 138.764C103.395 143.546 105.209 147.323 107.168 147.197C109.128 147.072 110.497 143.092 110.225 138.31C109.952 133.529 108.139 129.752 106.179 129.878C104.22 130.003 102.851 133.983 103.123 138.764Z" fill="#4F4F4F"/>
<path d="M112.046 121.546L100.91 126.77L98.9431 131.284L116.943 125.38L112.046 121.546Z" fill="#313131"/>
<path d="M78.2783 125.902L92.0753 127.248L94.8055 131.195L73.2281 131.454L78.2783 125.902Z" fill="#313131"/>
<path d="M84.1376 141.897C84.4099 146.679 86.2237 150.455 88.1832 150.33C90.1427 150.204 91.5116 146.225 91.2394 141.443C90.9671 136.661 89.1533 132.885 87.1938 133.01C85.2343 133.136 83.8654 137.115 84.1376 141.897Z" fill="#4F4F4F"/>
<path d="M58.5377 124.216C59.0132 127.288 96.4851 124.431 112.966 119.71C126.307 115.889 117.165 107.322 107.433 105.422C104.534 104.858 106.524 108.53 99.4416 110.507C86.0779 114.244 58.0622 121.141 58.5377 124.212V124.216Z" fill="#313131"/>
<path d="M66.7362 125.858C64.213 125.858 62.2228 125.752 60.8155 125.546C59.1053 125.294 58.2962 124.905 58.2003 124.277C58.0469 123.293 59.2702 121.842 69.4933 118.568C76.039 116.473 84.2566 114.256 91.504 112.303C94.3761 111.529 97.0872 110.799 99.3535 110.163C103.28 109.065 104.327 107.44 105.017 106.362C105.485 105.633 105.891 105.004 106.888 105.004C107.073 105.004 107.272 105.025 107.494 105.069C110.547 105.665 113.641 106.937 115.984 108.566C118.496 110.309 119.922 112.286 119.991 114.13C120.06 115.909 118.914 118.385 113.055 120.063C101.47 123.378 79.0453 125.858 66.7324 125.858H66.7362ZM106.892 105.73C106.279 105.73 106.064 106.03 105.589 106.771C104.837 107.938 103.706 109.697 99.5337 110.864C97.2674 111.496 94.5525 112.23 91.6766 113.004C84.433 114.957 76.2269 117.17 69.6965 119.261C66.1303 120.403 63.5113 121.368 61.6822 122.207C58.8676 123.499 58.8714 124.099 58.8829 124.164C58.8829 124.172 59.1206 125.136 66.7439 125.136C79.0108 125.136 101.351 122.669 112.886 119.366C117.181 118.138 119.405 116.339 119.32 114.163C119.19 110.856 113.726 107.018 107.379 105.782C107.199 105.746 107.038 105.73 106.9 105.73H106.892Z" fill="#070202"/>
<path d="M26.1159 119.042C22.5267 121.931 32.2935 127.539 38.6781 129.476C45.0666 131.417 59.2355 125.363 70.2907 120.703C91.8566 111.614 94.0769 111.796 105.439 108.453C109.523 105.669 111.712 109.381 112.498 99.7201C115.973 85.2776 111.225 71.9657 95.1774 74.7334C71.6865 78.7898 50.7457 99.2095 26.1159 119.042Z" fill="url(#paint5_linear_24_5639)"/>
<path d="M41.5773 130.214C40.4346 130.214 39.4261 130.084 38.5825 129.829C33.4172 128.261 25.6214 124.172 25.0347 120.881C24.935 120.31 25.0002 119.475 25.9052 118.75C29.9622 115.484 33.9541 112.173 37.8117 108.972C47.7088 100.762 57.0576 93.0055 66.4486 86.8297C77.0015 79.884 86.1125 75.9289 95.1201 74.3728C96.5542 74.1256 97.9347 74 99.2308 74C104.131 74 108.062 75.8236 110.597 79.268C114.029 83.9363 114.845 91.4088 112.84 99.781C112.295 106.407 111.064 106.99 108.752 107.509C107.851 107.711 106.827 107.942 105.627 108.761L105.581 108.789L105.531 108.806C103.226 109.482 101.34 110.005 99.5107 110.512C92.593 112.424 87.5965 113.806 70.4213 121.044L69.8538 121.283C60.4168 125.262 48.6675 130.214 41.5811 130.214H41.5773ZM99.2308 74.7335C97.973 74.7335 96.6271 74.855 95.2313 75.0982C75.7054 78.4697 57.5063 93.5647 38.2412 109.551C34.3797 112.752 30.3917 116.063 26.327 119.333C25.8208 119.743 25.6214 120.205 25.7173 120.748C26.1851 123.374 33.122 127.41 38.778 129.124C39.5603 129.363 40.5036 129.481 41.5811 129.481C48.5371 129.481 60.2135 124.557 69.5968 120.602L70.1644 120.363C87.3818 113.105 92.3975 111.719 99.3381 109.802C101.148 109.3 103.023 108.785 105.297 108.117C106.586 107.249 107.705 106.998 108.61 106.796C110.558 106.358 111.632 106.115 112.153 99.6918L112.161 99.631C114.124 91.4696 113.354 84.2119 110.048 79.7219C107.613 76.4152 103.974 74.7375 99.2308 74.7375V74.7335Z" fill="#1E1208"/>
<path d="M39.8326 144.754C40.5612 149.462 50.6807 155.987 55.7539 155.111C60.8271 154.236 58.9328 146.289 58.2043 141.581C57.4757 136.872 52.7092 133.338 47.636 134.214C42.5628 135.089 39.1079 140.045 39.8364 144.754H39.8326Z" fill="#F5E2D6"/>
<path d="M44.4263 145.921C43.8166 142.967 47.0952 140.665 48.8822 140.252C50.6691 139.838 53.3725 142.164 53.9822 145.118C54.5919 148.073 54.0282 149.969 52.2375 150.382C50.4467 150.796 45.036 148.871 44.4263 145.921Z" fill="#EDC3C5"/>
<path d="M58.2003 141.585C58.0009 140.552 57.6098 139.575 57.073 138.704C56.5361 137.832 55.8497 137.071 55.0751 136.442C54.3005 135.81 53.4301 135.316 52.5174 134.967C51.601 134.631 50.6385 134.416 49.6721 134.384C48.7058 134.343 47.7357 134.469 46.8038 134.732C45.8759 135.004 44.9824 135.421 44.1771 135.981C42.5589 137.079 41.2667 138.72 40.5918 140.612C40.2467 141.557 40.0703 142.562 40.0741 143.566C40.0741 143.818 40.0894 144.069 40.1124 144.32L40.1585 144.693L40.2313 145.046C40.3502 145.512 40.5534 145.965 40.7873 146.403C41.2782 147.266 41.9147 148.061 42.6126 148.782C43.3143 149.503 44.0736 150.168 44.8635 150.784C45.6573 151.4 46.4894 151.963 47.3445 152.482C48.1996 153 49.0854 153.47 49.9943 153.876C50.9031 154.285 51.8425 154.621 52.805 154.864C53.7675 155.103 54.7607 155.233 55.7538 155.12C55.263 155.213 54.7607 155.249 54.2622 155.237C53.7637 155.213 53.2613 155.16 52.7667 155.063C51.7774 154.877 50.811 154.577 49.8715 154.208C47.9926 153.458 46.2056 152.457 44.5529 151.242C43.7247 150.634 42.9309 149.973 42.1946 149.236C41.4584 148.498 40.7797 147.684 40.2313 146.752C39.9629 146.282 39.7405 145.771 39.5948 145.224L39.5066 144.806L39.4529 144.397C39.426 144.126 39.4069 143.85 39.4069 143.575C39.3954 142.476 39.5833 141.378 39.9514 140.357C40.6953 138.311 42.0873 136.56 43.8282 135.405C45.5691 134.242 47.6551 133.675 49.699 133.825C50.209 133.857 50.719 133.934 51.2137 134.056C51.7122 134.173 52.203 134.331 52.6747 134.53C53.618 134.935 54.5076 135.482 55.2822 136.171C56.0529 136.864 56.7278 137.678 57.234 138.606C57.7363 139.53 58.0738 140.547 58.2003 141.593V141.585Z" fill="#1E0606"/>
<path d="M88.5513 90.7238C88.7852 97.4872 93.7779 105.114 98.2222 104.939C102.667 104.769 105.757 97.159 105.523 90.3916C105.289 83.6282 101.823 80.2688 97.3748 80.439C92.9304 80.6092 88.3136 83.9564 88.5475 90.7238H88.5513Z" fill="#848484"/>
<path d="M90.2731 91.0237C90.4725 96.7618 94.7059 103.225 98.4753 103.079C102.245 102.934 104.864 96.4782 104.668 90.74C104.473 85.0019 101.528 82.1531 97.7582 82.299C93.9888 82.4449 90.0737 85.2816 90.2731 91.0197V91.0237Z" fill="#BABABA"/>
<path d="M94.0808 159.172C94.0808 159.172 89.717 160.177 85.3494 160.68L94.0808 159.172Z" fill="#F5E2D6"/>
<path d="M85.3915 161.109L85.3033 160.246C89.5981 159.751 93.9466 158.755 93.9926 158.746L94.169 159.593C94.1268 159.602 89.7323 160.611 85.3954 161.109H85.3915Z" fill="#281A0B"/>
<path d="M99.1271 145.232C97.7773 140.799 97.5511 136.908 98.6132 136.548C99.6793 136.187 100.826 139.627 102.172 144.061C103.522 148.494 104.561 152.242 103.495 152.603C102.429 152.964 100.473 149.661 99.1271 145.228V145.232Z" fill="#CCA5AC"/>
<path d="M107.398 142.331C107.352 142.043 108.1 141.674 109.063 141.508C110.025 141.342 110.846 141.439 110.888 141.731C110.934 142.019 110.186 142.387 109.224 142.553C108.261 142.72 107.441 142.622 107.398 142.331Z" fill="white"/>
<path d="M88.3635 145.617C88.3174 145.329 89.0652 144.96 90.0277 144.794C90.9902 144.628 91.8108 144.725 91.853 145.017C91.899 145.305 91.1512 145.674 90.1887 145.84C89.2263 146.006 88.4056 145.909 88.3635 145.617Z" fill="white"/>
<path d="M44.7562 146.01L44.0928 145.832C44.9824 142.16 46.382 140.045 48.2495 139.542C50.9299 138.825 53.4914 141.702 53.5988 141.828L53.0965 142.318C53.0734 142.29 50.6998 139.632 48.4144 140.243C46.8077 140.677 45.5729 142.614 44.7523 146.01H44.7562Z" fill="#1E0606"/>
<path d="M38.7665 128.358C48.5447 124.172 100.496 102.253 111.674 104.445C112.169 104.542 112.568 104.935 112.702 105.446C112.886 106.147 112.529 106.876 111.885 107.128C108.02 108.635 102.007 110.592 87.539 115.714C71.5448 121.376 46.8613 130.234 39.6944 131.685C38.9467 131.835 38.1951 131.425 37.8807 130.692C37.4934 129.788 37.896 128.731 38.7626 128.358H38.7665Z" fill="#B0C2CF"/>
<path d="M39.3838 132.151C38.5785 132.151 37.8423 131.649 37.5087 130.871C37.2748 130.328 37.2633 129.72 37.4703 129.165C37.6812 128.609 38.0839 128.18 38.6092 127.957C48.004 123.933 95.5993 103.858 109.818 103.858C110.554 103.858 111.206 103.91 111.751 104.02C112.395 104.145 112.924 104.66 113.097 105.333C113.338 106.257 112.878 107.205 112.027 107.537C109.849 108.388 107.03 109.365 102.356 110.986C98.6402 112.274 94.0118 113.879 87.6693 116.128C86.3004 116.614 84.8662 117.121 83.386 117.648C67.7561 123.191 46.3513 130.781 39.7749 132.115C39.6484 132.139 39.518 132.155 39.3876 132.155L39.3838 132.151ZM109.818 104.725C95.7527 104.725 48.2916 124.747 38.9198 128.759C38.6054 128.893 38.36 129.152 38.2373 129.485C38.1107 129.817 38.1184 130.182 38.2603 130.51C38.4597 130.976 38.9045 131.28 39.3876 131.28C39.4643 131.28 39.5449 131.272 39.6216 131.256C46.1481 129.934 67.5222 122.357 83.1291 116.821C84.6093 116.294 86.0434 115.788 87.4124 115.301C93.7587 113.056 98.3871 111.448 102.103 110.159C106.77 108.538 109.584 107.562 111.747 106.719C112.196 106.544 112.437 106.046 112.311 105.56C112.219 105.207 111.942 104.936 111.605 104.871C111.11 104.773 110.512 104.725 109.822 104.725H109.818Z" fill="#01080C"/>
<path d="M74.624 121.546C78.7769 121.291 82.9221 120.991 87.0597 120.622C89.1265 120.428 91.1934 120.237 93.2564 119.99C95.3195 119.755 97.3786 119.492 99.4263 119.167C101.478 118.855 103.518 118.487 105.535 118.021C107.552 117.563 109.554 116.999 111.456 116.197C112.399 115.788 113.323 115.305 114.113 114.661C114.504 114.337 114.865 113.968 115.118 113.535C115.378 113.105 115.516 112.607 115.501 112.1C115.501 111.845 115.451 111.589 115.378 111.342C115.348 111.217 115.294 111.095 115.252 110.973C115.198 110.856 115.148 110.73 115.087 110.617C114.849 110.151 114.539 109.717 114.197 109.308C113.856 108.903 113.484 108.522 113.093 108.161C112.706 107.801 112.299 107.456 111.885 107.124C112.759 107.715 113.611 108.36 114.358 109.146C114.734 109.535 115.075 109.969 115.355 110.451C115.428 110.568 115.486 110.698 115.551 110.824C115.605 110.953 115.666 111.083 115.712 111.221C115.808 111.492 115.873 111.78 115.892 112.072C115.938 112.663 115.792 113.271 115.509 113.778C115.233 114.292 114.849 114.718 114.439 115.087C114.029 115.459 113.576 115.767 113.116 116.047C112.656 116.327 112.176 116.574 111.697 116.801C110.731 117.255 109.738 117.623 108.733 117.944C107.728 118.268 106.716 118.543 105.696 118.795C103.656 119.289 101.601 119.67 99.5375 119.994C97.4745 120.306 95.4038 120.565 93.3293 120.776C91.2548 120.975 89.1802 121.153 87.1019 121.27C82.9451 121.514 78.7846 121.631 74.624 121.538V121.546Z" fill="#575757"/>
<path d="M60.3859 209.449C60.3859 209.449 60.4319 209.356 60.5163 209.182C60.6007 209.008 60.7119 208.748 60.8537 208.416C60.9956 208.084 61.1528 207.678 61.3292 207.208C61.498 206.738 61.6858 206.203 61.8661 205.616C62.0501 205.028 62.2227 204.384 62.3876 203.699C62.4681 203.355 62.5486 203.002 62.6138 202.641C62.6867 202.281 62.748 201.908 62.8094 201.531C62.8439 201.341 62.8592 201.15 62.8861 200.956C62.9091 200.761 62.9398 200.571 62.9551 200.372C62.9896 199.979 63.0318 199.582 63.0471 199.181C63.1047 198.378 63.0893 197.564 63.0548 196.749C63.0433 196.547 63.028 196.344 63.0126 196.141C62.9935 195.939 62.9896 195.736 62.9589 195.534C62.9321 195.331 62.9091 195.132 62.8823 194.934C62.8707 194.833 62.8592 194.735 62.8439 194.634L62.7902 194.338C62.7174 193.945 62.656 193.552 62.5601 193.171C62.518 192.981 62.4719 192.79 62.4298 192.6C62.3838 192.413 62.3262 192.231 62.2725 192.045C62.2189 191.862 62.169 191.68 62.1153 191.502C62.054 191.323 61.9965 191.149 61.9351 190.979C61.8776 190.805 61.8162 190.634 61.7587 190.464C61.7012 190.294 61.6283 190.136 61.5631 189.97C61.3101 189.317 61.0186 188.726 60.7579 188.175C60.6122 187.907 60.4741 187.652 60.3399 187.405C60.2747 187.283 60.2095 187.162 60.1482 187.044C60.083 186.931 60.014 186.821 59.9488 186.716C59.8184 186.505 59.6995 186.306 59.5845 186.12C59.5308 186.027 59.4771 185.938 59.4234 185.853C59.3697 185.772 59.3161 185.695 59.2662 185.622C59.063 185.33 58.9096 185.091 58.8022 184.933C58.6948 184.771 58.6373 184.686 58.6373 184.686C58.6373 184.686 58.7064 184.763 58.8329 184.9C58.9594 185.042 59.1512 185.245 59.3851 185.516C59.4426 185.585 59.5078 185.654 59.573 185.727C59.6343 185.804 59.6995 185.885 59.7647 185.97C59.8951 186.14 60.0408 186.327 60.1903 186.525C60.267 186.627 60.3476 186.728 60.4243 186.833C60.4971 186.943 60.5738 187.056 60.6543 187.174C60.8116 187.409 60.9764 187.656 61.1413 187.919C61.2947 188.191 61.4558 188.47 61.6245 188.762C61.6667 188.835 61.7089 188.908 61.751 188.985C61.7894 189.062 61.8239 189.139 61.8622 189.22C61.9389 189.378 62.0156 189.536 62.0923 189.698C62.169 189.86 62.2534 190.022 62.3224 190.193C62.3914 190.363 62.4643 190.537 62.5333 190.711C62.6062 190.886 62.679 191.064 62.7442 191.246C62.8056 191.433 62.8669 191.619 62.9283 191.805C62.9896 191.996 63.0548 192.182 63.1085 192.377C63.1583 192.571 63.212 192.766 63.2619 192.964C63.3117 193.163 63.3731 193.358 63.4114 193.564C63.4498 193.767 63.4881 193.969 63.5303 194.176L63.5878 194.484C63.6032 194.589 63.6185 194.691 63.63 194.796C63.6568 195.003 63.6875 195.214 63.7144 195.424C63.7489 195.635 63.7565 195.846 63.7757 196.056C63.7911 196.267 63.8141 196.478 63.8256 196.693C63.8524 197.54 63.8562 198.391 63.7872 199.225C63.7374 200.06 63.607 200.871 63.4689 201.649C63.3232 202.427 63.1353 203.168 62.9283 203.857C62.8823 204.031 62.8247 204.198 62.771 204.368C62.7174 204.534 62.6675 204.7 62.61 204.858C62.4911 205.174 62.3838 205.482 62.2649 205.774C62.0386 206.357 61.7971 206.876 61.5785 207.33C61.3561 207.784 61.1452 208.169 60.9649 208.481C60.7847 208.793 60.6313 209.032 60.524 209.194C60.4166 209.356 60.3591 209.437 60.3591 209.437L60.3859 209.449Z" fill="#070202"/>
<path d="M60.9153 210.487C60.9153 210.487 61.1914 210.252 61.6285 209.794C61.8471 209.567 62.104 209.279 62.3878 208.943C62.6754 208.61 62.9745 208.209 63.2927 207.776C63.45 207.553 63.611 207.326 63.7644 207.075C63.9255 206.832 64.0788 206.572 64.2437 206.309C64.3204 206.175 64.3971 206.037 64.4738 205.895C64.5505 205.758 64.631 205.616 64.7 205.47C64.7729 205.324 64.8496 205.178 64.9225 205.028C64.9915 204.878 65.0643 204.724 65.1334 204.57C65.1679 204.493 65.2062 204.416 65.2407 204.339C65.2714 204.258 65.3059 204.181 65.3366 204.1C65.4018 203.942 65.467 203.78 65.536 203.622C65.5935 203.456 65.6549 203.294 65.7162 203.128L65.8083 202.88C65.8351 202.795 65.8619 202.71 65.8888 202.625C65.9425 202.455 65.9962 202.285 66.0498 202.115C66.0997 201.944 66.1419 201.766 66.1879 201.592C66.2876 201.243 66.3566 200.887 66.4333 200.534C66.4755 200.356 66.5023 200.178 66.533 199.999C66.5637 199.821 66.5905 199.643 66.6212 199.464C66.6634 199.104 66.7056 198.747 66.7439 198.39C66.7631 198.034 66.7938 197.677 66.8091 197.325C66.8091 196.972 66.8206 196.624 66.8244 196.279C66.8129 195.935 66.8014 195.598 66.7938 195.266C66.7707 194.934 66.7439 194.614 66.7209 194.298C66.7132 194.14 66.6941 193.986 66.671 193.832C66.6519 193.678 66.6327 193.528 66.6135 193.382C66.5944 193.232 66.579 193.09 66.5637 192.944C66.5483 192.802 66.5177 192.665 66.4985 192.527C66.4525 192.255 66.4103 191.992 66.3681 191.741C66.3298 191.489 66.2722 191.258 66.2301 191.036C66.138 190.594 66.0652 190.205 65.9808 189.893C65.8274 189.261 65.7469 188.896 65.7469 188.896C65.7469 188.896 65.8926 189.236 66.1342 189.84C66.1917 189.994 66.2684 190.156 66.3259 190.343C66.3911 190.529 66.4525 190.732 66.5253 190.946C66.5944 191.165 66.6787 191.392 66.7439 191.639C66.8091 191.886 66.8781 192.15 66.9471 192.421C66.9816 192.559 67.0238 192.697 67.0507 192.839C67.0813 192.985 67.112 193.131 67.1427 193.276C67.1734 193.426 67.2002 193.576 67.2309 193.734C67.2616 193.888 67.2923 194.046 67.3114 194.208C67.3574 194.533 67.4035 194.861 67.4495 195.201C67.4801 195.542 67.5032 195.89 67.5338 196.247C67.553 196.603 67.5492 196.964 67.5607 197.333C67.5607 197.702 67.5377 198.07 67.5223 198.447C67.4878 198.82 67.4571 199.197 67.4111 199.574C67.3804 199.76 67.3536 199.951 67.3229 200.137C67.2923 200.323 67.2654 200.514 67.2232 200.7C67.1427 201.073 67.066 201.446 66.9586 201.811C66.9088 201.993 66.8628 202.175 66.8053 202.358C66.7439 202.536 66.6864 202.714 66.6289 202.893C66.5713 203.071 66.5062 203.245 66.4371 203.415C66.3681 203.586 66.3029 203.76 66.2339 203.926C66.1572 204.092 66.0843 204.258 66.0115 204.42C65.9731 204.501 65.9386 204.582 65.9003 204.664C65.8581 204.745 65.8198 204.822 65.7776 204.899C65.467 205.535 65.1027 206.11 64.7499 206.645C64.3894 207.176 64.0175 207.654 63.657 208.072C63.2927 208.489 62.9438 208.854 62.6179 209.158C62.2957 209.466 61.9966 209.713 61.7474 209.907C61.4981 210.106 61.2911 210.244 61.153 210.337C61.0111 210.43 60.9345 210.475 60.9345 210.475L60.9153 210.487Z" fill="#070202"/>
<path d="M60.9804 201.576C61.2412 219.661 55.9034 247.744 47.8354 248.38C30.94 249.709 33.7623 227.81 33.5016 209.729C33.2408 191.643 40.4115 180.73 48.5026 180.597" fill="#3F77A5"/>
<path d="M46.3858 248.806C43.0305 248.806 40.3961 247.817 38.3638 245.807C32.9569 240.458 33.0566 228.637 33.1487 217.206C33.1679 214.734 33.1909 212.177 33.1563 209.737C33.0298 201.122 34.5598 193.694 37.5738 188.248C40.3961 183.15 44.2767 180.301 48.4987 180.232L48.5102 180.966C44.5413 181.03 40.8678 183.745 38.172 188.616C35.2232 193.945 33.7277 201.243 33.8504 209.725C33.8849 212.173 33.8658 214.734 33.8427 217.21C33.7507 228.483 33.651 240.138 38.8354 245.272C41.0096 247.424 43.947 248.319 47.8123 248.015C51.2442 247.744 54.6647 241.702 57.1994 231.429C59.4542 222.295 60.7694 210.856 60.6352 201.584L61.3293 201.572C61.4635 210.908 60.1406 222.421 57.8705 231.616C56.3328 237.84 52.9928 248.344 47.8659 248.749C47.3598 248.789 46.8651 248.81 46.3896 248.81L46.3858 248.806Z" fill="#1E1208"/>
<path d="M33.6779 231.223C33.5629 233.168 34.6327 241.232 35.0967 243.736C36.5845 251.8 38.0916 265.282 41.5504 272.601C43.0919 275.863 46.7309 274.42 49.2158 274.21C54.8795 273.727 60.455 272.674 63.726 269.201C65.5781 267.232 65.9117 268.277 65.0949 262.96C61.6054 240.284 61.5517 243.031 57.5062 229.063" fill="#3F77A5"/>
<path d="M45.1357 275.073C43.5827 275.073 42.1064 274.603 41.2359 272.763C38.5287 267.037 37.0025 257.538 35.7754 249.908C35.4188 247.695 35.0852 245.608 34.7516 243.805C34.3029 241.365 33.2101 233.216 33.3289 231.198L34.0192 231.243C33.908 233.135 34.974 241.195 35.4303 243.663C35.7639 245.474 36.1014 247.57 36.458 249.782C37.6774 257.364 39.1959 266.802 41.8533 272.431C42.9845 274.826 45.3389 274.437 47.6129 274.06C48.1651 273.966 48.6866 273.881 49.1812 273.841C54.381 273.399 60.1444 272.471 63.4729 268.938C63.818 268.569 64.1171 268.301 64.3548 268.087C65.325 267.215 65.3825 267.163 64.7421 263.017C61.9735 245.033 61.3907 243.128 59.2203 236.041C58.6451 234.168 57.997 232.045 57.1649 229.168L57.8283 228.953C58.6604 231.822 59.3085 233.942 59.8798 235.814C62.0617 242.942 62.6484 244.859 65.4247 262.9C66.0842 267.195 66.0497 267.519 64.8035 268.646C64.5619 268.865 64.2896 269.108 63.9637 269.456C60.478 273.16 54.565 274.12 49.2388 274.574C48.7748 274.615 48.2648 274.7 47.7241 274.789C46.9035 274.927 46.0062 275.073 45.1357 275.073Z" fill="#1E1208"/>
<path d="M39.6215 227.077C39.6215 227.077 39.9129 226.959 40.4344 226.809C40.6952 226.732 41.0134 226.643 41.3815 226.558C41.7497 226.473 42.1676 226.38 42.6278 226.303C43.088 226.222 43.5865 226.153 44.1156 226.092C44.6448 226.04 45.2085 225.991 45.7914 225.971C46.3742 225.946 46.9763 225.946 47.5898 225.971C48.2033 225.995 48.8245 226.04 49.4458 226.112C50.067 226.185 50.6843 226.287 51.2864 226.408C51.8922 226.53 52.4789 226.684 53.0426 226.85C53.3225 226.939 53.5986 227.028 53.8671 227.121C54.1317 227.219 54.3924 227.32 54.6455 227.417C55.144 227.628 55.6118 227.835 56.0298 228.054C56.4554 228.26 56.8197 228.499 57.1533 228.69C57.4754 228.9 57.7554 229.087 57.9778 229.245C58.2002 229.411 58.3689 229.549 58.4878 229.638C58.6028 229.731 58.6642 229.78 58.6642 229.78C58.6642 229.78 58.5913 229.747 58.4609 229.687C58.3306 229.626 58.1312 229.537 57.8896 229.419C57.6403 229.314 57.3412 229.18 56.9961 229.03C56.8197 228.961 56.6357 228.892 56.4401 228.815C56.3442 228.779 56.2445 228.738 56.141 228.698C56.0375 228.661 55.9301 228.625 55.8227 228.588C55.3932 228.43 54.9216 228.28 54.4231 228.126C54.1738 228.058 53.9131 227.985 53.6523 227.908C53.3877 227.843 53.1155 227.774 52.8394 227.705C52.5633 227.644 52.2795 227.583 51.9958 227.523C51.7082 227.47 51.4206 227.409 51.1253 227.361C50.5386 227.263 49.9404 227.166 49.3422 227.101C49.0431 227.061 48.7402 227.032 48.4411 227.004C48.142 226.972 47.8429 226.955 47.5438 226.931C47.2447 226.915 46.9533 226.899 46.6618 226.878C46.3704 226.87 46.0828 226.854 45.799 226.85C45.2315 226.834 44.6793 226.834 44.1578 226.838C43.6363 226.842 43.1416 226.854 42.6815 226.874C42.2252 226.891 41.8034 226.911 41.4314 226.931C41.0594 226.959 40.7335 226.976 40.4651 227C40.1967 227.024 39.9857 227.04 39.8439 227.053C39.6982 227.065 39.6215 227.073 39.6215 227.073V227.077Z" fill="#1E1208"/>
<path d="M113.35 182.663C113.35 182.663 113.495 182.951 113.706 183.482C113.81 183.745 113.933 184.07 114.059 184.442C114.186 184.819 114.328 185.245 114.454 185.715C114.588 186.185 114.719 186.7 114.838 187.251C114.956 187.802 115.071 188.381 115.164 188.993C115.259 189.601 115.336 190.233 115.394 190.878C115.447 191.522 115.486 192.182 115.493 192.839C115.505 193.499 115.489 194.16 115.447 194.808C115.409 195.457 115.34 196.093 115.256 196.705C115.21 197.009 115.16 197.309 115.106 197.604C115.048 197.896 114.987 198.18 114.926 198.455C114.792 199.007 114.657 199.521 114.504 199.987C114.366 200.457 114.186 200.875 114.051 201.243C113.894 201.608 113.756 201.924 113.633 202.18C113.507 202.435 113.4 202.629 113.331 202.763C113.258 202.897 113.219 202.966 113.219 202.966C113.219 202.966 113.239 202.889 113.281 202.739C113.323 202.593 113.377 202.374 113.461 202.107C113.53 201.835 113.614 201.503 113.71 201.122C113.752 200.931 113.795 200.725 113.841 200.51C113.864 200.405 113.887 200.295 113.913 200.182C113.933 200.068 113.956 199.955 113.979 199.833C114.074 199.363 114.151 198.848 114.232 198.305C114.266 198.034 114.301 197.754 114.339 197.471C114.366 197.183 114.397 196.891 114.427 196.595C114.45 196.296 114.469 195.996 114.492 195.688C114.504 195.38 114.527 195.072 114.535 194.756C114.55 194.128 114.565 193.491 114.55 192.855C114.55 192.535 114.538 192.219 114.527 191.899C114.519 191.583 114.496 191.267 114.481 190.95C114.458 190.638 114.439 190.326 114.416 190.018C114.385 189.71 114.366 189.407 114.335 189.107C114.278 188.507 114.209 187.932 114.14 187.384C114.067 186.837 113.994 186.319 113.921 185.845C113.848 185.366 113.775 184.929 113.706 184.544C113.634 184.159 113.576 183.818 113.518 183.539C113.461 183.259 113.419 183.04 113.388 182.89C113.357 182.74 113.338 182.659 113.338 182.659L113.35 182.663Z" fill="#1E1208"/>
<path d="M39.7749 236.085C39.7749 236.085 39.8516 236.065 39.9973 236.029C40.143 235.992 40.3539 235.935 40.6224 235.875C40.8908 235.81 41.2167 235.729 41.5963 235.648C41.9721 235.563 42.3939 235.465 42.8579 235.372C43.7821 235.178 44.8634 234.963 46.0253 234.748C47.1834 234.533 48.4258 234.318 49.6605 234.104C50.2818 234.002 50.8991 233.901 51.5088 233.8C52.1185 233.703 52.7206 233.605 53.3034 233.516C54.4692 233.338 55.5544 233.172 56.4862 233.03C56.7201 232.997 56.9425 232.965 57.1572 232.929C57.372 232.896 57.5714 232.868 57.7631 232.839C58.1427 232.783 58.4763 232.738 58.7486 232.693C59.0209 232.649 59.2356 232.625 59.3851 232.6C59.5309 232.58 59.6114 232.572 59.6114 232.572C59.6114 232.572 59.5385 232.6 59.4005 232.657C59.2624 232.71 59.0592 232.791 58.7946 232.888C58.6642 232.937 58.5185 232.989 58.3613 233.046C58.2041 233.103 58.0315 233.155 57.8475 233.212C57.4793 233.33 57.0652 233.472 56.605 233.593C56.1487 233.719 55.6502 233.861 55.1249 233.99C54.5957 234.12 54.0397 234.258 53.4607 234.383C52.8816 234.509 52.2834 234.639 51.6737 234.752C51.064 234.87 50.4428 234.983 49.8216 235.088C49.2004 235.19 48.5754 235.291 47.9618 235.38C47.3483 235.473 46.7424 235.55 46.1557 235.623C44.9823 235.765 43.8856 235.875 42.9423 235.948C41.999 236.016 41.2129 236.057 40.6569 236.077C40.3808 236.089 40.1622 236.089 40.0165 236.093C39.8669 236.093 39.7902 236.093 39.7902 236.093L39.7749 236.085Z" fill="#1E1208"/>
<path d="M165.669 200.664C165.554 207.431 170.144 215.334 174.593 215.419C179.041 215.504 182.519 208.084 182.634 201.312C182.749 194.545 179.459 190.991 175.011 190.906C170.562 190.821 165.784 193.897 165.666 200.664H165.669Z" fill="#848484"/>
<path d="M167.372 201.065C167.272 206.807 171.168 213.506 174.941 213.579C178.715 213.651 181.663 207.358 181.759 201.616C181.859 195.874 179.067 192.863 175.294 192.79C171.521 192.717 167.468 195.327 167.372 201.065Z" fill="#BABABA"/>
<path d="M164.902 210.373C164.902 210.373 165.121 210.6 165.501 211.001C165.884 211.398 166.425 211.962 167.084 212.626C167.414 212.959 167.771 213.319 168.154 213.692C168.534 214.069 168.94 214.458 169.358 214.863C169.78 215.26 170.217 215.674 170.67 216.079C170.781 216.18 170.896 216.282 171.011 216.387C171.126 216.488 171.241 216.589 171.356 216.691C171.586 216.897 171.82 217.096 172.054 217.295C172.284 217.497 172.526 217.688 172.76 217.886C172.997 218.077 173.235 218.267 173.473 218.458C173.711 218.64 173.948 218.822 174.186 219.005C174.424 219.179 174.658 219.357 174.892 219.519C175.359 219.852 175.816 220.164 176.261 220.443C176.702 220.727 177.127 220.978 177.526 221.205C177.725 221.315 177.921 221.42 178.101 221.521C178.285 221.618 178.466 221.704 178.63 221.789C178.715 221.829 178.795 221.87 178.872 221.91C178.953 221.943 179.029 221.979 179.102 222.012C179.248 222.08 179.386 222.141 179.509 222.198C179.758 222.299 179.953 222.38 180.088 222.433C180.222 222.49 180.295 222.518 180.295 222.518C180.295 222.518 180.218 222.506 180.076 222.486C179.934 222.461 179.723 222.437 179.459 222.384C179.328 222.352 179.183 222.319 179.022 222.283C178.86 222.251 178.692 222.202 178.512 222.145C178.331 222.088 178.136 222.032 177.936 221.967C177.737 221.894 177.526 221.813 177.307 221.732C176.874 221.554 176.406 221.351 175.927 221.104C175.448 220.861 174.949 220.577 174.451 220.265C173.948 219.953 173.446 219.608 172.944 219.24C172.698 219.053 172.445 218.867 172.2 218.668C171.958 218.47 171.709 218.275 171.467 218.069C170.988 217.655 170.516 217.238 170.068 216.8C169.615 216.371 169.19 215.929 168.783 215.495C167.974 214.624 167.265 213.769 166.686 213.011C166.398 212.63 166.141 212.278 165.919 211.958C165.692 211.642 165.508 211.354 165.359 211.123C165.056 210.653 164.902 210.369 164.902 210.369V210.373Z" fill="#848484"/>
<path d="M173.488 223.183C173.488 223.183 173.718 222.94 174.117 222.514C174.312 222.299 174.554 222.04 174.83 221.744C175.102 221.444 175.409 221.108 175.739 220.735C176.069 220.366 176.422 219.957 176.793 219.528C177.162 219.094 177.545 218.636 177.936 218.154C178.327 217.672 178.718 217.169 179.11 216.65C179.501 216.132 179.884 215.597 180.252 215.05C180.62 214.503 180.977 213.948 181.303 213.388C181.383 213.247 181.468 213.109 181.548 212.971C181.625 212.829 181.702 212.691 181.778 212.55C181.936 212.274 182.07 211.99 182.208 211.715C182.484 211.16 182.718 210.613 182.921 210.082C183.029 209.818 183.105 209.551 183.193 209.3C183.282 209.048 183.339 208.793 183.408 208.554C183.447 208.436 183.473 208.315 183.496 208.197C183.523 208.08 183.546 207.966 183.569 207.857C183.627 207.634 183.65 207.419 183.68 207.217C183.749 206.811 183.765 206.455 183.792 206.159C183.811 205.863 183.799 205.628 183.803 205.47C183.803 205.308 183.803 205.223 183.803 205.223C183.803 205.223 183.822 205.308 183.853 205.462C183.868 205.543 183.888 205.64 183.911 205.754C183.93 205.867 183.964 206.001 183.976 206.151C183.999 206.451 184.056 206.82 184.037 207.245C184.037 207.456 184.041 207.687 184.014 207.922C184.003 208.039 183.995 208.165 183.983 208.286C183.972 208.412 183.96 208.542 183.937 208.667C183.891 208.927 183.857 209.198 183.795 209.474C183.761 209.612 183.73 209.749 183.696 209.891C183.661 210.033 183.631 210.179 183.585 210.321C183.416 210.896 183.213 211.492 182.956 212.092C182.891 212.242 182.825 212.391 182.76 212.541C182.695 212.691 182.618 212.837 182.545 212.987C182.473 213.137 182.396 213.287 182.323 213.437C182.242 213.583 182.162 213.733 182.081 213.879C181.759 214.474 181.391 215.05 181.015 215.617C180.82 215.897 180.624 216.176 180.425 216.448C180.222 216.719 180.022 216.991 179.811 217.246C179.604 217.506 179.397 217.765 179.182 218.008C178.972 218.259 178.761 218.498 178.546 218.729C178.124 219.199 177.698 219.633 177.288 220.034C176.874 220.435 176.479 220.804 176.103 221.136C175.731 221.469 175.375 221.756 175.06 222.012C174.746 222.267 174.462 222.478 174.228 222.648C173.994 222.822 173.806 222.948 173.68 223.037C173.553 223.122 173.48 223.167 173.48 223.167L173.488 223.183Z" fill="#848484"/>
<path d="M137.742 182.898C136.844 183.206 135.989 183.612 135.169 184.078C134.348 184.54 133.566 185.075 132.826 185.658C131.353 186.837 130.061 188.248 129.026 189.848C127.99 191.449 127.189 193.22 126.621 195.088C126.05 196.952 125.686 198.897 125.44 200.875C125.36 198.881 125.552 196.863 126.027 194.905C126.487 192.944 127.285 191.056 128.37 189.374C129.459 187.692 130.862 186.238 132.465 185.123C133.267 184.564 134.114 184.09 134.996 183.705C135.882 183.336 136.795 183.024 137.734 182.898H137.742Z" fill="#070202"/>
<path d="M134.129 183.231C133.232 183.539 132.377 183.944 131.556 184.41C130.736 184.872 129.954 185.407 129.213 185.99C127.745 187.17 126.449 188.58 125.413 190.18C124.378 191.781 123.577 193.552 123.009 195.42C122.438 197.284 122.073 199.229 121.828 201.207C121.747 199.213 121.939 197.195 122.415 195.238C122.875 193.276 123.672 191.388 124.758 189.706C125.847 188.025 127.25 186.57 128.853 185.455C129.654 184.896 130.502 184.422 131.384 184.037C132.27 183.668 133.182 183.356 134.122 183.231H134.129Z" fill="#070202"/>
<path d="M180.429 171.313C180.429 171.313 184.344 179.109 183.727 185.589L180.609 186.785L176.993 176.24" fill="#F5E2D6"/>
<path d="M180.371 187.316L176.621 176.378L177.361 176.095L180.843 186.25L183.358 185.285C183.83 179.053 180.122 171.58 180.084 171.503L180.778 171.114C180.939 171.438 184.743 179.097 184.118 185.626L184.095 185.885L180.375 187.311L180.371 187.316Z" fill="#281A0B"/>
<path d="M174.98 171.447C174.98 171.447 182.775 177.549 179.627 191.562L175.233 193.248L170.137 178.388" fill="#F5E2D6"/>
<path d="M174.984 193.799L169.745 178.53L170.516 178.234L175.474 192.685L179.275 191.23C182.189 177.813 174.807 171.852 174.734 171.791L175.221 171.094C175.306 171.159 177.265 172.719 178.849 176.05C180.298 179.105 181.679 184.292 180.022 191.656L179.972 191.882L174.984 193.795V193.799Z" fill="#281A0B"/>
<path d="M153.87 190.691C153.87 190.691 163.108 190.784 170.923 193.836L171.456 198.743L157.026 200.457" fill="#F5E2D6"/>
<path d="M157.072 200.883L156.984 200.044L171.015 198.374L170.555 194.148C162.947 191.242 153.958 191.116 153.866 191.116L153.874 190.27C153.966 190.27 163.273 190.399 171.061 193.443L171.291 193.532L171.901 199.12L157.072 200.883Z" fill="#281A0B"/>
<path d="M169.32 172.942C169.32 172.942 176.989 176.237 173.967 193.058L169.573 194.744L164.477 179.884" fill="#F5E2D6"/>
<path d="M169.324 195.295L164.086 180.025L164.856 179.73L169.814 194.18L173.603 192.729C176.414 176.658 169.235 173.371 169.163 173.339L169.473 172.537C169.558 172.573 171.544 173.452 173.135 176.48C175.225 180.455 175.643 186.059 174.37 193.135L174.328 193.378L169.327 195.295H169.324Z" fill="#281A0B"/>
<path d="M163.035 173.773C163.035 173.773 172.146 182.846 167.683 193.889L163.288 195.574L158.192 180.714" fill="#F5E2D6"/>
<path d="M163.039 196.125L157.801 180.856L158.571 180.56L163.53 195.011L167.372 193.54C169.097 189.143 168.864 184.556 166.678 179.904C165.014 176.358 162.774 174.105 162.755 174.085L163.319 173.452C163.415 173.546 165.669 175.815 167.403 179.49C169.009 182.902 170.428 188.195 168.062 194.054L167.993 194.229L163.043 196.125H163.039Z" fill="#281A0B"/>
<defs>
<filter id="filter0_d_24_5639" x="0" y="0" width="314" height="440" filterUnits="userSpaceOnUse" color-interpolation-filters="sRGB">
<feFlood flood-opacity="0" result="BackgroundImageFix"/>
<feColorMatrix in="SourceAlpha" type="matrix" values="0 0 0 0 0 0 0 0 0 0 0 0 0 0 0 0 0 0 127 0" result="hardAlpha"/>
<feOffset dy="4"/>
<feGaussianBlur stdDeviation="2"/>
<feComposite in2="hardAlpha" operator="out"/>
<feColorMatrix type="matrix" values="0 0 0 0 0 0 0 0 0 0 0 0 0 0 0 0 0 0 0.5 0"/>
<feBlend mode="normal" in2="BackgroundImageFix" result="effect1_dropShadow_24_5639"/>
<feBlend mode="normal" in="SourceGraphic" in2="effect1_dropShadow_24_5639" result="shape"/>
</filter>
<linearGradient id="paint0_linear_24_5639" x1="168.952" y1="307.106" x2="288.672" y2="307.106" gradientUnits="userSpaceOnUse">
<stop stop-color="#8F8F8F"/>
<stop offset="0.16" stop-color="#B4B4B4"/>
<stop offset="0.34" stop-color="#D8D8D8"/>
<stop offset="0.49" stop-color="#EEEEEE"/>
<stop offset="0.58" stop-color="#F7F7F7"/>
<stop offset="0.66" stop-color="#F3F3F3"/>
<stop offset="0.73" stop-color="#E8E8E8"/>
<stop offset="0.79" stop-color="#D5D5D5"/>
<stop offset="0.86" stop-color="#BBBBBB"/>
<stop offset="0.92" stop-color="#9A9A9A"/>
<stop offset="0.98" stop-color="#727272"/>
<stop offset="0.99" stop-color="#6E6E6E"/>
</linearGradient>
<linearGradient id="paint1_linear_24_5639" x1="181.295" y1="294.84" x2="216.727" y2="294.84" gradientUnits="userSpaceOnUse">
<stop stop-color="#989797"/>
<stop offset="0.08" stop-color="#B5B4B4"/>
<stop offset="0.18" stop-color="#D5D4D4"/>
<stop offset="0.28" stop-color="#ECECEC"/>
<stop offset="0.38" stop-color="#FAFAFA"/>
<stop offset="0.46" stop-color="white"/>
<stop offset="0.56" stop-color="#CACACA"/>
<stop offset="0.65" stop-color="#9E9E9E"/>
<stop offset="0.75" stop-color="#7A7A7A"/>
<stop offset="0.84" stop-color="#616161"/>
<stop offset="0.92" stop-color="#525252"/>
<stop offset="0.99" stop-color="#4D4D4D"/>
</linearGradient>
<linearGradient id="paint2_linear_24_5639" x1="255.89" y1="273.525" x2="286.537" y2="273.525" gradientUnits="userSpaceOnUse">
<stop stop-color="#989797"/>
<stop offset="0.08" stop-color="#B5B4B4"/>
<stop offset="0.18" stop-color="#D5D4D4"/>
<stop offset="0.28" stop-color="#ECECEC"/>
<stop offset="0.38" stop-color="#FAFAFA"/>
<stop offset="0.46" stop-color="white"/>
<stop offset="0.56" stop-color="#CACACA"/>
<stop offset="0.65" stop-color="#9E9E9E"/>
<stop offset="0.75" stop-color="#7A7A7A"/>
<stop offset="0.84" stop-color="#616161"/>
<stop offset="0.92" stop-color="#525252"/>
<stop offset="0.99" stop-color="#4D4D4D"/>
</linearGradient>
<linearGradient id="paint3_linear_24_5639" x1="85.2074" y1="194.889" x2="148.256" y2="194.889" gradientUnits="userSpaceOnUse">
<stop stop-color="#1E415F"/>
<stop offset="0.07" stop-color="#295376"/>
<stop offset="0.16" stop-color="#32638B"/>
<stop offset="0.26" stop-color="#396E99"/>
<stop offset="0.37" stop-color="#3D74A2"/>
<stop offset="0.56" stop-color="#3F77A5"/>
</linearGradient>
<linearGradient id="paint4_linear_24_5639" x1="42.325" y1="246.536" x2="98.6133" y2="246.536" gradientUnits="userSpaceOnUse">
<stop stop-color="#1E415F"/>
<stop offset="0.07" stop-color="#295376"/>
<stop offset="0.16" stop-color="#32638B"/>
<stop offset="0.26" stop-color="#396E99"/>
<stop offset="0.37" stop-color="#3D74A2"/>
<stop offset="0.56" stop-color="#3F77A5"/>
</linearGradient>
<linearGradient id="paint5_linear_24_5639" x1="25.3452" y1="102.107" x2="113.568" y2="102.107" gradientUnits="userSpaceOnUse">
<stop stop-color="#1E415F"/>
<stop offset="0.43" stop-color="#2F5D84"/>
<stop offset="0.78" stop-color="#3A709C"/>
<stop offset="1" stop-color="#3F77A5"/>
</linearGradient>
</defs>
</svg>
