<svg width="314" height="440" viewBox="0 0 314 440" fill="none" xmlns="http://www.w3.org/2000/svg">
<g filter="url(#filter0_d_24_1219)">
<rect x="4" width="306" height="432" rx="35" fill="#FFE995"/>
</g>
<path d="M163.17 207.646L166.763 204L169.734 207.855L175.57 210.101L169.4 211.957L165.807 215.603L162.836 211.748L157 209.503L163.17 207.646Z" fill="#FEFEFE"/>
<path d="M261.17 37.6464L264.763 34L267.734 37.855L273.57 40.1005L267.4 41.9567L263.807 45.6031L260.836 41.7482L255 39.5026L261.17 37.6464Z" fill="#FEFEFE"/>
<path d="M56.1696 88.6464L59.7634 85L62.7342 88.855L68.57 91.1005L62.4004 92.9567L58.8066 96.6031L55.8358 92.7482L50 90.5026L56.1696 88.6464Z" fill="#FEFEFE"/>
<path d="M252.17 219.646L255.763 216L258.734 219.855L264.57 222.101L258.4 223.957L254.807 227.603L251.836 223.748L246 221.503L252.17 219.646Z" fill="#FEFEFE"/>
<path d="M66.1696 165.646L69.7634 162L72.7342 165.855L78.57 168.101L72.4004 169.957L68.8066 173.603L65.8358 169.748L60 167.503L66.1696 165.646Z" fill="#FEFEFE"/>
<path d="M183.17 67.6464L186.763 64L189.734 67.855L195.57 70.1005L189.4 71.9567L185.807 75.6031L182.836 71.7482L177 69.5026L183.17 67.6464Z" fill="#FEFEFE"/>
<path d="M130.17 100.646L133.763 97L136.734 100.855L142.57 103.101L136.4 104.957L132.807 108.603L129.836 104.748L124 102.503L130.17 100.646Z" fill="#FEFEFE"/>
<mask id="mask0_24_1219" style="mask-type:alpha" maskUnits="userSpaceOnUse" x="4" y="0" width="306" height="432">
<rect x="4" width="306" height="432" rx="35" fill="#FFE995"/>
</mask>
<g mask="url(#mask0_24_1219)">
<path d="M434.368 233.963L426.732 234.216L430.711 299.865L390.002 315.53L377.444 274.836H353.702L311.567 217.124L293.309 217.614L331.061 297.13L275.939 292.805L261.096 262.098L229.179 262.946L226.867 233.725L223.237 229.014L207.937 285.002L185.754 285.492L180.349 270.407L169.513 287.231L155.611 288.465L107.883 204L87.7167 207.344L113.369 281.777L66.7702 246.73L-45.3833 311.755L-44.7111 246.359L-120 284.125V395.566L180.349 509L485 390.007V281.777L470.48 286.726L434.368 233.963Z" fill="#4B81D0"/>
<path d="M439.368 268.234L431.732 268.412L435.711 314.901L395.002 325.995L382.444 297.177H358.702L316.567 256.309L298.309 256.656L336.061 312.965L280.939 309.902L266.096 288.157L234.179 288.757L231.867 268.065L228.237 264.729L212.937 304.376L190.754 304.724L185.349 294.041L174.513 305.955L160.611 306.829L112.883 247.015L92.7167 249.383L118.369 302.093L71.7702 277.275L-40.3833 323.321L-39.7111 277.011L-115 303.755V382.672L185.349 463L490 443V302.093L475.48 305.597L439.368 268.234Z" fill="white" fill-opacity="0.44"/>
<path d="M432.792 389.755C439.299 393.79 443 401.009 443 408.665C443 421.553 432.553 432 419.665 432H-96.6971C-115.642 432 -131 416.642 -131 397.697C-131 384.677 -123.675 372.665 -111.696 367.563C-46.9282 339.981 41.4578 323 138.895 323C260.31 323 367.671 349.368 432.792 389.755Z" fill="#F0BA7C"/>
<path d="M174.9 406.81C173.86 404.052 173.815 401.009 173.021 398.168C172.226 395.328 170.289 392.437 167.381 392C167.539 393.999 167.173 396.694 165.192 396.947C162.467 397.295 161.71 392.455 158.991 392.095C157.565 391.905 156.348 393.069 154.966 393.468C152.676 394.119 150.185 392.607 147.888 393.24C145.939 393.778 144.734 395.682 143.719 397.434C142.06 400.3 140.394 403.16 138.735 406.025C138.029 407.24 137.309 408.493 137.07 409.885C136.836 411.27 137.177 412.852 138.281 413.718C139.908 415.003 142.249 414.269 144.236 413.706C147.699 412.725 153.402 411.314 156.165 414.313C158.884 417.267 159.338 421.411 163.779 422.702C165.35 423.157 167.04 423.05 168.63 422.657C173.557 421.449 177.941 416.578 176.824 411.618C176.446 409.929 175.5 408.436 174.888 406.816L174.9 406.81Z" fill="#F0B700" fill-opacity="0.22" style="mix-blend-mode:multiply"/>
<path d="M79.6306 379.779C78.3765 380.991 77.6691 382.647 76.95 384.24C75.9941 386.352 74.798 388.277 73.6856 390.312C71.0532 390.887 68.7781 392.915 67.8867 395.479C67.2025 397.452 67.1277 399.922 65.3863 401.052C64.2738 401.771 62.7967 401.678 61.6499 402.345C60.5077 403.009 59.9026 404.296 59.1579 405.394C58.4132 406.491 57.2363 407.541 55.937 407.301C54.4997 407.037 53.779 405.252 54.0825 403.813C54.3869 402.371 55.3963 401.209 56.3199 400.069C56.8329 399.44 57.3511 398.743 57.4029 397.93C57.4566 397.108 57.0137 396.336 56.4965 395.697C54.2654 392.947 50.4173 391.686 48.7473 388.557C47.7481 386.687 47.7085 384.446 46.9281 382.472C46.1477 380.498 44.4526 378.658 42.5242 379.517C41.3492 378.712 40.0775 377.877 38.658 377.888C37.3785 377.898 36.1728 378.638 35.4079 379.674C34.6466 380.711 34.299 382.009 34.2345 383.296C34.1892 384.256 34.3043 385.262 34.8137 386.072C35.0293 386.419 35.3241 386.738 35.4012 387.141C35.4838 387.554 35.3286 387.973 35.1482 388.35C34.3256 390.097 32.5142 391.689 30.6592 391.195C29.3324 390.843 28.4619 389.519 28.1283 388.178C27.7946 386.836 27.8732 385.432 27.7569 384.055C25.8067 384.67 23.5376 384.105 22.0975 382.646C22.7034 381.637 23.3425 380.592 24.3339 379.97C25.3254 379.348 26.7753 379.297 27.5502 380.18C27.733 380.389 27.8853 380.654 28.1431 380.758C28.4833 380.898 28.8654 380.703 29.1742 380.497C30.1971 379.814 31.0898 378.936 31.7963 377.926C32.6538 376.7 30.9797 374.292 29.5759 373.803C28.1731 373.309 26.609 373.682 25.2436 374.279C23.8782 374.877 22.6081 375.697 21.1938 376.157C20.4297 376.407 19.6212 376.548 18.92 376.942C17.3684 377.815 16.6754 379.963 17.4216 381.585C17.9484 382.734 19.0296 383.515 19.7792 384.529C20.9487 386.108 21.2639 388.195 21.0555 390.154C20.8433 392.112 20.4496 394.358 19.3804 396.005C18.4547 397.435 16.2582 397.119 14.8387 398.053C12.5531 399.558 13.3178 403.364 11.4676 405.389C9.81254 407.198 6.75878 406.869 4.90778 408.475C3.64792 409.568 3.20264 411.389 3.3977 413.053C3.59275 414.718 4.33954 416.259 5.14138 417.726C6.05457 419.4 7.10868 421.086 8.71367 422.104C9.45016 422.573 10.2799 422.881 11.0107 423.358C13.1919 424.783 14.2883 427.541 16.5532 428.827C17.3336 425.601 18.7218 422.439 21.063 420.105C23.4052 417.768 26.8021 416.363 30.0439 416.958C31.9319 417.307 33.6386 418.287 35.4148 419.027C37.191 419.766 39.1981 420.275 41.0131 419.641C42.4766 419.13 43.6168 417.941 45.0361 417.305C48.1594 415.905 52.364 417.275 54.8278 414.885C55.8557 413.885 56.3561 412.38 57.5294 411.563C58.7906 410.685 60.6081 410.761 61.6791 409.655C62.2937 409.02 62.5342 408.11 63.0273 407.371C63.7854 406.236 65.0712 405.606 66.2222 404.876C67.3733 404.146 69.331 403 69.1122 401.648C69.0392 401.197 69.731 401.074 70.1519 401.244C72.1428 402.052 72.9981 404.61 74.9824 405.428C76.3987 406.009 78.0396 405.539 79.3648 404.77C80.6938 404.002 81.8472 402.949 83.2086 402.242C83.5587 402.062 83.9565 401.899 84.3337 402.005C84.647 402.095 84.8811 402.353 85.1486 402.544C85.8427 403.039 86.7468 403.072 87.5965 403.083C91.4981 403.148 95.4205 403.21 99.2788 402.63C100.17 402.494 101.069 402.328 101.967 402.384C103.357 402.475 104.648 403.092 105.947 403.599C107.247 404.106 108.667 404.515 110.016 404.167C111.366 403.82 112.525 402.337 112.211 400.969C110.422 401.404 108.575 400.364 107.305 399.021C106.035 397.679 105.113 396.023 103.822 394.703C102.91 393.777 101.832 393.029 100.941 392.083C99.1291 390.152 98.1676 387.462 96.0989 385.815C95.3735 385.239 94.5418 384.813 93.8277 384.224C92.7006 383.294 91.9295 382.005 90.9406 380.925C89.5115 379.36 87.5746 378.231 85.484 377.955C83.3934 377.678 81.1601 378.305 79.6363 379.773L79.6306 379.779Z" fill="#F0B700" fill-opacity="0.22" style="mix-blend-mode:multiply"/>
<path d="M147.344 336.796C146.808 336.378 146.117 336.199 145.437 336.14C144.384 336.048 143.311 336.225 142.344 336.651C141.775 336.902 141.228 337.24 140.609 337.313C140.099 337.374 139.587 337.246 139.079 337.165C136.535 336.761 133.876 337.625 132.029 339.41C131.158 338.862 130.511 337.949 129.536 337.623C128.831 337.387 128.053 337.499 127.342 337.721C126.998 337.829 126.654 337.963 126.293 337.957C125.933 337.951 125.546 337.76 125.443 337.417C125.376 337.189 125.443 336.947 125.458 336.708C125.501 336.054 125.099 335.396 124.497 335.131C123.895 334.866 123.135 335.013 122.676 335.483C122.41 335.757 122.25 336.113 122.025 336.421C121.693 336.871 121.228 337.203 120.808 337.574C119.214 338.984 118.251 341.002 116.623 342.373C115.552 343.276 114.259 343.952 114.151 345.344C113.29 344.942 112.176 345.173 111.547 345.88C111.266 346.194 111.08 346.585 110.775 346.876C110.472 347.168 109.974 347.335 109.628 347.094C109.073 346.705 109.46 345.835 109.323 345.173C109.124 344.219 107.881 343.926 106.908 344.044C104.128 344.382 101.682 346.603 101.09 349.326C101.023 349.635 100.984 349.984 101.164 350.245C101.318 350.467 101.59 350.569 101.844 350.656C102.379 350.842 102.932 351.031 103.495 350.986C104.058 350.941 104.64 350.601 104.777 350.055C104.865 349.707 104.777 349.289 105.023 349.022C105.365 348.649 106.057 348.987 106.17 349.48C106.283 349.971 106.023 350.467 105.748 350.893C104.861 352.27 103.405 353.617 101.793 353.295C101.012 353.138 100.353 352.606 99.5806 352.417C98.8063 352.227 97.7596 352.649 97.8067 353.44C97.8354 353.927 98.2655 354.281 98.4744 354.721C98.7878 355.38 98.5728 356.193 98.1283 356.771C97.6838 357.352 97.2372 358.069 96.5264 358.249C96.295 358.308 96.209 358.615 96.3032 358.831C96.3954 359.049 96.6063 359.192 96.8112 359.31C97.6244 359.785 98.7776 360.058 99.4228 359.373C99.8141 358.96 99.8694 358.33 100.187 357.857C100.488 357.411 101.033 357.136 101.572 357.158C101.869 357.171 102.172 357.275 102.368 357.495C102.631 357.79 102.655 358.218 102.727 358.605C102.801 358.992 102.997 359.426 103.386 359.506C103.954 359.622 104.329 358.927 104.855 358.683C105.339 358.459 105.937 358.654 106.326 359.017C106.715 359.38 106.942 359.879 107.155 360.368C108.19 360.411 109.29 360.657 110.216 361.116C110.16 362.389 110.578 363.679 111.371 364.682C111.748 365.158 112.205 365.57 112.557 366.065C113.003 366.693 113.268 367.449 113.315 368.217C113.217 368.176 113.116 368.136 113.016 368.097C112.833 368.026 112.649 367.958 112.485 367.85C112.225 367.679 112.039 367.416 111.869 367.155C110.984 365.815 110.275 364.343 109.173 363.174C108.567 362.532 107.846 361.988 107.03 361.643C106.398 361.376 105.722 361.234 105.048 361.091C103.976 360.865 102.891 360.639 101.799 360.712C100.496 360.8 99.2508 361.311 97.948 361.395C97.0857 361.45 96.0901 361.362 95.4961 361.986C95.2073 362.289 95.0803 362.705 94.9615 363.104C94.7976 363.657 94.6338 364.207 94.4699 364.759C94.0664 366.116 93.6833 367.657 94.4064 368.875C94.7812 369.507 95.4101 369.951 96.0738 370.271C96.7743 370.607 97.5773 370.825 98.329 370.628C98.7899 370.505 99.1955 370.238 99.6318 370.051C100.068 369.864 100.586 369.76 101.012 369.969C101.385 369.839 101.758 370.505 101.838 370.891C101.918 371.276 101.871 371.699 102.073 372.036C102.291 372.394 102.739 372.559 102.958 372.916C103.331 373.521 102.872 374.304 102.973 375.005C103.024 375.369 103.227 375.693 103.391 376.026C104.191 377.633 104.173 379.551 104.982 381.154C105.136 381.46 105.336 381.766 105.648 381.906C105.93 382.035 106.258 382.004 106.568 381.972C107.141 381.91 107.725 381.847 108.259 381.629C108.794 381.411 109.282 381.014 109.474 380.472C109.581 380.168 109.593 379.828 109.763 379.553C109.949 379.251 110.289 379.086 110.595 378.905C111.123 378.587 111.592 378.169 111.967 377.682C112.049 377.576 112.127 377.462 112.168 377.334C112.209 377.205 112.207 377.067 112.207 376.932C112.203 376.189 111.895 375.225 112.237 374.564C112.76 373.558 113.477 372.649 114.337 371.907C114.675 371.616 115.04 371.345 115.304 370.986C115.566 370.626 115.716 370.149 115.56 369.731C115.41 369.332 115.025 369.077 114.65 368.867C114.253 368.645 113.845 368.443 113.425 368.264C113.733 367.726 114.319 367.363 114.927 367.202C115.613 367.021 116.336 367.056 117.045 367.092C117.1 366.491 117.156 365.876 116.988 365.297C116.82 364.718 116.373 364.178 115.775 364.081C116.602 364.03 117.432 364.017 118.262 364.046C118.659 364.06 119.071 364.085 119.427 364.266C119.732 364.421 119.97 364.68 120.265 364.855C120.863 365.209 121.603 365.173 122.297 365.22C122.991 365.264 123.768 365.462 124.104 366.069C124.575 366.917 124.046 368.301 124.911 368.745C125.47 369.032 126.156 368.582 126.455 368.03C126.754 367.477 126.832 366.827 127.135 366.279C127.44 365.731 128.161 365.112 128.71 365.415C128.911 366.713 129.681 367.913 130.781 368.641C130.939 368.745 131.111 368.849 131.191 369.018C131.345 369.34 131.101 369.719 131.146 370.073C131.226 370.697 132.053 370.852 132.686 370.848C132.846 370.848 133.018 370.842 133.141 370.742C133.432 370.509 133.207 370.035 132.916 369.8C132.627 369.566 132.248 369.321 132.262 368.951C132.742 368.997 133.196 369.193 133.676 369.234C134.155 369.275 134.714 369.099 134.884 368.651C135.112 368.048 134.515 367.451 134.446 366.811C134.382 366.232 134.765 365.69 135.218 365.321C135.671 364.953 136.207 364.688 136.635 364.29C137.42 363.565 137.764 362.399 137.5 361.368C137.311 360.633 136.844 359.85 137.189 359.174C137.582 358.403 138.696 358.422 139.528 358.67C140.015 358.815 140.607 358.978 140.978 358.632C141.144 358.477 141.222 358.249 141.271 358.027C141.603 356.531 140.996 354.791 141.883 353.537C142.258 353.008 142.893 352.557 142.856 351.911C142.815 351.214 142.033 350.854 141.425 350.503C140.64 350.051 139.95 349.313 139.851 348.417C139.724 347.263 140.749 346.086 141.914 346.118C142.092 345.617 142.285 345.095 142.676 344.731C143.065 344.366 143.719 344.219 144.137 344.549C144.403 344.761 144.518 345.108 144.597 345.438C144.737 346.016 144.817 346.607 144.833 347.202C144.847 347.706 144.89 348.329 145.355 348.531C145.743 348.698 146.205 348.425 146.398 348.052C146.591 347.679 146.586 347.239 146.589 346.819C146.603 344.156 147.053 341.497 147.922 338.978C148.143 338.336 147.877 337.211 147.338 336.794L147.344 336.796Z" fill="#F0B700" fill-opacity="0.22" style="mix-blend-mode:multiply"/>
<path d="M268.235 364.101C267.609 363.613 266.804 363.403 266.01 363.334C264.782 363.226 263.53 363.434 262.402 363.932C261.737 364.225 261.099 364.621 260.378 364.707C259.782 364.779 259.185 364.628 258.592 364.533C255.624 364.061 252.522 365.072 250.367 367.161C249.351 366.519 248.596 365.451 247.459 365.07C246.636 364.793 245.728 364.924 244.899 365.184C244.498 365.31 244.096 365.468 243.676 365.461C243.255 365.453 242.803 365.229 242.684 364.829C242.605 364.562 242.684 364.278 242.7 363.999C242.751 363.233 242.282 362.463 241.58 362.153C240.877 361.843 239.991 362.015 239.455 362.566C239.145 362.885 238.958 363.303 238.695 363.663C238.308 364.19 237.766 364.578 237.276 365.012C235.417 366.662 234.293 369.023 232.393 370.628C231.144 371.684 229.636 372.476 229.509 374.105C228.505 373.635 227.205 373.904 226.472 374.732C226.144 375.099 225.927 375.557 225.571 375.898C225.217 376.239 224.636 376.434 224.232 376.153C223.585 375.697 224.036 374.679 223.876 373.904C223.645 372.788 222.194 372.445 221.059 372.583C217.816 372.979 214.963 375.578 214.272 378.764C214.193 379.126 214.148 379.534 214.358 379.839C214.537 380.099 214.855 380.219 215.151 380.321C215.775 380.538 216.42 380.76 217.077 380.707C217.735 380.655 218.413 380.257 218.573 379.618C218.676 379.21 218.573 378.721 218.86 378.409C219.259 377.972 220.067 378.368 220.199 378.945C220.33 379.52 220.026 380.099 219.706 380.598C218.671 382.21 216.972 383.786 215.092 383.409C214.181 383.225 213.412 382.603 212.511 382.381C211.607 382.16 210.386 382.653 210.441 383.578C210.475 384.148 210.976 384.563 211.22 385.078C211.586 385.848 211.335 386.8 210.816 387.477C210.298 388.157 209.777 388.996 208.948 389.206C208.677 389.275 208.577 389.635 208.687 389.888C208.795 390.143 209.041 390.31 209.28 390.448C210.228 391.004 211.574 391.323 212.327 390.522C212.783 390.038 212.848 389.301 213.218 388.748C213.569 388.226 214.205 387.904 214.834 387.93C215.18 387.944 215.534 388.066 215.763 388.324C216.069 388.669 216.098 389.17 216.181 389.623C216.267 390.076 216.497 390.584 216.951 390.677C217.613 390.813 218.05 390 218.664 389.714C219.228 389.451 219.926 389.68 220.38 390.105C220.834 390.529 221.099 391.113 221.348 391.686C222.555 391.736 223.838 392.024 224.918 392.561C224.854 394.051 225.341 395.561 226.266 396.734C226.706 397.292 227.239 397.773 227.65 398.353C228.171 399.087 228.479 399.972 228.534 400.871C228.419 400.823 228.302 400.776 228.185 400.73C227.972 400.647 227.757 400.568 227.566 400.442C227.263 400.241 227.045 399.934 226.847 399.629C225.814 398.06 224.988 396.338 223.702 394.969C222.995 394.218 222.153 393.581 221.202 393.178C220.464 392.866 219.675 392.699 218.889 392.532C217.639 392.268 216.373 392.003 215.099 392.089C213.579 392.191 212.126 392.79 210.606 392.888C209.6 392.952 208.439 392.849 207.745 393.579C207.409 393.934 207.26 394.421 207.122 394.888C206.931 395.534 206.739 396.178 206.548 396.824C206.077 398.413 205.631 400.215 206.474 401.641C206.911 402.38 207.645 402.9 208.419 403.275C209.237 403.668 210.173 403.923 211.051 403.692C211.588 403.549 212.061 403.236 212.57 403.017C213.079 402.798 213.684 402.676 214.181 402.922C214.616 402.769 215.051 403.549 215.144 404C215.237 404.45 215.182 404.946 215.419 405.34C215.672 405.759 216.196 405.952 216.451 406.37C216.886 407.078 216.351 407.994 216.468 408.814C216.528 409.241 216.764 409.62 216.956 410.009C217.89 411.89 217.868 414.134 218.812 416.01C218.992 416.368 219.226 416.726 219.589 416.89C219.919 417.041 220.301 417.005 220.662 416.967C221.331 416.895 222.012 416.821 222.636 416.566C223.26 416.311 223.829 415.846 224.053 415.212C224.177 414.856 224.192 414.458 224.39 414.136C224.608 413.783 225.004 413.59 225.36 413.378C225.977 413.006 226.524 412.517 226.962 411.947C227.057 411.823 227.148 411.69 227.196 411.539C227.244 411.389 227.241 411.227 227.241 411.07C227.236 410.199 226.878 409.071 227.277 408.299C227.886 407.121 228.723 406.057 229.726 405.189C230.121 404.848 230.546 404.531 230.854 404.112C231.16 403.69 231.335 403.132 231.153 402.643C230.979 402.175 230.529 401.877 230.092 401.632C229.629 401.372 229.153 401.136 228.663 400.926C229.022 400.296 229.705 399.872 230.415 399.684C231.215 399.471 232.059 399.512 232.886 399.555C232.95 398.851 233.015 398.131 232.819 397.454C232.623 396.777 232.102 396.145 231.404 396.03C232.37 395.971 233.337 395.956 234.305 395.99C234.769 396.007 235.249 396.035 235.665 396.247C236.021 396.429 236.298 396.731 236.642 396.937C237.34 397.351 238.203 397.309 239.013 397.363C239.823 397.416 240.729 397.647 241.121 398.358C241.671 399.35 241.054 400.969 242.062 401.489C242.715 401.825 243.515 401.298 243.864 400.652C244.213 400.005 244.304 399.245 244.658 398.603C245.014 397.962 245.855 397.237 246.495 397.592C246.73 399.111 247.628 400.516 248.911 401.367C249.095 401.489 249.296 401.61 249.389 401.808C249.569 402.185 249.284 402.628 249.337 403.043C249.43 403.773 250.396 403.954 251.134 403.949C251.32 403.949 251.521 403.942 251.664 403.825C252.004 403.554 251.741 402.998 251.402 402.724C251.065 402.45 250.623 402.163 250.639 401.729C251.198 401.784 251.729 402.013 252.288 402.061C252.847 402.109 253.5 401.904 253.698 401.379C253.963 400.673 253.268 399.974 253.187 399.226C253.113 398.548 253.56 397.914 254.088 397.483C254.616 397.051 255.242 396.741 255.741 396.276C256.657 395.427 257.058 394.063 256.75 392.857C256.53 391.996 255.985 391.08 256.387 390.288C256.845 389.387 258.146 389.409 259.116 389.699C259.685 389.869 260.375 390.06 260.808 389.654C261.001 389.473 261.092 389.206 261.149 388.946C261.537 387.196 260.829 385.159 261.864 383.693C262.301 383.073 263.042 382.546 262.999 381.79C262.951 380.974 262.038 380.552 261.329 380.142C260.413 379.613 259.608 378.75 259.493 377.7C259.345 376.351 260.54 374.973 261.9 375.011C262.108 374.424 262.332 373.814 262.789 373.387C263.243 372.96 264.005 372.788 264.493 373.175C264.803 373.423 264.937 373.828 265.03 374.214C265.193 374.891 265.286 375.583 265.305 376.279C265.322 376.868 265.372 377.598 265.915 377.834C266.366 378.029 266.906 377.71 267.131 377.274C267.356 376.837 267.351 376.322 267.353 375.831C267.37 372.714 267.896 369.603 268.909 366.655C269.167 365.904 268.856 364.588 268.228 364.099L268.235 364.101Z" fill="#F0B700" fill-opacity="0.22" style="mix-blend-mode:multiply"/>
<path d="M197.72 383.396C200.638 382.532 212.287 382.666 210.35 376.862C210.038 375.93 209.236 375.268 208.401 374.774C205.171 372.865 201.195 372.775 197.475 373.224C195.237 373.494 192.909 373.976 191.149 375.402C189.39 376.828 188.387 379.433 189.412 381.465C190.815 384.238 194.758 384.272 197.72 383.396Z" fill="#F0B700" fill-opacity="0.22" style="mix-blend-mode:multiply"/>
<path d="M298.452 418.886C299.339 416.86 297.753 414.657 296.276 412.999C294.816 411.366 293.357 409.734 291.897 408.102C290.568 406.62 289.221 405.113 287.518 404.068C282.653 401.084 277.296 404.339 279.078 409.795C280.583 414.401 286.223 417.631 290.287 419.58C291.666 420.242 293.115 420.896 294.652 420.942C296.188 420.988 297.842 420.274 298.452 418.886Z" fill="#F0B700" fill-opacity="0.22" style="mix-blend-mode:multiply"/>
<path fill-rule="evenodd" clip-rule="evenodd" d="M312.303 155.644C311.816 157.248 310.752 158.291 309.234 158.951C307.978 159.498 306.673 159.849 305.317 159.915C302.782 160.041 300.403 159.624 298.564 157.642C298.488 157.559 298.362 157.526 298.355 157.523C297.646 158.364 297.05 159.252 296.281 159.952C294.071 161.963 291.413 162.533 288.503 162.159C286.721 161.93 285.21 161.224 284.119 159.736C283.957 159.514 283.748 159.325 283.46 159.004C282.499 160.793 280.951 161.764 279.301 162.619C277.499 163.55 275.649 164.17 273.572 164.266C271.143 164.382 268.863 163.726 266.547 163.265C264.389 162.835 262.706 161.449 261.105 160.041C258.15 157.44 256.774 154.153 257.116 150.189C257.145 149.845 257.169 149.5 257.202 149.056C250.366 149.782 245.203 147.333 241.624 141.6C241.186 141.825 240.799 142.054 240.388 142.233C238.688 142.992 236.955 143.711 235.066 143.002C233.691 142.485 232.335 141.892 231.023 141.229C230.089 140.762 229.446 139.95 229.005 138.982C227.322 135.301 227.849 131.801 229.873 128.431C230.039 128.156 230.284 127.918 230.526 127.699C232.511 125.886 234.847 125.114 237.528 125.379C237.965 125.422 238.406 125.449 238.83 125.479C238.887 125.383 238.96 125.316 238.963 125.247C238.97 124.962 238.943 124.673 238.946 124.388C238.973 122.046 239.427 119.835 240.878 117.913C242.456 115.829 244.52 114.374 246.889 113.37C249.699 112.177 252.586 111.528 255.608 112.648C255.856 112.741 256.151 112.698 256.542 112.727C256.516 111.693 256.46 110.726 256.473 109.755C256.496 108.098 256.976 106.577 258.196 105.414C260.207 103.492 262.597 102.451 265.423 102.574C266.354 102.614 267.282 102.71 268.346 102.793C268.339 102.398 268.329 102.004 268.326 101.613C268.286 97.4377 269.353 93.5871 271.756 90.1507C273.413 87.7814 275.679 86.1146 278.158 84.693C279.752 83.7784 281.458 83.3244 283.284 83.1289C285.587 82.8837 287.867 83.0262 290.15 83.2416C293.037 83.5133 295.678 84.4544 297.858 86.4195C298.859 87.3208 299.734 88.3613 300.691 89.3091C301.921 90.5252 302.368 92.086 302.7 93.7064C302.779 94.0941 302.826 94.4885 302.902 94.9921C303.243 94.8231 303.465 94.737 303.661 94.6111C306.133 93.0205 308.8 92.7487 311.564 93.5772C314.752 94.5315 316.657 97.4642 315.663 100.725C315.583 100.977 315.587 101.255 315.537 101.649C316.134 101.494 316.601 101.378 317.068 101.252C319.51 100.592 321.853 100.831 324.103 101.994C325.916 102.932 326.864 104.383 326.794 106.441C326.771 107.134 326.655 107.823 326.585 108.516C326.559 108.777 326.545 109.039 326.512 109.457C327.258 109.248 327.841 109.069 328.428 108.92C332.308 107.936 336.009 108.363 339.403 110.527C341.099 111.611 342.521 113.039 343.797 114.613C344.867 115.935 345.487 117.413 345.556 119.106C345.646 121.264 345.457 123.365 344.277 125.267C344.012 125.694 343.687 126.145 343.793 126.758C344.191 126.827 344.556 126.867 344.907 126.95C346.726 127.394 348.174 128.272 348.661 130.237C348.943 131.377 349.208 132.52 349.496 133.723C349.649 133.72 349.897 133.75 350.133 133.7C353.274 133.054 356.137 133.912 358.884 135.344C360.137 135.997 360.882 137.04 360.936 138.475C360.959 139.125 360.899 139.794 360.763 140.427C360.316 142.488 359.537 144.4 358.258 146.117C357.317 147.379 356.197 148.334 354.676 148.761C354.053 148.937 353.605 149.268 353.221 149.798C352.422 150.898 351.329 151.604 349.99 151.876C346.504 152.582 343.25 151.959 340.215 150.133C339.837 149.904 339.466 149.659 339.207 149.493C338.054 149.994 337.076 150.57 336.023 150.836C334.939 151.111 333.779 151.084 332.48 151.203C332.344 151.376 332.099 151.7 331.841 152.015C330.472 153.679 328.988 155.283 326.857 155.862C324.975 156.373 323.003 156.548 321.068 156.87C320.988 156.883 320.902 156.87 320.823 156.85C318.225 156.323 315.504 156.267 313.131 154.862C313.032 154.805 312.896 154.812 312.651 154.769C312.512 155.104 312.382 155.359 312.3 155.624L312.303 155.644ZM241.922 130.728C240.981 129.541 240.073 128.398 239.042 127.099C238.87 127.056 238.476 126.967 238.091 126.847C235.99 126.194 234.045 126.532 232.233 127.739C231.109 128.484 230.566 129.654 230.112 130.834C229.124 133.402 229.187 135.973 230.443 138.455C230.675 138.916 230.993 139.403 231.398 139.701C232.76 140.702 234.271 141.454 235.937 141.799C237.833 142.19 239.49 141.574 240.998 140.444C241.382 140.155 241.783 139.893 242.313 139.529C242.582 139.943 242.87 140.235 242.979 140.583C243.466 142.14 244.48 143.287 245.726 144.274C246.399 144.808 247.052 145.381 247.768 145.852C248.45 146.296 249.166 146.793 249.938 146.965C251.608 147.34 253.315 147.558 255.015 147.78C256.827 148.016 258.385 147.32 259.84 146.316C260.197 146.067 260.592 145.875 260.917 145.686C261.586 146.097 261.483 146.498 261.092 146.852C260.698 147.207 260.28 147.558 259.813 147.803C259.034 148.218 258.766 148.867 258.657 149.692C258.153 153.496 259.372 156.628 262.265 159.117C264.356 160.919 266.663 162.238 269.509 162.427C270.649 162.503 271.769 162.835 272.909 162.911C275.229 163.06 277.32 162.331 279.351 161.224C281.067 160.29 282.224 158.971 282.897 157.171C283.298 156.098 283.682 155.014 284.119 153.954C284.368 153.351 284.669 152.761 285.014 152.207C285.183 151.939 285.508 151.77 285.793 151.531C286.323 152.118 286.104 152.562 285.929 153.023C285.524 154.093 285.163 155.183 284.746 156.25C284.388 157.165 284.65 157.907 285.21 158.646C285.935 159.594 286.83 160.217 287.983 160.565C289.653 161.072 291.327 161.092 292.941 160.551C295.343 159.75 296.891 158.119 297.152 155.485C297.219 154.812 297.391 154.272 298.355 154.298C298.508 154.57 298.716 154.862 298.849 155.186C299.621 157.062 301.076 158.103 303.004 158.46C304.933 158.818 306.842 158.653 308.664 157.867C309.771 157.39 310.59 156.631 310.908 155.422C311.16 154.464 311.15 153.629 310.295 152.867C308.598 151.352 308.21 149.314 308.297 147.147C308.323 146.494 308.582 145.971 309.427 145.689C309.556 145.994 309.735 146.253 309.771 146.528C309.837 147.055 309.818 147.591 309.847 148.122C309.953 150.014 310.822 151.475 312.376 152.539C314.367 153.904 316.518 154.862 318.96 155.037C319.043 155.044 319.129 155.044 319.202 155.07C321.233 155.753 323.258 155.306 325.273 154.988C328.06 154.547 329.816 152.695 331.238 150.458C331.436 150.146 331.38 149.672 331.45 149.222C333.166 148.082 332.991 146.272 332.957 144.516C332.948 143.963 332.904 143.413 332.878 142.882C333.958 142.727 334.154 142.803 334.333 143.641C334.651 145.106 334.641 146.567 334.111 147.999C333.928 148.489 333.753 148.986 333.527 149.613C334.737 150.057 335.797 149.858 336.752 149.281C337.683 148.721 338.521 148.006 339.419 147.343C339.628 147.452 339.877 147.502 339.969 147.644C341.146 149.523 343.061 150.153 345.049 150.537C346.484 150.816 347.952 151.005 349.443 150.703C351.75 150.239 352.787 148.327 352.943 146.243C352.973 145.845 352.943 145.444 352.943 145.07C354.05 144.851 354.341 145.026 354.424 145.948C354.467 146.432 354.424 146.922 354.424 147.455C355.103 147.641 355.561 147.286 356.001 146.945C357.198 146.017 358.019 144.771 358.609 143.423C359.083 142.346 359.368 141.166 359.593 140.006C359.958 138.121 359.371 137.073 357.665 136.209C356.223 135.48 354.692 135.052 353.108 134.787C351.392 134.499 349.771 134.876 348.188 135.49C347.734 135.665 347.286 135.99 346.898 135.221C348.764 133.157 347.969 130.983 346.468 129.313C344.576 127.212 342.289 128.116 340.278 129.455C340.092 129.342 339.969 129.299 339.893 129.213C339.817 129.127 339.787 129.001 339.532 128.623C339.827 128.484 340.155 128.388 340.413 128.196C343.131 126.175 344.231 123.398 344.231 120.084C344.231 117.953 343.389 116.23 341.991 114.663C339.346 111.697 336.218 109.662 332.149 109.53C329.955 109.46 327.844 110.05 325.922 111.143C325.478 111.395 325.137 111.846 324.792 112.24C324.338 112.754 323.964 113.354 323.275 113.536C322.807 113.317 322.847 113.032 323.059 112.711C323.573 111.929 324.09 111.147 324.604 110.365C325.329 109.261 325.528 108.025 325.561 106.729C325.608 104.96 324.776 103.797 323.208 103.051C320.309 101.676 317.502 101.858 314.745 103.442C314.45 103.611 314.102 103.687 313.642 103.856C313.605 103.409 313.509 103.127 313.572 102.886C313.718 102.332 313.917 101.792 314.135 101.262C315.355 98.2827 313.973 95.8206 311.123 94.8066C309.32 94.1637 307.471 94.1803 305.689 94.8165C304.257 95.3268 303.097 96.1884 302.849 97.8917C302.71 98.846 302.441 99.2105 301.851 99.7938C301.242 99.5651 301.45 99.0979 301.527 98.6671C301.851 96.8512 301.536 95.0684 301.205 93.2988C300.821 91.2542 299.373 89.8724 298.004 88.4574C295.389 85.7534 292.175 84.4909 288.437 84.3285C286.263 84.2324 284.1 84.0766 281.939 84.4445C281.296 84.5538 280.627 84.6632 280.043 84.9316C277.021 86.3267 274.377 88.2056 272.432 90.9692C271.03 92.9575 270.384 95.2374 269.83 97.5537C269.287 99.8269 269.416 102.107 269.794 104.387C269.877 104.884 270.102 105.437 269.433 105.855C269.29 105.709 269.098 105.593 269.032 105.43C268.644 104.496 267.865 104.045 266.957 103.876C264.204 103.363 261.659 103.76 259.515 105.749C258.461 106.729 257.984 107.969 257.868 109.351C257.749 110.789 257.855 112.224 258.312 113.602C258.524 114.242 258.507 114.726 257.686 115.004C257.238 114.775 256.735 114.517 256.231 114.265C253.424 112.876 250.591 113.098 247.768 114.185C246.028 114.855 244.494 115.859 243.108 117.111C241.329 118.729 240.61 120.81 240.398 123.123C240.351 123.61 240.368 124.107 240.388 124.597C240.451 126.214 240.925 127.656 242.207 128.743C242.641 129.111 243.112 129.475 242.963 130.287C242.691 130.4 242.373 130.535 241.929 130.724L241.922 130.728Z" fill="#485C70"/>
<path fill-rule="evenodd" clip-rule="evenodd" d="M245.024 135.692C249.332 146.296 261.924 140 270.208 138.674C266.957 147.247 273.201 156.343 280.938 160.088C280.471 160.512 279.947 160.886 279.348 161.214C277.316 162.321 275.225 163.05 272.906 162.901C271.766 162.828 270.646 162.493 269.506 162.417C266.659 162.228 264.356 160.909 262.262 159.107C259.366 156.615 258.146 153.483 258.653 149.682C258.763 148.854 259.031 148.208 259.81 147.794C260.274 147.548 260.694 147.197 261.089 146.843C261.48 146.488 261.586 146.087 260.913 145.676C260.585 145.865 260.194 146.057 259.836 146.306C258.381 147.313 256.824 148.006 255.011 147.77C253.311 147.548 251.605 147.333 249.935 146.955C249.166 146.783 248.447 146.286 247.764 145.842C247.045 145.375 246.396 144.801 245.723 144.264C244.48 143.28 243.466 142.134 242.976 140.573C242.866 140.225 242.578 139.933 242.31 139.519C241.78 139.887 241.379 140.149 240.994 140.434C239.486 141.564 237.833 142.18 235.934 141.789C234.267 141.444 232.76 140.692 231.394 139.691C230.987 139.393 230.672 138.906 230.44 138.445C229.36 136.315 229.164 134.118 229.757 131.914C233.701 135.453 239.52 136.603 245.027 135.685L245.024 135.692Z" fill="#CEF6FF"/>
<path fill-rule="evenodd" clip-rule="evenodd" d="M302.587 98.8261C302.703 98.5776 302.782 98.2859 302.839 97.8916C303.087 96.1883 304.247 95.3268 305.679 94.8164C307.461 94.1802 309.311 94.1669 311.113 94.8065C312.101 95.1578 312.906 95.688 313.496 96.3474C310.454 96.3905 307.448 97.0002 304.675 98.2462C303.979 98.4781 303.286 98.7068 302.59 98.8261H302.587Z" fill="#CEF6FF"/>
<path fill-rule="evenodd" clip-rule="evenodd" d="M229.754 131.921C233.697 135.46 239.516 136.61 245.024 135.692C249.332 146.296 261.924 139.999 270.208 138.674C266.957 147.247 273.201 156.343 280.938 160.087C281.806 159.295 282.456 158.335 282.893 157.161C283.215 156.303 283.526 155.438 283.861 154.583C283.944 154.371 284.027 154.156 284.116 153.944C284.365 153.341 284.666 152.751 285.011 152.197C285.18 151.929 285.505 151.76 285.79 151.521C286.32 152.108 286.101 152.552 285.925 153.013C285.644 153.755 285.385 154.504 285.114 155.253C288.951 156.843 294.124 155.259 295.396 150.935C299.459 152.459 305.467 153.977 309.248 151.621C308.432 150.309 308.23 148.761 308.297 147.137C308.323 146.485 308.582 145.961 309.427 145.679C309.556 145.984 309.735 146.243 309.771 146.518C309.837 147.045 309.818 147.581 309.847 148.112C309.9 149.029 310.132 149.845 310.537 150.564C310.964 151.326 311.577 151.982 312.376 152.529C314.367 153.894 316.518 154.852 318.96 155.027C319.043 155.034 319.129 155.034 319.202 155.061C321.025 155.67 322.841 155.375 324.647 155.077C324.855 155.044 325.064 155.007 325.27 154.974C328.056 154.534 329.813 152.681 331.234 150.444C331.433 150.133 331.377 149.659 331.446 149.208C333.163 148.068 332.987 146.259 332.954 144.503C332.944 143.949 332.901 143.399 332.875 142.869C333.955 142.713 334.15 142.79 334.329 143.628C334.528 144.539 334.598 145.451 334.495 146.352C337.116 145.55 339.038 143.27 340.463 140.99C342.12 144.304 346.097 146.624 349.742 145.298C352.061 144.635 352.393 141.322 354.05 139.002C354.05 139.665 354.381 140.659 354.712 140.99C356.266 141.587 357.777 141.666 359.262 141.448C359.385 140.967 359.494 140.48 359.587 139.996C359.878 138.482 359.557 137.504 358.533 136.732C358.284 136.543 357.993 136.368 357.662 136.199C356.22 135.47 354.689 135.042 353.105 134.777C351.389 134.489 349.768 134.867 348.184 135.48C347.73 135.655 347.283 135.98 346.895 135.211C348.761 133.147 347.965 130.973 346.464 129.303C344.572 127.202 342.286 128.106 340.274 129.445C340.089 129.333 339.966 129.289 339.89 129.203C339.814 129.117 339.784 128.991 339.529 128.613C339.658 128.554 339.794 128.497 339.926 128.444C341.348 121.012 337.355 112.999 330.8 109.569C329.09 109.725 327.447 110.269 325.922 111.137C325.478 111.389 325.137 111.839 324.792 112.234C324.338 112.747 323.964 113.347 323.275 113.529C322.807 113.311 322.847 113.026 323.059 112.704C323.573 111.922 324.09 111.14 324.604 110.358C325.097 109.606 325.342 108.791 325.465 107.942C325.521 107.545 325.551 107.137 325.561 106.726C325.608 104.957 324.776 103.793 323.208 103.048C320.309 101.673 317.502 101.855 314.745 103.439C314.45 103.608 314.102 103.684 313.642 103.853C313.605 103.406 313.509 103.124 313.572 102.882C313.718 102.329 313.917 101.789 314.135 101.258C314.934 99.3099 314.613 97.5901 313.506 96.3441C310.464 96.3872 307.458 96.9969 304.685 98.2429C303.989 98.4749 303.296 98.7035 302.6 98.8228C302.438 99.1774 302.203 99.4491 301.855 99.7937C301.245 99.5651 301.454 99.0978 301.53 98.6671C301.855 96.8511 301.54 95.0683 301.208 93.2988C300.824 91.2542 299.376 89.8724 298.007 88.4574C295.393 85.7534 292.178 84.4908 288.441 84.3285C286.267 84.2324 284.103 84.0766 281.942 84.4444C281.299 84.5538 280.63 84.6631 280.047 84.9315C277.025 86.3266 274.38 88.2055 272.435 90.9692C271.033 92.9575 270.387 95.2373 269.834 97.5536C269.29 99.8269 269.42 102.107 269.797 104.387C269.88 104.884 270.106 105.437 269.436 105.855C269.294 105.709 269.101 105.593 269.035 105.43C268.647 104.496 267.869 104.045 266.961 103.876C264.207 103.363 261.662 103.76 259.518 105.749C258.464 106.729 257.987 107.969 257.871 109.351C257.752 110.789 257.858 112.224 258.315 113.602C258.527 114.242 258.511 114.726 257.689 115.004C257.242 114.775 256.738 114.517 256.234 114.265C253.427 112.876 250.594 113.098 247.771 114.185C246.031 114.855 244.497 115.859 243.112 117.111C241.332 118.729 240.613 120.81 240.401 123.123C240.355 123.61 240.371 124.107 240.391 124.597C240.454 126.214 240.928 127.656 242.21 128.743C242.644 129.111 243.115 129.475 242.966 130.287C242.694 130.4 242.376 130.535 241.932 130.724C240.991 129.538 240.083 128.395 239.052 127.096C238.88 127.053 238.486 126.963 238.101 126.844C236 126.191 234.055 126.529 232.243 127.735C231.119 128.481 230.576 129.651 230.122 130.83C229.983 131.195 229.867 131.556 229.771 131.921H229.754ZM332.325 139.463C332.474 139.224 332.745 138.966 333.01 138.909C333.531 138.8 333.862 139.065 333.872 139.655C333.557 140.145 333.117 140.288 332.616 140.039C332.45 139.956 332.258 139.559 332.321 139.459L332.325 139.463ZM317.916 115.889C318.493 114.732 319.308 114.331 320.335 114.762C320.05 115.66 319.769 115.928 318.95 116.184C318.533 116.313 318.148 116.376 317.916 115.885V115.889ZM314.825 116.25C315.113 115.037 315.739 114.586 316.846 114.802C317.167 115.421 316.776 115.796 316.319 116.078C315.868 116.359 315.381 116.78 314.825 116.25ZM312.78 114.878C313.208 114.822 313.453 115.077 313.486 115.514C313.088 115.994 312.612 116.084 312.058 115.786C312.001 115.256 312.28 114.944 312.78 114.878ZM310.646 140.149C309.91 141.636 309.774 141.736 308.601 141.646C308.489 140.732 308.896 139.986 309.645 139.671C310.175 139.446 310.484 139.658 310.649 140.149H310.646ZM309.354 142.316C309.804 141.925 310.222 141.938 310.666 142.455C310.209 144.046 309.798 144.453 308.621 144.566C308.23 143.837 308.475 143.081 309.357 142.316H309.354ZM272.74 108.757C273.038 108.701 273.406 108.632 273.814 108.559C274.019 108.966 274.175 109.278 274.403 109.728C274.009 110 273.661 110.239 273.254 110.52C272.826 109.931 272.402 109.536 272.743 108.761L272.74 108.757ZM265.089 121.767C265.347 121.376 265.798 121.423 266.427 121.913C265.993 122.665 265.639 122.861 265.248 122.596C264.933 122.38 264.883 122.075 265.089 121.764V121.767ZM263.266 118.139C263.66 118.169 264.021 118.195 264.343 118.222C264.883 120.054 264.691 120.584 263.498 120.664C263.067 119.902 263.021 119.096 263.266 118.139ZM260.224 116.956C261.357 116.492 261.828 116.899 262.03 118.586C261.752 118.692 261.447 118.808 261.089 118.944C260.612 118.278 260.151 117.734 260.224 116.956Z" fill="white"/>
<path fill-rule="evenodd" clip-rule="evenodd" d="M295.393 150.935C299.455 152.459 305.463 153.977 309.244 151.621C309.519 152.061 309.864 152.476 310.291 152.857C311.146 153.619 311.156 154.451 310.905 155.412C310.586 156.621 309.768 157.38 308.661 157.857C306.839 158.643 304.927 158.808 303.001 158.45C301.073 158.093 299.618 157.052 298.846 155.176C298.713 154.852 298.504 154.56 298.352 154.288C297.388 154.262 297.215 154.802 297.149 155.475C296.887 158.109 295.34 159.739 292.937 160.541C291.324 161.082 289.65 161.062 287.98 160.555C286.827 160.207 285.932 159.584 285.206 158.636C284.643 157.897 284.385 157.155 284.742 156.24C284.872 155.912 284.991 155.584 285.114 155.253C288.951 156.843 294.124 155.259 295.396 150.935H295.393Z" fill="#CEF6FF"/>
<path fill-rule="evenodd" clip-rule="evenodd" d="M310.666 142.452C310.225 141.935 309.804 141.922 309.354 142.313C308.472 143.078 308.227 143.834 308.618 144.563C309.798 144.45 310.205 144.042 310.663 142.452H310.666Z" fill="#485C70"/>
<path fill-rule="evenodd" clip-rule="evenodd" d="M263.266 118.139C263.021 119.096 263.067 119.902 263.498 120.664C264.691 120.584 264.88 120.054 264.343 118.222C264.022 118.198 263.66 118.168 263.266 118.139Z" fill="#485C70"/>
<path fill-rule="evenodd" clip-rule="evenodd" d="M308.601 141.647C309.778 141.736 309.91 141.637 310.646 140.149C310.48 139.662 310.172 139.45 309.642 139.672C308.896 139.986 308.485 140.729 308.598 141.647H308.601Z" fill="#485C70"/>
<path fill-rule="evenodd" clip-rule="evenodd" d="M261.092 118.944C261.447 118.808 261.755 118.692 262.033 118.586C261.831 116.903 261.361 116.492 260.227 116.956C260.158 117.735 260.615 118.278 261.092 118.944Z" fill="#485C70"/>
<path fill-rule="evenodd" clip-rule="evenodd" d="M274.403 109.725C274.178 109.275 274.019 108.963 273.814 108.555C273.406 108.632 273.038 108.701 272.74 108.754C272.402 109.533 272.823 109.924 273.25 110.514C273.658 110.232 274.006 109.99 274.4 109.722L274.403 109.725Z" fill="#485C70"/>
<path fill-rule="evenodd" clip-rule="evenodd" d="M266.427 121.913C265.798 121.423 265.347 121.376 265.089 121.767C264.883 122.079 264.933 122.384 265.248 122.599C265.639 122.864 265.993 122.665 266.427 121.916V121.913Z" fill="#485C70"/>
<path fill-rule="evenodd" clip-rule="evenodd" d="M46.7821 41.1313C46.3789 42.4589 45.4984 43.3229 44.2421 43.8687C43.2026 44.3213 42.1218 44.6121 40.9999 44.667C38.9016 44.7712 36.9321 44.4256 35.4098 42.7853C35.3467 42.7167 35.2424 42.6893 35.2369 42.6865C34.65 43.3832 34.1562 44.1184 33.5199 44.6971C31.6903 46.3621 29.4904 46.8339 27.0821 46.5239C25.6064 46.3347 24.3556 45.7504 23.4531 44.5188C23.3187 44.335 23.1459 44.1787 22.9073 43.9126C22.1118 45.3938 20.8308 46.1975 19.4648 46.9052C17.9727 47.676 16.4421 48.1889 14.7222 48.2685C12.7116 48.3645 10.8245 47.8214 8.90712 47.4401C7.12144 47.0835 5.72801 45.937 4.40315 44.7712C1.95642 42.618 0.818087 39.8969 1.10061 36.6163C1.1253 36.331 1.1445 36.0458 1.17193 35.6782C-4.48683 36.2789 -8.76039 34.2519 -11.7228 29.5065C-12.0849 29.693 -12.4058 29.8823 -12.7459 30.0304C-14.1531 30.6586 -15.5877 31.2538 -17.1512 30.6668C-18.2895 30.2389 -19.4114 29.7479 -20.4976 29.1993C-21.2711 28.8125 -21.8032 28.1405 -22.1681 27.3396C-23.5615 24.2921 -23.1254 21.3955 -21.4494 18.6059C-21.3122 18.3783 -21.1093 18.1808 -20.909 17.9997C-19.266 16.4993 -17.3322 15.8602 -15.1131 16.0796C-14.7511 16.1153 -14.3862 16.1372 -14.0351 16.1619C-13.9885 16.0824 -13.9282 16.0275 -13.9254 15.9699C-13.9199 15.734 -13.9419 15.4954 -13.9391 15.2595C-13.9172 13.3202 -13.5414 11.4907 -12.34 9.89973C-11.0343 8.1744 -9.32544 6.97023 -7.36422 6.1391C-5.03817 5.15163 -2.64904 4.61401 -0.147446 5.54114C0.0582771 5.61794 0.302404 5.58228 0.626076 5.60697C0.604132 4.75116 0.557505 3.95021 0.568476 3.14651C0.587677 1.77503 0.985403 0.516008 1.99482 -0.446777C3.65981 -2.0377 5.63749 -2.899 7.97725 -2.79751C8.74803 -2.7646 9.51606 -2.68505 10.3966 -2.61647C10.3911 -2.94289 10.3828 -3.2693 10.3801 -3.59297C10.3472 -7.04912 11.2304 -10.2365 13.2191 -13.0809C14.5906 -15.0422 16.4668 -16.4219 18.5185 -17.5986C19.8379 -18.3557 21.2505 -18.7315 22.7619 -18.8933C24.6683 -19.0963 26.5554 -18.9783 28.4453 -18.8C30.8345 -18.5751 33.0206 -17.7961 34.8255 -16.1695C35.6539 -15.4234 36.378 -14.5621 37.1708 -13.7776C38.1884 -12.771 38.5587 -11.479 38.833 -10.1377C38.8988 -9.81679 38.9372 -9.49037 39.0003 -9.07344C39.2828 -9.21333 39.4666 -9.28465 39.6285 -9.38888C41.6747 -10.7055 43.8828 -10.9304 46.1705 -10.2447C48.8092 -9.45471 50.3864 -7.02718 49.5635 -4.3281C49.4977 -4.11963 49.5004 -3.88922 49.4593 -3.5628C49.953 -3.69172 50.3398 -3.78773 50.7265 -3.89196C52.7481 -4.43782 54.6874 -4.24032 56.5499 -3.27753C58.0503 -2.50127 58.8348 -1.29985 58.7772 0.40354C58.758 0.976822 58.662 1.54736 58.6044 2.12065C58.5824 2.33734 58.5714 2.55404 58.544 2.89965C59.1612 2.72684 59.644 2.57872 60.1295 2.45529C63.3415 1.64062 66.4054 1.99447 69.2142 3.78563C70.6186 4.68259 71.7953 5.86481 72.8514 7.16772C73.7374 8.26217 74.2503 9.48553 74.3079 10.8872C74.382 12.6729 74.2256 14.4119 73.2491 15.9864C73.0297 16.3402 72.7609 16.7133 72.8486 17.2207C73.1778 17.2783 73.4795 17.3112 73.7703 17.3798C75.2762 17.7474 76.4749 18.4743 76.8781 20.1009C77.1112 21.0444 77.3307 21.9908 77.5693 22.9865C77.6955 22.9837 77.9012 23.0084 78.096 22.9673C80.6963 22.4324 83.0662 23.1428 85.3402 24.3278C86.377 24.8681 86.9942 25.7322 87.0381 26.9199C87.0573 27.4575 87.0079 28.0116 86.8954 28.5355C86.5251 30.2416 85.8805 31.8243 84.8217 33.2452C84.0427 34.2903 83.1156 35.0802 81.8566 35.4341C81.3409 35.5795 80.9706 35.8538 80.6524 36.2926C79.9913 37.2033 79.0862 37.7876 77.978 38.0125C75.0924 38.5967 72.3988 38.0811 69.8862 36.5697C69.5735 36.3804 69.2663 36.1774 69.0524 36.0403C68.0978 36.4545 67.2886 36.9318 66.4164 37.1512C65.5194 37.3789 64.5594 37.3569 63.4841 37.4557C63.3717 37.5983 63.1687 37.8671 62.9547 38.1277C61.8219 39.5047 60.593 40.8323 58.8293 41.3123C57.2713 41.7347 55.6392 41.8801 54.0373 42.1462C53.9715 42.1571 53.9002 42.1462 53.8343 42.1297C51.6838 41.6936 49.4318 41.6469 47.4679 40.4839C47.3856 40.4373 47.2731 40.4428 47.0702 40.4071C46.9549 40.6841 46.848 40.8954 46.7794 41.1148L46.7821 41.1313ZM-11.4759 20.5068C-12.2549 19.5248 -13.0065 18.5785 -13.8596 17.5033C-14.0022 17.4676 -14.3286 17.3935 -14.6468 17.2948C-16.3859 16.7544 -17.996 17.0342 -19.4964 18.0326C-20.4263 18.6498 -20.8761 19.6181 -21.2519 20.5946C-22.0693 22.7204 -22.0172 24.8489 -20.9776 26.9034C-20.7856 27.2847 -20.5223 27.6879 -20.1876 27.9348C-19.0603 28.7632 -17.8095 29.3858 -16.4297 29.6711C-14.8608 29.9948 -13.4893 29.4846 -12.2412 28.5492C-11.923 28.3106 -11.5911 28.0939 -11.1523 27.7922C-10.9301 28.135 -10.6914 28.3764 -10.6009 28.6644C-10.1977 29.9536 -9.35835 30.9027 -8.32699 31.7201C-7.77017 32.1617 -7.22981 32.6363 -6.63733 33.0258C-6.07228 33.3933 -5.47979 33.8048 -4.84067 33.9474C-3.45821 34.2574 -2.04558 34.4384 -0.638432 34.6222C0.861977 34.8169 2.15117 34.2409 3.35534 33.4098C3.65158 33.204 3.978 33.045 4.24681 32.8886C4.80089 33.2287 4.71586 33.5606 4.39219 33.8541C4.06577 34.1476 3.72015 34.4384 3.33339 34.6414C2.68879 34.9843 2.46661 35.5219 2.3761 36.2049C1.95916 39.3538 2.96857 41.9459 5.36319 44.0059C7.09401 45.4981 9.00313 46.5898 11.3593 46.7461C12.3029 46.8092 13.2301 47.0835 14.1736 47.1466C16.0937 47.27 17.8245 46.6666 19.506 45.7504C20.9268 44.9769 21.8841 43.8852 22.441 42.3958C22.7729 41.507 23.0911 40.6101 23.4531 39.7323C23.6588 39.2331 23.9085 38.7449 24.1937 38.2868C24.3336 38.0646 24.6024 37.9247 24.8383 37.7272C25.2772 38.2127 25.0962 38.5803 24.9508 38.9616C24.6161 39.8475 24.3172 40.75 23.9715 41.6332C23.6753 42.3903 23.892 43.0047 24.3556 43.6164C24.9563 44.4009 25.6969 44.9166 26.6514 45.2046C28.0339 45.6242 29.4191 45.6407 30.7549 45.1936C32.7436 44.5298 34.0246 43.1803 34.2412 40.9996C34.2961 40.4428 34.4387 39.9957 35.2369 40.0176C35.3631 40.2425 35.5359 40.4839 35.6457 40.7527C36.2848 42.3052 37.4889 43.1665 39.0853 43.4628C40.6818 43.759 42.2617 43.6219 43.7704 42.9718C44.6865 42.5768 45.364 41.9487 45.6273 40.9475C45.8358 40.1548 45.8276 39.4635 45.1199 38.8326C43.7155 37.5791 43.3946 35.8922 43.4659 34.0983C43.4878 33.5579 43.7018 33.1245 44.4012 32.8914C44.5082 33.1437 44.6563 33.3577 44.6865 33.5853C44.7414 34.0215 44.7249 34.4658 44.7496 34.9047C44.8374 36.4709 45.556 37.6806 46.8425 38.5611C48.491 39.6912 50.2712 40.4839 52.2928 40.6293C52.3614 40.6348 52.4327 40.6348 52.493 40.6567C54.1745 41.2218 55.8504 40.8515 57.5182 40.5882C59.825 40.2233 61.2788 38.69 62.4555 36.8385C62.6201 36.5807 62.5734 36.1884 62.6311 35.8154C64.0519 34.8718 63.9065 33.3741 63.8791 31.9203C63.8709 31.4623 63.8352 31.0069 63.8133 30.5681C64.7075 30.4391 64.8693 30.5022 65.0174 31.1962C65.2808 32.4086 65.2725 33.6182 64.8337 34.8032C64.6828 35.2092 64.5374 35.6206 64.3509 36.139C65.3521 36.5066 66.2298 36.342 67.0198 35.8647C67.7906 35.4012 68.4846 34.8087 69.2279 34.2601C69.4007 34.3506 69.6064 34.3918 69.6833 34.5097C70.657 36.065 72.2424 36.5862 73.8882 36.9043C75.0759 37.1347 76.2911 37.2911 77.5254 37.0415C79.4345 36.6575 80.2931 35.0748 80.422 33.3494C80.4467 33.0203 80.422 32.6884 80.422 32.3784C81.3381 32.1974 81.5795 32.3428 81.6481 33.1053C81.6838 33.5058 81.6481 33.9117 81.6481 34.3534C82.2104 34.507 82.589 34.2135 82.9538 33.9309C83.944 33.1629 84.6242 32.1315 85.1125 31.0152C85.5047 30.1237 85.7406 29.1472 85.9271 28.1871C86.2289 26.6264 85.7434 25.7596 84.3307 25.0437C83.1375 24.4402 81.8703 24.0864 80.5591 23.867C79.1383 23.6283 77.797 23.941 76.4858 24.4485C76.11 24.5938 75.7397 24.8627 75.4188 24.2263C76.9631 22.5174 76.3048 20.718 75.0622 19.3356C73.496 17.5965 71.6033 18.3453 69.9383 19.4535C69.7847 19.3602 69.6833 19.3246 69.6202 19.2533C69.5571 19.182 69.5324 19.0777 69.3212 18.765C69.5653 18.6498 69.8368 18.5703 70.0508 18.4112C72.3 16.738 73.2107 14.4394 73.2107 11.6964C73.2107 9.93264 72.514 8.50629 71.3565 7.20886C69.1676 4.7539 66.5782 3.06971 63.2098 2.96C61.394 2.90239 59.6467 3.39064 58.0558 4.29582C57.6882 4.50429 57.4057 4.87733 57.1204 5.20375C56.7446 5.62891 56.4347 6.12539 55.8641 6.27625C55.4774 6.09522 55.5103 5.85932 55.6858 5.59325C56.111 4.94591 56.5389 4.29856 56.9641 3.65122C57.5648 2.73781 57.7294 1.71469 57.7568 0.642185C57.7952 -0.822565 57.1067 -1.78535 55.8093 -2.40252C53.4092 -3.54086 51.0859 -3.38999 48.8037 -2.07885C48.5596 -1.93896 48.2716 -1.87587 47.8903 -1.73598C47.8601 -2.10628 47.7806 -2.33943 47.8327 -2.53967C47.9534 -2.99775 48.118 -3.44485 48.299 -3.88373C49.3084 -6.34966 48.1646 -8.3877 45.8056 -9.22705C44.3135 -9.75918 42.7829 -9.74547 41.3072 -9.21882C40.1222 -8.7964 39.1621 -8.08323 38.9564 -6.67334C38.8412 -5.88336 38.619 -5.58164 38.1308 -5.09887C37.6261 -5.28814 37.7989 -5.6749 37.862 -6.03148C38.1308 -7.53463 37.8702 -9.01036 37.5959 -10.4751C37.2777 -12.1675 36.079 -13.3113 34.9462 -14.4826C32.782 -16.7209 30.1213 -17.7659 27.0272 -17.9003C25.2278 -17.9799 23.4367 -18.1088 21.6483 -17.8043C21.1161 -17.7138 20.562 -17.6233 20.0793 -17.4011C17.5777 -16.2463 15.3888 -14.6911 13.7787 -12.4034C12.6184 -10.7576 12.0835 -8.87046 11.6254 -6.95312C11.1756 -5.07144 11.2825 -3.18427 11.5952 -1.2971C11.6638 -0.885654 11.8503 -0.42758 11.2963 -0.0819645C11.1783 -0.202656 11.0192 -0.298658 10.9644 -0.433065C10.6434 -1.20658 9.99883 -1.57963 9.24725 -1.71952C6.96783 -2.14468 4.86123 -1.81553 3.08653 -0.169743C2.21426 0.642179 1.81927 1.66805 1.72327 2.81187C1.62452 4.00232 1.71229 5.19004 2.09082 6.33112C2.26637 6.86051 2.25266 7.26098 1.57241 7.49139C1.2021 7.30212 0.785168 7.08818 0.368237 6.87971C-1.95506 5.7304 -4.30031 5.91419 -6.63733 6.81388C-8.07739 7.36796 -9.34739 8.19907 -10.494 9.23592C-11.9669 10.5745 -12.5622 12.2971 -12.7377 14.2117C-12.7761 14.6149 -12.7624 15.0263 -12.7459 15.4323C-12.6938 16.7709 -12.3016 17.9641 -11.24 18.8638C-10.8807 19.1682 -10.4912 19.47 -10.6146 20.142C-10.8396 20.2353 -11.1029 20.3477 -11.4704 20.5041L-11.4759 20.5068Z" fill="#485C70"/>
<path fill-rule="evenodd" clip-rule="evenodd" d="M-8.90854 24.6158C-5.34267 33.3933 5.08064 28.1816 11.9381 27.0844C9.24722 34.1805 14.415 41.71 20.8198 44.8095C20.4331 45.1606 19.9997 45.4706 19.5032 45.7422C17.8218 46.6583 16.0909 47.2618 14.1709 47.1383C13.2273 47.078 12.3002 46.801 11.3566 46.7379C9.00035 46.5815 7.09399 45.4898 5.36043 43.9976C2.96306 41.9349 1.95364 39.3428 2.37332 36.1966C2.46384 35.5109 2.68603 34.976 3.33062 34.6331C3.71464 34.4301 4.06299 34.1394 4.38941 33.8459C4.71308 33.5524 4.80086 33.2205 4.24403 32.8803C3.97248 33.0367 3.64881 33.1958 3.35256 33.4015C2.1484 34.2354 0.8592 34.8087 -0.641209 34.6139C-2.04836 34.4301 -3.46099 34.2518 -4.84345 33.9391C-5.47982 33.7965 -6.07504 33.385 -6.6401 33.0175C-7.23532 32.6307 -7.77295 32.1562 -8.32977 31.7118C-9.35839 30.8972 -10.1977 29.9481 -10.6037 28.6562C-10.6942 28.3682 -10.9329 28.1268 -11.155 27.7839C-11.5939 28.0884 -11.9258 28.3051 -12.244 28.541C-13.4921 29.4763 -14.8608 29.9865 -16.4325 29.6628C-17.8122 29.3776 -19.0603 28.7549 -20.1904 27.9265C-20.5278 27.6797 -20.7884 27.2764 -20.9804 26.8952C-21.8746 25.1314 -22.0364 23.3128 -21.5454 21.4888C-18.2813 24.4183 -13.4646 25.3701 -8.9058 24.6103L-8.90854 24.6158Z" fill="#D0F7FF"/>
<path fill-rule="evenodd" clip-rule="evenodd" d="M70.0892 29.0044C71.4607 31.7474 74.7523 33.6675 77.7696 32.5703C79.6897 32.0217 79.964 29.2787 81.3354 27.3586C81.3354 27.9072 81.6097 28.7301 81.884 29.0044C83.1705 29.4982 84.4213 29.564 85.6502 29.383C85.5048 29.9398 85.3347 30.4911 85.107 31.0095C84.6188 32.1259 83.9385 33.1573 82.9483 33.9253C82.5862 34.2079 82.205 34.5014 81.6427 34.3478C81.6427 33.9034 81.6756 33.4974 81.6427 33.0997C81.5768 32.3399 81.3354 32.1918 80.4165 32.3728C80.4165 32.6855 80.4385 33.0147 80.4165 33.3438C80.2904 35.0692 79.4291 36.6519 77.52 37.0359C76.2856 37.2827 75.0732 37.1291 73.8828 36.8987C72.237 36.5805 70.6515 36.0594 69.6778 34.5041C69.601 34.3834 69.3953 34.345 69.2225 34.2545C68.4791 34.8031 67.7851 35.3956 67.0144 35.8591C66.2244 36.3364 65.3466 36.501 64.3454 36.1334C64.532 35.615 64.6773 35.2036 64.8282 34.7976C64.9955 34.3505 65.097 33.9006 65.1491 33.4453C67.3188 32.7815 68.9098 30.8943 70.0892 29.0072V29.0044Z" fill="#D0F7FF"/>
<path fill-rule="evenodd" clip-rule="evenodd" d="M-21.5482 21.4943C-18.284 24.4238 -13.4674 25.3756 -8.90853 24.6158C-5.34266 33.3933 5.08065 28.1817 11.9381 27.0845C9.24723 34.1806 14.415 41.71 20.8199 44.8096C21.5385 44.154 22.0761 43.3586 22.4382 42.3876C22.7043 41.6771 22.9621 40.9612 23.2392 40.2535C23.3077 40.078 23.3763 39.8997 23.4504 39.7241C23.6561 39.2249 23.9057 38.7366 24.191 38.2786C24.3309 38.0564 24.5997 37.9165 24.8356 37.719C25.2744 38.2045 25.0934 38.5721 24.948 38.9533C24.7149 39.5678 24.5009 40.1877 24.276 40.8076C27.4524 42.1242 31.7342 40.8131 32.7875 37.2335C36.1503 38.4953 41.1234 39.7515 44.2531 37.8013C43.5783 36.7151 43.411 35.4341 43.4659 34.0901C43.4878 33.5497 43.7018 33.1163 44.4012 32.8831C44.5082 33.1355 44.6563 33.3494 44.6865 33.5771C44.7413 34.0133 44.7249 34.4576 44.7496 34.8965C44.7935 35.6563 44.9855 36.3311 45.3201 36.9263C45.674 37.5572 46.1814 38.1003 46.8425 38.5529C48.491 39.683 50.2712 40.4757 52.2928 40.6211C52.3613 40.6266 52.4327 40.6266 52.493 40.6485C54.0016 41.1532 55.5048 40.9091 56.9997 40.6622C57.1725 40.6348 57.3453 40.6046 57.5154 40.5772C59.8222 40.2124 61.276 38.679 62.4528 36.8275C62.6173 36.5697 62.5707 36.1775 62.6283 35.8044C64.0492 34.8608 63.9038 33.3632 63.8764 31.9094C63.8681 31.4513 63.8325 30.996 63.8105 30.5571C64.7047 30.4282 64.8666 30.4913 65.0147 31.1852C65.1793 31.9396 65.2369 32.6939 65.1518 33.44C67.3215 32.7762 68.9125 30.889 70.0919 29.0018C71.4634 31.7448 74.755 33.6649 77.7723 32.5677C79.6924 32.0191 79.9667 29.2761 81.3381 27.356C81.3381 27.9046 81.6124 28.7275 81.8867 29.0018C83.1732 29.4956 84.424 29.5614 85.6528 29.3804C85.7543 28.9826 85.8449 28.5794 85.9217 28.1789C86.163 26.9254 85.897 26.1162 85.0494 25.4771C84.8437 25.3208 84.6023 25.1754 84.328 25.0355C83.1348 24.432 81.8675 24.0782 80.5564 23.8588C79.1355 23.6201 77.7942 23.9328 76.4831 24.4403C76.1073 24.5856 75.737 24.8545 75.416 24.2181C76.9603 22.5092 76.302 20.7098 75.0595 19.3274C73.4932 17.5883 71.6006 18.3371 69.9356 19.4453C69.782 19.352 69.6805 19.3164 69.6174 19.2451C69.5543 19.1737 69.5296 19.0695 69.3184 18.7568C69.4254 18.7074 69.5379 18.6608 69.6476 18.6169C70.8243 12.4644 67.519 5.83191 62.0934 2.99293C60.678 3.12185 59.3175 3.5717 58.0558 4.29036C57.6882 4.49882 57.4057 4.87187 57.1204 5.19828C56.7446 5.62344 56.4347 6.11992 55.8641 6.27079C55.4774 6.08975 55.5103 5.85386 55.6858 5.58779C56.111 4.94044 56.5389 4.2931 56.9641 3.64576C57.3728 3.0231 57.5757 2.34833 57.6772 1.64612C57.7239 1.31697 57.7485 0.979586 57.7568 0.639456C57.7952 -0.825293 57.1067 -1.78808 55.8093 -2.40525C53.4091 -3.54358 51.0859 -3.39272 48.8037 -2.08158C48.5596 -1.94169 48.2716 -1.8786 47.8903 -1.73871C47.8601 -2.10901 47.7806 -2.34216 47.8327 -2.5424C47.9534 -3.00047 48.118 -3.44758 48.299 -3.88645C48.96 -5.49932 48.694 -6.92293 47.7778 -7.95429C45.2598 -7.91863 42.7719 -7.41392 40.476 -6.38256C39.9 -6.19056 39.3267 -6.00129 38.7507 -5.90254C38.6163 -5.60905 38.4215 -5.38412 38.1335 -5.09885C37.6288 -5.28812 37.8016 -5.67488 37.8647 -6.03146C38.1335 -7.53461 37.8729 -9.01034 37.5986 -10.4751C37.2805 -12.1675 36.0818 -13.3113 34.9489 -14.4826C32.7847 -16.7208 30.124 -17.7659 27.03 -17.9003C25.2306 -17.9799 23.4394 -18.1088 21.651 -17.8043C21.1188 -17.7138 20.5648 -17.6233 20.082 -17.4011C17.5804 -16.2463 15.3915 -14.691 13.7814 -12.4034C12.6211 -10.7576 12.0862 -8.87044 11.6281 -6.9531C11.1783 -5.07142 11.2853 -3.18425 11.598 -1.29708C11.6665 -0.885637 11.8531 -0.427563 11.299 -0.0819473C11.181 -0.202639 11.0219 -0.298643 10.9671 -0.433048C10.6462 -1.20657 10.0016 -1.57961 9.24998 -1.71951C6.97057 -2.14467 4.86396 -1.81551 3.08926 -0.169725C2.21699 0.642197 1.822 1.66807 1.726 2.81189C1.62725 4.00234 1.71502 5.19005 2.09356 6.33113C2.26911 6.86053 2.25539 7.261 1.57513 7.49141C1.20483 7.30214 0.787899 7.08819 0.370968 6.87973C-1.95233 5.73042 -4.29758 5.9142 -6.6346 6.8139C-8.07466 7.36798 -9.34466 8.19909 -10.4912 9.23594C-11.9642 10.5745 -12.5594 12.2971 -12.735 14.2117C-12.7734 14.6149 -12.7597 15.0264 -12.7432 15.4323C-12.6911 16.7709 -12.2988 17.9641 -11.2373 18.8638C-10.878 19.1683 -10.4885 19.47 -10.6119 20.142C-10.8368 20.2353 -11.1002 20.3477 -11.4677 20.5041C-12.2467 19.5221 -12.9983 18.5758 -13.8514 17.5005C-13.994 17.4649 -14.3204 17.3908 -14.6386 17.2921C-16.3776 16.7517 -17.9878 17.0315 -19.4882 18.0299C-20.4181 18.6471 -20.8679 19.6154 -21.2437 20.5919C-21.3589 20.8936 -21.4549 21.1926 -21.5344 21.4943H-21.5482ZM63.3552 27.7373C63.4786 27.5398 63.7035 27.3259 63.923 27.2792C64.3536 27.1887 64.6279 27.4082 64.6362 27.8964C64.3756 28.3024 64.0108 28.4203 63.5966 28.2146C63.4594 28.146 63.3003 27.8169 63.3524 27.7346L63.3552 27.7373ZM51.4287 8.22378C51.906 7.26649 52.5808 6.93459 53.4311 7.29117C53.1952 8.03452 52.9621 8.2567 52.2845 8.46791C51.9389 8.57489 51.6207 8.627 51.4287 8.22104V8.22378ZM48.8695 8.52277C49.1082 7.51884 49.6266 7.1458 50.5427 7.32409C50.8088 7.83702 50.4851 8.14698 50.1066 8.38014C49.7336 8.61329 49.3304 8.96164 48.8695 8.52277ZM47.1771 7.38718C47.531 7.34055 47.7339 7.55175 47.7614 7.91383C47.4322 8.31064 47.0381 8.38562 46.5791 8.13875C46.5325 7.69988 46.7629 7.44204 47.1771 7.38718ZM45.4106 28.3051C44.8017 29.5367 44.6892 29.619 43.7182 29.5449C43.625 28.7879 43.9623 28.1707 44.5823 27.9101C45.0211 27.7236 45.2762 27.8991 45.4134 28.3051H45.4106ZM44.3409 30.099C44.7139 29.7754 45.0595 29.7863 45.4271 30.2142C45.0486 31.5309 44.7084 31.8682 43.7347 31.9615C43.411 31.358 43.614 30.7327 44.3436 30.099H44.3409ZM14.0337 2.3209C14.2806 2.27427 14.5851 2.21667 14.9225 2.15632C15.0925 2.49371 15.2214 2.75155 15.4107 3.12459C15.0843 3.34952 14.7963 3.54701 14.4589 3.78016C14.105 3.29191 13.754 2.9655 14.0365 2.32364L14.0337 2.3209ZM7.7002 13.0898C7.91415 12.7662 8.2872 12.8046 8.80836 13.2105C8.44904 13.8332 8.15553 13.995 7.83186 13.7756C7.57128 13.5973 7.53014 13.3449 7.7002 13.0871V13.0898ZM6.19156 10.0863C6.51798 10.111 6.81696 10.1329 7.08303 10.1548C7.53014 11.6717 7.37104 12.1106 6.38357 12.1764C6.02698 11.5455 5.98858 10.879 6.19156 10.0863ZM3.67351 9.10702C4.61161 8.72301 5.00111 9.06039 5.16843 10.4566C4.93802 10.5443 4.68567 10.6403 4.38943 10.7528C3.99444 10.2015 3.61317 9.75162 3.67351 9.10702Z" fill="white"/>
<path fill-rule="evenodd" clip-rule="evenodd" d="M62.088 2.99565C62.4583 2.96273 62.8286 2.94627 63.2044 2.95724C66.5728 3.06696 69.1621 4.74841 71.351 7.20612C72.5086 8.50355 73.208 9.92989 73.2053 11.6936C73.2053 14.4339 72.2919 16.7352 70.0454 18.4084C69.9247 18.4989 69.7848 18.562 69.6449 18.6224C70.8216 12.4699 67.5163 5.83737 62.0907 2.99839L62.088 2.99565Z" fill="#D0F7FF"/>
<path fill-rule="evenodd" clip-rule="evenodd" d="M32.7848 37.2334C36.1476 38.4952 41.1207 39.7515 44.2504 37.8012C44.4781 38.166 44.7633 38.5089 45.1172 38.8243C45.8249 39.4552 45.8331 40.1437 45.6246 40.9392C45.3613 41.9403 44.6838 42.5685 43.7676 42.9635C42.259 43.6136 40.6763 43.7507 39.0826 43.4545C37.4862 43.1582 36.2821 42.2969 35.6429 40.7444C35.5332 40.4756 35.3604 40.2342 35.2342 40.0093C34.436 39.9873 34.2934 40.4345 34.2385 40.9913C34.0218 43.1719 32.7409 44.5215 30.7522 45.1853C29.4164 45.6324 28.0312 45.6159 26.6487 45.1963C25.6942 44.9083 24.9536 44.3926 24.3529 43.6081C23.8865 42.9964 23.6726 42.382 23.9688 41.6249C24.0758 41.3534 24.1746 41.0818 24.2761 40.8075C27.4524 42.1241 31.7342 40.813 32.7875 37.2334H32.7848Z" fill="#D0F7FF"/>
<path fill-rule="evenodd" clip-rule="evenodd" d="M45.4271 30.2115C45.0623 29.7836 44.7139 29.7727 44.3409 30.0963C43.6112 30.73 43.4083 31.3554 43.7319 31.9588C44.7084 31.8656 45.0458 31.5282 45.4243 30.2115H45.4271Z" fill="#485C70"/>
<path fill-rule="evenodd" clip-rule="evenodd" d="M6.1916 10.0862C5.98862 10.8789 6.02702 11.5454 6.38361 12.1763C7.37108 12.1105 7.52743 11.6716 7.08307 10.1548C6.817 10.1356 6.51802 10.1109 6.1916 10.0862Z" fill="#485C70"/>
<path fill-rule="evenodd" clip-rule="evenodd" d="M43.7183 29.5448C44.692 29.6189 44.8017 29.5366 45.4107 28.305C45.2735 27.9018 45.0184 27.7262 44.5795 27.91C43.9624 28.1706 43.6222 28.785 43.7155 29.5448H43.7183Z" fill="#485C70"/>
<path fill-rule="evenodd" clip-rule="evenodd" d="M53.4311 7.29386C52.5808 6.93727 51.9088 7.26643 51.4287 8.22647C51.618 8.63243 51.9362 8.58031 52.2846 8.47333C52.9648 8.26212 53.1952 8.03994 53.4311 7.29659V7.29386Z" fill="#485C70"/>
<path fill-rule="evenodd" clip-rule="evenodd" d="M4.39216 10.7528C4.68566 10.6404 4.94076 10.5444 5.17117 10.4566C5.00385 9.06316 4.61434 8.72304 3.67624 9.10706C3.61864 9.75165 3.99718 10.2015 4.39216 10.7528Z" fill="#485C70"/>
<path fill-rule="evenodd" clip-rule="evenodd" d="M50.54 7.32416C49.6266 7.14587 49.1054 7.51891 48.8668 8.52284C49.3276 8.96172 49.7281 8.61336 50.1039 8.38021C50.4824 8.14431 50.8061 7.8371 50.54 7.32416Z" fill="#485C70"/>
<path fill-rule="evenodd" clip-rule="evenodd" d="M15.4107 3.12183C15.2242 2.74879 15.0926 2.49095 14.9225 2.15356C14.5851 2.21665 14.2806 2.27426 14.0338 2.31814C13.754 2.96274 14.1023 3.28641 14.4562 3.77466C14.7936 3.54151 15.0816 3.34128 15.408 3.1191L15.4107 3.12183Z" fill="#485C70"/>
<path fill-rule="evenodd" clip-rule="evenodd" d="M64.6362 27.8992C64.628 27.411 64.3537 27.1888 63.923 27.2821C63.7036 27.3287 63.4787 27.5427 63.3552 27.7401C63.3031 27.8224 63.4622 28.1516 63.5994 28.2202C64.0135 28.4259 64.3756 28.3079 64.6389 27.902L64.6362 27.8992Z" fill="#485C70"/>
<path fill-rule="evenodd" clip-rule="evenodd" d="M8.80839 13.2105C8.28722 12.8045 7.91418 12.7661 7.70023 13.0898C7.53016 13.3476 7.5713 13.6 7.83188 13.7783C8.15555 13.9977 8.44906 13.8331 8.80839 13.2132V13.2105Z" fill="#485C70"/>
<path fill-rule="evenodd" clip-rule="evenodd" d="M47.7614 7.91391C47.7367 7.55184 47.5337 7.34064 47.1771 7.38727C46.7629 7.44213 46.5325 7.69722 46.5792 8.13884C47.0381 8.38571 47.4322 8.31073 47.7614 7.91391Z" fill="#485C70"/>
</g>
<defs>
<filter id="filter0_d_24_1219" x="0" y="0" width="314" height="440" filterUnits="userSpaceOnUse" color-interpolation-filters="sRGB">
<feFlood flood-opacity="0" result="BackgroundImageFix"/>
<feColorMatrix in="SourceAlpha" type="matrix" values="0 0 0 0 0 0 0 0 0 0 0 0 0 0 0 0 0 0 127 0" result="hardAlpha"/>
<feOffset dy="4"/>
<feGaussianBlur stdDeviation="2"/>
<feComposite in2="hardAlpha" operator="out"/>
<feColorMatrix type="matrix" values="0 0 0 0 0 0 0 0 0 0 0 0 0 0 0 0 0 0 0.5 0"/>
<feBlend mode="normal" in2="BackgroundImageFix" result="effect1_dropShadow_24_1219"/>
<feBlend mode="normal" in="SourceGraphic" in2="effect1_dropShadow_24_1219" result="shape"/>
</filter>
</defs>
</svg>
