<svg width="314" height="440" viewBox="0 0 314 440" fill="none" xmlns="http://www.w3.org/2000/svg">
<g filter="url(#filter0_d_24_5441)">
<rect x="4" width="306" height="432" rx="35" fill="#FFEFAE"/>
</g>
<g clip-path="url(#clip0_24_5441)">
<path d="M130.288 272.151C130.866 314.96 128.342 321.804 119.253 321.804C113.073 321.804 100.081 326.296 98.855 318.166C97.7022 310.525 96.246 291.572 97.3786 272.151C98.5799 251.56 110.165 247.109 119.249 247.109C128.334 247.109 130.005 251.527 130.284 272.151H130.288Z" fill="#313131"/>
<path d="M106.577 323.467C101.634 323.467 98.9723 321.755 98.4424 318.232C97.233 310.213 95.8416 291.314 96.962 272.127C98.2523 249.988 111.483 246.682 119.253 246.682C123.472 246.682 126.651 247.541 128.456 251.724C130.15 255.658 130.575 262.453 130.704 272.143C130.923 288.353 130.688 298.795 129.94 306C129.176 313.362 127.837 317.669 125.608 319.965C124.091 321.525 122.129 322.223 119.257 322.223C117.777 322.223 115.868 322.49 113.845 322.773C111.422 323.11 108.915 323.463 106.581 323.463L106.577 323.467ZM119.253 247.532C111.778 247.532 99.0492 250.735 97.7993 272.176C96.6829 291.301 98.0662 310.119 99.2716 318.105C99.7368 321.184 102.059 322.617 106.577 322.617C108.854 322.617 111.333 322.272 113.728 321.936C115.779 321.648 117.716 321.377 119.253 321.377C121.887 321.377 123.662 320.757 125.009 319.369C129.062 315.198 130.288 303.282 129.867 272.151C129.588 251.441 127.901 247.528 119.253 247.528V247.532Z" fill="#070202"/>
<path d="M114.723 255.564C114.412 258.836 92.3832 274.385 91.8452 278.269C90.1464 290.521 88.2048 316.922 84.0143 327.606C81.195 334.791 77.7528 329.043 71.2082 329.031C62.2487 329.014 45.8912 333.486 46.4696 327.15C48.5002 305.04 54.705 280.606 56.056 266.407C58.0057 245.874 62.9728 240.466 72.0172 241.353C81.0615 242.24 116.673 235.03 114.723 255.564Z" fill="#313131"/>
<path d="M80.3456 331.646C79.306 331.646 78.2018 331.235 76.9276 330.763C75.2895 330.156 73.4369 329.466 71.2082 329.462H71.1637C68.5871 329.462 65.3188 329.839 62.1557 330.209C58.8915 330.587 55.514 330.981 52.7594 330.981C49.6206 330.981 47.7033 330.48 46.7325 329.396C46.1946 328.797 45.964 328.029 46.0489 327.117C47.1856 314.726 49.6368 301.583 51.8008 289.983C53.5401 280.659 55.0407 272.607 55.6353 266.374C56.5454 256.799 58.0906 250.464 60.4973 246.44C62.7827 242.622 65.877 240.844 70.2414 240.844C70.8158 240.844 71.4225 240.877 72.0495 240.938C72.5834 240.992 73.2387 241.016 74.0436 241.016C75.7627 241.016 77.9065 240.901 80.386 240.766C83.5491 240.598 87.1329 240.405 90.7895 240.405C101.982 240.405 108.874 242.281 112.474 246.305C114.598 248.678 115.488 251.807 115.128 255.609C114.974 257.247 110.885 260.836 104.174 266.551C98.7013 271.211 92.5005 276.491 92.2457 278.335C91.8209 281.39 91.372 285.426 90.8987 289.692C89.4102 303.061 87.5536 319.698 84.3905 327.766C83.3388 330.451 82.0849 331.646 80.3334 331.646H80.3456ZM71.1677 328.612H71.2122C73.5866 328.612 75.516 329.334 77.2189 329.967C78.4202 330.414 79.4557 330.8 80.3496 330.8C81.3244 330.8 82.4732 330.402 83.63 327.454C86.7527 319.493 88.5972 302.917 90.0816 289.597C90.5589 285.323 91.0079 281.283 91.4326 278.216C91.7117 276.2 96.4523 272.032 103.652 265.898C108.587 261.698 114.177 256.935 114.311 255.527C114.646 251.971 113.829 249.06 111.871 246.875C108.441 243.041 101.747 241.254 90.8057 241.254C87.1693 241.254 83.5977 241.447 80.4467 241.616C77.951 241.751 75.7991 241.866 74.0598 241.866C73.2266 241.866 72.547 241.837 71.9848 241.784C71.3861 241.727 70.8037 241.694 70.2576 241.694C63.4015 241.694 58.4344 245.906 56.4807 266.457C55.8861 272.73 54.3814 280.798 52.6381 290.144C50.4781 301.722 48.0309 314.845 46.8984 327.199C46.8377 327.877 46.9914 328.407 47.3676 328.829C48.1563 329.708 49.9239 330.135 52.7756 330.135C55.4816 330.135 58.8348 329.745 62.0748 329.371C65.2581 329.002 68.5547 328.62 71.1758 328.62L71.1677 328.612Z" fill="#070202"/>
<path d="M129.972 173.027C142.52 186.202 154.65 208.945 148.514 214.964C142.378 220.984 127.234 215.182 114.687 202.006C102.139 188.83 96.9458 173.269 103.082 167.25C109.218 161.23 117.425 159.851 129.968 173.027H129.972Z" fill="#313131"/>
<path d="M141.86 217.769C134.118 217.769 123.335 211.696 114.387 202.302C108.28 195.884 103.697 188.703 101.484 182.08C99.2393 175.35 99.7004 169.976 102.791 166.942C105.893 163.895 109.105 162.417 112.6 162.417C117.882 162.417 123.662 165.792 130.272 172.731C136.517 179.292 142.783 188.399 146.625 196.496C150.99 205.701 151.766 212.369 148.805 215.272C147.115 216.931 144.781 217.769 141.86 217.769ZM112.604 163.267C109.335 163.267 106.318 164.671 103.377 167.553C97.415 173.4 102.629 188.723 114.994 201.71C123.792 210.949 134.337 216.919 141.864 216.919C144.558 216.919 146.702 216.159 148.227 214.66C150.868 212.07 150.011 205.582 145.873 196.865C142.067 188.843 135.862 179.822 129.673 173.322C123.23 166.556 117.648 163.267 112.604 163.267Z" fill="#070202"/>
<path d="M159.298 173.17C159.298 168.017 154.691 163.842 147.167 163.842C139.644 163.842 133.544 172.899 133.544 178.052C133.544 183.205 138.151 182.499 145.675 182.499C153.198 182.499 159.298 178.323 159.298 173.17Z" fill="#F5E2D6"/>
<path d="M141.25 182.959C136.642 182.959 133.119 182.597 133.119 178.048C133.119 175.322 134.725 171.663 137.213 168.732C138.895 166.744 142.431 163.41 147.167 163.41C150.86 163.41 154.027 164.388 156.317 166.235C158.513 168.005 159.718 170.468 159.718 173.166C159.718 178.545 153.417 182.922 145.675 182.922C144.829 182.922 144.028 182.93 143.252 182.938C142.552 182.946 141.885 182.955 141.25 182.955V182.959ZM147.167 164.269C140.137 164.269 133.965 172.858 133.965 178.048C133.965 181.538 136.112 182.101 141.25 182.101C141.881 182.101 142.544 182.092 143.244 182.084C144.02 182.076 144.825 182.068 145.675 182.068C152.955 182.068 158.877 178.077 158.877 173.166C158.877 167.927 154.064 164.264 147.167 164.264V164.269Z" fill="#281A0B"/>
<path d="M139.102 166.983C139.102 166.983 146.18 153.889 154.59 150.411L159.625 153.61C159.625 153.61 145.845 164.154 147.863 166.597" fill="#F5E2D6"/>
<path d="M139.474 167.192L138.734 166.781C139.025 166.239 145.982 153.515 154.432 150.017L154.63 149.935L160.37 153.577L159.88 153.95C156.701 156.385 148.385 163.267 148.089 165.874C148.057 166.165 148.154 166.28 148.186 166.322L147.539 166.872C147.301 166.58 147.204 166.215 147.252 165.78C147.608 162.626 156.479 155.523 158.885 153.647L154.549 150.896C146.459 154.402 139.539 167.065 139.47 167.196L139.474 167.192Z" fill="#281A0B"/>
<path d="M137.492 169.323L154.262 162.811L156.786 168.974L138.107 176.64" fill="#F5E2D6"/>
<path d="M138.268 177.038L137.949 176.241L156.232 168.74L154.027 163.361L137.641 169.725L137.342 168.925L154.492 162.261L157.336 169.208L138.268 177.038Z" fill="#281A0B"/>
<path d="M127.655 191.129C123.076 220.581 130.806 243.201 129.56 250.283C128.31 257.362 117.522 259.538 95.6676 264.387C79.1564 268.05 68.8136 260.84 63.3247 259.218C48.8601 254.952 59.6195 239.633 57.5647 225.755C55.3764 210.969 53.5926 201.895 51.9787 192.119C48.2817 169.676 52.3913 160.75 98.4748 158.524C115.657 159.19 131.975 163.324 127.655 191.134V191.129Z" fill="url(#paint0_linear_24_5441)"/>
<path d="M86.5707 265.779C78.0926 265.779 71.8068 263.094 67.2158 261.131C65.6707 260.47 64.3318 259.899 63.2195 259.571C58.7701 258.257 56.331 255.871 55.5463 252.057C54.8547 248.694 55.5463 244.592 56.2825 240.253C57.0834 235.51 57.9126 230.604 57.2007 225.808C55.7405 215.941 54.438 208.497 53.2893 201.932C52.7028 198.586 52.1527 195.428 51.6147 192.176C50.0291 182.564 49.8471 175.071 54.0861 169.734C59.6276 162.762 72.4823 159.403 98.4545 158.151H98.4707H98.4869C107.859 158.512 118.226 159.855 124.051 167.044C128.407 172.423 129.701 180.319 128.015 191.191C124.985 210.678 127.367 227.204 128.941 238.138C129.758 243.812 130.349 247.91 129.916 250.349C128.662 257.456 118.319 259.747 97.7103 264.313L95.7404 264.748C92.6501 265.434 89.5639 265.783 86.5666 265.783L86.5707 265.779ZM98.4788 158.89C85.43 159.522 75.7101 160.709 68.761 162.528C61.8645 164.334 57.3827 166.769 54.6605 170.193C50.5752 175.334 50.745 182.367 52.3387 192.049C52.8727 195.297 53.4268 198.454 54.0093 201.797C55.158 208.366 56.4605 215.814 57.9207 225.689C58.6488 230.604 57.8115 235.568 56.9985 240.367C56.2785 244.638 55.5949 248.67 56.2582 251.897C56.9823 255.416 59.2555 257.625 63.4177 258.852C64.5745 259.193 65.9255 259.772 67.4949 260.441C72.0252 262.379 78.2341 265.032 86.5666 265.032C89.5113 265.032 92.545 264.691 95.5867 264.018L97.5566 263.582C117.846 259.09 128.031 256.832 129.2 250.213C129.608 247.89 129.026 243.841 128.221 238.241C126.639 227.261 124.249 210.669 127.295 191.068C128.949 180.421 127.703 172.714 123.488 167.508C117.85 160.549 107.685 159.243 98.4788 158.886V158.89Z" fill="#1E1208"/>
<path d="M108.053 200.277L113.651 261.513C113.651 261.513 68.3565 272.993 54.2762 255.564L55.9913 244.067" fill="url(#paint1_linear_24_5441)"/>
<path d="M83.7918 265.594C78.404 265.594 73.5866 265.13 69.4122 264.211C62.4429 262.671 57.2533 259.842 53.9891 255.802L53.8879 255.674L55.6272 244.014L56.3513 244.124L54.6605 255.457C57.8236 259.296 62.8393 261.998 69.5659 263.484C75.0427 264.695 81.6521 265.106 89.216 264.707C100.938 264.087 111.366 261.685 113.259 261.23L107.693 200.314L108.421 200.245L114.048 261.796L113.744 261.874C113.631 261.903 102.237 264.761 89.2686 265.446C87.3877 265.545 85.5635 265.594 83.804 265.594H83.7918Z" fill="#1E1208"/>
<path d="M93.4753 182.593L105.019 174.517L113.728 176.788L110.957 195.732L105.019 197.806L93.4753 182.593Z" fill="white"/>
<path d="M104.841 198.401L92.7634 182.478L104.922 173.971L114.286 176.414L111.402 196.11L104.841 198.397V198.401ZM94.1912 182.704L105.193 197.206L110.508 195.354L113.17 177.165L105.112 175.063L94.1872 182.704H94.1912Z" fill="#02060A"/>
<path d="M103.418 185.808L103.604 194.459L108.053 200.277L111.572 192.727L107.968 184.449L103.418 185.808Z" fill="#313131"/>
<path d="M108.138 201.082L103.187 194.607L102.993 185.492L108.203 183.936L112.033 192.731L108.138 201.082ZM104.016 194.307L107.964 199.469L111.111 192.718L107.729 184.958L103.838 186.12L104.012 194.303L104.016 194.307Z" fill="#070202"/>
<path d="M82.457 162.359C83.7918 167.976 91.7198 180.081 100.966 180.068C112.676 180.052 109.024 161.661 107.689 156.045C106.354 150.428 76.8144 123.247 77.676 128.49C79.0269 136.722 81.1182 156.743 82.453 162.359H82.457Z" fill="#CCA5AC"/>
<path d="M100.954 180.388C95.6879 180.388 91.2789 176.66 88.5041 173.532C84.9932 169.574 82.7846 165.106 82.1496 162.433C81.3608 159.12 80.3213 150.883 79.3141 142.922C78.5982 137.272 77.9267 131.939 77.3685 128.543C77.3119 128.202 77.3604 127.935 77.5182 127.747C77.6112 127.636 77.7933 127.5 78.1128 127.5C80.1352 127.5 87.5657 133.667 94.0294 139.777C100.052 145.468 107.325 153.125 108.001 155.971C109.396 161.846 111.151 172.46 107.2 177.564C105.752 179.436 103.656 180.384 100.97 180.388H100.958H100.954ZM78.1088 128.145C78.0319 128.145 78.0036 128.161 77.9995 128.165C77.9995 128.165 77.9591 128.223 77.9915 128.44C78.5496 131.848 79.2251 137.186 79.9411 142.844C80.9442 150.793 81.9838 159.009 82.7644 162.29C84.0062 167.512 91.6915 179.752 100.954 179.752V180.072L100.966 179.752C103.446 179.752 105.375 178.882 106.698 177.174C110.626 172.103 108.486 160.766 107.382 156.127C106.86 153.934 101.318 147.554 93.5926 140.253C86.1743 133.24 79.6579 128.149 78.1047 128.149L78.1088 128.145Z" fill="#1C1713"/>
<path d="M100.598 176.217L109.105 172.677L107.968 184.449L103.418 185.808L100.598 176.217Z" fill="#313131"/>
<path d="M103.134 186.334L100.089 175.97L109.586 172.016L108.352 184.774L103.134 186.334ZM101.108 176.467L103.701 185.283L107.58 184.125L108.623 173.339L101.112 176.467H101.108Z" fill="#070202"/>
<path d="M111.261 163.546L105.019 174.517L111.35 182.589C111.35 182.589 117.971 167.664 118.129 160.742L111.265 163.546H111.261Z" fill="white"/>
<path d="M111.467 183.554L104.421 174.562L110.917 163.144L118.643 159.99L118.626 160.758C118.469 167.705 112.078 182.191 111.803 182.803L111.467 183.558V183.554ZM105.618 174.472L111.224 181.62C112.502 178.631 117.085 167.582 117.587 161.505L111.605 163.948L105.618 174.472Z" fill="#02060A"/>
<path d="M110.266 163.546C110.266 163.546 115.249 178.36 107.058 200.277L119.476 185.808L116.519 180.068L120.24 176.537L117.134 160.742L110.27 163.546H110.266Z" fill="#3F77A5"/>
<path d="M105.99 202.084L106.714 200.146C110.917 188.9 111.564 179.579 111.366 173.745C111.151 167.418 109.93 163.706 109.918 163.669L109.805 163.336L117.401 160.232L120.637 176.668L116.968 180.146L119.913 185.862L105.99 202.084ZM110.715 163.764C111.022 164.819 111.912 168.276 112.098 173.683C112.292 179.267 111.722 187.992 108.077 198.524L119.035 185.755L116.062 179.99L119.84 176.41L116.859 161.255L110.715 163.764Z" fill="#1E1208"/>
<path d="M72.5147 127.102C71.8756 159.354 100.554 172.103 119.435 169.003C153.878 160.602 141.448 133.417 140.396 111.315C139.344 89.2166 124.31 84.4537 105.205 85.3899C86.1015 86.326 72.9596 104.979 72.5187 127.102H72.5147Z" fill="#F5E2D6"/>
<path d="M113.716 169.894C102.289 169.894 90.834 165.09 83.0718 157.05C75.6454 149.356 71.8432 138.997 72.0819 127.094C72.3003 116.082 75.6494 105.759 81.5145 98.036C84.4754 94.1395 87.9621 91.0355 91.8856 88.8101C95.9912 86.482 100.465 85.1845 105.181 84.9546C106.674 84.8807 108.126 84.8438 109.497 84.8438C119.043 84.8438 126.146 86.6257 131.214 90.2882C137.217 94.624 140.36 101.497 140.825 111.298C141.027 115.568 141.67 120.126 142.293 124.536C144.934 143.234 147.669 162.573 119.532 169.434L119.5 169.442C117.652 169.746 115.706 169.898 113.716 169.898V169.894ZM109.497 85.7224C108.138 85.7224 106.702 85.7594 105.222 85.8333C86.9792 86.7284 73.4045 104.088 72.9475 127.114C72.7169 138.779 76.4301 148.921 83.6907 156.439C91.2951 164.314 102.52 169.015 113.716 169.019C115.653 169.019 117.55 168.871 119.346 168.576C131.619 165.578 138.908 159.875 141.63 151.134C144.069 143.308 142.73 133.827 141.436 124.659C140.809 120.233 140.161 115.65 139.959 111.339C139.506 101.826 136.481 95.1742 130.709 91.0026C125.79 87.451 118.853 85.7224 109.493 85.7224H109.497Z" fill="#281A0B"/>
<path d="M89.661 105.87C89.661 105.87 81.1303 117.198 87.9338 135.236L76.9115 127.759L68.0896 137.867C68.0896 137.867 56.056 117.744 64.4775 99.8713L89.661 105.87Z" fill="#343535"/>
<path d="M68.0289 138.607L67.7255 138.097C67.6932 138.048 64.6635 132.928 62.7139 125.689C60.9099 118.989 59.6843 109.036 64.0932 99.6826L64.2429 99.3623L90.4174 105.595L90.0129 106.133C89.9926 106.162 87.9014 108.982 86.6637 113.938C85.519 118.508 84.8839 125.886 88.3464 135.076L88.8318 136.365L76.9924 128.334L68.0329 138.602L68.0289 138.607ZM64.7202 100.381C60.6025 109.397 61.7997 118.976 63.5431 125.455C65.1044 131.257 67.3655 135.659 68.1664 137.12L76.8387 127.184L87.0722 134.123C84.0345 125.287 84.6938 118.167 85.8264 113.68C86.8053 109.787 88.2614 107.213 88.945 106.149L64.7202 100.381Z" fill="#1E0606"/>
<path d="M130.009 130.621C130.296 135.466 132.209 139.292 134.276 139.165C136.343 139.038 137.787 135.006 137.5 130.161C137.213 125.316 135.299 121.489 133.233 121.616C131.166 121.744 129.722 125.776 130.009 130.621Z" fill="#4F4F4F"/>
<path d="M139.421 113.175L127.675 118.467L125.6 123.041L144.587 117.059L139.421 113.175Z" fill="#313131"/>
<path d="M103.806 117.588L118.355 118.952L121.235 122.951L98.4788 123.213L103.806 117.588Z" fill="#313131"/>
<path d="M109.982 133.794C110.27 138.639 112.183 142.466 114.25 142.339C116.317 142.212 117.761 138.18 117.474 133.335C117.186 128.49 115.273 124.663 113.206 124.79C111.139 124.917 109.695 128.949 109.982 133.794Z" fill="#4F4F4F"/>
<path d="M82.9788 115.88C83.4804 118.993 123.007 116.098 140.392 111.315C154.464 107.443 144.821 98.7628 134.555 96.8372C131.497 96.2664 133.597 99.9864 126.126 101.99C112.029 105.776 82.4772 112.764 82.9788 115.876V115.88Z" fill="#313131"/>
<path d="M91.6268 117.543C88.9652 117.543 86.8659 117.437 85.3815 117.227C83.5774 116.973 82.728 116.578 82.6229 115.942C82.4611 114.944 83.7514 113.474 94.5351 110.157C101.44 108.034 110.108 105.788 117.753 103.809C120.782 103.025 123.642 102.286 126.033 101.641C130.175 100.528 131.279 98.882 132.007 97.7898C132.5 97.0507 132.929 96.4143 133.981 96.4143C134.175 96.4143 134.385 96.4348 134.62 96.48C137.84 97.0836 141.104 98.3728 143.575 100.023C146.225 101.789 147.729 103.793 147.802 105.661C147.875 107.463 146.666 109.972 140.485 111.672C128.265 115.031 104.611 117.543 91.6227 117.543H91.6268ZM133.985 97.1493C133.338 97.1493 133.111 97.4531 132.61 98.2045C131.817 99.387 130.624 101.169 126.223 102.351C123.832 102.992 120.968 103.735 117.939 104.519C110.298 106.498 101.642 108.74 94.7494 110.859C90.9877 112.017 88.221 112.994 86.2916 113.844C83.3226 115.154 83.3267 115.761 83.3388 115.827C83.3388 115.835 83.5896 116.812 91.6268 116.812C104.566 116.812 128.132 114.312 140.299 110.966C144.829 109.722 147.175 107.899 147.086 105.694C146.953 102.343 141.185 98.4549 134.491 97.2026C134.3 97.1657 134.131 97.1493 133.985 97.1493Z" fill="#070202"/>
<path d="M48.7793 110.637C44.9932 113.565 55.2956 119.247 62.0303 121.21C68.7691 123.177 83.715 117.042 95.3764 112.321C118.125 103.111 120.467 103.296 132.452 99.9084C136.76 97.0877 139.069 100.849 139.899 91.0602C143.563 76.4267 138.556 62.9388 121.628 65.7432C96.8528 69.8532 74.7636 90.5429 48.7793 110.637Z" fill="url(#paint2_linear_24_5441)"/>
<path d="M65.0882 121.957C63.8829 121.957 62.8191 121.826 61.9292 121.567C56.4807 119.978 48.2534 115.835 47.6386 112.501C47.5334 111.922 47.6022 111.077 48.5568 110.342C52.8363 107.032 57.047 103.678 61.1162 100.434C71.556 92.1154 81.4175 84.2567 91.3234 77.9993C102.459 70.9618 112.066 66.9544 121.567 65.3777C123.08 65.1273 124.536 65 125.903 65C131.073 65 135.219 66.8477 137.892 70.3377C141.512 75.0677 142.374 82.639 140.259 91.1218C139.684 97.835 138.386 98.4262 135.947 98.9518C134.996 99.1571 133.916 99.3911 132.65 100.22L132.602 100.249L132.549 100.266C130.118 100.951 128.128 101.481 126.198 101.994C118.901 103.932 113.631 105.332 95.5139 112.666L94.9153 112.908C84.9608 116.94 72.5672 121.957 65.0923 121.957H65.0882ZM125.903 65.7432C124.576 65.7432 123.157 65.8663 121.684 66.1127C101.088 69.5288 81.8907 84.8233 61.5692 101.021C57.5 104.265 53.2893 107.619 49.0017 110.933C48.4678 111.348 48.2575 111.816 48.3586 112.366C48.852 115.026 56.1693 119.116 62.1355 120.853C62.9606 121.095 63.9557 121.214 65.0923 121.214C72.4297 121.214 84.7464 116.225 94.6443 112.218L95.2429 111.976C113.404 104.622 118.695 103.218 126.016 101.276C127.926 100.767 129.904 100.245 132.302 99.5677C133.661 98.689 134.842 98.4344 135.797 98.2291C137.852 97.7857 138.984 97.5393 139.534 91.0315L139.543 90.9699C141.614 82.7006 140.801 75.3469 137.314 70.7975C134.745 67.4471 130.907 65.7473 125.903 65.7473V65.7432Z" fill="#1E1208"/>
<path d="M63.2478 136.689C64.0164 141.46 74.6908 148.071 80.0422 147.184C85.3936 146.297 83.3954 138.245 82.6269 133.474C81.8584 128.703 76.8306 125.123 71.4792 126.01C66.1278 126.897 62.4833 131.918 63.2519 136.689H63.2478Z" fill="#F5E2D6"/>
<path d="M68.0936 137.872C67.4505 134.878 70.9088 132.546 72.7938 132.127C74.6787 131.709 77.5303 134.065 78.1735 137.059C78.8166 140.052 78.222 141.973 76.333 142.392C74.4481 142.811 68.7367 140.861 68.0936 137.872Z" fill="#EDC3C5"/>
<path d="M82.6229 133.478C82.4125 132.431 81.9999 131.442 81.4337 130.559C80.8674 129.676 80.1433 128.904 79.3263 128.268C78.5092 127.627 77.591 127.131 76.6283 126.773C75.6616 126.433 74.6463 126.215 73.627 126.182C72.6077 126.141 71.5843 126.268 70.6014 126.535C69.6226 126.81 68.6801 127.233 67.8307 127.8C66.1237 128.913 64.7606 130.575 64.0487 132.497C63.6847 133.454 63.4986 134.472 63.5026 135.49C63.5026 135.745 63.5188 135.999 63.5431 136.254L63.5916 136.632L63.6685 136.989C63.7939 137.461 64.0083 137.921 64.255 138.364C64.7727 139.239 65.4442 140.044 66.1804 140.775C66.9206 141.505 67.7174 142.179 68.5547 142.803C69.392 143.427 70.2698 143.998 71.1718 144.523C72.0738 145.049 73.0081 145.525 73.9668 145.936C74.9254 146.35 75.9164 146.691 76.9317 146.938C77.947 147.18 78.9946 147.311 80.0422 147.196C79.5245 147.291 78.9946 147.328 78.4687 147.315C77.9429 147.291 77.413 147.237 76.8912 147.139C75.8477 146.95 74.8283 146.646 73.8373 146.272C71.8553 145.513 69.9704 144.499 68.2271 143.267C67.3534 142.651 66.5161 141.982 65.7395 141.234C64.9629 140.487 64.2469 139.662 63.6685 138.718C63.3853 138.241 63.1507 137.724 62.997 137.17L62.904 136.747L62.8474 136.332C62.8191 136.057 62.7988 135.778 62.7988 135.498C62.7867 134.386 62.9849 133.273 63.3732 132.238C64.1579 130.165 65.6262 128.391 67.4626 127.221C69.299 126.043 71.4994 125.468 73.6553 125.62C74.1933 125.653 74.7313 125.731 75.2531 125.854C75.7789 125.973 76.2966 126.133 76.7942 126.334C77.7892 126.745 78.7276 127.299 79.5447 127.997C80.3577 128.699 81.0696 129.524 81.5995 130.465C82.1294 131.401 82.4853 132.431 82.6188 133.491L82.6229 133.478Z" fill="#1E0606"/>
<path d="M114.638 81.9451C114.885 88.7979 120.151 96.5252 124.839 96.3486C129.527 96.1762 132.788 88.4653 132.541 81.6084C132.294 74.7557 128.638 71.3519 123.945 71.5243C119.257 71.6968 114.387 75.0882 114.634 81.9451H114.638Z" fill="#848484"/>
<path d="M116.454 82.249C116.665 88.063 121.13 94.6119 125.106 94.4641C129.082 94.3163 131.845 87.7755 131.639 81.9616C131.429 76.1476 128.326 73.2612 124.35 73.409C120.374 73.5568 116.244 76.4309 116.454 82.2449V82.249Z" fill="#BABABA"/>
<path d="M120.471 151.298C120.471 151.298 115.548 148.999 111.261 152.825L120.471 151.298Z" fill="#F5E2D6"/>
<path d="M111.544 153.154L110.973 152.493C115.423 148.522 120.6 150.871 120.649 150.896L120.289 151.692C120.099 151.602 115.564 149.565 111.544 153.15V153.154Z" fill="#281A0B"/>
<path d="M125.794 137.174C124.37 132.682 124.132 128.74 125.252 128.375C126.376 128.009 127.586 131.495 129.006 135.987C130.429 140.479 131.526 144.277 130.401 144.642C129.277 145.008 127.214 141.661 125.794 137.17V137.174Z" fill="#CCA5AC"/>
<path d="M134.519 134.234C134.47 133.942 135.259 133.569 136.274 133.4C137.29 133.232 138.155 133.331 138.2 133.626C138.248 133.918 137.459 134.291 136.444 134.46C135.429 134.628 134.563 134.529 134.519 134.234Z" fill="white"/>
<path d="M114.44 137.564C114.391 137.272 115.18 136.899 116.195 136.73C117.211 136.562 118.076 136.66 118.121 136.956C118.169 137.248 117.381 137.621 116.365 137.789C115.35 137.958 114.484 137.859 114.44 137.564Z" fill="white"/>
<path d="M68.4415 137.962L67.7417 137.781C68.6801 134.061 70.1565 131.918 72.1264 131.409C74.9537 130.682 77.6557 133.597 77.769 133.725L77.2391 134.221C77.2148 134.193 74.711 131.499 72.3003 132.119C70.6055 132.559 69.303 134.521 68.4374 137.962H68.4415Z" fill="#1E0606"/>
<path d="M62.1233 120.077C72.4378 115.835 127.238 93.6266 139.029 95.8479C139.551 95.9464 139.971 96.3447 140.113 96.862C140.307 97.5723 139.931 98.3114 139.251 98.566C135.174 100.093 128.832 102.077 113.57 107.266C96.6991 113.002 70.6621 121.978 63.1022 123.448C62.3134 123.6 61.5206 123.185 61.189 122.442C60.7804 121.526 61.2051 120.455 62.1193 120.077H62.1233Z" fill="#B0C2CF"/>
<path d="M62.7746 123.92C61.9251 123.92 61.1485 123.411 60.7966 122.622C60.5499 122.068 60.5377 121.456 60.7562 120.894C60.9786 120.331 61.4033 119.896 61.9575 119.67C71.8675 115.593 122.073 95.2524 137.071 95.2524C137.848 95.2524 138.535 95.3058 139.11 95.4167C139.789 95.544 140.347 96.0654 140.53 96.747C140.784 97.6831 140.299 98.6439 139.401 98.9806C137.108 99.8387 134.131 100.832 129.2 102.475C125.28 103.78 120.398 105.41 113.708 107.685C112.264 108.178 110.747 108.691 109.186 109.225C92.7027 114.842 70.1241 122.532 63.1871 123.879C63.0537 123.903 62.9161 123.92 62.7786 123.92H62.7746ZM137.071 96.1311C122.234 96.1311 72.1708 116.418 62.2851 120.483C61.9535 120.619 61.6946 120.882 61.5651 121.218C61.4317 121.555 61.4398 121.924 61.5894 122.257C61.7997 122.729 62.269 123.037 62.7786 123.037C62.8595 123.037 62.9444 123.029 63.0253 123.012C69.9057 121.674 92.4519 113.996 108.915 108.387C110.48 107.853 111.993 107.34 113.437 106.848C120.131 104.569 125.013 102.943 128.933 101.637C133.851 99.9989 136.824 99.0052 139.106 98.1512C139.579 97.9747 139.834 97.4696 139.7 96.9769C139.603 96.6197 139.312 96.3446 138.956 96.2789C138.434 96.1804 137.803 96.1311 137.075 96.1311H137.071Z" fill="#01080C"/>
<path d="M77.7285 162.228L81.8058 157.847C81.8058 157.847 93.5764 170.986 105.015 174.521L99.8743 184.449C99.8743 184.449 85.7091 180.392 77.7245 162.228H77.7285Z" fill="white"/>
<path d="M100.133 185.044L99.7449 184.934C99.5952 184.893 96.0681 183.858 91.5095 180.561C87.319 177.527 81.4458 171.922 77.2755 162.433L77.142 162.125L81.8139 157.104L82.1739 157.506C82.2912 157.638 93.985 170.583 105.161 174.037L105.735 174.213L100.129 185.044H100.133ZM78.3191 162.326C82.3802 171.396 88.0147 176.783 92.0475 179.707C95.6272 182.306 98.6083 183.476 99.6316 183.833L104.299 174.813C94.0375 171.372 83.8687 160.811 81.8017 158.578L78.3191 162.322V162.326Z" fill="#02060A"/>
<path d="M80.2161 158.348L87.1491 166.424C92.0353 171.606 96.335 177.321 99.9714 183.468L108.053 200.273L85.1307 181.579L89.2605 176.787L81.5145 177.292L74.8283 160.742L80.2202 158.348H80.2161Z" fill="#3F77A5"/>
<path d="M109.097 201.608L84.6008 181.632L88.403 177.219L81.2719 177.683L74.351 160.549L80.3173 157.9L87.4201 166.178C92.3144 171.368 96.6424 177.124 100.283 183.283L100.299 183.312L109.097 201.612V201.608ZM85.6525 181.534L107.005 198.947L99.6478 183.648C96.0317 177.539 91.74 171.832 86.8862 166.683L86.874 166.67L80.1191 158.799L75.2975 160.939L81.7491 176.907L90.1099 176.365L85.6525 181.538V181.534Z" fill="#1E1208"/>
<path d="M92.8767 225.282C90.5266 225.282 87.8327 224.72 84.892 223.595C78.4526 221.127 71.5479 216.237 65.4402 209.828C59.4739 203.562 54.7171 195.671 52.3832 188.177C50.0493 180.68 50.466 174.661 53.5199 171.663L54.0295 172.197C51.1819 174.989 50.8381 180.733 53.083 187.951C55.3805 195.338 60.0766 203.123 65.966 209.306C75.071 218.873 85.5635 224.543 92.8564 224.543C95.4816 224.543 97.6941 223.808 99.2757 222.256C105.108 216.537 90.0493 191.803 77.4373 178.557L77.9631 178.04C84.4835 184.888 91.372 194.418 95.9427 202.918C99.0532 208.699 103.685 218.963 99.7853 222.79C98.0986 224.445 95.7404 225.278 92.8807 225.278L92.8767 225.282Z" fill="#1E1208"/>
<path d="M83.63 198.397C85.3167 197.42 87.234 196.849 89.6893 196.176C101.132 193.035 120.22 185.147 123.355 193.203C126.49 201.259 133.544 210.867 116.754 217.6C99.9633 224.334 88.6983 229.187 78.8692 219.936" fill="#3F77A5"/>
<path d="M91.5257 225.418C86.5181 225.418 82.3599 223.726 78.6225 220.212L79.12 219.665C88.5405 228.534 99.2312 224.239 115.411 217.74L116.62 217.255C122.032 215.083 125.28 212.497 126.546 209.351C128.197 205.241 126.235 200.77 124.334 196.447C123.861 195.371 123.416 194.357 123.019 193.338C120.564 187.032 107.212 191.187 96.4847 194.525C94.0901 195.272 91.825 195.974 89.7864 196.533C87.3311 197.206 85.4664 197.756 83.812 198.717L83.448 198.073C85.1792 197.067 87.0884 196.504 89.5962 195.814C91.6227 195.26 93.8798 194.558 96.2703 193.811C101.731 192.111 107.916 190.185 112.992 189.54C118.978 188.781 122.481 189.931 123.699 193.059C124.087 194.061 124.532 195.067 125.001 196.135C126.963 200.602 128.993 205.221 127.226 209.622C125.883 212.969 122.501 215.687 116.895 217.937L115.686 218.421C107.705 221.628 100.809 224.396 94.8101 225.184C93.6775 225.332 92.5854 225.41 91.5297 225.41L91.5257 225.418Z" fill="#1E1208"/>
<path d="M138.111 232.312C138.111 232.312 133.196 230.558 128.407 228.908C125.017 227.738 124.544 226.498 121.547 224.905C112.256 219.965 138.556 174.082 138.556 174.082L155.597 180.072L138.111 232.312Z" fill="white"/>
<path d="M138.422 232.956L137.949 232.788C137.9 232.772 132.982 231.014 128.249 229.384C126.158 228.662 125.118 227.898 124.014 227.089C123.27 226.543 122.497 225.976 121.32 225.348C120.378 224.847 119.723 223.969 119.371 222.737C116.333 212.037 137.237 175.379 138.131 173.823L138.337 173.466L156.232 179.756L138.422 232.952V232.956ZM138.782 174.693C136.582 178.586 117.555 212.71 120.321 222.458C120.596 223.431 121.074 224.083 121.773 224.457C123.015 225.118 123.852 225.73 124.589 226.272C125.673 227.068 126.611 227.758 128.561 228.428C132.44 229.766 136.448 231.187 137.795 231.667L154.962 180.384L138.778 174.693H138.782Z" fill="#02060A"/>
<path d="M124.597 225.131C124.411 218.98 127.456 208.962 133.641 195.355C138.236 185.25 142.952 176.829 142.997 176.742L143.725 177.161C143.539 177.494 124.997 210.715 125.43 225.102L124.593 225.126L124.597 225.131Z" fill="#070202"/>
<path d="M127.748 226.141C127.562 219.994 130.381 209.98 136.125 196.377C140.392 186.272 144.773 177.851 144.817 177.765L145.557 178.163C145.383 178.496 128.148 211.721 128.585 226.116L127.748 226.141Z" fill="#070202"/>
<path d="M130.543 230.945C130.357 224.018 133.398 213.067 139.587 198.401C144.182 187.504 148.898 178.512 148.943 178.422L149.728 178.845C149.542 179.202 130.996 214.677 131.433 230.916L130.543 230.94V230.945Z" fill="#070202"/>
<path d="M154.606 180.741L177.37 169.688L159.524 219.932L137.241 232.87C136.189 233.482 134.968 232.414 135.401 231.265L154.61 180.741H154.606Z" fill="#A7403D"/>
<path d="M136.594 233.552C136.007 233.552 135.457 233.252 135.117 232.751C134.786 232.258 134.717 231.651 134.931 231.084L154.141 180.561C154.185 180.442 154.274 180.343 154.391 180.286L177.156 169.233C177.338 169.142 177.556 169.175 177.706 169.315C177.856 169.45 177.908 169.668 177.84 169.861L159.994 220.105C159.953 220.216 159.876 220.314 159.771 220.372L137.484 233.309C137.205 233.47 136.905 233.552 136.598 233.552H136.594ZM154.998 181.111L135.862 231.45C135.732 231.794 135.854 232.057 135.939 232.184C136.088 232.406 136.339 232.546 136.594 232.546C136.727 232.546 136.861 232.509 136.986 232.435L159.112 219.592L176.485 170.678L154.994 181.115L154.998 181.111Z" fill="#050301"/>
<path d="M139.603 174.012L155.649 180.68L178.746 169.623L161.85 164.367L139.603 174.012Z" fill="#A7403D"/>
<path d="M155.649 181.185C155.585 181.185 155.52 181.173 155.459 181.148L139.413 174.484C139.227 174.406 139.106 174.225 139.106 174.02C139.106 173.815 139.223 173.63 139.409 173.552L161.656 163.903C161.765 163.858 161.887 163.85 161.996 163.887L178.891 169.142C179.089 169.204 179.227 169.381 179.243 169.59C179.259 169.799 179.146 169.992 178.96 170.083L155.864 181.136C155.795 181.169 155.726 181.185 155.653 181.185H155.649ZM140.894 174.004L155.637 180.126L177.37 169.721L161.878 164.901L140.894 174V174.004Z" fill="#050301"/>
<path d="M138.531 173.897C138.531 173.897 165.446 164.72 161.47 217.165L191.617 200.68C191.617 200.68 186.338 156.361 160.475 164.433L138.531 173.897Z" fill="white"/>
<path d="M160.904 218.048L160.972 217.128C161.749 206.909 161.389 198.315 159.905 191.585C158.675 186.009 156.665 181.661 153.93 178.664C150.253 174.636 145.929 173.79 142.948 173.79C140.449 173.79 138.705 174.373 138.689 174.381L138.337 173.437L160.305 163.961L160.329 163.952C162.465 163.287 164.552 162.947 166.53 162.947C171.38 162.947 175.752 164.954 179.518 168.917C182.499 172.053 185.112 176.414 187.276 181.875C190.949 191.138 192.098 200.524 192.106 200.618L192.146 200.959L160.9 218.044L160.904 218.048ZM142.948 172.776C146.128 172.776 150.739 173.679 154.658 177.974C160.855 184.765 163.335 197.654 162.028 216.282L191.07 200.401C190.828 198.647 189.578 190.39 186.342 182.236C183.033 173.897 176.909 163.957 166.522 163.957C164.649 163.957 162.671 164.277 160.637 164.909L142.374 172.788C142.56 172.784 142.75 172.78 142.944 172.78L142.948 172.776Z" fill="#02060A"/>
<path d="M140.404 200.031C140.404 207.886 136.477 214.254 128.362 214.254C120.248 214.254 113.667 207.886 113.667 200.031C113.667 192.176 120.244 185.808 128.362 185.808C131.404 185.808 128.48 188.054 130.361 189.59C133.491 192.144 140.404 195.12 140.404 200.031Z" fill="#F5E2D6"/>
<path d="M128.367 214.693C120.026 214.693 113.239 208.116 113.239 200.031C113.239 191.947 120.026 185.369 128.367 185.369C129.212 185.369 129.722 185.529 130.017 185.886C130.377 186.317 130.284 186.868 130.195 187.401C130.078 188.103 129.976 188.711 130.636 189.249C131.376 189.853 132.351 190.493 133.382 191.171C136.707 193.355 140.841 196.069 140.841 200.031C140.841 204.199 139.781 207.771 137.771 210.362C135.575 213.195 132.322 214.693 128.367 214.693ZM128.367 186.248C120.503 186.248 114.104 192.431 114.104 200.031C114.104 207.631 120.503 213.815 128.367 213.815C136.926 213.815 139.975 206.695 139.975 200.031C139.975 196.549 136.06 193.975 132.913 191.905C131.861 191.216 130.87 190.563 130.094 189.931C129.038 189.068 129.22 187.976 129.341 187.254C129.398 186.917 129.455 186.572 129.353 186.453C129.301 186.391 129.103 186.248 128.362 186.248H128.367Z" fill="#281A0B"/>
<path d="M84.0143 327.61C84.5442 334.795 75.6333 341.332 64.1053 342.206C52.5774 343.085 42.9708 340.33 42.4409 333.145C41.911 325.959 50.6561 317.07 62.184 316.191C73.7119 315.313 83.4844 320.425 84.0143 327.61Z" fill="#313131"/>
<path d="M60.0767 342.789C55.0287 342.789 50.7249 342.001 47.6306 340.511C44.1924 338.856 42.2549 336.319 42.0203 333.178C41.7493 329.531 43.8041 325.348 47.5093 321.989C51.4692 318.396 56.6669 316.187 62.1477 315.768C63.0133 315.703 63.887 315.67 64.7445 315.67C75.4635 315.67 83.9254 320.79 84.427 327.581C84.694 331.207 82.7039 334.775 78.8208 337.62C74.9983 340.424 69.7804 342.202 64.1338 342.633C62.7504 342.74 61.3832 342.794 60.0727 342.794L60.0767 342.789ZM64.7486 316.516C63.9113 316.516 63.0578 316.549 62.2165 316.614C56.9177 317.017 51.8939 319.152 48.0715 322.621C44.5565 325.807 42.6109 329.733 42.8617 333.116C43.2702 338.642 49.7056 341.944 60.0808 341.944C61.3711 341.944 62.714 341.89 64.0771 341.788C69.5741 341.369 74.6424 339.644 78.3394 336.934C81.9758 334.266 83.8445 330.969 83.5978 327.647C83.1286 321.307 75.0267 316.524 64.7486 316.524V316.516Z" fill="#070202"/>
<path d="M78.582 337.271C77.9267 337.838 77.2229 338.351 76.4948 338.831C76.1268 339.061 75.7546 339.295 75.3744 339.501C74.9982 339.718 74.6059 339.915 74.2176 340.112C72.6482 340.872 71.0019 341.484 69.3111 341.935C67.6204 342.383 65.8932 342.683 64.1498 342.843C62.4186 342.995 60.6793 343.06 58.94 343.024C57.2007 342.974 55.4533 342.835 53.7261 342.531C52.003 342.227 50.288 341.779 48.6579 341.073C47.8449 340.72 47.0521 340.314 46.3119 339.809C45.5757 339.304 44.88 338.721 44.2894 338.043C43.707 337.361 43.2175 336.585 42.902 335.748C42.8252 335.538 42.7645 335.321 42.6957 335.111L42.5501 334.463L42.4692 333.806L42.4449 333.149C42.5825 334.011 42.8413 334.845 43.2418 335.596C43.6382 336.347 44.1559 337.017 44.7627 337.587C45.968 338.745 47.4808 339.521 49.0462 340.092C50.6156 340.663 52.2659 341.028 53.9284 341.274C54.7616 341.393 55.5989 341.496 56.4403 341.554C57.2816 341.627 58.127 341.66 58.9724 341.685C60.6631 341.726 62.362 341.685 64.0609 341.578C65.7435 341.471 67.4222 341.25 69.0806 340.913C69.4931 340.823 69.9098 340.737 70.3183 340.634C70.7268 340.527 71.1394 340.429 71.5479 340.31C72.365 340.088 73.1699 339.809 73.9668 339.513C74.7677 339.221 75.5443 338.872 76.3209 338.511C77.0894 338.133 77.8418 337.723 78.5861 337.275L78.582 337.271Z" fill="#707070"/>
<path d="M141.804 321.644C141.711 328.85 132.63 330.373 121.074 330.221C109.517 330.069 99.8581 328.295 99.9512 321.094C100.044 313.888 109.849 303.98 121.409 304.132C132.966 304.284 141.897 314.438 141.808 321.644H141.804Z" fill="#313131"/>
<path d="M122.554 330.656C122.065 330.656 121.567 330.656 121.07 330.648C114.379 330.562 109.453 329.926 106.006 328.706C101.666 327.171 99.486 324.608 99.5305 321.09C99.579 317.44 102.063 313.042 106.019 309.61C110.403 305.803 115.775 303.709 121.142 303.709C121.231 303.709 121.32 303.709 121.409 303.709C126.801 303.779 132.076 305.992 136.254 309.934C139.979 313.449 142.265 317.936 142.216 321.648C142.172 325.04 140.198 327.487 136.351 328.92C133.22 330.086 128.706 330.656 122.55 330.656H122.554ZM121.142 304.555C116.05 304.555 110.735 306.633 106.561 310.254C102.783 313.531 100.412 317.686 100.368 321.098C100.327 324.251 102.261 326.477 106.281 327.901C109.639 329.092 114.48 329.712 121.078 329.798C121.575 329.807 122.065 329.807 122.55 329.807C135.502 329.807 141.31 327.285 141.383 321.64C141.427 318.158 139.243 313.913 135.688 310.558C131.659 306.76 126.587 304.629 121.401 304.559C121.316 304.559 121.231 304.559 121.142 304.559V304.555Z" fill="#070202"/>
<path d="M141.804 321.644C141.856 322.699 141.698 323.791 141.245 324.785L141.063 325.15C141.007 325.278 140.926 325.385 140.853 325.504C140.716 325.742 140.542 325.951 140.38 326.169C140.028 326.583 139.644 326.978 139.215 327.31C138.361 327.992 137.399 328.501 136.412 328.911C135.421 329.322 134.393 329.618 133.362 329.868C131.295 330.369 129.188 330.591 127.092 330.747C124.993 330.891 122.894 330.915 120.803 330.886C119.755 330.87 118.707 330.833 117.66 330.784C116.612 330.726 115.564 330.652 114.517 330.55C113.469 330.447 112.426 330.312 111.382 330.135C110.338 329.963 109.303 329.745 108.28 329.47C107.256 329.191 106.237 328.866 105.258 328.431C104.279 327.992 103.333 327.462 102.487 326.776C101.642 326.095 100.926 325.228 100.473 324.239C100.024 323.245 99.8743 322.145 99.9552 321.09L99.9957 321.484C100.008 321.615 100.016 321.747 100.044 321.874C100.093 322.133 100.129 322.391 100.214 322.638C100.339 323.143 100.554 323.615 100.801 324.062C100.938 324.28 101.064 324.498 101.225 324.695C101.306 324.793 101.371 324.9 101.46 324.994L101.715 325.274C101.796 325.372 101.897 325.45 101.986 325.536C102.079 325.619 102.168 325.713 102.269 325.787C102.471 325.939 102.657 326.107 102.876 326.243C103.705 326.817 104.627 327.257 105.582 327.606C106.536 327.955 107.523 328.23 108.522 328.443C110.529 328.862 112.571 329.117 114.63 329.273C115.657 329.351 116.689 329.417 117.724 329.453C118.756 329.495 119.791 329.527 120.827 329.54C121.862 329.556 122.898 329.564 123.933 329.552C124.969 329.544 126 329.519 127.032 329.474C128.063 329.429 129.091 329.363 130.114 329.26L130.878 329.174L131.643 329.076C132.153 329.006 132.658 328.932 133.16 328.838C134.167 328.653 135.158 328.402 136.121 328.082C136.363 328.008 136.598 327.91 136.837 327.823C137.071 327.729 137.302 327.622 137.532 327.524C137.985 327.298 138.434 327.064 138.847 326.776C139.272 326.505 139.652 326.173 140.012 325.82C140.178 325.631 140.36 325.45 140.505 325.241C140.578 325.138 140.663 325.044 140.728 324.933L140.93 324.608C141.181 324.165 141.395 323.689 141.529 323.188C141.614 322.941 141.658 322.683 141.707 322.424C141.739 322.297 141.747 322.165 141.763 322.034L141.812 321.64L141.804 321.644Z" fill="#707070"/>
<path d="M129.972 320.462C132.796 320.462 135.085 318.993 135.085 317.181C135.085 315.369 132.796 313.9 129.972 313.9C127.149 313.9 124.86 315.369 124.86 317.181C124.86 318.993 127.149 320.462 129.972 320.462Z" fill="#EFEFEF"/>
<path d="M181.525 356.265L141.322 344.239C137.561 343.032 135.008 339.488 135.008 335.485V272.558L184.781 288.559V351.215C184.781 354.68 184.781 357.312 181.525 356.265Z" fill="#B18F64"/>
<path d="M182.787 357C182.37 357 181.909 356.918 181.375 356.745L141.181 344.723C137.184 343.438 134.507 339.726 134.507 335.485V272.558C134.507 272.398 134.584 272.246 134.709 272.151C134.838 272.057 135 272.028 135.154 272.077L184.926 288.078C185.133 288.144 185.274 288.341 185.274 288.559V351.215C185.274 354.192 185.274 357.004 182.782 357.004L182.787 357ZM135.502 273.244V335.481C135.502 339.283 137.9 342.609 141.472 343.754L181.666 355.776C182.107 355.916 182.479 355.986 182.787 355.986C184.142 355.986 184.283 354.528 184.283 351.207V288.92L135.506 273.239L135.502 273.244Z" fill="#02060A"/>
<path d="M284.455 250.932L183.385 288.838L133.754 273.211L234.82 235.305L284.455 250.932Z" fill="#B18F64"/>
<path d="M183.385 289.343C183.337 289.343 183.284 289.335 183.24 289.318L133.609 273.691C133.406 273.625 133.265 273.437 133.261 273.223C133.257 273.005 133.386 272.812 133.584 272.734L234.65 234.833C234.751 234.796 234.864 234.792 234.97 234.825L284.6 250.452C284.803 250.517 284.944 250.706 284.948 250.92C284.952 251.137 284.823 251.33 284.625 251.408L183.559 289.31C183.502 289.33 183.446 289.343 183.385 289.343ZM135.299 273.17L183.373 288.304L282.906 250.977L234.832 235.843L135.299 273.17Z" fill="#02060A"/>
<path d="M284.455 244.987L183.385 282.888L133.754 267.261L234.82 229.36L284.455 244.987Z" fill="#B18F64"/>
<path d="M183.401 283.422L132.209 267.302L234.808 228.826L286 244.946L284.625 245.463L183.401 283.426V283.422ZM135.299 267.22L183.373 282.355L282.906 245.028L234.832 229.893L135.299 267.22Z" fill="#02060A"/>
<path d="M243.662 251.396L208.921 264.424C207.626 264.909 206.206 264.95 204.888 264.535L191.212 260.228C189.752 259.768 189.695 257.69 191.131 257.153L225.873 244.125C227.167 243.64 228.587 243.599 229.905 244.014L243.581 248.321C245.041 248.781 245.098 250.858 243.662 251.396Z" fill="#313131"/>
<path d="M206.744 265.241C206.073 265.241 205.406 265.139 204.762 264.937L191.087 260.63C190.245 260.367 189.691 259.62 189.667 258.725C189.643 257.834 190.16 257.058 190.986 256.746L225.727 243.718C227.102 243.201 228.627 243.16 230.031 243.603L243.707 247.91C244.548 248.173 245.102 248.92 245.126 249.811C245.151 250.702 244.633 251.478 243.808 251.79L209.066 264.818C208.322 265.097 207.541 265.241 206.744 265.241ZM228.045 244.149C227.349 244.149 226.665 244.272 226.014 244.519L191.273 257.547C190.686 257.768 190.488 258.29 190.5 258.705C190.512 259.119 190.735 259.633 191.333 259.821L205.009 264.128C206.235 264.514 207.57 264.477 208.775 264.026L243.517 250.998C244.103 250.776 244.301 250.255 244.289 249.84C244.277 249.425 244.054 248.912 243.456 248.723L229.78 244.416C229.218 244.239 228.635 244.149 228.045 244.149Z" fill="#070202"/>
<path d="M238.169 232.065L181.322 253.231C179.166 254.036 177.006 252.045 177.593 249.786L189.606 203.443C190.69 199.259 193.72 195.88 197.72 194.389L254.567 173.223C256.723 172.419 258.883 174.41 258.297 176.668L246.283 223.012C245.199 227.196 242.17 230.575 238.169 232.065Z" fill="#313131"/>
<path d="M180.331 253.835C179.336 253.835 178.369 253.346 177.751 252.533C177.132 251.72 176.925 250.677 177.188 249.676L189.202 203.332C190.318 199.017 193.449 195.527 197.575 193.991L254.422 172.825C254.79 172.686 255.174 172.616 255.554 172.616C256.549 172.616 257.516 173.104 258.135 173.917C258.754 174.73 258.96 175.773 258.697 176.775L246.684 223.119C245.567 227.434 242.437 230.924 238.311 232.459L181.464 253.625C181.096 253.765 180.711 253.835 180.331 253.835ZM255.554 173.466C255.271 173.466 254.984 173.519 254.709 173.622L197.862 194.788C193.991 196.229 191.058 199.505 190.007 203.55L177.993 249.893C177.799 250.649 177.945 251.404 178.41 252.016C178.871 252.624 179.591 252.989 180.327 252.989C180.61 252.989 180.898 252.936 181.173 252.833L238.019 231.667C241.89 230.226 244.823 226.949 245.875 222.905L257.888 176.562C258.082 175.806 257.937 175.051 257.471 174.439C257.01 173.831 256.29 173.466 255.554 173.466Z" fill="#070202"/>
<path d="M232.907 226.736L201.28 238.512L208.281 211.503L239.908 199.723L232.907 226.736Z" fill="#313131"/>
<path d="M200.673 239.189L207.934 211.179L240.519 199.046L233.259 227.056L200.673 239.189ZM208.629 211.823L201.886 237.83L232.555 226.412L239.298 200.405L208.629 211.823Z" fill="#070202"/>
<path d="M237.352 249.791L215.546 257.957L210.737 219.132L232.543 210.965L237.352 249.791Z" fill="#313131"/>
<path d="M215.194 258.54L210.28 218.848L232.891 210.378L237.805 250.07L215.194 258.54ZM211.194 219.415L215.894 257.374L236.895 249.507L232.195 211.548L211.194 219.415Z" fill="#070202"/>
<path d="M282.06 310.657L187.737 356.113C185.719 357.086 183.389 355.592 183.389 353.325V288.838L283.957 251.392L283.796 307.877C283.796 309.068 283.116 310.147 282.056 310.657H282.06Z" fill="#9B7349"/>
<path d="M186.431 356.918C184.477 356.918 182.892 355.304 182.892 353.321V288.834C182.892 288.62 183.021 288.431 183.219 288.362L283.787 250.916C283.941 250.858 284.111 250.883 284.245 250.977C284.378 251.072 284.459 251.228 284.455 251.392L284.293 307.877C284.293 309.252 283.496 310.521 282.271 311.112L187.948 356.569C187.466 356.803 186.953 356.918 186.431 356.918ZM183.883 289.187V353.321C183.883 354.746 185.023 355.908 186.427 355.908C186.803 355.908 187.167 355.822 187.519 355.653L281.846 310.197C282.728 309.774 283.298 308.858 283.298 307.869L283.456 252.106L183.883 289.179V289.187Z" fill="#02060A"/>
<path d="M133.754 267.261V273.211L183.385 288.838V282.888L133.754 267.261Z" fill="#B18F64"/>
<path d="M183.385 289.343C183.337 289.343 183.288 289.335 183.24 289.318L133.609 273.691C133.402 273.625 133.257 273.428 133.257 273.211V267.261C133.257 267.101 133.334 266.949 133.459 266.855C133.584 266.76 133.75 266.732 133.9 266.781L183.531 282.408C183.737 282.474 183.883 282.671 183.883 282.888V288.838C183.883 288.998 183.806 289.15 183.68 289.244C183.595 289.31 183.49 289.343 183.385 289.343ZM134.252 272.837L182.888 288.152V283.262L134.252 267.947V272.837Z" fill="#02060A"/>
<path d="M284.455 244.987L283.957 251.392L183.385 288.838V282.888L284.455 244.987Z" fill="#9B7349"/>
<path d="M183.385 289.343C183.284 289.343 183.187 289.31 183.102 289.252C182.969 289.158 182.888 289.002 182.888 288.838V282.888C182.888 282.679 183.017 282.486 183.211 282.416L284.277 244.514C284.435 244.457 284.613 244.482 284.75 244.584C284.884 244.687 284.96 244.855 284.944 245.028L284.447 251.433C284.431 251.63 284.305 251.798 284.123 251.868L183.555 289.314C183.498 289.335 183.442 289.347 183.385 289.347V289.343ZM183.883 283.241V288.115L283.484 251.031L283.897 245.734L183.883 283.241Z" fill="#02060A"/>
<path d="M130.365 189.59C130.365 189.59 142.657 187.828 150.913 191.86V196.865H135.138" fill="#F5E2D6"/>
<path d="M151.342 197.305H135.13V196.426H150.472V192.14C142.431 188.366 130.539 190.009 130.417 190.029L130.296 189.159C130.802 189.085 142.815 187.426 151.091 191.466L151.337 191.585V197.309L151.342 197.305Z" fill="#281A0B"/>
<path d="M132.638 197.005C132.638 197.005 144.445 196.96 151.637 202.084L150.933 207.04L136.1 204.864" fill="#F5E2D6"/>
<path d="M151.289 207.524L136.035 205.287L136.157 204.441L150.573 206.555L151.18 202.289C144.21 197.485 132.905 197.436 132.642 197.436V196.578C133.123 196.57 144.659 196.59 151.879 201.735L152.09 201.887L151.285 207.524H151.289Z" fill="#281A0B"/>
<path d="M130.365 207.635C130.365 207.635 128.128 207.635 135.049 212.123C136.246 212.899 140.594 213.856 141.427 215.178L138.92 219.489L130.199 216.508L125.353 213.601" fill="#F5E2D6"/>
<path d="M139.11 220.006L130.021 216.902L125.135 213.975L125.563 213.236L130.373 216.118L138.73 218.972L140.914 215.215C140.271 214.57 138.503 213.938 137.18 213.466C136.173 213.104 135.304 212.796 134.822 212.484C132.812 211.183 131.368 210.123 130.535 209.339C129.774 208.625 129.503 208.14 129.625 207.713C129.726 207.364 130.069 207.208 130.365 207.208V207.635L130.373 208.05C130.413 208.013 130.45 207.943 130.442 207.894C130.454 207.976 130.704 208.797 135.279 211.758C135.68 212.016 136.545 212.324 137.464 212.653C139.292 213.306 141.181 213.983 141.787 214.94L141.929 215.161L139.114 219.998L139.11 220.006Z" fill="#281A0B"/>
<path d="M129.103 210.928C129.103 210.928 140.202 215.009 148.676 212.644L149.655 207.738L129.366 204.157" fill="#F5E2D6"/>
<path d="M142.677 213.819C135.821 213.819 129.309 211.462 128.957 211.331L129.244 210.526C129.353 210.567 140.097 214.455 148.312 212.3L149.153 208.087L129.293 204.58L129.438 203.735L150.156 207.393L149.04 212.989L148.789 213.059C146.827 213.605 144.736 213.819 142.681 213.819H142.677Z" fill="#281A0B"/>
<path d="M119.427 188.744C119.427 188.744 125.624 180.824 130.98 180.343L134.151 181.751L130.365 189.59" fill="#F5E2D6"/>
<path d="M130.741 189.779L129.984 189.401L133.576 181.965L130.911 180.778C125.818 181.333 119.816 188.933 119.755 189.011L119.096 188.477C119.355 188.149 125.466 180.409 130.943 179.916L131.052 179.908L134.725 181.542L130.745 189.783L130.741 189.779Z" fill="#281A0B"/>
<path d="M90.5225 195.502C90.3122 195.683 90.11 195.876 89.9077 196.073C89.7055 196.266 89.5073 196.463 89.3172 196.66L88.7428 197.264C88.5567 197.473 88.3706 197.674 88.1927 197.888C87.4646 198.725 86.7891 199.604 86.1662 200.511C85.5514 201.427 84.977 202.371 84.4876 203.357C83.9941 204.338 83.5572 205.348 83.2175 206.395C82.8696 207.438 82.6148 208.51 82.4327 209.594C82.2507 210.678 82.186 211.782 82.1617 212.887C82.1739 215.1 82.5177 217.313 83.084 219.489C82.186 217.428 81.644 215.186 81.5065 212.903C81.4943 212.332 81.4579 211.757 81.5065 211.187L81.5267 210.756L81.5348 210.542L81.555 210.329L81.644 209.475C81.8098 208.337 82.0727 207.22 82.4206 206.128C82.7927 205.044 83.2498 203.993 83.7878 202.987C84.3338 201.985 84.9446 201.025 85.6403 200.13C86.328 199.226 87.0884 198.389 87.8974 197.609C88.3059 197.223 88.7226 196.845 89.1594 196.496C89.5962 196.143 90.0452 195.806 90.5185 195.51L90.5225 195.502Z" fill="#070202"/>
<path d="M89.661 195.174C88.7145 195.486 87.8124 195.896 86.9468 196.369C86.0812 196.837 85.2561 197.379 84.4754 197.97C82.9222 199.165 81.559 200.594 80.4669 202.215C79.3748 203.837 78.5294 205.632 77.9308 207.524C77.3281 209.413 76.9438 211.384 76.6849 213.388C76.6 211.368 76.8022 209.323 77.3038 207.34C77.7892 205.352 78.6305 203.439 79.7752 201.735C80.924 200.031 82.4044 198.557 84.0952 197.428C84.9406 196.861 85.8345 196.381 86.7648 195.991C87.6992 195.617 88.6619 195.301 89.6529 195.174H89.661Z" fill="#070202"/>
<path d="M99.9471 113.175C104.328 112.916 108.7 112.612 113.065 112.239C115.245 112.041 117.425 111.848 119.601 111.598C121.777 111.36 123.95 111.093 126.109 110.765C128.273 110.448 130.425 110.075 132.553 109.603C134.681 109.139 136.792 108.568 138.798 107.755C139.793 107.34 140.768 106.852 141.601 106.199C142.014 105.87 142.394 105.497 142.661 105.057C142.936 104.622 143.082 104.117 143.066 103.604C143.066 103.345 143.013 103.086 142.936 102.836C142.904 102.709 142.847 102.586 142.803 102.462C142.746 102.343 142.694 102.216 142.629 102.101C142.374 101.629 142.05 101.19 141.69 100.775C141.33 100.364 140.938 99.9783 140.525 99.6129C140.117 99.2475 139.688 98.8985 139.251 98.5618C140.174 99.1612 141.072 99.8141 141.86 100.611C142.257 101.005 142.617 101.444 142.912 101.933C142.989 102.052 143.049 102.183 143.118 102.31C143.175 102.442 143.24 102.573 143.288 102.713C143.389 102.988 143.458 103.279 143.478 103.575C143.527 104.175 143.373 104.79 143.074 105.304C142.783 105.825 142.378 106.256 141.945 106.63C141.512 107.008 141.035 107.32 140.55 107.603C140.064 107.886 139.559 108.137 139.053 108.367C138.034 108.827 136.986 109.2 135.926 109.525C134.867 109.853 133.799 110.132 132.723 110.387C130.571 110.888 128.403 111.274 126.227 111.602C124.051 111.918 121.866 112.181 119.678 112.395C117.49 112.596 115.302 112.776 113.109 112.896C108.725 113.142 104.336 113.261 99.9471 113.166V113.175Z" fill="#575757"/>
<path d="M65.8204 169.454C66.7669 169.352 67.7215 169.413 68.672 169.532C69.6226 169.656 70.5569 169.877 71.4751 170.173C73.3075 170.768 75.0508 171.688 76.5757 172.899C76.9641 173.195 77.32 173.527 77.684 173.852C78.0238 174.201 78.3798 174.533 78.6953 174.907C79.0229 175.268 79.3182 175.654 79.6175 176.04C79.7672 176.233 79.8966 176.439 80.0341 176.64C80.1716 176.841 80.3092 177.038 80.4305 177.251C81.4417 178.91 82.1901 180.717 82.6269 182.589C81.8017 180.861 80.8795 179.206 79.7833 177.699C79.6539 177.506 79.5042 177.325 79.3627 177.145C79.2171 176.964 79.0836 176.775 78.9299 176.599C78.6225 176.25 78.3312 175.888 78.0036 175.564C77.6921 175.223 77.3524 174.911 77.0207 174.591C76.6728 174.291 76.333 173.979 75.965 173.7C74.525 172.554 72.9192 171.626 71.2122 170.92C70.3587 170.567 69.481 170.263 68.579 170.017C67.681 169.766 66.7628 169.573 65.8244 169.454H65.8204Z" fill="#1E1208"/>
<path d="M54.9518 333.641C57.2728 333.641 59.1544 332.173 59.1544 330.361C59.1544 328.549 57.2728 327.08 54.9518 327.08C52.6307 327.08 50.7491 328.549 50.7491 330.361C50.7491 332.173 52.6307 333.641 54.9518 333.641Z" fill="#EFEFEF"/>
<path d="M66.69 328C66.69 327.281 65.784 326.703 64.6676 326.703C63.5512 326.703 62.6451 327.281 62.6451 328C62.6451 328.719 63.5512 329.297 64.6676 329.297C65.784 329.297 66.69 328.714 66.69 328Z" fill="#EFEFEF"/>
<path d="M126.073 285.073L126.081 290.086C126.097 291.753 126.13 293.412 126.211 295.071C126.251 295.9 126.308 296.725 126.376 297.55C126.449 298.376 126.546 299.197 126.656 300.014C126.781 300.831 126.927 301.644 127.129 302.445C127.323 303.249 127.578 304.038 127.918 304.806C127.416 304.132 127.048 303.36 126.74 302.576C126.441 301.784 126.203 300.967 126.016 300.141C125.648 298.487 125.458 296.803 125.373 295.12C125.292 293.436 125.313 291.749 125.43 290.074C125.543 288.398 125.733 286.723 126.073 285.077V285.073Z" fill="#070202"/>
<path d="M56.7032 288.838C56.6465 291.728 56.3958 294.611 56.0358 297.477C55.8618 298.914 55.6313 300.338 55.3926 301.767C55.1418 303.192 54.8506 304.609 54.527 306.021C54.1913 307.429 53.8192 308.829 53.3904 310.217C52.9455 311.597 52.4722 312.972 51.8817 314.299C51.3032 315.629 50.6237 316.922 49.7945 318.121C49.3738 318.712 48.9208 319.283 48.4031 319.796C47.8894 320.305 47.319 320.757 46.688 321.098C47.8489 320.256 48.7266 319.111 49.4466 317.895C49.8107 317.288 50.1383 316.655 50.4376 316.011C50.737 315.366 51.0201 314.713 51.2749 314.048C51.5298 313.383 51.7684 312.71 51.9949 312.036C52.2214 311.359 52.4318 310.677 52.63 309.987C53.0304 308.616 53.3904 307.228 53.71 305.832C54.0457 304.44 54.3369 303.032 54.612 301.624C54.8951 300.215 55.1418 298.799 55.3886 297.386C55.8699 294.549 56.3027 291.704 56.6991 288.846L56.7032 288.838Z" fill="#070202"/>
<path d="M97.3827 272.151C99.5265 271.544 101.662 270.94 103.79 270.312C104.85 269.992 105.913 269.684 106.969 269.343C108.025 269.01 109.08 268.674 110.124 268.308C111.172 267.955 112.211 267.577 113.239 267.175C113.752 266.978 114.266 266.768 114.772 266.555C115.277 266.333 115.783 266.112 116.28 265.882C116.782 265.648 117.267 265.397 117.753 265.134C118.238 264.876 118.711 264.596 119.172 264.293C120.091 263.689 120.964 262.995 121.616 262.075C121.373 262.585 121.037 263.049 120.657 263.471C120.277 263.894 119.852 264.276 119.415 264.633C118.525 265.336 117.567 265.939 116.576 266.477C115.589 267.023 114.565 267.483 113.534 267.926C112.498 268.357 111.451 268.748 110.395 269.117C109.335 269.47 108.272 269.811 107.196 270.115C106.12 270.41 105.044 270.706 103.956 270.952C101.788 271.462 99.5952 271.889 97.3827 272.151Z" fill="#070202"/>
<path d="M213.552 192.115C213.552 192.115 214.009 196.993 210.737 205.656L213.552 192.115Z" fill="#313131"/>
<path d="M211.129 205.804L210.348 205.5C213.536 197.054 213.143 192.201 213.139 192.152L213.973 192.074C213.993 192.275 214.401 197.149 211.129 205.804Z" fill="#070202"/>
<path d="M216.537 190.937C216.537 190.937 216.994 195.814 213.722 204.478L216.537 190.937Z" fill="#313131"/>
<path d="M214.11 204.63L213.329 204.326C216.517 195.88 216.125 191.027 216.12 190.978L216.954 190.9C216.974 191.101 217.382 195.974 214.11 204.63Z" fill="#070202"/>
<path d="M219.522 189.758C219.522 189.758 219.979 194.636 216.707 203.299L219.522 189.758Z" fill="#313131"/>
<path d="M217.095 203.451L216.315 203.148C219.502 194.702 219.11 189.848 219.106 189.799L219.939 189.721C219.959 189.926 220.368 194.796 217.095 203.451Z" fill="#070202"/>
<path d="M222.337 188.748C222.337 188.748 222.795 193.626 219.522 202.289L222.337 188.748Z" fill="#313131"/>
<path d="M219.915 202.441L219.134 202.137C222.321 193.692 221.929 188.838 221.925 188.789L222.758 188.711C222.778 188.912 223.187 193.786 219.915 202.441Z" fill="#070202"/>
<path d="M224.991 187.57C224.991 187.57 225.448 192.448 222.176 201.111L224.991 187.57Z" fill="#313131"/>
<path d="M222.568 201.263L221.787 200.959C224.975 192.513 224.582 187.66 224.578 187.611L225.412 187.533C225.432 187.734 225.84 192.608 222.568 201.263Z" fill="#070202"/>
<path d="M227.976 186.391C227.976 186.391 228.433 191.269 225.161 199.933L227.976 186.391Z" fill="#313131"/>
<path d="M225.549 200.084L224.768 199.781C227.956 191.335 227.563 186.482 227.559 186.432L228.393 186.354C228.413 186.56 228.821 191.429 225.549 200.084Z" fill="#070202"/>
<path d="M230.961 185.381C230.961 185.381 231.418 190.259 228.146 198.923L230.961 185.381Z" fill="#313131"/>
<path d="M228.534 199.074L227.754 198.771C230.941 190.325 230.549 185.472 230.545 185.422L231.378 185.344C231.398 185.545 231.807 190.419 228.534 199.074Z" fill="#070202"/>
<path d="M233.78 184.371C233.78 184.371 234.238 189.249 230.965 197.912L233.78 184.371Z" fill="#313131"/>
<path d="M231.354 198.064L230.573 197.761C233.76 189.315 233.368 184.462 233.364 184.412L234.197 184.334C234.217 184.535 234.626 189.409 231.354 198.064Z" fill="#070202"/>
<path d="M236.43 183.193C236.43 183.193 236.887 188.071 233.615 196.734L236.43 183.193Z" fill="#313131"/>
<path d="M234.007 196.886L233.226 196.582C236.414 188.136 236.021 183.283 236.017 183.234L236.851 183.156C236.871 183.357 237.279 188.231 234.007 196.886Z" fill="#070202"/>
<path d="M239.415 182.014C239.415 182.014 239.872 186.892 236.6 195.556L239.415 182.014Z" fill="#313131"/>
<path d="M236.988 195.708L236.207 195.404C239.395 186.958 239.002 182.105 238.998 182.055L239.832 181.977C239.852 182.179 240.26 187.052 236.988 195.708Z" fill="#070202"/>
</g>
<defs>
<filter id="filter0_d_24_5441" x="0" y="0" width="314" height="440" filterUnits="userSpaceOnUse" color-interpolation-filters="sRGB">
<feFlood flood-opacity="0" result="BackgroundImageFix"/>
<feColorMatrix in="SourceAlpha" type="matrix" values="0 0 0 0 0 0 0 0 0 0 0 0 0 0 0 0 0 0 127 0" result="hardAlpha"/>
<feOffset dy="4"/>
<feGaussianBlur stdDeviation="2"/>
<feComposite in2="hardAlpha" operator="out"/>
<feColorMatrix type="matrix" values="0 0 0 0 0 0 0 0 0 0 0 0 0 0 0 0 0 0 0.5 0"/>
<feBlend mode="normal" in2="BackgroundImageFix" result="effect1_dropShadow_24_5441"/>
<feBlend mode="normal" in="SourceGraphic" in2="effect1_dropShadow_24_5441" result="shape"/>
</filter>
<linearGradient id="paint0_linear_24_5441" x1="50.9392" y1="211.963" x2="129.697" y2="211.963" gradientUnits="userSpaceOnUse">
<stop stop-color="#1E415F"/>
<stop offset="0.07" stop-color="#295376"/>
<stop offset="0.16" stop-color="#32638B"/>
<stop offset="0.26" stop-color="#396E99"/>
<stop offset="0.37" stop-color="#3D74A2"/>
<stop offset="0.56" stop-color="#3F77A5"/>
</linearGradient>
<linearGradient id="paint1_linear_24_5441" x1="54.2722" y1="232.751" x2="113.647" y2="232.751" gradientUnits="userSpaceOnUse">
<stop stop-color="#1E415F"/>
<stop offset="0.07" stop-color="#295376"/>
<stop offset="0.16" stop-color="#32638B"/>
<stop offset="0.26" stop-color="#396E99"/>
<stop offset="0.37" stop-color="#3D74A2"/>
<stop offset="0.56" stop-color="#3F77A5"/>
</linearGradient>
<linearGradient id="paint2_linear_24_5441" x1="47.9662" y1="93.4786" x2="141.027" y2="93.4786" gradientUnits="userSpaceOnUse">
<stop stop-color="#1E415F"/>
<stop offset="0.43" stop-color="#2F5D84"/>
<stop offset="0.78" stop-color="#3A709C"/>
<stop offset="1" stop-color="#3F77A5"/>
</linearGradient>
<clipPath id="clip0_24_5441">
<rect width="244" height="292" fill="white" transform="translate(42 65)"/>
</clipPath>
</defs>
</svg>
