<svg width="206" height="247" viewBox="0 0 206 247" fill="none" xmlns="http://www.w3.org/2000/svg">
<path d="M92.0126 256.365L92.0126 256.363L90.0832 41.7691C90.0832 41.769 90.0832 41.7688 90.0832 41.7686C90.0829 41.6979 90.1025 41.6529 90.1539 41.604C90.2196 41.5415 90.3517 41.4636 90.5914 41.4013C91.0734 41.2758 91.8283 41.2538 92.8309 41.3648C94.82 41.5851 97.6057 42.3073 100.71 43.4922C103.812 44.6761 106.615 46.0864 108.636 47.4023C109.648 48.0613 110.448 48.6867 110.99 49.2374C111.261 49.5128 111.456 49.7585 111.581 49.97C111.709 50.1851 111.745 50.334 111.746 50.4249L111.746 50.4262L113.677 265.017C113.677 265.088 113.658 265.133 113.606 265.182C113.54 265.244 113.408 265.322 113.169 265.385C112.687 265.51 111.932 265.532 110.929 265.421C108.94 265.201 106.154 264.479 103.05 263.294L102.596 263.121L102.596 263.122C99.6747 261.976 97.0445 260.639 95.1225 259.387C94.1105 258.728 93.3102 258.103 92.7686 257.552C92.4979 257.277 92.3026 257.031 92.1774 256.819C92.05 256.604 92.0132 256.455 92.0126 256.365Z" fill="#FFE6C0" stroke="#3E2512"/>
<g filter="url(#filter0_d_153_3)">
<path d="M5.12482 46.4822C3.87938 38.2921 9.50915 30.6431 17.6993 29.3976L138.313 11.0564C165.613 6.90492 191.11 25.6708 195.261 52.9712L196.013 57.9144C200.164 85.2148 181.399 110.712 154.098 114.863L33.4848 133.204C25.2947 134.45 17.6456 128.82 16.4002 120.63L5.12482 46.4822Z" fill="white"/>
</g>
<path d="M71.7827 86.9362C73.9614 88.6497 80.2971 93.5309 87.536 98.1862C99.7859 106.042 108.787 109.508 114.262 108.441C114.742 108.347 115.223 108.253 115.636 108.073L115.684 108.064L115.732 108.054L115.828 108.036C116.473 107.761 117.012 107.457 117.532 107.057C121.646 103.868 124.327 97.6764 125.256 89.1412C126.101 81.7162 125.603 72.5143 123.867 63.3548C122.037 53.9652 119.1 45.0399 115.471 38.1889C111.31 30.3974 106.461 25.4748 101.384 23.9784C100.694 23.7648 99.9844 23.7043 99.2359 23.701L99.1879 23.7104C98.737 23.6989 98.2474 23.7446 97.7191 23.8476C92.2921 24.9057 85.263 31.2986 76.7866 42.7973C70.6008 51.2138 65.8744 59.4452 65.7877 59.5118C65.797 59.5597 65.7103 59.6264 65.7197 59.6743C63.7332 59.7135 60.326 59.8805 57.3483 60.4611C54.947 60.9293 53.2834 61.6017 52.2041 62.4586C47.1921 66.6681 47.7286 72.2324 48.6907 77.1667L48.7094 77.2625L48.7187 77.3104L48.7374 77.4063C49.6994 82.3406 51.2925 87.6989 57.5094 89.6693C58.8409 90.1059 60.6259 90.0563 63.0272 89.5881C66.4371 88.9232 70.1578 87.5513 71.8214 86.8789L71.7827 86.9362Z" fill="#6C3F2A"/>
<path d="M133.377 66.8701C131.952 67.7446 131.023 69.1191 130.679 70.678C130.335 72.2369 130.634 73.7699 131.539 75.0854C132.881 77.1111 135.361 78.0697 137.762 77.6015C138.531 77.4517 139.223 77.1675 139.887 76.7396C146.463 72.6231 149.794 65.161 148.365 57.8314C146.936 50.5017 141.046 44.8375 133.405 43.4927C132.629 43.3457 131.88 43.3424 131.112 43.4923C128.663 43.9698 126.772 45.7805 126.289 48.1621C125.993 49.7116 126.292 51.2446 127.149 52.5694C128.063 53.9328 129.43 54.8099 131.079 55.0851C133.811 55.547 135.902 57.576 136.406 60.1629C136.911 62.7499 135.726 65.3678 133.377 66.8701Z" fill="#6C3F2A"/>
<path d="M141.489 28.4477C140.713 28.3007 139.916 28.3068 139.148 28.4566C136.699 28.9342 134.788 30.8979 134.324 33.3753C133.731 36.7233 135.863 39.9875 139.188 40.6817C147.029 42.2858 153.089 48.5635 154.667 56.6596C156.246 64.7557 152.931 72.8114 146.324 77.282C143.542 79.1175 142.753 83.0007 144.561 85.8805C145.931 88.05 148.43 89.1044 150.879 88.6268C151.648 88.477 152.388 88.1835 153.043 87.7077C163.848 80.4792 169.224 67.397 166.674 54.3186C164.124 41.2402 154.266 31.0785 141.499 28.4956L141.489 28.4477Z" fill="#6C3F2A"/>
<path d="M121.616 60.7582C121.523 60.2792 121.43 59.8001 121.336 59.321L121.317 59.2252C121.224 58.7462 121.131 58.2671 120.989 57.7974C120.613 56.379 120.237 54.9605 119.86 53.542C119.295 51.6632 118.69 49.8417 118.095 48.0681C117.963 47.6463 117.783 47.2339 117.651 46.8121C117.623 46.6684 117.604 46.5726 117.528 46.4382C117.415 46.1122 117.311 45.8342 117.149 45.5175C117.121 45.3738 117.055 45.2874 116.979 45.153C116.808 44.7885 116.685 44.4146 116.514 44.0501L116.496 43.9543C116.315 43.5418 116.135 43.1294 115.965 42.7649C115.946 42.6691 115.927 42.5733 115.86 42.4868C115.699 42.1702 115.595 41.8921 115.434 41.5755C115.415 41.4797 115.339 41.3453 115.272 41.2589C115.111 40.9423 114.94 40.5778 114.778 40.2611C114.769 40.2132 114.76 40.1653 114.75 40.1174C114.58 39.7529 114.352 39.3498 114.181 38.9853C114.171 38.9374 114.153 38.8416 114.095 38.8031C113.934 38.4864 113.782 38.2177 113.62 37.9011C113.602 37.8053 113.535 37.7189 113.468 37.6324C113.307 37.3158 113.097 37.0085 112.945 36.7398C112.936 36.6919 112.927 36.644 112.869 36.6055C112.65 36.2503 112.432 35.8952 112.222 35.5879C112.222 35.5879 112.213 35.54 112.203 35.4921C111.994 35.1848 111.833 34.8682 111.632 34.6089C111.614 34.5131 111.556 34.4745 111.49 34.3881C111.29 34.1287 111.137 33.86 110.937 33.6007C110.937 33.6007 110.919 33.5049 110.861 33.4663C110.394 32.8612 109.975 32.2467 109.47 31.6988C109.46 31.6509 109.403 31.6124 109.336 31.5259C109.136 31.2666 108.945 31.0551 108.755 30.8437C108.755 30.8437 108.688 30.7572 108.631 30.7187C106.284 28.1429 103.78 26.2939 101.088 25.5259C100.349 34.5214 100.464 43.5494 101.309 52.4847C104.333 52.1437 107.295 52.7597 109.801 54.1109C113.476 56.0798 116.259 59.6148 117.118 64.0222C117.688 66.9445 117.317 69.901 116.219 72.4522C114.538 76.3603 111.154 79.4568 106.801 80.6536C108.308 85.8296 110.152 90.9401 112.236 96.0038C113.468 98.996 114.843 101.96 116.267 104.915L116.685 105.778C116.685 105.778 117.07 105.454 117.292 105.312C117.292 105.312 117.34 105.302 117.378 105.245C117.542 105.064 117.764 104.921 117.928 104.74C117.928 104.74 118.015 104.673 118.005 104.626C118.169 104.444 118.333 104.263 118.497 104.082C118.497 104.082 118.536 104.025 118.575 103.968C118.739 103.786 118.894 103.557 119.096 103.319C119.096 103.319 119.406 102.861 119.561 102.632L119.638 102.517C119.638 102.517 119.948 102.059 120.054 101.839C120.054 101.839 120.084 101.734 120.132 101.725C120.286 101.496 120.384 101.228 120.539 100.999C120.539 100.999 120.568 100.894 120.616 100.884C120.761 100.607 120.859 100.34 121.004 100.063C121.14 99.7378 121.238 99.4702 121.335 99.2026C121.335 99.2026 121.326 99.1547 121.364 99.0974C121.462 98.8298 121.607 98.5528 121.695 98.2373C121.695 98.2373 121.724 98.1321 121.763 98.0748C121.861 97.8072 121.949 97.4917 122.046 97.224C122.046 97.224 122.075 97.1189 122.114 97.0616C122.202 96.7461 122.29 96.4305 122.378 96.115C122.457 95.7516 122.545 95.436 122.624 95.0726C122.624 95.0726 122.614 95.0247 122.653 94.9674C122.741 94.6519 122.82 94.2885 122.86 93.9823C122.85 93.9344 122.889 93.8771 122.928 93.8199C123.016 93.5043 123.046 93.1503 123.134 92.8347C123.125 92.7868 123.116 92.7389 123.154 92.6816C123.233 92.3182 123.264 91.9641 123.342 91.6007C123.342 91.6007 123.333 91.5528 123.324 91.5049C123.402 91.1415 123.433 90.7874 123.464 90.4333C123.464 90.4333 123.454 90.3854 123.445 90.3375C123.476 89.9834 123.555 89.62 123.576 89.218C123.566 89.1701 123.557 89.1222 123.587 89.017C123.617 88.663 123.648 88.3089 123.717 87.8976C123.708 87.8496 123.699 87.8017 123.728 87.6966C123.749 87.2946 123.78 86.9405 123.801 86.5385C123.801 86.5385 123.792 86.4906 123.783 86.4427C123.804 86.0407 123.825 85.6388 123.847 85.2368L123.828 85.141C123.849 84.739 123.87 84.337 123.892 83.935C123.882 83.8871 123.873 83.8392 123.854 83.7434C123.876 83.3414 123.849 82.9488 123.87 82.5469C123.861 82.4989 123.852 82.451 123.833 82.3552C123.854 81.9533 123.818 81.5127 123.84 81.1108C123.84 81.1108 123.83 81.0628 123.821 81.0149C123.833 80.5651 123.806 80.1725 123.818 79.7226C123.773 79.2341 123.794 78.8322 123.758 78.3916C123.749 78.3437 123.74 78.2958 123.73 78.2479C123.694 77.8074 123.715 77.4054 123.679 76.9649C123.67 76.917 123.661 76.8691 123.651 76.8212C123.615 76.3807 123.579 75.9401 123.543 75.4996C123.543 75.4996 123.534 75.4517 123.525 75.4038C123.443 74.4749 123.371 73.5938 123.29 72.6649C123.29 72.6649 123.271 72.5691 123.262 72.5212C123.178 72.09 123.19 71.6401 123.106 71.209C123.096 71.1611 123.087 71.1132 123.078 71.0653C122.994 70.6341 122.948 70.1457 122.912 69.7052C122.764 68.6898 122.635 67.7702 122.496 66.8027L122.477 66.7069C122.384 66.2278 122.3 65.7967 122.206 65.3176L122.188 65.2218C122.094 64.7427 122.01 64.3116 121.917 63.8325C121.721 62.8265 121.534 61.8684 121.347 60.9102L121.616 60.7582Z" fill="#E74F4F"/>
<path d="M114.348 105.046C102.493 80.8028 97.2435 53.8795 99.1236 26.9586C99.165 26.4035 99.2063 25.8485 99.2476 25.2934C98.7007 25.3006 98.115 25.3651 97.548 25.5253C97.452 25.5441 97.3559 25.5628 97.2118 25.5909C97.1158 25.6096 97.0197 25.6283 96.9717 25.6377C96.8756 25.6564 96.7316 25.6845 96.6449 25.7512C96.5488 25.7699 96.5008 25.7792 96.4047 25.798C96.2606 25.8261 96.1739 25.8927 96.0392 25.9687C95.9431 25.9874 95.8951 25.9968 95.8084 26.0634C95.6643 26.0915 95.5296 26.1675 95.4429 26.2341C95.3948 26.2435 95.2988 26.2622 95.2601 26.3195C95.116 26.3476 94.9906 26.4715 94.8559 26.5475C94.8079 26.5569 94.7118 26.5756 94.6731 26.6329C94.5384 26.7089 94.3556 26.7942 94.2209 26.8702C94.1728 26.8796 94.1248 26.8889 94.0861 26.9462C93.9034 27.0316 93.778 27.1555 93.5952 27.2408C93.5952 27.2408 93.4991 27.2596 93.4605 27.3168C93.287 27.4501 93.1043 27.5355 92.9308 27.6687C92.9308 27.6687 92.8828 27.6781 92.8348 27.6875C92.6614 27.8207 92.4879 27.954 92.3145 28.0873L92.2184 28.106C92.2184 28.106 91.8329 28.4298 91.6595 28.5631L91.6115 28.5724C91.6115 28.5724 91.2259 28.8962 91.0138 29.0868C91.0138 29.0868 90.5896 29.4678 90.3681 29.6105C90.3681 29.6105 89.9826 29.9343 89.7705 30.1248L89.7224 30.1342C78.9047 39.8516 67.2442 60.0766 67.2442 60.0766L72.0544 84.7483C72.0544 84.7483 79.0386 90.3982 87.6063 95.9879C87.9025 96.2285 88.1893 96.4212 88.4668 96.566C88.7536 96.7587 89.0405 96.9515 89.3273 97.1442C89.3847 97.1827 89.442 97.2212 89.4994 97.2598C89.7289 97.414 89.9583 97.5681 90.1878 97.7223C90.2932 97.7515 90.3599 97.8379 90.4653 97.8671C90.6948 98.0213 90.9149 98.1275 91.0963 98.2911C91.2111 98.3682 91.2684 98.4067 91.3832 98.4838C91.6033 98.59 91.7847 98.7536 92.0049 98.8598C92.1196 98.9369 92.225 98.9661 92.2917 99.0526C92.5118 99.1588 92.6933 99.3224 92.9134 99.4286C93.0281 99.5057 93.1335 99.5349 93.2483 99.612C93.4684 99.7182 93.6498 99.8818 93.87 99.988C93.9847 100.065 94.0901 100.094 94.1568 100.181C94.3769 100.287 94.6064 100.441 94.8265 100.547C94.9319 100.577 94.9986 100.663 95.104 100.692C95.3335 100.846 95.5536 100.953 95.8311 101.097C95.8885 101.136 95.9939 101.165 96.0512 101.204C96.3287 101.349 96.6636 101.532 96.9411 101.677C97.276 101.86 97.5628 102.053 97.8883 102.188C98.1751 102.381 98.5007 102.516 98.7782 102.661C98.8355 102.7 98.9409 102.729 98.9983 102.767C99.2184 102.874 99.4385 102.98 99.6587 103.086C99.7641 103.115 99.8788 103.192 99.9362 103.231C100.156 103.337 100.319 103.405 100.539 103.511C100.645 103.54 100.759 103.618 100.865 103.647C101.085 103.753 101.248 103.821 101.41 103.888C101.516 103.918 101.63 103.995 101.736 104.024C101.899 104.092 102.119 104.198 102.282 104.266C102.387 104.295 102.502 104.372 102.607 104.401C102.77 104.469 102.981 104.527 103.153 104.643C103.258 104.672 103.373 104.749 103.478 104.778C103.641 104.846 103.852 104.904 104.015 104.972C104.12 105.001 104.225 105.03 104.34 105.107C104.551 105.166 104.714 105.233 104.924 105.292C105.03 105.321 105.135 105.35 105.193 105.389C105.403 105.447 105.623 105.553 105.834 105.612C105.882 105.602 105.988 105.632 106.045 105.67C106.581 105.864 107.156 106 107.683 106.146C107.779 106.128 107.837 106.166 107.942 106.195C108.153 106.254 108.306 106.273 108.517 106.332C108.613 106.313 108.728 106.39 108.824 106.371C108.977 106.391 109.14 106.459 109.294 106.479C109.39 106.46 109.495 106.489 109.6 106.518C109.754 106.538 109.907 106.558 110.061 106.578C110.157 106.559 110.262 106.588 110.368 106.617C110.512 106.589 110.674 106.657 110.78 106.686C110.876 106.668 110.981 106.697 111.087 106.726C111.231 106.698 111.336 106.727 111.489 106.747C111.586 106.728 111.682 106.709 111.787 106.739C111.931 106.71 112.036 106.74 112.181 106.712C112.277 106.693 112.373 106.674 112.469 106.655C112.613 106.627 112.709 106.609 112.853 106.58C112.949 106.562 112.997 106.552 113.093 106.534C113.141 106.524 113.189 106.515 113.285 106.496C113.861 106.384 114.39 106.281 114.899 106.082L114.415 105.132C114.415 105.132 114.244 104.768 114.159 104.585L114.348 105.046Z" fill="#FCD397"/>
<path d="M70.419 85.3092L65.7395 61.3082C63.8011 61.338 60.4899 61.4863 57.6563 62.0388C55.8313 62.3946 54.1877 62.914 53.2432 63.6949C49.2144 67.0662 49.2772 71.4796 50.3233 76.8451L50.342 76.941L50.3607 77.0368C51.4068 82.4023 53.0546 86.5067 58.0067 88.127C59.1274 88.5052 60.8457 88.3691 62.7187 88.0039C65.5523 87.4515 68.7247 86.3357 70.5324 85.6351C70.5137 85.5393 70.4857 85.3956 70.467 85.2998L70.419 85.3092Z" fill="#FCD397"/>
<path d="M121.617 60.7585C121.523 60.2794 121.43 59.8004 121.346 59.3692L121.327 59.2734C121.234 58.7944 121.14 58.3153 120.999 57.8456C120.623 56.4271 120.246 55.0087 119.87 53.5902C119.304 51.7114 118.7 49.8899 118.105 48.1163C115.391 40.5896 111.828 34.0739 107.772 29.8919C112.467 36.5849 111.504 46.2208 109.687 54.0341C113.361 56.003 116.144 59.538 117.004 63.9454C117.573 66.8677 117.203 69.8242 116.105 72.3754C119.843 80.2991 121.534 88.9701 114.143 94.787C113.545 95.3014 112.872 95.6814 112.113 95.8791C113.344 98.8713 114.72 101.835 116.143 104.79L116.561 105.653C116.561 105.653 116.946 105.33 117.168 105.187C117.168 105.187 117.216 105.178 117.255 105.12C117.419 104.939 117.64 104.797 117.804 104.615C117.804 104.615 117.891 104.549 117.882 104.501C118.046 104.32 118.21 104.139 118.374 103.957C118.374 103.957 118.412 103.9 118.451 103.843C118.615 103.662 118.77 103.433 118.973 103.194C118.973 103.194 119.282 102.736 119.437 102.507L119.514 102.392C119.514 102.392 119.824 101.934 119.931 101.714C119.931 101.714 119.96 101.609 120.008 101.6C120.163 101.371 120.26 101.103 120.415 100.874C120.415 100.874 120.444 100.769 120.492 100.76C120.638 100.483 120.735 100.215 120.88 99.938C121.016 99.6131 121.114 99.3455 121.211 99.0779C121.211 99.0779 121.202 99.03 121.241 98.9727C121.338 98.7051 121.483 98.4281 121.571 98.1125C121.571 98.1125 121.601 98.0074 121.639 97.9501C121.737 97.6825 121.825 97.3669 121.922 97.0993C121.922 97.0993 121.952 96.9942 121.99 96.9369C122.078 96.6214 122.166 96.3058 122.254 95.9903C122.333 95.6269 122.421 95.3113 122.5 94.9479C122.5 94.9479 122.49 94.9 122.529 94.8427C122.617 94.5272 122.696 94.1638 122.736 93.8576C122.727 93.8097 122.765 93.7524 122.804 93.6951C122.892 93.3796 122.923 93.0256 123.011 92.71C123.001 92.6621 122.992 92.6142 123.031 92.5569C123.109 92.1935 123.14 91.8394 123.219 91.476C123.219 91.476 123.209 91.4281 123.2 91.3802C123.279 91.0168 123.309 90.6627 123.34 90.3086C123.34 90.3086 123.331 90.2607 123.321 90.2128C123.352 89.8587 123.431 89.4953 123.452 89.0933C123.443 89.0454 123.433 88.9975 123.463 88.8923C123.493 88.5383 123.524 88.1842 123.593 87.7728C123.584 87.7249 123.575 87.677 123.604 87.5719C123.625 87.1699 123.656 86.8158 123.677 86.4138C123.677 86.4138 123.668 86.3659 123.659 86.318C123.68 85.916 123.701 85.5141 123.723 85.1121L123.704 85.0163C123.725 84.6143 123.747 84.2123 123.768 83.8103C123.759 83.7624 123.749 83.7145 123.731 83.6187C123.752 83.2167 123.725 82.8241 123.747 82.4221C123.737 82.3742 123.728 82.3263 123.709 82.2305C123.731 81.8285 123.695 81.388 123.716 80.986C123.716 80.986 123.707 80.9381 123.697 80.8902C123.709 80.4404 123.683 80.0477 123.695 79.5979C123.649 79.1094 123.671 78.7075 123.634 78.2669C123.625 78.219 123.616 78.1711 123.606 78.1232C123.57 77.6827 123.592 77.2807 123.556 76.8402C123.546 76.7923 123.537 76.7444 123.528 76.6965C123.492 76.256 123.456 75.8154 123.42 75.3749C123.42 75.3749 123.41 75.327 123.401 75.2791C123.319 74.3502 123.247 73.4691 123.166 72.5402C123.166 72.5402 123.147 72.4444 123.138 72.3965C123.054 71.9653 123.066 71.5154 122.982 71.0843C122.973 71.0364 122.963 70.9885 122.954 70.9405C122.87 70.5094 122.824 70.021 122.788 69.5804C122.64 68.565 122.511 67.6455 122.372 66.678L122.353 66.5822C122.26 66.1031 122.176 65.6719 122.082 65.1929L122.064 65.0971C121.97 64.618 121.886 64.1869 121.793 63.7078C121.597 62.7018 121.41 61.7436 121.223 60.7855L121.617 60.7585Z" fill="#E74F4F"/>
<path d="M146.781 58.1466C145.474 51.4398 140.147 46.362 133.168 45.087C132.602 44.9984 132.007 45.015 131.479 45.118C129.75 45.4551 128.313 46.7795 127.958 48.5394C127.466 50.8731 129.038 53.053 131.425 53.5325C134.837 54.1601 137.463 56.6318 138.098 59.8894C138.733 63.147 137.238 66.4719 134.301 68.2876C132.212 69.59 131.632 72.2392 132.965 74.2171C133.955 75.7148 135.784 76.4025 137.513 76.0654C138.041 75.9624 138.599 75.7542 139.09 75.4596C145.088 71.7043 148.108 64.9493 146.8 58.2425L146.781 58.1466Z" fill="#E74F4F"/>
<path d="M165.031 54.5852C162.612 42.1775 153.25 32.5157 141.154 30.0506C140.579 29.9141 139.984 29.9306 139.455 30.0336C137.726 30.3707 136.299 31.743 135.972 33.6467C135.508 36.1241 137.126 38.5435 139.522 39.0709C147.986 40.8022 154.59 47.5705 156.299 56.3373C158.008 65.1042 154.421 73.8096 147.238 78.6415C145.158 79.9918 144.615 82.8326 145.985 85.0021C147.003 86.6435 148.841 87.3791 150.57 87.042C151.099 86.939 151.656 86.7308 152.138 86.3883C162.422 79.5596 167.469 67.0887 165.049 54.681L165.031 54.5852Z" fill="#E74F4F"/>
<path d="M106.138 79.0462C112.528 77.3031 116.612 70.8877 115.332 64.3246C114.053 57.7614 107.858 53.35 101.281 54.135C102.177 62.5632 103.802 70.8989 106.148 79.0941L106.138 79.0462Z" fill="#E74F4F"/>
<path d="M96.0112 43.7226C94.8469 53.3481 84.4199 61.7461 89.7113 71.7539C93.7525 78.6737 104.698 88.2754 93.7184 94.0958C91.7359 95.1785 89.6308 95.8874 87.5563 96.2421C87.8431 96.4348 88.178 96.6181 88.4648 96.8109C88.7517 97.0036 89.0385 97.1963 89.3253 97.389C89.3827 97.4275 89.4401 97.4661 89.4974 97.5046C89.7269 97.6588 89.9564 97.813 90.1858 97.9671C90.2912 97.9963 90.3579 98.0828 90.4633 98.1119C90.6928 98.2661 90.9129 98.3724 91.0944 98.5359C91.2091 98.613 91.2665 98.6515 91.3812 98.7286C91.6013 98.8349 91.7828 98.9984 92.0029 99.1047C92.1176 99.1818 92.223 99.2109 92.2897 99.2974C92.5099 99.4036 92.6913 99.5672 92.9114 99.6734C93.0262 99.7505 93.1316 99.7797 93.2463 99.8568C93.4664 99.9631 93.6479 100.127 93.868 100.233C93.9827 100.31 94.0881 100.339 94.1548 100.426C94.375 100.532 94.6044 100.686 94.8246 100.792C94.93 100.821 94.9967 100.908 95.1021 100.937C95.3315 101.091 95.5517 101.197 95.8291 101.342C95.8865 101.381 95.9919 101.41 96.0493 101.449C96.3268 101.593 96.6616 101.777 96.9391 101.922C97.274 102.105 97.5608 102.298 97.8863 102.433C98.1732 102.626 98.4987 102.761 98.7762 102.906C98.8336 102.945 98.939 102.974 98.9963 103.012C99.2165 103.119 99.4366 103.225 99.6567 103.331C99.7621 103.36 99.8768 103.437 99.9342 103.476C100.154 103.582 100.317 103.65 100.537 103.756C100.643 103.785 100.757 103.862 100.863 103.892C101.083 103.998 101.246 104.066 101.408 104.133C101.514 104.162 101.629 104.239 101.734 104.269C101.897 104.336 102.117 104.443 102.28 104.51C102.385 104.54 102.5 104.617 102.605 104.646C102.768 104.714 102.979 104.772 103.151 104.888C103.256 104.917 103.371 104.994 103.476 105.023C103.639 105.091 103.85 105.149 104.013 105.217C104.118 105.246 104.223 105.275 104.338 105.352C104.549 105.411 104.712 105.478 104.922 105.537C105.028 105.566 105.133 105.595 105.191 105.634C105.401 105.692 105.621 105.798 105.832 105.857C105.88 105.847 105.986 105.876 106.043 105.915C106.579 106.109 107.154 106.245 107.681 106.391C107.777 106.372 107.835 106.411 107.94 106.44C108.151 106.498 108.304 106.518 108.515 106.577C108.611 106.558 108.726 106.635 108.822 106.616C108.975 106.636 109.138 106.704 109.292 106.724C109.388 106.705 109.493 106.734 109.598 106.763C109.752 106.783 109.905 106.803 110.059 106.823C110.155 106.804 110.26 106.833 110.366 106.862C110.51 106.834 110.672 106.902 110.778 106.931C110.874 106.912 110.979 106.942 111.085 106.971C111.229 106.943 111.334 106.972 111.488 106.992C111.584 106.973 111.68 106.954 111.785 106.983C111.929 106.955 112.034 106.984 112.179 106.956C112.275 106.938 112.371 106.919 112.467 106.9C112.611 106.872 112.707 106.853 112.851 106.825C112.947 106.807 112.995 106.797 113.091 106.778C113.139 106.769 113.187 106.76 113.283 106.741C113.86 106.629 114.388 106.526 114.897 106.327L114.413 105.377C114.413 105.377 114.242 105.012 114.157 104.83C102.301 80.5873 97.0521 53.664 98.9322 26.7431C98.9736 26.188 99.0149 25.633 99.0562 25.0779C98.5093 25.0851 97.9236 25.1496 97.3566 25.3098C97.2606 25.3286 97.1645 25.3473 97.0204 25.3754C96.9244 25.3941 96.8283 25.4128 96.7803 25.4222C96.6842 25.4409 96.5402 25.469 96.4534 25.5356C96.3574 25.5544 96.3094 25.5637 96.2133 25.5825C96.0692 25.6106 95.9825 25.6772 95.8478 25.7532C95.7517 25.7719 95.7037 25.7813 95.617 25.8479C95.4729 25.876 95.3382 25.952 95.2514 26.0186C95.2034 26.028 95.1074 26.0467 95.0687 26.104C94.9246 26.1321 94.7992 26.256 94.6645 26.332C94.6164 26.3414 94.5204 26.3601 94.4817 26.4174C94.347 26.4934 94.1642 26.5787 94.0294 26.6547C93.9814 26.6641 93.9334 26.6734 93.8947 26.7307C93.7119 26.8161 93.5865 26.94 93.4038 27.0253C93.4038 27.0253 93.3077 27.0441 93.269 27.1013C93.0956 27.2346 92.9128 27.32 92.7394 27.4532C92.7394 27.4532 92.6914 27.4626 92.6434 27.472C92.4699 27.6052 92.2965 27.7385 92.1231 27.8718L92.027 27.8905C92.027 27.8905 91.6415 28.2143 91.4681 28.3476L91.42 28.3569C91.42 28.3569 91.0345 28.6807 90.8224 28.8713C90.8224 28.8713 90.3982 29.2523 90.1767 29.395C90.1767 29.395 89.7525 29.7761 89.5404 29.9666C92.9451 33.8777 96.3018 37.7981 95.8311 43.3102L96.0112 43.7226Z" fill="#FBC474"/>
<path d="M80.4945 81.5027C79.8702 81.6244 80.057 82.5825 80.6813 82.4608C81.3057 82.3391 81.1189 81.381 80.4945 81.5027Z" fill="white"/>
<path d="M100.822 97.2913C100.198 97.413 100.384 98.3711 101.009 98.2494C101.633 98.1277 101.446 97.1695 100.822 97.2913Z" fill="white"/>
<path d="M99.1903 70.2579C99.8147 70.1362 99.6279 69.1781 99.0035 69.2998C98.3792 69.4215 98.566 70.3797 99.1903 70.2579Z" fill="white"/>
<path d="M81.3175 60.4105C80.6932 60.5323 80.88 61.4904 81.5043 61.3687C82.1287 61.2469 81.9419 60.2888 81.3175 60.4105Z" fill="white"/>
<path d="M92.203 41.8344C91.5787 41.9561 91.7655 42.9142 92.3898 42.7925C93.0142 42.6708 92.8274 41.7126 92.203 41.8344Z" fill="white"/>
<path d="M62.969 66.2749C62.3446 66.3966 62.5315 67.3548 63.1558 67.233C63.7801 67.1113 63.5933 66.1532 62.969 66.2749Z" fill="white"/>
<path d="M63.3657 78.2822C62.7414 78.404 62.9282 79.3621 63.5525 79.2404C64.1769 79.1186 63.9901 78.1605 63.3657 78.2822Z" fill="white"/>
<path d="M92.3329 35.0871C92.9039 34.1802 91.8059 33.1511 90.9387 33.8174C83.4321 39.8062 76.195 49.2233 72.6546 58.1683C72.3038 59.1815 73.6433 59.9149 74.2809 59.0944C75.8938 57.1389 77.4012 55.1543 78.9567 53.1603C83.3056 47.3397 88.3189 41.0911 92.3236 35.0392L92.3329 35.0871Z" fill="white"/>
<path d="M71.7989 64.0058C72.8599 63.7989 73.5527 62.7733 73.3464 61.715C73.14 60.6567 72.1127 59.9664 71.0517 60.1733C69.9907 60.3802 69.2979 61.4058 69.5042 62.4641C69.7106 63.5224 70.7379 64.2127 71.7989 64.0058Z" fill="white"/>
<path d="M139.612 69.1896C140.236 69.0679 140.049 68.1097 139.425 68.2315C138.801 68.3532 138.988 69.3113 139.612 69.1896Z" fill="#E74F4F"/>
<path d="M143.133 56.5629C143.757 56.4411 143.57 55.483 142.946 55.6047C142.321 55.7265 142.508 56.6846 143.133 56.5629Z" fill="#E74F4F"/>
<path d="M133.042 48.5325C132.418 48.6542 132.605 49.6123 133.229 49.4906C133.853 49.3689 133.666 48.4108 133.042 48.5325Z" fill="#E74F4F"/>
<path d="M143.818 36.044C143.194 36.1657 143.38 37.1238 144.005 37.0021C144.629 36.8803 144.442 35.9222 143.818 36.044Z" fill="#E74F4F"/>
<path d="M156.901 44.0808C157.525 43.9591 157.338 43.001 156.714 43.1227C156.09 43.2444 156.277 44.2025 156.901 44.0808Z" fill="#E74F4F"/>
<path d="M160.647 63.2949C161.271 63.1732 161.085 62.2151 160.46 62.3368C159.836 62.4585 160.023 63.4167 160.647 63.2949Z" fill="#E74F4F"/>
<path d="M160.2 75.3222C160.825 75.2004 160.638 74.2423 160.014 74.364C159.389 74.4858 159.576 75.4439 160.2 75.3222Z" fill="#E74F4F"/>
<path d="M150.775 80.9318C150.151 81.0535 150.338 82.0116 150.962 81.8899C151.586 81.7682 151.4 80.81 150.775 80.9318Z" fill="#E74F4F"/>
<path d="M161.843 54.8528C162.467 54.7311 162.28 53.7729 161.656 53.8947C161.032 54.0164 161.218 54.9745 161.843 54.8528Z" fill="#E74F4F"/>
<path d="M157.191 74.4646C157.816 74.3429 157.629 73.3848 157.005 73.5065C156.38 73.6282 156.567 74.5863 157.191 74.4646Z" fill="#E74F4F"/>
<defs>
<filter id="filter0_d_153_3" x="0.952271" y="10.4812" width="199.636" height="130.896" filterUnits="userSpaceOnUse" color-interpolation-filters="sRGB">
<feFlood flood-opacity="0" result="BackgroundImageFix"/>
<feColorMatrix in="SourceAlpha" type="matrix" values="0 0 0 0 0 0 0 0 0 0 0 0 0 0 0 0 0 0 127 0" result="hardAlpha"/>
<feOffset dy="4"/>
<feGaussianBlur stdDeviation="2"/>
<feComposite in2="hardAlpha" operator="out"/>
<feColorMatrix type="matrix" values="0 0 0 0 0 0 0 0 0 0 0 0 0 0 0 0 0 0 0.5 0"/>
<feBlend mode="normal" in2="BackgroundImageFix" result="effect1_dropShadow_153_3"/>
<feBlend mode="normal" in="SourceGraphic" in2="effect1_dropShadow_153_3" result="shape"/>
</filter>
</defs>
</svg>
