<svg width="1440" height="900" viewBox="0 0 1440 900" fill="none" xmlns="http://www.w3.org/2000/svg">
<path d="M1440 0H1V780H1440V0Z" fill="#A4D1FB"/>
<path d="M1440 780H0V900H1440V780Z" fill="#A8E2E4"/>
<path d="M1440 900H408L596.399 780H1354.99L1440 900Z" fill="#8DCED0"/>
<path d="M46.3845 284.172L19.1923 257L-7.99998 284.172L19.1922 311.343L46.3845 284.172Z" fill="#CAD9FF"/>
<path d="M100.831 284.171L73.6385 257L46.4463 284.171L73.6385 311.343L100.831 284.171Z" fill="#CAD9FF"/>
<path d="M46.3894 338.571L19.1971 311.4L-7.9951 338.571L19.1971 365.743L46.3894 338.571Z" fill="#CAD9FF"/>
<path d="M320.806 52.0545L293.614 24.8831L266.422 52.0545L293.614 79.2259L320.806 52.0545Z" fill="#D1E9FF" fill-opacity="0.42"/>
<path d="M320.823 106.442L293.631 79.271L266.438 106.442L293.631 133.614L320.823 106.442Z" fill="#D1E9FF" fill-opacity="0.42"/>
<path d="M266.393 106.443L239.201 79.2715L212.009 106.443L239.201 133.614L266.393 106.443Z" fill="#D1E9FF" fill-opacity="0.42"/>
<path d="M320.823 160.831L293.631 133.659L266.438 160.831L293.631 188.002L320.823 160.831Z" fill="#D1E9FF" fill-opacity="0.42"/>
<path d="M375.253 160.83L348.06 133.659L320.868 160.83L348.06 188.002L375.253 160.83Z" fill="#D1E9FF" fill-opacity="0.42"/>
<path d="M320.812 215.23L293.62 188.059L266.428 215.23L293.62 242.401L320.812 215.23Z" fill="#D1E9FF" fill-opacity="0.42"/>
<path d="M634.092 267.124L606.899 239.952L579.707 267.124L606.899 294.295L634.092 267.124Z" fill="white" fill-opacity="0.38"/>
<path d="M634.093 321.512L606.9 294.34L579.708 321.512L606.9 348.683L634.093 321.512Z" fill="white" fill-opacity="0.38"/>
<path d="M579.651 321.501L552.459 294.329L525.267 321.501L552.459 348.672L579.651 321.501Z" fill="white" fill-opacity="0.38"/>
<path d="M1176.85 264.803L1149.66 237.631L1122.46 264.803L1149.66 291.974L1176.85 264.803Z" fill="white" fill-opacity="0.38"/>
<path d="M1176.85 319.191L1149.66 292.02L1122.46 319.191L1149.66 346.362L1176.85 319.191Z" fill="white" fill-opacity="0.38"/>
<path d="M1122.42 319.208L1095.23 292.036L1068.03 319.208L1095.23 346.379L1122.42 319.208Z" fill="white" fill-opacity="0.38"/>
<path d="M634.081 375.911L606.889 348.74L579.696 375.911L606.889 403.083L634.081 375.911Z" fill="white" fill-opacity="0.38"/>
<path d="M688.527 375.911L661.335 348.74L634.143 375.911L661.335 403.082L688.527 375.911Z" fill="white" fill-opacity="0.38"/>
<path d="M634.097 430.299L606.905 403.128L579.713 430.299L606.905 457.471L634.097 430.299Z" fill="white" fill-opacity="0.38"/>
<path d="M967.532 46.5444L940.34 19.373L913.147 46.5445L940.34 73.7159L967.532 46.5444Z" fill="#D1E9FF" fill-opacity="0.42"/>
<path d="M1021.98 46.5442L994.785 19.3728L967.593 46.5442L994.785 73.7156L1021.98 46.5442Z" fill="#D1E9FF" fill-opacity="0.42"/>
<path d="M967.537 100.944L940.345 73.7727L913.152 100.944L940.345 128.116L967.537 100.944Z" fill="#D1E9FF" fill-opacity="0.42"/>
<path d="M1323.38 106.172L1296.19 79.0005L1269 106.172L1296.19 133.343L1323.38 106.172Z" fill="#D1E9FF" fill-opacity="0.42"/>
<path d="M1377.83 106.171L1350.64 79L1323.45 106.171L1350.64 133.343L1377.83 106.171Z" fill="#D1E9FF" fill-opacity="0.42"/>
<path d="M1323.39 160.571L1296.2 133.4L1269 160.571L1296.2 187.743L1323.39 160.571Z" fill="#D1E9FF" fill-opacity="0.42"/>
<path d="M1307.38 642.172L1280.19 615L1253 642.172L1280.19 669.343L1307.38 642.172Z" fill="#D1E9FF" fill-opacity="0.42"/>
<path d="M1361.83 642.171L1334.64 615L1307.45 642.171L1334.64 669.343L1361.83 642.171Z" fill="#D1E9FF" fill-opacity="0.42"/>
<path d="M1307.39 696.571L1280.2 669.4L1253 696.571L1280.2 723.743L1307.39 696.571Z" fill="#D1E9FF" fill-opacity="0.42"/>
<path d="M824.384 557.172L797.192 530L770 557.172L797.192 584.343L824.384 557.172Z" fill="#D1E9FF" fill-opacity="0.42"/>
<path d="M878.831 557.171L851.639 530L824.446 557.171L851.639 584.343L878.831 557.171Z" fill="#D1E9FF" fill-opacity="0.42"/>
<path d="M824.389 611.571L797.197 584.4L770.005 611.571L797.197 638.743L824.389 611.571Z" fill="#D1E9FF" fill-opacity="0.42"/>
<path d="M502.384 46.1714L475.192 19L448 46.1714L475.192 73.3428L502.384 46.1714Z" fill="#D1E9FF" fill-opacity="0.42"/>
<path d="M875.384 216.171L848.192 189L821 216.171L848.192 243.343L875.384 216.171Z" fill="#D1E9FF" fill-opacity="0.42"/>
<path d="M462.384 601.171L435.192 574L408 601.171L435.192 628.343L462.384 601.171Z" fill="#CAD9FF"/>
<g opacity="0.66">
<path d="M260 158H0V756H260V158Z" fill="#4C2056"/>
<path d="M177.089 175.731H82.9228V738.303H177.089V175.731Z" fill="#65474D"/>
<path d="M255.274 164.458H4.7121V740.882H255.274V164.458Z" fill="#FFFAF2"/>
<g style="mix-blend-mode:overlay">
<path d="M21.6576 725.963H244.142V514.555L21.6576 725.963Z" fill="#E7FCFF"/>
<path d="M244.142 244.818V184.392L19.8641 184.381V457.938L244.142 244.818Z" fill="#E7FCFF"/>
</g>
<path d="M257.18 354.079V349.602H2.68474V354.079H257.18Z" fill="#4C2056"/>
<path d="M257.18 569.941V563.847H2.6848V569.941H257.18Z" fill="#4C2056"/>
<path d="M134.144 158H128.132V746.144H134.144V158Z" fill="#4C2056"/>
<g clip-path="url(#clip0_1_568)">
<path d="M217 529.767C213.451 521.408 204.763 516.705 197.746 510.934C188.574 503.403 181.672 493.17 178.112 481.868C174.932 471.75 173.607 459.666 164.746 453.825C164.723 458.148 163.375 462.46 160.943 466.047C161.888 462.195 158.19 458.286 154.226 458.068C150.251 457.838 146.563 460.494 144.432 463.839C142.312 467.197 141.47 471.186 140.722 475.073C134.269 508.565 132.149 544.529 146.241 575.596L138.348 580.747C131.296 541.23 131.607 500.413 139.27 461.011C139.823 458.183 140.433 455.297 141.563 452.664C142.127 451.307 142.842 450.019 143.74 448.835C149.939 440.741 162.107 441.063 172.166 442.845C180.255 444.271 188.275 446.122 196.167 448.398C199.878 449.468 203.657 450.675 206.676 453.078C213.716 458.689 214.626 468.852 214.984 477.844C215.525 491.94 216.078 506.047 216.631 520.155C216.747 523.362 216.873 526.559 217 529.767Z" fill="#5C2C5B"/>
<g style="mix-blend-mode:multiply" opacity="0.2">
<path d="M133.416 577.493L133.935 577.838C133.532 577.918 132.817 577.516 133.416 577.493Z" fill="#492C4D"/>
</g>
<path d="M134.165 577.459C134.062 576.631 133.013 576.171 132.886 575.343C132.541 573.124 132.126 570.928 131.619 568.743C131.204 566.915 130.732 565.099 130.19 563.294C128.98 559.108 127.471 555.015 125.696 551.037C125.258 550.071 124.809 549.106 124.337 548.151C121.998 543.322 119.244 538.7 116.121 534.343C113.759 531.043 111.051 527.801 107.41 526.03C107.329 525.984 107.249 525.938 107.168 525.903C103.4 524.156 98.4111 524.397 95.6457 527.49C90.0343 533.756 81.4731 536.355 73.2692 538.24C59.5921 541.368 45.6384 543.242 31.6156 543.863C30.7399 543.897 29.8757 543.932 29 543.955C35.7752 538.275 42.5619 532.584 49.3371 526.904C56.1814 521.166 63.1179 515.372 71.1836 511.531C79.2493 507.691 88.6977 505.967 97.1898 508.738C108.943 512.555 116.398 523.845 122.447 534.596C123.23 535.987 123.979 537.367 124.694 538.746C125.212 539.758 125.719 540.758 126.203 541.77C127.505 544.438 128.692 547.093 129.764 549.761C130.351 551.198 130.904 552.647 131.434 554.095C134.511 562.569 136.654 571.238 138.348 580.747L133.946 577.838C134.096 577.792 134.2 577.688 134.165 577.459Z" fill="#5C2C5B"/>
<path d="M129.948 594.429C129.937 594.751 129.925 595.061 129.913 595.372L122.055 576.136C122.954 566.835 123.841 557.499 124.337 548.151C124.509 545.012 124.625 541.885 124.694 538.746C124.855 530.238 124.59 521.741 123.599 513.291C122.435 503.357 120.165 493.411 116.559 484.075C112.607 473.796 107.018 464.253 99.4942 456.217C94.7816 451.204 89.3775 446.835 84.976 441.534C74.8017 429.289 70.7919 412.871 70.7688 396.958C70.7458 381.046 74.3753 365.386 77.9934 349.887C78.0279 349.945 78.074 350.002 78.1086 350.06C90.3224 368.111 100.589 387.438 108.724 407.628C112.342 416.619 115.545 425.794 117.677 435.245C119.877 444.972 120.926 454.917 121.963 464.828C123.104 475.556 124.233 486.271 125.362 496.987C125.984 502.966 126.618 508.956 127.206 514.935V514.958C127.816 521.166 128.369 527.364 128.819 533.584C129.211 538.976 129.522 544.369 129.764 549.761C129.96 554.268 130.109 558.775 130.19 563.294C130.397 573.676 130.317 584.058 129.948 594.429Z" fill="#5C2C5B"/>
<path d="M147.497 393.428C149.744 393.359 151.967 392.773 153.938 391.704C150.631 403.293 140.099 411.549 135.813 422.816C133.382 429.186 133.094 436.13 132.852 442.948C131.573 479.982 131.1 517.039 131.434 554.095C131.481 558.97 131.538 563.845 131.619 568.72C131.619 568.72 131.619 568.72 131.619 568.743C131.78 580.022 132.022 591.302 132.333 602.581L129.948 594.44L124.026 574.251C124.671 566.513 125.224 558.775 125.696 551.037C125.881 547.944 126.053 544.863 126.203 541.782C126.664 532.836 126.998 523.903 127.206 514.958C127.793 491.261 127.54 467.53 126.445 443.845C126.134 437.154 125.765 430.416 125.8 423.713C125.8 416.78 126.272 409.881 127.655 403.098C132.206 380.827 146.321 361.845 161.358 344.69L162.845 343C161.957 360.718 156.634 378.206 147.497 393.428Z" fill="#5C2C5B"/>
<path d="M172.074 652.894C171.786 667.933 169.597 684.846 164.584 702.725C162.049 711.796 158.789 721.109 154.664 730.549C153.166 734.021 151.541 737.505 149.801 741H118.99C116.513 736.021 114.266 731.066 112.25 726.157C107.871 715.452 104.564 704.944 102.156 694.791C99.7592 684.742 98.2498 675.05 97.4432 665.886C96.026 650.054 96.7288 635.82 98.63 624.058C99.4251 619.183 100.416 614.722 101.568 610.767C102.075 609.008 102.605 607.341 103.17 605.777C104.23 602.799 105.382 600.189 106.581 598.005C109.438 592.785 111.293 587.208 112.48 581.77C113.137 578.769 113.586 575.814 113.886 572.974C115.222 560.201 113.482 549.979 113.482 549.979H155.309C155.309 549.979 154.157 556.74 154.445 566.133C154.525 568.881 154.744 571.859 155.136 574.963C156.092 582.425 158.155 590.577 162.211 598.005C163.974 601.224 165.633 605.352 167.085 610.238C168.41 614.722 169.539 619.862 170.403 625.541C171.613 633.636 172.27 642.845 172.074 652.894Z" fill="white"/>
<path d="M112.941 581.816C112.791 581.804 112.63 581.781 112.48 581.77C113.137 578.769 113.586 575.814 113.886 572.974C125.258 574.285 136.942 572.997 147.658 568.973C149.939 568.111 152.198 567.134 154.445 566.133C154.525 568.881 154.744 571.859 155.136 574.963C141.954 580.793 127.286 583.288 112.941 581.816Z" fill="#5DD7E5"/>
<path d="M164.584 702.725C162.049 711.796 158.789 721.109 154.664 730.549C152.59 721.742 148.902 713.314 143.729 705.886C132.022 689.1 114.001 678.212 97.4432 665.886C96.026 650.054 96.7288 635.82 98.63 624.058C103.227 637.844 110.394 650.721 120.108 661.655C131.573 674.567 145.791 684.696 158.374 696.527C160.494 698.516 162.58 700.586 164.584 702.725Z" fill="#5DD7E5"/>
<path d="M172.074 652.894C167.58 654.147 162.937 654.929 158.316 655.274C150.585 655.86 142.473 655.274 135.698 651.526C129.141 647.893 124.475 641.684 120.027 635.671C113.92 627.427 107.825 619.195 101.718 610.962C101.672 610.893 101.626 610.836 101.568 610.767C102.075 609.008 102.605 607.341 103.17 605.777C111.466 614.987 119.877 624.093 128.404 633.095C133.647 638.637 139.65 644.489 147.255 645.133C157.487 646.007 166.048 636.912 169.746 627.346C169.977 626.749 170.196 626.151 170.403 625.541C171.613 633.636 172.27 642.845 172.074 652.894Z" fill="#5DD7E5"/>
<path d="M131.492 739.068C131.411 739.724 131.285 740.368 131.135 741H118.99C111.109 725.191 105.67 709.6 102.156 694.791C107.836 694.814 113.333 696.401 117.769 699.965C125.765 706.404 128.323 717.28 130.386 727.318C131.192 731.192 131.987 735.148 131.492 739.068Z" fill="#5DD7E5"/>
<g style="mix-blend-mode:multiply" opacity="0.2">
<path d="M172.074 652.894C171.786 667.933 169.597 684.846 164.584 702.725C162.05 711.796 158.789 721.109 154.664 730.549C153.166 734.021 151.541 737.505 149.801 741H118.99C116.513 736.022 114.266 731.066 112.25 726.157C121.237 717.74 129.487 708.657 136.435 698.493C154.203 672.497 162.05 641.626 167.085 610.238C168.41 614.722 169.539 619.862 170.403 625.541C171.613 633.636 172.27 642.845 172.074 652.894Z" fill="#5C2C5B"/>
</g>
<g style="mix-blend-mode:multiply" opacity="0.2">
<path d="M116.559 484.075C112.607 473.796 107.018 464.253 99.4942 456.217C94.7816 451.204 89.3775 446.835 84.976 441.534C74.8017 429.289 70.7919 412.871 70.7688 396.958C70.7458 381.046 74.3753 365.386 77.9934 349.887C78.0279 349.945 78.074 350.002 78.1086 350.06C78.0856 355.406 78.0625 360.764 78.0395 366.11C77.9934 375.458 77.9703 384.966 80.6896 393.911C80.9431 390.129 82.5217 386.461 85.0912 383.667C83.7431 392.371 83.8353 401.304 85.3562 409.996C85.6443 411.629 86.2434 413.549 87.8566 413.975C90.4376 414.653 92.0738 410.847 94.7009 410.387C93.4104 417.619 95.3346 425.07 98.2959 431.796C101.257 438.51 105.232 444.742 108.378 451.376C112.549 460.206 115.199 469.738 116.19 479.442C116.352 480.982 116.467 482.523 116.559 484.075Z" fill="#492C4D"/>
</g>
<g style="mix-blend-mode:multiply" opacity="0.2">
<path d="M161.358 344.69C158.547 351.244 155.631 357.751 152.163 363.983C149.248 369.215 145.964 374.227 142.911 379.39C134.822 393.037 128.358 408.18 125.8 423.713C125.8 416.78 126.272 409.881 127.655 403.098C132.206 380.827 146.321 361.845 161.358 344.69Z" fill="#492C4D"/>
</g>
<g style="mix-blend-mode:multiply" opacity="0.2">
<path d="M216.631 520.155C211.527 504.564 201.191 490.261 195.983 474.429C193.828 476.05 192.146 478.28 191.201 480.798C188.805 480.453 188.056 477.407 187.871 474.992C187.422 469.209 186.973 463.437 186.523 457.665C185.302 459.413 184.08 461.161 182.859 462.908C180.174 452.882 169.574 445.616 159.238 446.72C156.311 447.03 153.477 447.915 150.665 448.812C147.554 449.801 144.293 450.916 141.563 452.664C142.127 451.307 142.842 450.019 143.74 448.835C149.939 440.741 162.107 441.063 172.166 442.845C180.255 444.271 188.275 446.122 196.167 448.398C199.878 449.468 203.657 450.675 206.676 453.078C213.716 458.689 214.626 468.852 214.984 477.844C215.525 491.94 216.078 506.047 216.631 520.155Z" fill="#492C4D"/>
</g>
<g style="mix-blend-mode:multiply" opacity="0.2">
<path d="M107.41 526.03C107.33 525.984 107.249 525.938 107.168 525.903C103.4 524.156 98.4111 524.397 95.6458 527.49C90.0343 533.756 81.4732 536.355 73.2692 538.24C59.5921 541.368 45.6384 543.242 31.6156 543.863C35.3604 541.46 39.3932 539.447 43.4722 537.723C53.2432 533.595 63.5558 530.801 73.1424 526.271C71.7021 528.732 70.2503 531.204 68.81 533.676C78.4773 533.457 84.8838 522.305 94.4705 521.189C99.2062 520.649 103.861 522.765 107.41 526.03Z" fill="#492C4D"/>
</g>
</g>
</g>
<rect y="757" width="1440" height="35" fill="#487198"/>
<path d="M1221.94 205.076H1207.9V259.8H1221.94V205.076Z" fill="white"/>
<path d="M1342.91 205.076H1328.87V259.8H1342.91V205.076Z" fill="#E94274"/>
<g style="mix-blend-mode:multiply" opacity="0.2">
<path d="M1339.33 211.137H1332.44V253.738H1339.33V211.137Z" fill="#5C2C5B"/>
</g>
<path d="M1310.67 185H1246.99V259.799H1310.67V185Z" fill="white"/>
<path d="M1300.9 194.723H1256.76V250.065H1300.9V194.723Z" fill="#5C2C5B"/>
<path d="M1292.42 205.076H1265.23V239.724H1292.42V205.076Z" fill="#5DD7E5"/>
<path d="M1366 259.8H1193V270.48H1366V259.8Z" fill="#4C2056"/>
<g style="mix-blend-mode:multiply" opacity="0.2">
<path d="M1366 270.48V302L1193 270.48H1366Z" fill="#5C2C5B"/>
</g>
<path d="M1221.94 244.233H1207.9V250.077H1221.94V244.233Z" fill="#FFD6A4"/>
<g style="mix-blend-mode:multiply" opacity="0.2">
<path d="M1355.3 313.36H1304V380.08H1355.3V313.36Z" fill="#5C2C5B"/>
</g>
<path d="M1355.3 305H1304V371.72H1355.3V305Z" fill="#5C2C5B"/>
<path d="M1347.86 313.36H1311.44V363.35H1347.86V313.36Z" fill="white"/>
<path d="M1329.65 348.33C1335.16 348.33 1339.62 343.866 1339.62 338.36C1339.62 332.854 1335.16 328.39 1329.65 328.39C1324.14 328.39 1319.68 332.854 1319.68 338.36C1319.68 343.866 1324.14 348.33 1329.65 348.33Z" fill="#E94274"/>
<g style="mix-blend-mode:multiply" opacity="0.1">
<path d="M1290.56 296.6H1231V352.6H1290.56V296.6Z" fill="#5C2C5B"/>
</g>
<path d="M1290.56 286H1231V345.56H1290.56V286Z" fill="#4C2056"/>
<path d="M1281.53 295.04H1240.04V336.53H1281.53V295.04Z" fill="white"/>
<path d="M1285.26 340.26H1236.3V291.3H1285.27V340.27L1285.26 340.26ZM1237.3 339.26H1284.27V292.3H1237.3V339.27V339.26Z" fill="white"/>
<path d="M1266.95 314.92C1266.95 311.51 1264.19 308.75 1260.78 308.75C1257.37 308.75 1254.61 311.51 1254.61 314.92C1254.61 318.33 1257.37 321.09 1260.78 321.09C1264.19 321.09 1266.95 318.33 1266.95 314.92Z" fill="#5DD7E5"/>
<path d="M1274.91 314.92C1274.91 311.51 1272.15 308.75 1268.74 308.75C1265.33 308.75 1262.57 311.51 1262.57 314.92C1262.57 318.33 1265.33 321.09 1268.74 321.09C1272.15 321.09 1274.91 318.33 1274.91 314.92Z" fill="white"/>
<path d="M1272.56 314.92C1272.56 312.81 1270.85 311.1 1268.74 311.1C1266.63 311.1 1264.92 312.81 1264.92 314.92C1264.92 317.03 1266.63 318.74 1268.74 318.74C1270.85 318.74 1272.56 317.03 1272.56 314.92Z" fill="#4C2056"/>
<defs>
<clipPath id="clip0_1_568">
<rect width="188" height="398" fill="white" transform="translate(29 343)"/>
</clipPath>
</defs>
</svg>
