<svg width="408" height="455" viewBox="0 0 408 455" fill="none" xmlns="http://www.w3.org/2000/svg">
<g clip-path="url(#clip0_1_1063)">
<g style="mix-blend-mode:multiply" opacity="0.1">
<path d="M408 33.1282H0V455H408V33.1282Z" fill="#5C2C5B"/>
</g>
<path d="M408 0H0V421.872H408V0Z" fill="#4C2056"/>
<path d="M366.876 37.489H41.0786V384.383H366.876V37.489Z" fill="white"/>
<path d="M381.978 398.198H26.0225V23.6367H381.978V398.198ZM30.5168 394.534H377.483V27.3013H30.5168V394.534Z" fill="white"/>
<path d="M166.575 263.305L85.6401 303.161C85.6401 303.161 70.5733 341.481 66.8396 383.203H341.16C341.16 383.203 332.375 314.683 318.516 303.907C304.679 293.153 229.39 257.335 229.39 257.335L166.575 263.283V263.305Z" fill="#ED4A75"/>
<path d="M253.593 269.077C239.8 262.295 229.389 257.357 229.389 257.357L166.574 263.305L151.727 270.613C155.549 277.373 169.298 307.024 169.276 383.225H237.34C238.043 361.672 241.03 305.334 253.593 269.099V269.077Z" fill="white"/>
<path d="M125.262 263.085L143.667 264.841C143.667 264.841 148.455 257.269 148.938 248.688V265.829L159.349 266.86L166.575 263.305H180.917L188.34 233.654L167.277 178.479L127.216 174.309L125.262 263.107V263.085Z" fill="#442A34"/>
<path d="M292.204 144.044C292.204 144.044 303.075 251.651 303.734 258.257C303.734 258.257 273.074 263.195 270.262 263.085C270.262 263.085 266.309 254.46 264.816 244.255V263.854L245.202 265.017L223.195 254.482L212.06 199.702L261.301 134.826L292.182 144.065L292.204 144.044Z" fill="#442A34"/>
<path d="M223.195 254.46V216.645L175.711 217.479L179.159 256.545L166.574 263.327C166.574 263.327 178.764 275.398 204.483 273.423C230.202 271.447 237.12 260.913 237.12 260.913L223.195 254.482V254.46Z" fill="#F6B994"/>
<path d="M223.195 239.536V216.623L175.711 217.457L176.743 229.243C182.322 235.586 197.872 249.039 223.173 239.536H223.195Z" fill="#F38B82"/>
<path d="M274.963 143.429C274.963 143.429 287.021 136.669 291.502 153.722C296.839 173.98 270.395 203.96 250.628 196.717L274.963 143.429Z" fill="#F6B994"/>
<path d="M281.311 159.319C281.311 159.319 284.496 158.331 285.813 162.94C287.131 167.549 278.675 176.701 273.251 176.613C273.251 176.613 270.549 164.696 281.311 159.319Z" fill="#F38B82"/>
<path d="M284.079 157.717C284.079 157.717 273.097 162.545 273.097 173.321" stroke="#D1937D" stroke-linecap="round" stroke-linejoin="round"/>
<path d="M284.078 164.191C284.078 164.191 276.721 166.474 273.251 171.105" stroke="#D1937D" stroke-linecap="round" stroke-linejoin="round"/>
<path d="M125.767 144.987C125.767 144.987 113.445 136.669 108.943 153.722C103.606 173.98 130.049 203.96 149.816 196.717L125.745 144.987H125.767Z" fill="#F6B994"/>
<path d="M123.747 140.796C123.747 140.796 130.885 213.463 195.039 228.189C198.246 228.914 201.541 229.045 204.791 228.519C219.77 226.017 262.049 212.914 274.327 144.044L251.683 69.2036H149.861L123.769 140.817L123.747 140.796Z" fill="#F6B994"/>
<path d="M188.318 174.287C188.318 174.287 191.459 176.723 197.938 176.723C201.232 176.723 203.868 176.087 205.669 175.472C206.789 175.099 207.756 176.262 207.206 177.294C205.911 179.686 203.297 182.649 198.355 182.649C190.031 182.649 188.318 174.287 188.318 174.287Z" fill="#F38B82"/>
<path d="M123.747 140.795C123.747 140.795 130.555 212.409 197.939 228.848C197.939 228.848 259.326 228.848 274.327 144.044" stroke="#D1937D" stroke-width="0.75" stroke-linecap="round" stroke-linejoin="round"/>
<path d="M151.156 120.099C151.156 120.099 167.321 111.54 178.676 120.933L178.259 119.331C178.061 118.585 177.6 117.948 176.941 117.553C173.471 115.468 161.874 109.85 151.134 120.099H151.156Z" fill="#442A34"/>
<path d="M171.648 144.044C171.648 147.643 169.672 150.584 167.256 150.584C164.84 150.584 162.863 147.665 162.863 144.044C162.863 140.422 164.84 137.503 167.256 137.503C169.672 137.503 171.648 140.422 171.648 144.044Z" fill="#442A34"/>
<path d="M243.753 120.099C243.753 120.099 227.588 111.54 216.233 120.933L216.651 119.331C216.848 118.585 217.309 117.948 217.968 117.553C221.439 115.468 233.035 109.85 243.775 120.099H243.753Z" fill="#442A34"/>
<path d="M223.262 144.044C223.262 147.643 225.239 150.584 227.655 150.584C230.071 150.584 232.048 147.665 232.048 144.044C232.048 140.422 230.071 137.503 227.655 137.503C225.239 137.503 223.262 140.422 223.262 144.044Z" fill="#442A34"/>
<path d="M197.916 148.938C197.916 148.938 187.922 165.75 187.922 171.895C187.922 178.04 194.841 181.003 194.841 181.003" stroke="#D1937D" stroke-width="1.2" stroke-linecap="round" stroke-linejoin="round"/>
<path d="M180.17 190.44C180.17 190.44 184.519 199.987 197.916 199.658C211.314 199.329 218.737 190.44 218.737 190.44" stroke="#D1937D" stroke-width="1.2" stroke-linecap="round" stroke-linejoin="round"/>
<path d="M119.156 159.319C119.156 159.319 115.971 158.331 114.654 162.94C113.336 167.549 121.792 176.701 127.217 176.613C127.217 176.613 129.918 164.696 119.156 159.319Z" fill="#F38B82"/>
<path d="M116.389 157.717C116.389 157.717 127.37 162.545 127.37 173.321" stroke="#D1937D" stroke-linecap="round" stroke-linejoin="round"/>
<path d="M116.389 164.191C116.389 164.191 123.746 166.474 127.217 171.105" stroke="#D1937D" stroke-linecap="round" stroke-linejoin="round"/>
<path d="M203.934 71.7714C203.934 71.7714 192.908 122.513 130.95 144.044C130.95 144.044 130.291 243.97 125.239 263.086L97.983 259.793C97.983 259.793 103.913 196.52 103.913 167.922C103.913 139.325 115.795 93.1919 147.115 63.212C178.434 33.2321 201.847 51.3605 201.847 51.3605C201.847 51.3605 211.401 43.4595 238.767 53.3357C266.134 63.212 290.535 87.8368 292.182 144.066C292.182 144.066 223.195 152.406 203.934 71.7934V71.7714Z" fill="#5B3C48"/>
<path d="M292.183 144.044L288.427 140.093C286.912 138.491 284.825 137.503 282.629 137.394C221.242 134.255 206.043 66.9211 206.043 66.9211L203.957 71.7495C223.196 152.23 291.985 144.044 292.205 144.022L292.183 144.044Z" fill="#442A34"/>
<path d="M114.5 144.351C114.5 144.351 117.553 147.336 122.604 147.336C122.604 147.336 123.154 245.725 121.792 249.039C120.847 251.278 117.07 257.84 114.72 261.834L125.24 263.107C130.292 243.991 130.95 144.066 130.95 144.066C150.564 137.24 165.081 127.495 175.733 117.356C169.803 122.843 148.741 140.027 114.478 144.373L114.5 144.351Z" fill="#442A34"/>
<path d="M139.407 140.795C139.407 140.795 132.949 144 123.747 144.746" stroke="#2D1A22" stroke-width="0.75" stroke-linecap="round" stroke-linejoin="round"/>
<path d="M130.225 143.934C130.225 143.934 128.951 229.77 129.061 234.049C129.061 234.049 128.995 251.124 125.591 261.769" stroke="#2D1A22" stroke-width="0.75" stroke-linecap="round" stroke-linejoin="round"/>
<path d="M203.935 71.7713L206.021 66.9429" stroke="#2D1A22" stroke-width="0.75" stroke-linecap="round" stroke-linejoin="round"/>
<path d="M157.24 267.892L151.727 270.613C155.549 277.373 169.298 307.024 169.276 383.225H180.016C175.294 316.022 160.249 275.442 157.24 267.914V267.892Z" fill="#E8EFE4"/>
<path d="M232.354 383.203H237.34C238.043 361.651 241.03 305.312 253.593 269.077C252.385 268.485 251.221 267.914 250.079 267.365C245.73 280.468 227.522 338.782 232.354 383.225V383.203Z" fill="#E8EFE4"/>
<path d="M100.971 383.203L108.043 360.048L112.348 383.203H100.971Z" fill="#DB3E6F"/>
<path d="M294.16 383.203V360.882L304.219 383.203H294.16Z" fill="#DB3E6F"/>
<path d="M107.45 358.731L112.348 383.203" stroke="#C42D64" stroke-width="0.75" stroke-linecap="round" stroke-linejoin="round"/>
<path d="M294.16 383.203V359.807" stroke="#C42D64" stroke-width="0.75" stroke-linecap="round" stroke-linejoin="round"/>
</g>
<defs>
<clipPath id="clip0_1_1063">
<rect width="408" height="455" fill="white"/>
</clipPath>
</defs>
</svg>
