<svg width="408" height="455" viewBox="0 0 408 455" fill="none" xmlns="http://www.w3.org/2000/svg">
<g clip-path="url(#clip0_1_1107)">
<g style="mix-blend-mode:multiply" opacity="0.1">
<path d="M408 33.1282H0V455H408V33.1282Z" fill="#5C2C5B"/>
</g>
<path d="M408 0H0V421.872H408V0Z" fill="#4C2056"/>
<path d="M366.876 37.489H41.0787V384.383H366.876V37.489Z" fill="white"/>
<path d="M381.978 398.198H26.0225V23.6367H381.978V398.198ZM30.5168 394.534H377.483V27.3013H30.5168V394.534Z" fill="white"/>
<path d="M85.6728 341.371C85.6728 341.371 73.6351 330.882 78.4877 318.683C83.3403 306.484 91.1502 309.133 89.1092 294.431C87.0682 279.709 85.3604 271.117 90.8378 265.32C96.3151 259.523 105.854 253.58 105.541 245.906C105.229 238.232 90.692 229.474 90.692 223.051C90.692 216.628 102.105 207.557 102.875 203.95C103.667 200.342 95.8361 190.958 94.4407 185.328C93.0245 179.697 94.7531 165.288 98.5019 159.032C102.251 152.776 112.789 141.87 116.642 127.669C120.495 113.468 130.075 79.6652 161.669 61.8358C193.241 43.9856 216.109 62.7742 217.796 66.8406C217.796 66.8406 250.16 55.7884 269.32 85.8377C288.481 115.887 285.148 127.565 285.148 127.565C285.148 127.565 308.911 150.107 305.163 165.663C301.414 181.22 293.5 185.515 300.164 194.753C306.829 203.97 316.846 208.558 314.764 220.048C312.681 231.517 300.789 229.015 303.101 245.301C305.392 261.588 332.279 264.09 334.153 276.602C336.027 289.114 325.198 298.31 325.198 302.272C325.198 306.234 327.28 315.618 329.363 319.809C331.446 323.98 333.528 340.058 321.866 345.271C310.203 350.484 85.7145 341.413 85.7145 341.413L85.6728 341.371Z" fill="#371F40"/>
<path d="M134.449 113.489C134.449 113.489 133.429 116.784 136.948 116.784C136.948 116.784 165.959 91.0509 199.49 90.3419C233.041 89.612 256.367 99.4756 256.367 99.4756C256.367 99.4756 236.499 80.958 193.284 82.522C150.069 84.086 134.428 113.51 134.428 113.51L134.449 113.489Z" fill="#281530"/>
<path d="M297.332 240.255C295.291 228.368 304.059 219.589 302.33 212.082C300.602 204.575 288.418 202.531 289.834 188.914C291.251 175.297 291.459 163.182 281.504 159.804C271.549 156.425 120.703 155.362 120.703 155.362C120.703 155.362 106.52 164.662 108.186 176.361C109.852 188.08 116.1 200.571 111.518 207.036C106.937 213.521 102.355 219.026 103.604 231.058C104.042 235.333 104.229 238.732 104.063 241.506C104.916 242.986 105.479 244.446 105.52 245.864C105.833 253.538 96.2943 259.481 90.8169 265.278C85.3396 271.076 87.0681 279.688 89.0883 294.389C91.1293 309.112 83.2986 306.442 78.4668 318.641C73.6351 330.84 85.6519 341.33 85.6519 341.33C85.6519 341.33 310.119 350.401 321.803 345.187C333.466 339.974 331.383 323.896 329.301 319.726C327.218 315.555 325.135 306.171 325.135 302.188C325.135 298.205 335.965 289.051 334.091 276.518C332.383 265.112 309.911 262.004 304.205 249.222C300.456 246.177 297.811 243.07 297.311 240.192L297.332 240.255Z" fill="#281530"/>
<path d="M171.666 268.531L94.4411 308.799C94.4411 308.799 78.8004 343.728 73.8021 384.016H335.59C335.59 384.016 327.052 321.623 312.661 309.529C312.661 309.529 254.617 275.309 234.082 267.781L171.666 268.511V268.531Z" fill="#FECA6E"/>
<path d="M304.122 320.81C304.122 320.81 287.024 346.063 282.442 366.729" stroke="#DB8C52" stroke-width="0.75" stroke-linecap="round" stroke-linejoin="round"/>
<path d="M137.573 384.037C137.573 384.037 111.935 323.834 106.312 321.019L125.493 384.037H137.573Z" fill="#F2A86B"/>
<path d="M100.689 313.929C100.689 313.929 106.729 320.914 110.478 333.239C114.226 345.542 123.182 373.193 123.182 373.193" stroke="#DB8C52" stroke-width="0.75" stroke-linecap="round" stroke-linejoin="round"/>
<path d="M222.065 262.38L222.024 252.329V224.949L180.704 225.658L176.997 223.26L177.143 225.032L176.997 224.928L177.059 225.699H176.997L179.704 256.478L179.996 264.59L171.665 268.511C171.665 268.511 184.265 276.539 204.488 276.331C224.71 276.122 234.082 267.781 234.082 267.781L222.065 262.359V262.38Z" fill="#AA5757"/>
<path d="M222.002 246.719V224.948L176.976 225.741L177.954 236.939C183.244 242.966 197.99 255.748 221.982 246.719H222.002Z" fill="#7C3536"/>
<path d="M262.011 149.773C261.594 144.226 264.052 134.697 251.806 130.776C239.56 126.856 238.893 115.658 238.039 110.861C237.185 106.065 233.458 93.7411 212.818 94.7837C192.179 95.8264 186.348 115.658 183.995 121.121C181.641 126.585 178.059 128.795 166.73 134.905C155.4 141.015 148.506 132.861 148.506 132.861C148.506 132.861 143.508 142.558 135.219 144.289C126.951 145.999 128.097 155.925 128.097 155.946C130.262 169.479 142.154 223.697 195.262 235.897C198.302 236.585 201.426 236.71 204.509 236.209C218.65 233.853 258.449 221.466 270.279 156.801C267.613 156.509 262.365 154.945 261.99 149.752L262.011 149.773Z" fill="#AA5757"/>
<path d="M270.821 156.863C270.821 156.863 282.504 148.96 286.774 165.163C291.835 184.41 266.76 212.895 248.016 206.014L270.842 156.863H270.821Z" fill="#AA5757"/>
<path d="M277.11 170.501C277.11 170.501 280.13 169.563 281.38 173.942C282.629 178.321 274.611 187.017 269.467 186.933C269.467 186.933 266.905 175.61 277.11 170.501Z" fill="#7C3536"/>
<path d="M279.734 168.979C279.734 168.979 269.321 173.566 269.321 183.805" stroke="#6D2C2F" stroke-linecap="round" stroke-linejoin="round"/>
<path d="M279.734 175.131C279.734 175.131 272.757 177.299 269.466 181.699" stroke="#6D2C2F" stroke-linecap="round" stroke-linejoin="round"/>
<path d="M129.616 156.863C129.616 156.863 117.933 148.96 113.663 165.163C108.603 184.41 133.678 212.895 152.421 206.014L129.596 156.863H129.616Z" fill="#AA5757"/>
<path d="M188.93 184.723C188.93 184.723 191.908 187.038 198.052 187.038C201.176 187.038 203.675 186.433 205.383 185.849C206.445 185.495 207.362 186.6 206.841 187.58C205.612 189.853 203.134 192.668 198.448 192.668C190.555 192.668 188.93 184.723 188.93 184.723Z" fill="#7C3536"/>
<path d="M127.701 152.901C127.701 152.901 134.157 220.945 198.053 236.564C198.053 236.564 256.263 236.564 270.487 155.987" stroke="#6D2C2F" stroke-width="0.75" stroke-linecap="round" stroke-linejoin="round"/>
<path d="M153.693 133.237C153.693 133.237 169.021 125.104 179.788 134.029L179.392 132.507C179.205 131.798 178.768 131.193 178.143 130.818C174.852 128.837 163.856 123.498 153.672 133.237H153.693Z" fill="#281530"/>
<path d="M173.144 155.987C173.144 159.407 171.269 162.202 168.978 162.202C166.687 162.202 164.813 159.428 164.813 155.987C164.813 152.547 166.687 149.773 168.978 149.773C171.269 149.773 173.144 152.547 173.144 155.987Z" fill="#442A34"/>
<path d="M241.497 133.237C241.497 133.237 226.168 125.104 215.401 134.029L215.797 132.507C215.984 131.798 216.422 131.193 217.046 130.818C220.337 128.837 231.333 123.498 241.517 133.237H241.497Z" fill="#281530"/>
<path d="M222.066 155.987C222.066 159.407 223.94 162.202 226.231 162.202C228.522 162.202 230.396 159.428 230.396 155.987C230.396 152.547 228.522 149.773 226.231 149.773C223.94 149.773 222.066 152.547 222.066 155.987Z" fill="#442A34"/>
<path d="M198.032 160.617C198.032 160.617 188.556 176.59 188.556 182.429C188.556 188.268 195.116 191.083 195.116 191.083" stroke="#6D2C2F" stroke-width="1.2" stroke-linecap="round" stroke-linejoin="round"/>
<path d="M181.203 200.071C181.203 200.071 185.327 209.142 198.031 208.829C210.735 208.516 217.775 200.071 217.775 200.071" stroke="#6D2C2F" stroke-width="1.2" stroke-linecap="round" stroke-linejoin="round"/>
<path d="M123.348 170.501C123.348 170.501 120.328 169.563 119.078 173.942C117.829 178.321 125.847 187.017 130.991 186.933C130.991 186.933 133.553 175.61 123.348 170.501Z" fill="#7C3536"/>
<path d="M120.724 168.979C120.724 168.979 131.137 173.566 131.137 183.805" stroke="#6D2C2F" stroke-linecap="round" stroke-linejoin="round"/>
<path d="M120.724 175.131C120.724 175.131 127.701 177.299 130.991 181.699" stroke="#6D2C2F" stroke-linecap="round" stroke-linejoin="round"/>
<path d="M122.057 384.037H284.129C284.191 369.544 284.525 332.071 286.191 318.725C287.44 308.653 288.773 300.896 289.627 296.287C283.317 292.721 276.298 288.822 269.28 285.026C267.634 292.805 263.302 313.574 261.803 323.313C261.803 323.313 166.959 332.696 146.549 324.772L140.801 284.63L120.558 295.182L122.057 384.016V384.037Z" fill="#7292C1"/>
<path d="M132.991 384.037L133.97 358.7C134.012 357.72 134.824 356.949 135.803 356.969C149.34 357.345 237.602 359.514 271.716 354.551C272.882 354.384 273.903 355.28 273.903 356.469V384.058H132.991V384.037Z" fill="#8BADD6"/>
<path opacity="0.15" d="M121.849 372.088L122.057 384.037H137.573C137.573 384.037 129.513 365.102 121.432 347.982L121.849 372.088Z" fill="#434649"/>
<path opacity="0.15" d="M285.087 334.344C279.401 355.385 262.428 384.037 262.428 384.037H284.129C284.17 373.548 284.358 351.047 285.087 334.344Z" fill="#434649"/>
<path d="M134.449 113.489C134.449 113.489 159.524 85.8377 197.949 85.4206C236.373 85.0035 256.367 99.4547 256.367 99.4547C256.367 99.4547 240.101 69.6557 195.408 74.0557C150.693 78.4348 134.449 113.489 134.449 113.489Z" fill="#FCB670"/>
</g>
<defs>
<clipPath id="clip0_1_1107">
<rect width="408" height="455" fill="white"/>
</clipPath>
</defs>
</svg>
