<svg width="133" height="98" viewBox="0 0 133 98" fill="none" xmlns="http://www.w3.org/2000/svg">
<g filter="url(#filter0_d_1_704)">
<path d="M25.876 59.2119C27.7475 61.401 33.1674 67.6084 39.5605 73.7409C50.4002 84.1466 58.7996 89.4244 64.5339 89.4244C65.0429 89.4244 65.537 89.3794 66.0161 89.3045L66.061 89.3045L66.1209 89.2895L66.2107 89.2895C66.8994 89.1395 67.5432 88.9296 68.1272 88.6297C72.9032 86.2007 76.8259 80.4431 79.461 71.9866C81.7667 64.5946 83.0693 55.1935 83.1142 45.5375C83.1591 35.6716 81.9014 26.0155 79.5808 18.3537C76.9307 9.6123 72.9781 3.65976 68.1271 1.1408C67.4834 0.810932 66.7797 0.571031 66.0311 0.436086L65.9712 0.436086C65.4921 0.346124 64.983 0.301142 64.474 0.301142C58.7996 0.301143 50.4302 5.38405 39.6054 15.4149C31.7151 22.7169 25.2771 30.1388 25.2172 30.2138C25.1723 30.2738 25.1274 30.3338 25.0975 30.3787C23.0613 30.0339 19.5878 29.5241 16.4885 29.5241C13.9732 29.5241 12.1466 29.854 10.904 30.5437C4.97503 33.7674 4.45101 39.54 4.43604 44.7128L4.43604 44.7728L4.43604 44.8328L4.43604 44.8628L4.43604 44.8928L4.43604 44.9527L4.43604 45.0127C4.45101 50.1856 4.97503 55.9732 10.8591 59.2119C12.1017 59.9016 13.9283 60.2314 16.4436 60.2314C20.007 60.2314 24.0644 59.5567 25.861 59.2269L25.876 59.2119Z" fill="#3A0505"/>
<path d="M92.0668 51.0403C90.4798 51.655 89.2371 52.8396 88.5933 54.3839C87.9645 55.8683 87.9645 57.5176 88.5933 59.017C89.5665 61.3261 91.8423 62.8104 94.4175 62.8104C95.211 62.8104 96.0045 62.6605 96.7531 62.3756C104.224 59.4818 109.045 52.5997 109.045 44.8478C109.045 37.096 104.224 30.2289 96.7531 27.3201C96.0045 27.0352 95.2259 26.8853 94.4175 26.8853C91.8572 26.8853 89.5665 28.3696 88.5933 30.6787C87.9645 32.1781 87.9645 33.8124 88.5933 35.3118C89.2521 36.8561 90.4798 38.0407 92.0668 38.6554C94.7319 39.69 96.4537 42.119 96.4537 44.8478C96.4537 47.5767 94.7319 50.0057 92.0668 51.0403Z" fill="#3A0505"/>
<path d="M107.818 13.6457C107.054 13.3308 106.261 13.1659 105.452 13.1659C102.862 13.1659 100.572 14.7552 99.6133 17.2142C98.3257 20.4979 99.8828 24.2463 103.072 25.5958C110.678 28.7745 115.588 36.3313 115.588 44.8478C115.588 53.3643 110.678 60.9212 103.072 64.0999C99.8828 65.4344 98.3257 69.1978 99.6133 72.4815C100.572 74.9404 102.862 76.5298 105.452 76.5298C106.261 76.5298 107.069 76.3648 107.833 76.05C120.185 70.8771 128.165 58.6272 128.165 44.8478C128.165 31.0685 120.185 18.8186 107.833 13.6457L107.818 13.6457Z" fill="#3A0505"/>
<path d="M81.3773 42.5387L81.3773 42.5087C81.3773 42.0139 81.3474 41.5191 81.3324 41.0243L81.3324 40.9493C81.3174 40.4545 81.2875 39.9597 81.2725 39.4649C81.1977 37.9356 81.0929 36.4212 80.9431 34.9218L80.9431 34.8768C80.7485 32.8827 80.509 30.9185 80.2095 28.9993C80.1347 28.5344 80.0598 28.0696 79.9849 27.6198C79.955 27.4849 79.94 27.3499 79.9101 27.215C79.8502 26.8851 79.7903 26.5403 79.7304 26.2104C79.7005 26.0755 79.6855 25.9405 79.6556 25.8056C79.5807 25.4007 79.4909 24.9809 79.416 24.5911C79.416 24.5461 79.401 24.5161 79.3861 24.4711C79.2962 24.0213 79.1914 23.5865 79.0866 23.1367C79.0567 23.0317 79.0417 22.9268 79.0118 22.8218C78.9369 22.4769 78.8471 22.1471 78.7722 21.8172C78.7423 21.6973 78.7123 21.5773 78.6824 21.4724C78.5925 21.0975 78.4877 20.7227 78.3829 20.3628C78.3829 20.3178 78.353 20.2579 78.338 20.2129C78.2182 19.7781 78.0985 19.3582 77.9637 18.9384C77.9487 18.8634 77.9188 18.7885 77.9038 18.7285C77.799 18.3836 77.6942 18.0538 77.5894 17.7089C77.5595 17.6039 77.5295 17.514 77.4996 17.409C77.3798 17.0642 77.275 16.7193 77.1552 16.3894C77.1402 16.3295 77.1253 16.2845 77.0953 16.2245C76.9456 15.8197 76.8109 15.4298 76.6611 15.04C76.6611 15.01 76.6312 14.965 76.6162 14.935C76.4815 14.5902 76.3467 14.2603 76.212 13.9155C76.182 13.8405 76.1521 13.7505 76.1072 13.6756C75.9724 13.3607 75.8377 13.0458 75.7029 12.746C75.673 12.701 75.658 12.641 75.6281 12.596C75.2987 11.8763 74.9543 11.1866 74.595 10.5269C74.5651 10.4669 74.5351 10.4069 74.4902 10.3469C74.3405 10.0621 74.1758 9.79217 74.0261 9.52228C73.9961 9.4773 73.9662 9.43232 73.9362 9.37234C72.0797 6.28361 69.8938 3.94458 67.3485 2.62512C64.8482 11.6214 63.1563 20.7976 62.288 30.0188C65.4171 30.2587 68.2618 31.4582 70.5525 33.3475C73.8763 36.0763 76.0024 40.2296 76.0024 44.8627C76.0024 47.9664 75.0442 50.8453 73.4272 53.2293C70.9568 56.8578 66.9143 59.3318 62.288 59.6916C62.812 65.2693 63.6355 70.817 64.7584 76.3198C65.4321 79.6034 66.2106 82.887 67.094 86.1407L67.3485 87.1003C67.5881 86.9954 67.8127 86.8604 68.0522 86.7255C68.0822 86.7105 68.1121 86.6805 68.157 86.6655C68.3816 86.5306 68.5912 86.3956 68.8008 86.2457C68.8457 86.2157 68.8757 86.1857 68.9206 86.1557C69.1302 86.0058 69.3398 85.8408 69.5494 85.6759C69.5794 85.6459 69.6093 85.6159 69.6542 85.6009C69.8638 85.421 70.0734 85.2411 70.283 85.0462L70.298 85.0462C70.5076 84.8362 70.7023 84.6413 70.9119 84.4314L71.0017 84.3414C71.1963 84.1465 71.391 83.9366 71.5706 83.7117C71.6006 83.6667 71.6455 83.6367 71.6754 83.5918C71.8551 83.3818 72.0497 83.1569 72.2294 82.932C72.2594 82.887 72.2893 82.8571 72.3192 82.8121C72.4989 82.5722 72.6935 82.3323 72.8732 82.0774L72.9032 82.0324C73.0828 81.7775 73.2625 81.5226 73.4272 81.2677C73.4571 81.2377 73.4721 81.1927 73.502 81.1628C73.6667 80.9079 73.8314 80.638 73.9961 80.3681C74.0261 80.3231 74.056 80.2631 74.086 80.2181C74.2506 79.9483 74.4004 79.6634 74.5651 79.3935C74.595 79.3485 74.6249 79.2885 74.6399 79.2435C74.8046 78.9437 74.9543 78.6588 75.119 78.3439L75.149 78.2839C75.2987 77.9841 75.4484 77.6692 75.5981 77.3693C75.6131 77.3393 75.6281 77.2944 75.658 77.2644C75.8077 76.9495 75.9425 76.6346 76.0922 76.3048C76.1221 76.2448 76.1371 76.1848 76.1671 76.1248C76.3018 75.81 76.4366 75.4801 76.5713 75.1502C76.6013 75.0903 76.6162 75.0303 76.6462 74.9853C76.7809 74.6404 76.9157 74.2956 77.0354 73.9507C77.0354 73.9207 77.0504 73.8907 77.0654 73.8608C77.1852 73.5159 77.3199 73.1561 77.4397 72.7962C77.4397 72.7662 77.4696 72.7212 77.4696 72.6912C77.5894 72.3314 77.7092 71.9715 77.829 71.5967C77.8439 71.5367 77.8739 71.4767 77.8889 71.4168C78.0086 71.0569 78.1134 70.6821 78.2182 70.3222C78.2332 70.2622 78.2482 70.2023 78.2781 70.1423C78.3829 69.7675 78.4877 69.3776 78.5925 68.9878C78.5925 68.9578 78.6075 68.9278 78.6225 68.8828C78.7273 68.493 78.8321 68.0881 78.9219 67.6983L78.9219 67.6083C79.0417 67.2035 79.1315 66.7987 79.2214 66.3938C79.2214 66.3339 79.2513 66.2739 79.2663 66.2139C79.3561 65.8091 79.4459 65.4042 79.5208 64.9994C79.5208 64.9394 79.5507 64.8795 79.5657 64.8045C79.6556 64.3847 79.7304 63.9648 79.8053 63.545C79.8053 63.515 79.8053 63.485 79.8202 63.4401C79.8951 63.0052 79.9849 62.5704 80.0598 62.1206L80.0598 62.0756C80.1347 61.6408 80.2095 61.191 80.2844 60.7562C80.2844 60.6962 80.2993 60.6512 80.3143 60.5912C80.3742 60.1564 80.4491 59.7216 80.509 59.2868C80.509 59.2268 80.5239 59.1668 80.5389 59.1068C80.5988 58.657 80.6587 58.2072 80.7186 57.7574C80.7186 57.7274 80.7186 57.6974 80.7186 57.6674C80.8383 56.7228 80.9282 55.7782 81.018 54.8336C81.018 54.7886 81.018 54.7436 81.018 54.6987C81.0629 54.2339 81.0929 53.769 81.1378 53.3192C81.1378 53.2742 81.1378 53.2143 81.1378 53.1693C81.1677 52.7045 81.2126 52.2247 81.2276 51.7599L81.2276 51.6849C81.2875 50.7103 81.3324 49.7207 81.3773 48.7311L81.3773 48.6412C81.3923 48.1614 81.4073 47.6816 81.4222 47.1868C81.4222 47.1418 81.4222 47.1118 81.4222 47.0668C81.4222 46.572 81.4372 46.0922 81.4372 45.5974L81.4372 45.5674C81.4372 44.5478 81.4372 43.5433 81.4073 42.5237L81.3773 42.5387Z" fill="#FFE6C0"/>
<path d="M65.2825 85.9907C58.066 59.0468 58.066 30.6785 65.2825 3.73464C65.4323 3.19486 65.567 2.64009 65.7317 2.10031C65.1628 1.99536 64.5788 1.96537 63.95 2.01035C63.8452 2.01035 63.7254 2.02534 63.6206 2.04034C63.5308 2.04034 63.441 2.05533 63.3511 2.07033C63.2314 2.07033 63.1116 2.10031 62.9918 2.11531C62.902 2.11531 62.8121 2.1453 62.7373 2.16029C62.6025 2.19028 62.4828 2.20527 62.348 2.23526C62.2731 2.25025 62.1833 2.26525 62.1085 2.29523C61.9737 2.32522 61.824 2.3702 61.6743 2.40019C61.5994 2.41518 61.5245 2.44517 61.4497 2.46017C61.3 2.50515 61.1353 2.55013 60.9856 2.59511C60.9257 2.6101 60.8508 2.64009 60.7909 2.65509C60.6262 2.71506 60.4615 2.77504 60.2819 2.83501C60.222 2.85001 60.1621 2.87999 60.1172 2.89499C59.9375 2.95496 59.7578 3.02993 59.5782 3.1049C59.5333 3.11989 59.4883 3.14988 59.4285 3.16488C59.2338 3.23984 59.0392 3.32981 58.8445 3.41977C58.7996 3.43476 58.7697 3.44976 58.7248 3.46475C58.5152 3.55471 58.3056 3.65967 58.0959 3.74963L58.0211 3.79462C57.7965 3.89957 57.5869 4.00453 57.3623 4.12448L57.3174 4.15447C57.0928 4.27442 56.8533 4.39437 56.6137 4.52931L56.5838 4.52931C56.3442 4.67925 56.1047 4.8142 55.8501 4.94914C55.6256 5.08408 55.386 5.21903 55.1614 5.35397L55.1015 5.38396C42.2405 13.0908 26.475 31.3083 26.475 31.3083L26.475 57.2926C26.475 57.2926 32.4189 64.4296 39.9798 71.7766L40.0097 71.8066C40.2642 72.0615 40.5188 72.3014 40.7883 72.5563L40.8182 72.5563C41.0727 72.8262 41.3273 73.0661 41.5818 73.306C41.6417 73.3659 41.6866 73.4109 41.7465 73.4709C41.9561 73.6658 42.1657 73.8607 42.3753 74.0557C42.4502 74.1306 42.525 74.2056 42.5999 74.2656C42.7945 74.4455 42.9892 74.6254 43.1838 74.8054C43.2736 74.8803 43.3485 74.9703 43.4383 75.0453C43.618 75.2102 43.8126 75.3901 43.9923 75.555C44.0821 75.63 44.1719 75.72 44.2618 75.7949C44.4414 75.9599 44.6361 76.1248 44.8157 76.2897C44.9056 76.3647 44.9954 76.4547 45.1002 76.5296C45.2799 76.6946 45.4745 76.8595 45.6692 77.0244C45.759 77.0994 45.8488 77.1744 45.9386 77.2643C46.1333 77.4293 46.3279 77.6092 46.5226 77.7741C46.6124 77.8491 46.6873 77.9091 46.7621 77.984C46.9717 78.164 47.1813 78.3439 47.4059 78.5238C47.4658 78.5838 47.5407 78.6288 47.6005 78.6888C47.87 78.9137 48.1395 79.1386 48.409 79.3635L48.439 79.3635C48.7234 79.6184 49.0229 79.8433 49.3074 80.0832L49.3373 80.0832C49.6068 80.3231 49.8763 80.533 50.1458 80.7279C50.2207 80.7879 50.2955 80.8329 50.3554 80.8928C50.565 81.0578 50.7597 81.2077 50.9693 81.3576C51.0591 81.4326 51.1489 81.4926 51.2388 81.5676C51.4184 81.7025 51.6131 81.8374 51.7927 81.9724C51.8975 82.0474 51.9874 82.1223 52.0922 82.1823C52.2718 82.3023 52.4515 82.4372 52.6162 82.5572C52.721 82.6321 52.8258 82.7071 52.9306 82.7821C53.0953 82.902 53.275 83.022 53.4396 83.1269C53.5445 83.2019 53.6493 83.2769 53.7541 83.3368C53.9187 83.4568 54.0984 83.5617 54.2631 83.6667C54.3679 83.7417 54.4727 83.8016 54.5775 83.8766C54.7422 83.9816 54.9219 84.0865 55.0866 84.1915C55.1914 84.2514 55.2812 84.3114 55.386 84.3714C55.5657 84.4764 55.7453 84.5813 55.925 84.6863C56.0148 84.7463 56.1047 84.7912 56.1945 84.8512C56.3891 84.9712 56.5988 85.0761 56.7934 85.1961C56.8533 85.2261 56.9281 85.271 56.988 85.301C57.512 85.5859 58.0361 85.8558 58.5451 86.0957C58.62 86.1257 58.6948 86.1707 58.7697 86.2007C58.9494 86.2756 59.129 86.3656 59.2937 86.4406C59.3836 86.4855 59.4734 86.5155 59.5782 86.5605C59.7279 86.6205 59.8926 86.6954 60.0423 86.7554C60.1471 86.8004 60.237 86.8304 60.3418 86.8604C60.4915 86.9204 60.6412 86.9653 60.776 87.0103C60.8808 87.0403 60.9706 87.0703 61.0754 87.1153C61.2101 87.1603 61.3599 87.2052 61.4946 87.2502C61.5994 87.2802 61.6892 87.3102 61.7941 87.3252C61.9288 87.3552 62.0636 87.4002 62.1983 87.4301C62.2881 87.4601 62.3929 87.4751 62.4828 87.4901C62.6175 87.5201 62.7523 87.5501 62.887 87.5651C62.9768 87.5801 63.0667 87.5951 63.1715 87.6101C63.3062 87.6251 63.441 87.6401 63.5757 87.6551C63.6656 87.6551 63.7404 87.67 63.8302 87.685C63.8901 87.685 63.95 87.685 64.0099 87.685C64.5938 87.715 65.1628 87.685 65.7018 87.6101L65.4173 86.5605C65.3574 86.3656 65.3125 86.1707 65.2676 85.9757L65.2825 85.9907Z" fill="#FFE6C0"/>
<path d="M24.7664 57.2929L24.7664 32.0433C22.7901 31.6984 19.4214 31.2036 16.442 31.2036C14.5106 31.2036 12.7588 31.4135 11.6809 32.0133C6.96466 34.6222 6.14119 39.1204 6.12622 44.773L6.12622 44.863L6.12622 44.9529C6.14119 50.6206 6.96466 55.1188 11.6809 57.7127C12.7588 58.3124 14.5255 58.5224 16.442 58.5224C19.4364 58.5224 22.835 58.0126 24.8113 57.6827C24.7814 57.5627 24.7664 57.4278 24.7664 57.3079L24.7664 57.2929Z" fill="#FFE6C0"/>
<path d="M81.3775 42.5087C81.3775 42.0139 81.3475 41.5191 81.3326 41.0243L81.3326 40.9494C81.3176 40.4546 81.2877 39.9598 81.2727 39.465C81.1978 37.9356 81.093 36.4212 80.9433 34.9219L80.9433 34.8769C80.7487 32.8827 80.5091 30.9185 80.2097 28.9993C78.937 20.8127 76.6463 13.4957 73.3375 8.45776C76.7661 16.1946 73.9064 25.7456 70.5377 33.3475C73.8615 36.0764 75.9875 40.2297 75.9875 44.8628C75.9875 47.9665 75.0293 50.8453 73.4124 53.2293C75.5983 62.0307 75.6432 71.1469 66.9893 75.6001C66.2557 76.0199 65.5071 76.2448 64.7435 76.3198C65.4173 79.6034 66.1958 82.8871 67.0792 86.1407L67.3337 87.1004C67.5733 86.9954 67.7978 86.8605 68.0374 86.7255C68.0673 86.7105 68.0973 86.6805 68.1422 86.6655C68.3668 86.5306 68.5764 86.3956 68.786 86.2457C68.8309 86.2157 68.8609 86.1857 68.9058 86.1557C69.1154 86.0058 69.325 85.8409 69.5346 85.6759C69.5645 85.646 69.5945 85.616 69.6394 85.601C69.849 85.421 70.0586 85.2411 70.2682 85.0462L70.2832 85.0462C70.4928 84.8363 70.6874 84.6414 70.8971 84.4315L70.9869 84.3415C71.1815 84.1466 71.3762 83.9367 71.5558 83.7117C71.5858 83.6668 71.6307 83.6368 71.6606 83.5918C71.8403 83.3819 72.0349 83.157 72.2146 82.9321C72.2445 82.8871 72.2745 82.8571 72.3044 82.8121C72.4841 82.5722 72.6787 82.3323 72.8584 82.0774L72.8883 82.0324C73.068 81.7775 73.2477 81.5226 73.4124 81.2677C73.4423 81.2378 73.4573 81.1928 73.4872 81.1628C73.6519 80.9079 73.8166 80.638 73.9813 80.3681C74.0112 80.3231 74.0412 80.2632 74.0711 80.2182C74.2358 79.9483 74.3855 79.6634 74.5502 79.3935C74.5802 79.3485 74.6101 79.2886 74.6251 79.2436C74.7898 78.9437 74.9395 78.6588 75.1042 78.344L75.1341 78.284C75.2839 77.9841 75.4336 77.6692 75.5833 77.3694C75.5983 77.3394 75.6132 77.2944 75.6432 77.2644C75.7929 76.9495 75.9277 76.6347 76.0774 76.3048C76.1073 76.2448 76.1223 76.1849 76.1522 76.1249C76.287 75.81 76.4217 75.4801 76.5565 75.1503C76.5864 75.0903 76.6014 75.0303 76.6313 74.9853C76.7661 74.6405 76.9008 74.2956 77.0206 73.9508C77.0206 73.9208 77.0356 73.8908 77.0506 73.8608C77.1703 73.5159 77.3051 73.1561 77.4249 72.7962C77.4249 72.7663 77.4548 72.7213 77.4548 72.6913C77.5746 72.3314 77.6944 71.9716 77.8141 71.5967C77.8291 71.5368 77.8591 71.4768 77.874 71.4168C77.9938 71.057 78.0986 70.6821 78.2034 70.3223C78.2184 70.2623 78.2334 70.2023 78.2633 70.1423C78.3681 69.7675 78.4729 69.3777 78.5777 68.9878C78.5777 68.9578 78.5927 68.9278 78.6077 68.8829C78.7125 68.493 78.8173 68.0882 78.9071 67.6983L78.9071 67.6084C79.0269 67.2036 79.1167 66.7987 79.2065 66.3939C79.2065 66.3339 79.2365 66.2739 79.2515 66.214C79.3413 65.8091 79.4311 65.4043 79.506 64.9995C79.506 64.9395 79.5359 64.8795 79.5509 64.8045C79.6407 64.3847 79.7156 63.9649 79.7905 63.5451C79.7905 63.5151 79.7904 63.4851 79.8054 63.4401C79.8803 63.0053 79.9701 62.5705 80.045 62.1206L80.045 62.0757C80.1198 61.6408 80.1947 61.191 80.2696 60.7562C80.2696 60.6962 80.2845 60.6513 80.2995 60.5913C80.3594 60.1565 80.4342 59.7216 80.4941 59.2868C80.4941 59.2268 80.5091 59.1669 80.5241 59.1069C80.584 58.6571 80.6439 58.2073 80.7037 57.7574C80.7037 57.7275 80.7037 57.6975 80.7037 57.6675C80.8235 56.7229 80.9134 55.7783 81.0032 54.8336C81.0032 54.7887 81.0032 54.7437 81.0032 54.6987C81.0481 54.2339 81.078 53.7691 81.123 53.3193C81.123 53.2743 81.123 53.2143 81.123 53.1693C81.1529 52.7045 81.1978 52.2247 81.2128 51.7599L81.2128 51.6849C81.2727 50.7103 81.3176 49.7208 81.3625 48.7312L81.3625 48.6412C81.3775 48.1614 81.3925 47.6816 81.4074 47.1868C81.4074 47.1418 81.4074 47.1118 81.4074 47.0668C81.4074 46.5721 81.4224 46.0923 81.4224 45.5975L81.4224 45.5675C81.4224 44.5479 81.4224 43.5433 81.3925 42.5237L81.3925 42.4937L81.3775 42.5087Z" fill="#CEA882"/>
<path d="M107.325 44.8477C107.325 37.8006 102.923 31.5481 96.1257 28.9092C95.5567 28.6843 94.9878 28.5944 94.4039 28.5944C92.5923 28.5944 90.8705 29.6289 90.1518 31.3382C89.2086 33.5873 90.3315 36.1512 92.6821 37.0659C96.0059 38.3553 98.1469 41.4141 98.1469 44.8477C98.1469 48.2812 96.0059 51.34 92.6821 52.6295C90.3315 53.5441 89.1936 56.108 90.1518 58.3571C90.8705 60.0664 92.5923 61.101 94.4039 61.101C94.9728 61.101 95.5567 60.996 96.1257 60.7861C102.938 58.1472 107.325 51.8948 107.325 44.8477Z" fill="#FFE6C0"/>
<path d="M126.458 44.8478C126.458 31.7582 118.882 20.123 107.159 15.22C106.59 14.9801 106.021 14.8751 105.437 14.8751C103.625 14.8751 101.904 15.9997 101.185 17.8439C100.242 20.2729 101.365 23.0468 103.715 24.0363C111.95 27.4849 117.28 35.6566 117.28 44.8628C117.28 54.069 111.965 62.2406 103.715 65.6892C101.365 66.6788 100.227 69.4376 101.185 71.8816C101.904 73.7259 103.625 74.8504 105.437 74.8504C106.006 74.8504 106.59 74.7454 107.159 74.5055C118.882 69.6026 126.458 57.9674 126.458 44.8778L126.458 44.8478Z" fill="#FFE6C0"/>
<path d="M62.1219 57.9973C68.9342 57.4875 74.2942 51.8049 74.2942 44.8627C74.2942 37.9206 68.9342 32.2379 62.1219 31.7281C61.3882 40.4695 61.3882 49.2559 62.1219 57.9973Z" fill="#C4916B"/>
<path d="M58.8287 20.1531C55.7744 29.6742 43.5422 36.1365 46.9408 47.3669C49.6658 55.1937 58.8287 67.0988 46.5965 70.8472C44.3657 71.5519 42.1348 71.8668 39.9639 71.7918C40.2334 72.0467 40.5029 72.3166 40.7724 72.5715L40.8023 72.5715C41.0568 72.8414 41.3114 73.0813 41.5659 73.3212C41.6258 73.3812 41.6707 73.4262 41.7306 73.4861C41.9402 73.6811 42.1498 73.876 42.3594 74.0709C42.4343 74.1459 42.5091 74.2208 42.584 74.2808C42.7786 74.4607 42.9733 74.6407 43.1679 74.8206C43.2577 74.8956 43.3326 74.9855 43.4224 75.0605C43.6021 75.2254 43.7967 75.4053 43.9764 75.5703C44.0662 75.6452 44.156 75.7352 44.2459 75.8102C44.4255 75.9751 44.6202 76.14 44.7998 76.305C44.8897 76.3799 44.9795 76.4699 45.0843 76.5449C45.264 76.7098 45.4586 76.8747 45.6533 77.0397C45.7431 77.1146 45.8329 77.1896 45.9227 77.2796C46.1174 77.4445 46.312 77.6244 46.5067 77.7894C46.5965 77.8643 46.6714 77.9243 46.7462 77.9993C46.9558 78.1792 47.1654 78.3591 47.39 78.539C47.4499 78.599 47.5248 78.644 47.5846 78.704C47.8541 78.9289 48.1236 79.1538 48.3931 79.3787L48.4231 79.3787C48.7076 79.6336 49.007 79.8585 49.2915 80.0984L49.3214 80.0984C49.5909 80.3383 49.8604 80.5482 50.1299 80.7431C50.2048 80.8031 50.2796 80.8481 50.3395 80.9081C50.5491 81.073 50.7438 81.2229 50.9534 81.3729C51.0432 81.4479 51.133 81.5078 51.2229 81.5828C51.4025 81.7177 51.5972 81.8527 51.7768 81.9876C51.8816 82.0626 51.9715 82.1376 52.0763 82.1975C52.2559 82.3175 52.4356 82.4524 52.6003 82.5724C52.7051 82.6474 52.8099 82.7223 52.9147 82.7973C53.0794 82.9172 53.2591 83.0372 53.4238 83.1422C53.5286 83.2171 53.6334 83.2921 53.7382 83.3521C53.9029 83.472 54.0825 83.577 54.2472 83.6819C54.352 83.7569 54.4568 83.8169 54.5616 83.8918C54.7263 83.9968 54.906 84.1018 55.0707 84.2067C55.1755 84.2667 55.2653 84.3267 55.3701 84.3866C55.5498 84.4916 55.7294 84.5966 55.9091 84.7015C55.9989 84.7615 56.0888 84.8065 56.1786 84.8664C56.3732 84.9864 56.5829 85.0914 56.7775 85.2113C56.8374 85.2413 56.9122 85.2863 56.9721 85.3163C57.4961 85.6011 58.0202 85.871 58.5292 86.1109C58.6041 86.1409 58.6789 86.1859 58.7538 86.2159C58.9335 86.2909 59.1131 86.3808 59.2778 86.4558C59.3677 86.5008 59.4575 86.5308 59.5623 86.5757C59.712 86.6357 59.8767 86.7107 60.0264 86.7707C60.1312 86.8156 60.2211 86.8456 60.3259 86.8756C60.4756 86.9356 60.6253 86.9806 60.7601 87.0256C60.8649 87.0555 60.9547 87.0855 61.0595 87.1305C61.1942 87.1755 61.344 87.2205 61.4787 87.2655C61.5835 87.2954 61.6733 87.3254 61.7782 87.3404C61.9129 87.3704 62.0477 87.4154 62.1824 87.4454C62.2722 87.4754 62.377 87.4904 62.4669 87.5054C62.6016 87.5353 62.7364 87.5653 62.8711 87.5803C62.9609 87.5953 63.0508 87.6103 63.1556 87.6253C63.2903 87.6403 63.4251 87.6553 63.5598 87.6703C63.6497 87.6703 63.7245 87.6853 63.8144 87.7003C63.8742 87.7003 63.9341 87.7003 63.994 87.7003C64.5779 87.7303 65.1469 87.7003 65.6859 87.6253L65.4014 86.5757C65.3415 86.3808 65.2966 86.1859 65.2517 85.991C58.0351 59.0471 58.0351 30.6788 65.2517 3.73489C65.4014 3.19511 65.5361 2.64034 65.7008 2.10056C65.1319 1.9956 64.548 1.96561 63.9191 2.0106C63.8143 2.0106 63.6946 2.02559 63.5898 2.04058C63.4999 2.04058 63.4101 2.05558 63.3203 2.07057C63.2005 2.07057 63.0807 2.10056 62.9609 2.11555C62.8711 2.11555 62.7813 2.14554 62.7064 2.16053C62.5717 2.19052 62.4519 2.20552 62.3171 2.2355C62.2423 2.2505 62.1524 2.26549 62.0776 2.29548C61.9428 2.32547 61.7931 2.37045 61.6434 2.40044C61.5685 2.41543 61.4937 2.44542 61.4188 2.46041C61.2691 2.50539 61.1044 2.55037 60.9547 2.59536C60.8948 2.61035 60.8199 2.64034 60.76 2.65533C60.5954 2.71531 60.4307 2.77528 60.251 2.83526C60.1911 2.85025 60.1312 2.88024 60.0863 2.89523C59.9066 2.95521 59.727 3.03018 59.5473 3.10515C59.5024 3.12014 59.4575 3.15013 59.3976 3.16512C59.203 3.24009 59.0083 3.33005 58.8137 3.42002C58.7688 3.43501 58.7388 3.45 58.6939 3.465C58.4843 3.55496 58.2747 3.65992 58.0651 3.74988L57.9902 3.79486C57.7656 3.89982 57.556 4.00477 57.3315 4.12473L57.2865 4.15471C57.0619 4.27466 56.8224 4.39461 56.5828 4.52956L56.5529 4.52956C56.3133 4.6795 56.0738 4.81444 55.8193 4.94939C55.5647 5.09932 55.3252 5.23427 55.0707 5.38421C57.7507 10.0173 60.3708 14.6954 58.8137 20.1531L58.8287 20.1531Z" fill="#CEA882"/>
<path d="M35.6977 55.4185C35.0389 55.4185 35.0389 56.438 35.6977 56.438C36.3565 56.438 36.3565 55.4185 35.6977 55.4185Z" fill="white"/>
<path d="M53.1382 75.4655C52.4795 75.4655 52.4795 76.485 53.1382 76.485C53.797 76.485 53.797 75.4655 53.1382 75.4655Z" fill="white"/>
<path d="M56.8515 47.7118C57.5103 47.7118 57.5103 46.6923 56.8515 46.6923C56.1927 46.6923 56.1927 47.7118 56.8515 47.7118Z" fill="white"/>
<path d="M40.7131 34.2023C40.0543 34.2023 40.0543 35.2218 40.7131 35.2218C41.3718 35.2218 41.3718 34.2023 40.7131 34.2023Z" fill="white"/>
<path d="M55.4009 17.4689C54.7422 17.4689 54.7422 18.4885 55.4009 18.4885C56.0597 18.4885 56.0597 17.4689 55.4009 17.4689Z" fill="white"/>
<path d="M21.0098 36.5112C20.3511 36.5112 20.3511 37.5308 21.0098 37.5308C21.6686 37.5308 21.6686 36.5112 21.0098 36.5112Z" fill="white"/>
<path d="M19.0789 48.791C18.4201 48.791 18.4201 49.8106 19.0789 49.8106C19.7377 49.8106 19.7377 48.791 19.0789 48.791Z" fill="white"/>
<path d="M56.8225 10.692C57.601 9.89732 56.6727 8.60785 55.6696 9.10265C46.881 13.6758 37.7331 21.8474 32.403 30.2139C31.8191 31.1586 33.0319 32.1931 33.8853 31.4884C35.8766 29.8391 37.8379 28.1148 39.7693 26.4055C45.3239 21.3676 51.5972 15.9998 56.8374 10.677L56.8225 10.692Z" fill="white"/>
<path d="M30.5977 35.9121C31.692 35.8033 32.4911 34.8266 32.3825 33.7306C32.2738 32.6347 31.2986 31.8344 30.2042 31.9432C29.1098 32.052 28.3107 33.0287 28.4194 34.1247C28.528 35.2206 29.5033 36.0209 30.5977 35.9121Z" fill="white"/>
<path d="M97.8895 54.624C98.5482 54.624 98.5482 53.6044 97.8895 53.6044C97.2307 53.6044 97.2307 54.624 97.8895 54.624Z" fill="#3A0505"/>
<path d="M103.953 42.4939C104.612 42.4939 104.612 41.4744 103.953 41.4744C103.294 41.4744 103.294 42.4939 103.953 42.4939Z" fill="#3A0505"/>
<path d="M95.3608 32.3879C94.702 32.3879 94.702 33.4075 95.3608 33.4075C96.0195 33.4075 96.0195 32.3879 95.3608 32.3879Z" fill="#3A0505"/>
<path d="M108.672 21.8322C108.014 21.8322 108.014 22.8517 108.672 22.8517C109.331 22.8517 109.331 21.8322 108.672 21.8322Z" fill="#3A0505"/>
<path d="M120.303 32.5533C120.962 32.5533 120.962 31.5337 120.303 31.5337C119.645 31.5337 119.645 32.5533 120.303 32.5533Z" fill="#3A0505"/>
<path d="M120.305 52.8095C120.963 52.8095 120.963 51.7899 120.305 51.7899C119.646 51.7899 119.646 52.8095 120.305 52.8095Z" fill="#3A0505"/>
<path d="M117.52 64.9246C118.178 64.9246 118.178 63.905 117.52 63.905C116.861 63.905 116.861 64.9246 117.52 64.9246Z" fill="#3A0505"/>
<path d="M106.859 68.7632C106.2 68.7632 106.2 69.7828 106.859 69.7828C107.518 69.7828 107.518 68.7632 106.859 68.7632Z" fill="#3A0505"/>
<path d="M123.211 44.4728C123.869 44.4728 123.869 43.4532 123.211 43.4532C122.552 43.4532 122.552 44.4728 123.211 44.4728Z" fill="#3A0505"/>
<path d="M114.642 63.4705C115.301 63.4705 115.301 62.4509 114.642 62.4509C113.984 62.4509 113.984 63.4705 114.642 63.4705Z" fill="#3A0505"/>
</g>
<defs>
<filter id="filter0_d_1_704" x="0.436035" y="0.301147" width="131.729" height="97.1233" filterUnits="userSpaceOnUse" color-interpolation-filters="sRGB">
<feFlood flood-opacity="0" result="BackgroundImageFix"/>
<feColorMatrix in="SourceAlpha" type="matrix" values="0 0 0 0 0 0 0 0 0 0 0 0 0 0 0 0 0 0 127 0" result="hardAlpha"/>
<feOffset dy="4"/>
<feGaussianBlur stdDeviation="2"/>
<feComposite in2="hardAlpha" operator="out"/>
<feColorMatrix type="matrix" values="0 0 0 0 0 0 0 0 0 0 0 0 0 0 0 0 0 0 0.25 0"/>
<feBlend mode="normal" in2="BackgroundImageFix" result="effect1_dropShadow_1_704"/>
<feBlend mode="normal" in="SourceGraphic" in2="effect1_dropShadow_1_704" result="shape"/>
</filter>
</defs>
</svg>
