<svg width="679" height="331" viewBox="0 0 679 331" fill="none" xmlns="http://www.w3.org/2000/svg">
<ellipse opacity="0.2" cx="339.5" cy="304" rx="339.5" ry="27" fill="#1A0404"/>
<path d="M95.2599 293L105.073 226.089H91.6862L84.07 293H95.2599Z" fill="#7B5B62"/>
<path d="M594.93 293L587.314 226.089H573.927L583.74 293H594.93Z" fill="#7B5B62"/>
<path d="M629 203.729H50V285.525H629V203.729Z" fill="#B59BC9"/>
<path d="M629 274.071H50V285.525H629V274.071Z" fill="#C6B7CE"/>
<path d="M330.998 211.285H66.1265V267.968H330.998V211.285Z" fill="white"/>
<path d="M327.35 259.437C322.255 260.317 317.135 261.053 311.997 261.738C300.767 263.231 289.476 264.433 278.148 265.264C255.932 266.892 233.409 267.378 211.124 266.763C189.305 266.159 167.669 263.967 146.46 259.575C128.318 255.818 109.768 250.457 96.3179 239.064C87.339 231.459 82.6497 221.605 80.5652 211.288H66.1265V267.971H330.998V258.859C329.779 259.043 328.563 259.233 327.35 259.44V259.437Z" fill="#DEDEDD"/>
<path d="M612.876 211.285H348.005V267.968H612.876V211.285Z" fill="white"/>
<path d="M580.727 260.875C559.118 263.435 537.477 265.037 515.638 264.928C494.347 264.821 472.77 263.495 451.894 259.851C432.317 256.434 412.485 250.489 396.485 240.18C384.447 232.423 375.22 222.298 367.831 211.282H348.002V267.965H612.874V256.494C602.195 258.14 591.477 259.601 580.724 260.872L580.727 260.875Z" fill="#DEDEDD"/>
<path d="M330.995 235.828H66.1265V243.425H330.995V235.828Z" fill="#E2AABE"/>
<path d="M330.995 235.828H66.1265V243.425H330.995V235.828Z" fill="#E2AABE"/>
<path d="M612.876 235.828H348.005V243.425H612.876V235.828Z" fill="#E2AABE"/>
<path d="M171.603 230.64H225.516C228.863 230.64 231.583 233.358 231.583 236.708V246.767C231.583 247.785 230.755 248.613 229.737 248.613H167.385C166.367 248.613 165.539 247.785 165.539 246.767V236.708C165.539 233.36 168.256 230.64 171.605 230.64H171.603Z" fill="#B393A0"/>
<path d="M453.484 230.64H507.397C510.744 230.64 513.464 233.358 513.464 236.708V246.767C513.464 247.785 512.636 248.613 511.618 248.613H449.266C448.248 248.613 447.42 247.785 447.42 246.767V236.708C447.42 233.36 450.137 230.64 453.486 230.64H453.484Z" fill="#B393A0"/>
<path d="M198.203 0.60791H474.347C476.533 0.60791 478.307 2.38249 478.307 4.56985V178.818C478.307 181.005 476.533 182.779 474.347 182.779H198.203C196.017 182.779 194.243 181.005 194.243 178.818V4.56985C194.243 2.38249 196.017 0.60791 198.203 0.60791Z" fill="#383336"/>
<path d="M463.002 10.4651H207.126C205.145 10.4651 203.539 12.0715 203.539 14.0531V168.346C203.539 170.328 205.145 171.934 207.126 171.934H463.002C464.983 171.934 466.589 170.328 466.589 168.346V14.0531C466.589 12.0715 464.983 10.4651 463.002 10.4651Z" fill="#061E34"/>
<path d="M467.608 199.735L205.278 199.735C198.44 199.735 192.886 194.178 192.886 187.338V179.904L480 179.904V187.338C480 194.178 474.446 199.735 467.608 199.735Z" fill="#CAC9CA"/>
<path d="M467.496 193.924C453.499 194.415 439.449 194.69 425.403 194.912C380.041 195.625 334.361 196.828 289.186 194.595C267.318 193.515 246.021 191.483 225.859 188.258C215.64 186.625 205.716 184.688 197.051 182.141C195.563 181.703 194.18 181.234 192.886 180.754V192.34C192.886 196.422 202.189 199.731 213.668 199.731H459.219C469.742 199.731 478.435 196.948 479.807 193.339C475.625 193.557 471.488 193.783 467.496 193.924Z" fill="#B0ADAF"/>
<path d="M478.304 11.8834V1.88857C478.304 1.18297 476.414 0.60791 474.086 0.60791H198.464C196.133 0.60791 194.246 1.17945 194.246 1.88857V11.8869H478.307L478.304 11.8834Z" fill="#383336"/>
<path d="M213.727 132.611V92.2405C213.727 88.2962 207.598 88.2892 207.598 92.2405V132.611C207.598 136.559 213.727 136.563 213.727 132.611Z" fill="white"/>
<path d="M214.03 80.1006V69.4778C214.03 67.8726 212.619 66.3379 210.966 66.412C209.305 66.4861 207.901 67.7597 207.901 69.4778V80.1006C207.901 81.7059 209.312 83.2405 210.966 83.1664C212.627 83.0924 214.03 81.8188 214.03 80.1006Z" fill="white"/>
<path d="M230.084 187.888H271.651C275.594 187.888 275.601 181.756 271.651 181.756H230.084C226.141 181.756 226.134 187.888 230.084 187.888Z" fill="white"/>
<path d="M283.179 188.191H288.641C289.428 188.191 290.253 187.849 290.81 187.292C291.343 186.759 291.741 185.888 291.71 185.122C291.674 184.328 291.413 183.506 290.81 182.952C290.211 182.402 289.474 182.053 288.641 182.053H283.179C282.392 182.053 281.567 182.395 281.01 182.952C280.477 183.485 280.079 184.357 280.111 185.122C280.146 185.916 280.407 186.738 281.01 187.292C281.609 187.842 282.347 188.191 283.179 188.191Z" fill="white"/>
<path d="M433.016 28.4629C444.029 35.3319 451.763 47.32 453.223 60.2642C453.41 61.9083 454.499 63.3301 456.287 63.3301C457.8 63.3301 459.539 61.9189 459.352 60.2642C457.638 45.0762 449.107 31.2747 436.108 23.1674C432.751 21.0717 429.669 26.3778 433.016 28.4629Z" fill="white"/>
<path d="M383.622 95.8002C383.64 95.899 383.654 95.9978 383.668 96.0966C383.633 95.8249 383.594 95.5533 383.559 95.2816C383.717 96.4776 383.714 97.6806 383.555 98.8802C383.59 98.6085 383.629 98.3369 383.664 98.0652C383.499 99.2118 383.192 100.323 382.747 101.389C382.85 101.145 382.952 100.902 383.058 100.655C382.818 101.209 382.546 101.745 382.24 102.26C381.422 103.639 381.883 105.686 383.34 106.455C384.818 107.234 386.658 106.829 387.533 105.354C388.453 103.805 389.148 102.059 389.48 100.284C389.868 98.2063 389.864 96.2483 389.536 94.1668C389.423 93.4576 388.721 92.6815 388.129 92.3357C387.473 91.9512 386.503 91.7889 385.766 92.0253C385.026 92.2652 384.31 92.7238 383.936 93.4329C383.527 94.2056 383.492 94.9359 383.626 95.7967L383.622 95.8002Z" fill="white"/>
</svg>
