<svg width="1440" height="900" viewBox="0 0 1440 900" fill="none" xmlns="http://www.w3.org/2000/svg">
<g clip-path="url(#clip0_1_6932)">
<path d="M1448 -7H-1V904H1448V-7Z" fill="#A8E2E4"/>
<path d="M1201.48 144.613C1207.29 130.677 1200.63 114.7 1186.61 108.928C1172.59 103.155 1156.52 109.773 1150.71 123.709C1144.9 137.645 1151.56 153.622 1165.58 159.394C1179.6 165.167 1195.68 158.549 1201.48 144.613Z" fill="#F2F2F2"/>
<path d="M1176.09 164.297C1159.37 164.297 1145.77 150.78 1145.77 134.16C1145.77 117.541 1159.37 104.033 1176.09 104.033C1192.82 104.033 1206.42 117.551 1206.42 134.17C1206.42 150.789 1192.82 164.307 1176.09 164.307V164.297ZM1176.09 109.682C1162.5 109.682 1151.46 120.663 1151.46 134.17C1151.46 147.678 1162.5 158.658 1176.09 158.658C1189.68 158.658 1200.73 147.678 1200.73 134.17C1200.73 120.663 1189.68 109.682 1176.09 109.682Z" fill="#EF335B"/>
<path d="M1176.78 113.359H1174.53V119.424H1176.78V113.359Z" fill="#EF335B"/>
<path d="M1176.78 149.768H1174.53V155.833H1176.78V149.768Z" fill="#EF335B"/>
<path d="M1197.02 133.476H1190.92V135.716H1197.02V133.476Z" fill="#EF335B"/>
<path d="M1160.39 133.476H1154.29V135.716H1160.39V133.476Z" fill="#EF335B"/>
<path d="M1185.69 135.716H1174.53V117.263H1176.78V133.476H1185.69V135.716Z" fill="#600E23"/>
<path d="M1440 742.926H0.9375V898.678H1440V742.926Z" fill="#F0BA7C"/>
<path d="M1440 720.682H0.9375V742.926H1440V720.682Z" fill="#D68F47"/>
<path d="M1258.39 877.744C1337.58 877.744 1401.78 869.088 1401.78 858.41C1401.78 847.733 1337.58 839.077 1258.39 839.077C1179.2 839.077 1115 847.733 1115 858.41C1115 869.088 1179.2 877.744 1258.39 877.744Z" fill="#D6985B"/>
<path d="M1253.01 810.945H1304.25C1314.19 810.945 1323.08 805.541 1326.46 797.435L1331.71 784.867H1225.56L1230.81 797.435C1234.2 805.541 1243.07 810.945 1253.02 810.945H1253.01Z" fill="#9E1E1E"/>
<path d="M1305.31 853.426C1305.31 856.503 1307.81 858.989 1310.87 858.989C1313.94 858.989 1316.44 856.492 1316.44 853.426C1316.44 850.361 1313.94 847.864 1310.87 847.864C1307.81 847.864 1305.31 850.361 1305.31 853.426Z" fill="#0F4687"/>
<path d="M1308.53 853.426C1308.53 854.721 1309.58 855.765 1310.87 855.765C1312.17 855.765 1313.21 854.721 1313.21 853.426C1313.21 852.132 1312.17 851.088 1310.87 851.088C1309.58 851.088 1308.53 852.132 1308.53 853.426Z" fill="#0A2F54"/>
<path d="M1251.95 853.426C1251.95 856.503 1254.45 858.989 1257.51 858.989C1260.58 858.989 1263.08 856.492 1263.08 853.426C1263.08 850.361 1260.58 847.864 1257.51 847.864C1254.45 847.864 1251.95 850.361 1251.95 853.426Z" fill="#0F4687"/>
<path d="M1255.16 853.426C1255.16 854.721 1256.21 855.765 1257.5 855.765C1258.8 855.765 1259.84 854.721 1259.84 853.426C1259.84 852.132 1258.8 851.088 1257.5 851.088C1256.21 851.088 1255.16 852.132 1255.16 853.426Z" fill="#0A2F54"/>
<path d="M1251.06 854.596L1251.65 850.497C1256.08 843.209 1275.98 838.94 1280.39 838.066V818.562H1288.01V838.123C1292.95 839.111 1312.12 843.368 1316.45 850.497L1317.04 854.596L1312.94 853.426C1312.94 853.426 1297.45 843.97 1284.06 843.765C1270.67 843.97 1255.17 853.426 1255.17 853.426L1251.07 854.596H1251.06Z" fill="#1254B5"/>
<path d="M1280.39 830.494V818.562H1288.01V829.972C1285.4 829.87 1282.84 830.028 1280.39 830.483V830.494Z" fill="#0F4687"/>
<path d="M1268.36 818.574H1300.03V810.956H1268.36V818.574Z" fill="#327AF9"/>
<path d="M1248.24 785.162H1317.76L1335.84 680.286H1274.13C1269.61 680.286 1265.76 683.533 1264.99 687.972L1248.23 785.174L1248.24 785.162Z" fill="#C23A3A"/>
<path d="M1318.03 784.583H1329.49L1345.62 690.98C1346.63 685.088 1342.1 679.696 1336.11 679.696L1318.03 784.583Z" fill="#9E1E1E"/>
<path d="M1138.31 758.835H1381.78V750.207H1138.31V758.835Z" fill="#FFCC3B"/>
<path d="M1193.36 758.835H1177.58V857.229H1193.36V758.835Z" fill="#B78618"/>
<path d="M1378.4 758.835V791.429V857.241H1362.62V791.429H1346.85V758.835H1362.62H1378.4Z" fill="#B78618"/>
<path d="M1161.79 758.835H1330.87H1346.65H1346.85V791.429H1346.65V857.241H1330.87V791.429H1161.79V857.241H1146.01V791.429V758.835H1161.79Z" fill="#CE9E28"/>
<path d="M1302.66 750.128H1359.77V737.345H1302.66V750.128Z" fill="#FBC2A7"/>
<path d="M1308.19 747.449H1354.23V740.024H1308.19V747.449Z" fill="#FF8A8A"/>
<g style="mix-blend-mode:multiply" opacity="0.32">
<path d="M1345.56 750.139H1302.65V737.356H1305.13C1316.7 744.906 1330.97 749.208 1345.56 750.139Z" fill="#FC3232"/>
</g>
<path d="M1298.56 737.118H1355.67V730.09H1298.56V737.118Z" fill="#327AF9"/>
<path d="M1342.31 737.073H1346.87V730.079H1342.31V737.073Z" fill="#1254B5"/>
<path d="M1306.52 737.073H1311.08V730.079H1306.52V737.073Z" fill="#1254B5"/>
<path d="M1325.08 737.073H1329.63V730.079H1325.08V737.073Z" fill="#1254B5"/>
<g style="mix-blend-mode:multiply">
<path d="M1325 734.938C1330.31 735.494 1336.81 736.675 1343.14 737.106H1298.56V730.079H1301.33C1308.61 733.065 1316.86 734.087 1325 734.938Z" fill="#327AF9"/>
</g>
<g clip-path="url(#clip1_1_6932)">
<path opacity="0.25" d="M1429.07 4.66907C1434.26 11.4737 1436.61 20.3873 1441.27 30.2287C1445.92 40.0702 1449.99 59.4438 1446.96 66.9514C1443.93 74.4591 1438.6 88.0122 1438.52 95.9135C1438.46 103.815 1441.86 123.779 1438.52 133.733C1435.18 143.687 1428 156.256 1415.74 158.561C1403.48 160.867 1383.88 148.298 1383.88 148.298C1383.88 148.298 1386.54 152.375 1377.28 161.317C1368 170.259 1361.69 181.59 1352.4 180.662C1343.09 179.763 1335.1 122.598 1335.1 122.598V89.8118C1335.1 89.8118 1346.06 86.1564 1356.11 93.2141C1366.12 100.272 1366.62 95.9416 1366.62 95.9416L1387.13 74.3185C1387.13 74.3185 1391.42 62.818 1387.13 61.8901C1382.84 60.9622 1385.11 52.3017 1388.2 41.5324C1391.28 30.763 1399.64 16.4788 1406.85 9.67415C1414.06 2.84137 1424.75 -1.09521 1424.75 -1.09521C1424.75 -1.09521 1419.5 4.50036 1412.63 10.1241C1405.76 15.7477 1399.22 26.9951 1396.86 32.6188C1394.51 38.2425 1386.96 48.0558 1388.17 53.7077C1389.37 59.3313 1391.48 61.2153 1391.48 61.2153C1391.48 61.2153 1403.93 61.2153 1410.69 65.4331C1417.45 69.6508 1420.37 69.1728 1424.75 75.2745C1429.12 81.3762 1433.39 86.297 1433.39 86.297L1441.27 77.1585C1441.27 77.1585 1449.68 69.7633 1444.94 58.1223C1440.2 46.4812 1438.46 33.125 1435.66 26.0953C1432.85 19.0657 1426.71 10.6021 1425.73 4.75342L1424.75 -1.0671L1429.07 4.75342V4.66907Z" fill="black"/>
<path d="M1433.39 -1.17948C1433.39 2.02602 1431.45 4.64104 1429.07 4.64104C1426.68 4.64104 1424.75 2.02602 1424.75 -1.17948C1424.75 -4.38498 1426.68 -7 1429.07 -7C1431.45 -7 1433.39 -4.38498 1433.39 -1.17948Z" fill="#729E79"/>
<path d="M1423.4 90.6553C1431.93 86.2126 1455.32 68.498 1440.23 46.3688C1425.14 24.2395 1421.69 1.40736 1429.88 -3.17594C1432.91 -4.89117 1433.95 -2.69793 1432.49 -1.15142C1431.28 0.113914 1430.3 1.63231 1429.71 3.2913C1428.42 6.9467 1427.49 13.3577 1431.45 21.7651C1440.57 41.1106 1446.01 42.3197 1447.94 60.7935C1448.62 67.3733 1439.28 88.3777 1425.84 94.0296C1412.4 99.6814 1423.37 90.6835 1423.37 90.6835L1423.4 90.6553Z" fill="#5C736E"/>
<path d="M1352.07 104.096C1360.59 99.6534 1396.39 80.4766 1381.32 58.3474C1366.26 36.2181 1396.16 9.92738 1403.88 4.58487C1413.69 -2.21979 1429.88 -1.71366 1428.42 -0.167145C1427.21 1.09819 1415.69 -0.167146 1406.46 6.80623C1403.37 9.14006 1385.92 25.8143 1381.69 34.1092C1373.75 49.5744 1387.83 53.6235 1389.77 72.0692C1390.44 78.6489 1367.97 101.847 1354.56 107.47C1341.13 113.122 1352.09 104.124 1352.09 104.124L1352.07 104.096Z" fill="#5C736E"/>
<path d="M1375.26 129.121C1380.06 154.203 1369.82 177.26 1352.4 180.606C1334.98 183.952 1316.98 166.322 1312.18 141.241C1307.38 116.159 1317.62 93.1017 1335.04 89.7556C1352.46 86.4095 1370.47 104.04 1375.26 129.121Z" fill="#5C736E"/>
<path d="M1409.85 160.442C1428.36 156.891 1439.25 132.398 1434.16 105.736C1429.07 79.0744 1409.94 60.3394 1391.42 63.8905C1372.9 67.4416 1362.01 91.9341 1367.1 118.596C1372.19 145.258 1391.33 163.993 1409.85 160.442Z" fill="#5C736E"/>
<path d="M1415.29 109.354C1418.91 128.306 1411.17 145.711 1398.01 148.242C1384.86 150.773 1371.25 137.445 1367.63 118.493C1364.02 99.5409 1371.76 82.1356 1384.91 79.6049C1398.07 77.0743 1411.67 90.4024 1415.29 109.354Z" fill="#9C9C9C"/>
<path d="M1415.43 109.326C1418.72 126.507 1411.7 142.309 1399.75 144.587C1387.8 146.864 1375.49 134.801 1372.21 117.621C1368.92 100.441 1375.94 84.6382 1387.89 82.3606C1399.81 80.083 1412.15 92.1458 1415.43 109.326Z" fill="#6A847E"/>
<path d="M1357.51 132.524C1360.9 150.351 1353.64 166.744 1341.24 169.106C1328.87 171.468 1316.05 158.955 1312.66 141.128C1309.26 123.301 1316.53 106.908 1328.92 104.546C1341.32 102.184 1354.11 114.697 1357.51 132.524Z" fill="#9C9C9C"/>
<path d="M1357.62 132.524C1360.71 148.692 1354.11 163.539 1342.87 165.704C1331.65 167.869 1320.03 156.481 1316.95 140.313C1313.86 124.145 1320.45 109.298 1331.7 107.133C1342.92 104.968 1354.54 116.356 1357.62 132.524Z" fill="#6A847E"/>
<path d="M1386.18 86.2126L1413.86 118.661L1412.68 121.951L1386.18 86.2126Z" fill="#9C9C9C"/>
<path d="M1377.28 94.0298L1409.94 134.633L1408.39 137.67L1377.28 94.0298Z" fill="#9C9C9C"/>
<path d="M1372.85 103.084L1402.7 141.212L1371.53 105.896L1372.85 103.084Z" fill="#9C9C9C"/>
<path d="M1373.86 121.782L1393.89 142.899L1391.39 142.45L1373.86 121.782Z" fill="#9C9C9C"/>
<path d="M1394.03 86.3533L1373.67 117.059L1396.86 85.8191L1394.03 86.3533Z" fill="#9C9C9C"/>
<path d="M1404.61 93.158L1378.18 131.005L1406.82 93.6641L1404.61 93.158Z" fill="#9C9C9C"/>
<path d="M1412.18 103.449C1411.81 103.984 1386.09 140.256 1386.09 140.256L1387.72 141.606L1412.18 103.421V103.449Z" fill="#9C9C9C"/>
<path d="M1412.6 127.434L1398.38 143.153L1399.16 143.406L1412.6 127.434Z" fill="#9C9C9C"/>
<path d="M1332.88 108.539L1317.62 136.714L1318.07 139.132L1332.88 108.539Z" fill="#9C9C9C"/>
<path d="M1343.82 113.431L1322.33 151.448L1323.62 153.95L1343.82 113.431Z" fill="#9C9C9C"/>
<path d="M1352.15 123.667L1330.27 161.233L1353.64 125.635L1352.15 123.667Z" fill="#9C9C9C"/>
<path d="M1354.98 139.806L1338.77 163.51L1355.54 142.646L1354.98 139.806Z" fill="#9C9C9C"/>
<path d="M1318.71 122.907L1351.17 157.24L1319.05 119.505L1318.71 122.907Z" fill="#9C9C9C"/>
<path d="M1326.15 112.025L1355.4 146.527L1327.89 111.013L1326.15 112.025Z" fill="#9C9C9C"/>
<path d="M1338.97 110.338L1356.08 132.018L1340.34 110.085L1338.97 110.338Z" fill="#9C9C9C"/>
<path d="M1316.61 132.524L1342.81 163.229L1339.28 163.904L1316.61 132.524Z" fill="#9C9C9C"/>
</g>
<path d="M606.482 856C680.975 856 741.364 847.057 741.364 836.025C741.364 824.992 680.975 816.049 606.482 816.049C531.988 816.049 471.6 824.992 471.6 836.025C471.6 847.057 531.988 856 606.482 856Z" fill="#D6985B"/>
<path d="M714.523 842.339H712.087C708.861 842.339 706.248 839.732 706.248 836.513V721.78H720.362V836.513C720.362 839.732 717.749 842.339 714.523 842.339Z" fill="#D8CEBF"/>
<path d="M546.853 842.339H544.417C541.191 842.339 538.578 839.732 538.578 836.513V721.78H552.692V836.513C552.692 839.732 550.079 842.339 546.853 842.339Z" fill="#D8CEBF"/>
<path d="M485.373 721.169H731.809C735.552 721.169 738.573 724.224 738.573 727.999C738.573 731.775 735.538 734.83 731.809 734.83H688.01V835.223C688.01 839.161 684.852 842.339 680.946 842.339C677.039 842.339 673.882 839.148 673.882 835.223V734.83H520.339V835.223C520.339 839.161 517.182 842.339 513.275 842.339C509.369 842.339 506.211 839.148 506.211 835.223V734.83H485.36C481.617 734.83 478.595 731.775 478.595 727.999C478.595 724.224 481.63 721.169 485.36 721.169H485.373Z" fill="#F6EEE1"/>
<path d="M564.887 772.703H658.229C662.911 772.703 666.709 776.247 666.709 780.62V784.572C666.709 787.152 665.361 789.42 663.32 790.873V838.781C663.32 840.75 661.605 842.339 659.495 842.339C657.386 842.339 655.671 840.75 655.671 838.781V792.488H581.002V838.781C581.002 840.75 579.287 842.339 577.178 842.339C575.068 842.339 573.353 840.75 573.353 838.781V792.488H564.874V772.703H564.887Z" fill="#AD6441"/>
<path d="M559.919 702.28C560.75 696.481 566.071 692 572.523 692H631.076C637.528 692 642.849 696.481 643.68 702.28H643.802V838.768C643.802 840.737 642.087 842.325 639.977 842.325C637.868 842.325 636.153 840.737 636.153 838.768V743.426H567.419V838.768C567.419 840.737 565.704 842.325 563.594 842.325C561.485 842.325 559.77 840.737 559.77 838.768V702.28H559.892H559.919Z" fill="#FC7B51"/>
<path d="M574.32 733.934H629.266C632.37 733.934 634.887 731.423 634.887 728.325V706.313C634.887 703.215 632.37 700.704 629.266 700.704H574.32C571.215 700.704 568.698 703.215 568.698 706.313V728.325C568.698 731.423 571.215 733.934 574.32 733.934Z" fill="#C7744C"/>
<path d="M290.359 856C364.852 856 425.241 847.057 425.241 836.025C425.241 824.992 364.852 816.049 290.359 816.049C215.866 816.049 155.477 824.992 155.477 836.025C155.477 847.057 215.866 856 290.359 856Z" fill="#D6985B"/>
<path d="M388.914 842.339H386.478C383.252 842.339 380.639 839.732 380.639 836.513V721.78H394.753V836.513C394.753 839.732 392.14 842.339 388.914 842.339Z" fill="#D8CEBF"/>
<path d="M221.258 842.339H218.822C215.596 842.339 212.983 839.732 212.983 836.513V721.78H227.097L227.097 836.513C227.097 839.732 224.484 842.339 221.258 842.339Z" fill="#D8CEBF"/>
<path d="M159.765 721.169H406.2C409.943 721.169 412.965 724.224 412.965 727.999C412.965 731.774 409.929 734.83 406.2 734.83H362.401V835.223C362.401 839.161 359.243 842.339 355.337 842.339C351.431 842.339 348.273 839.148 348.273 835.223V734.83H194.744V835.223C194.744 839.161 191.586 842.339 187.68 842.339C183.774 842.339 180.616 839.148 180.616 835.223V734.83H159.765C156.022 734.83 153 731.774 153 727.999C153 724.224 156.035 721.169 159.765 721.169Z" fill="#F6EEE1"/>
<path d="M239.278 772.703H332.62C337.303 772.703 341.1 776.247 341.1 780.62V784.572C341.1 787.152 339.752 789.42 337.711 790.873V838.781C337.711 840.75 335.996 842.339 333.886 842.339C331.777 842.339 330.062 840.75 330.062 838.781V792.488H255.393V838.781C255.393 840.75 253.678 842.339 251.569 842.339C249.459 842.339 247.744 840.75 247.744 838.781V792.488H239.265V772.703H239.278Z" fill="#AD6441"/>
<path d="M234.324 702.28C235.154 696.481 240.476 692 246.928 692H305.481C311.932 692 317.254 696.481 318.084 702.28H318.207V838.768C318.207 840.737 316.492 842.325 314.382 842.325C312.273 842.325 310.558 840.737 310.558 838.768V743.426H241.824V838.768C241.824 840.737 240.109 842.325 237.999 842.325C235.889 842.325 234.174 840.737 234.174 838.768V702.28H234.297H234.324Z" fill="#FC7B51"/>
<path d="M248.724 733.934H303.67C306.775 733.934 309.292 731.423 309.292 728.325V706.313C309.292 703.215 306.775 700.704 303.67 700.704H248.724C245.619 700.704 243.103 703.215 243.103 706.313V728.325C243.103 731.423 245.619 733.934 248.724 733.934Z" fill="#C7744C"/>
</g>
<defs>
<clipPath id="clip0_1_6932">
<rect width="1441" height="958" fill="white" transform="translate(-1 -58)"/>
</clipPath>
<clipPath id="clip1_1_6932">
<rect width="137" height="188" fill="white" transform="translate(1311 -7)"/>
</clipPath>
</defs>
</svg>
