<svg width="135" height="108" viewBox="0 0 135 108" fill="none" xmlns="http://www.w3.org/2000/svg">
<path d="M31.7827 74.9362C33.9614 76.6497 40.2971 81.5309 47.536 86.1862C59.7859 94.0417 68.7871 97.508 74.2621 96.4406C74.7424 96.3469 75.2227 96.2533 75.6362 96.0732L75.6843 96.0638L75.7323 96.0545L75.8283 96.0357C76.4727 95.7609 77.0117 95.4569 77.5319 95.0571C81.6461 91.8681 84.3274 85.6764 85.2557 77.1412C86.1012 69.7162 85.6033 60.5143 83.8673 51.3548C82.0366 41.9652 79.0999 33.0399 75.471 26.1889C71.3097 18.3974 66.4614 13.4748 61.3838 11.9784C60.6941 11.7648 59.9844 11.7043 59.2359 11.701L59.1879 11.7104C58.737 11.6989 58.2474 11.7446 57.7191 11.8476C52.2921 12.9057 45.263 19.2986 36.7866 30.7973C30.6008 39.2138 25.8744 47.4452 25.7877 47.5118C25.797 47.5597 25.7103 47.6264 25.7197 47.6743C23.7332 47.7135 20.326 47.8805 17.3483 48.4611C14.947 48.9293 13.2834 49.6017 12.2041 50.4586C7.19212 54.6681 7.72863 60.2324 8.69068 65.1667L8.70936 65.2625L8.7187 65.3104L8.73738 65.4063C9.69943 70.3406 11.2925 75.6989 17.5094 77.6693C18.8409 78.1059 20.6259 78.0563 23.0272 77.5881C26.4371 76.9232 30.1578 75.5513 31.8214 74.8789L31.7827 74.9362Z" fill="#6C3F2A"/>
<path d="M93.3767 54.8701C91.952 55.7446 91.0235 57.1191 90.6793 58.678C90.3352 60.2369 90.6341 61.7699 91.5387 63.0854C92.8808 65.1111 95.3609 66.0697 97.7623 65.6015C98.5307 65.4517 99.2231 65.1675 99.8874 64.7396C106.463 60.6231 109.794 53.161 108.365 45.8314C106.936 38.5017 101.046 32.8375 93.4052 31.4927C92.6288 31.3457 91.8804 31.3424 91.1119 31.4923C88.6626 31.9698 86.7722 33.7805 86.2894 36.1621C85.9933 37.7116 86.2922 39.2446 87.1487 40.5694C88.0626 41.9328 89.4301 42.8099 91.079 43.0851C93.8112 43.547 95.9018 45.576 96.4062 48.1629C96.9106 50.7499 95.726 53.3678 93.3767 54.8701Z" fill="#6C3F2A"/>
<path d="M101.489 16.4477C100.713 16.3007 99.9164 16.3068 99.148 16.4566C96.6987 16.9342 94.7883 18.8979 94.3241 21.3753C93.7306 24.7233 95.8626 27.9875 99.1885 28.6817C107.029 30.2858 113.089 36.5635 114.667 44.6596C116.246 52.7557 112.931 60.8114 106.324 65.282C103.542 67.1175 102.753 71.0007 104.561 73.8805C105.931 76.05 108.43 77.1044 110.879 76.6268C111.648 76.477 112.388 76.1835 113.043 75.7077C123.848 68.4792 129.224 55.397 126.674 42.3186C124.124 29.2402 114.266 19.0785 101.499 16.4956L101.489 16.4477Z" fill="#6C3F2A"/>
<path d="M81.6164 48.7582C81.523 48.2792 81.4296 47.8001 81.3362 47.321L81.3175 47.2252C81.2241 46.7462 81.1307 46.2671 80.9892 45.7974C80.613 44.379 80.2367 42.9605 79.8605 41.542C79.2947 39.6632 78.6903 37.8417 78.0953 36.0681C77.9632 35.6463 77.7831 35.2339 77.651 34.8121C77.6229 34.6684 77.6043 34.5726 77.5282 34.4382C77.4148 34.1122 77.3107 33.8342 77.1493 33.5175C77.1213 33.3738 77.0546 33.2874 76.9785 33.153C76.8077 32.7885 76.685 32.4146 76.5142 32.0501L76.4955 31.9543C76.3154 31.5418 76.1353 31.1294 75.9645 30.7649C75.9459 30.6691 75.9272 30.5733 75.8605 30.4868C75.699 30.1702 75.595 29.8921 75.4335 29.5755C75.4148 29.4797 75.3388 29.3453 75.2721 29.2589C75.1107 28.9423 74.9399 28.5778 74.7784 28.2611C74.7691 28.2132 74.7598 28.1653 74.7504 28.1174C74.5796 27.7529 74.3515 27.3498 74.1807 26.9853C74.1714 26.9374 74.1527 26.8416 74.0953 26.8031C73.9339 26.4864 73.7818 26.2177 73.6204 25.9011C73.6017 25.8053 73.535 25.7189 73.4683 25.6324C73.3068 25.3158 73.0974 25.0085 72.9453 24.7398C72.9359 24.6919 72.9266 24.644 72.8692 24.6055C72.6504 24.2503 72.4316 23.8952 72.2222 23.5879C72.2222 23.5879 72.2128 23.54 72.2035 23.4921C71.994 23.1848 71.8326 22.8682 71.6325 22.6089C71.6138 22.5131 71.5564 22.4745 71.4897 22.3881C71.2896 22.1287 71.1375 21.86 70.9374 21.6007C70.9374 21.6007 70.9187 21.5049 70.8613 21.4663C70.3944 20.8612 69.9754 20.2467 69.4698 19.6988C69.4605 19.6509 69.4031 19.6124 69.3364 19.5259C69.1363 19.2666 68.9455 19.0551 68.7547 18.8437C68.7547 18.8437 68.688 18.7572 68.6306 18.7187C66.2839 16.1429 63.7797 14.2939 61.0875 13.5259C60.3488 22.5214 60.4638 31.5494 61.3086 40.4847C64.333 40.1437 67.2947 40.7597 69.8015 42.1109C73.4756 44.0798 76.2586 47.6148 77.1179 52.0222C77.6877 54.9445 77.3169 57.901 76.2191 60.4522C74.5383 64.3603 71.1538 67.4568 66.8007 68.6536C68.3084 73.8296 70.1523 78.9401 72.2363 84.0038C73.4678 86.996 74.8434 89.9601 76.2669 92.9148L76.6845 93.7782C76.6845 93.7782 77.0701 93.4544 77.2915 93.3117C77.2915 93.3117 77.3396 93.3024 77.3782 93.2451C77.5423 93.0639 77.7638 92.9213 77.9279 92.7401C77.9279 92.7401 78.0146 92.6735 78.0052 92.6256C78.1693 92.4444 78.3334 92.2632 78.4975 92.0821C78.4975 92.0821 78.5362 92.0248 78.5749 91.9675C78.739 91.7864 78.8937 91.5573 79.0965 91.3188C79.0965 91.3188 79.406 90.8607 79.5607 90.6316L79.6381 90.517C79.6381 90.517 79.9476 90.0589 80.0543 89.8392C80.0543 89.8392 80.0836 89.734 80.1317 89.7246C80.2864 89.4955 80.3838 89.2279 80.5385 88.9988C80.5385 88.9988 80.5679 88.8937 80.6159 88.8843C80.7613 88.6073 80.8587 88.3397 81.0041 88.0627C81.1402 87.7378 81.2375 87.4702 81.3349 87.2026C81.3349 87.2026 81.3256 87.1547 81.3643 87.0974C81.4617 86.8298 81.6071 86.5528 81.6951 86.2373C81.6951 86.2373 81.7244 86.1321 81.7631 86.0748C81.8605 85.8072 81.9485 85.4917 82.0459 85.224C82.0459 85.224 82.0753 85.1189 82.114 85.0616C82.202 84.7461 82.29 84.4305 82.3781 84.115C82.4568 83.7516 82.5448 83.436 82.6235 83.0726C82.6235 83.0726 82.6142 83.0247 82.6529 82.9674C82.7409 82.6519 82.8196 82.2885 82.8596 81.9823C82.8503 81.9344 82.8889 81.8771 82.9276 81.8199C83.0157 81.5043 83.0463 81.1503 83.1344 80.8347C83.125 80.7868 83.1157 80.7389 83.1544 80.6816C83.2331 80.3182 83.2638 79.9641 83.3425 79.6007C83.3425 79.6007 83.3331 79.5528 83.3238 79.5049C83.4025 79.1415 83.4331 78.7874 83.4638 78.4333C83.4638 78.4333 83.4545 78.3854 83.4451 78.3375C83.4758 77.9834 83.5545 77.62 83.5758 77.218C83.5665 77.1701 83.5572 77.1222 83.5865 77.017C83.6172 76.663 83.6478 76.3089 83.7172 75.8976C83.7079 75.8496 83.6985 75.8017 83.7279 75.6966C83.7492 75.2946 83.7799 74.9405 83.8012 74.5385C83.8012 74.5385 83.7919 74.4906 83.7825 74.4427C83.8038 74.0407 83.8252 73.6388 83.8465 73.2368L83.8278 73.141C83.8492 72.739 83.8705 72.337 83.8918 71.935C83.8825 71.8871 83.8731 71.8392 83.8545 71.7434C83.8758 71.3414 83.8491 70.9488 83.8704 70.5469C83.8611 70.4989 83.8517 70.451 83.8331 70.3552C83.8544 69.9533 83.8184 69.5127 83.8397 69.1108C83.8397 69.1108 83.8303 69.0628 83.821 69.0149C83.833 68.5651 83.8063 68.1725 83.8183 67.7226C83.7729 67.2341 83.7942 66.8322 83.7582 66.3916C83.7489 66.3437 83.7395 66.2958 83.7302 66.2479C83.6942 65.8074 83.7155 65.4054 83.6795 64.9649C83.6701 64.917 83.6608 64.8691 83.6514 64.8212C83.6154 64.3807 83.5794 63.9401 83.5433 63.4996C83.5433 63.4996 83.534 63.4517 83.5246 63.4038C83.4432 62.4749 83.3712 61.5938 83.2897 60.6649C83.2897 60.6649 83.2711 60.5691 83.2617 60.5212C83.1777 60.09 83.1896 59.6401 83.1056 59.209C83.0962 59.1611 83.0869 59.1132 83.0776 59.0653C82.9935 58.6341 82.9481 58.1457 82.9121 57.7052C82.764 56.6898 82.6345 55.7702 82.4957 54.8027L82.4771 54.7069C82.3837 54.2278 82.2996 53.7967 82.2062 53.3176L82.1875 53.2218C82.0941 52.7427 82.0101 52.3116 81.9166 51.8325C81.7205 50.8265 81.5337 49.8684 81.3469 48.9102L81.6164 48.7582Z" fill="#E74F4F"/>
<path d="M74.3484 93.0457C62.4928 68.8028 57.2435 41.8795 59.1236 14.9586C59.165 14.4035 59.2063 13.8485 59.2476 13.2934C58.7007 13.3006 58.115 13.3651 57.548 13.5253C57.452 13.5441 57.3559 13.5628 57.2118 13.5909C57.1158 13.6096 57.0197 13.6283 56.9717 13.6377C56.8756 13.6564 56.7316 13.6845 56.6449 13.7512C56.5488 13.7699 56.5008 13.7792 56.4047 13.798C56.2606 13.8261 56.1739 13.8927 56.0392 13.9687C55.9431 13.9874 55.8951 13.9968 55.8084 14.0634C55.6643 14.0915 55.5296 14.1675 55.4429 14.2341C55.3948 14.2435 55.2988 14.2622 55.2601 14.3195C55.116 14.3476 54.9906 14.4715 54.8559 14.5475C54.8079 14.5569 54.7118 14.5756 54.6731 14.6329C54.5384 14.7089 54.3556 14.7942 54.2209 14.8702C54.1728 14.8796 54.1248 14.8889 54.0861 14.9462C53.9034 15.0316 53.778 15.1555 53.5952 15.2408C53.5952 15.2408 53.4991 15.2596 53.4605 15.3168C53.287 15.4501 53.1043 15.5355 52.9308 15.6687C52.9308 15.6687 52.8828 15.6781 52.8348 15.6875C52.6614 15.8207 52.4879 15.954 52.3145 16.0873L52.2184 16.106C52.2184 16.106 51.8329 16.4298 51.6595 16.5631L51.6115 16.5724C51.6115 16.5724 51.2259 16.8962 51.0138 17.0868C51.0138 17.0868 50.5896 17.4678 50.3681 17.6105C50.3681 17.6105 49.9826 17.9343 49.7705 18.1248L49.7224 18.1342C38.9047 27.8516 27.2442 48.0766 27.2442 48.0766L32.0544 72.7483C32.0544 72.7483 39.0386 78.3982 47.6063 83.9879C47.9025 84.2285 48.1893 84.4212 48.4668 84.566C48.7536 84.7587 49.0405 84.9515 49.3273 85.1442C49.3847 85.1827 49.442 85.2212 49.4994 85.2598C49.7289 85.414 49.9583 85.5681 50.1878 85.7223C50.2932 85.7515 50.3599 85.8379 50.4653 85.8671C50.6948 86.0213 50.9149 86.1275 51.0963 86.2911C51.2111 86.3682 51.2684 86.4067 51.3832 86.4838C51.6033 86.59 51.7847 86.7536 52.0049 86.8598C52.1196 86.9369 52.225 86.9661 52.2917 87.0526C52.5118 87.1588 52.6933 87.3224 52.9134 87.4286C53.0281 87.5057 53.1335 87.5349 53.2483 87.612C53.4684 87.7182 53.6498 87.8818 53.87 87.988C53.9847 88.0651 54.0901 88.0943 54.1568 88.1807C54.3769 88.287 54.6064 88.4412 54.8265 88.5474C54.9319 88.5766 54.9986 88.6631 55.104 88.6922C55.3335 88.8464 55.5536 88.9527 55.8311 89.0975C55.8885 89.136 55.9939 89.1652 56.0512 89.2037C56.3287 89.3485 56.6636 89.5319 56.9411 89.6767C57.276 89.86 57.5628 90.0528 57.8883 90.1882C58.1751 90.3809 58.5007 90.5163 58.7782 90.6612C58.8355 90.6997 58.9409 90.7289 58.9983 90.7674C59.2184 90.8737 59.4385 90.9799 59.6587 91.0862C59.7641 91.1154 59.8788 91.1925 59.9362 91.231C60.1563 91.3373 60.3191 91.405 60.5392 91.5113C60.6446 91.5404 60.7593 91.6175 60.8647 91.6467C61.0848 91.753 61.2476 91.8207 61.4104 91.8884C61.5157 91.9176 61.6305 91.9947 61.7359 92.0239C61.8986 92.0916 62.1188 92.1978 62.2815 92.2656C62.3869 92.2947 62.5017 92.3718 62.607 92.401C62.7698 92.4687 62.9806 92.5271 63.1527 92.6427C63.2581 92.6719 63.3728 92.749 63.4782 92.7781C63.641 92.8459 63.8518 92.9042 64.0145 92.9719C64.1199 93.0011 64.2253 93.0303 64.3401 93.1074C64.5508 93.1657 64.7136 93.2335 64.9244 93.2918C65.0298 93.321 65.1352 93.3502 65.1925 93.3887C65.4033 93.4471 65.6235 93.5533 65.8342 93.6117C65.8823 93.6023 65.9877 93.6315 66.045 93.6701C66.5813 93.8639 67.1563 94.0004 67.6833 94.1463C67.7794 94.1275 67.8367 94.1661 67.9421 94.1953C68.1529 94.2536 68.3063 94.2734 68.5171 94.3318C68.6132 94.3131 68.7279 94.3902 68.824 94.3714C68.9774 94.3912 69.1401 94.459 69.2936 94.4788C69.3896 94.46 69.495 94.4892 69.6004 94.5184C69.7538 94.5382 69.9072 94.558 70.0607 94.5778C70.1567 94.5591 70.2621 94.5883 70.3675 94.6175C70.5116 94.5894 70.6744 94.6571 70.7797 94.6863C70.8758 94.6676 70.9812 94.6967 71.0866 94.7259C71.2307 94.6978 71.3361 94.727 71.4895 94.7468C71.5855 94.7281 71.6816 94.7094 71.787 94.7385C71.9311 94.7104 72.0365 94.7396 72.1805 94.7115C72.2766 94.6928 72.3726 94.6741 72.4687 94.6553C72.6128 94.6273 72.7088 94.6085 72.8529 94.5804C72.949 94.5617 72.997 94.5523 73.093 94.5336C73.1411 94.5243 73.1891 94.5149 73.2852 94.4962C73.8615 94.3838 74.3898 94.2808 74.8994 94.082L74.4151 93.1321C74.4151 93.1321 74.2443 92.7676 74.1589 92.5853L74.3484 93.0457Z" fill="#FCD397"/>
<path d="M30.419 73.3092L25.7395 49.3082C23.8011 49.338 20.4899 49.4863 17.6563 50.0388C15.8313 50.3946 14.1877 50.914 13.2432 51.6949C9.21436 55.0662 9.27722 59.4796 10.3233 64.8451L10.342 64.941L10.3607 65.0368C11.4068 70.4023 13.0546 74.5067 18.0067 76.127C19.1274 76.5052 20.8457 76.3691 22.7187 76.0039C25.5523 75.4515 28.7247 74.3357 30.5324 73.6351C30.5137 73.5393 30.4857 73.3956 30.467 73.2998L30.419 73.3092Z" fill="#FCD397"/>
<path d="M81.6167 48.7585C81.5233 48.2794 81.4299 47.8004 81.3458 47.3692L81.3272 47.2734C81.2338 46.7944 81.1403 46.3153 80.9989 45.8456C80.6227 44.4271 80.2464 43.0087 79.8701 41.5902C79.3044 39.7114 78.7 37.8899 78.1049 36.1163C75.3911 28.5896 71.8276 22.0739 67.7718 17.8919C72.4667 24.5849 71.5038 34.2208 69.6871 42.0341C73.3612 44.003 76.1442 47.538 77.0036 51.9454C77.5733 54.8677 77.2025 57.8242 76.1047 60.3754C79.8431 68.2991 81.5337 76.9701 74.143 82.787C73.5454 83.3014 72.8717 83.6814 72.1126 83.8791C73.3441 86.8713 74.7196 89.8354 76.1432 92.7901L76.5608 93.6535C76.5608 93.6535 76.9463 93.3297 77.1678 93.187C77.1678 93.187 77.2158 93.1777 77.2545 93.1204C77.4186 92.9392 77.64 92.7966 77.8041 92.6154C77.8041 92.6154 77.8908 92.5488 77.8815 92.5009C78.0456 92.3197 78.2097 92.1385 78.3738 91.9574C78.3738 91.9574 78.4124 91.9001 78.4511 91.8428C78.6152 91.6616 78.77 91.4326 78.9727 91.1941C78.9727 91.1941 79.2822 90.736 79.437 90.5069L79.5144 90.3923C79.5144 90.3923 79.8238 89.9342 79.9306 89.7145C79.9306 89.7145 79.9599 89.6093 80.0079 89.5999C80.1627 89.3708 80.2601 89.1032 80.4148 88.8741C80.4148 88.8741 80.4441 88.769 80.4922 88.7596C80.6376 88.4826 80.735 88.215 80.8804 87.938C81.0164 87.6131 81.1138 87.3455 81.2112 87.0779C81.2112 87.0779 81.2018 87.03 81.2405 86.9727C81.3379 86.7051 81.4833 86.4281 81.5714 86.1125C81.5714 86.1125 81.6007 86.0074 81.6394 85.9501C81.7368 85.6825 81.8248 85.3669 81.9222 85.0993C81.9222 85.0993 81.9515 84.9942 81.9902 84.9369C82.0783 84.6214 82.1663 84.3058 82.2543 83.9903C82.333 83.6269 82.4211 83.3113 82.4998 82.9479C82.4998 82.9479 82.4904 82.9 82.5291 82.8427C82.6171 82.5272 82.6958 82.1638 82.7359 81.8576C82.7265 81.8097 82.7652 81.7524 82.8039 81.6951C82.8919 81.3796 82.9226 81.0256 83.0106 80.71C83.0013 80.6621 82.992 80.6142 83.0306 80.5569C83.1093 80.1935 83.14 79.8394 83.2187 79.476C83.2187 79.476 83.2094 79.4281 83.2 79.3802C83.2787 79.0168 83.3094 78.6627 83.3401 78.3086C83.3401 78.3086 83.3307 78.2607 83.3214 78.2128C83.3521 77.8587 83.4308 77.4953 83.4521 77.0933C83.4428 77.0454 83.4334 76.9975 83.4628 76.8923C83.4934 76.5383 83.5241 76.1842 83.5935 75.7728C83.5841 75.7249 83.5748 75.677 83.6041 75.5719C83.6255 75.1699 83.6561 74.8158 83.6775 74.4138C83.6775 74.4138 83.6681 74.3659 83.6588 74.318C83.6801 73.916 83.7014 73.5141 83.7228 73.1121L83.7041 73.0163C83.7254 72.6143 83.7468 72.2123 83.7681 71.8103C83.7587 71.7624 83.7494 71.7145 83.7307 71.6187C83.7521 71.2167 83.7254 70.8241 83.7467 70.4221C83.7373 70.3742 83.728 70.3263 83.7093 70.2305C83.7307 69.8285 83.6946 69.388 83.7159 68.986C83.7159 68.986 83.7066 68.9381 83.6973 68.8902C83.7093 68.4404 83.6826 68.0477 83.6946 67.5979C83.6492 67.1094 83.6705 66.7075 83.6345 66.2669C83.6251 66.219 83.6158 66.1711 83.6065 66.1232C83.5704 65.6827 83.5917 65.2807 83.5557 64.8402C83.5464 64.7923 83.537 64.7444 83.5277 64.6965C83.4917 64.256 83.4556 63.8154 83.4196 63.3749C83.4196 63.3749 83.4102 63.327 83.4009 63.2791C83.3195 62.3502 83.2474 61.4691 83.166 60.5402C83.166 60.5402 83.1473 60.4444 83.138 60.3965C83.0539 59.9653 83.0659 59.5154 82.9818 59.0843C82.9725 59.0364 82.9632 58.9885 82.9538 58.9405C82.8698 58.5094 82.8244 58.021 82.7883 57.5804C82.6402 56.565 82.5108 55.6455 82.372 54.678L82.3533 54.5822C82.2599 54.1031 82.1759 53.6719 82.0825 53.1929L82.0638 53.0971C81.9704 52.618 81.8863 52.1869 81.7929 51.7078C81.5968 50.7018 81.41 49.7436 81.2231 48.7855L81.6167 48.7585Z" fill="#E74F4F"/>
<path d="M106.781 46.1466C105.474 39.4398 100.147 34.362 93.1679 33.087C92.6023 32.9984 92.0073 33.015 91.479 33.118C89.75 33.4551 88.3133 34.7795 87.9585 36.5394C87.4663 38.8731 89.0379 41.053 91.4246 41.5325C94.8372 42.1601 97.4628 44.6318 98.0979 47.8894C98.7331 51.147 97.2377 54.4719 94.3014 56.2876C92.2123 57.59 91.632 60.2392 92.9649 62.2171C93.9548 63.7148 95.7839 64.4025 97.5128 64.0654C98.0411 63.9624 98.5988 63.7542 99.0897 63.4596C105.088 59.7043 108.108 52.9493 106.8 46.2425L106.781 46.1466Z" fill="#E74F4F"/>
<path d="M125.031 42.5852C122.612 30.1775 113.25 20.5157 101.154 18.0506C100.579 17.9141 99.9837 17.9306 99.4554 18.0336C97.7265 18.3707 96.299 19.743 95.9723 21.6467C95.5081 24.1241 97.1264 26.5435 99.5225 27.0709C107.986 28.8022 114.59 35.5705 116.299 44.3373C118.008 53.1042 114.421 61.8096 107.238 66.6415C105.158 67.9918 104.615 70.8326 105.985 73.0021C107.003 74.6435 108.841 75.3791 110.57 75.042C111.099 74.939 111.656 74.7308 112.138 74.3883C122.422 67.5596 127.469 55.0887 125.049 42.681L125.031 42.5852Z" fill="#E74F4F"/>
<path d="M66.1382 67.0462C72.5284 65.3031 76.6119 58.8877 75.3322 52.3246C74.0526 45.7614 67.8583 41.35 61.2813 42.135C62.1767 50.5632 63.802 58.8989 66.1476 67.0941L66.1382 67.0462Z" fill="#E74F4F"/>
<path d="M56.0112 31.7226C54.8469 41.3481 44.4199 49.7461 49.7113 59.7539C53.7525 66.6737 64.6977 76.2754 53.7184 82.0958C51.7359 83.1785 49.6308 83.8874 47.5563 84.2421C47.8431 84.4348 48.178 84.6181 48.4648 84.8109C48.7517 85.0036 49.0385 85.1963 49.3253 85.389C49.3827 85.4275 49.4401 85.4661 49.4974 85.5046C49.7269 85.6588 49.9564 85.813 50.1858 85.9671C50.2912 85.9963 50.3579 86.0828 50.4633 86.1119C50.6928 86.2661 50.9129 86.3724 51.0944 86.5359C51.2091 86.613 51.2665 86.6515 51.3812 86.7286C51.6013 86.8349 51.7828 86.9984 52.0029 87.1047C52.1176 87.1818 52.223 87.2109 52.2897 87.2974C52.5099 87.4036 52.6913 87.5672 52.9114 87.6734C53.0262 87.7505 53.1316 87.7797 53.2463 87.8568C53.4664 87.9631 53.6479 88.1266 53.868 88.2329C53.9827 88.3099 54.0881 88.3391 54.1548 88.4256C54.375 88.5318 54.6044 88.686 54.8246 88.7923C54.93 88.8214 54.9967 88.9079 55.1021 88.9371C55.3315 89.0912 55.5517 89.1975 55.8291 89.3423C55.8865 89.3808 55.9919 89.41 56.0493 89.4486C56.3268 89.5934 56.6616 89.7767 56.9391 89.9215C57.274 90.1049 57.5608 90.2976 57.8863 90.433C58.1732 90.6257 58.4987 90.7612 58.7762 90.906C58.8336 90.9445 58.939 90.9737 58.9963 91.0122C59.2165 91.1185 59.4366 91.2248 59.6567 91.331C59.7621 91.3602 59.8768 91.4373 59.9342 91.4758C60.1543 91.5821 60.3171 91.6498 60.5372 91.7561C60.6426 91.7853 60.7573 91.8624 60.8627 91.8915C61.0829 91.9978 61.2456 92.0655 61.4084 92.1332C61.5138 92.1624 61.6285 92.2395 61.7339 92.2687C61.8967 92.3364 62.1168 92.4427 62.2796 92.5104C62.385 92.5396 62.4997 92.6167 62.6051 92.6458C62.7678 92.7135 62.9786 92.7719 63.1507 92.8875C63.2561 92.9167 63.3709 92.9938 63.4763 93.023C63.639 93.0907 63.8498 93.1491 64.0126 93.2168C64.118 93.2459 64.2234 93.2751 64.3381 93.3522C64.5489 93.4106 64.7116 93.4783 64.9224 93.5366C65.0278 93.5658 65.1332 93.595 65.1906 93.6335C65.4014 93.6919 65.6215 93.7982 65.8323 93.8565C65.8803 93.8472 65.9857 93.8763 66.0431 93.9149C66.5794 94.1087 67.1544 94.2452 67.6813 94.3911C67.7774 94.3724 67.8348 94.4109 67.9402 94.4401C68.1509 94.4985 68.3044 94.5183 68.5152 94.5766C68.6112 94.5579 68.7259 94.635 68.822 94.6163C68.9754 94.6361 69.1382 94.7038 69.2916 94.7236C69.3877 94.7049 69.4931 94.7341 69.5984 94.7632C69.7519 94.783 69.9053 94.8029 70.0587 94.8227C70.1548 94.804 70.2602 94.8331 70.3655 94.8623C70.5096 94.8342 70.6724 94.9019 70.7778 94.9311C70.8738 94.9124 70.9792 94.9416 71.0846 94.9707C71.2287 94.9426 71.3341 94.9718 71.4875 94.9916C71.5836 94.9729 71.6796 94.9542 71.785 94.9834C71.9291 94.9553 72.0345 94.9845 72.1786 94.9564C72.2746 94.9376 72.3707 94.9189 72.4667 94.9002C72.6108 94.8721 72.7069 94.8534 72.8509 94.8253C72.947 94.8065 72.995 94.7972 73.0911 94.7785C73.1391 94.7691 73.1871 94.7597 73.2832 94.741C73.8595 94.6286 74.3878 94.5256 74.8974 94.3268L74.4131 93.377C74.4131 93.377 74.2423 93.0124 74.1569 92.8302C62.3014 68.5873 57.0521 41.664 58.9322 14.7431C58.9736 14.188 59.0149 13.633 59.0562 13.0779C58.5093 13.0851 57.9236 13.1496 57.3566 13.3098C57.2606 13.3286 57.1645 13.3473 57.0204 13.3754C56.9244 13.3941 56.8283 13.4128 56.7803 13.4222C56.6842 13.4409 56.5402 13.469 56.4534 13.5356C56.3574 13.5544 56.3094 13.5637 56.2133 13.5825C56.0692 13.6106 55.9825 13.6772 55.8478 13.7532C55.7517 13.7719 55.7037 13.7813 55.617 13.8479C55.4729 13.876 55.3382 13.952 55.2514 14.0186C55.2034 14.028 55.1074 14.0467 55.0687 14.104C54.9246 14.1321 54.7992 14.256 54.6645 14.332C54.6164 14.3414 54.5204 14.3601 54.4817 14.4174C54.347 14.4934 54.1642 14.5787 54.0294 14.6547C53.9814 14.6641 53.9334 14.6734 53.8947 14.7307C53.7119 14.8161 53.5865 14.94 53.4038 15.0253C53.4038 15.0253 53.3077 15.0441 53.269 15.1013C53.0956 15.2346 52.9128 15.32 52.7394 15.4532C52.7394 15.4532 52.6914 15.4626 52.6434 15.472C52.4699 15.6052 52.2965 15.7385 52.1231 15.8718L52.027 15.8905C52.027 15.8905 51.6415 16.2143 51.4681 16.3476L51.42 16.3569C51.42 16.3569 51.0345 16.6807 50.8224 16.8713C50.8224 16.8713 50.3982 17.2523 50.1767 17.395C50.1767 17.395 49.7525 17.7761 49.5404 17.9666C52.9451 21.8777 56.3018 25.7981 55.8311 31.3102L56.0112 31.7226Z" fill="#FBC474"/>
<path d="M40.4945 69.5027C39.8702 69.6244 40.057 70.5825 40.6813 70.4608C41.3057 70.3391 41.1189 69.381 40.4945 69.5027Z" fill="white"/>
<path d="M60.822 85.2913C60.1977 85.413 60.3845 86.3711 61.0088 86.2494C61.6332 86.1277 61.4464 85.1695 60.822 85.2913Z" fill="white"/>
<path d="M59.1903 58.2579C59.8147 58.1362 59.6279 57.1781 59.0035 57.2998C58.3792 57.4215 58.566 58.3797 59.1903 58.2579Z" fill="white"/>
<path d="M41.3175 48.4105C40.6932 48.5323 40.88 49.4904 41.5043 49.3687C42.1287 49.2469 41.9419 48.2888 41.3175 48.4105Z" fill="white"/>
<path d="M52.203 29.8344C51.5787 29.9561 51.7655 30.9142 52.3898 30.7925C53.0142 30.6708 52.8274 29.7126 52.203 29.8344Z" fill="white"/>
<path d="M22.969 54.2749C22.3446 54.3966 22.5315 55.3548 23.1558 55.233C23.7801 55.1113 23.5933 54.1532 22.969 54.2749Z" fill="white"/>
<path d="M23.3657 66.2822C22.7414 66.404 22.9282 67.3621 23.5525 67.2404C24.1769 67.1186 23.9901 66.1605 23.3657 66.2822Z" fill="white"/>
<path d="M52.3329 23.0871C52.9039 22.1802 51.8059 21.1511 50.9387 21.8174C43.4321 27.8062 36.195 37.2233 32.6546 46.1683C32.3038 47.1815 33.6433 47.9149 34.2809 47.0944C35.8938 45.1389 37.4012 43.1543 38.9567 41.1603C43.3056 35.3397 48.3189 29.0911 52.3236 23.0392L52.3329 23.0871Z" fill="white"/>
<path d="M31.7989 52.0058C32.8599 51.7989 33.5527 50.7733 33.3464 49.715C33.14 48.6567 32.1127 47.9664 31.0517 48.1733C29.9907 48.3802 29.2979 49.4058 29.5042 50.4641C29.7106 51.5224 30.7379 52.2127 31.7989 52.0058Z" fill="white"/>
<path d="M99.6119 57.1896C100.236 57.0679 100.049 56.1097 99.425 56.2315C98.8007 56.3532 98.9875 57.3113 99.6119 57.1896Z" fill="#E74F4F"/>
<path d="M103.133 44.5629C103.757 44.4411 103.57 43.483 102.946 43.6047C102.321 43.7265 102.508 44.6846 103.133 44.5629Z" fill="#E74F4F"/>
<path d="M93.0421 36.5325C92.4178 36.6542 92.6046 37.6123 93.2289 37.4906C93.8533 37.3689 93.6665 36.4108 93.0421 36.5325Z" fill="#E74F4F"/>
<path d="M103.818 24.044C103.194 24.1657 103.38 25.1238 104.005 25.0021C104.629 24.8803 104.442 23.9222 103.818 24.044Z" fill="#E74F4F"/>
<path d="M116.901 32.0808C117.525 31.9591 117.338 31.001 116.714 31.1227C116.09 31.2444 116.277 32.2025 116.901 32.0808Z" fill="#E74F4F"/>
<path d="M120.647 51.2949C121.271 51.1732 121.085 50.2151 120.46 50.3368C119.836 50.4585 120.023 51.4167 120.647 51.2949Z" fill="#E74F4F"/>
<path d="M120.2 63.3222C120.825 63.2004 120.638 62.2423 120.014 62.364C119.389 62.4858 119.576 63.4439 120.2 63.3222Z" fill="#E74F4F"/>
<path d="M110.775 68.9318C110.151 69.0535 110.338 70.0116 110.962 69.8899C111.586 69.7682 111.4 68.81 110.775 68.9318Z" fill="#E74F4F"/>
<path d="M121.843 42.8528C122.467 42.7311 122.28 41.7729 121.656 41.8947C121.032 42.0164 121.218 42.9745 121.843 42.8528Z" fill="#E74F4F"/>
<path d="M117.191 62.4646C117.816 62.3429 117.629 61.3848 117.005 61.5065C116.38 61.6282 116.567 62.5863 117.191 62.4646Z" fill="#E74F4F"/>
</svg>
