<svg width="319" height="298" viewBox="0 0 319 298" fill="none" xmlns="http://www.w3.org/2000/svg">
<path opacity="0.2" d="M166.427 297.872C246.05 297.872 310.597 273.233 310.597 242.84C310.597 212.446 246.05 187.807 166.427 187.807C86.8036 187.807 22.2563 212.446 22.2563 242.84C22.2563 273.233 86.8036 297.872 166.427 297.872Z" fill="#6C3F2A"/>
<path d="M232.794 38.4568H220.954V98.2239H232.794V38.4568Z" fill="#57301C"/>
<path d="M136.282 38.9873H124.442V98.7544H136.282V38.9873Z" fill="#57301C"/>
<path d="M243.143 0.230225H110.477V54.1124H243.143V0.230225Z" fill="#6C3F2A"/>
<path d="M63.5334 168.282H52.8984V270.202H63.5334V168.282Z" fill="#8A533A"/>
<path d="M96.5012 131.116H85.8662V233.036H96.5012V131.116Z" fill="#6C3F2A"/>
<path d="M285.795 168.282H275.16V270.202H285.795V168.282Z" fill="#8A533A"/>
<path d="M252.828 131.116H242.193V233.036H252.828V131.116Z" fill="#6C3F2A"/>
<path d="M311.316 142.794H32.6904V184.203H311.316V142.794Z" fill="#A16245"/>
<path d="M318.763 140.673H28.4404L67.7828 74.8474H279.421L318.763 140.673Z" fill="#8A533A"/>
<path d="M318.743 140.642H28.2876V145.12H318.743V140.642Z" fill="#73442D"/>
<path d="M57.0751 163.441C52.488 158.729 52.4574 148.091 52.2428 141.91C52.1305 138.739 52.2122 135.138 53.0908 132.099C48.4935 130.09 41.7815 129.661 36.1115 128.509C31.831 127.642 30.6561 126.387 29.3178 130.334C26.5901 138.433 25.4663 146.092 25.3131 154.914C25.2313 159.412 25.4868 164.369 25.8852 168.826C34.7732 169.346 42.2821 166.898 51.1089 165.144C52.9273 164.777 55.6346 165.073 57.0547 164.226L57.0751 163.431V163.441Z" fill="#C78347"/>
<path d="M33.1998 159.555C35.5598 152.864 34.4666 143.583 33.3633 137.484C32.8014 134.353 31.9535 130.865 30.4619 128.08C34.5279 125.153 40.9948 123.317 46.2969 120.992C50.2915 119.238 51.3948 118.677 53.53 122.267C57.9127 129.61 61.989 136.168 64.0015 144.756C65.0232 149.131 64.7269 153.68 65.2888 158.117C56.7174 160.504 48.3913 159.81 39.3908 159.963C37.5315 159.994 34.957 160.85 33.3939 160.32L33.1998 159.545V159.555Z" fill="#E74F4F"/>
<g style="mix-blend-mode:multiply">
<path d="M64.0019 144.756C61.9893 136.158 57.9131 129.61 53.5304 122.267C51.7323 119.248 50.6596 119.177 47.983 120.268C50.629 122.95 53.0809 125.725 54.5316 129.315C56.1661 133.343 59.4353 138.667 57.1775 143.053C54.9708 147.337 51.3032 150.682 46.6447 152.1C43.0384 153.201 38.3798 154.741 34.3342 154.507C34.1095 156.281 33.7621 157.985 33.2104 159.545L33.4046 160.32C34.9676 160.84 37.5523 159.994 39.4014 159.963C48.4019 159.81 56.7178 160.504 65.2994 158.117C64.7375 153.67 65.044 149.132 64.0121 144.756H64.0019Z" fill="#ECEBE8"/>
</g>
<path d="M89.788 163.441C94.3751 158.729 94.4057 148.091 94.6203 141.91C94.7327 138.739 94.6407 135.138 93.7723 132.099C98.3594 130.09 105.082 129.661 110.752 128.509C115.022 127.642 116.207 126.387 117.545 130.334C120.273 138.433 121.397 146.092 121.55 154.914C121.632 159.412 121.376 164.369 120.978 168.826C112.09 169.346 104.581 166.898 95.7441 165.144C93.9256 164.777 91.2183 165.073 89.7983 164.226L89.7778 163.431L89.788 163.441Z" fill="#C78347"/>
<path d="M113.663 159.555C111.313 152.864 112.396 143.583 113.499 137.484C114.061 134.353 114.909 130.865 116.401 128.08C112.335 125.153 105.868 123.317 100.566 120.992C96.571 119.238 95.4779 118.677 93.3325 122.267C88.9498 129.61 84.8735 136.168 82.861 144.756C81.8291 149.131 82.1356 153.68 81.5737 158.117C90.1451 160.504 98.461 159.81 107.472 159.963C109.331 159.994 111.905 160.85 113.469 160.32L113.663 159.545V159.555Z" fill="#E74F4F"/>
<g style="mix-blend-mode:multiply">
<path d="M82.861 144.755C84.8735 136.158 88.9498 129.61 93.3325 122.266C95.1408 119.247 96.2033 119.176 98.8901 120.267C96.2441 122.95 93.7923 125.724 92.3313 129.314C90.6968 133.343 87.4276 138.667 89.6854 143.052C91.892 147.336 95.5596 150.681 100.228 152.099C103.835 153.2 108.483 154.74 112.539 154.506C112.753 156.281 113.111 157.984 113.663 159.544L113.469 160.319C111.905 160.84 109.331 159.993 107.472 159.962C98.4712 159.809 90.1451 160.503 81.5737 158.116C82.1254 153.67 81.8291 149.131 82.861 144.755Z" fill="#ECEBE8"/>
</g>
<path d="M81.5845 128.05C80.9102 127.356 80.9715 126.132 80.1338 125.52C78.2949 124.194 75.8941 123.246 73.3707 123.348L72.3797 123.409L71.6544 123.521L71.4705 123.552H71.3785L71.3275 123.572L71.1844 123.603H71.1538L70.7247 123.725C70.4387 123.797 70.1526 123.878 69.8768 123.98C68.7632 124.368 67.7212 124.888 66.7915 125.51C65.4736 126.387 64.7483 128.141 63.7471 129.212C70.4284 125.826 75.0768 125.632 81.564 128.05H81.5845Z" fill="#8D5A32"/>
<path d="M53.3262 145.367C53.3262 145.367 53.3773 145.133 53.4896 144.684C53.5509 144.409 53.6224 144.072 53.7144 143.664C53.8063 143.307 53.9187 142.889 54.0515 142.43C54.5725 140.594 55.4307 138.106 56.6975 135.26C57.3411 133.842 58.1073 132.333 58.9859 130.772C59.8747 129.222 60.9372 127.631 62.1836 126.081C63.4504 124.53 64.9419 123.011 66.8115 121.777C67.7412 121.155 68.773 120.634 69.8968 120.247C70.1726 120.145 70.4587 120.063 70.7447 119.992L71.1738 119.88H71.2044L71.3475 119.839H71.3985L71.4905 119.818L71.6744 119.788L72.3997 119.676L73.3907 119.614C75.9039 119.512 78.3047 120.461 80.1538 121.787C82.0029 123.123 83.4025 124.745 84.5774 126.356C85.7318 127.978 86.7023 129.599 87.5196 131.17C88.3267 132.751 89.0418 134.25 89.6548 135.648C90.8603 138.452 91.7798 140.808 92.4132 142.45C93.0466 144.103 93.4246 145.01 93.4246 145.01L85.9055 146.856C85.9055 146.856 85.834 145.877 85.599 144.235C85.3742 142.593 84.9962 140.258 84.2607 137.555C83.8929 136.208 83.4638 134.76 82.8713 133.302C82.289 131.843 81.6147 130.334 80.7463 128.926C80.3172 128.223 79.8371 127.539 79.3058 126.927C78.795 126.285 78.2025 125.734 77.5997 125.265C76.384 124.306 74.9435 123.786 73.5541 123.827C73.4009 123.837 73.2477 123.837 73.0842 123.837L72.3589 123.959L72.1852 123.99L72.0932 124.01H72.0524C72.0524 124.01 72.2567 123.98 72.1443 124.01H72.1341L71.8583 124.092C71.6744 124.143 71.4905 124.184 71.3168 124.265C70.5915 124.51 69.907 124.898 69.2634 125.357C67.9557 126.274 66.8319 127.539 65.892 128.885C64.9419 130.232 64.1962 131.69 63.5628 133.108C62.9294 134.526 62.4594 135.933 62.1018 137.249C61.3561 139.88 61.0904 142.144 61.0292 143.654C61.0087 144.031 61.0087 144.368 61.0087 144.653C61.0189 144.908 61.0291 145.133 61.0394 145.306C61.07 145.765 61.0802 146.01 61.0802 146.01L53.3568 145.378L53.3262 145.367Z" fill="#A76C3D"/>
<g style="mix-blend-mode:screen" opacity="0.3">
<path d="M60.9575 129.212C63.8487 125.235 67.884 120.533 73.3701 120.655C79.4589 120.788 81.6759 123.929 85.4252 128.305C85.9053 128.876 86.3957 129.437 86.8657 130.008C86.1914 128.804 85.4252 127.58 84.5568 126.346C83.382 124.735 81.9823 123.113 80.1332 121.777C78.2943 120.451 75.8935 119.503 73.3701 119.605L72.3792 119.666L71.6538 119.778L71.4699 119.809H71.378L71.3269 119.829L71.1839 119.86H71.1532L70.7241 119.982C70.4381 120.053 70.152 120.135 69.8762 120.237C68.7626 120.625 67.7206 121.135 66.7909 121.767C64.9214 123.011 63.4298 124.531 62.163 126.071C60.9166 127.631 59.8542 129.212 58.9654 130.763C58.0868 132.323 57.3205 133.833 56.6769 135.25C56.4624 135.74 56.2581 136.209 56.064 136.678C57.8314 134.169 59.3331 131.405 60.9371 129.202L60.9575 129.212Z" fill="#858471"/>
</g>
<path d="M142.38 268.309C142.809 267.452 143.136 266.483 143.32 265.382C144.127 260.619 144.331 255.244 144.25 250.45C144.158 245.432 143.238 238.15 142.932 233.611C142.676 229.817 143.116 225.646 138.569 224.789C134.463 224.014 131.837 223.249 127.373 222.81C126.106 222.688 122.428 222.667 121.151 222.667V277.886C126.79 279.079 131.908 277.029 136.649 273.918C139.05 272.348 141.144 270.746 142.37 268.309H142.38Z" fill="#F7D184"/>
<path d="M129.886 272.164C128.701 268.87 129.497 261.475 129.406 258.048C129.262 253.03 129.406 247.513 129.344 242.056C129.324 240.047 131.51 239.251 132.399 240.802C134.115 241.454 138.038 240.353 139.54 239.547C140.899 238.823 142.094 237.946 143.208 236.967C143.095 235.753 142.993 234.611 142.932 233.611C142.676 229.817 143.116 225.646 138.569 224.789C134.463 224.014 131.837 223.249 127.373 222.81C126.106 222.688 122.428 222.667 121.151 222.667V277.886C126.79 279.079 131.908 277.029 136.649 273.918C139.05 272.348 141.144 270.746 142.37 268.309C142.513 268.023 142.635 267.727 142.758 267.411C141.226 268.91 139.611 270.716 137.435 271.583C135.127 272.501 130.877 274.948 129.886 272.164Z" fill="#EDA841"/>
<path d="M128.742 232.622C129.038 234.856 129.212 237.099 129.212 239.353C129.212 240.649 129.038 243.861 130.662 244.382C132.716 245.034 143.31 243.861 144.26 240.73C144.045 238.446 143.851 235.58 143.729 233.825C143.473 230.031 143.106 225.646 138.57 224.779C134.463 224.004 131.837 223.239 127.373 222.8C126.995 222.759 126.382 222.739 125.697 222.719C127.179 224.31 127.7 226.451 128.088 228.532C128.343 229.889 128.568 231.255 128.742 232.622Z" fill="#A76C3D"/>
<path d="M143.78 238.833C143.78 239.884 143.238 240.73 142.554 240.73C141.869 240.73 141.328 239.884 141.328 238.833C141.328 237.783 141.879 236.936 142.554 236.936C143.228 236.936 143.78 237.783 143.78 238.833Z" fill="#E74F4F"/>
<path d="M2.43946 268.309C2.01038 267.452 1.68347 266.483 1.49958 265.382C0.692501 260.619 0.488178 255.244 0.569908 250.45C0.661853 245.432 1.57109 238.15 1.88779 233.611C2.14319 229.817 1.7039 225.646 6.25009 224.789C10.357 224.014 12.9927 223.249 17.447 222.81C18.7138 222.688 22.3916 222.667 23.6686 222.667V277.886C18.0293 279.079 12.911 277.029 8.17072 273.918C5.76993 272.348 3.67562 270.746 2.44968 268.309H2.43946Z" fill="#F7D184"/>
<path d="M14.9336 272.164C16.1085 268.87 15.3219 261.475 15.4138 258.048C15.5568 253.03 15.4138 247.513 15.4751 242.056C15.4955 240.047 13.3093 239.251 12.4205 240.802C10.7144 241.454 6.78115 240.353 5.27938 239.547C3.92063 238.823 2.72534 237.946 1.60156 236.967C1.71394 235.753 1.8161 234.611 1.88761 233.611C2.14302 229.817 1.70372 225.646 6.24991 224.789C10.3568 224.014 12.9926 223.249 17.4468 222.81C18.7136 222.688 22.3914 222.667 23.6684 222.667V277.886C18.0291 279.079 12.9108 277.029 8.17055 273.918C5.76975 272.348 3.67544 270.746 2.4495 268.309C2.30648 268.023 2.18388 267.727 2.06129 267.411C3.59371 268.91 5.20786 270.716 7.3839 271.583C9.69275 272.501 13.9427 274.948 14.9336 272.164Z" fill="#EDA841"/>
<path d="M16.0784 232.622C15.7821 234.856 15.6084 237.099 15.6084 239.353C15.6084 240.649 15.7923 243.861 14.1578 244.382C12.1145 245.034 1.51016 243.861 0.560059 240.73C0.774598 238.446 0.968705 235.58 1.0913 233.825C1.3467 230.031 1.70427 225.646 6.25045 224.779C10.3573 224.004 12.9931 223.239 17.4474 222.8C17.8254 222.759 18.4383 222.739 19.1228 222.719C17.6415 224.31 17.1204 226.451 16.7322 228.532C16.4768 229.889 16.2521 231.255 16.0784 232.622Z" fill="#A76C3D"/>
<path d="M1.04004 238.833C1.04004 239.884 1.59171 240.73 2.26598 240.73C2.94024 240.73 3.49192 239.884 3.49192 238.833C3.49192 237.783 2.94024 236.936 2.26598 236.936C1.59171 236.936 1.04004 237.783 1.04004 238.833Z" fill="#E74F4F"/>
<path d="M125.432 152.375C125.309 155.893 127.608 160.024 128.129 163.594C129.038 169.734 129.763 176.098 130.325 182.248C131.194 191.754 131.551 203.626 129.59 213.101C128.149 220.026 125.513 223.677 123.113 230.388C120.119 221.403 121.519 210.367 121.355 200.994C121.202 192.927 120.947 184.706 121.509 176.649C121.846 171.743 122.867 166.939 123.205 162.033C123.378 159.494 122.867 155.955 124.655 153.915L125.432 152.365V152.375Z" fill="#EDA841"/>
<path d="M19.6233 152.375C19.7459 155.893 17.4473 160.024 16.9262 163.594C16.017 169.734 15.2814 176.098 14.7298 182.248C13.8614 191.754 13.2689 199.852 15.2406 209.337C16.6811 216.262 19.5416 223.677 21.9526 230.388C24.9459 221.403 23.5463 210.367 23.7098 200.994C23.8528 192.927 24.1184 184.706 23.5565 176.649C23.2194 171.743 22.1978 166.939 21.8606 162.033C21.687 159.494 22.1876 155.955 20.41 153.915L19.6335 152.365L19.6233 152.375Z" fill="#EDA841"/>
<path d="M19.5209 153.864C20.941 143.95 32.6589 144.307 40.8829 143.134C50.5678 141.757 65.9125 141.87 72.7164 141.798C88.3574 141.655 92.4949 141.135 107.359 142.451C111.946 142.859 118.515 143.124 122.234 146.194C126.372 149.611 126.218 154.996 126.208 161.401C126.198 168.765 126.188 168.632 126.28 175.996C126.453 189.765 126.351 203.564 126.29 217.333C126.249 230.062 126.28 242.8 126.259 255.529C126.259 261.944 126.239 268.37 126.259 274.785C126.259 274.948 126.259 275.101 126.259 275.264C126.259 281.975 124.012 283.312 118.587 284.066C105.664 285.882 82.575 285.882 70.6221 285.882C53.1627 285.882 35.7544 285.882 26.3658 284.066C20.9921 283.026 18.6934 281.975 18.6934 275.264C18.6934 271.358 18.7139 267.452 18.7139 263.546C18.7241 254.111 18.765 244.677 18.7037 235.233C18.6321 223.463 18.7037 211.693 18.6526 199.933C18.6015 188.99 18.4483 177.995 18.6526 167.051C18.7547 161.146 18.4789 161.085 19.5107 153.854L19.5209 153.864Z" fill="#E74F4F"/>
<g style="mix-blend-mode:multiply">
<path d="M126.208 167.327C126.147 167.867 126.086 168.408 126.024 168.938C124.471 181.31 123.787 195.099 122.602 207.512C121.407 219.975 120.395 230.97 119.476 243.433C119.036 249.389 118.914 255.458 117.422 261.271C116.217 265.994 113.877 272.266 108.514 273.592C104.673 274.54 100.167 273.653 96.2443 273.592C90.5334 273.531 84.8737 272.939 79.1833 272.786C67.5982 272.48 56.0846 274.102 44.4688 273.765C36.5104 273.531 28.3069 272.429 24.057 264.81C20.563 258.528 19.4597 251.337 18.7446 244.239C18.7446 250.664 18.7446 257.1 18.7446 263.525C18.7446 267.432 18.7241 271.338 18.7241 275.244C18.7241 281.955 21.0228 283.006 26.3964 284.046C35.7851 285.861 53.1934 285.861 70.6528 285.861C82.6057 285.861 105.694 285.861 118.618 284.046C124.032 283.291 126.29 281.955 126.29 275.244C126.29 275.081 126.29 274.928 126.29 274.765C126.259 268.35 126.27 261.924 126.29 255.509C126.31 242.78 126.28 230.052 126.321 217.313C126.372 203.544 126.474 189.745 126.31 175.976C126.249 171.386 126.239 169.703 126.239 167.306L126.208 167.327Z" fill="#ECEBE8"/>
</g>
<g style="mix-blend-mode:screen" opacity="0.3">
<path d="M120.2 153.252C119.7 151.345 118.811 149.692 117.207 148.377C113.825 145.582 107.839 145.337 103.65 144.97C90.1036 143.767 86.3338 144.236 72.0721 144.379C65.8606 144.44 51.8747 144.338 43.048 145.592C35.5493 146.663 24.8632 146.337 23.5658 155.373C22.6259 161.962 22.8813 162.023 22.7791 167.408C22.7587 168.571 22.7485 169.724 22.7383 170.886C23.8008 162.625 26.0892 153.384 33.6287 150.09C36.5199 148.825 53.2028 148.05 56.9011 147.846C64.9105 147.387 71.2752 147.948 79.3051 147.734C84.2395 147.602 89.1739 147.5 94.0981 147.571C99.0325 147.632 104.038 147.224 108.932 148.05C110.985 148.397 112.978 148.978 114.878 149.835C116.022 150.355 119.843 151.936 120.19 153.272L120.2 153.252Z" fill="#DCDDDE"/>
</g>
<path d="M34.5792 210.275C36.6735 205.737 43.3344 205.084 49.413 205.166C54.3985 205.227 59.3942 205.145 64.3797 205.115C75.832 205.043 87.3047 205.094 98.757 205.155C102.128 205.166 106.164 205.237 108.973 206.614C112.569 208.389 112.191 211.54 112.283 214.192C112.385 217.466 112.304 221.311 112.375 224.809C112.498 231.337 111.997 237.711 111.956 244.239C111.926 250.46 111.66 256.753 111.987 262.964C112.365 270.124 112.692 275.57 103.446 276.091C96.9386 276.458 90.6046 275.815 84.1275 275.836C73.1452 275.866 62.1934 276.305 51.2009 276.162C44.8362 276.08 33.343 278.477 33.1489 269.553C33.0366 263.943 33.2511 258.324 33.1898 252.714C33.1387 247.135 33.1898 241.556 33.1489 235.988C33.1081 230.806 32.9957 225.595 33.1489 220.403C33.2307 217.609 33.057 213.59 34.5894 210.275H34.5792Z" fill="#EDA841"/>
<g style="mix-blend-mode:multiply">
<path d="M111.946 244.229C111.956 242.342 112.007 240.465 112.069 238.588C111.425 241.944 110.444 245.095 109.024 248.288C106.113 254.846 103.221 261.914 97.6944 266.748C92.0551 271.674 82.1965 271.756 75.1167 272.113C70.4888 272.348 65.4931 271.797 61.0082 273.164C58.0149 274.071 55.1442 275.295 52.1406 276.152C62.8063 276.254 73.4413 275.856 84.107 275.815C90.584 275.795 96.918 276.448 103.426 276.07C112.671 275.54 112.344 270.104 111.966 262.944C111.639 256.733 111.905 250.44 111.936 244.218L111.946 244.229Z" fill="#ECEBE8"/>
</g>
<path d="M37.174 212.346C39.1253 208.113 45.3367 207.512 51.0066 207.583C55.655 207.644 60.3033 207.563 64.9517 207.542C75.6276 207.481 86.3137 207.522 96.9895 207.573C100.136 207.593 103.885 207.654 106.511 208.939C109.862 210.592 109.801 213.539 109.586 215.997C109.31 219.241 109.208 222.484 109.269 225.738C109.382 231.826 109.31 237.915 109.28 243.994C109.249 249.797 109.004 255.652 109.31 261.445C109.658 268.115 109.964 273.194 101.352 273.684C95.2937 274.031 89.3785 273.419 83.351 273.439C73.1144 273.47 62.9085 273.878 52.6719 273.745C46.7363 273.674 36.0298 275.897 35.8561 267.585C35.7437 262.363 35.948 257.12 35.897 251.898C35.8459 246.707 35.897 241.505 35.8561 236.314C35.8254 231.48 35.7131 226.625 35.8561 221.79C35.9276 219.179 35.7642 215.436 37.1944 212.346H37.174Z" stroke="#A76C3D" stroke-width="2.85" stroke-linecap="round" stroke-linejoin="round"/>
<g style="mix-blend-mode:multiply">
<path d="M94.3029 223.381C94.6605 224.768 96.0294 225.533 96.5096 226.89C97.0408 228.42 96.5913 229.919 96.0294 231.377C94.2825 235.947 90.1245 240.098 93.5673 245.177C95.1509 247.502 97.9909 248.726 100.29 250.215C100.116 248.655 98.4405 246.941 97.7968 245.473C97.0102 243.698 96.765 241.668 97.2043 239.731C97.7662 237.252 100.351 235.977 100.872 233.53C101.27 231.694 100.739 229.062 99.7072 227.604C98.6856 226.156 96.2848 223.249 94.3029 223.381Z" fill="#ECEBE8"/>
</g>
<path d="M94.0474 223.259C94.313 224.666 95.6207 225.523 96.0089 226.91C96.438 228.471 95.8863 229.939 95.2325 231.357C93.179 235.794 88.7656 239.659 91.8611 244.963C93.2812 247.39 96.0293 248.808 98.236 250.43C98.1747 248.869 96.6116 247.043 96.06 245.524C95.3959 243.698 95.2938 241.658 95.8557 239.761C96.581 237.324 99.2474 236.222 99.9319 233.815C100.443 232.01 100.095 229.348 99.1657 227.828C98.2462 226.319 96.0395 223.249 94.0576 223.249L94.0474 223.259Z" fill="#E74F4F"/>
<g style="mix-blend-mode:multiply">
<path d="M40.1569 219.261C41.8936 217.588 47.8599 217.863 52.9169 217.894C57.0646 217.914 84.4235 217.874 93.9449 217.894C96.7544 217.894 100.095 217.925 102.435 218.435C106.409 219.302 106.02 224.717 104.938 226.788C104.171 228.256 100.79 228.409 97.8373 228.481C92.4329 228.613 63.5314 228.552 54.3982 228.501C49.1062 228.471 39.5439 230.164 39.3907 226.869C39.2885 224.799 39.1864 224.717 39.309 222.81C39.3703 221.78 38.8799 220.495 40.1569 219.261Z" fill="#ECEBE8"/>
</g>
<path d="M40.1569 217.904C41.8936 216.232 47.8599 216.507 52.9169 216.527C57.0646 216.548 84.4235 216.507 93.9449 216.527C96.7544 216.527 100.095 216.558 102.435 217.068C106.409 217.935 106.02 223.351 104.938 225.421C104.171 226.89 100.79 227.043 97.8373 227.114C92.4329 227.247 63.5314 227.186 54.3982 227.135C49.1062 227.104 39.5439 228.797 39.3907 225.503C39.2885 223.432 39.1864 223.351 39.309 221.443C39.3703 220.413 38.8799 219.128 40.1569 217.904Z" fill="#F7D184"/>
<path d="M84.1994 178.026C84.1994 183.951 79.3876 188.755 73.452 188.755C67.5164 188.755 62.7046 183.951 62.7046 178.026C62.7046 172.1 67.5164 167.296 73.452 167.296C79.3876 167.296 84.1994 172.1 84.1994 178.026Z" fill="#EDA841"/>
<path d="M85.9665 178.026C85.9665 184.931 80.3579 190.53 73.4415 190.53C66.5252 190.53 60.9268 184.931 60.9268 178.026C60.9268 171.121 66.5354 165.532 73.4415 165.532C80.3477 165.532 85.9665 171.131 85.9665 178.026Z" stroke="#A76C3D" stroke-width="2.68" stroke-linecap="round" stroke-linejoin="round"/>
</svg>
