<svg width="363" height="309" viewBox="0 0 363 309" fill="none" xmlns="http://www.w3.org/2000/svg">
<g clip-path="url(#clip0_1_7439)">
<path opacity="0.2" d="M181.596 308.722C255.949 308.722 316.224 286.053 316.224 258.09C316.224 230.127 255.949 207.458 181.596 207.458C107.244 207.458 46.9692 230.127 46.9692 258.09C46.9692 286.053 107.244 308.722 181.596 308.722Z" fill="#6C3F2A"/>
<path d="M236.428 70.9666H225.474V126.479H236.428V70.9666Z" fill="#57301C"/>
<path d="M147.142 71.459H136.188V126.971H147.142V71.459Z" fill="#57301C"/>
<path d="M246.002 35.4614H123.268V85.5077H246.002V35.4614Z" fill="#6C3F2A"/>
<path d="M79.8397 191.549H70.001V286.213H79.8397V191.549Z" fill="#8A533A"/>
<path d="M110.339 157.029H100.5V251.694H110.339V157.029Z" fill="#6C3F2A"/>
<path d="M285.46 191.549H275.622V286.213H285.46V191.549Z" fill="#8A533A"/>
<path d="M254.961 157.029H245.123V251.694H254.961V157.029Z" fill="#6C3F2A"/>
<path d="M309.069 167.876H51.3062V206.337H309.069V167.876Z" fill="#A16245"/>
<path d="M315.959 165.906H47.3745L83.7712 104.766H279.563L315.959 165.906Z" fill="#8A533A"/>
<path d="M315.941 165.877H47.2329V170.036H315.941V165.877Z" fill="#73442D"/>
<path d="M211.278 41.2971C207.034 36.9205 207.006 27.0401 206.807 21.2994C206.703 18.3533 206.779 15.0093 207.592 12.1863C203.339 10.3201 197.129 9.92224 191.884 8.85178C187.924 8.04657 186.837 6.88138 185.599 10.5475C183.075 18.0691 182.036 25.1834 181.894 33.3776C181.818 37.5552 182.055 42.1591 182.423 46.2988C190.646 46.782 197.592 44.5084 205.758 42.8791C207.441 42.538 209.945 42.8127 211.259 42.0265L211.278 41.2876V41.2971Z" fill="#C78347"/>
<path d="M189.19 37.6878C191.373 31.4734 190.362 22.8529 189.341 17.188C188.822 14.2798 188.037 11.04 186.657 8.45387C190.419 5.7351 196.401 4.02995 201.307 1.87009C205.002 0.240719 206.023 -0.280301 207.998 3.05422C212.053 9.87483 215.824 15.966 217.686 23.9423C218.631 28.0063 218.357 32.2313 218.876 36.3521C210.947 38.5688 203.244 37.9246 194.918 38.0667C193.197 38.0951 190.816 38.8909 189.37 38.3983L189.19 37.6783V37.6878Z" fill="#E74F4F"/>
<g style="mix-blend-mode:multiply">
<path d="M217.686 23.9424C215.824 15.9566 212.053 9.87487 207.998 3.05426C206.335 0.250233 205.342 0.183921 202.866 1.19754C205.314 3.68896 207.582 6.26563 208.924 9.60015C210.437 13.342 213.461 18.287 211.372 22.3604C209.331 26.3391 205.938 29.4462 201.628 30.763C198.292 31.7861 193.982 33.2165 190.239 32.9986C190.031 34.647 189.71 36.229 189.2 37.6783L189.379 38.3983C190.825 38.8814 193.216 38.0952 194.927 38.0667C203.254 37.9246 210.947 38.5688 218.886 36.3521C218.366 32.2218 218.65 28.0063 217.695 23.9424H217.686Z" fill="#ECEBE8"/>
</g>
<path d="M241.541 41.2971C245.785 36.9205 245.813 27.0401 246.012 21.2994C246.116 18.3533 246.031 15.0093 245.227 12.1863C249.471 10.3201 255.69 9.92224 260.935 8.85178C264.886 8.04657 265.982 6.88138 267.22 10.5475C269.744 18.0691 270.783 25.1834 270.925 33.3776C271.001 37.5552 270.764 42.1591 270.396 46.2988C262.173 46.782 255.227 44.5084 247.051 42.8791C245.369 42.538 242.864 42.8127 241.551 42.0265L241.532 41.2876L241.541 41.2971Z" fill="#C78347"/>
<path d="M263.638 37.6878C261.464 31.4734 262.466 22.8529 263.487 17.188C264.007 14.2798 264.791 11.04 266.171 8.45387C262.409 5.7351 256.427 4.02995 251.521 1.87009C247.826 0.240719 246.815 -0.280301 244.83 3.05422C240.775 9.87483 237.004 15.966 235.143 23.9423C234.188 28.0063 234.471 32.2313 233.952 36.3521C241.881 38.5688 249.575 37.9246 257.911 38.0667C259.631 38.0951 262.012 38.8909 263.458 38.3983L263.638 37.6783V37.6878Z" fill="#E74F4F"/>
<g style="mix-blend-mode:multiply">
<path d="M235.143 23.9429C237.004 15.9571 240.775 9.87536 244.83 3.05475C246.503 0.250721 247.486 0.18441 249.972 1.19803C247.524 3.68945 245.255 6.26612 243.904 9.60064C242.392 13.3425 239.367 18.2874 241.456 22.3609C243.497 26.3396 246.89 29.4467 251.21 30.7635C254.546 31.7866 258.846 33.217 262.598 32.9991C262.797 34.6474 263.128 36.2294 263.638 37.6788L263.458 38.3988C262.012 38.8819 259.631 38.0956 257.911 38.0672C249.584 37.9251 241.881 38.5693 233.952 36.3526C234.462 32.2223 234.188 28.0068 235.143 23.9429Z" fill="#ECEBE8"/>
</g>
<path d="M233.952 8.42533C233.328 7.78116 233.384 6.64439 232.609 6.076C230.908 4.84451 228.687 3.96351 226.353 4.05824L225.436 4.11508L224.765 4.21928L224.595 4.2477H224.51L224.463 4.26665L224.33 4.29507H224.302L223.905 4.40874C223.64 4.47506 223.376 4.55084 223.12 4.64557C222.09 5.00555 221.126 5.48867 220.266 6.06653C219.047 6.88122 218.376 8.51058 217.45 9.50526C223.631 6.3602 227.931 6.18021 233.933 8.42533H233.952Z" fill="#8D5A32"/>
<path d="M207.819 24.5109C207.819 24.5109 207.866 24.2931 207.97 23.8763C208.027 23.6205 208.093 23.3079 208.178 22.9289C208.263 22.5974 208.367 22.209 208.49 21.7827C208.972 20.0776 209.766 17.7661 210.938 15.1231C211.533 13.8064 212.242 12.4044 213.055 10.955C213.877 9.51508 214.86 8.03728 216.013 6.59737C217.185 5.15746 218.565 3.74598 220.294 2.59973C221.155 2.02188 222.109 1.53875 223.149 1.17877C223.404 1.08404 223.669 1.00826 223.933 0.941947L224.33 0.837744H224.358L224.491 0.799851H224.538L224.623 0.780905L224.793 0.752486L225.464 0.648282L226.381 0.591444C228.706 0.496713 230.927 1.37771 232.638 2.60921C234.348 3.85018 235.643 5.3564 236.73 6.85314C237.798 8.35936 238.696 9.86558 239.452 11.3244C240.199 12.7928 240.86 14.1853 241.427 15.4831C242.543 18.0882 243.393 20.2765 243.979 21.8016C244.565 23.3363 244.915 24.1794 244.915 24.1794L237.959 25.894C237.959 25.894 237.893 24.9846 237.675 23.4594C237.467 21.9343 237.118 19.7649 236.437 17.2546C236.097 16.0041 235.7 14.659 235.152 13.3043C234.613 11.9497 233.989 10.5476 233.186 9.24036C232.789 8.58672 232.345 7.95202 231.853 7.38364C231.381 6.78683 230.833 6.27529 230.275 5.83953C229.15 4.94906 227.818 4.46593 226.532 4.50382C226.391 4.5133 226.249 4.5133 226.098 4.5133L225.426 4.62697L225.266 4.65539L225.181 4.67434H225.143C225.143 4.67434 225.332 4.64592 225.228 4.67434H225.219L224.963 4.75012C224.793 4.79749 224.623 4.83538 224.462 4.91116C223.791 5.13852 223.158 5.4985 222.563 5.92478C221.353 6.77736 220.313 7.95202 219.444 9.20247C218.565 10.4529 217.875 11.8076 217.289 13.1243C216.703 14.4411 216.268 15.7484 215.937 16.9704C215.248 19.4144 215.002 21.5175 214.945 22.9195C214.926 23.27 214.926 23.5826 214.926 23.8478C214.936 24.0847 214.945 24.2931 214.955 24.4541C214.983 24.8804 214.992 25.1077 214.992 25.1077L207.847 24.5204L207.819 24.5109Z" fill="#A76C3D"/>
<g style="mix-blend-mode:screen" opacity="0.3">
<path d="M214.879 9.50531C217.553 5.81081 221.287 1.44373 226.362 1.5574C231.995 1.68055 234.046 4.59826 237.514 8.66221C237.959 9.1927 238.412 9.71372 238.847 10.2442C238.223 9.12639 237.514 7.98962 236.711 6.84338C235.624 5.34663 234.329 3.84041 232.619 2.59944C230.917 1.36794 228.696 0.486947 226.362 0.581678L225.445 0.638517L224.774 0.74272L224.604 0.77114H224.519L224.472 0.790086L224.339 0.818505H224.311L223.914 0.932182C223.649 0.998493 223.385 1.07428 223.13 1.16901C222.099 1.52899 221.135 2.00264 220.275 2.58997C218.546 3.74568 217.166 5.15717 215.994 6.58761C214.841 8.03699 213.858 9.50531 213.036 10.9452C212.223 12.3946 211.514 13.7966 210.919 15.1134C210.72 15.5681 210.531 16.0038 210.352 16.4396C211.987 14.1092 213.376 11.542 214.86 9.49584L214.879 9.50531Z" fill="#858471"/>
</g>
<path d="M290.205 138.699C290.602 137.903 290.904 137.003 291.075 135.98C291.821 131.556 292.01 126.564 291.935 122.112C291.85 117.451 290.999 110.687 290.715 106.472C290.479 102.948 290.886 99.0733 286.68 98.2775C282.88 97.5576 280.451 96.8471 276.321 96.4398C275.149 96.3261 271.747 96.3071 270.565 96.3071V147.594C275.783 148.703 280.518 146.799 284.903 143.909C287.124 142.45 289.062 140.963 290.196 138.699H290.205Z" fill="#F7D184"/>
<path d="M278.646 142.28C277.55 139.22 278.287 132.352 278.202 129.169C278.07 124.508 278.202 119.384 278.145 114.315C278.126 112.449 280.149 111.71 280.971 113.15C282.559 113.757 286.188 112.733 287.578 111.985C288.835 111.312 289.94 110.498 290.971 109.588C290.867 108.461 290.772 107.4 290.715 106.472C290.479 102.948 290.886 99.0733 286.68 98.2775C282.88 97.5576 280.451 96.8471 276.321 96.4398C275.149 96.3261 271.747 96.3071 270.565 96.3071V147.594C275.783 148.703 280.518 146.799 284.903 143.909C287.124 142.45 289.061 140.963 290.196 138.699C290.328 138.434 290.441 138.159 290.555 137.866C289.137 139.258 287.644 140.935 285.631 141.74C283.495 142.593 279.563 144.866 278.646 142.28Z" fill="#F5BE69"/>
<path d="M277.587 105.553C277.862 107.627 278.022 109.712 278.022 111.805C278.022 113.008 277.862 115.992 279.364 116.475C281.264 117.082 291.065 115.992 291.944 113.084C291.745 110.962 291.566 108.3 291.452 106.671C291.216 103.147 290.876 99.0733 286.68 98.2681C282.88 97.5481 280.451 96.8376 276.321 96.4303C275.971 96.3924 275.404 96.3734 274.771 96.3545C276.141 97.8323 276.623 99.8216 276.983 101.754C277.219 103.014 277.427 104.283 277.587 105.553Z" fill="#A76C3D"/>
<path d="M291.49 111.322C291.49 112.298 290.99 113.084 290.356 113.084C289.723 113.084 289.222 112.298 289.222 111.322C289.222 110.346 289.733 109.56 290.356 109.56C290.98 109.56 291.49 110.346 291.49 111.322Z" fill="#E74F4F"/>
<path d="M160.733 138.699C160.336 137.903 160.033 137.003 159.863 135.98C159.117 131.556 158.928 126.564 159.003 122.112C159.088 117.451 159.929 110.687 160.222 106.472C160.459 102.948 160.052 99.0733 164.258 98.2775C168.058 97.5576 170.496 96.8471 174.617 96.4398C175.789 96.3261 179.191 96.3071 180.372 96.3071V147.594C175.155 148.703 170.42 146.799 166.035 143.909C163.814 142.45 161.876 140.963 160.742 138.699H160.733Z" fill="#F7D184"/>
<path d="M172.292 142.28C173.379 139.22 172.651 132.352 172.736 129.169C172.868 124.508 172.736 119.384 172.793 114.315C172.812 112.449 170.789 111.71 169.967 113.15C168.388 113.757 164.75 112.733 163.36 111.985C162.103 111.312 160.998 110.498 159.958 109.588C160.062 108.461 160.156 107.4 160.223 106.472C160.459 102.948 160.053 99.0733 164.258 98.2775C168.058 97.5576 170.496 96.8471 174.617 96.4398C175.789 96.3261 179.191 96.3071 180.373 96.3071V147.594C175.156 148.703 170.421 146.799 166.035 143.909C163.814 142.45 161.877 140.963 160.742 138.699C160.61 138.434 160.497 138.159 160.383 137.866C161.801 139.258 163.294 140.935 165.307 141.74C167.443 142.593 171.375 144.866 172.292 142.28Z" fill="#F5BE69"/>
<path d="M173.35 105.553C173.076 107.628 172.915 109.712 172.915 111.805C172.915 113.008 173.085 115.992 171.573 116.476C169.683 117.082 159.873 115.992 158.994 113.084C159.192 110.962 159.372 108.3 159.485 106.671C159.721 103.147 160.052 99.0735 164.258 98.2683C168.057 97.5483 170.496 96.8379 174.617 96.4305C174.966 96.3926 175.533 96.3737 176.167 96.3547C174.796 97.8325 174.314 99.8219 173.955 101.754C173.719 103.014 173.511 104.284 173.35 105.553Z" fill="#A76C3D"/>
<path d="M159.447 111.322C159.447 112.298 159.958 113.084 160.581 113.084C161.205 113.084 161.716 112.298 161.716 111.322C161.716 110.346 161.205 109.56 160.581 109.56C159.958 109.56 159.447 110.346 159.447 111.322Z" fill="#E74F4F"/>
<path d="M274.526 31.0187C274.412 34.287 276.539 38.1236 277.021 41.4391C277.862 47.1419 278.533 53.0531 279.053 58.7654C279.856 67.5943 280.187 78.6209 278.372 87.4214C277.04 93.8536 274.601 97.245 272.38 103.478C269.611 95.1325 270.906 84.8826 270.755 76.1769C270.613 68.6837 270.377 61.0484 270.896 53.5647C271.208 49.0081 272.153 44.5463 272.465 39.9897C272.626 37.631 272.153 34.3438 273.807 32.4492L274.526 31.0093V31.0187Z" fill="#F5BE69"/>
<path d="M176.639 31.0187C176.753 34.287 174.626 38.1236 174.144 41.4391C173.303 47.1419 172.622 53.0531 172.112 58.7654C171.309 67.5943 170.76 75.1159 172.585 83.9259C173.917 90.3581 176.564 97.245 178.794 103.478C181.563 95.1325 180.268 84.8826 180.42 76.1769C180.552 68.6837 180.798 61.0484 180.278 53.5647C179.966 49.0081 179.021 44.5463 178.709 39.9897C178.548 37.631 179.011 34.3438 177.367 32.4492L176.649 31.0093L176.639 31.0187Z" fill="#F5BE69"/>
<path d="M176.545 32.4018C177.859 23.194 188.699 23.5256 196.307 22.4362C205.267 21.1573 219.463 21.2615 225.757 21.1952C240.227 21.0626 244.055 20.5794 257.807 21.8015C262.05 22.1804 268.127 22.4267 271.568 25.2781C275.395 28.4516 275.253 33.4533 275.244 39.4024C275.235 46.242 275.225 46.1188 275.31 52.9584C275.471 65.747 275.376 78.5641 275.32 91.3528C275.282 103.175 275.31 115.007 275.291 126.829C275.291 132.788 275.272 138.756 275.291 144.715C275.291 144.866 275.291 145.008 275.291 145.16C275.291 151.393 273.212 152.634 268.193 153.335C256.238 155.021 234.878 155.021 223.82 155.021C207.668 155.021 191.563 155.021 182.877 153.335C177.906 152.369 175.779 151.393 175.779 145.16C175.779 141.532 175.798 137.903 175.798 134.275C175.808 125.513 175.845 116.75 175.789 107.978C175.723 97.0461 175.789 86.1142 175.742 75.1917C175.694 65.0271 175.553 54.8151 175.742 44.6505C175.836 39.1656 175.581 39.1088 176.535 32.3924L176.545 32.4018Z" fill="#E74F4F"/>
<g style="mix-blend-mode:multiply">
<path d="M275.234 44.9062C275.177 45.4082 275.121 45.9103 275.064 46.4029C273.628 57.8937 272.994 70.7013 271.898 82.2301C270.792 93.8061 269.856 104.018 269.006 115.594C268.599 121.126 268.486 126.763 267.106 132.163C265.991 136.549 263.827 142.375 258.865 143.606C255.311 144.487 251.143 143.663 247.514 143.606C242.231 143.549 236.995 143 231.73 142.858C221.013 142.574 210.361 144.08 199.615 143.767C192.252 143.549 184.663 142.526 180.731 135.45C177.499 129.614 176.478 122.936 175.817 116.343C175.817 122.311 175.817 128.288 175.817 134.256C175.817 137.884 175.798 141.513 175.798 145.141C175.798 151.374 177.924 152.35 182.896 153.316C191.581 155.002 207.686 155.002 223.838 155.002C234.896 155.002 256.256 155.002 268.212 153.316C273.221 152.615 275.31 151.374 275.31 145.141C275.31 144.989 275.31 144.847 275.31 144.695C275.281 138.737 275.291 132.769 275.31 126.81C275.329 114.988 275.3 103.166 275.338 91.3337C275.385 78.545 275.48 65.728 275.329 52.9393C275.272 48.6764 275.263 47.1134 275.263 44.8872L275.234 44.9062Z" fill="#ECEBE8"/>
</g>
<g style="mix-blend-mode:screen" opacity="0.3">
<path d="M269.687 31.8332C269.224 30.0618 268.401 28.5271 266.917 27.3051C263.789 24.7095 258.251 24.4821 254.376 24.1411C241.843 23.0233 238.356 23.4591 225.162 23.5917C219.416 23.6485 206.477 23.5538 198.311 24.719C191.374 25.7136 181.488 25.4105 180.288 33.8036C179.418 39.9233 179.654 39.9801 179.56 44.9819C179.541 46.0618 179.531 47.1323 179.522 48.2122C180.505 40.539 182.622 31.9564 189.597 28.8966C192.272 27.7219 207.706 27.002 211.127 26.8125C218.537 26.3862 224.425 26.9072 231.853 26.7083C236.418 26.5852 240.983 26.4904 245.539 26.5567C250.104 26.6136 254.735 26.2347 259.262 27.002C261.162 27.3241 263.005 27.864 264.763 28.6598C265.821 29.1429 269.356 30.6112 269.677 31.8522L269.687 31.8332Z" fill="#DCDDDE"/>
</g>
<path d="M190.466 84.7974C192.404 80.5819 198.566 79.9756 204.189 80.0514C208.802 80.1082 213.423 80.0324 218.035 80.004C228.63 79.9377 239.244 79.9851 249.839 80.0419C252.958 80.0514 256.691 80.1177 259.29 81.3965C262.617 83.0449 262.267 85.972 262.352 88.435C262.447 91.4759 262.371 95.0472 262.437 98.2965C262.551 104.359 262.088 110.28 262.05 116.343C262.021 122.121 261.776 127.966 262.078 133.735C262.428 140.385 262.73 145.444 254.177 145.927C248.157 146.268 242.297 145.671 236.305 145.69C226.145 145.719 216.013 146.126 205.843 145.993C199.955 145.918 189.323 148.144 189.143 139.855C189.039 134.645 189.238 129.425 189.181 124.215C189.134 119.033 189.181 113.851 189.143 108.679C189.105 103.867 189.001 99.0259 189.143 94.2041C189.219 91.6085 189.058 87.8761 190.476 84.7974H190.466Z" fill="#F5BE69"/>
<g style="mix-blend-mode:multiply">
<path d="M262.04 116.333C262.05 114.581 262.097 112.838 262.154 111.095C261.558 114.211 260.651 117.139 259.337 120.104C256.644 126.195 253.969 132.76 248.856 137.25C243.639 141.825 234.518 141.901 227.969 142.233C223.687 142.451 219.066 141.939 214.917 143.208C212.147 144.052 209.492 145.188 206.713 145.984C216.58 146.079 226.419 145.709 236.286 145.671C242.278 145.652 248.138 146.259 254.158 145.908C262.711 145.416 262.409 140.367 262.059 133.716C261.757 127.947 262.003 122.102 262.031 116.324L262.04 116.333Z" fill="#ECEBE8"/>
</g>
<path d="M192.876 86.7203C194.681 82.789 200.428 82.2301 205.673 82.2964C209.973 82.3532 214.274 82.2775 218.574 82.2585C228.451 82.2017 238.337 82.2396 248.213 82.2869C251.124 82.3059 254.593 82.3627 257.022 83.5563C260.122 85.091 260.065 87.8287 259.866 90.1117C259.611 93.1241 259.517 96.1366 259.573 99.1585C259.677 104.814 259.611 110.469 259.583 116.115C259.555 121.505 259.328 126.943 259.611 132.324C259.933 138.519 260.216 143.237 252.249 143.691C246.644 144.013 241.172 143.445 235.596 143.464C226.126 143.492 216.684 143.871 207.214 143.748C201.723 143.682 191.818 145.747 191.657 138.026C191.553 133.176 191.742 128.307 191.695 123.457C191.647 118.635 191.695 113.804 191.657 108.982C191.629 104.492 191.525 99.9826 191.657 95.4924C191.723 93.0673 191.572 89.5907 192.895 86.7203H192.876Z" stroke="#A76C3D" stroke-width="2.85" stroke-linecap="round" stroke-linejoin="round"/>
<g style="mix-blend-mode:multiply">
<path d="M245.728 96.9704C246.059 98.2587 247.325 98.9692 247.769 100.229C248.261 101.65 247.845 103.043 247.325 104.397C245.709 108.641 241.862 112.497 245.047 117.214C246.512 119.374 249.14 120.511 251.266 121.894C251.106 120.445 249.556 118.853 248.96 117.489C248.232 115.841 248.006 113.956 248.412 112.156C248.932 109.854 251.323 108.67 251.805 106.396C252.174 104.691 251.682 102.247 250.727 100.892C249.782 99.5471 247.561 96.8472 245.728 96.9704Z" fill="#ECEBE8"/>
</g>
<path d="M245.491 96.8471C245.737 98.1544 246.947 98.9501 247.306 100.238C247.703 101.688 247.192 103.052 246.588 104.369C244.688 108.49 240.605 112.08 243.469 117.006C244.782 119.26 247.325 120.577 249.366 122.083C249.31 120.634 247.863 118.938 247.353 117.527C246.739 115.831 246.644 113.937 247.164 112.175C247.835 109.91 250.302 108.887 250.935 106.652C251.408 104.975 251.086 102.503 250.226 101.091C249.376 99.689 247.334 96.8376 245.501 96.8376L245.491 96.8471Z" fill="#E74F4F"/>
<g style="mix-blend-mode:multiply">
<path d="M195.636 93.1431C197.243 91.5895 202.762 91.8453 207.441 91.8737C211.278 91.8927 236.588 91.8548 245.397 91.8737C247.996 91.8737 251.086 91.9022 253.251 92.3758C256.927 93.181 256.568 98.2112 255.566 100.134C254.857 101.498 251.729 101.64 248.998 101.707C243.998 101.83 217.26 101.773 208.811 101.726C203.915 101.697 195.069 103.27 194.927 100.21C194.833 98.287 194.738 98.2112 194.852 96.4398C194.908 95.483 194.455 94.2894 195.636 93.1431Z" fill="#ECEBE8"/>
</g>
<path d="M195.636 91.8831C197.243 90.3296 202.762 90.5853 207.441 90.6043C211.278 90.6232 236.588 90.5853 245.397 90.6043C247.996 90.6043 251.086 90.6327 253.251 91.1063C256.927 91.9116 256.568 96.9418 255.566 98.8648C254.857 100.229 251.729 100.371 248.998 100.437C243.998 100.56 217.26 100.504 208.811 100.456C203.915 100.428 195.069 102 194.927 98.9406C194.833 97.0175 194.738 96.9418 194.852 95.1703C194.908 94.2135 194.455 93.0199 195.636 91.8831Z" fill="#F7D184"/>
<path d="M236.381 54.8436C236.381 60.3475 231.929 64.8093 226.438 64.8093C220.947 64.8093 216.495 60.3475 216.495 54.8436C216.495 49.3397 220.947 44.8779 226.438 44.8779C231.929 44.8779 236.381 49.3397 236.381 54.8436Z" fill="#F5BE69"/>
<path d="M238.016 54.8435C238.016 61.2568 232.827 66.4575 226.428 66.4575C220.03 66.4575 214.851 61.2568 214.851 54.8435C214.851 48.4303 220.039 43.239 226.428 43.239C232.817 43.239 238.016 48.4397 238.016 54.8435Z" stroke="#A76C3D" stroke-width="2.68" stroke-linecap="round" stroke-linejoin="round"/>
</g>
<defs>
<clipPath id="clip0_1_7439">
<rect width="361.405" height="308.131" fill="white" transform="translate(0.893555 0.591064)"/>
</clipPath>
</defs>
</svg>
