<svg width="81" height="57" viewBox="0 0 81 57" fill="none" xmlns="http://www.w3.org/2000/svg">
<path d="M14.3296 37.6664C15.5268 39.0543 19.0214 43.0243 23.1308 46.962C30.0877 53.6109 35.4914 56.9999 39.1802 56.9999C39.5037 56.9999 39.8273 56.9999 40.1185 56.9354H40.1509H40.1833H40.248C40.701 56.8386 41.0893 56.7095 41.4776 56.5158C44.5515 54.9665 47.0754 51.287 48.758 45.8646C50.2465 41.1523 51.0877 35.1166 51.1201 28.9518C51.1201 22.6257 50.3435 16.4609 48.8551 11.5549C47.1401 5.97112 44.6162 2.16251 41.5099 0.548697C41.0893 0.322763 40.6363 0.193658 40.1509 0.0968289H40.1185C39.8273 0.0322763 39.5037 0 39.1478 0C35.4914 0 30.1201 3.25991 23.1632 9.65061C18.0831 14.3307 13.9737 19.0753 13.9089 19.1076C13.9089 19.1398 13.8442 19.1721 13.8442 19.2044C12.5499 18.9785 10.3173 18.6557 8.31109 18.6557C6.69321 18.6557 5.52834 18.8816 4.7194 19.3012C0.93357 21.3992 0.577637 25.0787 0.577637 28.4031V28.4677V28.5V28.5645C0.577637 31.889 0.93357 35.5685 4.7194 37.6342C5.52834 38.086 6.69321 38.2797 8.31109 38.2797C10.6085 38.2797 13.1971 37.8601 14.3619 37.6342L14.3296 37.6664Z" fill="#6C3F2A"/>
<path d="M56.8475 32.4369C55.812 32.8242 55.0355 33.5989 54.6148 34.5671C54.1942 35.5354 54.1942 36.5683 54.6148 37.5366C55.2296 39.0213 56.718 39.9573 58.3359 39.9573C58.8536 39.9573 59.339 39.8605 59.8244 39.6668C64.6133 37.8271 67.7196 33.4052 67.7196 28.4669C67.7196 23.5287 64.6133 19.1068 59.8244 17.267C59.339 17.0734 58.8536 16.9766 58.3359 16.9766C56.6857 16.9766 55.2296 17.9126 54.6148 19.3973C54.2265 20.3656 54.2265 21.3984 54.6148 22.3667C55.0355 23.3673 55.812 24.1096 56.8475 24.4969C58.5624 25.1425 59.6626 26.724 59.6626 28.4669C59.6626 30.2098 58.5624 31.7591 56.8475 32.4369Z" fill="#6C3F2A"/>
<path d="M66.9756 8.52486C66.4902 8.3312 65.9725 8.23438 65.4548 8.23438C63.8046 8.23438 62.3161 9.26722 61.7013 10.8165C60.8924 12.9144 61.8631 15.3029 63.934 16.1743C68.82 18.2078 71.9587 23.0492 71.9587 28.5039C71.9587 33.9586 68.7876 38.7678 63.934 40.8334C61.8955 41.6726 60.8924 44.0933 61.7013 46.1913C62.3161 47.7728 63.8046 48.7734 65.4548 48.7734C65.9725 48.7734 66.4902 48.6766 66.9756 48.4506C74.9032 45.1262 80.048 37.3153 80.048 28.5039C80.048 19.6925 74.9355 11.8493 66.9756 8.55714V8.52486Z" fill="#6C3F2A"/>
<path d="M49.9876 26.9816C49.9876 26.6589 49.9876 26.3361 49.9876 26.0133V25.9488C49.9876 25.626 49.9876 25.3033 49.9552 24.9805C49.8905 24.0122 49.8258 23.0439 49.7611 22.0756C49.6317 20.7846 49.4699 19.5258 49.3081 18.2993C49.2757 18.0088 49.211 17.7183 49.1787 17.4278C49.1787 17.331 49.1787 17.2665 49.1463 17.1696C49.1139 16.9437 49.0816 16.75 49.0169 16.5241C49.0169 16.4273 48.9845 16.3627 48.9521 16.2659C48.8874 16.0077 48.8551 15.7495 48.7904 15.4913V15.4267C48.7256 15.1362 48.6609 14.8457 48.5962 14.5875C48.5962 14.523 48.5962 14.4584 48.5639 14.3939C48.4991 14.1679 48.4668 13.9743 48.4021 13.7483C48.4021 13.6838 48.3697 13.587 48.3374 13.5224C48.2726 13.2965 48.2079 13.0383 48.1432 12.8123C48.1432 12.7801 48.1432 12.7478 48.1432 12.7155C48.0785 12.4573 47.9814 12.1668 47.9167 11.9086C47.9167 11.8763 47.9167 11.8118 47.8843 11.7795C47.8196 11.5536 47.7549 11.3599 47.6902 11.134C47.6902 11.0694 47.6578 11.0049 47.6255 10.9403C47.5608 10.7144 47.4637 10.4884 47.399 10.2948C47.399 10.2625 47.399 10.2302 47.3666 10.198C47.2696 9.93974 47.1725 9.68153 47.0754 9.4556C47.0754 9.4556 47.0754 9.42332 47.0754 9.39104C46.9783 9.16511 46.9136 8.93917 46.8166 8.74552C46.8166 8.68096 46.7842 8.64869 46.7518 8.58414C46.6548 8.39048 46.59 8.19682 46.493 8.00316C46.493 8.00316 46.493 7.93861 46.4606 7.90633C46.2341 7.45446 46.04 7.0026 45.7811 6.583C45.7811 6.55073 45.7488 6.51845 45.7164 6.4539C45.6193 6.26024 45.5222 6.09886 45.4252 5.93748C45.4252 5.93748 45.3928 5.87293 45.3605 5.84065C44.1632 3.8718 42.7719 2.35481 41.1216 1.51562C39.5037 7.26081 38.436 13.1351 37.8535 19.0417C39.8597 19.203 41.7041 19.9777 43.1601 21.1719C45.2957 22.9148 46.6548 25.5615 46.6548 28.5309C46.6548 30.4997 46.04 32.3718 45.0045 33.8888C43.419 36.2127 40.8304 37.7942 37.8535 38.0201C38.1771 41.5705 38.7272 45.1209 39.439 48.6713C39.8597 50.7693 40.3774 52.8672 40.9275 54.9652L41.0893 55.5784C41.0893 55.5784 41.3805 55.417 41.5423 55.3525C41.5423 55.3525 41.5746 55.3525 41.607 55.3202C41.7364 55.2234 41.8982 55.1588 42.0276 55.062C42.0276 55.062 42.0924 55.0297 42.0924 54.9975C42.2218 54.9006 42.3512 54.8038 42.4806 54.707C42.4806 54.707 42.513 54.6747 42.5454 54.6424C42.6748 54.5456 42.8042 54.4165 42.966 54.2874C42.966 54.2874 43.2249 54.0292 43.3543 53.9001L43.419 53.8355C43.419 53.8355 43.6779 53.5773 43.7749 53.4482C43.7749 53.4482 43.8073 53.3836 43.8397 53.3836C43.9691 53.2545 44.0662 53.0932 44.1956 52.9641C44.1956 52.9641 44.2279 52.8995 44.2603 52.8995C44.3897 52.7381 44.4868 52.5767 44.6162 52.4154C44.7457 52.2217 44.8427 52.0603 44.9398 51.8989C44.9398 51.8989 44.9398 51.8667 44.9722 51.8344C45.0692 51.673 45.1987 51.5116 45.2957 51.318C45.2957 51.318 45.3281 51.2534 45.3605 51.2211C45.4575 51.0597 45.5546 50.8661 45.6517 50.7047C45.6517 50.7047 45.684 50.6402 45.7164 50.6079C45.8135 50.4142 45.9105 50.2206 46.0076 50.0269C46.1047 49.801 46.2018 49.6073 46.2988 49.3814C46.2988 49.3814 46.2988 49.3491 46.3312 49.3168C46.4283 49.1232 46.5253 48.8972 46.59 48.7036C46.59 48.6713 46.6224 48.639 46.6548 48.6068C46.7518 48.4131 46.8165 48.1872 46.9136 47.9935C46.9136 47.9612 46.9136 47.9289 46.946 47.8967C47.0431 47.6707 47.1078 47.4448 47.2048 47.2189C47.2048 47.2189 47.2048 47.1866 47.2048 47.1543C47.3019 46.9284 47.3666 46.7024 47.4313 46.4765C47.4313 46.4765 47.4313 46.4442 47.4313 46.412C47.4961 46.186 47.5931 45.9601 47.6578 45.7019C47.6578 45.6696 47.6578 45.6373 47.6902 45.5728C47.7549 45.3468 47.8196 45.1209 47.9167 44.8627C47.9167 44.8304 47.9167 44.7981 47.9491 44.7336C48.0138 44.4754 48.0785 44.2495 48.1432 43.9912C48.1432 43.9912 48.1432 43.959 48.1432 43.9267C48.2079 43.6685 48.2726 43.4103 48.3374 43.1521V43.0875C48.4021 42.8293 48.4668 42.5711 48.5315 42.3129C48.5315 42.2806 48.5315 42.2483 48.5315 42.1838C48.5962 41.9256 48.6286 41.6673 48.6933 41.4091C48.6933 41.3769 48.6933 41.3446 48.6933 41.28C48.758 41.0218 48.7904 40.7313 48.8551 40.4731C48.8551 40.4731 48.8551 40.4408 48.8551 40.4086C48.9198 40.1181 48.9521 39.8599 49.0169 39.5694C49.0492 39.2466 49.1139 38.9884 49.1463 38.6979C49.1463 38.6656 49.1463 38.6334 49.1463 38.6011C49.1787 38.3106 49.2434 38.0524 49.2757 37.7619C49.2757 37.7296 49.2757 37.6974 49.2757 37.6651C49.3081 37.3746 49.3404 37.0841 49.3728 36.7936C49.3728 36.7936 49.3728 36.7613 49.3728 36.7291C49.4375 36.1158 49.5022 35.5348 49.5669 34.9216C49.5669 34.9216 49.5669 34.857 49.5669 34.8248C49.5669 34.5343 49.6317 34.2438 49.6317 33.9533C49.6317 33.921 49.6317 33.8888 49.6317 33.8565C49.6317 33.566 49.664 33.2432 49.6964 32.9527C49.7287 32.2749 49.7611 31.6617 49.7934 31.0162V30.9516C49.7934 30.6289 49.7934 30.3384 49.7934 30.0156V29.951C49.7934 29.6283 49.7934 29.3378 49.7934 29.015C49.7934 28.3372 49.7934 27.6917 49.7934 27.0462L49.9876 26.9816Z" fill="#E74F4F"/>
<path d="M39.6657 54.8074C35.0385 37.5718 35.0385 19.4326 39.6657 2.19702C39.7627 1.84198 39.8598 1.48694 39.9569 1.1319C39.6009 1.06735 39.2127 1.03507 38.8244 1.06735C38.7596 1.06735 38.6949 1.06735 38.5979 1.06735C38.5331 1.06735 38.4684 1.06735 38.4361 1.06735C38.3714 1.06735 38.2743 1.06735 38.2096 1.09963C38.1449 1.09963 38.1125 1.09963 38.0478 1.09963C37.9507 1.09963 37.886 1.1319 37.7889 1.16418C37.7242 1.16418 37.6918 1.16418 37.6271 1.19645C37.5301 1.19645 37.433 1.22873 37.3683 1.26101C37.3359 1.26101 37.2712 1.26101 37.2388 1.29328C37.1418 1.29328 37.0447 1.35784 36.9476 1.39011C36.9153 1.39011 36.8505 1.39011 36.8182 1.42239C36.7211 1.45467 36.5917 1.48694 36.4946 1.51922C36.4623 1.51922 36.4299 1.51922 36.3975 1.55149C36.2681 1.58377 36.171 1.64832 36.0416 1.6806C36.0416 1.6806 35.9769 1.6806 35.9445 1.71288C35.8151 1.77743 35.6857 1.8097 35.5563 1.87426C35.5563 1.87426 35.5239 1.87426 35.4915 1.87426C35.3621 1.93881 35.2327 2.00336 35.1032 2.06791H35.0385C35.0385 2.06791 34.7473 2.2293 34.6179 2.29385H34.5855C34.5855 2.29385 34.2943 2.45523 34.1325 2.55206C34.1325 2.55206 33.8089 2.74572 33.6472 2.81027C33.6472 2.81027 33.3559 2.97165 33.1941 3.06848H33.1618C24.9106 8.00675 14.7827 19.6585 14.7827 19.6585V36.2808C14.7827 36.2808 18.6009 40.8317 23.4545 45.5441C23.6163 45.7377 23.7781 45.8991 23.9399 46.0282C24.1017 46.1896 24.2635 46.351 24.4253 46.5124C24.4576 46.5447 24.49 46.5769 24.5223 46.6092C24.6518 46.7383 24.7812 46.8674 24.9106 46.9965C24.9753 47.0288 25.0077 47.0934 25.0724 47.1256C25.2018 47.2547 25.3313 47.3516 25.4283 47.4807C25.4931 47.5452 25.5254 47.5775 25.5901 47.6421C25.7196 47.7389 25.8166 47.868 25.9461 47.9648C26.0108 48.0294 26.0755 48.0616 26.1079 48.1262C26.2373 48.223 26.3344 48.3521 26.4638 48.449C26.5285 48.5135 26.5932 48.5458 26.6579 48.6103C26.7874 48.7072 26.8844 48.8363 27.0139 48.9331C27.0786 48.9977 27.1433 49.0299 27.1757 49.0945C27.3051 49.1913 27.4345 49.3204 27.5639 49.4172C27.6287 49.4495 27.661 49.5141 27.7257 49.5463C27.8552 49.6755 27.9846 49.7723 28.1464 49.9014C28.1787 49.9337 28.2434 49.9659 28.2758 49.9982C28.4376 50.1273 28.6317 50.2887 28.7935 50.4178C28.9877 50.5792 29.1495 50.7406 29.3436 50.8697C29.5054 51.0311 29.6995 51.1602 29.8613 51.2893C29.8937 51.3215 29.9584 51.3538 29.9908 51.3861C30.1202 51.4829 30.2496 51.5798 30.379 51.6766C30.4438 51.7089 30.5085 51.7734 30.5408 51.8057C30.6703 51.9025 30.7673 51.9671 30.8968 52.0639C30.9615 52.0962 31.0262 52.1607 31.0909 52.193C31.2203 52.2898 31.3174 52.3544 31.4145 52.4189C31.4792 52.4512 31.5439 52.5158 31.6086 52.548C31.7057 52.6126 31.8351 52.7094 31.9322 52.774C31.9969 52.8063 32.0616 52.8708 32.1264 52.9031C32.2234 52.9676 32.3529 53.0322 32.4499 53.129C32.5146 53.1613 32.5794 53.2258 32.6441 53.2581C32.7411 53.3227 32.8706 53.3872 32.9676 53.4518C33.0324 53.4841 33.0971 53.5163 33.1618 53.5809C33.2912 53.6454 33.3883 53.71 33.5177 53.7745C33.5824 53.8068 33.6472 53.8391 33.6795 53.8714C33.8089 53.9359 33.9384 54.0328 34.0678 54.0973C34.1002 54.0973 34.1649 54.1296 34.1972 54.1619C34.5208 54.3555 34.8767 54.5169 35.2003 54.6783C35.265 54.6783 35.2974 54.7106 35.3621 54.7428C35.4915 54.8074 35.5886 54.8397 35.718 54.9042C35.7828 54.9042 35.8475 54.9688 35.9122 54.9688C36.0093 55.001 36.1063 55.0656 36.2034 55.0979C36.2681 55.0979 36.3328 55.1302 36.3975 55.1624C36.4946 55.1947 36.5917 55.227 36.6888 55.2593C36.7535 55.2593 36.8182 55.2915 36.8829 55.3238C36.98 55.3238 37.0771 55.3884 37.1418 55.4206C37.2065 55.4206 37.2712 55.4529 37.3359 55.4852C37.433 55.4852 37.4977 55.5175 37.5948 55.5497C37.6595 55.5497 37.7242 55.5497 37.7889 55.582C37.886 55.582 37.9507 55.6143 38.0478 55.6143C38.1125 55.6143 38.1772 55.6143 38.2419 55.6143C38.339 55.6143 38.4037 55.6143 38.5008 55.6143C38.5655 55.6143 38.5979 55.6143 38.6626 55.6143C38.6949 55.6143 38.7273 55.6143 38.792 55.6143C39.1803 55.6143 39.5362 55.6143 39.8922 55.5497L39.698 54.8719C39.698 54.8719 39.6333 54.6137 39.6009 54.4846L39.6657 54.8074Z" fill="#FCD397"/>
<path d="M13.65 36.4379V20.2674C12.3881 20.0415 10.2201 19.7188 8.31103 19.7188C7.08144 19.7188 5.94893 19.8479 5.23706 20.2352C2.19546 21.9135 1.67773 24.7861 1.67773 28.4011V28.4656V28.5302C1.67773 32.1451 2.22781 35.0177 5.23706 36.6961C5.91657 37.0834 7.04909 37.2125 8.31103 37.2125C10.2201 37.2125 12.4204 36.8897 13.6824 36.6638C13.6824 36.5993 13.6824 36.5024 13.6824 36.4379H13.65Z" fill="#FCD397"/>
<path d="M49.9878 26.9818C49.9878 26.6591 49.9878 26.3363 49.9878 26.0458V25.9813C49.9878 25.6585 49.9878 25.3357 49.9554 25.013C49.8907 24.0447 49.826 23.0764 49.7613 22.1081C49.6319 20.817 49.4701 19.5583 49.3083 18.3318C48.4993 13.103 47.0109 8.42294 44.9076 5.19531C47.108 10.1336 45.2636 16.2661 43.0956 21.1075C45.2312 22.8505 46.5902 25.4971 46.5902 28.4665C46.5902 30.4354 45.9754 32.3074 44.94 33.8244C46.3637 39.4405 46.3637 45.2825 40.8306 48.1228C40.3776 48.381 39.8922 48.5424 39.3745 48.5747C39.7952 50.6726 40.3129 52.7706 40.863 54.8685L41.0247 55.4818C41.0247 55.4818 41.316 55.3204 41.4778 55.2559C41.4778 55.2559 41.5101 55.2559 41.5425 55.2236C41.6719 55.1268 41.8337 55.0622 41.9631 54.9654C41.9631 54.9654 42.0278 54.9331 42.0278 54.9008C42.1573 54.804 42.2867 54.7072 42.4161 54.6103C42.4161 54.6103 42.4485 54.5781 42.4808 54.5458C42.6103 54.4489 42.7397 54.3198 42.9015 54.1907C42.9015 54.1907 43.1603 53.9325 43.2898 53.8034L43.3545 53.7389C43.3545 53.7389 43.6133 53.4807 43.7104 53.3516C43.7104 53.3516 43.7428 53.287 43.7751 53.287C43.9046 53.1579 44.0016 52.9965 44.1311 52.8674C44.1311 52.8674 44.1634 52.8029 44.1958 52.8029C44.3252 52.6415 44.4223 52.4801 44.5517 52.3187C44.6811 52.1251 44.7782 51.9637 44.8753 51.8023C44.8753 51.8023 44.8753 51.77 44.9076 51.7377C45.0047 51.5764 45.1342 51.415 45.2312 51.2213C45.2312 51.2213 45.2636 51.1568 45.2959 51.1245C45.393 50.9631 45.4901 50.7694 45.5872 50.6081C45.5872 50.6081 45.6195 50.5435 45.6519 50.5112C45.7489 50.3176 45.846 50.1239 45.9431 49.9303C46.0402 49.7043 46.1372 49.5107 46.2343 49.2847C46.2343 49.2847 46.2343 49.2525 46.2667 49.2202C46.3637 49.0265 46.4608 48.8006 46.5255 48.6069C46.5255 48.5747 46.5579 48.5424 46.5902 48.5101C46.6873 48.3165 46.752 48.0905 46.8491 47.8969C46.8491 47.8646 46.8491 47.8323 46.8815 47.8C46.9785 47.5741 47.0432 47.3482 47.1403 47.1222C47.1403 47.1222 47.1403 47.09 47.1403 47.0577C47.2374 46.8317 47.3021 46.6058 47.3668 46.3799C47.3668 46.3799 47.3668 46.3476 47.3668 46.3153C47.4315 46.0894 47.5286 45.8635 47.5933 45.6052C47.5933 45.573 47.5933 45.5407 47.6257 45.4761C47.6904 45.2502 47.7551 45.0243 47.8522 44.7661C47.8522 44.7338 47.8522 44.7015 47.8845 44.637C47.9493 44.3787 48.014 44.1528 48.0787 43.8946C48.0787 43.8946 48.0787 43.8623 48.0787 43.83C48.1434 43.5718 48.2081 43.3136 48.2728 43.0554V42.9909C48.3375 42.7327 48.4023 42.4744 48.467 42.2162C48.467 42.184 48.467 42.1517 48.467 42.0871C48.5317 41.8289 48.5641 41.5707 48.6288 41.3125C48.6288 41.2802 48.6288 41.2479 48.6288 41.1834C48.6935 40.9252 48.7258 40.6347 48.7906 40.3765C48.7906 40.3765 48.7906 40.3442 48.7906 40.3119C48.8553 40.0214 48.8876 39.7632 48.9523 39.4727C48.9847 39.15 49.0494 38.8918 49.0818 38.6013C49.0818 38.569 49.0818 38.5367 49.0818 38.5045C49.1141 38.214 49.1788 37.9558 49.2112 37.6653C49.2112 37.633 49.2112 37.6007 49.2112 37.5684C49.2436 37.278 49.2759 36.9875 49.3083 36.697C49.3083 36.697 49.3083 36.6647 49.3083 36.6324C49.373 36.0192 49.4377 35.4382 49.5024 34.825C49.5024 34.825 49.5024 34.7604 49.5024 34.7281C49.5024 34.4376 49.5671 34.1472 49.5671 33.8567C49.5671 33.8244 49.5671 33.7921 49.5671 33.7598C49.5671 33.4694 49.5995 33.1466 49.6319 32.8561C49.6642 32.1783 49.6966 31.5651 49.7289 30.9195V30.855C49.7289 30.5322 49.7289 30.2417 49.7289 29.919V29.8544C49.7289 29.5316 49.7289 29.2412 49.7289 28.9184C49.7289 28.2406 49.7289 27.5951 49.7289 26.9495L49.9878 26.9818Z" fill="#E74F4F"/>
<path d="M66.6518 28.4711C66.6518 23.9524 63.8367 19.9824 59.4685 18.2718C59.1125 18.1427 58.7243 18.0781 58.3683 18.0781C57.2034 18.0781 56.1033 18.7559 55.6503 19.8533C55.0355 21.3058 55.7797 22.9196 57.2682 23.5328C59.4038 24.372 60.7951 26.3086 60.7951 28.5034C60.7951 30.6982 59.4038 32.667 57.2682 33.4739C55.7474 34.0549 55.0355 35.701 55.6503 37.1534C56.1033 38.2508 57.2034 38.9286 58.3683 38.9286C58.7243 38.9286 59.1125 38.8641 59.4685 38.735C63.8367 37.0566 66.6518 33.0543 66.6518 28.5356V28.4711Z" fill="#E74F4F"/>
<path d="M78.9473 28.469C78.9473 20.1094 74.0937 12.6536 66.5544 9.52281C66.1985 9.36143 65.8102 9.29688 65.4543 9.29688C64.2894 9.29688 63.1892 10.007 62.7362 11.2012C62.1214 12.7504 62.8657 14.5256 64.3541 15.1712C69.6284 17.366 73.0583 22.5947 73.0583 28.5013C73.0583 34.4078 69.6284 39.6043 64.3541 41.8314C62.8333 42.4446 62.1214 44.2198 62.7362 45.8014C63.1892 46.9956 64.2894 47.7057 65.4543 47.7057C65.8102 47.7057 66.1985 47.6411 66.5544 47.4797C74.0937 44.3489 78.9473 36.8931 78.9473 28.5336V28.469Z" fill="#E74F4F"/>
<path d="M37.6267 36.893C41.995 36.5703 45.4572 32.9231 45.4572 28.5012C45.4572 24.0794 41.995 20.4321 37.6267 20.1094C37.1414 25.6932 37.1414 31.3093 37.6267 36.9253V36.893Z" fill="#E74F4F"/>
<path d="M35.5237 12.6841C33.5499 18.7844 25.7194 22.9157 27.8873 30.0811C29.6346 35.0839 35.5237 42.7011 27.6608 45.0895C26.2371 45.5414 24.781 45.7351 23.3896 45.7028C23.5514 45.8642 23.7456 46.0256 23.9074 46.1869C24.0692 46.3483 24.2309 46.5097 24.3927 46.6711C24.4251 46.7034 24.4574 46.7356 24.4898 46.7679C24.6192 46.897 24.7487 47.0261 24.8781 47.1552C24.9428 47.1875 24.9752 47.2521 25.0399 47.2843C25.1693 47.4134 25.2987 47.5103 25.3958 47.6394C25.4605 47.7039 25.4929 47.7362 25.5576 47.8007C25.687 47.8976 25.7841 48.0267 25.9135 48.1235C25.9783 48.1881 26.043 48.2203 26.0753 48.2849C26.2048 48.3817 26.3018 48.5108 26.4313 48.6077C26.496 48.6722 26.5607 48.7045 26.6254 48.769C26.7548 48.8659 26.8519 48.995 26.9813 49.0918C27.046 49.1564 27.1108 49.1886 27.1431 49.2532C27.2726 49.35 27.402 49.4791 27.5314 49.5759C27.5961 49.6082 27.6285 49.6728 27.6932 49.7051C27.8226 49.8342 27.9521 49.931 28.1138 50.0601C28.1462 50.0924 28.2109 50.1246 28.2433 50.1569C28.4051 50.286 28.5992 50.4474 28.761 50.5765C28.9551 50.7379 29.1169 50.8993 29.3111 51.0284C29.4729 51.1898 29.667 51.3189 29.8288 51.448C29.8612 51.4802 29.9259 51.5125 29.9582 51.5448C30.0877 51.6416 30.2171 51.7385 30.3465 51.8353C30.4112 51.8676 30.4759 51.9321 30.5083 51.9644C30.6377 52.0612 30.7348 52.1258 30.8642 52.2226C30.929 52.2549 30.9937 52.3194 31.0584 52.3517C31.1878 52.4485 31.2849 52.5131 31.382 52.5776C31.4467 52.6099 31.5114 52.6745 31.5761 52.7067C31.6732 52.7713 31.8026 52.8681 31.8997 52.9327C31.9644 52.965 32.0291 53.0295 32.0938 53.0618C32.1909 53.1263 32.3203 53.1909 32.4174 53.2877C32.4821 53.32 32.5468 53.3845 32.6115 53.4168C32.7086 53.4814 32.838 53.5459 32.9351 53.6105C32.9998 53.6428 33.0646 53.675 33.1293 53.7396C33.2587 53.8041 33.3558 53.8687 33.4852 53.9332C33.5499 53.9655 33.6146 53.9978 33.647 54.0301C33.7764 54.0946 33.9058 54.1915 34.0353 54.256C34.0676 54.256 34.1323 54.2883 34.1647 54.3206C34.4883 54.5142 34.8442 54.6756 35.1678 54.837C35.2325 54.837 35.2649 54.8693 35.3296 54.9015C35.459 54.9661 35.5561 54.9984 35.6855 55.0629C35.7502 55.0629 35.8149 55.1275 35.8797 55.1275C35.9767 55.1597 36.0738 55.2243 36.1709 55.2566C36.2356 55.2566 36.3003 55.2888 36.365 55.3211C36.4621 55.3534 36.5592 55.3857 36.6562 55.418C36.7209 55.418 36.7857 55.4502 36.8504 55.4825C36.9475 55.4825 37.0445 55.5471 37.1092 55.5793C37.174 55.5793 37.2387 55.6116 37.3034 55.6439C37.4005 55.6439 37.4652 55.6762 37.5622 55.7084C37.627 55.7084 37.6917 55.7084 37.7564 55.7407C37.8535 55.7407 37.9182 55.773 38.0153 55.773C38.08 55.773 38.1447 55.773 38.2094 55.773C38.3065 55.773 38.3712 55.773 38.4683 55.773C38.533 55.773 38.5653 55.773 38.63 55.773C38.6624 55.773 38.6948 55.773 38.7595 55.773C39.1478 55.773 39.5037 55.773 39.8596 55.7084L39.6655 55.0306C39.6655 55.0306 39.6008 54.7724 39.5684 54.6433C34.9413 37.4078 34.9413 19.2685 39.5684 2.03296C39.6655 1.67792 39.7626 1.32288 39.8596 0.96784C39.5037 0.903287 39.1154 0.871011 38.7271 0.903287C38.6624 0.903287 38.5977 0.903287 38.5006 0.903287C38.4359 0.903287 38.3712 0.903287 38.3388 0.903287C38.2741 0.903287 38.177 0.903287 38.1123 0.935564C38.0476 0.935564 38.0153 0.935564 37.9505 0.935564C37.8535 0.935564 37.7887 0.96784 37.6917 1.00012C37.627 1.00012 37.5946 1.00012 37.5299 1.03239C37.4328 1.03239 37.3357 1.06467 37.271 1.09694C37.2387 1.09694 37.174 1.09695 37.1416 1.12922C37.0445 1.12922 36.9475 1.19377 36.8504 1.22605C36.818 1.22605 36.7533 1.22605 36.721 1.25833C36.6239 1.2906 36.4944 1.32288 36.3974 1.35516C36.365 1.35516 36.3327 1.35516 36.3003 1.38743C36.1709 1.41971 36.0738 1.48426 35.9444 1.51654C35.9444 1.51654 35.8797 1.51654 35.8473 1.54881C35.7179 1.61337 35.5884 1.64564 35.459 1.71019C35.459 1.71019 35.4266 1.71019 35.3943 1.71019C35.2649 1.77475 35.1354 1.8393 35.006 1.90385H34.9413C34.9413 1.90385 34.6501 2.06523 34.5206 2.12979H34.4883C34.4883 2.12979 34.1971 2.29117 34.0353 2.388C34.0353 2.388 33.7117 2.58165 33.5499 2.64621C33.5499 2.64621 33.2263 2.83987 33.0645 2.93669C34.7795 5.90611 36.4621 8.87553 35.459 12.3936L35.5237 12.6841Z" fill="#FBC474"/>
<path d="M20.6719 35.2422C20.2513 35.2422 20.2513 35.8877 20.6719 35.8877C21.0926 35.8877 21.0926 35.2422 20.6719 35.2422Z" fill="white"/>
<path d="M31.8672 48.0625C31.4466 48.0625 31.4466 48.708 31.8672 48.708C32.2879 48.708 32.2879 48.0625 31.8672 48.0625Z" fill="white"/>
<path d="M34.2295 30.3096C34.6502 30.3096 34.6502 29.6641 34.2295 29.6641C33.8089 29.6641 33.8089 30.3096 34.2295 30.3096Z" fill="white"/>
<path d="M23.8751 21.6562C23.4544 21.6562 23.4544 22.3018 23.8751 22.3018C24.2957 22.3018 24.2957 21.6562 23.8751 21.6562Z" fill="white"/>
<path d="M33.2911 10.9766C32.8704 10.9766 32.8704 11.6221 33.2911 11.6221C33.7117 11.6221 33.7117 10.9766 33.2911 10.9766Z" fill="white"/>
<path d="M11.2237 23.1406C10.803 23.1406 10.803 23.7862 11.2237 23.7862C11.6443 23.7862 11.6443 23.1406 11.2237 23.1406Z" fill="white"/>
<path d="M9.96148 30.9844C9.54083 30.9844 9.54083 31.6299 9.96148 31.6299C10.3821 31.6299 10.3821 30.9844 9.96148 30.9844Z" fill="white"/>
<path d="M34.2295 6.61362C34.7148 6.0972 34.1324 5.29029 33.4853 5.61305C27.855 8.55019 21.966 13.7467 18.5361 19.1045C18.1801 19.7178 18.9567 20.3633 19.4744 19.9115C20.7687 18.8463 21.9983 17.7489 23.2603 16.6515C26.8196 13.4239 30.8643 10.0026 34.2295 6.58134V6.61362Z" fill="white"/>
<path d="M17.2416 22.7852C17.9564 22.7852 18.5359 22.2072 18.5359 21.4942C18.5359 20.7811 17.9564 20.2031 17.2416 20.2031C16.5267 20.2031 15.9473 20.7811 15.9473 21.4942C15.9473 22.2072 16.5267 22.7852 17.2416 22.7852Z" fill="white"/>
<path d="M60.6006 34.7315C61.0213 34.7315 61.0213 34.0859 60.6006 34.0859C60.18 34.0859 60.18 34.7315 60.6006 34.7315Z" fill="#E74F4F"/>
<path d="M64.4839 26.9815C64.9046 26.9815 64.9046 26.3359 64.4839 26.3359C64.0633 26.3359 64.0633 26.9815 64.4839 26.9815Z" fill="#E74F4F"/>
<path d="M58.9507 20.4922C58.5301 20.4922 58.5301 21.1377 58.9507 21.1377C59.3714 21.1377 59.3714 20.4922 58.9507 20.4922Z" fill="#E74F4F"/>
<path d="M67.5254 13.75C67.1048 13.75 67.1048 14.3955 67.5254 14.3955C67.9461 14.3955 67.9461 13.75 67.5254 13.75Z" fill="#E74F4F"/>
<path d="M75.0001 20.6221C75.4207 20.6221 75.4207 19.9766 75.0001 19.9766C74.5794 19.9766 74.5794 20.6221 75.0001 20.6221Z" fill="#E74F4F"/>
<path d="M75.0001 33.5674C75.4207 33.5674 75.4207 32.9219 75.0001 32.9219C74.5794 32.9219 74.5794 33.5674 75.0001 33.5674Z" fill="#E74F4F"/>
<path d="M73.188 41.3174C73.6087 41.3174 73.6087 40.6719 73.188 40.6719C72.7674 40.6719 72.7674 41.3174 73.188 41.3174Z" fill="#E74F4F"/>
<path d="M66.3604 43.7656C65.9398 43.7656 65.9398 44.4112 66.3604 44.4112C66.7811 44.4112 66.7811 43.7656 66.3604 43.7656Z" fill="#E74F4F"/>
<path d="M76.8448 28.2393C77.2654 28.2393 77.2654 27.5938 76.8448 27.5938C76.4241 27.5938 76.4241 28.2393 76.8448 28.2393Z" fill="#E74F4F"/>
<path d="M71.3438 40.3799C71.7645 40.3799 71.7645 39.7344 71.3438 39.7344C70.9232 39.7344 70.9232 40.3799 71.3438 40.3799Z" fill="#E74F4F"/>
</svg>
