<svg width="844" height="390" viewBox="0 0 844 390" fill="none" xmlns="http://www.w3.org/2000/svg">
<path d="M844 -71H0V411H844V-71Z" fill="#B9EBF9"/>
<path d="M0 53L846 -50.8427V-71H550.328L0 -16.9908V53Z" fill="#8FEBFF" fill-opacity="0.5" style="mix-blend-mode:soft-light"/>
<path d="M846 -22L0 77.8723V130L846 2.38117V-22Z" fill="#8FEBFF" fill-opacity="0.5" style="mix-blend-mode:soft-light"/>
<path opacity="0.5" d="M848.752 247.619C839.216 248.533 849.049 247.446 835.599 260.903C835.599 260.903 797.418 203.839 751.362 222.776C751.362 222.776 745.531 186.085 706.541 192.394C706.541 192.394 663.763 162.388 631.306 214.407C631.306 214.407 585.737 207.303 584.585 250.711C584.585 250.711 553.226 238.868 530.727 260.903C530.727 260.903 520.591 216.532 485.509 227.783C485.509 227.783 484.927 185.633 449.5 190.355C449.5 190.355 425.564 151.319 396.532 181.363C396.532 181.363 367.857 164.281 348.749 193.045C348.749 193.045 318.827 186.392 309.13 205.619C309.13 205.619 256.43 189.952 244.488 237.206C244.488 237.206 226.252 203.99 180.078 221.824C180.078 221.824 171.248 195.589 148.962 205.619C148.962 205.619 127.122 179.852 98.0789 198.805C98.0789 198.805 53.7037 180.744 39.5592 215.967C39.5592 215.967 15.9554 211.438 15.6525 238.405C15.6525 238.405 6.05662 235.598 -3.06426 239.341C-6.47272 268.067 -20.7122 269.944 -4.12718 305H850.955C861.638 265.2 856.406 293.125 848.752 247.619Z" fill="white"/>
<path opacity="0.5" d="M848.6 212.619C838.888 213.533 848.903 212.446 835.205 225.903C835.205 225.903 796.321 168.839 749.417 187.776C749.417 187.776 743.478 151.085 703.771 157.394C703.771 157.394 660.206 127.388 627.151 179.407C627.151 179.407 580.743 172.303 579.57 215.711C579.57 215.711 547.633 203.868 524.72 225.903C524.72 225.903 514.397 181.532 478.669 192.783C478.669 192.783 478.076 150.633 441.997 155.355C441.997 155.355 417.62 116.319 388.054 146.363C388.054 146.363 358.851 129.281 339.391 158.045C339.391 158.045 308.918 151.392 299.043 170.619C299.043 170.619 245.372 154.952 233.211 202.206C233.211 202.206 214.639 168.99 167.614 186.824C167.614 186.824 158.622 160.589 135.926 170.619C135.926 170.619 113.684 144.852 84.1057 163.805C84.1057 163.805 38.9135 145.744 24.5085 180.967C24.5085 180.967 0.470098 176.438 0.16168 203.405C0.16168 203.405 -9.61093 200.598 -18.8997 204.341C-22.3709 233.067 -36.8726 234.944 -19.9822 270H850.844C861.723 230.2 856.396 258.125 848.6 212.619Z" fill="#2171CE" fill-opacity="0.48"/>
<path d="M653.64 59.341C653.64 59.341 824.511 65.7348 826.344 59.341C828.171 52.9471 811.723 44.7203 792.536 42.8928C792.536 42.8928 776.999 13.6568 755.985 29.1886C755.985 29.1886 738.625 3.64532 719.433 24.6437C719.433 24.6437 697.502 14.6322 686.537 39.2751C686.537 39.2751 674.574 35.293 668.261 47.4698C668.261 47.4644 655.468 45.6368 653.64 59.341Z" fill="white"/>
<path d="M4.75471 91.4565C4.75471 91.4565 189.428 93.7236 192.826 91.4565C196.224 89.194 197.359 71.0616 156.572 72.1928C156.572 72.1928 147.505 46.1324 123.715 61.993C123.715 61.993 118.426 40.3496 99.5459 49.4698C99.5459 49.4698 65.9386 18.9268 43.2804 64.2555C43.2804 64.2555 25.1509 56.3885 18.3553 77.8865C18.3506 77.8912 -3.17662 81.2567 4.75471 91.4565Z" fill="white"/>
<path d="M842.427 269.932H-12V411.272H842.427V269.932Z" fill="#F8D18F"/>
<path d="M842.427 268.255H-12V271.61H842.427V268.255Z" fill="#AEABE8"/>
<path d="M842.427 283.797H-11.8643V325.821C103.421 295.352 726.13 292.48 842.433 292.206V283.797H842.427Z" fill="#FFE3BB" style="mix-blend-mode:multiply"/>
<path d="M842.427 375.798C664.635 376.511 97.5559 376.398 -11.8699 346.782V411.042H842.427V375.798Z" fill="#E8B66D" style="mix-blend-mode:darken"/>
</svg>
