<svg width="461" height="580" viewBox="0 0 461 580" fill="none" xmlns="http://www.w3.org/2000/svg">
<path d="M114.187 579.99C114.187 579.99 75.3785 580.301 42.1985 547.091C9.01847 513.882 -9.12889 469.954 4.64187 424.231C18.4126 378.508 52.8445 359.567 40.9466 306.996C29.0487 254.424 29.6796 174.479 126.696 137.369C223.712 100.259 308.85 120.735 360.799 162.828C412.757 204.921 396.483 257.452 409.001 290.411C421.52 323.37 462.462 370.316 460.96 422.707C458.456 509.811 396.483 580 341.4 580C286.316 580 114.187 579.99 114.187 579.99Z" fill="#EEFAFF"/>
<mask id="mask0_18_275" style="mask-type:luminance" maskUnits="userSpaceOnUse" x="39" y="0" width="376" height="585">
<path d="M115.96 585C115.96 585 161.59 548.426 128.46 505C95.3299 461.575 102.21 535.778 115.96 476C129.71 416.232 54.7099 296.817 42.8299 228.086C30.9499 159.355 49.1199 88.1181 146 39.6057C242.88 -8.90662 310.34 -15.4285 362.21 39.6057C414.09 94.6399 397.84 163.317 410.34 206.4C422.84 249.483 399.5 294.505 398 363C395.5 476.881 397.84 584.989 342.84 584.989C287.84 585 115.96 585 115.96 585Z" fill="white"/>
</mask>
<g mask="url(#mask0_18_275)">
<path d="M242.98 267.39C230.81 266.21 222.65 262.08 218.73 255.1C211.43 242.1 221.38 224.14 221.81 223.38C226.14 208.52 227.24 199.76 227.48 197.36C212.79 193.13 202.32 185.5 196.34 174.65C188.12 159.73 190.61 142.51 193.38 134.69C201.83 110.78 203.65 90.9403 203.66 90.7503C207.65 69.8003 232.61 60.3003 254.12 60.3003C273.2 60.3003 289.77 67.1903 298.45 78.7403C312.18 97.0203 311.66 120.86 309.86 134.44C311.39 133.83 312.97 133.52 314.5 133.52C315.92 133.52 317.29 133.78 318.56 134.31C324.8 136.9 327.07 145.08 323.63 152.52C320.96 158.26 315.55 162.12 310.14 162.12C308.72 162.12 307.34 161.85 306.07 161.31C305.13 160.93 304.28 160.41 303.48 159.75C301.26 165.52 298.73 170.45 296.14 174.06C282.48 192.93 282.48 223.48 282.49 223.79C275.79 238.39 253.59 267.41 243.49 267.41C243.44 267.41 243.01 267.39 242.98 267.39Z" fill="#F7B897"/>
<path d="M254.12 61.1602C271.29 61.1602 288.49 66.9702 297.71 79.2402C309.83 95.3602 311.54 116.95 308.74 135.91C310.58 134.91 312.55 134.37 314.49 134.37C315.75 134.37 317 134.6 318.18 135.1C323.98 137.51 326.03 145.17 322.79 152.18C320.2 157.75 315.04 161.27 310.13 161.27C308.86 161.27 307.61 161.03 306.42 160.54C305.11 160 304.01 159.18 303.11 158.19C300.75 164.58 298.03 169.91 295.39 173.58C281.41 192.89 281.58 223.8 281.58 223.8C274.56 238.9 252.6 266.56 243.47 266.56C243.34 266.56 243.2 266.55 243.07 266.54C200.8 262.46 222.6 223.78 222.6 223.78C227.89 205.75 228.44 196.75 228.44 196.75C184.77 184.61 190.37 145.88 194.23 134.97C202.81 110.69 204.56 90.8202 204.56 90.8202C208.23 71.5602 231.15 61.1602 254.12 61.1602ZM254.12 59.4502C232.25 59.4502 206.85 69.1702 202.79 90.5202C202.75 90.8802 200.92 110.65 192.52 134.42C189.71 142.37 187.17 159.88 195.54 175.05C201.53 185.93 211.94 193.64 226.5 197.98C226.14 201.07 224.91 209.5 220.92 223.15C219.8 225.19 210.7 242.63 217.93 255.5C222.01 262.74 230.4 267.03 242.88 268.24C243.07 268.25 243.27 268.26 243.47 268.26C254.09 268.26 276.34 239.28 283.22 224.49C283.32 224.27 283.38 224.03 283.38 223.8C283.38 223.49 283.39 193.18 296.88 174.55C299.35 171.12 301.75 166.52 303.9 161.15C304.47 161.52 305.08 161.84 305.71 162.1C307.09 162.68 308.59 162.98 310.14 162.98C315.9 162.98 321.65 158.91 324.45 152.87C328.09 145 325.62 136.33 318.92 133.54C317.54 132.96 316.05 132.67 314.5 132.67C313.32 132.67 312.12 132.85 310.93 133.18C312.59 119.29 312.64 96.1602 299.18 78.2502C290.34 66.4802 273.49 59.4602 254.12 59.4502Z" fill="#31170E"/>
<path opacity="0.6" d="M317.22 150.27C315.01 154.55 310.78 156.89 307.77 155.5C304.74 154.11 304.08 149.51 306.26 145.23C308.47 140.95 312.7 138.61 315.73 140C318.75 141.4 319.42 146 317.22 150.27Z" fill="#D26E49"/>
<path opacity="0.6" d="M264.08 190.27C251.48 197.19 236.94 197.89 228.38 197.28C228.21 199.11 227.44 205.7 224.46 217.1C255.79 215.22 264.08 190.27 264.08 190.27Z" fill="#E18964"/>
<path d="M224.28 196.33C224.28 196.33 230.46 198.95 239.93 197.15" stroke="#31170E" stroke-width="1.2467" stroke-miterlimit="10" stroke-linecap="round" stroke-linejoin="round"/>
<path d="M247.38 195.86C247.38 195.86 261.58 195.24 270.53 184.67" stroke="#31170E" stroke-width="1.2467" stroke-miterlimit="10" stroke-linecap="round" stroke-linejoin="round"/>
<path d="M235.14 162.08C232.81 162.08 227.04 161.44 223.7 155.4C223.6 155.2 223.61 154.96 223.73 154.77C223.86 154.59 224.06 154.48 224.28 154.48C224.3 154.48 225.48 154.51 225.48 154.51C228.76 154.51 240.04 154.01 247.66 147.6C247.77 147.5 247.93 147.44 248.09 147.44C248.18 147.44 248.27 147.47 248.35 147.5C248.59 147.6 248.74 147.82 248.74 148.06C248.74 148.17 248.62 158.62 238.51 161.63C237.5 161.92 236.33 162.08 235.14 162.08Z" fill="#FFF7F3"/>
<path d="M248.09 148.05C248.09 148.05 248.09 158.12 238.32 161.02C237.41 161.29 236.31 161.46 235.13 161.46C231.46 161.46 226.92 159.89 224.27 155.1C224.27 155.1 224.71 155.13 225.48 155.13C229.14 155.13 240.37 154.56 248.09 148.05ZM248.09 146.81C247.77 146.81 247.46 146.92 247.21 147.13C239.78 153.4 228.69 153.88 225.48 153.88C224.77 153.88 224.37 153.86 224.35 153.86C224.32 153.85 224.3 153.85 224.27 153.85C223.83 153.85 223.42 154.06 223.18 154.42C222.92 154.79 222.9 155.27 223.11 155.67C226.61 162.01 232.68 162.69 235.13 162.69C236.39 162.69 237.63 162.52 238.7 162.2C249.27 159.06 249.39 148.16 249.39 148.05C249.39 147.57 249.08 147.12 248.62 146.92C248.45 146.85 248.28 146.81 248.09 146.81Z" fill="#31170E"/>
<path d="M275.87 141.82C275.87 148.1 270.51 153.2 263.86 153.2C257.23 153.2 251.86 148.1 251.86 141.82C251.86 135.53 257.23 130.44 263.86 130.44C270.51 130.43 275.87 135.53 275.87 141.82Z" fill="#ED777A"/>
<path d="M197.93 152.07C204.56 152.07 209.95 146.99 209.95 140.69C209.95 134.41 204.57 129.31 197.93 129.31C197.3 129.31 196.69 129.37 196.07 129.47C195.49 131.26 194.88 133.09 194.22 134.97C193.08 138.16 191.81 143.77 191.66 150.4C193.49 151.45 195.65 152.07 197.93 152.07Z" fill="#ED777A"/>
<path d="M225.45 142.37C225.45 142.37 216.49 140.93 219.55 134.72C219.55 134.72 226.98 124.78 226.98 119.2C226.98 111.34 223.06 105.34 223.06 105.34" stroke="#31170E" stroke-width="1.2467" stroke-miterlimit="10" stroke-linecap="round" stroke-linejoin="round"/>
<path d="M218.02 101.93C218.02 101.93 213.43 95.5101 204.92 100.27" stroke="#31170E" stroke-width="1.2467" stroke-miterlimit="10" stroke-linecap="round" stroke-linejoin="round"/>
<path d="M258.11 104.46C258.11 104.46 254.48 97.5203 245.37 101.14" stroke="#31170E" stroke-width="1.2467" stroke-miterlimit="10" stroke-linecap="round" stroke-linejoin="round"/>
<path d="M216.93 123.85C216.93 126.73 215.91 129.06 214.64 129.06C213.37 129.06 212.35 126.73 212.35 123.85C212.35 120.97 213.37 118.64 214.64 118.64C215.91 118.64 216.93 120.97 216.93 123.85Z" fill="#31170E"/>
<path d="M247.66 123.85C247.66 126.73 246.64 129.06 245.37 129.06C244.1 129.06 243.07 126.73 243.07 123.85C243.07 120.97 244.1 118.64 245.37 118.64C246.63 118.64 247.66 120.97 247.66 123.85Z" fill="#31170E"/>
<path d="M309.06 156.12C305.82 154.93 304.67 150.37 306.48 145.92C308.3 141.47 312.38 138.82 315.61 139.99C317.54 140.7 318.73 142.6 318.99 144.96" stroke="#31170E" stroke-width="1.2848" stroke-miterlimit="10" stroke-linecap="round" stroke-linejoin="round"/>
<path d="M314.13 148.69C314.13 148.69 315.83 144.42 312.31 144.44C309.71 144.46 306.33 145.59 305.67 151.06" stroke="#31170E" stroke-width="1.2848" stroke-miterlimit="10" stroke-linecap="round" stroke-linejoin="round"/>
<path d="M312.8 211.57C295.28 211.57 285.06 207.02 284.63 206.83C284.3 206.67 284.09 206.34 284.12 205.99C285.27 193.1 292.78 179.1 293.1 178.51C302.1 164.98 302.95 161.45 302.98 161.3C303.03 161.04 303.23 160.81 303.48 160.7C303.61 160.64 303.73 160.62 303.87 160.62C304.01 160.62 304.15 160.66 304.28 160.72C306.12 161.64 307.99 162.11 309.86 162.11C313.34 162.11 316.18 160.54 318.02 159.38C327.48 153.29 324.9 142.13 324.88 142.02C323.68 137.18 320.91 134.71 316.65 134.71C312.85 134.71 309.24 136.65 309.2 136.68C307.51 137.03 306.14 137.14 304.81 137.14C280.85 137.14 271.32 98.8602 269.86 92.2602C263.29 93.9102 255.54 94.7502 246.83 94.7502H246.82C221.67 94.7402 196.09 87.7502 195.83 87.6902C195.51 87.6002 195.27 87.3502 195.2 87.0402C190.69 65.2102 214.15 57.9902 214.38 57.9202L222.26 48.4002C234.67 34.9902 251.51 28.2002 272.33 28.2002C302.3 28.2002 329.55 42.0802 335.87 47.8602C342.8 54.2202 343.14 63.9702 343.13 66.1302C368.95 87.9602 343.1 149.02 333.34 172.06L331.71 175.93C324.17 194.04 338.89 206.84 339.04 206.97C339.29 207.19 339.38 207.51 339.31 207.81C339.23 208.12 338.98 208.35 338.66 208.43C329.9 210.51 321.2 211.57 312.8 211.57Z" fill="#E95561"/>
<path d="M272.31 29.0301C300.9 29.0301 328.48 42.2801 335.22 48.4501C342.69 55.2901 342.2 66.4901 342.2 66.4901C369.72 89.0301 338.71 156.69 330.85 175.6C322.99 194.5 338.42 207.59 338.42 207.59C328.75 209.91 320.14 210.73 312.79 210.73C295.27 210.73 285.01 206.07 285.01 206.07C286.16 193.19 293.89 178.9 293.89 178.9C303.19 164.92 303.86 161.48 303.86 161.48C305.99 162.55 308.01 162.97 309.87 162.97C313.44 162.97 316.43 161.42 318.52 160.08C328.6 153.59 325.75 141.84 325.75 141.84C324.18 135.53 320.3 133.86 316.64 133.86C312.55 133.86 308.74 135.93 308.74 135.93C307.39 136.18 306.07 136.29 304.8 136.29C279.58 136.29 270.54 91.1901 270.54 91.1901C263.22 93.1501 255.03 93.8901 246.81 93.8901C221.51 93.8901 196.08 86.86 196.08 86.86C191.66 65.53 214.64 58.7201 214.64 58.7201L222.94 48.9201C236.68 34.0601 254.69 29.0301 272.31 29.0301ZM272.31 27.3201C251.22 27.3201 234.15 34.2101 221.59 47.7801L213.56 57.2601C209.96 58.5301 190.03 66.5201 194.31 87.1801C194.44 87.8101 194.93 88.3101 195.57 88.4901C195.83 88.5601 221.54 95.58 246.81 95.58C255.22 95.58 262.72 94.8101 269.17 93.2901C271.2 101.94 281.07 137.98 304.81 137.98C306.21 137.98 307.64 137.85 309.08 137.59C309.28 137.56 309.47 137.5 309.64 137.4C309.67 137.38 313.11 135.55 316.64 135.55C320.48 135.55 322.9 137.73 324 142.21C324.1 142.63 326.41 152.92 317.5 158.65C315.77 159.77 313.08 161.24 309.86 161.24C308.13 161.24 306.4 160.81 304.7 159.95C304.43 159.82 304.15 159.76 303.85 159.76C303.58 159.76 303.31 159.81 303.06 159.93C302.55 160.17 302.17 160.62 302.08 161.16C302.06 161.26 301.12 164.84 292.37 177.98C291.96 178.71 284.39 192.86 283.21 205.92C283.15 206.62 283.55 207.29 284.23 207.61C284.67 207.8 295.06 212.43 312.79 212.43C321.27 212.43 330.03 211.36 338.86 209.24C339.5 209.08 340.01 208.61 340.16 208C340.32 207.39 340.12 206.74 339.62 206.32C339.02 205.82 325.23 193.76 332.53 176.23L334.15 172.36C343.94 149.26 369.81 88.1801 344 65.7301C343.97 62.8801 343.3 53.4901 336.46 47.2301C330.08 41.3601 302.54 27.3201 272.31 27.3201Z" fill="#31170E"/>
<path d="M335.22 65.52C335.22 65.52 335.66 54.97 329.98 51.21" stroke="#31170E" stroke-width="1.2848" stroke-miterlimit="10" stroke-linecap="round" stroke-linejoin="round"/>
<path d="M311.75 119.49C311.64 119.49 311.51 119.47 311.41 119.43C311.12 119.32 310.91 119.07 310.87 118.77C302.33 62.2701 240.46 57.8701 221.7 57.8701C217.35 57.8701 214.75 58.0901 214.73 58.0901C214.7 58.0901 214.68 58.0901 214.65 58.0901C214.4 58.0901 214.18 58.0001 214.01 57.8401C213.82 57.6601 213.72 57.4101 213.75 57.1601C215.18 42.9801 231.66 37.7101 231.83 37.6601C233.65 37.4401 235.35 37.3501 237.08 37.3501C244.89 37.3501 254.28 39.0401 265.78 42.5001C326.28 60.7401 319.49 113.34 319.42 113.87L312.31 119.33C312.14 119.43 311.94 119.49 311.75 119.49Z" fill="#FFD77F"/>
<path d="M237.07 38.2C246.69 38.2 257.45 40.89 265.51 43.31C325.99 61.54 318.52 113.75 318.52 113.75L311.75 118.63C303.19 61.95 242.58 57.01 221.69 57.01C217.28 57.01 214.64 57.23 214.64 57.23C216.02 43.44 232.1 38.46 232.1 38.46C233.71 38.28 235.37 38.2 237.07 38.2ZM237.07 36.49C235.25 36.49 233.5 36.58 231.88 36.77C231.76 36.79 231.64 36.81 231.54 36.84C230.84 37.06 214.33 42.34 212.85 57.07C212.8 57.58 212.99 58.08 213.36 58.44C213.7 58.76 214.16 58.94 214.64 58.94C214.69 58.94 214.74 58.94 214.79 58.93C214.81 58.93 217.42 58.72 221.69 58.72C245.5 58.72 301.77 64.59 309.97 118.88C310.06 119.48 310.48 119.99 311.07 120.21C311.29 120.3 311.52 120.34 311.75 120.34C312.14 120.34 312.52 120.23 312.84 119.99L319.61 115.1C319.98 114.83 320.23 114.42 320.3 113.97C320.37 113.43 327.26 60.13 266.05 41.67C254.46 38.19 244.98 36.49 237.07 36.49Z" fill="#31170E"/>
<path d="M200.8 89.0301C200.8 89.0301 198.11 71.65 215.8 62.55" stroke="#31170E" stroke-width="1.2848" stroke-miterlimit="10" stroke-linecap="round" stroke-linejoin="round"/>
<path d="M211.48 90.27C211.48 90.27 209.38 74.69 229.18 65.52" stroke="#31170E" stroke-width="1.2848" stroke-miterlimit="10" stroke-linecap="round" stroke-linejoin="round"/>
<path d="M222.94 92.9601C222.94 92.9601 225.15 73.1001 248.09 67.1001" stroke="#31170E" stroke-width="1.2848" stroke-miterlimit="10" stroke-linecap="round" stroke-linejoin="round"/>
<path d="M236.18 93.4901C236.18 93.4901 239.37 74.76 262.29 68.55" stroke="#31170E" stroke-width="1.2848" stroke-miterlimit="10" stroke-linecap="round" stroke-linejoin="round"/>
<path d="M249.25 94.61C249.25 94.61 252.97 77.86 274.45 74.55" stroke="#31170E" stroke-width="1.2848" stroke-miterlimit="10" stroke-linecap="round" stroke-linejoin="round"/>
<path d="M338.42 207.58C338.42 207.58 304 213.72 307.93 190.27" stroke="#31170E" stroke-width="1.2848" stroke-miterlimit="10" stroke-linecap="round" stroke-linejoin="round"/>
<path d="M301.82 210.72C301.82 210.72 288.06 207.24 291.55 197.07" stroke="#31170E" stroke-width="1.2848" stroke-miterlimit="10" stroke-linecap="round" stroke-linejoin="round"/>
<path d="M128.46 386.92C126.08 386.92 124.47 386.4 124.4 386.37H124.38C103.48 386.38 81.4099 298.13 80.4799 294.37C80.3799 293.97 80.6099 293.55 81.0099 293.4L95.5499 287.72C95.6599 287.68 95.7799 287.65 95.8899 287.65C96.2099 287.65 96.5199 287.82 96.6699 288.11L126.29 341.46C136.64 320.99 143.35 295.54 143.43 295.28C143.51 294.97 143.76 294.73 144.08 294.66C144.15 294.65 144.22 294.63 144.29 294.63C144.55 294.63 144.79 294.74 144.97 294.93L171.98 324.77C172.21 325.03 172.26 325.39 172.1 325.7C171.15 327.49 148.83 369.75 142.41 379.07C137.95 385.55 132.36 386.92 128.46 386.92Z" fill="#F7B897"/>
<path d="M95.89 288.51L126.33 343.33C137.28 322.31 144.29 295.48 144.29 295.48L171.3 325.32C171.3 325.32 148.13 369.22 141.67 378.61C137.37 384.86 131.99 386.08 128.46 386.08C126.2 386.08 124.69 385.58 124.69 385.58C103.95 385.58 81.35 294.19 81.35 294.19L95.89 288.51ZM95.89 286.82C95.66 286.82 95.43 286.86 95.21 286.95L80.67 292.63C79.86 292.95 79.42 293.77 79.62 294.58C81.96 304.03 102.98 386.55 124.41 387.27C125.04 387.44 126.51 387.77 128.46 387.77C132.58 387.77 138.48 386.34 143.17 379.53C149.61 370.17 171.96 327.87 172.9 326.08C173.22 325.47 173.13 324.74 172.66 324.23L145.65 294.4C145.31 294.02 144.81 293.81 144.3 293.81C144.17 293.81 144.03 293.82 143.89 293.85C143.24 294 142.73 294.47 142.57 295.08C142.51 295.33 136.13 319.48 126.26 339.58L97.47 287.74C97.15 287.15 96.53 286.82 95.89 286.82Z" fill="#31170E"/>
<path d="M154.79 307.07L141.6 304.73C141.2 306.02 140.76 307.41 140.28 308.88C140.25 308.99 140.21 309.09 140.18 309.19C139.71 310.64 139.2 312.16 138.65 313.75C138.6 313.9 138.55 314.04 138.5 314.19C138.27 314.87 138.03 315.57 137.78 316.27C137.74 316.4 137.69 316.52 137.65 316.65C137.36 317.48 137.07 318.31 136.75 319.16C136.72 319.24 136.68 319.33 136.65 319.42C136.37 320.16 136.1 320.93 135.8 321.69C135.73 321.88 135.66 322.06 135.58 322.25C135.26 323.1 134.93 323.95 134.61 324.81C140.12 331.96 149.41 343.11 158.34 349.47C165.17 336.92 171.3 325.31 171.3 325.31L154.79 307.07Z" fill="#E08F6C"/>
<path d="M365.95 462.84C361.91 462.84 358.46 461.5 358.32 461.44C358.02 461.32 357.82 461.07 357.78 460.77C348.66 397.33 317.97 280.35 317.66 279.18C317.6 278.92 317.66 278.66 317.82 278.46C317.99 278.26 318.25 278.14 318.53 278.14H349.87C350.24 278.14 350.58 278.36 350.7 278.69C370.83 331.24 376.06 456.25 376.11 457.5C376.12 457.67 376.07 457.84 375.98 457.98C373.89 461.15 370.43 462.84 365.95 462.84Z" fill="#F7B897"/>
<path d="M349.87 278.97C370.18 332.01 375.23 457.53 375.23 457.53C372.92 461.05 369.25 462 365.95 462C362.05 462 358.66 460.66 358.66 460.66C349.43 396.44 318.53 278.97 318.53 278.97H349.87ZM349.87 277.28H318.53C317.98 277.28 317.47 277.52 317.12 277.92C316.79 278.33 316.67 278.87 316.79 279.37C317.1 280.54 347.78 397.48 356.89 460.88C356.97 461.47 357.39 461.98 357.97 462.21C358.12 462.27 361.74 463.68 365.95 463.68C370.75 463.68 374.48 461.86 376.74 458.41C376.93 458.13 377.02 457.79 377.01 457.45C376.96 456.19 371.72 331.06 351.55 278.39C351.29 277.72 350.62 277.28 349.87 277.28Z" fill="#31170E"/>
<path d="M333.55 339.13C341.66 339 353.33 338.2 363.4 335.2C361.46 323.31 359.24 311.82 356.69 301.46L325.73 307.23C328.02 316.39 330.7 327.26 333.55 339.13Z" fill="#E08F6C"/>
<path d="M171.17 329.15C136.56 324.22 127.69 304.89 127.33 304.07C127.26 303.9 127.25 303.71 127.29 303.53C145.9 236.98 166.42 227.05 176.99 227.05C180.18 227.05 182.09 228.01 182.17 228.06C186.64 228.89 190.17 231.48 192.4 235.64C204.99 259.06 173.46 325.83 172.11 328.66C171.96 328.97 171.64 329.16 171.3 329.16C171.26 329.16 171.21 329.16 171.17 329.15Z" fill="#F29041"/>
<path d="M177 227.9C180.01 227.9 181.75 228.8 181.75 228.8C215.54 235.44 171.31 328.32 171.31 328.32C136.8 323.4 128.16 303.75 128.16 303.75C147.03 236.24 167.85 227.9 177 227.9ZM177 226.21C166.17 226.21 145.2 236.23 126.44 303.32C126.34 303.68 126.37 304.06 126.52 304.4C126.89 305.24 135.95 324.99 171.05 329.99C171.14 330 171.23 330.01 171.32 330.01C172.01 330.01 172.65 329.63 172.95 329.01C174.3 326.16 206 259.03 193.22 235.26C190.89 230.92 187.23 228.21 182.36 227.18C181.65 226.89 179.79 226.21 177 226.21Z" fill="#31170E"/>
<path d="M129.67 298.48C129.67 298.48 143.28 319.51 174.39 321.46" stroke="#31170E" stroke-width="1.8103" stroke-miterlimit="10" stroke-linecap="round" stroke-linejoin="round"/>
<path d="M300.66 715.09C286.64 715.09 276.99 711.18 276.59 711.02C276.31 710.91 276.12 710.66 276.07 710.38L240.4 506.59C232.33 548.54 224.18 702.67 224.1 704.28C224.08 704.64 223.84 704.94 223.49 705.04C220.03 706.11 216.09 706.65 211.78 706.65C198.91 706.65 186.98 701.94 186.48 701.73C186.16 701.6 185.96 701.31 185.94 700.99C184.03 659.08 167.21 426.54 167.04 424.2C167.02 423.97 167.1 423.75 167.26 423.58C167.42 423.41 167.65 423.31 167.89 423.3C167.89 423.3 325.23 417.06 325.24 417.06C325.62 417.06 325.96 417.28 326.08 417.63C334.68 440.76 325.48 699.27 325.09 710.27C325.08 710.61 324.85 710.91 324.51 711.03C316.92 713.72 308.9 715.09 300.66 715.09Z" fill="#5F9ABC"/>
<path d="M325.23 417.91C333.88 441.15 324.19 710.24 324.19 710.24C315.72 713.25 307.66 714.24 300.66 714.24C286.67 714.24 276.95 710.24 276.95 710.24L240.49 501.96C232 536.36 223.21 704.25 223.21 704.25C219.53 705.38 215.62 705.82 211.77 705.82C198.93 705.82 186.82 700.96 186.82 700.96C184.89 658.56 167.91 424.15 167.91 424.15L325.23 417.91ZM325.23 416.22C325.21 416.22 325.18 416.22 325.15 416.22L167.84 422.46C167.36 422.48 166.9 422.68 166.58 423.02C166.26 423.36 166.1 423.81 166.13 424.27C166.3 426.62 183.12 659.13 185.03 701.03C185.06 701.69 185.48 702.26 186.11 702.51C186.62 702.71 198.7 707.5 211.76 707.5C216.16 707.5 220.19 706.95 223.75 705.85C224.45 705.63 224.94 705.03 224.98 704.33C225.06 702.77 232.63 559.58 240.39 511.74L275.18 710.52C275.28 711.08 275.68 711.56 276.23 711.79C276.64 711.96 286.45 715.93 300.65 715.93C309 715.93 317.12 714.55 324.8 711.82C325.48 711.58 325.93 710.98 325.96 710.3C326.36 699.3 335.56 440.62 326.9 417.35C326.66 416.67 325.99 416.22 325.23 416.22Z" fill="#31170E"/>
<path d="M328.12 446.56C327.57 431.99 326.65 421.69 325.24 417.91L167.93 424.15C167.93 424.15 168.43 430.95 169.24 442.43C187.96 453.05 240.09 474.06 328.12 446.56Z" fill="#4282A0"/>
<path d="M227.09 499.3C227.09 499.3 225.04 474.03 231.4 441.89" stroke="#31170E" stroke-width="1.6247" stroke-miterlimit="10" stroke-linecap="round" stroke-linejoin="round"/>
<path d="M222.1 497.79C222.1 497.79 215.79 478.2 222.1 441.88" stroke="#31170E" stroke-width="1.6247" stroke-miterlimit="10" stroke-linecap="round" stroke-linejoin="round"/>
<path d="M183.48 432.34C183.48 432.34 171.6 465.41 171.31 482.72" stroke="#31170E" stroke-width="2.0019" stroke-miterlimit="10" stroke-linecap="round" stroke-linejoin="round"/>
<path d="M297.79 440.32C297.79 440.32 297.57 482.3 329.77 475.13" stroke="#31170E" stroke-width="1.8103" stroke-miterlimit="10" stroke-linecap="round" stroke-linejoin="round"/>
<path d="M292.39 440.32C292.39 440.32 288.71 486.39 328.83 480.46" stroke="#31170E" stroke-width="1.8103" stroke-miterlimit="10" stroke-linecap="round" stroke-linejoin="round"/>
<path d="M245.97 451.29C188.53 451.29 162.71 432.35 160.91 427.26C159.24 422.51 163.91 417.31 165.16 416.04C163.47 395.81 162.72 368.75 162.71 368.48C164.67 324.28 171.6 274.64 171.67 274.15C171.63 274.09 167.89 246.28 168.75 231.62C169.65 216.31 218.21 212.94 220.28 212.81C220.3 212.81 220.32 212.8 220.34 212.8C220.56 212.8 220.77 212.88 220.93 213.01C221.11 213.16 221.21 213.37 221.23 213.6C222.6 238.95 238.59 241.67 239.27 241.78C269.27 241.24 278.9 213.67 279 213.39C279.12 213.03 279.47 212.8 279.85 212.8C279.94 212.8 280.03 212.81 280.12 212.84C285.13 214.33 291.25 215.64 297.73 217.02C312.67 220.21 328.13 223.5 334.3 229.94C343.16 239.18 341.49 245.99 341.42 246.28C344.88 281.78 327.28 338.83 327.1 339.4C332.36 381.86 332.44 412.76 332.44 416.19C335.45 419.59 336.53 422.93 335.66 426.12C333.86 432.79 324.23 436.25 323.82 436.39C294.36 448.35 260.09 450.91 259.75 450.94C255.07 451.17 250.44 451.29 245.97 451.29Z" fill="#F29041"/>
<path d="M279.85 213.65C296.27 218.56 325 221.51 333.64 230.53C342.28 239.54 340.55 246.08 340.55 246.08C344.01 282.12 326.24 339.17 326.24 339.17C331.81 384.83 331.54 416.51 331.54 416.51C342.77 428.82 323.5 435.61 323.5 435.61C293.79 447.66 259.67 450.1 259.67 450.1C254.91 450.33 250.35 450.44 245.96 450.44C188.08 450.44 163.36 431.56 161.75 426.99C160.02 422.08 166.07 416.35 166.07 416.35C164.34 395.87 163.59 368.46 163.59 368.46C165.58 323.84 172.55 274.27 172.55 274.27C172.55 274.27 168.77 246.42 169.63 231.68C170.5 216.94 220.34 213.66 220.34 213.66C221.77 240.07 239.13 242.63 239.13 242.63C270.32 242.06 279.85 213.65 279.85 213.65ZM279.85 211.96C279.1 211.96 278.39 212.42 278.15 213.14C277.78 214.25 268.63 240.31 239.27 240.93C237.64 240.62 223.4 237.24 222.12 213.57C222.1 213.12 221.88 212.69 221.52 212.39C221.19 212.12 220.77 211.96 220.34 211.96C220.3 211.96 220.26 211.97 220.22 211.97C214.96 212.31 168.78 215.8 167.86 231.58C167.03 245.79 170.37 271.43 170.75 274.26C170.25 277.91 163.71 325.71 161.81 368.39C161.81 368.78 162.56 395.54 164.23 415.75C162.62 417.48 158.33 422.66 160.05 427.54C161.96 432.97 187.21 452.15 245.95 452.15C250.44 452.15 255.08 452.04 259.75 451.81C260.14 451.78 294.54 449.2 324.19 437.18C324.54 437.06 334.59 433.44 336.51 426.36C337.42 422.96 336.35 419.45 333.31 415.92C333.31 411.24 333.1 380.92 328.04 339.33C329.48 334.57 345.55 280.7 342.34 246.18C342.61 244.64 343.15 237.95 334.95 229.4C328.58 222.77 312.99 219.43 297.91 216.22C291.45 214.84 285.35 213.55 280.38 212.06C280.22 211.99 280.03 211.96 279.85 211.96Z" fill="#31170E"/>
<path d="M255.51 364.9C255.51 364.9 278.27 360.53 300.75 349.61" stroke="#31170E" stroke-width="1.8103" stroke-miterlimit="10" stroke-linecap="round" stroke-linejoin="round"/>
<path d="M260.12 367.91C260.12 367.91 301.33 364.36 316.59 355.62" stroke="#31170E" stroke-width="1.8103" stroke-miterlimit="10" stroke-linecap="round" stroke-linejoin="round"/>
<path d="M239.77 503.87C239.77 503.87 221.23 497.59 210.42 494.72" stroke="#31170E" stroke-width="1.8103" stroke-miterlimit="10" stroke-linecap="round" stroke-linejoin="round"/>
<path d="M225.78 499.3C225.78 499.3 214.28 690.6 215.95 705.63" stroke="#31170E" stroke-width="1.8103" stroke-miterlimit="10" stroke-linecap="round" stroke-linejoin="round"/>
<path d="M318.49 711.99C318.49 711.99 317.51 512.01 314.06 480.07" stroke="#31170E" stroke-width="1.8103" stroke-miterlimit="10" stroke-linecap="round" stroke-linejoin="round"/>
<path d="M239.77 441.89C239.77 441.89 290.32 438.48 319.88 420.87" stroke="#31170E" stroke-width="1.6247" stroke-miterlimit="10" stroke-linecap="round" stroke-linejoin="round"/>
<path d="M174.4 262.89L171.31 278.97" stroke="#31170E" stroke-width="1.6247" stroke-miterlimit="10" stroke-linecap="round" stroke-linejoin="round"/>
<path d="M320.63 329.99C320.24 329.99 319.88 329.74 319.78 329.39C318.85 326.41 296.99 256.25 312.76 234.63C315.56 230.79 319.41 228.68 324.2 228.35C324.16 228.34 325.39 227.93 327.32 227.93C336.18 227.93 357.87 235.94 367.73 310.13C367.75 310.31 367.71 310.5 367.61 310.65C367.13 311.42 355.62 329.46 320.64 329.97C320.63 329.99 320.63 329.99 320.63 329.99Z" fill="#F29041"/>
<path d="M327.32 228.79C335.31 228.79 356.97 235.96 366.84 310.25C366.84 310.25 355.51 328.64 320.62 329.15C320.62 329.15 289.85 231.52 324.27 229.2C324.28 229.19 325.41 228.79 327.32 228.79ZM327.32 227.1C325.64 227.1 324.45 227.38 323.93 227.54C318.95 227.93 314.95 230.16 312.02 234.16C296.01 256.11 317.97 326.64 318.92 329.63C319.14 330.34 319.84 330.84 320.63 330.84C320.64 330.84 320.65 330.84 320.66 330.84C356.14 330.32 367.9 311.88 368.39 311.1C368.59 310.78 368.67 310.41 368.62 310.04C358.66 235.18 336.43 227.1 327.32 227.1Z" fill="#31170E"/>
<path d="M366.09 304.83C366.09 304.83 349.64 323.96 318.53 321.95" stroke="#31170E" stroke-width="1.8103" stroke-miterlimit="10" stroke-linecap="round" stroke-linejoin="round"/>
<path d="M215.89 213.65C215.89 213.65 214.21 245.41 239.04 248.49C263.86 251.56 283.14 224.76 287.44 215.64" stroke="#31170E" stroke-width="1.8103" stroke-miterlimit="10" stroke-linecap="round" stroke-linejoin="round"/>
<path d="M124.69 338.89C124.69 338.89 129.24 345.49 130.97 352.2" stroke="#31170E" stroke-width="1.8103" stroke-miterlimit="10" stroke-linecap="round" stroke-linejoin="round"/>
<path d="M91.0399 289.51C91.0399 289.51 100.41 289.77 104.2 280.2C107.98 270.64 115 265.2 115 265.2C115 265.2 117.62 262.54 114.76 260.75C112.67 259.45 108.26 262.8 108.26 262.8C108.26 262.8 101.19 268.28 98.4699 267.97C95.9399 267.68 94.8799 265.06 94.8799 265.06C94.8799 265.06 94.7099 256.95 94.5999 249.17C94.5199 242.44 94.5499 237.37 92.4399 236.53C89.2599 235.26 87.9299 239.17 88.0699 241.69C88.1599 243.33 87.8999 259.49 87.8999 259.49C87.8999 259.49 87.6699 261.84 85.9799 261.06C84.2899 260.27 76.4199 236.68 74.8399 235.68C74.8399 235.68 73.2499 233.08 71.0699 234.51C69.6899 235.41 70.0899 236.93 70.3899 238.34C70.6799 239.76 78.1799 260.41 78.0299 261.6C77.8799 262.78 75.9399 263.22 74.4799 261.62C73.8199 260.9 63.0299 240.92 63.0299 240.92C63.0299 240.92 60.7599 238.79 59.3699 240.89C57.9699 243 58.7099 244.59 59.6499 246.18C60.5999 247.77 69.2799 265.08 69.2799 265.08C69.2799 265.08 70.7199 267.87 69.2199 267.94C67.7099 268.01 56.5399 258.74 54.9999 258.21C53.4699 257.67 52.7099 257.56 51.7899 258.36C51.3799 258.72 50.7799 260.13 51.9599 261.48C56.9599 267.28 69.0799 275.62 69.0799 275.62C69.0799 275.62 73.8799 295.64 84.9599 291.02" fill="#F7B897"/>
<path d="M91.0399 289.51C91.0399 289.51 100.41 289.77 104.2 280.2C107.98 270.64 115 265.2 115 265.2C115 265.2 117.62 262.54 114.76 260.75C112.67 259.45 108.26 262.8 108.26 262.8C108.26 262.8 101.19 268.28 98.4699 267.97C95.9399 267.68 94.8799 265.06 94.8799 265.06C94.8799 265.06 94.7099 256.95 94.5999 249.17C94.5199 242.44 94.5499 237.37 92.4399 236.53C89.2599 235.26 87.9299 239.17 88.0699 241.69C88.1599 243.33 87.8999 259.49 87.8999 259.49C87.8999 259.49 87.6699 261.84 85.9799 261.06C84.2899 260.27 76.4199 236.68 74.8399 235.68C74.8399 235.68 73.2499 233.08 71.0699 234.51C69.6899 235.41 70.0899 236.93 70.3899 238.34C70.6799 239.76 78.1799 260.41 78.0299 261.6C77.8799 262.78 75.9399 263.22 74.4799 261.62C73.8199 260.9 63.0299 240.92 63.0299 240.92C63.0299 240.92 60.7599 238.79 59.3699 240.89C57.9699 243 58.7099 244.59 59.6499 246.18C60.5999 247.77 69.2799 265.08 69.2799 265.08C69.2799 265.08 70.7199 267.87 69.2199 267.94C67.7099 268.01 56.5399 258.74 54.9999 258.21C53.4699 257.67 52.7099 257.56 51.7899 258.36C51.3799 258.72 50.7799 260.13 51.9599 261.48C56.9599 267.28 69.0799 275.62 69.0799 275.62C69.0799 275.62 73.8799 295.64 84.9599 291.02" stroke="#31170E" stroke-width="1.8103" stroke-miterlimit="10" stroke-linecap="round" stroke-linejoin="round"/>
<path d="M87.15 287.25C87.15 287.25 81.83 282.21 83.95 275.88" stroke="#31170E" stroke-width="1.8103" stroke-miterlimit="10" stroke-linecap="round" stroke-linejoin="round"/>
<path d="M374.57 448.79C374.57 448.79 385.13 452.52 383.18 474.84C383.18 474.84 381.02 493.27 376.35 493.88C376.35 493.88 374.1 494.5 372.8 492.24C372.8 492.24 370.21 500.06 365.89 497.79C365.89 497.79 362.87 503.3 358.54 502.89C354.22 502.48 355.95 497.79 355.95 497.79C355.95 497.79 352.71 501.05 349.46 501.25C346.22 501.45 346.01 496.33 349.46 490.6C352.92 484.87 354.66 468.28 354.87 466.64C354.87 466.64 348.93 476.28 343.32 476.88C337.7 477.48 346.14 465.88 347.64 461.99C349.69 456.61 354.44 449 357.47 447.19" fill="#F7B897"/>
<path d="M374.57 448.79C374.57 448.79 385.13 452.52 383.18 474.84C383.18 474.84 381.02 493.27 376.35 493.88C376.35 493.88 374.1 494.5 372.8 492.24C372.8 492.24 370.21 500.06 365.89 497.79C365.89 497.79 362.87 503.3 358.54 502.89C354.22 502.48 355.95 497.79 355.95 497.79C355.95 497.79 352.71 501.05 349.46 501.25C346.22 501.45 346.01 496.33 349.46 490.6C352.92 484.87 354.66 468.28 354.87 466.64C354.87 466.64 348.93 476.28 343.32 476.88C337.7 477.48 346.14 465.88 347.64 461.99C349.69 456.61 354.44 449 357.47 447.19" stroke="#31170E" stroke-width="1.8103" stroke-miterlimit="10" stroke-linecap="round" stroke-linejoin="round"/>
<path d="M377.45 474.84C377.45 474.84 377.13 485.08 371.69 494.72L377.45 474.84Z" fill="#F7B897"/>
<path d="M377.45 474.84C377.45 474.84 377.13 485.08 371.69 494.72" stroke="#31170E" stroke-width="1.8103" stroke-miterlimit="10" stroke-linecap="round" stroke-linejoin="round"/>
<path d="M365.89 497.79C365.89 497.79 370.7 488.36 371.53 474.84L365.89 497.79Z" fill="#F7B897"/>
<path d="M365.89 497.79C365.89 497.79 370.7 488.36 371.53 474.84" stroke="#31170E" stroke-width="1.8103" stroke-miterlimit="10" stroke-linecap="round" stroke-linejoin="round"/>
<path d="M355.95 497.79C355.95 497.79 362.8 490.6 363.95 474.84L355.95 497.79Z" fill="#F7B897"/>
<path d="M355.95 497.79C355.95 497.79 362.8 490.6 363.95 474.84" stroke="#31170E" stroke-width="1.8103" stroke-miterlimit="10" stroke-linecap="round" stroke-linejoin="round"/>
</g>
</svg>
