<svg width="491" height="592" viewBox="0 0 491 592" fill="none" xmlns="http://www.w3.org/2000/svg">
<path d="M120.867 592C120.867 592 79.7842 592.332 44.6702 556.965C9.55618 521.598 -9.66769 474.82 4.9149 426.123C19.4875 377.435 55.939 357.258 43.3427 301.272C30.7563 245.286 31.4151 160.146 134.122 120.627C236.829 81.1079 326.94 102.913 381.936 147.73C436.933 192.557 419.705 248.493 432.96 283.599C446.215 318.694 489.554 368.689 487.957 424.484C485.302 517.245 419.705 591.99 361.395 591.99C303.084 591.99 120.867 592 120.867 592Z" fill="#EEFAFF"/>
<mask id="mask0_18_21" style="mask-type:luminance" maskUnits="userSpaceOnUse" x="32" y="0" width="459" height="593">
<path d="M122.43 592.03C122.43 592.03 78.18 595.07 43 552C7.81996 508.93 69.39 486.28 84 427C98.6 367.72 135.05 321.17 122.43 253C109.82 184.83 32.81 66.2098 135.71 18.0898C238.61 -30.0302 301.9 27.4199 357 81.9999C412.1 136.58 370.71 177.27 383.99 220C397.27 262.74 491.81 320.14 490.21 388.08C487.55 501.03 421.83 592.04 363.41 592.04C304.99 592.04 122.43 592.03 122.43 592.03Z" fill="white"/>
</mask>
<g mask="url(#mask0_18_21)">
<path d="M154.25 140.22C148.83 138.97 144.87 136.1 142.5 131.7C136.96 121.46 141.69 106.27 142.72 103.25C138.56 98.4898 140.36 93.2698 141.73 90.6798C139.47 90.9498 137.35 91.0898 135.41 91.0898C120.26 91.0898 119.8 82.9598 119.79 82.6098C117.15 70.2998 152.52 50.3298 154.02 49.4798C173.06 38.2698 190.67 34.2798 200.78 34.2798C201.51 34.2798 202.2 34.2998 202.85 34.3398L203.74 34.3698C206.6 34.3698 209.51 33.5698 213.19 32.5498C218.81 30.9998 225.8 29.0698 236.25 29.0698C239.57 29.0698 243.09 29.2698 246.71 29.6698C268.29 32.0498 275.82 42.6698 277.08 44.7098C281.76 46.1798 284.97 48.7498 286.63 52.3498C289.64 58.9198 286.32 66.4598 286.18 66.7798C286.06 67.0698 285.79 67.2598 285.47 67.2898C200.32 76.4798 155.61 139.23 155.17 139.87C155.01 140.1 154.73 140.24 154.45 140.24C154.38 140.24 154.31 140.23 154.25 140.22Z" fill="#596372"/>
<path d="M236.25 29.9497C239.38 29.9497 242.82 30.1197 246.61 30.5397C269.81 33.0897 276.49 45.4397 276.49 45.4397C292.61 50.2597 285.38 66.4197 285.38 66.4197C198.85 75.7597 154.45 139.36 154.45 139.36C132.24 134.23 143.73 103.05 143.73 103.05C137.77 96.8097 143.45 89.5697 143.45 89.5697C140.37 90.0197 137.71 90.2097 135.41 90.2097C120.94 90.2097 120.66 82.5697 120.66 82.5697C118.11 70.6097 154.45 50.2397 154.45 50.2397C173.77 38.8797 191.11 35.1597 200.79 35.1597C201.5 35.1597 202.18 35.1797 202.81 35.2197C203.12 35.2397 203.43 35.2497 203.75 35.2497C211.23 35.2497 219.1 29.9497 236.25 29.9497ZM236.25 28.1897C225.69 28.1897 218.63 30.1397 212.96 31.7097C209.35 32.7097 206.49 33.4997 203.75 33.4997C203.47 33.4997 203.2 33.4897 202.92 33.4697C202.26 33.4297 201.55 33.4097 200.79 33.4097C190.56 33.4097 172.78 37.4297 153.56 48.7397C149.75 50.8697 116.2 70.0797 118.95 82.9497C118.93 83.0297 119.43 91.9697 135.41 91.9697C136.92 91.9697 138.54 91.8897 140.24 91.7297C138.94 94.9697 138.5 99.4397 141.75 103.44C140.45 107.41 136.29 122.03 141.73 132.12C144.24 136.75 148.39 139.76 154.06 141.07C154.19 141.1 154.33 141.12 154.46 141.12C155.03 141.12 155.56 140.84 155.9 140.37C156.34 139.74 200.89 77.2997 285.58 68.1597C286.2 68.0897 286.74 67.6997 286.99 67.1297C287.14 66.7997 290.6 58.8997 287.43 51.9797C285.71 48.2197 282.42 45.5297 277.65 43.9597C275.88 41.2597 267.89 31.1097 246.82 28.7897C243.15 28.3897 239.6 28.1897 236.25 28.1897Z" fill="#31170E"/>
<path d="M248.02 290.12C243.28 290.12 238.53 283.93 233.02 276.76C227.76 269.91 221.8 262.15 215.19 259.18C214.88 259.04 214.68 258.73 214.68 258.38C214.68 258.07 214.68 226.61 201.36 207.2C198.83 203.51 196.37 198.43 194.21 192.47C193.45 193.15 192.61 193.68 191.7 194.09C190.45 194.64 189.11 194.91 187.72 194.91C182.45 194.91 177.17 190.94 174.58 185.04C171.22 177.39 173.43 168.98 179.51 166.31C180.75 165.76 182.08 165.48 183.47 165.48C184.96 165.48 186.5 165.81 187.98 166.43C186.23 152.47 185.72 127.94 199.12 109.13C207.57 97.2497 223.72 90.1597 242.32 90.1597C263.31 90.1597 287.64 99.9397 291.51 121.4C291.54 121.69 293.31 142.1 301.55 166.68C304.25 174.73 306.67 192.46 298.66 207.81C292.84 218.96 282.63 226.82 268.31 231.17C268.54 233.63 269.61 242.67 273.9 258.1C273.54 259.85 264.94 289.79 248.13 290.1C248.11 290.12 248.02 290.12 248.02 290.12Z" fill="#F7B897"/>
<path d="M242.3 91.0495C264.71 91.0495 287.06 101.75 290.62 121.57C290.62 121.57 292.32 142 300.7 166.98C304.46 178.21 309.92 218.07 267.36 230.55C267.36 230.55 267.89 239.81 273.03 258.36C273.03 258.36 264.45 288.94 248.1 289.26C248.07 289.26 248.04 289.26 248.01 289.26C239.36 289.26 229.08 264.47 215.55 258.4C215.55 258.4 215.71 226.58 202.08 206.72C199.51 202.96 196.85 197.46 194.56 190.88C193.68 191.9 192.6 192.74 191.34 193.3C190.18 193.81 188.96 194.05 187.72 194.05C182.93 194.05 177.9 190.44 175.38 184.71C172.2 177.48 174.21 169.62 179.86 167.13C181.01 166.62 182.23 166.39 183.47 166.39C185.36 166.39 187.28 166.95 189.07 167.97C186.34 148.47 188.02 126.25 199.83 109.67C208.79 97.0296 225.57 91.0495 242.3 91.0495ZM242.3 89.2896C223.42 89.2896 207 96.5195 198.38 108.63C185.26 127.06 185.31 150.85 186.93 165.14C185.78 164.8 184.61 164.62 183.46 164.62C181.95 164.62 180.5 164.92 179.14 165.51C172.61 168.39 170.2 177.3 173.75 185.4C176.48 191.61 182.08 195.79 187.7 195.79C189.22 195.79 190.67 195.49 192.03 194.89C192.64 194.62 193.23 194.29 193.78 193.91C195.87 199.45 198.22 204.17 200.62 207.7C213.79 226.89 213.79 258.07 213.78 258.38C213.78 259.07 214.18 259.7 214.81 259.99C221.22 262.87 227.11 270.53 232.31 277.3C237.95 284.65 242.84 291.01 248 291.01C265.57 290.68 274.35 260.13 274.71 258.83C274.8 258.52 274.8 258.2 274.72 257.89C270.79 243.74 269.58 235 269.23 231.82C283.42 227.35 293.57 219.43 299.41 208.24C307.56 192.63 305.1 174.6 302.36 166.42C294.16 141.96 292.39 121.63 292.37 121.43C288.39 99.2895 263.63 89.2896 242.3 89.2896Z" fill="#31170E"/>
<path opacity="0.6" d="M180.78 182.73C182.93 187.13 187.06 189.54 190 188.11C192.94 186.68 193.6 181.94 191.45 177.54C189.31 173.14 185.18 170.73 182.24 172.16C179.3 173.59 178.64 178.33 180.78 182.73Z" fill="#D26E49"/>
<path opacity="0.6" d="M232.59 223.88C244.88 231 259.06 231.73 267.4 231.1C267.57 232.97 268.3 239.76 271.22 251.49C240.68 249.56 232.59 223.88 232.59 223.88Z" fill="#E18964"/>
<path d="M271.4 230.13C271.4 230.13 265.36 232.82 256.15 230.98" stroke="#31170E" stroke-width="1.2793" stroke-miterlimit="10" stroke-linecap="round" stroke-linejoin="round"/>
<path d="M248.87 229.63C248.87 229.63 235.03 228.99 226.31 218.13" stroke="#31170E" stroke-width="1.2793" stroke-miterlimit="10" stroke-linecap="round" stroke-linejoin="round"/>
<path d="M260.82 194.879C259.65 194.879 258.51 194.719 257.51 194.409C247.66 191.329 247.55 180.559 247.55 180.459C247.55 180.209 247.69 179.979 247.92 179.879C248 179.839 248.1 179.829 248.18 179.829C248.34 179.829 248.49 179.879 248.6 179.989C256.03 186.579 267.03 187.099 270.23 187.099C270.94 187.099 271.38 187.069 271.39 187.069C271.6 187.069 271.81 187.179 271.93 187.359C272.06 187.549 272.07 187.789 271.96 187.999C268.71 194.199 263.09 194.879 260.82 194.879Z" fill="#FFF7F3"/>
<path d="M248.18 180.449C255.71 187.139 266.66 187.709 270.23 187.709C270.97 187.709 271.39 187.679 271.39 187.679C268.81 192.619 264.38 194.229 260.81 194.229C259.66 194.229 258.58 194.059 257.7 193.779C248.18 190.819 248.18 180.449 248.18 180.449ZM248.18 179.169C248 179.169 247.83 179.209 247.65 179.279C247.19 179.489 246.9 179.949 246.9 180.449C246.9 180.559 247.02 191.789 257.32 195.009C258.38 195.339 259.58 195.509 260.81 195.509C263.2 195.509 269.11 194.809 272.52 188.289C272.74 187.879 272.72 187.389 272.46 186.999C272.23 186.639 271.82 186.419 271.39 186.419C271.36 186.419 271.34 186.419 271.31 186.429C271.29 186.429 270.9 186.449 270.22 186.449C267.08 186.449 256.27 185.949 249.02 179.509C248.79 179.279 248.49 179.169 248.18 179.169Z" fill="#31170E"/>
<path d="M221.09 174.03C221.09 180.49 226.33 185.73 232.8 185.73C239.26 185.73 244.5 180.49 244.5 174.03C244.5 167.56 239.26 162.32 232.8 162.32C226.33 162.32 221.09 167.56 221.09 174.03Z" fill="#ED777A"/>
<path d="M297.08 184.579C290.62 184.579 285.38 179.339 285.38 172.879C285.38 166.409 290.62 161.169 297.08 161.169C297.7 161.169 298.3 161.229 298.89 161.319C299.46 163.179 300.05 165.059 300.7 166.979C301.8 170.279 303.05 176.039 303.19 182.849C301.41 183.939 299.33 184.579 297.08 184.579Z" fill="#ED777A"/>
<path d="M270.26 174.6C270.26 174.6 278.99 173.11 276.01 166.72C276.01 166.72 268.77 156.5 268.77 150.76C268.77 142.67 272.6 136.5 272.6 136.5" stroke="#31170E" stroke-width="1.2793" stroke-miterlimit="10" stroke-linecap="round" stroke-linejoin="round"/>
<path d="M277.5 132.989C277.5 132.989 281.97 126.389 290.27 131.289" stroke="#31170E" stroke-width="1.2793" stroke-miterlimit="10" stroke-linecap="round" stroke-linejoin="round"/>
<path d="M238.42 135.589C238.42 135.589 241.96 128.449 250.85 132.169" stroke="#31170E" stroke-width="1.2793" stroke-miterlimit="10" stroke-linecap="round" stroke-linejoin="round"/>
<path d="M278.56 155.549C278.56 158.509 279.57 160.919 280.8 160.919C282.03 160.919 283.04 158.509 283.04 155.549C283.04 152.589 282.04 150.179 280.8 150.179C279.56 150.179 278.56 152.579 278.56 155.549Z" fill="#31170E"/>
<path d="M248.61 155.549C248.61 158.509 249.61 160.919 250.85 160.919C252.08 160.919 253.08 158.509 253.08 155.549C253.08 152.589 252.08 150.179 250.85 150.179C249.6 150.179 248.61 152.579 248.61 155.549Z" fill="#31170E"/>
<path d="M188.74 188.74C191.91 187.53 193.02 182.83 191.26 178.25C189.5 173.66 185.5 170.94 182.35 172.16C180.48 172.88 179.32 174.84 179.06 177.26" stroke="#31170E" stroke-width="1.3184" stroke-miterlimit="10" stroke-linecap="round" stroke-linejoin="round"/>
<path d="M183.79 181.09C183.79 181.09 182.14 176.71 185.57 176.73C188.11 176.74 191.39 177.89 192.04 183.54" stroke="#31170E" stroke-width="1.3184" stroke-miterlimit="10" stroke-linecap="round" stroke-linejoin="round"/>
<path d="M196.25 177.609C195.82 177.609 195.45 177.3 195.38 176.87C195.32 176.49 193.68 167.39 184.42 167.39C183.07 167.39 181.61 167.58 180.05 167.97C177.27 168.66 174.65 169.01 172.28 169.01C167.19 169.01 163.27 167.41 160.9 164.39C158.29 161.05 157.7 156.06 159.21 149.97C165.54 124.37 192.59 90.0595 285.47 71.9995C287.76 71.5595 289.33 71.2595 290.04 71.0595L291.29 70.7095C294.58 69.7895 297.43 68.9995 299.97 68.9995C303.7 68.9995 306.17 70.7595 307.72 74.5495C310.44 81.1295 309.33 90.4195 305.54 95.7095C307.34 95.4295 310.07 95.0995 313.67 94.8695C313.69 94.8695 313.7 94.8695 313.7 94.8695C316.05 94.8695 317.47 96.0695 317.97 98.1495C319.07 102.84 315.34 111.47 309.86 114.2C305.03 116.61 294.97 121.64 276.75 121.64C269.41 121.64 261.38 120.81 252.89 119.17C252.75 119.13 244.24 116.93 235.59 116.93C225.75 116.93 219.81 119.64 217.92 124.98C216.67 128.53 215.85 131.19 215.22 133.24C213.31 139.43 212.99 140.499 207.33 144.299C207.34 146.639 206.99 156.44 201.08 161.46C201.74 163.66 203.77 171.35 201.03 175.25C199.97 176.77 198.36 177.55 196.24 177.6C196.26 177.61 196.25 177.609 196.25 177.609Z" fill="#ED7766"/>
<path d="M299.98 69.8696C303 69.8696 305.37 71.0896 306.93 74.8796C309.92 82.1196 308.01 92.7596 303.22 97.0196C303.22 97.0196 306.93 96.1596 313.74 95.7396C313.84 95.7296 313.94 95.7296 314.04 95.7296C320.45 95.7296 316.62 109.85 309.49 113.41C304.26 116.03 294.34 120.75 276.77 120.75C270.05 120.75 262.22 120.06 253.09 118.3C253.09 118.3 244.49 116.04 235.61 116.04C227.68 116.04 219.52 117.84 217.11 124.68C212 139.16 214.14 138.72 206.47 143.84C206.47 143.84 206.9 155.93 200.08 161.16C200.08 161.16 205.3 176.54 196.25 176.72C196.25 176.72 194.58 166.5 184.43 166.5C183.07 166.5 181.54 166.69 179.85 167.11C177.13 167.79 174.58 168.13 172.28 168.13C162.56 168.13 157.12 162.09 160.06 150.18C175.23 88.8596 282.56 74.0296 290.28 71.8996C293.95 70.8896 297.23 69.8696 299.98 69.8696ZM299.98 68.1196C297.31 68.1196 294.27 68.9596 291.06 69.8596L289.81 70.2096C289.11 70.3996 287.55 70.6996 285.31 71.1396C191.97 89.2896 164.75 123.92 158.36 149.76C156.78 156.13 157.43 161.37 160.21 164.94C162.75 168.18 166.92 169.9 172.28 169.9C174.74 169.9 177.42 169.54 180.27 168.82C181.75 168.46 183.15 168.27 184.42 168.27C192.98 168.27 194.46 176.66 194.51 177.02C194.65 177.87 195.38 178.49 196.24 178.49C196.25 178.49 196.26 178.49 196.27 178.49C199.28 178.43 200.91 176.98 201.76 175.79C204.55 171.8 202.91 164.64 202.09 161.76C207.53 156.71 208.16 147.78 208.22 144.79C213.54 141.17 214.09 139.95 216.07 133.51C216.7 131.46 217.52 128.82 218.76 125.28C220.51 120.32 226.18 117.81 235.61 117.81C244.16 117.81 252.55 119.98 252.64 120C261.28 121.68 269.36 122.52 276.77 122.52C295.2 122.52 305.38 117.43 310.28 114.99C316.23 112.01 320.03 102.98 318.85 97.9496C318.26 95.4596 316.46 93.9796 314.05 93.9796C314.01 93.9796 313.69 93.9896 313.64 93.9896C311.09 94.1496 308.97 94.3696 307.29 94.5796C310.4 88.9196 311.12 80.4096 308.55 74.2096C306.86 70.1096 304.05 68.1196 299.98 68.1196Z" fill="#31170E"/>
<path d="M240.73 116.83C240.73 116.83 265.42 116.83 262.65 102.13" stroke="#31170E" stroke-width="1.3184" stroke-miterlimit="10" stroke-linecap="round" stroke-linejoin="round"/>
<path d="M268.77 121.5C268.77 121.5 287.87 121.71 290.27 109.36" stroke="#31170E" stroke-width="1.3184" stroke-miterlimit="10" stroke-linecap="round" stroke-linejoin="round"/>
<path d="M360.75 418.61C358.31 418.61 353.28 417.63 347.16 411.08C339.2 402.56 318.68 357.37 317.81 355.45C317.67 355.14 317.72 354.77 317.94 354.51L344.55 323.5C344.72 323.3 344.96 323.19 345.22 323.19C345.29 323.19 345.36 323.2 345.43 323.22C345.74 323.29 345.99 323.54 346.08 323.86C346.14 324.13 352.76 350.6 362.95 371.87L392.12 316.41C392.28 316.12 392.58 315.94 392.9 315.94C393.01 315.94 393.12 315.97 393.23 316L407.54 321.91C407.96 322.08 408.17 322.52 408.06 322.94C407.03 326.84 382.59 418.45 361.73 418.52C361.78 418.54 361.39 418.61 360.75 418.61Z" fill="#F7B897"/>
<path d="M392.91 316.84L407.22 322.74C407.22 322.74 382.15 417.66 361.72 417.66C361.72 417.66 361.38 417.74 360.75 417.74C358.76 417.74 353.86 416.96 347.8 410.48C339.85 401.96 318.61 355.09 318.61 355.09L345.22 324.08C345.22 324.08 352.14 351.97 362.91 373.82L392.91 316.84ZM392.91 315.08C392.28 315.08 391.66 315.42 391.36 316.02L363 369.91C353.28 349.01 347.01 323.92 346.94 323.66C346.78 323.02 346.28 322.52 345.64 322.38C345.51 322.35 345.37 322.33 345.24 322.33C344.74 322.33 344.25 322.55 343.91 322.94L317.3 353.96C316.85 354.47 316.75 355.2 317.03 355.82C317.9 357.75 338.49 403.06 346.54 411.68C352.89 418.49 358.18 419.51 360.77 419.51C361.29 419.51 361.67 419.46 361.9 419.43C383.03 418.99 406.34 333.02 408.93 323.2C409.16 322.35 408.72 321.46 407.91 321.13L393.6 315.23C393.36 315.12 393.13 315.08 392.91 315.08Z" fill="#31170E"/>
<path d="M354.75 354.57C349.16 362.25 339.57 374.37 330.51 380.85C324.04 367.37 318.61 355.09 318.61 355.09L334.87 336.13L347.86 333.69C349.51 339.26 351.85 346.69 354.75 354.57Z" fill="#E08F6C"/>
<path d="M126.89 498.04C122.49 498.04 119.07 496.29 117.01 492.98C116.93 491.18 122.09 361.24 141.91 306.62C142.03 306.28 142.37 306.04 142.74 306.04H173.62C173.89 306.04 174.15 306.16 174.31 306.38C174.48 306.59 174.53 306.87 174.47 307.13C174.17 308.35 143.95 429.94 134.96 495.9C134.91 496.2 134.72 496.47 134.43 496.59C134.27 496.65 130.87 498.04 126.89 498.04Z" fill="#F7B897"/>
<path d="M173.61 306.92C173.61 306.92 143.18 429.02 134.08 495.77C134.08 495.77 130.74 497.16 126.89 497.16C123.64 497.16 120.03 496.17 117.76 492.51C117.76 492.51 122.72 362.04 142.73 306.91H173.61M173.61 305.17H142.73C141.99 305.17 141.33 305.63 141.08 306.32C121.2 361.07 116.05 491.14 116 492.45C115.98 492.8 116.08 493.15 116.27 493.44C118.5 497.03 122.17 498.92 126.89 498.92C131.04 498.92 134.6 497.46 134.75 497.4C135.33 497.17 135.73 496.63 135.82 496.02C144.8 430.13 175.01 308.56 175.32 307.35C175.45 306.83 175.33 306.27 175 305.84C174.66 305.42 174.15 305.17 173.61 305.17Z" fill="#31170E"/>
<path d="M158.81 369.46C150.81 369.33 139.32 368.5 129.41 365.37C131.31 353.01 133.51 341.08 136.02 330.3L166.51 336.31C164.25 345.81 161.62 357.11 158.81 369.46Z" fill="#E08F6C"/>
<path d="M318.62 359.1C318.27 359.1 317.96 358.9 317.82 358.58C316.49 355.64 285.44 286.22 297.83 261.88C300.03 257.55 303.5 254.87 308.14 253.91C308.08 253.91 309.93 252.95 313.01 252.95C323.42 252.95 343.64 263.28 361.97 332.45C361.57 333.86 352.83 353.96 318.75 359.08C318.71 359.1 318.66 359.1 318.62 359.1Z" fill="#2959A3"/>
<path d="M313.01 253.82C322.02 253.82 342.53 262.5 361.12 332.67C361.12 332.67 352.6 353.1 318.62 358.21C318.62 358.21 275.06 261.67 308.33 254.76C308.33 254.77 310.05 253.82 313.01 253.82ZM313.01 252.08C310.26 252.08 308.42 252.79 307.75 253.1C302.95 254.15 299.35 256.97 297.05 261.48C284.47 286.19 315.68 355.98 317.02 358.94C317.3 359.57 317.94 359.97 318.62 359.97C318.7 359.97 318.79 359.96 318.87 359.95C353.45 354.75 362.37 334.22 362.74 333.34C362.89 332.98 362.92 332.59 362.81 332.22C344.33 262.48 323.69 252.08 313.01 252.08Z" fill="#31170E"/>
<path d="M359.63 327.2C359.63 327.2 346.22 349.06 315.57 351.08" stroke="#31170E" stroke-width="1.3184" stroke-miterlimit="10" stroke-linecap="round" stroke-linejoin="round"/>
<path d="M191.21 760.25C183.09 760.25 175.2 758.84 167.72 756.04C167.4 755.92 167.16 755.6 167.16 755.24C166.76 743.82 157.71 475.09 166.19 451.05C166.31 450.69 166.64 450.46 167.01 450.46C167.03 450.46 322 456.94 322 456.94C322.24 456.95 322.46 457.05 322.62 457.23C322.78 457.4 322.86 457.64 322.84 457.87C322.67 460.3 306.1 702.03 304.22 745.59C304.21 745.93 304 746.22 303.68 746.35C303.19 746.56 291.45 751.47 278.76 751.47C274.52 751.47 270.63 750.91 267.22 749.8C266.88 749.69 266.63 749.37 266.62 749.01C266.53 747.33 258.51 587.12 250.56 543.52L215.42 755.35C215.37 755.64 215.18 755.9 214.91 756.01C214.5 756.2 205.01 760.25 191.21 760.25Z" fill="#5F9ABC"/>
<path d="M167 451.35L321.96 457.83C321.96 457.83 305.24 701.5 303.34 745.58C303.34 745.58 291.41 750.62 278.76 750.62C274.96 750.62 271.11 750.17 267.49 748.99C267.49 748.99 258.83 574.48 250.47 538.72L214.56 755.23C214.56 755.23 204.99 759.39 191.21 759.39C184.32 759.39 176.37 758.35 168.04 755.23C168.03 755.22 158.49 475.5 167 451.35ZM167 449.59C166.26 449.59 165.59 450.06 165.35 450.77C156.82 474.96 165.89 743.85 166.27 755.29C166.3 756 166.75 756.62 167.41 756.87C174.98 759.7 182.98 761.14 191.2 761.14C205.19 761.14 214.84 757.01 215.25 756.83C215.79 756.59 216.18 756.09 216.28 755.5L250.56 548.87C258.2 598.61 265.65 747.45 265.73 749.07C265.77 749.8 266.25 750.43 266.94 750.65C270.44 751.79 274.42 752.37 278.75 752.37C291.61 752.37 303.51 747.4 304.01 747.19C304.63 746.92 305.05 746.33 305.08 745.65C306.97 702.1 323.53 460.38 323.7 457.95C323.73 457.48 323.57 457.01 323.26 456.66C322.94 456.31 322.5 456.1 322.02 456.08L167.06 449.6C167.05 449.59 167.03 449.59 167 449.59Z" fill="#31170E"/>
<path d="M164.16 481.12C164.71 465.96 165.61 455.26 167 451.34L321.96 457.82C321.96 457.82 321.47 464.9 320.65 476.83C302.22 487.87 250.86 509.71 164.16 481.12Z" fill="#4282A0"/>
<path d="M263.66 535.94C263.66 535.94 265.68 509.68 259.41 476.26" stroke="#31170E" stroke-width="1.1832" stroke-miterlimit="10" stroke-linecap="round" stroke-linejoin="round"/>
<path d="M268.59 534.38C268.59 534.38 274.81 514.02 268.59 476.26" stroke="#31170E" stroke-width="1.1832" stroke-miterlimit="10" stroke-linecap="round" stroke-linejoin="round"/>
<path d="M306.63 466.35C306.63 466.35 318.33 500.72 318.63 518.71" stroke="#31170E" stroke-width="1.4579" stroke-miterlimit="10" stroke-linecap="round" stroke-linejoin="round"/>
<path d="M194.04 474.65C194.04 474.65 194.25 518.28 162.53 510.83" stroke="#31170E" stroke-width="1.3184" stroke-miterlimit="10" stroke-linecap="round" stroke-linejoin="round"/>
<path d="M199.35 474.65C199.35 474.65 202.97 522.54 163.46 516.37" stroke="#31170E" stroke-width="1.3184" stroke-miterlimit="10" stroke-linecap="round" stroke-linejoin="round"/>
<path d="M245.08 486.04C240.75 486.04 236.24 485.93 231.53 485.69C231.18 485.66 197.43 482.99 168.36 470.55C167.99 470.41 158.5 466.81 156.73 459.89C155.86 456.48 157 452.93 160.11 449.31V449.32C159.9 449.32 159.71 416.19 165.13 369.39C164.98 369.15 147.64 309.85 151.03 272.65C150.97 272.64 149.33 265.57 158.06 255.96C164.14 249.27 179.36 245.84 194.08 242.52C200.46 241.08 206.49 239.72 211.43 238.17C211.52 238.13 211.61 238.12 211.7 238.12C212.07 238.12 212.41 238.36 212.54 238.73C212.63 239.03 222.12 267.68 251.82 268.23C252.33 268.13 268.09 265.31 269.43 238.95C269.45 238.72 269.55 238.5 269.72 238.34C269.88 238.19 270.09 238.11 270.31 238.11C270.33 238.11 270.35 238.12 270.37 238.12C272.4 238.27 320.25 241.76 321.13 257.68C321.98 272.91 318.3 301.82 318.26 302.11C318.33 302.4 325.14 353.99 327.09 399.87C327.08 400.21 326.33 428.34 324.67 449.37C325.9 450.7 330.5 456.1 328.86 461.04C327.09 466.35 301.66 486.04 245.08 486.04Z" fill="#2959A3"/>
<path d="M270.31 239.02C270.31 239.02 319.41 242.42 320.26 257.75C321.11 273.08 317.39 302.02 317.39 302.02C317.39 302.02 324.24 353.56 326.21 399.93C326.21 399.93 325.47 428.42 323.77 449.72C323.77 449.72 329.73 455.67 328.02 460.78C326.44 465.53 302.08 485.16 245.08 485.16C240.76 485.16 236.27 485.05 231.58 484.81C231.58 484.81 197.98 482.27 168.71 469.74C168.71 469.74 149.73 462.68 160.79 449.89C160.79 449.89 160.52 416.96 166.01 369.49C166.01 369.49 148.51 310.19 151.91 272.73C151.91 272.73 150.2 265.92 158.73 256.55C167.24 247.19 195.53 244.12 211.71 239.01C211.71 239.01 221.11 268.55 251.81 269.12C251.8 269.13 268.91 266.47 270.31 239.02ZM211.7 237.26C211.52 237.26 211.35 237.29 211.17 237.34C206.27 238.89 200.26 240.25 193.89 241.67C179.04 245.01 163.69 248.47 157.42 255.37C149.34 264.26 149.88 271.21 150.14 272.81C146.97 308.7 162.8 364.69 164.23 369.64C159.25 412.87 159.04 444.39 159.04 449.26C156.05 452.93 154.98 456.58 155.89 460.11C157.78 467.48 167.69 471.24 168.11 471.39C197.23 483.85 231.12 486.54 231.46 486.57C236.11 486.8 240.68 486.92 245.1 486.92C302.96 486.92 327.83 466.98 329.7 461.34C331.4 456.27 327.18 450.88 325.6 449.09C327.24 428.08 327.98 400.26 327.99 399.97C326.1 355.5 319.68 305.81 319.18 302.02C319.55 299.07 322.85 272.41 322.03 257.65C321.12 241.25 275.63 237.63 270.45 237.26C270.41 237.26 270.37 237.26 270.33 237.26C269.9 237.26 269.48 237.41 269.17 237.7C268.82 238.01 268.6 238.45 268.58 238.92C267.27 264.49 252.19 267.29 251.55 267.39C222.74 266.82 213.48 238.76 213.4 238.48C213.13 237.74 212.45 237.26 211.7 237.26Z" fill="#31170E"/>
<path d="M235.68 396.24C235.68 396.24 213.26 391.7 191.13 380.35" stroke="#31170E" stroke-width="1.3184" stroke-miterlimit="10" stroke-linecap="round" stroke-linejoin="round"/>
<path d="M231.14 399.37C231.14 399.37 190.56 395.69 175.51 386.6" stroke="#31170E" stroke-width="1.3184" stroke-miterlimit="10" stroke-linecap="round" stroke-linejoin="round"/>
<path d="M251.18 540.7C251.18 540.7 269.46 534.17 280.09 531.2" stroke="#31170E" stroke-width="1.3184" stroke-miterlimit="10" stroke-linecap="round" stroke-linejoin="round"/>
<path d="M264.96 535.94C264.96 535.94 276.29 734.79 274.65 750.41" stroke="#31170E" stroke-width="1.3184" stroke-miterlimit="10" stroke-linecap="round" stroke-linejoin="round"/>
<path d="M173.64 757.04C173.64 757.04 174.6 549.16 178.01 515.96" stroke="#31170E" stroke-width="1.3184" stroke-miterlimit="10" stroke-linecap="round" stroke-linejoin="round"/>
<path d="M251.18 476.27C251.18 476.27 201.4 472.73 172.28 454.43" stroke="#31170E" stroke-width="1.1832" stroke-miterlimit="10" stroke-linecap="round" stroke-linejoin="round"/>
<path d="M315.57 290.2L318.62 306.92" stroke="#31170E" stroke-width="1.1832" stroke-miterlimit="10" stroke-linecap="round" stroke-linejoin="round"/>
<path d="M171.53 359.96C137.07 359.42 125.72 340.67 125.25 339.87C134.85 262.19 156.21 253.87 164.94 253.87C166.96 253.87 168.2 254.34 168.25 254.36C172.73 254.64 176.53 256.83 179.29 260.82C194.82 283.3 173.29 356.23 172.37 359.32C172.26 359.69 171.92 359.95 171.53 359.95V359.96Z" fill="#2959A3"/>
<path d="M164.95 254.76C166.84 254.76 167.95 255.19 167.95 255.19C201.84 257.6 171.54 359.08 171.54 359.08C137.18 358.55 126.01 339.44 126.01 339.44C135.74 262.2 157.08 254.76 164.95 254.76ZM164.95 253C155.99 253 134.07 261.4 124.27 339.2C124.22 339.59 124.3 339.97 124.5 340.31C124.98 341.12 136.56 360.28 171.51 360.83C171.52 360.83 171.53 360.83 171.54 360.83C172.32 360.83 173 360.33 173.22 359.58C174.15 356.48 195.78 283.15 180.02 260.34C177.14 256.18 173.2 253.86 168.29 253.45C167.78 253.29 166.61 253 164.95 253Z" fill="#31170E"/>
<path d="M126.76 333.8C126.76 333.8 142.97 353.68 173.61 351.6" stroke="#31170E" stroke-width="1.3184" stroke-miterlimit="10" stroke-linecap="round" stroke-linejoin="round"/>
<path d="M144.6 818.84C127.56 818.84 116.46 814.85 115.99 814.68C115.64 814.54 115.36 814.24 115.26 813.87C50.5698 574.52 100.18 529.34 102.33 527.53C112 519.08 122.33 514.78 133.01 514.78C145.41 514.78 157.88 520.86 168.15 531.92C183.72 548.67 192.28 574.28 190.48 598.76C185.74 663.33 178.59 811.08 178.51 812.57C178.48 813.06 178.16 813.49 177.69 813.64C166.96 817.09 155.82 818.84 144.6 818.84Z" fill="#316289"/>
<path d="M133.01 515.97C165.1 515.97 192.37 556.83 189.3 598.67C184.5 663.99 177.32 812.5 177.32 812.5C165.23 816.4 154.02 817.65 144.6 817.65C127.58 817.65 116.41 813.56 116.41 813.56C51.17 572.18 103.09 528.43 103.09 528.43C113.03 519.75 123.24 515.97 133.01 515.97ZM133.01 513.59C122.03 513.59 111.44 517.98 101.53 526.65C99.3899 528.44 49.2299 574.1 114.11 814.18C114.31 814.92 114.86 815.52 115.59 815.79C116.06 815.96 127.36 820.03 144.6 820.03C155.95 820.03 167.21 818.26 178.05 814.76C178.99 814.46 179.64 813.61 179.69 812.62C179.76 811.14 186.92 663.39 191.66 598.84C193.48 574.05 184.81 548.09 169.02 531.11C158.53 519.81 145.74 513.59 133.01 513.59Z" fill="#31170E"/>
<path d="M134.35 818.84C117.32 818.84 106.22 814.85 105.75 814.68C105.39 814.54 105.12 814.24 105.01 813.87C40.29 574.46 96.14 530.39 98.54 528.63C108.06 519.81 118.12 515.29 128.36 515.29C139.16 515.29 149.61 520.38 158.57 530.03C173.83 546.46 182.13 572.79 180.23 598.76C175.49 663.33 168.33 811.08 168.25 812.57C168.23 813.06 167.9 813.49 167.43 813.64C156.7 817.1 145.57 818.85 134.35 818.85V818.84Z" fill="#5495D0"/>
<path d="M128.38 516.48C158.25 516.48 182.11 557.09 179.06 598.67C174.27 663.99 167.09 812.5 167.09 812.5C154.99 816.4 143.78 817.65 134.36 817.65C117.35 817.65 106.17 813.56 106.17 813.56C40.92 572.18 99.25 529.58 99.25 529.58C109.12 520.44 119.04 516.48 128.38 516.48ZM128.38 514.11C117.83 514.11 107.49 518.73 97.64 527.85C95.42 529.46 38.95 574 103.88 814.19C104.08 814.93 104.63 815.53 105.35 815.8C105.82 815.97 117.12 820.04 134.36 820.04C145.71 820.04 156.96 818.27 167.81 814.77C168.75 814.47 169.41 813.62 169.46 812.63C169.52 811.15 176.69 663.4 181.42 598.85C183.35 572.57 174.93 545.89 159.45 529.23C150.27 519.33 139.52 514.11 128.38 514.11Z" fill="#31170E"/>
<path d="M134.81 490.61C134.81 490.61 148.92 504.56 148.73 515.95C148.73 515.95 145.68 514.96 141.97 514.63C141.97 514.63 137.76 508.85 134.22 513.53C132.51 515.76 132.11 537.99 127.28 540.54C122.45 543.1 120.87 533.3 120.87 533.3C120.87 533.3 117.75 540.96 112.78 531.6C112.78 531.6 109.81 535.72 106.68 530.04C106.68 530.04 103.09 535.86 100.87 528.1C98.6602 520.35 104.55 491.01 119.31 487.61" fill="#F7B897"/>
<path d="M134.81 490.61C134.81 490.61 148.92 504.56 148.73 515.95C148.73 515.95 145.68 514.96 141.97 514.63C141.97 514.63 137.76 508.85 134.22 513.53C132.51 515.76 132.11 537.99 127.28 540.54C122.45 543.1 120.87 533.3 120.87 533.3C120.87 533.3 117.75 540.96 112.78 531.6C112.78 531.6 109.81 535.72 106.68 530.04C106.68 530.04 103.09 535.86 100.87 528.1C98.6602 520.35 104.55 491.01 119.31 487.61" stroke="#31170E" stroke-width="1.3184" stroke-miterlimit="10" stroke-linecap="round" stroke-linejoin="round"/>
<path d="M122.31 517C122.31 517 119.46 525.16 120.89 533.32" stroke="#31170E" stroke-width="1.3184" stroke-miterlimit="10" stroke-linecap="round" stroke-linejoin="round"/>
<path d="M113.22 532.39C113.22 532.39 111.37 525.09 115.2 511.68" stroke="#31170E" stroke-width="1.3184" stroke-miterlimit="10" stroke-linecap="round" stroke-linejoin="round"/>
<path d="M107.12 530.77C107.12 530.77 104.71 524.38 107.12 513.46" stroke="#31170E" stroke-width="1.3184" stroke-miterlimit="10" stroke-linecap="round" stroke-linejoin="round"/>
<path d="M395.25 329.35C395.25 329.35 384.34 333.73 377.85 325.45C371.35 317.16 363 308.2 363 308.2C363 308.2 357.65 301.26 366.08 301.66C371.99 301.94 380.62 310.89 380.62 310.89L410.68 310.26C410.68 310.26 419.56 286.98 424.98 289.43C427.94 290.76 426.53 293.72 423.66 302.21C414.52 329.2 412.38 329 412.38 329C412.38 329 407.7 337.33 398.53 331.04" fill="#F7B897"/>
<path d="M395.25 329.35C395.25 329.35 384.34 333.73 377.85 325.45C371.35 317.16 363 308.2 363 308.2C363 308.2 357.65 301.26 366.08 301.66C371.99 301.94 380.62 310.89 380.62 310.89L410.68 310.26C410.68 310.26 419.56 286.98 424.98 289.43C427.94 290.76 426.53 293.72 423.66 302.21C414.52 329.2 412.38 329 412.38 329C412.38 329 407.7 337.33 398.53 331.04" stroke="#31170E" stroke-width="1.1385" stroke-miterlimit="10" stroke-linecap="round" stroke-linejoin="round"/>
<path d="M402.28 321.35C400.03 321.35 397.95 320.2 397.01 319.6C395.88 320.61 394.61 321.12 393.25 321.12C390.66 321.12 388.48 319.26 387.62 318.42C386.29 319 385.11 319.29 384.1 319.29C382.56 319.29 381.35 318.61 380.62 317.32C377.86 312.57 381.91 300.49 383.81 297.18C385.51 294.2 388.12 293.57 390.01 293.57C391.32 293.57 392.27 293.88 392.31 293.89C393.98 294.56 395.07 295.98 395.61 296.84C396.7 296.26 397.84 295.96 398.99 295.96C401.9 295.96 404.13 297.84 405.04 298.75C405.58 298.46 406.48 298.12 407.67 298.12C408.82 298.12 410.03 298.43 411.25 299.07C412.12 299.51 412.67 300.39 412.88 301.69C413.69 306.66 409.38 316.66 406.43 319.65C405.28 320.77 403.9 321.35 402.28 321.35Z" fill="#F7B897"/>
<path d="M390 294.3C391.21 294.3 392.07 294.59 392.07 294.59C394.22 295.45 395.32 297.86 395.32 297.86C396.61 297.01 397.84 296.69 398.97 296.69C402.43 296.69 404.91 299.7 404.91 299.7C404.91 299.7 405.88 298.84 407.65 298.84C408.54 298.84 409.64 299.06 410.9 299.71C414.71 301.66 409.48 315.5 405.89 319.13C404.79 320.24 403.51 320.63 402.28 320.63C399.51 320.63 396.93 318.67 396.93 318.67C395.71 319.95 394.43 320.4 393.24 320.4C390.26 320.4 387.78 317.55 387.78 317.55C386.29 318.26 385.07 318.57 384.09 318.57C376.86 318.57 382.12 301.59 384.43 297.56C385.96 294.86 388.32 294.3 390 294.3ZM390 292.83C387.06 292.83 384.62 294.24 383.17 296.81C381.4 299.9 376.94 312.46 379.98 317.69C380.86 319.21 382.29 320.02 384.1 320.02C385.11 320.02 386.22 319.78 387.46 319.27C388.56 320.27 390.71 321.85 393.25 321.85C394.64 321.85 395.92 321.4 397.08 320.49C398.23 321.16 400.18 322.08 402.28 322.08C404.07 322.08 405.68 321.41 406.93 320.15C409.98 317.07 414.42 306.72 413.59 301.56C413.28 299.64 412.32 298.78 411.56 298.39C410.23 297.72 408.92 297.37 407.64 297.37C406.61 297.37 405.77 297.6 405.15 297.86C403.99 296.81 401.77 295.22 398.96 295.22C397.9 295.22 396.85 295.45 395.84 295.9C395.18 294.98 394.12 293.83 392.6 293.23C392.42 293.15 391.4 292.83 390 292.83Z" fill="#31170E"/>
<path d="M395.88 296.62C395.88 296.62 383.97 309.73 388.38 319.15" stroke="#31170E" stroke-width="1.1385" stroke-miterlimit="10" stroke-linecap="round" stroke-linejoin="round"/>
<path d="M405.21 298.86C405.21 298.86 391.03 316.92 397.85 320" stroke="#31170E" stroke-width="1.1385" stroke-miterlimit="10" stroke-linecap="round" stroke-linejoin="round"/>
<path d="M274.7 239.02C274.7 239.02 276.36 272.029 251.91 275.229C227.46 278.419 208.46 250.57 204.22 241.08" stroke="#31170E" stroke-width="1.3184" stroke-miterlimit="10" stroke-linecap="round" stroke-linejoin="round"/>
<path d="M364.53 369.21C364.53 369.21 360.05 376.07 358.36 383.05" stroke="#31170E" stroke-width="1.3184" stroke-miterlimit="10" stroke-linecap="round" stroke-linejoin="round"/>
<path d="M159.87 145.02C156.81 145.02 154.51 144.26 153.05 142.75C151.83 141.49 151.25 139.77 151.32 137.61C151.66 126.6 195.27 68.8597 278.22 61.8597C278.22 61.8597 279.06 61.7598 280.29 61.7598C283.46 61.7598 289 62.4398 290.66 66.9998C290.76 67.2998 292.75 73.7798 282.81 78.3098C281.07 79.1098 277.33 79.8598 271.69 81.0098C246.96 86.0198 189.03 97.7398 164.95 144.07C164.83 144.3 164.62 144.46 164.38 144.52C164.29 144.53 162.28 145.02 159.87 145.02Z" fill="#596372"/>
<path d="M280.29 62.6296C283.2 62.6296 288.36 63.2196 289.84 67.2896C289.84 67.2896 291.78 73.2496 282.45 77.5096C273.13 81.7596 193.69 86.8696 164.18 143.66C164.18 143.66 162.21 144.14 159.88 144.14C156.38 144.14 152.03 143.06 152.2 137.64C152.49 128.6 194.13 69.8296 278.3 62.7396C278.28 62.7396 279.1 62.6296 280.29 62.6296ZM280.29 60.8796C278.96 60.8796 278.06 60.9896 278.06 60.9896C194.68 68.0096 150.79 126.43 150.44 137.57C150.36 139.97 151.03 141.92 152.42 143.35C154.05 145.03 156.56 145.89 159.87 145.89C162.39 145.89 164.5 145.38 164.59 145.35C165.08 145.23 165.49 144.91 165.72 144.46C189.61 98.5096 247.25 86.8396 271.86 81.8596C277.56 80.7096 281.33 79.9396 283.17 79.0996C293.8 74.2496 291.59 67.0496 291.49 66.7396C290.12 62.9396 286.15 60.8796 280.29 60.8796Z" fill="#31170E"/>
<path d="M284.64 77.3697C284.64 77.3697 289.68 68.5997 281.02 61.8997" stroke="#31170E" stroke-width="1.3184" stroke-miterlimit="10" stroke-linecap="round" stroke-linejoin="round"/>
<path d="M276.48 80.0696C276.48 80.0696 277.04 69.1896 270.81 62.6396" stroke="#31170E" stroke-width="1.3184" stroke-miterlimit="10" stroke-linecap="round" stroke-linejoin="round"/>
<path d="M267.93 81.4798C267.93 81.4798 267.93 68.9298 261.6 64.0698" stroke="#31170E" stroke-width="1.3184" stroke-miterlimit="10" stroke-linecap="round" stroke-linejoin="round"/>
<path d="M258.31 83.4697C258.31 83.4697 252.35 67.2897 251.48 66.4197" stroke="#31170E" stroke-width="1.3184" stroke-miterlimit="10" stroke-linecap="round" stroke-linejoin="round"/>
<path d="M247.81 86.2397C247.81 86.2397 246.76 75.0997 240.72 69.2097" stroke="#31170E" stroke-width="1.3184" stroke-miterlimit="10" stroke-linecap="round" stroke-linejoin="round"/>
<path d="M236.53 89.5698L230.35 72.7698" stroke="#31170E" stroke-width="1.3184" stroke-miterlimit="10" stroke-linecap="round" stroke-linejoin="round"/>
<path d="M227.09 92.9796L220.56 76.5896" stroke="#31170E" stroke-width="1.3184" stroke-miterlimit="10" stroke-linecap="round" stroke-linejoin="round"/>
<path d="M216.46 97.8097L209.93 81.4797" stroke="#31170E" stroke-width="1.3184" stroke-miterlimit="10" stroke-linecap="round" stroke-linejoin="round"/>
<path d="M205.81 103.05L200.1 88.0098" stroke="#31170E" stroke-width="1.3184" stroke-miterlimit="10" stroke-linecap="round" stroke-linejoin="round"/>
<path d="M197.3 108.23C197.3 108.23 190.98 100.85 190.2 93.8896" stroke="#31170E" stroke-width="1.3184" stroke-miterlimit="10" stroke-linecap="round" stroke-linejoin="round"/>
<path d="M189.21 114.33C189.21 114.33 181.97 113.06 181.05 101.07" stroke="#31170E" stroke-width="1.3184" stroke-miterlimit="10" stroke-linecap="round" stroke-linejoin="round"/>
<path d="M181.05 121.79C181.05 121.79 171.47 121.64 171.89 108.73" stroke="#31170E" stroke-width="1.3184" stroke-miterlimit="10" stroke-linecap="round" stroke-linejoin="round"/>
<path d="M172.68 131.43C172.68 131.43 161.76 131.86 163.02 118.66" stroke="#31170E" stroke-width="1.3184" stroke-miterlimit="10" stroke-linecap="round" stroke-linejoin="round"/>
<path d="M167.35 139.16C167.35 139.16 155.79 141.51 154.44 129.94" stroke="#31170E" stroke-width="1.3184" stroke-miterlimit="10" stroke-linecap="round" stroke-linejoin="round"/>
<path d="M148.56 97.8098C148.56 97.8098 158.71 79.5798 186.13 64.0698" stroke="#31170E" stroke-width="1.3184" stroke-miterlimit="10" stroke-linecap="round" stroke-linejoin="round"/>
<path d="M151.47 83.4697C151.47 83.4697 162.58 65.0197 171.88 57.9197" stroke="#31170E" stroke-width="1.3184" stroke-miterlimit="10" stroke-linecap="round" stroke-linejoin="round"/>
<path d="M270.81 44.1597C270.81 44.1597 247.89 44.3697 232.14 52.6697" stroke="#31170E" stroke-width="1.3184" stroke-miterlimit="10" stroke-linecap="round" stroke-linejoin="round"/>
</g>
</svg>
