<svg width="334" height="482" viewBox="0 0 334 482" fill="none" xmlns="http://www.w3.org/2000/svg">
<path d="M223.688 440.519L223.687 440.518L142.9 32.7606C142.9 32.7605 142.9 32.7604 142.9 32.7603C142.643 31.4525 143.441 30.0837 145.269 28.9369C147.078 27.8021 149.771 26.981 152.923 26.7818C156.073 26.5828 159.037 27.0452 161.274 27.9372C163.544 28.8419 164.928 30.1266 165.194 31.4811L165.194 31.4818L245.982 439.231C246.239 440.539 245.441 441.908 243.613 443.055C241.804 444.19 239.111 445.011 235.959 445.21L235.49 445.24V445.243C232.516 445.37 229.733 444.91 227.607 444.063C225.338 443.158 223.954 441.873 223.688 440.519Z" fill="#FFE6C0" stroke="#3E2512"/>
<path d="M227.663 455.771C195.69 464.712 161.858 469.433 128.884 463.782C127.382 463.496 125.88 463.21 124.378 462.852C123.234 462.781 122.089 462.709 120.945 462.566C116.653 462.065 112.29 461.422 108.142 460.063C105.424 459.133 101.633 458.203 99.7017 455.771C99.1295 455.056 98.7003 454.34 98.4142 453.554C98.2712 453.554 98.1997 453.554 98.0566 453.554C96.9122 451.98 97.1983 449.477 98.0566 446.759C100.345 437.246 109.429 427.303 115.151 419.507C121.589 410.638 128.956 402.698 138.541 397.262C167.437 380.74 199.195 386.605 218.865 413.427C221.511 417.004 223.729 420.795 225.731 424.729C225.731 425.587 225.946 426.302 226.661 426.588C227.877 429.235 229.022 431.953 230.023 434.742C231.024 437.603 231.883 440.607 232.669 443.54C234.601 450.335 234.958 453.697 227.663 455.771Z" fill="#5E2C00"/>
<path d="M222.439 453.339C193.185 461.565 162.214 465.856 132.03 460.635C130.671 460.42 129.241 460.134 127.882 459.776C126.809 459.705 125.807 459.633 124.734 459.49C120.8 459.061 116.795 458.417 113.004 457.201C110.501 456.343 106.996 455.485 105.279 453.267C104.778 452.624 104.349 451.908 104.063 451.193C103.992 451.193 103.849 451.193 103.777 451.193C102.704 449.763 102.99 447.402 103.777 445.042C104.421 442.395 105.851 439.677 107.568 437.174C107.854 436.673 108.14 436.316 108.283 436.101C112.074 430.88 114.721 425.015 118.798 419.936C122.016 415.931 125.092 411.782 128.096 407.634C134.033 404.343 139.755 399.98 145.692 397.334C157.35 392.041 170.726 389.68 183.386 391.969C196.046 394.258 207.133 404.415 214.428 414.429C216.86 417.719 218.863 421.152 220.651 424.728C220.651 425.515 220.866 426.159 221.51 426.445C222.654 428.877 223.655 431.38 224.585 433.884C225.515 436.53 226.302 439.248 227.017 441.966C228.734 448.189 229.091 451.265 222.439 453.124V453.339Z" fill="#9EA8AA"/>
<g style="mix-blend-mode:multiply">
<path d="M226.948 442.181C226.161 439.463 225.446 436.745 224.516 434.098C223.586 431.523 222.585 429.091 221.44 426.66C220.796 426.373 220.51 425.73 220.582 424.943C218.794 421.367 216.719 417.933 214.359 414.643C207.063 404.558 195.905 394.401 183.317 392.112C183.03 392.112 182.744 392.041 182.387 391.969C186.964 396.69 189.682 404.129 190.684 410.852C191.757 417.862 191.542 425.515 188.824 432.167C185.82 439.534 177.666 443.683 170.442 445.757C161.358 448.404 151.845 449.262 142.403 449.405C134.679 449.548 124.951 450.263 117.941 446.186C112.219 442.896 110.574 436.959 111.647 431.094C110.574 432.882 109.43 434.671 108.214 436.316C108.071 436.53 107.785 436.959 107.499 437.389C105.71 439.892 104.28 442.61 103.708 445.256C102.921 447.617 102.706 449.906 103.708 451.408C103.779 451.408 103.922 451.408 103.994 451.408C104.28 452.123 104.709 452.767 105.21 453.482C106.926 455.699 110.431 456.558 112.935 457.416C116.725 458.632 120.731 459.276 124.665 459.705C125.738 459.848 126.739 459.919 127.812 459.991C129.171 460.277 130.53 460.563 131.961 460.849C162.145 466.071 193.116 461.779 222.37 453.554C228.95 451.694 228.664 448.618 226.948 442.395V442.181Z" fill="#9EA8AA"/>
</g>
<path d="M230.451 476.37C215.789 480.519 200.267 482.593 185.175 480.018C184.46 479.875 183.816 479.732 183.101 479.589C182.6 479.589 182.028 479.518 181.527 479.446C179.525 479.232 177.522 478.945 175.662 478.302C174.375 477.873 172.658 477.443 171.8 476.37C171.514 476.013 171.371 475.727 171.228 475.369C171.228 475.369 171.156 475.369 171.085 475.369C170.584 474.654 170.655 473.509 171.085 472.222C172.157 467.859 176.306 463.281 178.881 459.705C181.814 455.628 185.247 451.98 189.61 449.477C202.842 441.895 217.434 444.613 226.446 456.915C227.662 458.56 228.663 460.277 229.593 462.065C229.593 462.494 229.665 462.78 230.022 462.924C230.595 464.139 231.095 465.355 231.524 466.643C232.025 467.93 232.383 469.361 232.74 470.648C233.599 473.796 233.742 475.298 230.451 476.227V476.37Z" fill="#5E2C00"/>
<path d="M228.02 475.226C214.573 479.017 200.411 480.948 186.606 478.588C185.963 478.445 185.319 478.374 184.747 478.23C184.246 478.23 183.817 478.159 183.316 478.087C181.528 477.873 179.668 477.587 177.952 477.015C176.807 476.657 175.162 476.228 174.375 475.226C174.161 474.94 173.946 474.583 173.803 474.297C173.803 474.297 173.732 474.297 173.66 474.297C173.159 473.653 173.303 472.58 173.66 471.507C173.946 470.291 174.59 469.075 175.448 467.931C175.591 467.716 175.663 467.573 175.806 467.43C177.523 465.07 178.739 462.352 180.598 459.991C182.1 458.132 183.531 456.272 184.89 454.341C187.608 452.839 190.254 450.836 192.972 449.62C198.337 447.188 204.417 446.115 210.21 447.188C216.004 448.261 221.082 452.91 224.444 457.488C225.517 458.99 226.518 460.563 227.305 462.209C227.305 462.566 227.377 462.852 227.663 462.995C228.163 464.068 228.664 465.213 229.093 466.429C229.522 467.645 229.88 468.861 230.238 470.148C231.024 473.009 231.167 474.44 228.163 475.298L228.02 475.226Z" fill="#9EA8AA"/>
<g style="mix-blend-mode:multiply">
<path d="M230.166 470.076C229.808 468.86 229.451 467.573 229.021 466.357C228.592 465.213 228.163 464.068 227.591 462.924C227.305 462.781 227.162 462.495 227.233 462.137C226.446 460.492 225.445 458.918 224.372 457.416C221.01 452.839 215.932 448.189 210.138 447.116C209.995 447.116 209.852 447.116 209.709 447.116C211.783 449.262 213.071 452.696 213.5 455.771C214.001 458.99 213.858 462.495 212.642 465.499C211.283 468.86 207.492 470.792 204.202 471.722C200.053 472.937 195.69 473.295 191.327 473.367C187.751 473.367 183.316 473.724 180.097 471.936C177.451 470.434 176.736 467.716 177.236 464.998C176.736 465.785 176.235 466.643 175.663 467.43C175.591 467.573 175.448 467.716 175.305 467.931C174.518 469.075 173.803 470.291 173.517 471.507C173.159 472.58 173.088 473.653 173.517 474.296C173.517 474.296 173.588 474.296 173.66 474.296C173.803 474.583 173.946 474.94 174.232 475.226C175.019 476.228 176.592 476.657 177.808 477.014C179.525 477.587 181.385 477.873 183.173 478.087C183.674 478.087 184.103 478.159 184.603 478.23C185.247 478.373 185.891 478.517 186.463 478.588C200.268 480.948 214.501 479.017 227.877 475.226C230.881 474.368 230.738 472.937 229.951 470.076H230.166Z" fill="#9EA8AA"/>
</g>
<path d="M225.797 472.096C227.333 448.962 198.991 446.857 193.522 449.07C188.054 451.284 176.502 470.549 172.655 471.324C168.801 472.096 180.892 439.975 188.828 436.636C203.709 430.372 223.492 448.202 223.492 448.202C222.711 430.466 199.247 421.485 199.247 421.485C220.138 409.663 232.729 436.636 232.729 443.576C228.876 421.219 239.237 402.301 258.074 399.306C248.83 411.638 241.199 449.74 241.199 449.74C244.278 437.408 257.089 418.059 265.781 416.955C270.969 416.294 301.273 425.067 302.041 429.7C302.816 434.32 275.347 425.845 270.21 428.159C265.076 430.466 250.439 454.36 250.439 454.36C250.439 454.36 263.226 442.086 275.856 443.576C285.034 444.655 299.73 459.756 300.502 464.388C288.95 460.537 285.082 455.576 278.926 455.739C272.777 455.904 259.677 472.096 259.677 472.096C253.518 478.261 251.207 476.647 251.207 476.647C246.586 485.906 240.43 475.945 240.43 475.945C233.498 482.887 226.568 478.264 225.797 472.096Z" fill="#5C8E04" stroke="#374F03" stroke-width="2" stroke-linecap="round" stroke-linejoin="round"/>
<path d="M190.367 437.834C186.049 435.858 177.125 454.879 174.525 463.872C183.509 455.118 198.646 441.622 190.367 437.834Z" fill="#77A80C"/>
<path d="M209.763 421.506C221.591 420.791 232.706 435.939 234.592 462.69C227.027 439.254 218.515 425.999 209.763 421.506Z" fill="#77A80C"/>
<path d="M249.963 404.934C232.461 411.327 230.81 446.833 234.588 465.531C238.607 444.227 239.083 422.218 249.963 404.934Z" fill="#77A80C"/>
<path d="M238.14 462.219C237.432 449.435 263.877 419.608 266.609 418.903C269.354 418.188 269.824 423.87 267.694 425.29C265.573 426.714 238.613 467.428 238.14 462.219Z" fill="#77A80C"/>
<path d="M248.223 465.531C245.418 457.379 266.279 445.177 273.139 444.227C279.994 443.283 281.175 448.489 271.241 452.744C261.311 457.005 249.958 470.583 248.22 465.531H248.223Z" fill="#77A80C"/>
<path d="M1.91508 42.4682C-2.16568 48.3051 8.08878 203.773 19.0753 208.658C30.0619 213.544 324.089 162.253 331.41 154.927C338.736 147.595 303.52 7.82062 294.978 1.71711C286.436 -4.39728 10.4626 30.254 1.91508 42.4682Z" fill="#444343" stroke="#7E716B" stroke-width="2" stroke-linecap="round" stroke-linejoin="round"/>
<path d="M17.2893 39.3141C13.7522 43.5076 14.5966 71.1394 17.6373 77.3898C20.6706 83.6366 73.5285 77.2447 73.5285 77.2447C73.5285 77.2447 24.4923 89.1216 20.5619 92.9597C16.6406 96.8031 17.0646 127.892 19.3207 134.13C21.5803 140.377 34.0346 137.402 34.0346 137.402C34.0346 137.402 25.4273 143.525 23.0535 147.382C20.6815 151.243 33.4348 191.7 40.395 194.109C47.3533 196.523 319.485 156.186 324.969 151.586C330.456 146.982 329.167 123.66 323.742 122.824C318.318 121.983 271.623 132.329 271.623 132.329C271.623 132.329 319.94 115.783 321.557 110.363C323.171 104.942 314.424 54.3398 305.924 51.1329C297.425 47.9297 176.977 58.9959 176.977 58.9959C176.977 58.9959 299.072 39.3993 302.996 35.5595C306.922 31.7196 300.218 6.77777 290.911 5.89625C281.604 5.01474 28.3049 26.2274 17.2912 39.3159L17.2893 39.3141Z" fill="#74716E"/>
<path d="M36.0251 52.7198C43.3404 35.4159 246.378 19.3128 246.378 30.9648C246.378 42.6168 18.9482 93.1226 36.0251 52.7198Z" fill="#888684"/>
<path d="M49.2211 89.239C39.0174 95.8359 36.8031 123.422 47.67 126.533C58.537 129.635 138.487 124.977 138.487 124.977C138.487 124.977 66.298 131.193 67.0718 144.401C67.8492 157.611 111.321 149.061 172.635 139.734C233.957 130.416 284.407 113.321 295.279 103.996C306.146 94.6732 296.057 68.2585 276.648 62.0426C257.246 55.8266 86.479 65.1515 49.2211 89.239Z" fill="#CBCBCB" fill-opacity="0.23"/>
<g filter="url(#filter0_d_18_552)">
<path d="M128.242 112.589C130.748 114.303 137.967 119.133 146.158 123.62C160.048 131.236 170.048 134.304 175.89 132.733C176.409 132.594 176.9 132.413 177.367 132.205L177.413 132.193L177.47 132.161L177.561 132.137C178.222 131.795 178.821 131.405 179.333 130.94C183.535 127.161 185.956 120.229 186.327 110.905C186.654 102.754 185.409 92.8331 182.814 82.998C180.161 72.9492 176.238 63.4709 171.778 56.3124C166.687 48.1459 161.032 43.1734 155.401 41.9398C154.655 41.7806 153.872 41.7293 153.073 41.7971L153.012 41.8135C152.499 41.8533 151.968 41.9469 151.449 42.0864C145.668 43.6409 138.533 51.1044 130.249 64.274C124.208 73.8637 119.679 83.1776 119.639 83.2703C119.609 83.3436 119.58 83.4169 119.562 83.4709C117.393 83.6778 113.715 84.1108 110.558 84.9598C107.995 85.6489 106.225 86.4849 105.147 87.5269C99.989 92.4305 101.034 98.4464 102.434 103.713L102.45 103.774L102.467 103.835L102.475 103.865L102.483 103.896L102.5 103.957L102.516 104.018C103.946 109.276 106.063 115.02 112.944 116.703C114.398 117.064 116.349 116.899 118.912 116.21C122.542 115.234 126.491 113.436 128.231 112.608L128.242 112.589Z" fill="#3A0505"/>
<path d="M193.439 86.1438C191.99 87.2039 191.048 88.7493 190.815 90.4967C190.58 92.179 191.031 93.8569 192.082 95.2099C193.705 97.2922 196.429 98.1788 199.053 97.4734C199.861 97.256 200.629 96.8861 201.313 96.3912C208.133 91.4007 211.162 83.0789 209.041 75.1931C206.921 67.3074 200.131 61.6423 191.724 60.7299C190.883 60.6452 190.049 60.7059 189.226 60.9274C186.617 61.6288 184.69 63.7663 184.33 66.3819C184.099 68.0794 184.547 69.742 185.597 71.095C186.691 72.4856 188.266 73.3543 190.051 73.5449C193.049 73.8672 195.467 75.8665 196.214 78.6426C196.96 81.4186 195.871 84.3612 193.439 86.1438Z" fill="#3A0505"/>
<path d="M199.257 43.7872C198.393 43.6761 197.539 43.7257 196.716 43.9471C194.077 44.6567 192.178 46.9011 191.875 49.665C191.461 53.3582 194.073 56.7448 197.691 57.2439C206.309 58.394 213.379 64.7361 215.709 73.3998C218.038 82.0634 215.103 91.0962 208.224 96.4134C205.34 98.6446 204.783 102.9 206.993 105.887C208.642 108.126 211.41 109.115 214.049 108.406C214.873 108.184 215.651 107.795 216.343 107.266C227.512 98.6196 232.29 83.9719 228.521 69.9545C224.752 55.937 213.271 45.6615 199.272 43.7831L199.257 43.7872Z" fill="#3A0505"/>
<path d="M180.224 80.4228L180.216 80.3923C180.081 79.889 179.915 79.3938 179.764 78.8946L179.744 78.8183C179.593 78.3191 179.427 77.8239 179.277 77.3247C178.782 75.7894 178.261 74.2776 177.699 72.7933L177.686 72.7475C176.942 70.7722 176.161 68.8397 175.331 66.9694C175.128 66.517 174.924 66.0647 174.725 65.6276C174.657 65.4985 174.605 65.3654 174.538 65.2363C174.387 64.9171 174.231 64.5827 174.08 64.2636C174.013 64.1345 173.96 64.0013 173.893 63.8723C173.706 63.4809 173.5 63.0785 173.317 62.7024C173.304 62.6566 173.281 62.6302 173.253 62.5886C173.039 62.1556 172.813 61.742 172.583 61.3131C172.524 61.2145 172.48 61.1119 172.421 61.0133C172.25 60.683 172.069 60.372 171.902 60.057C171.839 59.9431 171.775 59.8293 171.716 59.7308C171.522 59.374 171.313 59.0214 171.108 58.6841C171.095 58.6383 171.048 58.5855 171.021 58.5439C170.78 58.1343 170.543 57.7401 170.291 57.3499C170.255 57.2777 170.204 57.2097 170.173 57.1528C169.971 56.8307 169.774 56.5238 169.573 56.2017C169.514 56.1031 169.459 56.0198 169.4 55.9212C169.183 55.6032 168.982 55.2811 168.77 54.9784C168.738 54.9215 168.711 54.8798 168.664 54.827C168.401 54.4562 168.157 54.0965 167.898 53.741C167.889 53.7105 167.847 53.6729 167.823 53.6465C167.591 53.3326 167.364 53.034 167.132 52.7201C167.081 52.652 167.026 52.5687 166.96 52.5047C166.737 52.2213 166.513 51.9379 166.294 51.6698C166.251 51.6322 166.219 51.5753 166.177 51.5378C165.644 50.8959 165.105 50.2886 164.558 49.7159C164.511 49.6631 164.464 49.6102 164.402 49.5615C164.172 49.3128 163.93 49.0833 163.704 48.8498C163.661 48.8122 163.618 48.7747 163.571 48.7219C160.835 46.0884 157.968 44.3077 155.014 43.6627C154.928 53.4994 155.714 63.2977 157.352 72.9161C160.606 72.303 163.832 72.7439 166.682 74.0382C170.815 75.9037 174.117 79.5463 175.384 84.2595C176.233 87.4168 176.045 90.6079 175.05 93.4761C173.525 97.844 170.084 101.468 165.469 103.102C167.529 108.632 169.885 114.05 172.535 119.34C174.119 122.496 175.811 125.623 177.601 128.691L178.122 129.598C178.338 129.425 178.53 129.226 178.737 129.024C178.763 129 178.785 128.961 178.827 128.934C179.019 128.735 179.196 128.54 179.368 128.33C179.406 128.288 179.428 128.249 179.466 128.206C179.638 127.996 179.806 127.771 179.975 127.546C179.997 127.507 180.02 127.468 180.061 127.441C180.225 127.2 180.39 126.96 180.55 126.704L180.565 126.7C180.721 126.429 180.866 126.177 181.022 125.906L181.089 125.79C181.234 125.539 181.375 125.272 181.497 124.994C181.515 124.94 181.552 124.897 181.571 124.843C181.696 124.58 181.833 124.298 181.955 124.02C181.973 123.966 181.995 123.928 182.013 123.874C182.131 123.58 182.263 123.283 182.377 122.974L182.395 122.92C182.508 122.612 182.621 122.303 182.72 121.999C182.742 121.96 182.745 121.91 182.767 121.872C182.865 121.567 182.959 121.248 183.053 120.928C183.071 120.874 183.085 120.805 183.104 120.751C183.198 120.431 183.272 120.1 183.366 119.781C183.384 119.727 183.398 119.658 183.401 119.608C183.487 119.257 183.562 118.927 183.643 118.561L183.657 118.492C183.728 118.146 183.794 117.785 183.865 117.439C183.872 117.404 183.875 117.354 183.897 117.315C183.963 116.954 184.015 116.597 184.077 116.22C184.091 116.151 184.09 116.086 184.104 116.017C184.155 115.659 184.202 115.287 184.249 114.914C184.263 114.845 184.262 114.78 184.28 114.726C184.323 114.338 184.366 113.951 184.394 113.567C184.386 113.537 184.393 113.502 184.4 113.467C184.428 113.084 184.466 112.681 184.49 112.282C184.482 112.251 184.5 112.197 184.492 112.167C184.515 111.768 184.539 111.369 184.558 110.955C184.557 110.89 184.571 110.821 184.57 110.756C184.594 110.357 184.598 109.947 184.606 109.552C184.605 109.487 184.604 109.422 184.618 109.352C184.622 108.942 184.622 108.517 184.623 108.092C184.614 108.061 184.621 108.027 184.624 107.977C184.625 107.552 184.621 107.111 184.605 106.69L184.581 106.598C184.592 106.154 184.573 105.717 184.554 105.281C184.537 105.22 184.551 105.151 184.55 105.085C184.531 104.649 184.512 104.213 184.477 103.78C184.461 103.719 184.475 103.65 184.47 103.57C184.446 103.118 184.408 102.67 184.369 102.223C184.361 102.192 184.353 102.162 184.356 102.112C184.313 101.649 184.286 101.182 184.239 100.704L184.227 100.658C184.184 100.195 184.137 99.7174 184.094 99.2545C184.078 99.1935 184.081 99.1436 184.08 99.0785C184.022 98.6198 183.979 98.1569 183.921 97.6982C183.905 97.6372 183.904 97.5721 183.903 97.507C183.841 97.033 183.778 96.559 183.716 96.085C183.708 96.0545 183.7 96.024 183.692 95.9935C183.555 94.9997 183.389 94.0142 183.222 93.0286C183.209 92.9829 183.197 92.9371 183.185 92.8914C183.103 92.4062 183.007 91.9252 182.929 91.4553C182.917 91.4095 182.901 91.3485 182.888 91.3028C182.792 90.8217 182.706 90.3213 182.594 89.8444L182.574 89.7681C182.368 88.7603 182.143 87.7413 181.918 86.7223L181.894 86.6308C181.778 86.1386 181.662 85.6464 181.542 85.1389C181.529 85.0932 181.521 85.0626 181.509 85.0169C181.374 84.5135 181.258 84.0213 181.122 83.518L181.114 83.4875C180.835 82.4503 180.56 81.4284 180.251 80.3994L180.224 80.4228Z" fill="#FFE6C0"/>
<path d="M175.713 129.035C160.991 103.602 153.231 74.744 153.212 45.3575C153.217 44.7674 153.203 44.1661 153.223 43.5719C152.614 43.621 152.011 43.7505 151.383 43.9685C151.276 43.9972 151.158 44.0453 151.056 44.0892C150.964 44.1138 150.877 44.1537 150.789 44.1936C150.667 44.2264 150.553 44.2897 150.436 44.3377C150.344 44.3624 150.261 44.4175 150.189 44.4532C150.059 44.5207 149.942 44.5687 149.812 44.6361C149.74 44.6719 149.653 44.7118 149.585 44.7628C149.456 44.8302 149.316 44.917 149.171 44.9885C149.099 45.0243 149.031 45.0753 148.959 45.111C148.819 45.1978 148.663 45.2887 148.523 45.3754C148.466 45.4071 148.398 45.4581 148.341 45.4898C148.19 45.5959 148.038 45.702 147.872 45.8123C147.815 45.8439 147.762 45.8908 147.72 45.9184C147.554 46.0286 147.391 46.1541 147.229 46.2796C147.187 46.3072 147.149 46.35 147.092 46.3816C146.915 46.5112 146.741 46.656 146.567 46.8009C146.526 46.8284 146.499 46.8519 146.458 46.8795C146.269 47.0284 146.084 47.1926 145.895 47.3415L145.831 47.4078C145.631 47.5761 145.446 47.7403 145.25 47.9238L145.213 47.9666C145.017 48.1502 144.805 48.3378 144.598 48.5407L144.568 48.5489C144.365 48.7671 144.157 48.97 143.935 49.177C143.743 49.3758 143.536 49.5787 143.344 49.7775L143.291 49.8244C132.297 61.1877 121.219 84.0389 121.219 84.0389L128.327 110.472C128.327 110.472 136.335 116.104 146.048 121.507L146.086 121.529C146.415 121.719 146.74 121.893 147.085 122.079L147.115 122.07C147.448 122.275 147.773 122.449 148.098 122.624C148.176 122.668 148.234 122.702 148.311 122.746C148.578 122.887 148.845 123.028 149.112 123.169C149.208 123.225 149.305 123.281 149.398 123.321C149.645 123.451 149.893 123.581 150.14 123.71C150.252 123.762 150.353 123.833 150.465 123.885C150.693 124.003 150.941 124.133 151.169 124.251C151.281 124.303 151.397 124.37 151.509 124.422C151.737 124.54 151.981 124.655 152.209 124.773C152.321 124.825 152.437 124.892 152.564 124.939C152.793 125.058 153.036 125.172 153.279 125.287C153.391 125.338 153.503 125.39 153.62 125.457C153.863 125.571 154.11 125.701 154.354 125.816C154.466 125.867 154.559 125.908 154.655 125.964C154.918 126.089 155.181 126.215 155.459 126.336C155.536 126.381 155.625 126.406 155.702 126.451C156.038 126.606 156.374 126.761 156.711 126.916L156.741 126.907C157.101 127.089 157.467 127.236 157.823 127.402L157.853 127.394C158.193 127.564 158.525 127.703 158.853 127.828C158.946 127.868 159.034 127.894 159.112 127.938C159.37 128.049 159.61 128.148 159.864 128.243C159.976 128.295 160.084 128.331 160.196 128.383C160.416 128.471 160.651 128.555 160.871 128.643C160.999 128.69 161.111 128.742 161.234 128.774C161.45 128.847 161.67 128.935 161.87 129.012C161.997 129.06 162.125 129.107 162.252 129.155C162.453 129.232 162.668 129.304 162.865 129.366C162.992 129.414 163.12 129.461 163.243 129.493C163.443 129.57 163.655 129.628 163.852 129.69C163.979 129.737 164.102 129.769 164.229 129.817C164.426 129.879 164.638 129.936 164.834 129.998C164.957 130.03 165.065 130.067 165.188 130.099C165.4 130.156 165.612 130.214 165.824 130.271C165.931 130.308 166.035 130.329 166.143 130.365C166.374 130.434 166.617 130.483 166.848 130.552C166.917 130.566 167.005 130.592 167.075 130.606C167.686 130.752 168.294 130.883 168.878 130.987C168.963 130.997 169.051 131.023 169.136 131.033C169.339 131.06 169.547 131.102 169.735 131.133C169.839 131.154 169.939 131.16 170.058 131.177C170.227 131.197 170.415 131.228 170.584 131.248C170.703 131.265 170.803 131.271 170.918 131.273C171.087 131.293 171.252 131.298 171.401 131.307C171.516 131.309 171.616 131.314 171.735 131.331C171.885 131.34 172.049 131.345 172.199 131.354C172.314 131.356 172.414 131.362 172.525 131.348C172.67 131.342 172.82 131.351 172.965 131.344C173.065 131.35 173.176 131.337 173.271 131.327C173.417 131.321 173.562 131.314 173.704 131.293C173.799 131.283 173.895 131.274 174.006 131.261C174.147 131.239 174.288 131.217 174.43 131.196C174.521 131.171 174.602 131.166 174.697 131.156C174.758 131.14 174.819 131.124 174.88 131.107C175.483 130.978 176.055 130.791 176.583 130.567L176.007 129.578C175.892 129.396 175.793 129.21 175.694 129.024L175.713 129.035Z" fill="#FFE6C0"/>
<path d="M126.587 110.94L119.68 85.2545C117.573 85.4451 114.005 85.8646 110.97 86.6809C109.002 87.21 107.275 87.9034 106.341 88.8088C102.25 92.7548 102.642 97.5563 104.173 103.311L104.197 103.402L104.222 103.494C105.787 109.255 107.857 113.606 113.371 114.952C114.633 115.267 116.491 114.997 118.443 114.472C121.494 113.651 124.817 112.202 126.74 111.325C126.676 111.211 126.624 111.078 126.591 110.956L126.587 110.94Z" fill="#FFE6C0"/>
<path d="M180.217 80.3921C180.082 79.8887 179.916 79.3936 179.765 78.8943L179.745 78.8181C179.594 78.3188 179.428 77.8237 179.278 77.3245C178.783 75.7892 178.262 74.2773 177.699 72.7931L177.687 72.7473C176.943 70.772 176.162 68.8395 175.332 66.9691C171.796 58.9897 167.46 52.1738 162.711 47.9553C168.321 54.8865 168.02 65.386 166.668 74.0421C170.8 75.9076 174.102 79.5502 175.37 84.2634C176.219 87.4207 176.03 90.6118 175.035 93.4799C179.67 101.835 182.209 111.096 174.611 117.997C173.979 118.625 173.277 119.059 172.52 119.344C174.105 122.5 175.796 125.627 177.586 128.695L178.108 129.602C178.323 129.429 178.515 129.23 178.722 129.027C178.749 129.004 178.771 128.965 178.812 128.938C179.004 128.739 179.181 128.544 179.354 128.334C179.391 128.291 179.413 128.253 179.451 128.21C179.623 128 179.792 127.775 179.96 127.55C179.983 127.511 180.005 127.472 180.047 127.445C180.211 127.204 180.375 126.964 180.535 126.708L180.551 126.704C180.707 126.433 180.852 126.181 181.008 125.91L181.075 125.794C181.22 125.543 181.361 125.276 181.482 124.998C181.5 124.944 181.538 124.901 181.556 124.847C181.682 124.584 181.818 124.302 181.94 124.024C181.958 123.97 181.981 123.931 181.999 123.877C182.116 123.584 182.249 123.287 182.362 122.978L182.38 122.924C182.494 122.616 182.607 122.307 182.705 122.003C182.727 121.964 182.73 121.914 182.753 121.876C182.851 121.571 182.945 121.252 183.038 120.932C183.057 120.878 183.071 120.809 183.089 120.755C183.183 120.435 183.258 120.104 183.351 119.785C183.37 119.731 183.384 119.661 183.387 119.612C183.472 119.261 183.547 118.931 183.629 118.565L183.643 118.496C183.713 118.15 183.78 117.788 183.85 117.442C183.857 117.408 183.86 117.358 183.883 117.319C183.949 116.958 184 116.601 184.062 116.224C184.076 116.155 184.075 116.09 184.089 116.021C184.141 115.663 184.188 115.291 184.235 114.918C184.249 114.849 184.248 114.784 184.266 114.73C184.309 114.342 184.352 113.955 184.379 113.571C184.371 113.54 184.378 113.506 184.385 113.471C184.413 113.088 184.452 112.685 184.475 112.286C184.467 112.255 184.485 112.201 184.477 112.171C184.501 111.772 184.524 111.373 184.544 110.959C184.543 110.894 184.557 110.825 184.556 110.759C184.579 110.361 184.583 109.951 184.592 109.556C184.591 109.491 184.589 109.426 184.604 109.356C184.608 108.946 184.608 108.521 184.608 108.096C184.6 108.065 184.607 108.031 184.61 107.981C184.61 107.555 184.606 107.115 184.591 106.694L184.566 106.602C184.578 106.158 184.558 105.721 184.539 105.285C184.523 105.224 184.537 105.154 184.536 105.089C184.516 104.653 184.497 104.216 184.463 103.784C184.446 103.723 184.46 103.654 184.455 103.574C184.432 103.122 184.393 102.674 184.355 102.227C184.346 102.196 184.338 102.166 184.341 102.116C184.299 101.653 184.271 101.186 184.224 100.708L184.212 100.662C184.169 100.199 184.123 99.7212 184.08 99.2584C184.063 99.1974 184.066 99.1475 184.065 99.0824C184.007 98.6237 183.965 98.1608 183.907 97.7021C183.89 97.6411 183.889 97.576 183.888 97.5108C183.826 97.0368 183.764 96.5629 183.702 96.0889C183.694 96.0584 183.685 96.0279 183.677 95.9973C183.541 95.0036 183.374 94.0181 183.207 93.0325C183.195 92.9868 183.183 92.941 183.17 92.8952C183.089 92.4101 182.992 91.929 182.915 91.4592C182.903 91.4134 182.886 91.3524 182.874 91.3066C182.777 90.8256 182.692 90.3252 182.58 89.8482L182.559 89.772C182.354 88.7641 182.129 87.7451 181.904 86.7261L181.879 86.6346C181.763 86.1424 181.647 85.6502 181.527 85.1428C181.515 85.097 181.507 85.0665 181.494 85.0208C181.359 84.5174 181.243 84.0252 181.108 83.5219L181.099 83.4914C180.821 82.4542 180.546 81.4322 180.236 80.4032L180.228 80.3727L180.217 80.3921Z" fill="#CEA882"/>
<path d="M207.289 75.664C205.361 68.4952 199.167 63.3406 191.52 62.5182C190.879 62.4452 190.274 62.5096 189.68 62.6695C187.834 63.1658 186.363 64.6899 186.098 66.6257C185.753 69.172 187.598 71.4726 190.243 71.7591C193.982 72.1603 197 74.6854 197.939 78.1783C198.878 81.6712 197.534 85.3693 194.5 87.5916C192.356 89.166 191.898 92.086 193.489 94.1114C194.689 95.6533 196.726 96.2341 198.572 95.7378C199.151 95.582 199.718 95.3152 200.24 94.9458C206.458 90.3951 209.217 82.8329 207.289 75.664Z" fill="#FFE6C0"/>
<path d="M226.782 70.4222C223.201 57.1064 212.301 47.3456 199.016 45.5694C198.371 45.4812 197.763 45.5303 197.168 45.6903C195.322 46.1866 193.876 47.8022 193.648 49.8752C193.352 52.6046 195.254 55.1187 197.92 55.4815C207.252 56.7338 214.918 63.5865 217.436 72.9517C219.954 82.317 216.775 92.0859 209.314 97.8541C207.19 99.5047 206.785 102.623 208.43 104.847C209.667 106.526 211.729 107.198 213.574 106.702C214.154 106.546 214.72 106.279 215.234 105.879C225.836 97.6802 230.371 83.7685 226.79 70.4527L226.782 70.4222Z" fill="#FFE6C0"/>
<path d="M164.836 101.424C171.637 99.0391 175.543 91.7899 173.644 84.7278C171.745 77.6657 164.73 73.3532 157.65 74.7008C159.294 83.7943 161.698 92.7325 164.836 101.424Z" fill="#C4916B"/>
<path d="M151.129 63.8279C150.621 74.3502 139.928 84.2752 146.462 94.7686C151.379 101.984 163.971 111.585 152.534 118.749C150.454 120.077 148.268 121.008 146.036 121.527C146.38 121.712 146.728 121.913 147.073 122.099L147.103 122.09C147.436 122.295 147.761 122.47 148.086 122.644C148.163 122.688 148.222 122.722 148.299 122.767C148.566 122.907 148.833 123.048 149.1 123.189C149.196 123.245 149.293 123.301 149.386 123.341C149.633 123.471 149.881 123.601 150.128 123.73C150.24 123.782 150.341 123.853 150.453 123.905C150.681 124.023 150.929 124.153 151.157 124.271C151.269 124.323 151.385 124.39 151.497 124.442C151.725 124.56 151.969 124.675 152.197 124.793C152.309 124.845 152.425 124.912 152.552 124.959C152.78 125.078 153.024 125.192 153.267 125.307C153.379 125.358 153.491 125.41 153.607 125.477C153.851 125.592 154.098 125.721 154.342 125.836C154.454 125.887 154.546 125.928 154.643 125.984C154.906 126.109 155.169 126.235 155.447 126.356C155.524 126.401 155.613 126.426 155.69 126.471C156.026 126.626 156.362 126.781 156.698 126.936L156.729 126.927C157.088 127.109 157.455 127.256 157.81 127.422L157.841 127.414C158.181 127.584 158.513 127.723 158.841 127.848C158.934 127.888 159.022 127.914 159.1 127.958C159.358 128.069 159.598 128.168 159.852 128.263C159.964 128.315 160.072 128.351 160.184 128.403C160.404 128.491 160.639 128.575 160.859 128.663C160.987 128.71 161.099 128.762 161.222 128.794C161.438 128.867 161.658 128.955 161.858 129.032C161.985 129.08 162.113 129.127 162.24 129.175C162.441 129.252 162.656 129.324 162.853 129.386C162.98 129.434 163.107 129.481 163.231 129.513C163.431 129.59 163.643 129.648 163.839 129.71C163.967 129.757 164.09 129.789 164.217 129.837C164.414 129.899 164.625 129.956 164.822 130.018C164.945 130.05 165.053 130.087 165.176 130.119C165.388 130.176 165.6 130.234 165.811 130.291C165.919 130.328 166.023 130.349 166.131 130.385C166.362 130.454 166.604 130.503 166.836 130.572C166.905 130.586 166.993 130.612 167.063 130.626C167.674 130.772 168.282 130.903 168.866 131.007C168.951 131.017 169.039 131.043 169.124 131.053C169.327 131.08 169.535 131.122 169.723 131.153C169.827 131.174 169.927 131.18 170.046 131.197C170.215 131.217 170.403 131.248 170.572 131.268C170.691 131.286 170.791 131.291 170.906 131.293C171.075 131.313 171.24 131.318 171.389 131.327C171.504 131.329 171.604 131.334 171.723 131.352C171.872 131.36 172.037 131.365 172.187 131.374C172.302 131.376 172.402 131.382 172.512 131.368C172.658 131.362 172.808 131.371 172.953 131.364C173.053 131.37 173.164 131.357 173.259 131.347C173.405 131.341 173.55 131.334 173.692 131.313C173.787 131.303 173.883 131.294 173.994 131.281C174.135 131.259 174.276 131.237 174.418 131.216C174.509 131.191 174.59 131.186 174.685 131.176C174.746 131.16 174.807 131.144 174.868 131.127C175.471 130.998 176.043 130.811 176.571 130.587L175.994 129.598C175.88 129.416 175.781 129.23 175.682 129.044C160.96 103.611 153.199 74.7528 153.181 45.3664C153.186 44.7763 153.171 44.175 153.191 43.5808C152.583 43.6299 151.98 43.7593 151.352 43.9774C151.245 44.0061 151.127 44.0541 151.024 44.0981C150.933 44.1227 150.845 44.1626 150.758 44.2024C150.636 44.2353 150.522 44.2986 150.404 44.3466C150.313 44.3712 150.229 44.4264 150.157 44.4621C150.028 44.5295 149.91 44.5776 149.781 44.645C149.709 44.6808 149.621 44.7207 149.553 44.7717C149.424 44.8391 149.284 44.9259 149.14 44.9974C149.068 45.0331 149 45.0842 148.927 45.1199C148.787 45.2067 148.632 45.2976 148.491 45.3843C148.435 45.416 148.367 45.467 148.31 45.4987C148.158 45.6048 148.007 45.7109 147.84 45.8212C147.783 45.8528 147.73 45.8997 147.689 45.9273C147.522 46.0375 147.36 46.163 147.197 46.2885C147.156 46.316 147.118 46.3589 147.061 46.3905C146.883 46.5201 146.71 46.6649 146.536 46.8098C146.494 46.8373 146.468 46.8608 146.426 46.8883C146.237 47.0373 146.052 47.2015 145.863 47.3504L145.8 47.4167C145.599 47.585 145.415 47.7492 145.219 47.9327L145.181 47.9755C144.985 48.1591 144.774 48.3467 144.567 48.5496L144.536 48.5578C144.333 48.776 144.126 48.9789 143.904 49.1859C143.685 49.4081 143.478 49.611 143.26 49.8333C147.258 53.8123 151.207 57.8534 151.113 63.832L151.129 63.8279Z" fill="#CEA882"/>
<path d="M137.21 106.039C136.539 106.22 136.818 107.257 137.489 107.076C138.16 106.896 137.882 105.859 137.21 106.039Z" fill="white"/>
<path d="M160.462 121.655C159.791 121.835 160.07 122.873 160.741 122.692C161.412 122.512 161.133 121.474 160.462 121.655Z" fill="white"/>
<path d="M156.653 92.4043C157.324 92.2238 157.046 91.1866 156.374 91.3671C155.703 91.5476 155.982 92.5848 156.653 92.4043Z" fill="white"/>
<path d="M136.516 83.0829C135.845 83.2634 136.124 84.3006 136.795 84.1201C137.466 83.9396 137.187 82.9024 136.516 83.0829Z" fill="white"/>
<path d="M146.902 62.0365C146.231 62.217 146.51 63.2542 147.181 63.0737C147.852 62.8933 147.573 61.8561 146.902 62.0365Z" fill="white"/>
<path d="M117.075 90.829C116.404 91.0095 116.683 92.0467 117.354 91.8662C118.025 91.6857 117.746 90.6485 117.075 90.829Z" fill="white"/>
<path d="M118.467 103.85C117.796 104.031 118.075 105.068 118.746 104.887C119.417 104.707 119.138 103.67 118.467 103.85Z" fill="white"/>
<path d="M146.496 54.7529C147.072 53.7312 145.774 52.6738 144.887 53.4519C137.185 60.5117 130.1 71.3306 126.959 81.3018C126.623 82.4227 128.141 83.143 128.818 82.1923C130.395 79.9689 131.922 77.6776 133.422 75.4096C137.702 68.763 142.625 61.5839 146.507 54.7335L146.496 54.7529Z" fill="white"/>
<path d="M126.679 87.5931C127.764 87.1826 128.311 85.9702 127.9 84.885C127.49 83.7999 126.277 83.253 125.192 83.6635C124.107 84.074 123.56 85.2864 123.971 86.3716C124.381 87.4567 125.594 88.0036 126.679 87.5931Z" fill="white"/>
<path d="M200.353 88.1934C201.024 88.0129 200.745 86.9757 200.074 87.1562C199.403 87.3366 199.682 88.3738 200.353 88.1934Z" fill="#3A0505"/>
<path d="M203.211 74.1929C203.882 74.0124 203.603 72.9752 202.932 73.1557C202.261 73.3361 202.54 74.3733 203.211 74.1929Z" fill="#3A0505"/>
<path d="M191.693 66.2663C191.022 66.4467 191.301 67.4839 191.972 67.3035C192.643 67.123 192.364 66.0858 191.693 66.2663Z" fill="#3A0505"/>
<path d="M202.366 51.8817C201.695 52.0622 201.973 53.0994 202.645 52.9189C203.316 52.7385 203.037 51.7013 202.366 51.8817Z" fill="#3A0505"/>
<path d="M217.148 59.6016C217.819 59.4211 217.54 58.3839 216.869 58.5644C216.198 58.7448 216.477 59.782 217.148 59.6016Z" fill="#3A0505"/>
<path d="M222.691 80.2075C223.362 80.027 223.083 78.9898 222.412 79.1703C221.741 79.3508 222.02 80.388 222.691 80.2075Z" fill="#3A0505"/>
<path d="M223.167 93.2949C223.838 93.1144 223.559 92.0772 222.888 92.2577C222.217 92.4382 222.496 93.4754 223.167 93.2949Z" fill="#3A0505"/>
<path d="M213.358 100.12C212.687 100.3 212.966 101.337 213.637 101.157C214.308 100.977 214.029 99.9393 213.358 100.12Z" fill="#3A0505"/>
<path d="M223.37 70.9309C224.041 70.7504 223.762 69.7132 223.091 69.8937C222.42 70.0742 222.699 71.1114 223.37 70.9309Z" fill="#3A0505"/>
<path d="M219.84 92.603C220.511 92.4225 220.233 91.3854 219.561 91.5658C218.89 91.7463 219.169 92.7835 219.84 92.603Z" fill="#3A0505"/>
</g>
<path d="M93.4653 166.934C101.482 154.326 235.511 135.08 251.811 142.845C268.112 150.617 82.6001 184.028 93.4653 166.934Z" fill="#888684"/>
<defs>
<filter id="filter0_d_18_552" x="97.29" y="41.7678" width="136.502" height="99.3647" filterUnits="userSpaceOnUse" color-interpolation-filters="sRGB">
<feFlood flood-opacity="0" result="BackgroundImageFix"/>
<feColorMatrix in="SourceAlpha" type="matrix" values="0 0 0 0 0 0 0 0 0 0 0 0 0 0 0 0 0 0 127 0" result="hardAlpha"/>
<feOffset dy="4"/>
<feGaussianBlur stdDeviation="2"/>
<feComposite in2="hardAlpha" operator="out"/>
<feColorMatrix type="matrix" values="0 0 0 0 0 0 0 0 0 0 0 0 0 0 0 0 0 0 0.25 0"/>
<feBlend mode="normal" in2="BackgroundImageFix" result="effect1_dropShadow_18_552"/>
<feBlend mode="normal" in="SourceGraphic" in2="effect1_dropShadow_18_552" result="shape"/>
</filter>
</defs>
</svg>
