<svg width="844" height="390" viewBox="0 0 844 390" fill="none" xmlns="http://www.w3.org/2000/svg">
<rect x="1" y="-111" width="848" height="499" fill="#FDEAF3"/>
<path d="M773.645 277.223C725.373 286.649 677.101 293.92 627.105 294.728C578.402 295.536 529.699 293.92 480.565 291.766C425.397 289.073 371.953 292.573 316.785 295.805C247.394 299.845 181.882 306.846 111.629 316.541C72.4813 322 35.8851 328.17 0 337.202V411.605H862V260.855C837.519 265.931 813.444 270.938 788.299 275.607C783.558 276.415 778.386 276.415 773.645 277.223Z" fill="#FCC9E0"/>
<path d="M805.539 54.066C800.367 55.0821 794.764 55.8442 789.592 57.1143C782.265 59.1465 774.938 60.9246 767.18 62.4488C763.732 63.2108 760.715 64.2269 757.698 65.497C699.944 89.1211 650.81 110.205 597.366 135.861C574.092 147.038 551.68 156.691 524.958 165.074C480.565 179.045 437.465 192.254 387.9 199.621C352.127 205.209 317.647 205.463 281.012 210.544C255.583 214.1 233.171 218.673 207.311 221.721C175.417 225.785 146.54 230.104 117.232 236.962C113.784 237.724 110.336 237.724 106.888 238.486C85.769 243.313 65.081 247.631 45.255 253.474C29.3252 258.021 14.5419 263.586 0 269.337V336.976C35.8851 328.456 72.4813 322.639 111.629 317.487C181.882 308.343 247.394 301.738 316.785 297.928C371.953 294.879 425.397 291.577 480.565 294.117C529.699 296.149 578.402 297.674 627.105 296.911C677.101 296.149 725.373 289.291 773.645 280.4C778.386 279.638 783.558 279.638 788.299 278.876C813.444 274.471 837.519 269.749 862 264.961V46.5571C846.337 47.7485 830.658 49.6232 814.59 51.7798C811.142 52.0339 808.556 53.304 805.539 54.066Z" fill="#FDEAF3"/>
<path d="M0 -28V193.405C25.0713 191.401 49.4012 192.489 72.408 199.561C85.769 203.87 97.837 208.717 112.06 211.949C112.06 210.602 111.629 209.256 112.06 207.909C121.111 190.404 134.041 174.785 148.695 158.627C157.315 148.932 165.504 140.045 176.279 130.619C192.226 116.346 209.035 105.036 232.74 95.8792C286.184 74.8736 349.972 70.5648 408.157 84.0299C412.467 85.1071 416.346 86.7229 421.087 87.2616C448.671 90.4932 465.911 103.42 488.323 111.499C488.323 110.152 488.754 109.075 489.616 107.998C524.958 75.6815 577.971 60.3313 635.294 50.6364C705.978 39.0564 778.817 44.1731 841.743 66.7945C848.902 69.3045 855.613 72.0917 862 75.0918V-28H0Z" fill="#B9EBF9"/>
<path d="M546.974 341.908C547.673 339.379 548.108 336.715 548.656 334.136C549.189 331.628 549.721 329.118 550.254 326.611C550.788 324.101 551.282 321.581 551.787 319.065C552.253 316.744 553.169 314.046 552.897 311.66C552.778 310.607 551.375 310.631 551.126 311.506C550.562 312.494 550.331 313.701 550.054 314.829C549.737 316.111 549.436 317.401 549.127 318.686C548.549 321.085 547.964 323.482 547.414 325.889C546.862 328.297 546.312 330.707 545.76 333.115C545.173 335.681 544.453 338.261 544.019 340.865C543.651 343.068 546.354 344.148 546.974 341.908Z" fill="#AEDB83"/>
<path d="M564.95 309.726C565.959 306.12 565.003 301.884 561.531 300.78C558.635 299.859 555.76 301.458 553.696 303.807C553.29 301.149 552.176 298.62 550.152 297.133C547.735 295.361 544.417 295.154 542.155 297.384C539.802 299.702 539.322 303.68 539.858 307.019C540.913 313.563 545.86 319.006 551.648 319.526C557.16 320.021 563.207 315.955 564.947 309.729L564.95 309.726Z" fill="#F5B982"/>
<path d="M862 373.292V411.605H0V351.749C98.9705 316.438 243.868 294.165 405.312 294.165C597.525 294.165 766.284 325.737 862 373.292Z" fill="#C5ECA3"/>
<path d="M92.0315 55.9746L94.8114 53.1523L97.113 56.1389L101.634 57.8786L96.8544 59.3167L94.0701 62.139L91.7686 59.1524L87.2517 57.4154L92.0315 55.9746Z" fill="#FEFEFE"/>
<path d="M748.785 209.588L751.569 206.766L753.871 209.752L758.388 211.489L753.608 212.93L750.828 215.752L748.527 212.766L744.005 211.026L748.785 209.588Z" fill="#FEFEFE"/>
<path d="M810.285 85.6927L813.065 82.8677L815.37 85.8542L819.887 87.5939L815.108 89.032L812.328 91.857L810.022 88.8704L805.505 87.1307L810.285 85.6927Z" fill="#FEFEFE"/>
<path d="M150.897 176.31L153.681 173.488L155.983 176.474L160.5 178.211L155.72 179.652L152.94 182.474L150.639 179.488L146.117 177.748L150.897 176.31Z" fill="#B9EBF9"/>
<path d="M229.025 105.982L231.809 103.16L234.111 106.146L238.632 107.883L233.848 109.324L231.068 112.146L228.766 109.16L224.245 107.42L229.025 105.982Z" fill="#B9EBF9"/>
<path d="M677.601 68.6616L680.385 65.8394L682.687 68.8259L687.204 70.5629L682.424 72.0037L679.644 74.826L677.338 71.8394L672.821 70.0997L677.601 68.6616Z" fill="#B9EBF9"/>
<path d="M44.5781 281.018L47.3581 278.196L49.6639 281.182L54.1808 282.922L49.401 284.36L46.6168 287.182L44.3152 284.196L39.7983 282.459L44.5781 281.018Z" fill="#FEFEFE"/>
<path d="M612.115 275.799L614.895 272.977L617.201 275.963L621.717 277.7L616.938 279.141L614.153 281.963L611.852 278.977L607.335 277.237L612.115 275.799Z" fill="#FEFEFE"/>
<path d="M677.485 363.066C677.579 361.973 675.636 361.518 674.274 361.916C669.214 363.392 665.576 365.934 663.675 369.072C661.171 367.332 659.361 365.202 656.486 363.68C653.874 362.296 648.565 360.925 645.384 362.431C637.277 366.268 654.129 372.804 658.43 373.962C667.723 376.459 677.08 367.701 677.489 363.072L677.485 363.066Z" fill="#AEDB83"/>
<path d="M787.799 389.469C787.894 388.375 785.95 387.92 784.588 388.319C779.528 389.794 775.891 392.337 773.99 395.474C771.486 393.734 769.676 391.604 766.801 390.083C764.189 388.698 758.879 387.328 755.698 388.833C747.591 392.671 764.443 399.207 768.745 400.365C778.037 402.861 787.394 394.103 787.803 389.474L787.799 389.469Z" fill="#AEDB83"/>
<path d="M126.236 365.431C126.33 364.338 124.387 363.883 123.025 364.281C117.965 365.757 114.327 368.299 112.426 371.436C109.922 369.697 108.112 367.567 105.237 366.045C102.625 364.661 97.3155 363.29 94.1347 364.795C86.0276 368.633 102.88 375.169 107.181 376.327C116.473 378.823 125.83 370.066 126.24 365.436L126.236 365.431Z" fill="#AEDB83"/>
<path d="M226.387 384.923C226.482 383.83 224.538 383.375 223.176 383.773C218.116 385.249 214.479 387.791 212.578 390.929C210.074 389.189 208.264 387.059 205.389 385.537C202.777 384.153 197.467 382.782 194.286 384.288C186.179 388.125 203.031 394.661 207.333 395.819C216.625 398.316 225.982 389.558 226.392 384.929L226.387 384.923Z" fill="#AEDB83"/>
<path fill-rule="evenodd" clip-rule="evenodd" d="M89.1391 253.751C91.3027 253.306 93.4144 252.618 95.5491 252.016C96.2549 251.819 96.9549 251.576 97.5797 251.379C98.0425 251.796 98.3492 252.068 98.65 252.34C100.935 254.428 103.197 256.54 105.523 258.582C106.211 259.19 107.044 259.681 107.883 260.063C108.878 260.52 109.561 260.219 110.053 259.247C110.261 258.837 110.377 258.374 110.481 257.923C110.892 256.106 110.677 254.33 110.18 252.56C109.856 251.403 109.648 250.211 109.387 249.031C109.798 248.834 110.001 248.724 110.209 248.637C113.026 247.532 115.45 245.808 117.591 243.714C119.992 241.359 118.551 239.15 116.636 238.143C116.179 237.9 115.659 237.755 115.149 237.634C114.016 237.356 112.864 237.148 111.742 236.853C110.463 236.517 109.196 236.118 107.791 235.707C107.762 234.394 107.715 233.237 107.721 232.08C107.739 230.107 107.282 228.244 106.362 226.515C104.771 223.541 103.226 223.396 101.12 226.034C99.4484 228.129 97.5277 230.026 96.2665 232.433C96.1276 232.693 95.9772 232.942 95.8557 233.156C94.3631 232.722 93.1309 232.381 91.9044 232.011C90.325 231.53 88.7283 231.235 87.068 231.397C84.9274 231.606 84.2505 232.618 85.1704 234.597C85.7084 235.742 86.5184 236.766 87.282 237.79C88.0746 238.854 88.9597 239.85 89.8217 240.897C87.9647 244.622 85.4481 247.851 84.4646 251.86C85.7489 253.312 87.282 254.133 89.1449 253.757L89.1391 253.751ZM88.1093 248.765C89.087 246.971 90.1052 245.195 91.187 243.465C92.2515 241.77 92.211 240.521 90.8573 239.045C90.03 238.143 89.1506 237.281 88.3407 236.361C87.7275 235.661 87.1779 234.903 87.1837 233.74C88.3118 233.289 89.4573 233.393 90.5738 233.671C91.9333 234.012 93.2582 234.481 94.6119 234.845C95.497 235.082 96.4053 235.227 97.3946 235.435C99.1012 232.034 101.438 229.326 104.001 226.486C106.194 229.858 105.263 233.393 105.552 236.83C105.887 237.512 106.593 237.738 107.357 237.911C109.81 238.467 112.257 239.022 114.692 239.63C115.34 239.792 115.942 240.145 116.509 240.388C116.602 241.458 116.087 242.054 115.479 242.488C113.721 243.743 111.939 244.958 110.105 246.098C109.596 246.416 108.878 246.398 108.259 246.543C107.224 246.786 106.877 247.226 107.05 248.296C107.241 249.505 107.571 250.691 107.768 251.9C107.999 253.335 108.178 254.775 108.311 256.222C108.352 256.65 108.149 257.095 107.982 257.899C104.105 255.047 101.097 251.802 97.7996 248.632C96.8508 248.944 95.9251 249.251 94.9937 249.546C93.0499 250.153 91.1176 250.795 89.1506 251.339C88.5779 251.495 87.9242 251.362 87.068 251.362C87.4614 250.361 87.6928 249.522 88.1035 248.77L88.1093 248.765Z" fill="#485C70"/>
<path fill-rule="evenodd" clip-rule="evenodd" d="M88.109 248.765C87.6983 249.511 87.4669 250.356 87.0735 251.356C87.9297 251.356 88.5834 251.49 89.1562 251.333C91.1174 250.79 93.0554 250.153 94.9993 249.54C95.9307 249.245 96.8563 248.938 97.8051 248.626C101.108 251.79 104.117 255.036 107.987 257.894C108.155 257.09 108.357 256.644 108.317 256.216C108.184 254.77 108.004 253.323 107.773 251.895C107.576 250.685 107.252 249.499 107.056 248.29C106.888 247.226 107.229 246.78 108.265 246.537C108.884 246.393 109.601 246.41 110.11 246.092C111.944 244.958 113.726 243.737 115.485 242.482C116.092 242.048 116.607 241.452 116.515 240.382C115.942 240.139 115.346 239.786 114.698 239.624C112.262 239.017 109.809 238.461 107.362 237.906C106.599 237.732 105.899 237.512 105.557 236.824C105.268 233.382 106.199 229.853 104.007 226.48C101.438 229.321 99.1068 232.034 97.4001 235.43C96.4109 235.221 95.5026 235.077 94.6174 234.84C93.2637 234.475 91.9389 234.012 90.5793 233.665C89.4628 233.382 88.3173 233.283 87.1892 233.735C87.1892 234.892 87.733 235.655 88.3462 236.355C89.1562 237.275 90.0355 238.137 90.8628 239.04C92.2166 240.515 92.2513 241.765 91.1926 243.46C90.1107 245.189 89.0925 246.966 88.1148 248.759L88.109 248.765Z" fill="#FFDC89"/>
<path fill-rule="evenodd" clip-rule="evenodd" d="M728.376 148.464C729.365 146.804 730.164 145.028 731.037 143.292C731.327 142.714 731.581 142.123 731.824 141.603C732.368 141.551 732.721 141.51 733.079 141.475C735.781 141.227 738.483 141.013 741.179 140.718C741.977 140.631 742.787 140.382 743.528 140.064C744.407 139.688 744.621 139.069 744.28 138.178C744.135 137.802 743.904 137.455 743.672 137.119C742.741 135.783 741.468 134.875 740.022 134.146C739.079 133.671 738.188 133.104 737.274 132.572C737.389 132.19 737.436 131.993 737.505 131.808C738.454 129.332 738.772 126.746 738.68 124.126C738.575 121.181 736.29 120.811 734.508 121.453C734.08 121.609 733.681 121.858 733.299 122.112C732.449 122.679 731.639 123.304 730.783 123.859C729.811 124.49 728.804 125.074 727.711 125.74C726.843 124.982 726.068 124.334 725.321 123.645C724.055 122.471 722.579 121.661 720.919 121.239C718.055 120.51 717.049 121.424 717.511 124.345C717.876 126.659 717.974 129.031 718.784 131.265C718.871 131.508 718.94 131.756 719.01 131.959C717.847 132.67 716.898 133.266 715.932 133.839C714.694 134.579 713.56 135.436 712.681 136.604C711.547 138.114 711.807 139.15 713.63 139.717C714.688 140.047 715.834 140.128 716.944 140.237C718.102 140.353 719.264 140.37 720.45 140.428C721.764 143.83 722.365 147.365 724.378 150.367C726.079 150.396 727.514 149.887 728.365 148.458L728.376 148.464ZM724.54 146.179C723.962 144.49 723.412 142.783 722.932 141.059C722.464 139.37 721.631 138.658 719.878 138.664C718.802 138.664 717.725 138.727 716.655 138.71C715.839 138.693 715.024 138.6 714.277 137.912C714.654 136.917 715.394 136.234 716.233 135.679C717.257 135.002 718.344 134.417 719.374 133.758C720.051 133.324 720.682 132.821 721.399 132.306C720.207 129.193 719.831 126.081 719.513 122.743C722.996 123.316 724.726 126.006 727.126 127.845C727.769 128.031 728.33 127.707 728.891 127.319C730.696 126.064 732.501 124.802 734.335 123.588C734.821 123.264 735.405 123.084 735.897 122.859C736.643 123.431 736.724 124.114 736.649 124.762C736.423 126.636 736.157 128.511 735.81 130.368C735.712 130.883 735.278 131.34 735.006 131.826C734.549 132.636 734.63 133.122 735.423 133.642C736.319 134.232 737.28 134.718 738.176 135.308C739.241 136.008 740.282 136.737 741.295 137.507C741.595 137.732 741.763 138.132 742.185 138.71C738.055 139.532 734.173 139.561 730.175 139.827C729.817 140.625 729.469 141.406 729.111 142.181C728.359 143.801 727.63 145.427 726.82 147.018C726.583 147.481 726.108 147.828 725.605 148.377C725.188 147.533 724.783 146.885 724.54 146.179Z" fill="#485C70"/>
<path fill-rule="evenodd" clip-rule="evenodd" d="M724.541 146.179C724.784 146.885 725.189 147.533 725.605 148.378C726.108 147.822 726.583 147.481 726.82 147.018C727.63 145.427 728.359 143.796 729.111 142.182C729.47 141.406 729.817 140.625 730.175 139.827C734.173 139.561 738.049 139.532 742.186 138.71C741.763 138.126 741.595 137.733 741.295 137.507C740.282 136.738 739.241 136.003 738.176 135.309C737.28 134.719 736.319 134.233 735.423 133.643C734.63 133.122 734.549 132.636 735.006 131.826C735.278 131.34 735.712 130.889 735.81 130.368C736.157 128.511 736.423 126.637 736.649 124.762C736.724 124.114 736.649 123.426 735.897 122.859C735.399 123.084 734.821 123.264 734.335 123.588C732.501 124.803 730.696 126.064 728.891 127.319C728.33 127.713 727.769 128.037 727.127 127.846C724.732 126 722.996 123.316 719.513 122.743C719.837 126.081 720.213 129.194 721.399 132.306C720.682 132.827 720.051 133.33 719.374 133.758C718.339 134.418 717.257 135.002 716.233 135.679C715.388 136.234 714.654 136.917 714.278 137.912C715.024 138.6 715.84 138.693 716.655 138.71C717.731 138.728 718.802 138.67 719.878 138.664C721.631 138.664 722.464 139.376 722.932 141.059C723.412 142.783 723.962 144.484 724.541 146.179Z" fill="#FFDC89"/>
<path fill-rule="evenodd" clip-rule="evenodd" d="M207.409 63.2432C208.346 62.1498 209.162 60.9464 210.018 59.7894C210.301 59.4018 210.568 59.0026 210.811 58.6497C211.216 58.6786 211.482 58.696 211.748 58.7191C213.761 58.8811 215.769 59.0662 217.782 59.1935C218.378 59.2282 219.002 59.153 219.593 59.0142C220.287 58.8522 220.518 58.4241 220.385 57.7298C220.327 57.4348 220.2 57.1513 220.073 56.8736C219.558 55.7744 218.736 54.9471 217.776 54.2298C217.145 53.7612 216.567 53.2289 215.959 52.7256C216.092 52.4595 216.15 52.3206 216.226 52.1992C217.238 50.5041 217.799 48.647 218.065 46.7148C218.366 44.5395 216.735 43.9783 215.346 44.2271C215.016 44.285 214.687 44.418 214.374 44.5569C213.68 44.8635 213.003 45.2164 212.303 45.5172C211.511 45.8585 210.695 46.1536 209.81 46.5065C209.272 45.8412 208.78 45.2627 208.323 44.6668C207.542 43.6428 206.564 42.8618 205.401 42.3411C203.394 41.4444 202.538 41.9882 202.509 44.1866C202.486 45.9337 202.254 47.6809 202.567 49.4222C202.601 49.6132 202.619 49.7983 202.642 49.9603C201.699 50.3363 200.924 50.6487 200.148 50.9495C199.142 51.3314 198.205 51.8173 197.412 52.5636C196.388 53.524 196.446 54.3223 197.713 54.9703C198.448 55.3463 199.275 55.5488 200.079 55.7744C200.912 56.0058 201.768 56.1678 202.63 56.3587C203.162 59.0199 203.157 61.6869 204.244 64.1514C205.488 64.3886 206.605 64.1977 207.415 63.2605L207.409 63.2432ZM204.886 61.0853C204.672 59.772 204.487 58.453 204.354 57.1282C204.227 55.8323 203.706 55.2017 202.422 54.9819C201.635 54.8488 200.837 54.7562 200.05 54.6058C199.454 54.4901 198.87 54.3166 198.407 53.7149C198.812 53.0322 199.437 52.6273 200.125 52.3264C200.964 51.962 201.832 51.6727 202.677 51.314C203.226 51.0826 203.753 50.7933 204.348 50.5041C203.868 48.0685 203.99 45.737 204.181 43.2494C206.663 44.1114 207.588 46.304 209.115 47.9644C209.561 48.1842 210.012 48.0164 210.475 47.8024C211.962 47.1081 213.443 46.4139 214.941 45.7544C215.34 45.5808 215.792 45.523 216.179 45.4189C216.654 45.9337 216.625 46.4486 216.486 46.9114C216.081 48.2594 215.647 49.6016 215.155 50.9206C215.016 51.2851 214.64 51.5628 214.38 51.8868C213.94 52.4248 213.94 52.7892 214.455 53.2752C215.04 53.819 215.682 54.2992 216.26 54.843C216.954 55.491 217.62 56.162 218.268 56.8563C218.459 57.0588 218.534 57.3712 218.765 57.8513C215.63 57.9265 212.783 57.4579 209.816 57.1455C209.451 57.6836 209.098 58.2158 208.734 58.7365C207.976 59.8241 207.235 60.9291 206.437 61.9936C206.206 62.306 205.812 62.4969 205.372 62.8382C205.176 62.1671 204.962 61.6407 204.869 61.0911L204.886 61.0853Z" fill="#485C70"/>
<path fill-rule="evenodd" clip-rule="evenodd" d="M204.887 61.0853C204.973 61.6349 205.193 62.1614 205.39 62.8325C205.83 62.4911 206.223 62.3002 206.454 61.9878C207.247 60.9233 207.993 59.8183 208.751 58.7307C209.116 58.2101 209.463 57.6778 209.833 57.1398C212.801 57.4522 215.647 57.9266 218.783 57.8456C218.546 57.3654 218.476 57.053 218.285 56.8505C217.637 56.1563 216.966 55.4852 216.278 54.8373C215.693 54.2935 215.051 53.8133 214.473 53.2695C213.958 52.7893 213.958 52.419 214.398 51.881C214.658 51.557 215.034 51.2851 215.173 50.9149C215.665 49.5958 216.098 48.2537 216.503 46.9057C216.642 46.4429 216.671 45.928 216.197 45.4131C215.803 45.5172 215.358 45.5751 214.959 45.7487C213.46 46.4082 211.974 47.1024 210.493 47.7966C210.03 48.0107 209.578 48.1785 209.133 47.9586C207.612 46.304 206.68 44.1114 204.198 43.2437C204.007 45.7313 203.892 48.0628 204.366 50.4983C203.77 50.7876 203.244 51.0769 202.694 51.3083C201.849 51.6612 200.982 51.9504 200.143 52.3207C199.454 52.6215 198.824 53.0265 198.425 53.7091C198.887 54.3108 199.472 54.4844 200.068 54.6001C200.854 54.7505 201.647 54.843 202.44 54.9761C203.724 55.1959 204.245 55.8265 204.372 57.1224C204.505 58.4472 204.69 59.7663 204.904 61.0795L204.887 61.0853Z" fill="#FFDC89"/>
<path fill-rule="evenodd" clip-rule="evenodd" d="M90.9769 144.725C91.0116 143.967 91.0521 143.469 91.0521 142.972C91.0753 139.038 92.7877 136.018 96.0448 133.883C97.063 133.218 98.1795 132.68 99.2845 132.153C101.361 131.158 103.473 130.88 105.602 132.043C105.758 132.13 105.978 132.095 106.354 132.142C106.487 131.685 106.632 131.222 106.747 130.753C107.378 128.19 108.338 125.859 110.699 124.343C112.388 123.261 114.153 122.932 116.033 123.649C117.352 124.152 118.625 124.783 119.926 125.35C120.256 125.494 120.597 125.627 121.02 125.795C121.13 125.437 121.251 125.199 121.263 124.962C121.708 117.65 129.588 112.316 136.611 114.491C140.14 115.584 142.564 118.014 144.751 120.762C145.63 121.861 146.307 123.128 147.14 124.418C156.807 124.968 161.447 130.233 161.169 140.079C161.696 140.235 162.222 140.478 162.772 140.548C165.965 140.964 168.852 141.89 170.414 145.187C171.322 144.84 172.103 144.586 172.85 144.25C174.724 143.411 176.668 143.105 178.71 143.377C179.092 143.429 179.485 143.429 179.867 143.434C186.161 143.539 189.708 146.998 190.981 152.778C191.871 156.81 191.802 160.842 189.679 164.637C188.857 166.107 187.81 167.171 186.312 167.964C183.188 169.613 179.925 170.261 176.407 169.919C174.441 169.728 172.624 169.202 170.75 168.108C169.002 176.919 163.165 179.887 154.805 179.401C154.366 180.148 153.891 180.9 153.463 181.681C150.339 187.356 142.685 190.978 135.303 189.254C126.602 187.217 121.066 181.646 116.756 174.351C116.698 174.247 116.577 174.177 116.403 174.009C116.235 174.16 116.033 174.293 115.9 174.478C114.02 177.018 111.387 177.764 108.39 177.648C107.488 177.614 106.585 177.521 105.689 177.486C100.291 177.255 96.5018 174.53 93.9043 169.937C93.8117 169.775 93.6613 169.647 93.4935 169.456C93.1348 169.584 92.7588 169.682 92.4232 169.85C89.2761 171.394 86.1115 171.215 83.1148 169.613C79.4412 167.651 76.2419 164.99 73.627 161.762C71.3823 158.991 70.4683 155.722 71.3071 152.13C71.5848 150.938 71.7989 149.706 72.279 148.589C73.8411 144.915 76.5428 142.734 80.6387 142.382C83.4793 142.133 86.1694 142.474 88.7149 143.793C89.3397 144.117 90.0224 144.331 90.9654 144.707L90.9769 144.725ZM115.159 165.505C115.801 165.922 116.206 166.032 116.293 166.263C116.895 167.808 117.456 169.37 117.982 170.943C118.411 172.216 118.52 173.656 119.203 174.761C123.154 181.16 128.454 185.73 136.148 187.13C139.972 187.825 143.409 187.362 146.706 185.279C150.889 182.641 153.44 179.147 153.076 173.992C153.006 173.014 153.255 172.239 153.984 171.556C155.112 171.852 155.297 172.627 155.309 173.628C155.326 174.756 155.095 175.947 155.893 177.174C159.081 177.162 162.228 176.995 164.866 174.652C167.221 172.557 168.661 170.116 168.314 166.847C168.273 166.465 168.273 166.043 168.407 165.696C168.551 165.314 168.864 165.002 169.211 164.504C169.864 164.932 170.368 165.303 170.912 165.615C171.964 166.228 172.971 167.096 174.111 167.356C178.056 168.259 181.921 168.039 185.508 165.864C186.485 165.274 187.209 164.498 187.729 163.503C189.876 159.396 189.8 155.161 188.198 150.949C186.867 147.455 184.212 145.668 180.422 145.668C180.035 145.668 179.647 145.639 179.265 145.592C176.06 145.176 173.283 146.119 170.842 148.19C170.605 148.392 170.298 148.514 170.044 148.658C168.875 148.427 168.308 147.872 168.389 146.645C168.424 146.125 168.169 145.54 167.909 145.06C167.261 143.886 166.116 143.44 164.872 143.215C163.223 142.914 161.557 142.671 159.914 142.341C158.583 142.069 158.213 141.479 158.41 140.143C158.456 139.824 158.531 139.512 158.606 139.194C159.7 134.34 157.305 129.081 151.635 127.172C150.409 126.761 149.147 126.495 148.199 127.236C148.037 129.718 147.985 131.974 147.69 134.195C147.568 135.098 147.001 135.983 146.469 136.764C146.139 137.25 145.404 137.429 144.942 136.903C144.658 136.579 144.641 136 144.571 135.532C144.548 135.376 144.728 135.19 144.814 135.017C145.983 132.749 146.191 130.331 145.833 127.866C145.294 124.141 143.05 121.416 140.423 118.94C134.864 113.698 127.43 116.145 123.791 122.96C123.588 123.342 123.502 123.834 123.502 124.274C123.502 125.813 123.536 127.351 123.617 128.89C123.652 129.596 123.93 130.337 122.744 130.724C122.379 130.366 121.853 129.99 121.523 129.48C120.042 127.189 117.763 126.229 115.258 125.645C113.759 125.292 112.492 125.743 111.306 126.692C107.789 129.509 108.113 135 110.103 137.597C110.641 138.297 111.295 138.928 111.081 139.952C109.767 139.772 109.71 139.813 109.195 139.113C108.437 138.077 107.743 136.99 107.071 135.896C105.909 133.999 103.866 133.062 101.778 133.721C99.2209 134.531 96.9184 135.815 95.1423 137.898C94.2051 138.997 93.615 140.253 93.372 141.705C93.0596 143.556 93.3084 145.297 94.0489 146.998C94.3902 147.785 94.691 148.595 93.5224 149.162C93.1695 148.942 92.753 148.763 92.429 148.473C89.1777 145.575 85.3826 144.308 81.0495 144.545C79.7941 144.615 78.6891 144.991 77.5957 145.639C74.6047 147.397 73.5807 150.261 73.17 153.414C72.8518 155.844 73.2915 158.239 74.8072 160.217C77.1097 163.22 80.0139 165.609 83.3751 167.327C87.0256 169.196 90.5777 169.109 93.7828 166.211C94.1877 165.846 94.7315 165.644 95.1539 165.395C96.3051 166.425 96.3919 166.442 96.1084 167.599C95.6745 169.393 96.2936 170.683 97.601 171.892C101.494 175.485 106.198 175.797 111.029 175.109C113.956 174.692 115.697 171.632 115.101 168.739C115.009 168.294 114.818 167.86 114.824 167.42C114.829 166.894 114.997 166.373 115.159 165.511V165.505Z" fill="#485C70"/>
<path fill-rule="evenodd" clip-rule="evenodd" d="M167.273 157.105C165.664 163.544 163.055 172.47 155.291 173.263C155.297 173.379 155.303 173.494 155.309 173.616C155.326 174.744 155.095 175.936 155.893 177.162C159.081 177.151 162.228 176.983 164.866 174.64C167.22 172.546 168.661 170.104 168.314 166.836C168.273 166.454 168.273 166.032 168.406 165.684C168.551 165.303 168.863 164.99 169.211 164.493C169.864 164.921 170.368 165.291 170.911 165.603C171.964 166.217 172.971 167.084 174.111 167.345C178.056 168.247 181.921 168.027 185.508 165.852C186.485 165.262 187.208 164.487 187.729 163.492C188.204 162.584 188.568 161.664 188.834 160.744C181.684 162.989 173.457 161.218 167.278 157.099L167.273 157.105Z" fill="#E1D5F3"/>
<path fill-rule="evenodd" clip-rule="evenodd" d="M122.148 166.361C120.412 161.155 120.412 156.527 121.569 151.32C121.049 151.626 120.54 151.956 120.048 152.292C120.175 152.344 120.314 152.396 120.459 152.465C120.43 153.813 120.233 154.965 119.128 155.722C118.052 155.254 117.682 154.797 117.844 153.946C117.346 154.357 116.86 154.779 116.397 155.219C116.652 155.335 116.947 155.514 117.294 155.774C117.184 156.758 117.08 157.765 116.964 158.771C116.849 159.743 117.103 160.837 115.992 161.756C115.593 161.421 115.171 161.242 115.049 160.941C114.529 159.622 114.407 158.279 114.708 156.966C110.161 162.051 107.563 168.571 106.973 175.398C108.304 175.415 109.663 175.305 111.029 175.109C113.956 174.692 115.697 171.632 115.101 168.739C115.009 168.294 114.818 167.86 114.824 167.42C114.829 166.894 114.997 166.373 115.159 165.511C115.801 165.928 116.206 166.037 116.293 166.269C116.895 167.814 117.456 169.376 117.982 170.949C118.411 172.222 118.52 173.662 119.203 174.767C123.154 181.166 128.454 185.736 136.148 187.136C139.972 187.83 143.409 187.368 146.706 185.285C146.816 185.216 146.914 185.146 147.019 185.077C135.946 185.123 126.076 177.729 122.148 166.373V166.361Z" fill="#E1D5F3"/>
<path fill-rule="evenodd" clip-rule="evenodd" d="M83.7799 144.608C82.889 144.516 81.9749 144.493 81.0377 144.545C79.7823 144.614 78.6773 144.99 77.5839 145.638C74.593 147.397 73.569 150.261 73.1582 153.414C72.84 155.843 73.2797 158.239 74.7954 160.217C77.098 163.22 80.0022 165.609 83.3634 167.327C84.046 167.674 84.7229 167.958 85.394 168.16C78.874 162.577 78.3418 151.227 83.7857 144.608H83.7799Z" fill="#E1D5F3"/>
<path fill-rule="evenodd" clip-rule="evenodd" d="M155.644 129.52C154.568 128.525 153.232 127.71 151.629 127.166C150.403 126.755 149.142 126.489 148.193 127.23C148.031 129.682 147.979 131.916 147.689 134.114C150.669 133.362 153.654 131.782 155.65 129.52H155.644Z" fill="#E1D5F3"/>
<path fill-rule="evenodd" clip-rule="evenodd" d="M188.192 150.944C186.861 147.449 184.206 145.662 180.417 145.662C180.029 145.662 179.641 145.633 179.26 145.586C176.055 145.17 173.278 146.113 170.836 148.184C170.599 148.387 170.292 148.508 170.038 148.653C168.869 148.421 168.302 147.866 168.383 146.639C168.418 146.119 168.164 145.534 167.903 145.054C167.255 143.88 166.11 143.434 164.866 143.209C163.217 142.908 161.551 142.665 159.908 142.335C158.577 142.063 158.207 141.473 158.404 140.137C158.45 139.819 158.525 139.506 158.601 139.188C159.382 135.711 158.363 132.032 155.644 129.515C153.654 131.777 150.663 133.356 147.684 134.109C147.684 134.132 147.684 134.161 147.678 134.184C147.557 135.086 146.99 135.971 146.457 136.752C146.128 137.238 145.393 137.418 144.93 136.891C144.647 136.567 144.629 135.989 144.56 135.52C144.537 135.364 144.716 135.179 144.803 135.005C145.971 132.737 146.18 130.319 145.821 127.855C145.283 124.129 143.038 121.404 140.412 118.928C134.852 113.687 127.418 116.134 123.779 122.949C123.577 123.331 123.49 123.822 123.49 124.262C123.49 125.801 123.525 127.34 123.606 128.879C123.64 129.584 123.918 130.325 122.732 130.713C122.368 130.354 121.841 129.978 121.511 129.469C120.03 127.178 117.751 126.217 115.246 125.633C113.748 125.28 112.481 125.732 111.295 126.68C107.777 129.498 108.101 134.988 110.091 137.585C110.629 138.285 111.283 138.916 111.069 139.94C109.756 139.761 109.698 139.801 109.183 139.101C108.425 138.066 107.731 136.978 107.06 135.885C105.897 133.987 103.855 133.05 101.766 133.709C99.2093 134.519 96.9068 135.804 95.1307 137.886C94.1935 138.986 93.6034 140.241 93.3604 141.693C93.048 143.544 93.2968 145.286 94.0373 146.986C94.3786 147.773 94.6794 148.583 93.5108 149.15C93.1579 148.93 92.7414 148.751 92.4174 148.462C89.8719 146.194 86.9909 144.927 83.7801 144.597C78.3419 151.215 78.8742 162.572 85.3884 168.149C88.3215 169.051 91.1562 168.554 93.7654 166.199C94.1703 165.835 94.7142 165.632 95.1365 165.384C96.2877 166.413 96.3745 166.431 96.091 167.588C95.6572 169.381 96.2762 170.671 97.5836 171.88C100.378 174.455 103.583 175.34 106.962 175.386C107.552 168.565 110.149 162.045 114.696 156.954C114.789 156.538 114.928 156.127 115.107 155.716C115.385 155.086 115.772 154.941 116.386 155.207C116.848 154.768 117.334 154.345 117.832 153.935C117.878 153.68 117.971 153.391 118.11 153.049C118.509 152.06 118.925 151.852 120.036 152.286C120.534 151.95 121.037 151.62 121.558 151.314C120.401 156.521 120.401 161.149 122.136 166.355C126.07 177.712 135.934 185.105 147.007 185.059C150.999 182.444 153.417 179.002 153.058 173.98C152.989 173.003 153.238 172.227 153.967 171.545C154.956 171.805 155.216 172.436 155.28 173.257C163.038 172.465 165.647 163.538 167.261 157.099C173.44 161.218 181.666 162.988 188.817 160.744C189.748 157.51 189.43 154.218 188.18 150.938L188.192 150.944ZM123.704 152.506C123.305 153.096 122.767 153.113 122.194 152.737C121.425 152.234 121.425 151.765 122.252 150.643C123.716 151.285 124.144 151.846 123.704 152.506ZM143.981 142.104C143.518 141.768 143.027 141.421 142.645 141.143C142.5 140.206 142.732 139.587 143.518 139.576C143.923 139.57 144.485 139.94 144.716 140.299C145.161 140.999 144.901 141.624 143.987 142.104H143.981ZM168.441 152.963C166.711 152.118 166.671 152.008 167.388 150.649C169.06 151.025 169.182 151.262 168.441 152.963Z" fill="white"/>
<path fill-rule="evenodd" clip-rule="evenodd" d="M115.987 161.756C115.587 161.421 115.165 161.242 115.044 160.941C114.355 159.205 114.355 157.429 115.113 155.728C115.512 154.837 116.114 154.895 117.288 155.774C117.178 156.758 117.074 157.765 116.959 158.771C116.843 159.743 117.097 160.837 115.987 161.756Z" fill="#485C70"/>
<path fill-rule="evenodd" clip-rule="evenodd" d="M120.458 152.465C120.43 153.813 120.233 154.964 119.128 155.722C117.728 155.115 117.52 154.53 118.115 153.061C118.567 151.956 119.024 151.817 120.458 152.465Z" fill="#485C70"/>
<path fill-rule="evenodd" clip-rule="evenodd" d="M143.981 142.104C143.518 141.768 143.027 141.421 142.645 141.144C142.5 140.206 142.732 139.587 143.518 139.576C143.923 139.57 144.484 139.94 144.716 140.299C145.161 140.999 144.901 141.624 143.987 142.104H143.981Z" fill="#485C70"/>
<path fill-rule="evenodd" clip-rule="evenodd" d="M122.252 150.643C123.716 151.285 124.144 151.846 123.704 152.505C123.305 153.096 122.767 153.113 122.194 152.737C121.425 152.234 121.425 151.765 122.252 150.643Z" fill="#485C70"/>
<path fill-rule="evenodd" clip-rule="evenodd" d="M168.441 152.963C166.711 152.118 166.671 152.008 167.388 150.648C169.06 151.024 169.182 151.262 168.441 152.963Z" fill="#485C70"/>
<path fill-rule="evenodd" clip-rule="evenodd" d="M642.124 112.542C641.389 114.961 639.785 116.535 637.496 117.529C635.603 118.354 633.634 118.883 631.59 118.983C627.767 119.173 624.18 118.544 621.406 115.556C621.291 115.431 621.101 115.381 621.091 115.376C620.022 116.645 619.123 117.984 617.963 119.038C614.63 122.072 610.623 122.931 606.236 122.366C603.547 122.022 601.269 120.957 599.625 118.714C599.38 118.379 599.065 118.094 598.63 117.609C597.181 120.308 594.848 121.772 592.359 123.061C589.641 124.465 586.852 125.399 583.719 125.544C580.057 125.719 576.619 124.73 573.126 124.035C569.873 123.386 567.334 121.297 564.921 119.173C560.464 115.251 558.39 110.294 558.905 104.317C558.95 103.798 558.985 103.278 559.035 102.608C548.726 103.703 540.941 100.01 535.544 91.3653C534.884 91.7051 534.3 92.0499 533.68 92.3198C531.117 93.4641 528.503 94.5484 525.655 93.479C523.581 92.6995 521.537 91.8051 519.559 90.8057C518.15 90.1011 517.18 88.8769 516.516 87.4178C513.977 81.8662 514.772 76.5894 517.825 71.5075C518.075 71.0928 518.444 70.733 518.809 70.4032C521.802 67.6699 525.325 66.5056 529.368 66.9053C530.027 66.9703 530.692 67.0103 531.331 67.0552C531.416 66.9103 531.526 66.8104 531.531 66.7055C531.541 66.2757 531.501 65.841 531.506 65.4113C531.546 61.8784 532.231 58.5455 534.42 55.6472C536.798 52.5042 539.911 50.3105 543.484 48.7964C547.721 46.9975 552.074 46.0181 556.631 47.7071C557.006 47.847 557.45 47.7821 558.04 47.827C558 46.268 557.915 44.8089 557.935 43.3448C557.97 40.8463 558.695 38.5527 560.534 36.7988C563.567 33.9006 567.17 32.3315 571.432 32.5164C572.836 32.5764 574.235 32.7213 575.839 32.8462C575.829 32.2516 575.814 31.6569 575.809 31.0673C575.749 24.7712 577.358 18.9647 580.981 13.7829C583.48 10.2101 586.897 7.69663 590.635 5.55295C593.039 4.17379 595.612 3.48921 598.365 3.19439C601.838 2.82462 605.276 3.03948 608.719 3.36428C613.071 3.77403 617.054 5.19316 620.342 8.15635C621.851 9.51551 623.17 11.0846 624.614 12.5137C626.468 14.3476 627.143 16.7011 627.642 19.1446C627.762 19.7292 627.832 20.3239 627.947 21.0834C628.462 20.8286 628.797 20.6987 629.092 20.5088C632.819 18.1102 636.842 17.7005 641.009 18.9497C645.816 20.3889 648.69 24.8111 647.19 29.7281C647.071 30.1079 647.076 30.5276 647.001 31.1223C647.9 30.8874 648.605 30.7125 649.309 30.5226C652.992 29.5282 656.525 29.888 659.918 31.642C662.651 33.0561 664.08 35.2447 663.975 38.3478C663.94 39.3922 663.765 40.4316 663.66 41.4759C663.62 41.8707 663.6 42.2654 663.55 42.8951C664.675 42.5802 665.554 42.3104 666.439 42.0855C672.29 40.6015 677.872 41.2461 682.989 44.5091C685.547 46.1431 687.691 48.2967 689.614 50.6703C691.228 52.6641 692.163 54.8927 692.268 57.4461C692.403 60.6991 692.118 63.8672 690.339 66.7355C689.939 67.3801 689.45 68.0596 689.609 68.9841C690.209 69.089 690.759 69.1489 691.288 69.2739C694.032 69.9435 696.215 71.2677 696.95 74.2309C697.375 75.9498 697.774 77.6737 698.209 79.4876C698.439 79.4826 698.814 79.5276 699.169 79.4527C703.906 78.4783 708.223 79.7724 712.366 81.9311C714.254 82.9155 715.379 84.4896 715.459 86.6532C715.494 87.6326 715.404 88.642 715.199 89.5964C714.524 92.7045 713.35 95.5878 711.421 98.1762C710.002 100.08 708.313 101.519 706.019 102.164C705.08 102.429 704.405 102.928 703.826 103.728C702.622 105.387 700.973 106.451 698.954 106.861C693.697 107.925 688.79 106.986 684.213 104.232C683.643 103.888 683.083 103.518 682.694 103.268C680.955 104.023 679.481 104.892 677.892 105.292C676.258 105.707 674.509 105.667 672.55 105.846C672.345 106.106 671.975 106.596 671.586 107.071C669.522 109.579 667.283 111.998 664.07 112.872C661.232 113.642 658.259 113.907 655.34 114.391C655.221 114.411 655.091 114.391 654.971 114.361C651.053 113.567 646.951 113.482 643.373 111.363C643.223 111.278 643.018 111.288 642.648 111.223C642.438 111.728 642.244 112.113 642.119 112.512L642.124 112.542ZM535.994 74.9704C534.575 73.1815 533.205 71.4575 531.651 69.4987C531.391 69.4338 530.797 69.2989 530.217 69.119C527.049 68.1346 524.116 68.6443 521.383 70.4632C519.689 71.5875 518.869 73.3514 518.185 75.1303C516.695 79.0029 516.79 82.8806 518.684 86.6233C519.034 87.3178 519.514 88.0524 520.123 88.5021C522.177 90.0112 524.456 91.1455 526.969 91.6651C529.827 92.2548 532.326 91.3254 534.599 89.6214C535.179 89.1867 535.784 88.7919 536.583 88.2423C536.988 88.8669 537.423 89.3066 537.588 89.8313C538.322 92.1798 539.851 93.9088 541.73 95.3979C542.744 96.2024 543.729 97.0669 544.808 97.7764C545.838 98.446 546.917 99.1955 548.081 99.4554C550.6 100.02 553.173 100.35 555.737 100.685C558.47 101.039 560.818 99.9901 563.012 98.476C563.552 98.1012 564.146 97.8114 564.636 97.5266C565.645 98.1462 565.491 98.7508 564.901 99.2855C564.306 99.8202 563.677 100.35 562.972 100.72C561.798 101.344 561.393 102.324 561.228 103.568C560.469 109.304 562.307 114.026 566.67 117.779C569.823 120.497 573.301 122.486 577.593 122.771C579.312 122.886 581.001 123.386 582.72 123.501C586.218 123.726 589.371 122.626 592.434 120.957C595.022 119.548 596.766 117.559 597.781 114.846C598.385 113.227 598.965 111.593 599.625 109.994C599.999 109.085 600.454 108.195 600.974 107.361C601.229 106.956 601.718 106.701 602.148 106.341C602.948 107.226 602.618 107.895 602.353 108.59C601.743 110.204 601.199 111.848 600.569 113.457C600.029 114.836 600.424 115.955 601.269 117.07C602.363 118.499 603.712 119.438 605.451 119.963C607.97 120.727 610.493 120.757 612.926 119.943C616.549 118.734 618.883 116.275 619.278 112.303C619.378 111.288 619.637 110.474 621.091 110.514C621.321 110.923 621.636 111.363 621.836 111.853C623 114.681 625.194 116.25 628.102 116.79C631.01 117.329 633.889 117.08 636.637 115.895C638.306 115.176 639.54 114.031 640.02 112.208C640.4 110.763 640.385 109.504 639.095 108.355C636.537 106.071 635.952 102.998 636.082 99.7302C636.122 98.7458 636.512 97.9563 637.786 97.5316C637.981 97.9913 638.251 98.381 638.306 98.7958C638.406 99.5903 638.376 100.4 638.421 101.199C638.581 104.053 639.89 106.256 642.234 107.86C645.237 109.919 648.48 111.363 652.162 111.628C652.287 111.638 652.417 111.638 652.527 111.678C655.59 112.707 658.643 112.033 661.682 111.553C665.884 110.888 668.532 108.095 670.676 104.722C670.976 104.252 670.891 103.538 670.996 102.858C673.584 101.139 673.319 98.411 673.269 95.7626C673.255 94.9282 673.19 94.0987 673.15 93.2992C674.779 93.0643 675.073 93.1793 675.343 94.4435C675.823 96.6521 675.808 98.8558 675.008 101.014C674.734 101.754 674.469 102.504 674.129 103.448C675.953 104.118 677.552 103.818 678.991 102.948C680.395 102.104 681.659 101.024 683.014 100.025C683.328 100.19 683.703 100.265 683.843 100.48C685.617 103.313 688.505 104.262 691.503 104.842C693.667 105.262 695.881 105.547 698.129 105.092C701.607 104.392 703.171 101.509 703.406 98.3661C703.451 97.7664 703.406 97.1618 703.406 96.5972C705.075 96.2674 705.515 96.5322 705.64 97.9213C705.705 98.6509 705.64 99.3904 705.64 100.195C706.664 100.475 707.354 99.9401 708.018 99.4254C709.822 98.0263 711.061 96.1474 711.951 94.1137C712.665 92.4897 713.095 90.7107 713.435 88.9618C713.985 86.1186 713.1 84.5395 710.527 83.2353C708.353 82.136 706.044 81.4914 703.656 81.0916C701.067 80.6569 698.624 81.2266 696.235 82.151C695.551 82.4158 694.876 82.9055 694.292 81.7462C697.105 78.6331 695.906 75.3551 693.642 72.8367C690.789 69.6686 687.341 71.0328 684.308 73.0516C684.028 72.8817 683.843 72.8167 683.728 72.6868C683.613 72.5569 683.568 72.367 683.183 71.7973C683.628 71.5875 684.123 71.4426 684.513 71.1527C688.61 68.1046 690.269 63.9172 690.269 58.9202C690.269 55.7072 689 53.1088 686.891 50.7452C682.904 46.273 678.186 43.2049 672.05 43.005C668.742 42.9001 665.559 43.7895 662.661 45.4385C661.991 45.8183 661.477 46.4978 660.957 47.0925C660.272 47.867 659.708 48.7715 658.668 49.0463C657.964 48.7165 658.024 48.2868 658.344 47.802C659.118 46.6228 659.898 45.4435 660.672 44.2642C661.767 42.6002 662.066 40.7364 662.116 38.7826C662.186 36.1142 660.932 34.3603 658.569 33.236C654.196 31.1622 649.964 31.4371 645.806 33.8256C645.362 34.0805 644.837 34.1954 644.142 34.4502C644.087 33.7756 643.942 33.3509 644.037 32.9861C644.257 32.1516 644.557 31.3371 644.887 30.5376C646.726 26.0454 644.642 22.3327 640.345 20.8036C637.626 19.8342 634.838 19.8592 632.15 20.8186C629.991 21.5881 628.242 22.8873 627.867 25.4557C627.657 26.8949 627.253 27.4445 626.363 28.324C625.444 27.9792 625.759 27.2746 625.874 26.625C626.363 23.8867 625.889 21.1983 625.389 18.53C624.809 15.4469 622.626 13.3632 620.562 11.2295C616.619 7.15196 611.772 5.24813 606.136 5.00328C602.858 4.85837 599.595 4.62352 596.337 5.17818C595.367 5.34307 594.358 5.50796 593.478 5.91271C588.921 8.01642 584.934 10.8497 582 15.0171C579.887 18.0153 578.912 21.4532 578.078 24.9461C577.258 28.374 577.453 31.8118 578.023 35.2497C578.148 35.9993 578.488 36.8338 577.478 37.4634C577.263 37.2435 576.974 37.0686 576.874 36.8238C576.289 35.4146 575.115 34.7351 573.745 34.4802C569.593 33.7057 565.755 34.3053 562.522 37.3035C560.933 38.7826 560.214 40.6514 560.039 42.7351C559.859 44.9038 560.019 47.0675 560.708 49.1462C561.028 50.1106 561.003 50.8402 559.764 51.2599C559.089 50.9151 558.33 50.5254 557.57 50.1456C553.338 48.0519 549.066 48.3867 544.808 50.0257C542.185 51.0351 539.871 52.5491 537.783 54.438C535.099 56.8765 534.015 60.0146 533.695 63.5024C533.625 64.237 533.65 64.9865 533.68 65.7261C533.775 68.1646 534.49 70.3382 536.423 71.9772C537.078 72.5319 537.788 73.0815 537.563 74.3058C537.153 74.4757 536.673 74.6806 536.004 74.9654L535.994 74.9704Z" fill="#485C70"/>
<path fill-rule="evenodd" clip-rule="evenodd" d="M540.671 82.4553C547.167 98.4455 566.155 88.9513 578.648 86.9525C573.746 99.8796 583.16 113.596 594.828 119.243C594.123 119.882 593.334 120.447 592.429 120.942C589.366 122.611 586.213 123.71 582.715 123.485C580.996 123.375 579.307 122.871 577.588 122.756C573.296 122.471 569.823 120.482 566.665 117.764C562.298 114.006 560.459 109.284 561.223 103.552C561.388 102.303 561.793 101.329 562.967 100.704C563.667 100.334 564.301 99.8047 564.896 99.27C565.486 98.7353 565.646 98.1307 564.631 97.5111C564.136 97.7959 563.547 98.0857 563.007 98.4605C560.813 99.9796 558.465 101.024 555.732 100.669C553.168 100.334 550.595 100.01 548.076 99.4399C546.917 99.1801 545.833 98.4305 544.803 97.7609C543.719 97.0563 542.74 96.1919 541.725 95.3824C539.851 93.8983 538.322 92.1693 537.583 89.8158C537.418 89.2911 536.983 88.8514 536.578 88.2268C535.779 88.7814 535.174 89.1762 534.595 89.6059C532.321 91.3099 529.827 92.2393 526.964 91.6497C524.451 91.13 522.177 89.9957 520.118 88.4866C519.504 88.0369 519.029 87.3023 518.679 86.6077C517.05 83.3947 516.755 80.0818 517.65 76.7588C523.596 82.0955 532.371 83.8295 540.676 82.4453L540.671 82.4553Z" fill="#E1D5F3"/>
<path fill-rule="evenodd" clip-rule="evenodd" d="M684.583 90.4503C687.081 95.4472 693.078 98.9451 698.574 96.9463C702.072 95.9469 702.572 90.95 705.07 87.4521C705.07 88.4515 705.57 89.9506 706.07 90.4503C708.413 91.3498 710.692 91.4697 712.93 91.1399C712.666 92.1543 712.356 93.1586 711.941 94.1031C711.052 96.1368 709.812 98.0157 708.008 99.4148C707.349 99.9295 706.654 100.464 705.63 100.184C705.63 99.3749 705.69 98.6353 705.63 97.9107C705.51 96.5266 705.07 96.2568 703.396 96.5866C703.396 97.1562 703.436 97.7558 703.396 98.3555C703.166 101.499 701.597 104.382 698.119 105.081C695.871 105.531 693.662 105.251 691.494 104.832C688.495 104.252 685.607 103.302 683.833 100.469C683.693 100.249 683.319 100.179 683.004 100.014C681.65 101.014 680.385 102.093 678.981 102.938C677.542 103.807 675.943 104.107 674.119 103.437C674.459 102.493 674.724 101.743 674.999 101.004C675.303 100.189 675.488 99.3698 675.583 98.5404C679.536 97.3311 682.434 93.8932 684.583 90.4553V90.4503Z" fill="#E1D5F3"/>
<path fill-rule="evenodd" clip-rule="evenodd" d="M627.473 26.8651C627.648 26.4904 627.767 26.0506 627.852 25.456C628.227 22.8876 629.976 21.5884 632.135 20.8188C634.823 19.8594 637.611 19.8394 640.33 20.8038C641.819 21.3335 643.033 22.133 643.923 23.1274C639.335 23.1924 634.803 24.1118 630.621 25.9907C629.571 26.3405 628.527 26.6852 627.478 26.8651H627.473Z" fill="#E1D5F3"/>
<path fill-rule="evenodd" clip-rule="evenodd" d="M517.645 76.7695C523.591 82.1062 532.366 83.8401 540.671 82.456C547.167 98.4462 566.155 88.952 578.647 86.9532C573.745 99.8803 583.16 113.597 594.827 119.243C596.137 118.049 597.116 116.6 597.776 114.831C598.26 113.537 598.73 112.233 599.235 110.944C599.36 110.624 599.485 110.299 599.62 109.979C599.994 109.07 600.449 108.18 600.969 107.346C601.224 106.941 601.713 106.686 602.143 106.326C602.943 107.211 602.613 107.88 602.348 108.575C601.923 109.694 601.533 110.824 601.124 111.953C606.91 114.351 614.71 111.963 616.629 105.442C622.755 107.741 631.815 110.029 637.516 106.476C636.287 104.497 635.982 102.164 636.082 99.7154C636.122 98.731 636.512 97.9415 637.786 97.5168C637.981 97.9765 638.251 98.3663 638.306 98.781C638.406 99.5755 638.376 100.385 638.421 101.185C638.501 102.569 638.851 103.798 639.46 104.882C640.105 106.032 641.029 107.021 642.233 107.845C645.237 109.904 648.48 111.348 652.162 111.613C652.287 111.623 652.417 111.623 652.527 111.663C655.275 112.583 658.014 112.138 660.737 111.688C661.052 111.638 661.367 111.583 661.676 111.533C665.879 110.869 668.527 108.075 670.671 104.702C670.971 104.233 670.886 103.518 670.991 102.839C673.579 101.12 673.314 98.3912 673.264 95.7429C673.249 94.9084 673.184 94.0789 673.144 93.2794C674.773 93.0445 675.068 93.1594 675.338 94.4237C675.638 95.7978 675.743 97.172 675.588 98.5312C679.541 97.3219 682.439 93.884 684.587 90.4461C687.086 95.4431 693.082 98.9409 698.579 96.9421C702.077 95.9428 702.576 90.9458 705.075 87.448C705.075 88.4473 705.575 89.9464 706.074 90.4461C708.418 91.3456 710.696 91.4655 712.935 91.1357C713.12 90.4111 713.285 89.6766 713.425 88.947C713.865 86.6634 713.38 85.1893 711.836 84.025C711.461 83.7402 711.021 83.4754 710.522 83.2205C708.348 82.1212 706.039 81.4766 703.651 81.0769C701.062 80.6421 698.619 81.2118 696.23 82.1362C695.546 82.4011 694.871 82.8908 694.287 81.7315C697.1 78.6184 695.901 75.3404 693.637 72.8219C690.784 69.6539 687.336 71.018 684.303 73.0368C684.023 72.8669 683.838 72.8019 683.723 72.672C683.608 72.5421 683.563 72.3522 683.178 71.7825C683.373 71.6926 683.578 71.6077 683.778 71.5277C685.922 60.3196 679.9 48.237 670.016 43.0652C667.438 43.3 664.959 44.1195 662.661 45.4287C661.991 45.8085 661.477 46.4881 660.957 47.0827C660.272 47.8572 659.708 48.7617 658.668 49.0365C657.964 48.7067 658.024 48.277 658.344 47.7923C659.118 46.613 659.898 45.4337 660.672 44.2544C661.417 43.1201 661.786 41.8909 661.971 40.6117C662.056 40.012 662.101 39.3974 662.116 38.7778C662.186 36.1094 660.932 34.3555 658.568 33.2312C654.196 31.1575 649.964 31.4323 645.806 33.8208C645.362 34.0757 644.837 34.1906 644.142 34.4454C644.087 33.7708 643.942 33.3461 644.037 32.9813C644.257 32.1468 644.557 31.3323 644.887 30.5328C646.091 27.5946 645.606 25.0012 643.937 23.1224C639.35 23.1873 634.818 24.1068 630.636 25.9856C629.586 26.3354 628.542 26.6802 627.492 26.8601C627.248 27.3948 626.893 27.8045 626.368 28.3242C625.449 27.9794 625.764 27.2748 625.878 26.6252C626.368 23.8869 625.893 21.1986 625.394 18.5302C624.814 15.4471 622.63 13.3634 620.567 11.2297C616.624 7.15217 611.777 5.24834 606.141 5.00349C602.863 4.85858 599.6 4.62373 596.342 5.17839C595.372 5.34328 594.363 5.50817 593.483 5.91292C588.926 8.01663 584.939 10.8499 582.005 15.0173C579.892 18.0155 578.917 21.4534 578.083 24.9463C577.263 28.3742 577.458 31.8121 578.028 35.25C578.153 35.9995 578.492 36.834 577.483 37.4636C577.268 37.2437 576.978 37.0688 576.878 36.824C576.294 35.4148 575.12 34.7353 573.75 34.4804C569.598 33.7059 565.76 34.3055 562.527 37.3037C560.938 38.7828 560.219 40.6516 560.044 42.7354C559.864 44.904 560.024 47.0677 560.713 49.1464C561.033 50.1108 561.008 50.8404 559.769 51.2601C559.094 50.9153 558.335 50.5256 557.575 50.1458C553.343 48.0521 549.071 48.3869 544.813 50.0259C542.19 51.0353 539.876 52.5493 537.787 54.4382C535.104 56.8767 534.02 60.0148 533.7 63.5026C533.63 64.2372 533.655 64.9867 533.685 65.7263C533.78 68.1648 534.494 70.3384 536.428 71.9774C537.083 72.5321 537.792 73.0817 537.568 74.306C537.158 74.4759 536.678 74.6808 536.009 74.9656C534.589 73.1767 533.22 71.4527 531.666 69.4939C531.406 69.429 530.812 69.2941 530.232 69.1142C527.064 68.1298 524.131 68.6395 521.397 70.4584C519.704 71.5827 518.884 73.3466 518.199 75.1255C517.99 75.6752 517.815 76.2198 517.67 76.7695H517.645ZM672.315 88.1425C672.54 87.7827 672.95 87.393 673.349 87.308C674.134 87.1431 674.634 87.5429 674.649 88.4323C674.174 89.1719 673.509 89.3867 672.755 89.012C672.505 88.8871 672.215 88.2874 672.31 88.1375L672.315 88.1425ZM650.588 52.5943C651.458 50.8504 652.687 50.2458 654.236 50.8954C653.806 52.2495 653.382 52.6543 652.147 53.0391C651.518 53.2339 650.938 53.3289 650.588 52.5893V52.5943ZM645.926 53.139C646.361 51.3101 647.305 50.6305 648.974 50.9553C649.459 51.8897 648.869 52.4544 648.18 52.8791C647.5 53.3039 646.766 53.9385 645.926 53.139ZM642.843 51.0703C643.488 50.9853 643.857 51.3701 643.907 52.0297C643.308 52.7525 642.59 52.8891 641.754 52.4394C641.669 51.6399 642.089 51.1702 642.843 51.0703ZM639.625 89.1769C638.516 91.4205 638.311 91.5704 636.542 91.4355C636.372 90.0564 636.987 88.932 638.116 88.4573C638.915 88.1175 639.38 88.4373 639.63 89.1769H639.625ZM637.676 92.4449C638.356 91.8553 638.985 91.8752 639.655 92.6548C638.965 95.0533 638.346 95.6679 636.572 95.8378C635.982 94.7385 636.352 93.5992 637.681 92.4449H637.676ZM582.465 41.8409C582.915 41.756 583.469 41.651 584.084 41.5411C584.394 42.1557 584.629 42.6254 584.974 43.305C584.379 43.7148 583.854 44.0745 583.24 44.4993C582.595 43.6098 581.955 43.0152 582.47 41.8459L582.465 41.8409ZM570.927 61.4589C571.317 60.8693 571.996 60.9392 572.946 61.6788C572.291 62.8131 571.757 63.1079 571.167 62.7081C570.692 62.3833 570.617 61.9236 570.927 61.4539V61.4589ZM568.179 55.9872C568.773 56.0322 569.318 56.0722 569.803 56.1122C570.617 58.8755 570.327 59.675 568.529 59.7949C567.879 58.6456 567.809 57.4314 568.179 55.9872ZM563.592 54.2033C565.301 53.5038 566.01 54.1184 566.315 56.6618C565.895 56.8217 565.435 56.9966 564.896 57.2015C564.176 56.1971 563.482 55.3776 563.592 54.2033Z" fill="white"/>
<path fill-rule="evenodd" clip-rule="evenodd" d="M670.007 43.0698C670.681 43.0098 671.356 42.9798 672.04 42.9998C678.177 43.1997 682.894 46.2628 686.881 50.7401C688.99 53.1036 690.264 55.702 690.259 58.9151C690.259 63.907 688.595 68.0994 684.503 71.1476C684.283 71.3125 684.028 71.4274 683.773 71.5373C685.917 60.3292 679.896 48.2466 670.012 43.0748L670.007 43.0698Z" fill="#E1D5F3"/>
<path fill-rule="evenodd" clip-rule="evenodd" d="M616.624 105.441C622.751 107.74 631.81 110.029 637.512 106.476C637.926 107.14 638.446 107.765 639.091 108.34C640.38 109.489 640.395 110.743 640.015 112.192C639.535 114.016 638.301 115.16 636.632 115.88C633.884 117.064 631.001 117.314 628.097 116.774C625.189 116.235 622.995 114.666 621.831 111.838C621.631 111.348 621.316 110.908 621.087 110.498C619.632 110.458 619.373 111.273 619.273 112.287C618.878 116.26 616.544 118.718 612.922 119.928C610.488 120.742 607.965 120.712 605.446 119.948C603.707 119.423 602.358 118.483 601.264 117.054C600.414 115.94 600.024 114.821 600.564 113.442C600.759 112.947 600.939 112.452 601.124 111.952C606.91 114.351 614.71 111.962 616.629 105.441H616.624Z" fill="#E1D5F3"/>
<path fill-rule="evenodd" clip-rule="evenodd" d="M639.655 92.6493C638.99 91.8698 638.356 91.8498 637.676 92.4395C636.347 93.5938 635.977 94.7331 636.567 95.8324C638.346 95.6625 638.96 95.0479 639.65 92.6493H639.655Z" fill="#485C70"/>
<path fill-rule="evenodd" clip-rule="evenodd" d="M568.179 55.9863C567.809 57.4304 567.879 58.6447 568.529 59.794C570.327 59.6741 570.612 58.8746 569.803 56.1113C569.318 56.0763 568.773 56.0313 568.179 55.9863Z" fill="#485C70"/>
<path fill-rule="evenodd" clip-rule="evenodd" d="M636.542 91.4352C638.316 91.5701 638.516 91.4201 639.625 89.1765C639.375 88.442 638.911 88.1222 638.111 88.457C636.987 88.9317 636.367 90.051 636.537 91.4352H636.542Z" fill="#485C70"/>
<path fill-rule="evenodd" clip-rule="evenodd" d="M654.236 50.9001C652.687 50.2505 651.463 50.8502 650.588 52.5991C650.933 53.3387 651.513 53.2437 652.147 53.0488C653.387 52.6641 653.806 52.2593 654.236 50.9051V50.9001Z" fill="#485C70"/>
<path fill-rule="evenodd" clip-rule="evenodd" d="M564.901 57.2012C565.435 56.9963 565.9 56.8214 566.32 56.6615C566.015 54.1231 565.306 53.5035 563.597 54.203C563.492 55.3773 564.181 56.1968 564.901 57.2012Z" fill="#485C70"/>
<path fill-rule="evenodd" clip-rule="evenodd" d="M648.97 50.9551C647.306 50.6303 646.356 51.3099 645.921 53.1388C646.761 53.9383 647.49 53.3037 648.175 52.879C648.865 52.4492 649.454 51.8896 648.97 50.9551Z" fill="#485C70"/>
<path fill-rule="evenodd" clip-rule="evenodd" d="M584.973 43.3001C584.634 42.6205 584.394 42.1508 584.084 41.5361C583.469 41.6511 582.915 41.756 582.465 41.836C581.955 43.0102 582.59 43.5999 583.235 44.4893C583.849 44.0646 584.374 43.6998 584.969 43.2951L584.973 43.3001Z" fill="#485C70"/>
<path fill-rule="evenodd" clip-rule="evenodd" d="M674.649 88.4367C674.634 87.5472 674.134 87.1425 673.349 87.3124C672.95 87.3973 672.54 87.7871 672.315 88.1469C672.22 88.2968 672.51 88.8964 672.76 89.0213C673.514 89.3961 674.174 89.1812 674.654 88.4417L674.649 88.4367Z" fill="#485C70"/>
<path fill-rule="evenodd" clip-rule="evenodd" d="M572.946 61.6783C571.996 60.9387 571.317 60.8688 570.927 61.4584C570.617 61.9281 570.692 62.3878 571.167 62.7126C571.756 63.1124 572.291 62.8125 572.946 61.6832V61.6783Z" fill="#485C70"/>
<path fill-rule="evenodd" clip-rule="evenodd" d="M643.907 52.0292C643.862 51.3696 643.493 50.9848 642.843 51.0698C642.089 51.1697 641.669 51.6344 641.754 52.4389C642.59 52.8887 643.308 52.7521 643.907 52.0292Z" fill="#485C70"/>
<path fill-rule="evenodd" clip-rule="evenodd" d="M477.956 156.539C479.385 156.354 480.791 156.007 482.208 155.723C482.677 155.625 483.146 155.503 483.556 155.411C483.84 155.706 484.025 155.897 484.204 156.088C485.593 157.557 486.958 159.038 488.37 160.479C488.792 160.907 489.307 161.266 489.833 161.555C490.458 161.902 490.915 161.734 491.28 161.132C491.436 160.878 491.534 160.577 491.621 160.288C491.98 159.125 491.922 157.962 491.685 156.782C491.528 156.013 491.453 155.226 491.343 154.451C491.621 154.341 491.754 154.277 491.899 154.236C493.785 153.658 495.445 152.651 496.938 151.39C498.615 149.979 497.782 148.469 496.585 147.717C496.295 147.537 495.966 147.416 495.642 147.312C494.919 147.074 494.178 146.883 493.461 146.64C492.645 146.357 491.841 146.039 490.95 145.703C490.996 144.847 491.019 144.095 491.077 143.343C491.181 142.059 490.979 140.826 490.464 139.658C489.573 137.644 488.578 137.477 487.08 139.091C485.894 140.369 484.551 141.515 483.614 143.019C483.516 143.181 483.4 143.337 483.313 143.47C482.365 143.117 481.578 142.834 480.803 142.533C479.802 142.145 478.778 141.873 477.69 141.897C476.284 141.926 475.798 142.556 476.302 143.887C476.591 144.656 477.071 145.362 477.522 146.068C477.985 146.797 478.512 147.485 479.021 148.208C477.632 150.54 475.839 152.518 475 155.075C475.764 156.082 476.724 156.689 477.95 156.533L477.956 156.539ZM477.528 153.241C478.251 152.125 478.998 151.02 479.784 149.944C480.56 148.891 480.594 148.075 479.784 147.051C479.287 146.421 478.76 145.819 478.28 145.183C477.916 144.697 477.598 144.176 477.655 143.424C478.413 143.187 479.148 143.308 479.865 143.545C480.733 143.835 481.572 144.205 482.434 144.506C482.995 144.702 483.579 144.841 484.216 145.021C485.494 142.892 487.143 141.243 488.948 139.519C490.209 141.821 489.434 144.072 489.457 146.322C489.642 146.785 490.088 146.964 490.58 147.109C492.147 147.589 493.715 148.069 495.266 148.584C495.676 148.723 496.052 148.978 496.411 149.169C496.423 149.869 496.058 150.233 495.642 150.482C494.438 151.211 493.218 151.917 491.974 152.565C491.627 152.744 491.164 152.698 490.753 152.761C490.071 152.865 489.822 153.137 489.88 153.843C489.949 154.636 490.099 155.422 490.169 156.221C490.25 157.164 490.296 158.113 490.314 159.061C490.314 159.339 490.163 159.623 490.018 160.137C487.635 158.095 485.836 155.839 483.846 153.617C483.215 153.774 482.596 153.93 481.977 154.074C480.681 154.375 479.397 154.699 478.089 154.96C477.707 155.035 477.291 154.913 476.736 154.873C477.042 154.242 477.233 153.704 477.534 153.241H477.528Z" fill="#485C70"/>
<path fill-rule="evenodd" clip-rule="evenodd" d="M477.528 153.242C477.227 153.711 477.031 154.243 476.73 154.874C477.285 154.914 477.707 155.036 478.083 154.96C479.385 154.7 480.675 154.382 481.971 154.075C482.59 153.931 483.203 153.774 483.84 153.618C485.83 155.84 487.629 158.096 490.013 160.138C490.157 159.623 490.313 159.34 490.308 159.062C490.29 158.113 490.244 157.164 490.163 156.222C490.094 155.429 489.937 154.642 489.874 153.844C489.816 153.144 490.059 152.872 490.747 152.762C491.158 152.698 491.621 152.745 491.968 152.565C493.218 151.917 494.433 151.211 495.636 150.483C496.052 150.228 496.417 149.864 496.405 149.169C496.047 148.984 495.676 148.724 495.26 148.585C493.704 148.07 492.142 147.59 490.574 147.11C490.088 146.959 489.642 146.78 489.451 146.323C489.428 144.073 490.209 141.822 488.942 139.52C487.137 141.244 485.489 142.892 484.21 145.021C483.574 144.842 482.989 144.703 482.428 144.506C481.566 144.206 480.727 143.835 479.86 143.546C479.148 143.309 478.407 143.187 477.65 143.425C477.592 144.177 477.91 144.703 478.274 145.183C478.755 145.82 479.287 146.421 479.779 147.052C480.588 148.076 480.548 148.892 479.779 149.945C478.992 151.015 478.245 152.12 477.522 153.242H477.528Z" fill="#FFDC89"/>
<g clip-path="url(#clip0_8_4467)">
<path d="M114.947 270.583C114.947 270.583 121.561 271.569 119.795 274.382C118.029 277.195 114.146 272.579 114.146 272.579L114.947 270.583Z" fill="#F75263"/>
<path d="M82.3618 333.104C82.3618 333.104 84.6191 337.632 84.4554 341.837C84.4554 341.672 76.4027 341.837 76.4027 341.837C76.4027 341.837 75.4378 332.781 75.9173 332.781C76.3968 332.781 82.3618 333.104 82.3618 333.104Z" fill="#008787"/>
<path d="M82.3033 340.386C82.3033 340.386 82.3033 337.96 83.5899 337.796C83.7302 337.778 83.8706 337.808 84.0168 337.872C84.3033 339.123 84.5022 340.498 84.4495 341.837C84.4495 341.725 80.6951 341.766 78.315 341.801C78.163 340.92 78.2214 339.945 78.9232 339.247C80.5314 337.632 82.3033 340.38 82.3033 340.38V340.386Z" fill="#D8CABF"/>
<path d="M111.187 327.284C111.187 327.284 115.859 328.253 116.66 330.678C117.467 333.104 118.701 337.473 118.701 337.473L109.362 340.168C109.362 340.168 108.286 334.724 107.806 334.078C107.321 333.432 103.777 332.299 103.777 332.299L111.187 327.284Z" fill="#008787"/>
<path d="M40.9698 312.567C43.5488 313.054 36.6189 323.566 40.0049 330.197C43.385 336.827 57.0752 327.284 60.1395 320.33C63.198 313.377 72.3794 295.26 83.6543 295.101C94.9292 294.937 97.6661 309.008 105.075 307.716C109.04 307.023 109.263 300.598 108.456 294.132C107.649 287.66 102.818 269.384 104.268 263.887C105.713 258.385 110.707 258.062 114.087 258.385C117.467 258.708 118.438 261.456 121.497 260.81C124.555 260.164 128.099 261.133 128.421 265.984C128.503 267.223 128.122 268.515 127.403 269.754C124.485 270.647 119.707 271.669 116.017 270.289C117.321 273.407 119.029 274.811 120.643 275.363C119.052 276.015 117.356 276.379 115.695 276.338C113.766 285.393 124.538 303.722 120.368 317.418C116.181 331.166 104.099 331.812 103.619 333.427C103.134 335.042 107.649 342.97 107.649 342.97C107.649 342.97 102.654 346.206 98.3094 345.395C96.7012 345.231 93.3152 335.37 93.3152 335.37L79.4671 334.883L78.8238 344.908C78.8238 344.908 72.0577 347.175 68.9992 343.774C68.9992 343.939 69.163 333.421 69.163 333.421C69.163 333.421 45.4903 347.004 36.9522 338.113C28.4142 329.216 38.4025 312.073 40.9815 312.561L40.9698 312.567Z" fill="#5C98CD"/>
<path d="M106.613 265.279C105.584 267.2 106.146 269.513 107.865 270.441C109.584 271.369 111.812 270.565 112.841 268.644C113.871 266.724 113.309 264.41 111.59 263.482C109.871 262.554 107.643 263.359 106.613 265.279Z" fill="#73C4E3"/>
<path d="M46.7243 336.105C48.8354 336.017 50.6892 335.394 52.4144 334.496C52.7068 334.437 53.005 334.372 53.2974 334.296C56.5723 333.409 58.4261 330.872 61.0343 328.917C62.4554 327.854 64.239 327.026 66.046 327.19C68.1922 327.384 69.6075 329.028 69.8882 331.101C70.1396 332.945 69.777 334.877 69.7595 336.733C69.742 338.536 69.7361 340.451 70.087 342.23C70.28 343.211 70.5724 344.468 71.7186 344.438C72.9934 344.403 73.8882 343.405 74.4613 342.33C76.2157 339.018 75.7069 335.106 76.1397 331.53C76.6309 327.448 79.8064 324.189 83.9292 323.813C87.5433 323.484 91.2801 325.992 91.9526 329.615C89.7421 327.296 85.59 326.761 82.7421 327.883C80.4672 328.776 79.1865 330.978 79.204 333.409C79.204 334.073 79.2976 334.713 79.4379 335.341L78.8297 344.832C78.8122 344.867 78.7947 344.896 78.7771 344.932C78.2099 345.114 71.9174 347.028 68.9993 343.786C68.9993 343.951 69.163 333.433 69.163 333.433C69.163 333.433 67.5665 334.349 65.0577 335.547C65.0753 335.106 65.0928 334.66 65.122 334.22C65.1688 333.48 65.2039 332.74 65.2332 332C65.087 332.029 64.9349 332.058 64.8706 332.088C63.4612 332.675 62.391 333.955 61.3033 334.977C55.777 340.175 48.0693 340.486 41.157 338.131C38.7651 337.315 36.5429 336.205 34.6657 334.66C33.9347 332.969 33.6131 331.136 33.578 329.281C36.0868 333.897 41.578 336.328 46.7418 336.105H46.7243ZM65.5606 331.871C65.5606 331.871 65.5431 331.882 65.5373 331.888C65.7361 332.241 65.6893 331.706 65.5606 331.871Z" fill="#438BC5"/>
<path d="M98.4322 320.36C98.3971 319.637 98.6836 318.862 99.093 318.281C99.5199 317.676 100.128 317.1 100.859 316.901C101.748 316.654 102.719 316.93 103.228 317.74C104.304 319.444 102.514 321.546 100.947 322.11C100.806 322.163 100.66 322.18 100.514 322.18C100.356 322.374 100.198 322.568 100.046 322.767C100.181 322.568 100.321 322.374 100.467 322.18C100.157 322.163 99.8532 322.039 99.6018 321.845C98.9526 321.687 98.4731 321.117 98.438 320.366L98.4322 320.36Z" fill="#438BC5"/>
<path d="M105.122 331.63C105.204 331.876 105.292 332.123 105.38 332.364C104.374 332.769 103.719 333.074 103.614 333.427C103.204 334.807 106.415 340.762 107.374 342.494C106.508 342.935 105.432 342.911 104.625 342.036C104.391 341.784 104.169 341.519 103.959 341.249C103.818 340.961 103.69 340.674 103.555 340.392C102.438 337.972 101.555 335.412 100.964 332.81C100.573 331.095 100.146 329.098 100.555 327.348C100.883 325.951 101.918 324.764 102.824 323.701C103.766 322.603 112.789 318.71 113.204 302.888C113.386 295.888 110.368 289.082 110.602 282.069C110.672 279.897 110.894 276.625 112.795 275.181C113.959 274.3 115.333 274.717 116.596 275.099C117.696 275.427 118.725 275.656 119.812 275.662C118.467 276.12 117.07 276.367 115.69 276.332C115.655 276.502 115.619 276.684 115.596 276.86C115.198 276.849 114.772 276.825 114.467 276.69C114.438 276.678 114.397 276.678 114.35 276.69C114.31 276.802 114.204 276.99 114.175 277.113C113.543 279.503 113.748 282.158 113.988 284.589C114.491 289.663 116.023 294.573 116.514 299.658C116.555 300.093 116.59 300.533 116.614 300.968C117.374 301.179 118.011 301.825 118.076 302.871C118.193 304.774 117.783 306.688 117.409 308.556C117.052 310.353 116.602 312.144 115.965 313.865C114.608 317.558 112.503 320.483 109.643 323.149C107.286 325.346 105.298 327.542 105.128 330.925C105.116 331.16 105.116 331.395 105.116 331.63H105.122Z" fill="#438BC5"/>
<path d="M108.93 270.655C107.206 269.723 106.578 267.533 107.527 265.762C108.475 263.991 110.642 263.31 112.365 264.242C114.089 265.173 114.717 267.363 113.769 269.134C112.82 270.905 110.653 271.586 108.93 270.655Z" fill="white"/>
<path d="M112.736 264.992C112.888 264.974 113.04 264.974 113.193 264.98C113.777 265.532 114.187 266.301 114.274 267.182C114.456 269.044 113.175 270.7 111.409 270.876C111.333 270.882 111.263 270.882 111.187 270.888C110.421 270.365 109.877 269.531 109.783 268.539C109.608 266.76 110.929 265.168 112.736 264.992Z" fill="#120B0D"/>
<path d="M102.491 328.576C103.777 323.883 110.707 324.048 113.766 312.566C116.824 301.085 112.801 283.778 112.637 279.409C112.473 275.04 115.695 276.337 115.695 276.337C113.766 285.393 124.538 303.722 120.368 317.417C116.181 331.165 104.099 331.811 103.619 333.426C103.549 333.655 103.584 334.014 103.689 334.448C102.672 332.745 101.923 330.643 102.491 328.57V328.576Z" fill="#87DDE7"/>
<path d="M36.9404 338.119C35.2035 336.31 34.2328 334.161 33.8117 331.888C34.6129 333.286 35.8117 334.848 37.5837 336.181C42.0925 339.575 51.1101 337.314 57.3908 333.432C63.6716 329.55 67.0517 327.448 68.0225 328.094C68.9874 328.74 69.1511 333.432 69.1511 333.432C69.1511 333.432 45.4784 347.016 36.9404 338.125V338.119Z" fill="#87DDE7"/>
<path d="M79.7829 329.222C80.5899 327.442 90.5725 328.576 91.5374 329.386C92.5023 330.196 93.3093 335.37 93.3093 335.37L79.4613 334.883C79.4613 334.883 78.9759 331.001 79.7829 329.222Z" fill="#87DDE7"/>
<path d="M125.444 265.015C125.444 265.596 125.696 266.066 126.005 266.066C126.315 266.066 126.567 265.596 126.567 265.015C126.567 264.434 126.315 263.964 126.005 263.964C125.696 263.964 125.444 264.434 125.444 265.015Z" fill="#120B0D"/>
<path d="M123.274 265.262C123.362 265.837 123.684 266.26 123.994 266.213C124.304 266.166 124.479 265.661 124.391 265.085C124.304 264.51 123.982 264.087 123.672 264.134C123.362 264.181 123.187 264.686 123.274 265.262Z" fill="#120B0D"/>
<path d="M106.374 262.343C107.45 260.933 109.409 260.387 111.046 261.063C111.192 261.121 111.128 261.362 110.982 261.303C109.497 260.722 107.625 261.233 106.66 262.507C106.532 262.678 106.245 262.507 106.374 262.343Z" fill="black"/>
<path d="M108.45 278.763C108.543 280.167 107.397 281.999 106.415 283.297C106.005 281.259 105.59 279.139 105.222 277.066C106.83 277.195 108.374 277.618 108.45 278.763Z" fill="#FFCB00"/>
<path d="M37.4259 323.725C37.4259 322.879 38.4902 322.251 39.4961 321.852C39.2739 322.926 39.116 324.03 39.0633 325.117C38.3031 324.988 37.4201 324.647 37.4201 323.731L37.4259 323.725Z" fill="#FFCB00"/>
<path d="M105.07 307.716C105.169 307.698 105.268 307.675 105.362 307.651C105.233 309.354 104.719 311.874 102.812 312.085C101.005 312.285 100.198 308.72 99.8474 306.007C101.421 307.305 103.075 308.068 105.064 307.722L105.07 307.716Z" fill="#FFCB00"/>
<path d="M110.385 287.173C110.385 288.952 108.935 289.763 108.935 289.763C108.935 289.763 111.35 292.188 111.029 293.645C110.865 294.391 109.678 294.843 108.567 295.101C108.532 294.778 108.496 294.455 108.455 294.132C108.198 292.077 107.537 288.823 106.795 285.17C108.344 285.47 110.385 286.075 110.385 287.179V287.173Z" fill="#FFCB00"/>
<path d="M70.7944 302.706C74.0751 298.924 77.8821 295.935 82.005 295.248C83.0635 297.814 84.426 301.931 82.6775 302.701C80.0985 303.834 76.8821 299.465 76.8821 299.465C76.8821 299.465 78.0108 305.613 75.7535 306.418C74.4786 306.876 72.3733 304.691 70.7885 302.706H70.7944Z" fill="#FFCB00"/>
<path d="M88.6426 304.157C87.3794 304.04 88.163 298.995 88.7186 296.105C92.9818 297.961 95.7537 302.002 98.5549 304.809C97.7128 306.06 96.4497 307.534 95.0871 307.716C92.6719 308.039 93.9584 301.244 93.9584 301.244C93.9584 301.244 90.4145 304.316 88.6426 304.157Z" fill="#FFCB00"/>
<path d="M107.222 306.418C108.105 305.314 108.567 303.616 108.742 301.596C110.274 302.683 112.087 304.227 111.994 305.455C111.888 306.817 109.14 306.682 107.222 306.424V306.418Z" fill="#FFCB00"/>
<path d="M49.1746 330.901C49.0459 332.546 48.6541 334.308 47.5722 334.56C46.3851 334.836 45.7125 333.491 45.3558 332.281C46.5605 332.052 47.8588 331.571 49.1746 330.901Z" fill="#FFCB00"/>
<path d="M66.0927 314.182C66.0927 314.182 68.1863 317.74 66.4143 318.874C65.3383 319.561 63.0634 318.451 61.4494 317.482C62.9114 314.458 64.9933 310.587 67.5488 306.917C68.8939 308.426 70.3968 310.517 70.122 312.085C69.6366 314.833 66.0927 314.187 66.0927 314.187V314.182Z" fill="#FFCB00"/>
<path d="M43.3088 332.405C42.4258 333.227 41.3205 333.99 40.3264 333.914C39.0281 333.814 39.4667 331.723 39.9813 330.149C39.9872 330.167 39.993 330.179 40.0047 330.196C40.7182 331.588 41.8819 332.269 43.3088 332.405Z" fill="#FFCB00"/>
<path d="M39.0515 326.003C39.069 326.92 39.1743 327.812 39.4141 328.67C38.5076 328.811 37.379 328.881 37.1041 328.417C36.8059 327.912 38.0632 326.784 39.0573 326.003H39.0515Z" fill="#FFCB00"/>
<path d="M40.6772 317.371C40.379 318.375 40.0515 319.485 39.765 320.648C39.1685 320.26 38.6363 319.684 38.7123 318.874C38.7708 318.205 39.6305 317.717 40.6772 317.371Z" fill="#FFCB00"/>
<path d="M61.0984 325.181C60.2563 325.956 58.6832 325.475 57.1686 324.682C58.4727 323.231 59.5136 321.728 60.1276 320.33C60.3089 319.919 60.5136 319.467 60.7358 318.979C61.5136 321.194 62.2388 324.13 61.0926 325.181H61.0984Z" fill="#FFCB00"/>
<path d="M53.8529 331.976C52.847 332.311 51.6248 331.207 50.6832 330.067C51.7242 329.439 52.7534 328.711 53.7417 327.918C54.4084 329.48 55.04 331.577 53.8529 331.976Z" fill="#FFCB00"/>
<path d="M104.959 343.187C104.959 343.187 104.959 340.762 106.245 340.597C106.28 340.597 106.315 340.597 106.35 340.597C107.064 341.966 107.637 342.97 107.637 342.97C107.637 342.97 104.578 344.949 101.169 345.425C100.842 344.391 100.649 342.981 101.573 342.054C103.181 340.439 104.953 343.187 104.953 343.187H104.959Z" fill="#EBE5E0"/>
<path d="M112.21 335.694C113.818 334.079 115.59 336.827 115.59 336.827C115.59 336.827 115.59 334.402 116.877 334.237C117.204 334.196 117.567 334.419 117.923 334.772C118.362 336.263 118.701 337.467 118.701 337.467L111.929 339.423C111.537 338.383 111.169 336.733 112.204 335.688L112.21 335.694Z" fill="#D8CABF"/>
<path d="M70.9408 345.107C71.1688 344.244 71.6308 342.911 72.3735 342.488C73.5022 341.842 74.7887 344.103 74.7887 344.103C74.7887 344.103 75.9174 342.165 77.0461 342.324C77.8063 342.435 77.9817 344.074 78.011 345.137C76.5548 345.507 73.4145 346.088 70.9408 345.101V345.107Z" fill="#EBE5E0"/>
<path d="M36.5371 335.3C36.654 335.406 36.7651 335.512 36.8879 335.612C36.771 336.322 36.6774 337.045 36.6189 337.761C36.4961 337.62 36.3733 337.479 36.2622 337.332C36.3324 336.651 36.4259 335.97 36.5429 335.294L36.5371 335.3Z" fill="#73CEE2"/>
<path d="M48.8294 337.097C48.9639 337.062 49.0984 337.027 49.233 336.986C49.4084 338.248 49.6599 339.494 50.0049 340.703C49.8762 340.727 49.7534 340.75 49.6248 340.768C49.268 339.564 49.0107 338.331 48.8294 337.092V337.097Z" fill="#73CEE2"/>
<path d="M89.1455 335.224L88.7303 335.212C88.087 333.051 87.7595 330.79 87.7478 328.529C87.8823 328.546 88.011 328.558 88.1397 328.576C88.1572 330.825 88.4964 333.074 89.1455 335.224Z" fill="#73CEE2"/>
<path d="M42.7651 337.819C42.771 338.876 42.8587 339.934 43.0166 340.979C42.8821 340.961 42.7476 340.938 42.6189 340.914C42.4669 339.881 42.385 338.835 42.3792 337.79C42.5078 337.802 42.6365 337.808 42.771 337.814L42.7651 337.819Z" fill="#73CEE2"/>
<path d="M84.2449 335.053L83.8472 335.042C83.6016 332.798 83.5607 330.537 83.7302 328.282C83.8648 328.282 83.9993 328.282 84.1338 328.282C83.9583 330.537 83.9993 332.804 84.2449 335.053Z" fill="#73CEE2"/>
<path d="M34.1394 332.428C34.2154 332.552 34.3031 332.675 34.385 332.798C34.2973 332.927 34.2096 333.051 34.1219 333.186C34.0692 333.01 34.0224 332.833 33.9815 332.657C34.0341 332.581 34.0868 332.505 34.1394 332.434V332.428Z" fill="#73CEE2"/>
<path d="M46.1336 337.643C46.2681 337.626 46.4026 337.602 46.5371 337.579C46.3558 338.753 46.2389 339.939 46.1862 341.126C46.0576 341.126 45.9231 341.132 45.7944 341.132C45.847 339.963 45.9582 338.794 46.1336 337.637V337.643Z" fill="#73CEE2"/>
<path d="M62.4436 336.733C62.3208 336.786 62.198 336.839 62.0752 336.892C61.8062 334.848 61.7184 332.781 61.8179 330.719C61.9524 330.637 62.0869 330.555 62.2214 330.479C62.1044 332.563 62.1804 334.66 62.4436 336.733Z" fill="#73CEE2"/>
<path d="M39.1746 337.074C38.8705 337.808 38.6132 338.565 38.3968 339.329C38.2798 339.252 38.1687 339.17 38.0576 339.094C38.274 338.354 38.5254 337.632 38.8178 336.915C38.9348 336.968 39.0518 337.021 39.1746 337.074Z" fill="#73CEE2"/>
<path d="M66.3969 334.883C65.5782 333.057 64.9232 331.154 64.4437 329.205C64.5665 329.14 64.6835 329.075 64.8004 329.017C65.28 330.966 65.9349 332.875 66.7478 334.713C66.6367 334.772 66.5197 334.831 66.4028 334.889L66.3969 334.883Z" fill="#73CEE2"/>
<path d="M53.4436 339.946C53.2038 338.536 53.0576 337.109 53.0108 335.682C53.1395 335.629 53.2682 335.57 53.3968 335.512C53.4378 336.962 53.5781 338.407 53.8179 339.84C53.6951 339.875 53.5664 339.91 53.4436 339.94V339.946Z" fill="#73CEE2"/>
<path d="M55.9406 334.272C56.3792 335.776 56.9055 337.25 57.5371 338.671C57.426 338.712 57.309 338.748 57.1921 338.789C56.5663 337.379 56.04 335.923 55.6014 334.449C55.7125 334.39 55.8236 334.331 55.9348 334.267L55.9406 334.272Z" fill="#73CEE2"/>
<path d="M114.824 298.731C116.444 298.736 118.064 298.578 119.649 298.261C119.678 298.384 119.707 298.502 119.737 298.625C118.128 298.954 116.485 299.118 114.842 299.118C114.842 298.989 114.83 298.86 114.824 298.731Z" fill="#73CEE2"/>
<path d="M114.327 292.535C115.66 292.981 117.046 293.304 118.444 293.516C118.479 293.645 118.514 293.774 118.549 293.909C117.128 293.716 115.731 293.41 114.374 292.964C114.356 292.823 114.345 292.676 114.327 292.535Z" fill="#73CEE2"/>
<path d="M113.555 313.318C115.918 314.246 118.397 314.863 120.924 315.121C120.9 315.245 120.877 315.374 120.853 315.497C118.321 315.233 115.818 314.622 113.444 313.694C113.485 313.571 113.52 313.442 113.555 313.318Z" fill="#73CEE2"/>
<path d="M114.233 310.494C114.257 310.364 114.28 310.235 114.304 310.106C116.725 310.1 119.105 309.548 121.292 308.544C121.298 308.685 121.304 308.826 121.31 308.973C121.011 309.108 120.707 309.237 120.397 309.36C118.421 310.124 116.327 310.5 114.233 310.5V310.494Z" fill="#73CEE2"/>
<path d="M110.859 319.303C110.935 319.191 111.005 319.074 111.081 318.962C113.906 319.673 116.906 319.743 119.766 319.168C119.713 319.303 119.66 319.438 119.608 319.573C116.725 320.125 113.707 320.037 110.859 319.309V319.303Z" fill="#73CEE2"/>
<path d="M84.7304 328.294C84.9468 330.655 85.5725 332.975 86.5667 335.13L86.1222 335.112C85.1514 332.957 84.5432 330.637 84.3327 328.276C84.4672 328.276 84.6017 328.276 84.7362 328.288L84.7304 328.294Z" fill="#73CEE2"/>
<path d="M105.117 325.052C107.327 326.738 109.883 327.989 112.573 328.693C112.444 328.787 112.31 328.881 112.181 328.969C109.526 328.229 107.011 326.979 104.824 325.299C104.918 325.217 105.017 325.134 105.117 325.046V325.052Z" fill="#73CEE2"/>
<path d="M120.508 302.284C120.532 302.413 120.555 302.548 120.579 302.677C118.666 302.548 116.766 302.237 114.906 301.761C114.906 301.626 114.906 301.491 114.906 301.35C116.742 301.832 118.62 302.143 120.508 302.278V302.284Z" fill="#73CEE2"/>
<path d="M113.859 288.688C113.848 288.588 113.83 288.489 113.818 288.395C114.889 288.406 115.959 288.312 117.017 288.136C117.041 288.224 117.064 288.318 117.087 288.406C116.023 288.6 114.941 288.694 113.859 288.694V288.688Z" fill="#73CEE2"/>
<path d="M103.38 333.897C103.274 333.703 103.181 333.509 103.087 333.304C103.257 333.398 103.426 333.486 103.596 333.58C103.584 333.703 103.59 333.85 103.614 334.02C103.538 333.979 103.461 333.938 103.38 333.897Z" fill="#73CEE2"/>
<path d="M102.707 327.954C103.654 329.469 104.801 330.861 106.105 332.076C105.964 332.135 105.83 332.188 105.701 332.241C104.502 331.101 103.438 329.815 102.543 328.423C102.59 328.265 102.649 328.106 102.713 327.959L102.707 327.954Z" fill="#73CEE2"/>
<path d="M108.608 322.057C110.561 323.837 112.789 325.328 115.187 326.444C115.093 326.544 114.994 326.638 114.9 326.732C112.508 325.604 110.286 324.118 108.333 322.333C108.426 322.245 108.52 322.151 108.614 322.057H108.608Z" fill="#73CEE2"/>
<path d="M98.3268 335.488C98.625 334.889 99.1689 334.39 99.818 334.208C100.432 334.038 101.146 334.202 101.602 334.654C102.052 335.089 102.169 335.758 101.929 336.334C101.643 337.027 100.97 337.238 100.268 337.197C99.8999 337.174 99.5373 337.05 99.3853 336.686C99.2625 336.387 99.3151 336.028 99.5198 335.776C99.742 335.506 100.105 335.441 100.42 335.57C100.789 335.723 100.993 336.07 100.935 336.463C100.894 336.774 100.432 336.674 100.415 336.393C100.391 336.034 99.8473 335.923 99.8473 336.351C99.8473 336.551 99.9876 336.633 100.169 336.669C100.438 336.716 100.8 336.721 101.058 336.61C101.426 336.445 101.608 336.011 101.578 335.623C101.543 335.171 101.198 334.819 100.783 334.678C99.7946 334.331 98.8414 335.13 98.5607 336.052C98.4086 336.551 98.4262 337.133 98.7595 337.555C99.0461 337.919 99.5022 338.102 99.9467 338.166C100.953 338.319 102.286 337.878 102.572 336.792C102.619 336.61 102.9 336.686 102.859 336.868C102.555 338.166 101.005 338.712 99.8122 338.542C99.1864 338.454 98.5607 338.119 98.2624 337.538C97.935 336.898 98.0168 336.117 98.3268 335.488Z" fill="#387CAF"/>
<path d="M72.8706 334.449C73.5841 333.574 75.0227 333.503 75.8999 334.155C76.4086 334.537 76.742 335.13 76.6016 335.782C76.4613 336.428 75.8823 336.898 75.2274 336.909C74.549 336.921 73.5665 336.246 74.0519 335.482C74.5139 334.766 75.5373 335.054 75.935 335.67C75.935 335.676 75.935 335.682 75.9408 335.688C75.9876 335.529 75.9876 335.365 75.9408 335.206C75.8122 334.842 75.4554 334.572 75.0987 334.449C74.4437 334.226 73.5665 334.39 73.2098 335.036C72.9817 335.447 73.011 335.982 73.087 336.434C73.1572 336.845 73.2858 337.268 73.549 337.597C74.356 338.589 75.7361 337.884 76.6075 337.391C76.8648 337.244 77.0929 337.638 76.8414 337.79C76.2274 338.16 75.5958 338.524 74.8765 338.607C74.239 338.677 73.5782 338.489 73.1455 338.002C72.7361 337.544 72.5548 336.933 72.4788 336.334C72.3911 335.67 72.4379 334.983 72.8765 334.449H72.8706ZM75.5548 336.04C75.356 335.946 75.163 335.77 74.9408 335.729C74.8355 335.711 74.6309 335.741 74.6075 335.876C74.5841 336.023 74.8472 336.152 74.9467 336.187C75.1338 336.252 75.3443 336.252 75.5256 336.169C75.5899 336.14 75.6426 336.105 75.6893 336.064C75.6426 336.064 75.5958 336.064 75.549 336.04H75.5548Z" fill="#387CAF"/>
<path d="M112.257 330.572C112.614 330.249 113.134 330.097 113.602 330.238C114.116 330.396 114.456 330.86 114.444 331.4C114.444 331.641 114.374 331.894 114.233 332.093C114.064 332.34 113.842 332.469 113.543 332.481C113.204 332.493 113.099 332.023 113.374 331.853C113.391 331.841 113.397 331.841 113.403 331.835C113.403 331.835 113.409 331.829 113.415 331.823C113.438 331.806 113.456 331.782 113.479 331.759C113.502 331.735 113.526 331.718 113.543 331.7C113.555 331.694 113.561 331.688 113.561 331.682C113.561 331.682 113.561 331.676 113.573 331.665C113.584 331.641 113.596 331.624 113.608 331.6C113.608 331.588 113.614 331.588 113.619 331.582C113.619 331.577 113.619 331.571 113.625 331.559C113.631 331.536 113.637 331.512 113.643 331.489C113.643 331.471 113.643 331.459 113.649 331.453C113.649 331.436 113.649 331.418 113.649 331.406C113.649 331.377 113.649 331.342 113.649 331.312C113.649 331.312 113.649 331.312 113.649 331.306C113.649 331.306 113.649 331.295 113.649 331.289C113.643 331.254 113.631 331.224 113.619 331.189C113.619 331.189 113.619 331.183 113.608 331.171C113.567 331.095 113.502 331.036 113.415 331.007C113.304 330.966 113.175 330.966 113.076 330.983C112.947 331.007 112.83 331.054 112.736 331.13C112.508 331.318 112.438 331.635 112.479 331.917C112.578 332.581 113.222 332.998 113.865 332.98C114.549 332.963 115.087 332.411 115.222 331.765C115.38 331.001 114.865 330.214 114.157 329.956C113.9 329.862 114.005 329.457 114.274 329.539C115.169 329.809 115.865 330.707 115.789 331.665C115.707 332.663 114.929 333.509 113.923 333.585C112.953 333.656 111.982 332.98 111.836 331.994C111.76 331.489 111.877 330.936 112.269 330.584L112.257 330.572Z" fill="#00706D"/>
<g style="mix-blend-mode:multiply">
<path d="M113.087 264.739C112.853 264.698 112.608 264.686 112.362 264.692C110.362 264.774 108.806 266.495 108.888 268.539C108.929 269.619 109.426 270.576 110.175 271.222C108.508 270.946 107.204 269.502 107.134 267.711C107.052 265.667 108.608 263.946 110.608 263.864C111.549 263.829 112.415 264.163 113.087 264.739Z" fill="#D8E2E5"/>
</g>
<path d="M76.2039 318.028C77.3676 317.547 78.7887 317.276 79.9232 317.993C81.2507 318.839 81.6425 320.694 80.5606 321.91C80.3618 322.133 80.1279 322.327 79.8647 322.503C79.777 322.585 79.6835 322.662 79.5899 322.732C78.5548 323.507 77.2039 324.13 75.894 323.713C74.6893 323.331 73.6951 322.139 73.736 320.835C73.7828 319.355 74.9641 318.539 76.198 318.028H76.2039Z" fill="#438BC5"/>
<path d="M83.4028 318.727C83.6718 318.569 83.9759 318.457 84.2975 318.457C84.97 318.457 85.5314 318.944 85.7069 319.579C85.7303 319.673 85.742 319.761 85.7478 319.855C85.818 320.031 85.8355 320.225 85.7771 320.407C85.5782 320.982 85.1923 321.452 84.5782 321.593C83.8355 321.763 83.0694 321.358 82.7712 320.659C82.4729 319.949 82.7361 319.121 83.4028 318.721V318.727Z" fill="#438BC5"/>
<path d="M80.6835 315.914C80.742 315.72 80.8414 315.509 80.9934 315.374C81.1806 315.203 81.3969 315.092 81.6426 315.057C81.9233 314.927 82.2566 314.933 82.5432 315.098C82.8122 315.256 83.0168 315.515 83.1046 315.814C83.1747 316.055 83.163 316.278 83.1221 316.519C83.0812 316.748 82.9408 316.977 82.7829 317.147C82.625 317.318 82.397 317.453 82.1747 317.5C81.7478 317.599 81.3385 317.488 81.0168 317.188C80.7771 316.965 80.6543 316.613 80.6426 316.29C80.6426 316.167 80.6484 316.031 80.6893 315.914H80.6835Z" fill="#438BC5"/>
<path d="M104.093 315.556C104.251 315.298 104.461 315.163 104.713 315.045C105.14 314.881 105.596 314.863 106.011 315.11C106.485 315.392 106.736 315.967 106.59 316.508C106.491 316.878 106.187 317.206 105.818 317.33C105.584 317.682 105.058 317.893 104.672 317.623C104.461 317.477 104.292 317.312 104.152 317.089C103.999 316.848 103.929 316.59 103.906 316.308C103.888 316.055 103.959 315.768 104.087 315.55L104.093 315.556Z" fill="#438BC5"/>
<path d="M104.836 314.992C104.795 315.01 104.754 315.027 104.713 315.045C104.672 315.063 104.625 315.08 104.584 315.098C104.666 315.063 104.754 315.027 104.836 314.992Z" fill="#438BC5"/>
<path d="M100.766 314.939C100.818 314.528 101.076 314.193 101.456 314.029C101.654 313.947 101.842 313.923 102.058 313.947C102.304 313.982 102.479 314.076 102.666 314.223C102.69 314.229 102.719 314.234 102.742 314.24C103.198 314.358 103.479 314.828 103.421 315.286C103.356 315.75 102.964 316.108 102.491 316.108C102.473 316.108 102.461 316.108 102.444 316.108C102.274 316.184 102.093 316.249 101.906 316.249C101.719 316.249 101.491 316.19 101.321 316.09C100.918 315.855 100.707 315.391 100.771 314.933L100.766 314.939Z" fill="#438BC5"/>
<path d="M116.619 275.557C116.789 274.547 117.076 273.472 117.707 272.65C118.269 271.916 119.169 271.399 120.117 271.504C121.064 271.61 121.725 272.333 121.976 273.231C122.298 274.382 121.9 275.498 121.748 276.637C121.625 277.542 121.783 278.886 122.871 279.092C123.193 279.151 123.052 279.638 122.736 279.579C121.947 279.439 121.391 278.775 121.117 278.053C120.754 277.084 121.035 276.038 121.163 275.052C121.263 274.282 121.286 273.266 120.655 272.697C120.029 272.139 119.099 272.497 118.596 273.043C117.953 273.742 117.731 274.793 117.573 275.703C117.385 276.772 117.485 277.806 117.912 278.804C118.321 279.767 118.906 280.648 119.409 281.564C119.924 282.498 120.391 283.461 120.742 284.471C121.479 286.609 121.619 289.099 120.321 291.055C120.046 291.472 119.426 291.108 119.655 290.661C120.596 288.806 120.444 286.597 119.777 284.683C119.409 283.638 118.894 282.645 118.345 281.688C117.812 280.76 117.239 279.85 116.871 278.84C116.479 277.777 116.438 276.672 116.631 275.563L116.619 275.557Z" fill="#00BC55"/>
<path d="M120.842 288.271C120.842 288.271 126.011 287.432 125.871 291.777C121.684 291.636 120.842 288.271 120.842 288.271Z" fill="#00963D"/>
<path d="M121.011 286.48C121.011 286.48 124.812 282.868 127.134 286.544C123.59 288.794 121.011 286.48 121.011 286.48Z" fill="#00963D"/>
<path d="M120.052 284.395C120.052 284.395 122.046 279.521 125.965 282.181C123.59 285.652 120.052 284.395 120.052 284.395Z" fill="#00963D"/>
<path d="M120.42 290.168C120.42 290.168 116.017 291.701 117.953 296.393C122.625 294.614 120.42 290.168 120.42 290.168Z" fill="#00963D"/>
<path d="M120.251 287.079C120.251 287.079 115.982 285.094 115.052 288.888C118.713 289.786 120.251 287.079 120.251 287.079Z" fill="#00963D"/>
<path d="M119.555 284.395C119.555 284.395 116.467 280.813 113.883 284.207C116.894 286.486 119.555 284.395 119.555 284.395Z" fill="#00963D"/>
</g>
<defs>
<clipPath id="clip0_8_4467">
<rect width="94.8778" height="87.357" fill="white" transform="matrix(-1 0 0 1 128.432 258.297)"/>
</clipPath>
</defs>
</svg>
