<svg width="441" height="393" viewBox="0 0 441 393" fill="none" xmlns="http://www.w3.org/2000/svg">
<path d="M394 369.322C394 395.453 311.17 392.934 209 392.934C106.83 392.934 24 395.453 24 369.322C24 343.19 106.83 322 209 322C311.17 322 394 343.19 394 369.322Z" fill="#AEDB83"/>
<path d="M283.669 207.995C283.401 208.362 282.908 208.488 282.556 208.136C280.204 205.77 278.105 203.193 276.106 200.531C268.993 191.052 263.035 179.813 252.951 173.081C248.05 180.207 243.501 187.559 239.388 195.165C239.191 195.531 238.557 195.658 238.276 195.306C234.755 190.869 232.022 185.911 229.135 181.067C227.783 178.799 226.389 176.546 224.839 174.405C223.515 183.996 222.403 193.334 221.501 197.249C221.318 198.066 221.107 198.869 220.882 199.658C220.417 201.334 219.854 202.967 219.192 204.587C219.121 204.756 219.051 204.939 218.98 205.122C218.868 205.376 218.755 205.629 218.642 205.883C218.53 206.122 218.417 206.376 218.304 206.615C218.206 206.826 218.093 207.052 217.994 207.263C217.84 207.559 217.685 207.855 217.53 208.15C217.445 208.319 217.347 208.488 217.262 208.657C217.009 209.122 216.741 209.573 216.459 210.023C216.234 210.39 215.685 210.53 215.347 210.207C214.333 209.249 213.333 208.277 212.347 207.277C205.093 199.981 198.756 191.799 193.178 183.25C192.347 187.94 193.094 192.742 192.319 197.46C192.221 198.01 191.516 198.108 191.136 197.813C185.362 193.39 181.263 187.306 176.348 182.052C174.517 191.869 176.418 202.207 172.686 211.699C172.545 212.052 172.235 212.305 171.827 212.221C166.517 211.023 161.897 207.742 157.799 204.404C154.743 201.911 151.884 199.207 149.053 196.46C148.01 195.446 146.954 194.418 145.912 193.404C145.757 193.911 145.63 194.432 145.518 194.953C145.419 195.39 145.32 195.841 145.222 196.277C144.419 200.179 143.996 204.15 142.377 207.84C142.222 208.178 141.729 208.291 141.405 208.136C134.673 204.601 130.419 198.094 125.405 192.672C123.631 205.193 118.617 230.84 118.18 230.6C102.688 222.079 94.7443 205.601 82.7869 193.475C79.787 197.038 81.139 202.376 80.4348 206.629C80.3503 207.15 79.618 207.319 79.2518 206.981C75.2378 203.235 71.3365 199.32 67.9845 195.01C66.1535 202.15 65.6606 209.573 63.1818 216.587C63.0409 216.967 62.5621 217.305 62.1536 217.037C54.9285 212.39 50.6469 204.939 44.2527 199.446C42.5767 205.756 41.6613 212.206 40.5909 218.629C40.4782 219.305 40.3655 219.981 40.2388 220.657C40.2106 220.798 40.1824 220.953 40.1542 221.094C40.0557 221.657 39.9571 222.234 39.8444 222.798C39.8021 223.023 39.7599 223.263 39.7176 223.488C39.6191 223.981 39.5205 224.488 39.4219 224.981C39.3655 225.262 39.2951 225.558 39.2388 225.84C39.1402 226.291 39.0557 226.727 38.9571 227.178C38.8867 227.516 38.8022 227.84 38.7318 228.178C38.6332 228.572 38.5487 228.981 38.4501 229.375C38.3515 229.755 38.2529 230.136 38.1543 230.516C38.0557 230.868 37.9712 231.22 37.8726 231.572C37.7459 232.023 37.605 232.474 37.4783 232.924C37.3938 233.206 37.3233 233.474 37.2388 233.755C37.0135 234.488 36.7741 235.206 36.5205 235.924C36.3515 236.403 35.76 236.657 35.3375 236.276C29.4785 231.121 24.6617 224.995 20.0844 218.756C18.8168 217.037 17.5774 215.305 16.3239 213.587C15.831 212.897 15.3239 212.207 14.8169 211.516C13.7324 220.77 15.0986 230.319 16.338 239.459C17.0563 244.727 17.7323 249.98 18.7746 255.191C19.4788 258.726 20.2956 262.233 21.2393 265.698C23.4927 270.163 25.9434 274.472 28.5771 278.641C29.8869 280.712 31.239 282.754 32.6474 284.754C43.1401 299.725 56.013 312.5 70.4774 322.612C75.2941 325.978 80.294 329.048 85.4488 331.809C87.5051 332.907 89.5895 333.964 91.6881 334.978C93.7866 335.978 95.9133 336.935 98.0541 337.837C100.195 338.738 102.364 339.583 104.547 340.386C113.279 343.569 122.293 345.893 131.476 347.301C132.617 347.47 133.771 347.639 134.926 347.794C141.842 348.682 148.841 349.034 155.883 348.851C157.052 348.822 158.236 348.766 159.405 348.71C162.926 348.527 166.461 348.203 169.982 347.724C177.038 346.794 184.094 345.287 191.108 343.175C202.15 339.865 212.431 335.245 221.882 329.527C222.952 328.879 224.022 328.217 225.065 327.541C228.065 325.612 230.98 323.57 233.797 321.415C234.529 320.851 235.262 320.288 235.994 319.711C270.88 291.937 290.838 247.614 289.049 200.559C287.288 203.066 285.486 205.545 283.683 208.024L283.669 207.995Z" fill="#9B9D97"/>
<path d="M102.191 49.3353C89.5119 60.6608 71.0393 60.706 60.9334 49.4386C50.8339 38.1712 52.9094 19.8568 65.5887 8.52486C78.268 -2.80062 96.7342 -2.84579 106.847 8.41516C116.959 19.6826 114.871 38.0034 102.191 49.3353Z" fill="#A44D25"/>
<path d="M97.9954 45.2633C89.6999 52.6781 77.79 52.904 71.3954 45.7731C64.9943 38.6358 66.5396 26.8457 74.8222 19.4309C83.1307 12.0161 95.0406 11.7902 101.435 18.9275C107.836 26.0584 106.297 37.855 97.9954 45.2633Z" fill="#FEDBA6"/>
<path d="M216.822 149.361C216.822 149.361 269.621 157.247 297.236 193.463C318.224 220.999 284.777 240.223 272.57 224.516C259.282 207.415 235.909 181.866 214.106 172.664L216.822 149.361Z" fill="#C97E4B"/>
<g style="mix-blend-mode:multiply">
<path d="M295.446 222.716C289.698 213.778 281.919 206.073 273.372 199.781C260.498 190.294 244.347 183.047 228.086 180.492C245.382 192.327 262.115 211.035 272.576 224.51C278.596 232.253 289.775 231.505 297.049 225.458C296.551 224.529 296.021 223.613 295.446 222.716Z" fill="#CCDDF2"/>
</g>
<path d="M87.1843 143.372C87.1843 143.372 34.3787 151.258 6.76351 187.474C-14.2243 215.004 19.223 234.234 31.4303 218.521C44.7174 201.42 68.0845 175.871 89.8999 166.669L87.1843 143.366V143.372Z" fill="#C97E4B"/>
<g style="mix-blend-mode:multiply">
<path d="M8.55468 216.733C14.3156 207.795 22.0875 200.09 30.6416 193.792C43.5149 184.306 59.6598 177.059 75.9211 174.503C58.6253 186.338 41.8985 205.046 31.4304 218.521C25.4173 226.265 14.2381 225.516 6.96411 219.469C7.46844 218.534 7.99216 217.617 8.55468 216.727V216.733Z" fill="#CCDDF2"/>
</g>
<path d="M201.873 49.3353C214.553 60.6608 233.025 60.706 243.131 49.4386C253.231 38.1712 251.155 19.8568 238.476 8.52486C225.797 -2.80062 207.324 -2.84579 197.212 8.41516C187.112 19.6826 189.194 38.0034 201.873 49.3353Z" fill="#A44D25"/>
<path d="M206.063 45.2634C214.359 52.6782 226.275 52.9041 232.67 45.7732C239.064 38.6359 237.526 26.8458 229.23 19.431C220.935 12.0162 209.025 11.7904 202.624 18.9277C196.229 26.0585 197.768 37.8551 206.057 45.2634H206.063Z" fill="#FEDBA6"/>
<path d="M252.254 243.436C252.254 303.439 211.482 336.215 149.714 336.215C78.6366 336.215 50.7563 301.045 50.7563 241.049C50.7563 181.053 91.5357 118.94 149.714 118.94C207.893 118.94 252.254 183.44 252.254 243.436Z" fill="#C97E4B"/>
<g style="mix-blend-mode:multiply">
<path d="M204.24 138.907C223.618 158.834 235.676 185.874 235.676 215.307C235.676 275.38 185.451 325.509 125.267 325.509C107.784 325.509 91.1478 321.276 76.3284 313.797C92.2405 328.381 116.164 336.215 149.708 336.215C211.475 336.215 252.248 303.439 252.248 243.437C252.248 204.014 233.866 162.642 204.24 138.907Z" fill="#CCDDF2"/>
</g>
<path d="M221.083 244.347C221.083 286.822 193.649 310.028 152.094 310.028C104.286 310.028 85.5229 285.125 85.5229 242.65C85.5229 200.174 112.957 156.208 152.094 156.208C191.231 156.208 221.083 201.871 221.083 244.347Z" fill="#FEDBA6"/>
<g style="mix-blend-mode:multiply">
<path d="M190.837 172.141C201.286 185.706 200.387 200.181 200.387 218.301C200.387 262.093 163.771 298.638 119.901 298.638C113.468 298.638 114.373 300.239 108.36 298.767C118.815 306.117 133.176 310.035 152.101 310.035C193.656 310.035 221.09 286.829 221.09 244.353C221.09 217.411 209.568 189.191 190.837 172.148V172.141Z" fill="#EBE0D8"/>
</g>
<path d="M243.565 100.381C243.565 146.496 202.346 173.309 152.779 173.309C103.213 173.309 62.7439 143.798 62.7439 97.6898C62.7439 51.5812 103.226 6.32446 152.779 6.32446C202.333 6.32446 243.565 54.2722 243.565 100.381Z" fill="#C97E4B"/>
<g style="mix-blend-mode:multiply">
<path d="M225.519 46.8381C227.277 53.8012 228.215 61.0611 228.215 68.5082C228.215 108.293 201.544 142.779 165.362 154.917C154.991 159.08 143.734 161.377 132.018 161.377C131.656 161.377 131.307 161.364 130.945 161.364C130.699 161.364 130.46 161.377 130.22 161.377C113.817 161.377 98.312 156.873 84.8892 149.051C101.435 164.526 125.753 173.309 152.786 173.309C202.352 173.309 243.571 146.496 243.571 100.381C243.571 81.7374 236.827 62.7906 225.525 46.8381H225.519Z" fill="#CCDDF2"/>
</g>
<path d="M120.476 83.5958C120.476 89.3908 115.769 94.0953 109.963 94.0953C104.157 94.0953 99.4434 89.3908 99.4434 83.5958C99.4434 77.8008 104.157 73.1028 109.963 73.1028C115.769 73.1028 120.476 77.8008 120.476 83.5958Z" fill="#242E63"/>
<path d="M117.114 85.4865C117.114 88.2033 114.903 90.4039 112.187 90.4039C109.472 90.4039 107.254 88.1969 107.254 85.4865C107.254 82.7761 109.459 80.5691 112.187 80.5691C114.916 80.5691 117.114 82.7697 117.114 85.4865Z" fill="#FEDBA6"/>
<path d="M109.136 77.9359C109.136 79.2072 108.108 80.2333 106.841 80.2333C105.573 80.2333 104.539 79.2072 104.539 77.9359C104.539 76.6646 105.573 75.645 106.841 75.645C108.108 75.645 109.136 76.6711 109.136 77.9359Z" fill="#FEDBA6"/>
<path d="M105.198 81.3047C105.198 82.0081 104.629 82.576 103.924 82.576C103.219 82.576 102.657 82.0081 102.657 81.3047C102.657 80.6013 103.226 80.0334 103.924 80.0334C104.622 80.0334 105.198 80.6078 105.198 81.3047Z" fill="#FEDBA6"/>
<path d="M182.909 83.5957C182.909 89.3907 187.623 94.0951 193.429 94.0951C199.235 94.0951 203.942 89.3907 203.942 83.5957C203.942 77.8006 199.242 73.1027 193.429 73.1027C187.616 73.1027 182.909 77.8006 182.909 83.5957Z" fill="#242E63"/>
<path d="M186.272 85.4864C186.272 88.2032 188.489 90.4037 191.205 90.4037C193.921 90.4037 196.138 88.1967 196.138 85.4864C196.138 82.776 193.927 80.569 191.205 80.569C188.483 80.569 186.272 82.7695 186.272 85.4864Z" fill="#FEDBA6"/>
<path d="M194.25 77.9358C194.25 79.2071 195.278 80.2332 196.552 80.2332C197.826 80.2332 198.847 79.2071 198.847 77.9358C198.847 76.6645 197.819 75.6449 196.552 75.6449C195.285 75.6449 194.25 76.671 194.25 77.9358Z" fill="#FEDBA6"/>
<path d="M198.188 81.3046C198.188 82.008 198.757 82.5759 199.462 82.5759C200.167 82.5759 200.736 82.008 200.736 81.3046C200.736 80.6012 200.16 80.0333 199.462 80.0333C198.764 80.0333 198.188 80.6077 198.188 81.3046Z" fill="#FEDBA6"/>
<path d="M191.121 119.211C191.121 138.261 175.804 150.277 152.404 150.277C129.005 150.277 112.627 137.538 112.627 118.482C112.627 99.4253 132.057 85.0668 152.624 85.0668C173.192 85.0668 191.128 100.155 191.128 119.205L191.121 119.211Z" fill="#FEDBA6"/>
<g style="mix-blend-mode:multiply">
<path d="M148.325 143.243C134.708 143.243 122.326 137.016 113.914 127.31C118.169 141.365 132.755 150.277 152.411 150.277C175.811 150.277 191.128 138.261 191.128 119.211C191.128 117.533 190.986 115.894 190.714 114.281C183.964 131.104 167.353 143.243 148.325 143.243Z" fill="#EBE0D8"/>
</g>
<path d="M166.752 114.165C169.241 105.827 161.418 98.3091 152.631 98.3091C143.844 98.3091 134.488 104.311 137.481 113.887C139.02 118.792 145.473 124.942 151.564 125.516V138.132C146.954 137.9 142.913 135.919 141.329 133.053C141.102 132.653 140.591 132.511 140.191 132.731C139.79 132.957 139.634 133.466 139.861 133.867C141.865 137.487 146.831 139.829 152.482 139.829C158.133 139.829 162.795 137.622 164.909 134.202C165.155 133.808 165.032 133.292 164.637 133.047C164.243 132.808 163.732 132.931 163.48 133.318C161.754 136.106 157.771 137.958 153.232 138.145V125.529C158.586 125.109 164.89 120.405 166.745 114.165H166.752Z" fill="#242E63"/>
<path opacity="0.2" d="M148.428 102.742C151.331 100.232 156.045 100.735 156.704 103.749C157.376 106.769 151.215 104.117 149.359 108.447C146.967 114.081 139.809 117.172 140.281 109.325C140.65 103.155 145.46 105.304 148.421 102.742H148.428Z" fill="#B3E4FA"/>
<g style="mix-blend-mode:soft-light">
<path d="M78.4881 176.994C78.4881 176.994 84.1844 163.229 89.5833 166.817C94.9757 170.412 109.375 179.091 116.869 178.788C124.375 178.485 110.274 194.947 104.28 217.094C98.2797 239.242 68.5955 266.475 66.1967 244.631C63.7979 222.78 68.5955 200.639 78.4881 176.987V176.994Z" fill="white"/>
</g>
<path d="M255.158 285.557C248.828 319.708 234.739 345.74 198.46 339.048C162.187 332.363 158.346 303.02 164.663 268.869C170.98 234.718 192.744 209.254 220.275 214.339C247.819 219.418 261.468 251.407 255.158 285.557Z" fill="#A44D25"/>
<path d="M238.36 294.372C233.582 320.192 223.431 339.965 198.007 335.273C172.584 330.582 170.179 308.499 174.95 282.679C179.735 256.866 195.279 237.448 214.572 241.004C233.866 244.56 243.151 268.553 238.366 294.372H238.36Z" fill="#FEDBA6"/>
<g style="mix-blend-mode:multiply">
<path d="M251.912 242.559C252.545 246.36 252.888 250.251 252.888 254.213C252.888 293.978 219.635 327.167 179.793 327.167C177.659 327.167 175.551 327.051 173.457 326.871C179.14 332.737 187.248 336.983 198.46 339.048C234.739 345.74 248.828 319.707 255.158 285.557C258.041 269.992 256.755 254.884 251.912 242.559Z" fill="#CCDDF2"/>
</g>
<path d="M41.9566 285.557C48.2736 319.708 62.3689 345.74 98.6416 339.048C134.927 332.363 138.768 303.02 132.444 268.869C126.127 234.718 104.364 209.254 76.8263 214.339C49.2887 219.418 35.6331 251.407 41.9566 285.557Z" fill="#A44D25"/>
<path d="M58.7418 294.372C63.52 320.192 73.6777 339.965 99.1009 335.273C124.524 330.582 126.929 308.499 122.158 282.679C117.373 256.866 101.836 237.448 82.5422 241.004C63.2484 244.566 53.9701 268.553 58.7483 294.372H58.7418Z" fill="#FEDBA6"/>
<g style="mix-blend-mode:multiply">
<path d="M45.2023 242.559C44.5686 246.36 44.2195 250.251 44.2195 254.213C44.2195 293.978 77.4728 327.167 117.315 327.167C119.448 327.167 121.556 327.051 123.645 326.871C117.974 332.737 109.866 336.983 98.6416 339.048C62.3753 345.74 48.28 319.707 41.9565 285.557C39.0728 269.992 40.3595 254.884 45.2023 242.559Z" fill="#CCDDF2"/>
</g>
<g style="mix-blend-mode:soft-light">
<path d="M91.355 42.9984C100.801 31.2921 131.197 12.1905 125.455 30.8211C119.714 49.4516 105.515 39.8685 102.961 50.4067C97.8143 71.6573 80.5831 92.4046 77.2338 79.1818C74.2467 67.3659 78.3977 59.0412 91.355 42.9984Z" fill="white"/>
</g>
<path d="M284.725 190.263C282.838 194.798 281.317 199.46 279.796 204.122C276.697 213.601 273.655 223.248 268.528 231.882C268.232 232.375 267.613 232.304 267.303 231.882C259.895 221.544 255.838 209.333 249.261 198.517C244.853 205.756 242.994 214.305 237.543 220.967C237.233 221.347 236.67 221.15 236.431 220.826C232.036 214.699 229.374 207.601 225.543 201.15C223.642 206.361 221.107 211.319 218.417 216.164C218.177 216.601 217.431 216.643 217.192 216.164C215.276 212.22 214.966 206.601 211.093 203.995C203.361 219.347 200.713 237.797 188.587 250.67C188.235 251.036 187.742 250.867 187.474 250.529C179.517 240.191 175.967 227.431 170.601 215.713C167.461 222.474 165.362 230.093 160.038 235.53C159.785 235.783 159.278 235.825 159.038 235.53C155.757 231.614 154.151 226.713 151.447 222.445C148.898 227.262 146.419 232.107 143.461 236.699C140.574 241.163 137.18 245.727 132.518 248.459C132.152 248.67 131.785 248.501 131.546 248.205C125.236 240.022 123.983 229.361 119.363 220.305C116.279 226.882 114.194 234.037 110.04 240.051C109.758 240.445 109.068 240.558 108.814 240.051C106.688 235.685 105.969 230.755 103.814 226.417C100.702 237.769 96.5048 248.952 90.8148 259.275C90.5894 259.698 90.0402 259.712 89.7021 259.416C86.2234 256.29 83.4629 252.487 81.1672 248.431C76.8574 240.783 74.0828 232.389 70.8294 224.276C67.7872 216.671 64.2803 208.897 58.3931 203.052C54.7172 211.347 50.0272 219.15 45.9568 227.248C45.7033 227.755 45.0132 227.657 44.7315 227.248C41.7175 222.643 39.8725 217.375 36.8444 212.784C34.5205 220.361 31.3234 227.628 29.1263 235.234C28.9573 235.797 28.1263 235.952 27.8306 235.403C22.9011 226.417 18.6618 217.108 14.2394 207.868C13.4225 215.389 13 222.657 13 229.572C13 313.823 75.5898 382.117 152.799 382.117C230.008 382.117 292.598 313.823 292.598 229.572C292.598 215.432 290.837 199.812 287.528 183.587C286.556 185.813 285.584 188.038 284.655 190.291L284.725 190.263Z" fill="#8CECD7"/>
<path d="M54.9144 227.558C54.9144 227.446 54.9426 227.333 54.9426 227.206C54.9567 227.009 54.9144 226.84 54.8018 226.671C54.7173 226.403 54.5483 226.192 54.2947 226.037C53.7314 225.671 53.0694 225.629 52.4356 225.755C52.3652 225.727 52.2948 225.713 52.2244 225.685C52.0131 225.657 51.7878 225.615 51.5624 225.586C51.1822 225.586 50.83 225.643 50.4779 225.77C49.8442 225.967 49.2104 226.333 48.7738 226.826C48.4498 227.192 48.1682 227.615 47.9851 228.079C47.8583 228.389 47.816 228.713 47.8724 229.037C47.8724 229.347 47.9569 229.643 48.1541 229.896C48.2808 230.122 48.4498 230.305 48.6188 230.488C48.6188 230.755 48.6329 231.023 48.6893 231.319C48.7738 231.84 48.9428 232.361 49.1259 232.854C49.3512 233.445 49.7456 233.783 50.3653 233.868C51.0413 233.966 51.7878 233.769 52.3371 233.347C53.1539 232.699 53.8581 232.037 54.4638 231.178C54.9004 230.558 55.2665 229.727 55.2525 228.967C55.2525 228.389 55.1539 228.037 54.8863 227.53L54.9144 227.558Z" fill="#FFF9B2" fill-opacity="0.3"/>
<path d="M90.8713 259.262C90.646 259.684 90.0967 259.698 89.7587 259.402C86.9137 256.839 84.5476 253.825 82.5195 250.586C78.0407 251.135 73.6465 253.938 71.3085 257.614C69.7311 260.093 69.1255 263.121 69.8015 265.938C69.8015 267.529 70.1818 269.092 71.0691 270.515C72.5197 272.825 75.2098 274.106 77.8154 274.571C82.0828 275.318 86.1532 273.43 89.2094 270.529C91.9417 267.937 94.0403 264.05 93.998 260.219C93.9839 258.6 93.5896 256.98 92.8572 255.529C92.2234 256.783 91.5615 258.036 90.8854 259.262H90.8713Z" fill="#FFF9B2" fill-opacity="0.3"/>
<path d="M75.238 289.838C75.1394 289.641 75.0127 289.486 74.8578 289.317C74.5761 289.007 74.2662 288.712 73.9141 288.458C73.6184 288.247 73.2803 288.092 72.9846 287.895C72.1536 287.36 71.0691 287.585 70.2663 288.036C69.365 288.543 68.703 289.36 68.5622 290.416C68.4917 290.881 68.5762 291.402 68.8579 291.796C68.7312 291.965 68.5903 292.12 68.4917 292.303C68.1256 292.923 67.8439 293.641 67.9847 294.373C68.0974 294.993 68.5762 295.388 69.1396 295.613C69.6607 295.81 70.2382 295.768 70.7734 295.697C71.041 295.669 71.3226 295.599 71.5762 295.514C71.9564 295.866 72.5902 295.866 73.0832 295.641C73.7169 295.345 74.3507 294.683 74.2662 293.937C74.5479 293.655 74.8155 293.359 75.0268 293.007C75.3507 292.5 75.6183 291.824 75.5901 291.219C75.562 290.655 75.4775 290.345 75.2239 289.852L75.238 289.838Z" fill="#FFF9B2" fill-opacity="0.3"/>
<path d="M126.251 330.964C125.828 329.26 124.673 327.739 123.293 326.682C121.913 325.626 120.209 325.288 118.504 325.542C116.772 325.795 115.166 326.823 113.941 328.049C112.871 329.119 112.026 330.513 111.547 331.95C111.096 333.288 110.927 334.767 111.251 336.147C111.561 337.443 112.406 338.682 113.589 339.33C115.575 340.428 117.997 340.555 120.068 339.767C120.617 339.654 121.152 339.499 121.645 339.274C124.772 337.922 127.096 334.429 126.251 330.978V330.964ZM119.209 334.612C119.166 334.781 119.11 334.936 119.054 335.105C119.04 335.133 119.026 335.161 119.011 335.175C118.983 335.175 118.955 335.175 118.927 335.175C118.73 335.048 118.547 334.893 118.364 334.739C118.195 334.541 118.026 334.344 117.871 334.119C117.871 334.119 117.871 334.119 117.885 334.119C118.335 334.231 118.814 334.231 119.279 334.119C119.279 334.274 119.237 334.429 119.223 334.584L119.209 334.612Z" fill="#FFF9B2" fill-opacity="0.3"/>
<path d="M61.0553 314.176C61.0271 314.091 60.9849 313.993 60.9426 313.908C60.9004 313.809 60.8581 313.697 60.7877 313.598C60.7877 313.598 60.7736 313.57 60.7595 313.556C60.6469 313.443 60.5342 313.331 60.4074 313.218C60.337 313.176 60.2525 313.133 60.168 313.105C60.0272 313.007 59.8582 312.964 59.6891 312.964C59.506 312.922 59.337 312.908 59.1539 312.964C58.83 312.993 58.5906 313.035 58.2666 313.19C58.2103 313.218 58.1399 313.26 58.0836 313.302C58.0554 313.302 58.0272 313.302 58.0131 313.302C57.83 313.331 57.661 313.401 57.492 313.471C57.2808 313.542 57.0695 313.626 56.8864 313.767C56.816 313.809 56.7596 313.866 56.6892 313.922C56.5343 314.035 56.3935 314.162 56.2526 314.302C55.8583 314.739 55.478 315.302 55.478 315.908C55.478 316.077 55.5062 316.232 55.5202 316.401C55.4217 316.809 55.3794 317.19 55.478 317.598C55.478 317.64 55.5062 317.683 55.5202 317.725C55.5907 317.88 55.647 318.063 55.7456 318.204C55.8723 318.401 56.0554 318.57 56.2385 318.711C56.6188 319.035 57.1258 319.232 57.5765 319.401C57.7314 319.429 57.8864 319.443 58.0413 319.471L58.5483 319.415C58.7173 319.359 58.9004 319.302 59.0694 319.246C59.3511 319.133 59.5905 318.978 59.8018 318.767C59.9567 318.654 60.0835 318.514 60.1962 318.359C60.3229 318.232 60.4074 318.077 60.4779 317.908C60.5624 317.767 60.6187 317.612 60.6328 317.443C60.7032 317.218 60.7032 316.992 60.6328 316.767C60.6046 316.542 60.5764 316.331 60.5624 316.105C60.7032 315.894 60.8159 315.669 60.9004 315.443C60.9145 315.401 60.9285 315.359 60.9426 315.302C60.9849 315.133 61.0553 314.88 61.0694 314.697C61.0553 314.514 61.0412 314.345 61.0271 314.162L61.0553 314.176Z" fill="#FFF9B2" fill-opacity="0.3"/>
<path d="M48.1822 269.909C48.14 269.74 48.0414 269.613 47.9006 269.515C47.7316 269.318 47.5203 269.177 47.2668 269.12C47.0837 269.092 46.9006 269.064 46.7316 269.05C46.3231 269.05 45.9147 269.134 45.5344 269.303C45.0556 269.515 44.619 269.782 44.1824 270.064C44.0415 270.148 43.9007 270.247 43.7598 270.346C43.5627 270.487 43.3796 270.656 43.1965 270.81C43.112 270.881 43.0275 270.951 42.943 271.036C42.9148 271.064 42.8866 271.078 42.8584 271.106C42.8866 271.078 42.9148 271.064 42.9289 271.036C42.8444 271.106 42.7739 271.177 42.7035 271.247C42.6613 271.303 42.6049 271.36 42.5627 271.402C42.5204 271.444 42.4782 271.501 42.4359 271.543C42.2669 271.712 42.1683 271.81 41.9993 272.078C41.8021 272.388 41.6754 272.74 41.6472 273.12C41.6472 273.289 41.6754 273.458 41.6895 273.613C41.7458 273.867 41.8726 274.064 42.0557 274.219C42.112 274.289 42.1824 274.331 42.2388 274.388C42.2388 274.388 42.2387 274.388 42.2247 274.388C42.2387 274.388 42.2669 274.402 42.281 274.416C42.3233 274.444 42.3796 274.472 42.4218 274.486C42.5063 274.529 42.5768 274.557 42.6613 274.585C43.0134 274.698 43.3936 274.684 43.7598 274.599C43.8443 274.585 43.9288 274.557 44.0133 274.529C44.2809 274.529 44.5626 274.5 44.8302 274.472C45.0697 274.472 45.295 274.444 45.5063 274.36C45.7598 274.289 45.9851 274.191 46.1823 274.036C46.3936 273.895 46.5767 273.726 46.7175 273.515C46.8724 273.346 46.9851 273.148 47.0555 272.923C47.0837 272.81 47.1119 272.684 47.1259 272.557C47.3513 272.388 47.5625 272.191 47.7175 271.965C47.9287 271.74 48.0696 271.472 48.1682 271.191C48.2104 271.008 48.2386 270.839 48.2808 270.656C48.309 270.388 48.2668 270.148 48.1259 269.923L48.1822 269.909Z" fill="#FFF9B2" fill-opacity="0.3"/>
<path d="M71.3507 314.344C70.731 313.175 69.5479 312.415 68.3367 311.978C66.5621 311.345 64.534 311.443 62.6467 311.908C60.4496 310.795 58.0835 310.33 55.7032 311.809C53.7456 313.035 52.3512 315.499 52.2667 317.823C52.2104 319.541 52.8301 321.246 53.9286 322.57C56.1258 325.246 59.8017 326.95 63.2664 326.795C65.548 326.696 67.6325 325.907 69.3226 324.372C70.9282 322.908 71.6746 320.865 72.0127 318.767C72.2521 317.246 72.0831 315.697 71.3507 314.344Z" fill="#FFF9B2" fill-opacity="0.3"/>
<path d="M249.05 194.207C248.458 194.714 248.74 194.475 249.05 194.207V194.207Z" fill="#FFF9B2" fill-opacity="0.3"/>
<path d="M166.024 309.148C162.447 307.232 157.658 309.331 155.616 312.556C154.701 313.992 154.348 315.753 154.743 317.387C154.743 318.302 154.954 319.218 155.489 320.049C156.334 321.387 157.884 322.133 159.405 322.401C161.883 322.837 164.25 321.739 166.024 320.049C167.616 318.542 168.827 316.288 168.799 314.063C168.771 312.105 167.827 310.105 166.052 309.148H166.024Z" fill="#FFF9B2" fill-opacity="0.3"/>
<path d="M255.148 239.248C251.571 237.333 246.782 239.431 244.74 242.657C243.825 244.093 243.473 245.854 243.867 247.487C243.867 248.403 244.078 249.318 244.599 250.149C245.445 251.487 246.994 252.234 248.515 252.501C250.994 252.938 253.36 251.839 255.12 250.149C256.712 248.642 257.923 246.389 257.895 244.164C257.867 242.206 256.923 240.206 255.148 239.248Z" fill="#FFF9B2" fill-opacity="0.3"/>
<path d="M220.868 289.838C220.769 289.641 220.642 289.486 220.487 289.317C220.206 289.007 219.896 288.712 219.558 288.458C219.262 288.247 218.924 288.092 218.628 287.895C217.797 287.36 216.713 287.585 215.91 288.036C215.009 288.543 214.347 289.36 214.206 290.416C214.136 290.881 214.22 291.402 214.502 291.796C214.375 291.965 214.234 292.12 214.136 292.303C213.769 292.923 213.488 293.641 213.629 294.373C213.741 294.993 214.206 295.388 214.783 295.613C215.305 295.81 215.882 295.768 216.417 295.697C216.685 295.669 216.952 295.599 217.22 295.514C217.6 295.866 218.234 295.866 218.727 295.641C219.361 295.345 219.995 294.683 219.924 293.937C220.206 293.655 220.473 293.359 220.685 293.007C221.009 292.5 221.276 291.824 221.248 291.219C221.22 290.655 221.135 290.345 220.882 289.852L220.868 289.838Z" fill="#FFF9B2" fill-opacity="0.3"/>
<path d="M176.925 357.174C176.503 355.47 175.348 353.949 173.968 352.893C172.588 351.836 170.883 351.498 169.179 351.752C167.447 352.005 165.841 353.034 164.616 354.259C163.546 355.315 162.701 356.724 162.222 358.16C161.771 359.498 161.602 360.977 161.926 362.357C162.236 363.653 163.081 364.892 164.264 365.54C166.25 366.639 168.672 366.766 170.743 365.977C171.292 365.878 171.827 365.709 172.32 365.498C175.447 364.146 177.771 360.653 176.925 357.202V357.174ZM169.883 360.822C169.841 360.991 169.785 361.16 169.728 361.315C169.728 361.343 169.7 361.371 169.686 361.385C169.658 361.385 169.63 361.385 169.602 361.385C169.405 361.259 169.207 361.118 169.038 360.949C168.855 360.752 168.7 360.554 168.545 360.343C168.545 360.343 168.545 360.343 168.56 360.343C169.01 360.456 169.489 360.456 169.954 360.343C169.954 360.498 169.912 360.653 169.897 360.794L169.883 360.822Z" fill="#FFF9B2" fill-opacity="0.3"/>
<path d="M206.671 314.176C206.643 314.091 206.6 313.993 206.558 313.908C206.516 313.809 206.474 313.697 206.403 313.598C206.403 313.598 206.389 313.57 206.375 313.556C206.262 313.443 206.15 313.331 206.023 313.218C205.952 313.176 205.868 313.133 205.783 313.105C205.643 313.007 205.474 312.964 205.305 312.964C205.121 312.922 204.952 312.908 204.769 312.964C204.445 312.993 204.206 313.035 203.882 313.19C203.826 313.218 203.755 313.26 203.699 313.302C203.671 313.302 203.643 313.302 203.629 313.302C203.445 313.331 203.276 313.401 203.093 313.471C202.882 313.542 202.671 313.626 202.488 313.767C202.417 313.809 202.361 313.866 202.291 313.922C202.136 314.035 201.995 314.162 201.854 314.302C201.46 314.739 201.079 315.302 201.079 315.908C201.093 316.077 201.108 316.232 201.122 316.401C201.037 316.809 200.981 317.19 201.079 317.598C201.079 317.64 201.108 317.683 201.122 317.725C201.192 317.88 201.248 318.063 201.347 318.204C201.474 318.401 201.657 318.57 201.84 318.711C202.22 319.035 202.727 319.232 203.178 319.401C203.333 319.429 203.488 319.443 203.643 319.471L204.15 319.415C204.319 319.359 204.502 319.302 204.671 319.246C204.952 319.133 205.192 318.978 205.403 318.767C205.558 318.654 205.699 318.514 205.798 318.359C205.924 318.232 206.009 318.077 206.079 317.908C206.164 317.767 206.22 317.612 206.234 317.443C206.305 317.218 206.305 316.992 206.234 316.767C206.206 316.542 206.178 316.331 206.164 316.105C206.305 315.894 206.417 315.669 206.502 315.443C206.516 315.401 206.53 315.359 206.544 315.302C206.586 315.133 206.657 314.88 206.671 314.697C206.657 314.514 206.643 314.345 206.628 314.162L206.671 314.176Z" fill="#FFF9B2" fill-opacity="0.3"/>
<path d="M193.798 269.909C193.756 269.74 193.657 269.613 193.516 269.515C193.347 269.318 193.136 269.177 192.882 269.12C192.699 269.092 192.516 269.064 192.347 269.05C191.939 269.05 191.53 269.134 191.164 269.303C190.685 269.515 190.249 269.782 189.812 270.064C189.671 270.148 189.53 270.247 189.39 270.346C189.192 270.487 189.009 270.656 188.826 270.81C188.742 270.881 188.657 270.951 188.573 271.036C188.544 271.064 188.516 271.078 188.488 271.106C188.516 271.078 188.544 271.064 188.559 271.036C188.488 271.106 188.404 271.177 188.333 271.247C188.291 271.303 188.249 271.36 188.192 271.402C188.15 271.444 188.108 271.501 188.066 271.543C187.897 271.712 187.798 271.81 187.643 272.078C187.432 272.388 187.319 272.74 187.291 273.12C187.291 273.289 187.319 273.458 187.333 273.613C187.39 273.867 187.516 274.064 187.699 274.219C187.756 274.289 187.826 274.331 187.883 274.388C187.883 274.388 187.883 274.388 187.868 274.388C187.883 274.388 187.911 274.402 187.925 274.416C187.967 274.444 188.023 274.472 188.066 274.486C188.15 274.529 188.221 274.557 188.305 274.585C188.657 274.698 189.037 274.684 189.404 274.599C189.488 274.585 189.573 274.557 189.657 274.529C189.925 274.529 190.206 274.5 190.474 274.472C190.713 274.472 190.939 274.444 191.15 274.36C191.389 274.289 191.629 274.191 191.826 274.036C192.037 273.895 192.22 273.726 192.361 273.515C192.516 273.346 192.629 273.148 192.699 272.923C192.727 272.81 192.756 272.684 192.77 272.557C192.995 272.388 193.206 272.191 193.361 271.965C193.573 271.74 193.713 271.472 193.812 271.191C193.854 271.008 193.882 270.839 193.925 270.656C193.953 270.388 193.911 270.148 193.77 269.923L193.798 269.909Z" fill="#FFF9B2" fill-opacity="0.3"/>
<path d="M243.177 325.415C242.557 324.246 241.374 323.485 240.163 323.049C238.389 322.415 236.36 322.513 234.473 322.978C232.276 321.866 229.91 321.401 227.53 322.88C225.572 324.105 224.178 326.57 224.093 328.894C224.037 330.612 224.656 332.316 225.755 333.64C227.938 336.316 231.628 338.02 235.093 337.865C237.374 337.767 239.445 336.978 241.149 335.429C242.755 333.964 243.501 331.922 243.839 329.823C244.078 328.302 243.909 326.753 243.177 325.401V325.415Z" fill="#FFF9B2" fill-opacity="0.3"/>
<path d="M149.419 226.347C150.658 226.094 151.884 225.657 152.996 225.051C152.517 224.164 152.039 223.291 151.489 222.432C150.799 223.741 150.109 225.037 149.419 226.347Z" fill="#FFF9B2" fill-opacity="0.3"/>
<path d="M141.87 268.487C141.87 268.487 141.842 268.064 141.828 268.036V268.022C141.771 267.895 141.701 267.754 141.645 267.628C141.518 267.43 141.349 267.304 141.123 267.219C140.997 267.135 140.842 267.092 140.687 267.092C140.433 267.036 140.194 267.036 139.94 267.106C139.884 267.121 139.828 267.149 139.771 267.163C139.743 267.163 139.729 267.135 139.701 267.121C139.602 267.05 139.49 267.022 139.363 267.022C139.166 266.98 138.983 266.98 138.785 267.022C138.504 267.092 138.236 267.219 137.983 267.374C137.786 267.501 137.631 267.656 137.504 267.839C137.363 267.994 137.264 268.163 137.208 268.36C137.208 268.388 137.18 268.43 137.166 268.459C137.138 268.585 137.109 268.712 137.095 268.825C137.095 268.853 137.095 268.895 137.095 268.923C137.095 268.98 137.081 269.05 137.067 269.106C137.067 269.205 137.039 269.304 137.039 269.402C137.039 269.585 137.039 269.768 137.039 269.951C137.039 270.022 137.039 270.092 137.053 270.163C137.053 270.247 137.081 270.332 137.095 270.402C137.109 270.473 137.138 270.529 137.152 270.599C137.208 270.768 137.264 270.937 137.335 271.106C137.405 271.388 137.56 271.599 137.8 271.768C137.983 271.895 138.18 271.965 138.391 271.98C138.616 272.036 138.856 272.022 139.081 271.965C139.433 271.881 139.757 271.74 140.053 271.529C140.25 271.402 140.447 271.233 140.602 271.036C140.631 270.994 140.659 270.965 140.687 270.923C140.771 270.881 140.856 270.839 140.94 270.782C141.18 270.599 141.377 270.388 141.504 270.12C141.588 269.937 141.659 269.698 141.616 269.473C141.673 269.346 141.743 269.205 141.771 269.135C141.799 269.05 141.856 268.726 141.87 268.642V268.613C141.87 268.585 141.87 268.543 141.87 268.515C141.87 268.515 141.87 268.487 141.87 268.473V268.487Z" fill="#FFF9B2" fill-opacity="0.3"/>
<path d="M240.656 224.741C240.853 224.15 240.768 223.474 240.219 223.093C239.67 222.713 238.839 222.769 238.261 223.065C237.966 223.206 237.684 223.375 237.402 223.544C237.346 223.586 237.29 223.614 237.233 223.657C237.205 223.671 237.177 223.699 237.149 223.713C237.064 223.784 236.98 223.868 236.895 223.938C236.797 224.009 236.712 224.079 236.642 224.164C236.487 224.333 236.275 224.586 236.177 224.741C235.909 225.164 235.895 225.333 235.811 225.798C235.797 225.896 235.783 225.981 235.783 226.079C235.768 226.361 235.839 226.629 235.98 226.826V226.854C235.98 226.854 235.98 226.868 235.98 226.882C235.98 227.093 236.008 227.305 236.036 227.516C236.078 227.713 236.177 227.868 236.318 227.981C236.444 228.136 236.599 228.22 236.797 228.262C237.233 228.375 237.67 228.305 238.078 228.136C238.29 228.051 238.487 227.952 238.698 227.868C239.149 227.671 239.529 227.431 239.881 227.079C240.261 226.699 240.543 226.192 240.585 225.643C240.585 225.558 240.585 225.474 240.585 225.389C240.585 225.262 240.585 225.122 240.599 224.995C240.627 224.896 240.642 224.812 240.67 224.713L240.656 224.741Z" fill="#FFF9B2" fill-opacity="0.3"/>
<path d="M279.401 205.347C278.993 206.601 278.584 207.84 278.162 209.094C278.542 208.39 278.993 207.699 279.289 206.953C279.303 206.911 279.317 206.868 279.331 206.826C279.387 206.601 279.444 206.361 279.472 206.136C279.5 205.883 279.472 205.615 279.401 205.376C279.401 205.376 279.401 205.376 279.401 205.361V205.347Z" fill="#FFF9B2" fill-opacity="0.3"/>
<path d="M271.768 274.078C271.345 273.275 270.683 272.487 269.881 272.064C268.514 271.318 267.05 271.289 265.599 271.768C264.345 272.177 263.148 272.937 262.219 273.923C260.106 274.458 258.36 276.261 257.599 278.346C257.163 279.557 256.979 280.993 257.444 282.233C257.909 283.43 258.641 284.388 259.67 285.148C261.613 286.613 264.416 287.176 266.782 286.585C268.317 286.205 269.838 285.43 270.895 284.233C271.895 283.106 272.444 281.81 272.726 280.346C273.134 278.233 272.754 275.994 271.768 274.092V274.078Z" fill="#FFF9B2" fill-opacity="0.3"/>
<g style="mix-blend-mode:multiply" opacity="0.53">
<path d="M284.725 190.263C282.838 194.798 281.317 199.46 279.796 204.122C279.12 206.164 278.458 208.22 277.768 210.277C276.88 225.812 274.303 241.262 269.43 256.05C262.726 276.416 251.613 295.105 236.769 310.584C221.656 326.33 202.122 336.499 181.038 341.752C159.588 347.104 136.898 347.667 115.138 343.921C95.1387 340.484 75.6745 333.372 59.9707 320.246C45.5908 308.232 35.1545 292.218 28.042 275.007C20.5774 256.952 16.6057 237.572 14.7325 218.178C14.479 215.46 14.2677 212.742 14.0846 210.023C13.4227 216.77 13.0706 223.305 13.0706 229.544C13.0706 313.795 75.6604 382.089 152.87 382.089C230.079 382.089 292.669 313.795 292.669 229.544C292.669 215.403 290.908 199.784 287.598 183.559C286.626 185.784 285.655 188.01 284.725 190.263Z" fill="#7ADCCB"/>
</g>
<path d="M408.566 119.955C409.214 127.519 408.989 135.124 409.764 142.687C409.82 143.307 409.144 143.603 408.665 143.307C404.045 140.462 400.44 136.335 396.116 133.096C395.356 141.744 394.018 150.349 393.806 159.039C393.806 159.504 393.229 159.715 392.863 159.574C388.694 157.968 384.933 155.518 381.483 152.701C374.934 147.335 369.441 140.8 363.568 134.73C357.976 128.969 351.85 123.293 344.272 120.308C342.963 131.8 343.357 143.504 344.808 154.954C344.878 155.546 344.174 155.926 343.709 155.574C339.766 152.631 337.287 148.321 333.836 144.898C332.554 151.856 333.329 159.039 332.808 166.053C332.766 166.574 332.09 166.799 331.709 166.503C323.893 160.18 318.879 150.743 310.259 145.405C307.316 149.504 306.062 154.701 305.175 159.602C304.217 164.898 303.781 170.25 303.217 175.588C303.161 176.137 302.527 176.292 302.119 176.038C297.978 173.348 294.781 169.405 290.513 166.912C287.964 173.841 289.049 181.616 288.513 188.841C288.471 189.334 287.781 189.63 287.415 189.292C278.133 180.728 270.303 170.363 259.416 163.701C253.599 179.517 257.979 196.967 256.472 213.347C256.444 213.728 256.049 213.967 255.697 213.925C250.867 213.418 248.472 208.981 245.402 205.742C244.796 210.995 244.374 216.291 244.684 221.572C244.712 222.164 244.078 222.544 243.585 222.192C237.571 217.854 232.529 212.277 226.346 208.164C224.149 216.108 225.698 224.474 224.093 232.502C223.994 233.009 223.431 233.248 222.994 232.938C213.065 225.755 205.009 216.249 194.755 209.488C194.065 214.573 193.981 219.713 194.164 224.84C194.488 234.403 195.6 243.896 195.431 253.473C195.389 255.797 195.319 258.121 195.248 260.445C239.416 326.006 321.358 390.089 378.426 367.033C441.354 341.597 452.41 219.009 431.017 140.096C423.58 133.335 416.299 126.392 408.566 119.97V119.955Z" fill="#8CECD7"/>
<path d="M419.115 141.391C418.045 139.884 416.454 138.532 414.594 138.194C413.017 137.899 411.242 138.068 409.792 138.772C409.679 138.828 409.566 138.898 409.454 138.969C409.538 140.208 409.637 141.448 409.764 142.687C409.82 143.307 409.144 143.603 408.665 143.307C407.89 142.828 407.158 142.307 406.426 141.758C406.355 141.87 406.257 141.983 406.186 142.096C406.031 142.363 405.89 142.659 405.736 142.941C405.665 143.081 405.595 143.236 405.552 143.321C405.412 143.631 405.299 143.955 405.2 144.279C404.975 145.025 404.778 145.786 404.693 146.56C404.383 149.462 404.862 152.602 406.552 155.025C408.257 157.461 411.116 158.32 413.89 157.25C415.82 156.504 417.608 155.067 418.918 153.49C420.538 151.546 421.735 149.109 421.538 146.518C421.397 144.715 420.552 142.969 419.27 141.659C419.214 141.56 419.158 141.476 419.087 141.377L419.115 141.391Z" fill="#FFF9B2" fill-opacity="0.3"/>
<path d="M344.287 120.307C344.132 121.631 344.019 122.941 343.906 124.265C344.892 124.871 346.005 125.279 347.188 125.406C348.949 125.589 350.653 125.307 352.244 124.673C349.765 122.927 347.118 121.434 344.287 120.307Z" fill="#FFF9B2" fill-opacity="0.3"/>
<path d="M332.78 236.994C337.667 236.29 342.329 233.051 343.16 228.051C343.526 227.403 343.78 226.671 343.906 225.896C344.54 221.699 341.935 217.558 338.878 214.939C337.343 213.629 335.414 212.572 333.386 212.291C330.977 211.967 328.569 212.643 326.682 214.164C323.977 216.333 322.175 219.53 321.132 222.798C320.231 225.628 319.752 228.882 321.034 231.685C323.076 236.135 328.217 237.656 332.794 236.994H332.78Z" fill="#FFF9B2" fill-opacity="0.3"/>
<path d="M224.684 234.952C224.867 234.6 225.036 234.276 224.684 234.952V234.952Z" fill="#FFF9B2" fill-opacity="0.3"/>
<path d="M225.515 247.065C227.219 249.501 230.079 250.36 232.853 249.276C234.783 248.529 236.571 247.107 237.881 245.515C239.501 243.572 240.698 241.135 240.487 238.544C240.346 236.741 239.501 234.994 238.219 233.685C238.163 233.586 238.107 233.502 238.036 233.403C236.966 231.896 235.374 230.558 233.515 230.206C231.938 229.91 230.163 230.079 228.712 230.783C227.205 231.502 225.952 232.671 225.107 234.107C224.952 234.375 224.811 234.671 224.656 234.952C224.586 235.093 224.515 235.248 224.473 235.332C224.332 235.642 224.22 235.966 224.121 236.29C223.896 237.037 223.698 237.797 223.614 238.572C223.304 241.459 223.783 244.614 225.473 247.036L225.515 247.065Z" fill="#FFF9B2" fill-opacity="0.3"/>
<path d="M261.317 182.883C261.12 182.728 260.909 182.615 260.683 182.531C260.585 182.292 260.472 182.052 260.331 181.813C260.064 181.362 259.726 180.968 259.388 180.587C258.979 180.123 258.5 179.982 257.909 180.123C257.289 180.278 256.712 180.7 256.374 181.249C256.289 183.489 256.303 185.728 256.345 187.982C256.402 188.066 256.472 188.151 256.557 188.207C256.726 188.418 256.965 188.545 257.247 188.587C257.881 188.714 258.486 188.503 259.021 188.165C259.092 188.165 259.162 188.165 259.233 188.165C259.444 188.108 259.655 188.066 259.852 188.01C260.19 187.883 260.5 187.7 260.754 187.446C261.247 187.038 261.683 186.489 261.909 185.883C262.064 185.432 262.162 184.953 262.162 184.475C262.162 184.151 262.078 183.841 261.909 183.573C261.796 183.292 261.613 183.066 261.345 182.897L261.317 182.883Z" fill="#FFF9B2" fill-opacity="0.3"/>
<path d="M268.317 300.133C273.204 299.429 277.88 296.19 278.697 291.19C279.063 290.542 279.317 289.81 279.443 289.035C280.077 284.852 277.471 280.697 274.415 278.078C272.88 276.768 270.951 275.712 268.922 275.43C266.514 275.092 264.106 275.782 262.218 277.303C259.514 279.472 257.711 282.669 256.669 285.937C255.768 288.767 255.289 292.021 256.571 294.824C258.613 299.274 263.754 300.795 268.331 300.133H268.317Z" fill="#FFF9B2" fill-opacity="0.3"/>
<path d="M407.538 270.191C407.961 270.698 408.468 271.219 409.059 271.514C409.397 271.683 409.778 271.852 410.158 271.895C410.792 271.979 411.242 271.923 411.848 271.74C412.482 271.557 413.017 271.205 413.496 270.754C413.707 270.684 413.904 270.585 414.087 270.472C414.087 270.472 414.101 270.472 414.116 270.458C414.116 270.458 414.144 270.458 414.144 270.43C414.144 270.43 414.158 270.43 414.172 270.416C414.214 270.388 414.242 270.374 414.172 270.416C414.256 270.36 414.327 270.303 414.397 270.233C414.482 270.162 414.552 270.106 414.623 270.036C414.989 269.655 415.256 269.233 415.468 268.754C415.749 268.12 415.834 267.444 415.876 266.754C416.172 265.754 416.383 264.698 416.228 263.641C416.101 262.698 415.862 261.937 415.369 261.106C415.059 260.571 414.594 260.106 414.116 259.74C413.932 259.388 413.749 259.036 413.552 258.684C412.932 257.613 412.13 256.613 410.933 256.191C410.144 255.909 409.242 256.177 408.566 256.599C407.651 257.177 407.059 258.092 406.623 259.05C406.243 259.895 406.045 260.839 405.905 261.74C405.834 262.247 405.778 262.768 405.736 263.289C405.679 264.12 405.595 264.937 405.736 265.768C405.975 267.346 406.496 268.923 407.524 270.191H407.538Z" fill="#FFF9B2" fill-opacity="0.3"/>
<path d="M399.708 243.67C399.708 243.67 399.764 243.713 399.792 243.741C399.947 243.91 400.088 244.093 400.186 244.29C400.2 244.332 400.229 244.375 400.243 244.403C400.271 244.473 400.327 244.515 400.398 244.558C400.398 244.558 400.412 244.572 400.426 244.586C400.496 244.656 400.567 244.727 400.623 244.797L400.876 245.036C401.031 245.135 401.186 245.191 401.369 245.177C401.496 245.206 401.609 245.177 401.722 245.135C401.919 245.107 402.088 245.022 402.257 244.91C402.496 244.741 402.707 244.515 402.876 244.276C403.003 244.093 403.102 243.882 403.144 243.656C403.214 243.459 403.243 243.262 403.229 243.051C403.214 242.755 403.158 242.473 403.088 242.177C403.088 242.149 403.088 242.135 403.074 242.107C403.06 242.037 402.933 241.797 402.891 241.741C402.862 241.713 402.848 241.684 402.82 241.656C402.693 241.515 402.538 241.375 402.398 241.248C402.074 240.966 401.679 240.797 401.285 240.642C401.102 240.6 400.933 240.614 400.764 240.67C400.567 240.699 400.384 240.783 400.229 240.896C400.116 240.994 400.003 241.079 399.905 241.177C399.736 241.346 399.609 241.53 399.51 241.741C399.426 241.868 399.369 242.008 399.341 242.149C399.271 242.346 399.243 242.544 399.257 242.755C399.285 242.882 399.299 242.994 399.327 243.121C399.398 243.346 399.538 243.529 399.736 243.656L399.708 243.67Z" fill="#FFF9B2" fill-opacity="0.3"/>
<path d="M408.383 195.376C410.721 195.164 412.552 193.376 413.806 191.531C413.89 191.418 413.947 191.291 414.017 191.179C414.186 190.967 414.355 190.756 414.51 190.531C416.496 187.615 416.947 183.404 415.285 180.249C413.271 176.432 408.313 176.827 405.074 178.714C404.891 178.827 404.707 178.939 404.524 179.066C404.088 179.207 403.679 179.39 403.285 179.63C401.313 180.897 400.524 183.179 400.919 185.404C400.778 186.784 400.919 188.207 401.355 189.545C402.327 192.502 404.933 195.671 408.369 195.376H408.383Z" fill="#FFF9B2" fill-opacity="0.3"/>
<path d="M409.411 190.277C409.411 190.277 409.285 190.277 409.242 190.277C409.299 190.277 409.355 190.277 409.397 190.277C409.369 190.277 409.383 190.291 409.397 190.277C409.397 190.277 409.425 190.277 409.44 190.263C409.44 190.263 409.454 190.263 409.468 190.263C409.496 190.263 409.51 190.235 409.538 190.235C409.58 190.221 409.609 190.193 409.651 190.164C409.51 190.221 409.425 190.249 409.383 190.277H409.411Z" fill="#FFF9B2" fill-opacity="0.3"/>
<path d="M373.201 192.672C373.314 192.77 373.426 192.883 373.553 192.982C373.666 193.024 373.793 193.08 373.905 193.122H374.3C374.441 193.122 374.567 193.08 374.708 193.038C374.933 192.953 375.131 192.841 375.3 192.672C375.44 192.573 375.553 192.46 375.652 192.306C375.779 192.179 375.863 192.038 375.933 191.869C376.032 191.728 376.088 191.573 376.117 191.404C376.201 191.179 376.229 190.953 376.215 190.714C376.215 190.517 376.215 190.32 376.215 190.108C376.215 189.799 376.102 189.503 375.933 189.249C375.75 189.01 375.511 188.855 375.215 188.785C374.905 188.728 374.61 188.756 374.314 188.869C374.06 188.968 373.835 189.094 373.652 189.292C373.412 189.461 373.229 189.672 373.074 189.925C372.863 190.249 372.722 190.601 372.652 190.982C372.596 191.306 372.61 191.644 372.708 191.953C372.793 192.249 372.976 192.475 373.229 192.644L373.201 192.672Z" fill="#FFF9B2" fill-opacity="0.3"/>
<path d="M336.597 312.612C337.752 312.823 338.878 312.556 339.921 312.077C340.752 312.147 341.583 311.894 342.301 311.5C343.864 310.64 344.751 308.894 345.16 307.218C345.512 305.753 345.343 304.021 344.85 302.612C344.611 301.936 344.287 301.26 343.836 300.697C343.273 299.993 342.653 299.57 341.822 299.232C340.132 298.57 338.16 299.345 336.78 300.345C335.498 301.274 334.54 302.373 333.864 303.795C333.315 304.936 333.09 306.232 333.104 307.486C333.132 309.654 334.259 312.176 336.597 312.612Z" fill="#FFF9B2" fill-opacity="0.3"/>
<path d="M378.75 326.471C379.68 326.105 380.384 325.062 380.314 324.048C380.257 323.119 379.441 322.541 378.553 322.908C377.624 323.288 376.92 324.316 376.99 325.33C377.046 326.26 377.863 326.837 378.75 326.471Z" fill="#FFF9B2" fill-opacity="0.3"/>
<path d="M288.499 254.374C288.725 254.698 289.035 254.994 289.387 255.177C290.542 255.769 291.725 255.571 292.767 254.994C292.936 255.064 293.105 255.149 293.288 255.205C293.697 255.346 294.161 255.078 294.457 254.825C294.837 254.515 295.133 254.05 295.204 253.557C295.246 253.233 295.26 252.91 295.246 252.586C295.26 252.557 295.274 252.543 295.288 252.515C295.781 251.726 296.105 250.684 295.795 249.755C295.527 248.966 294.795 248.459 293.95 248.558C293.767 248.586 293.584 248.572 293.415 248.572C293.344 248.572 293.274 248.572 293.204 248.558C292.57 248.107 291.809 247.811 291.021 247.755C290.499 247.712 290.035 247.783 289.598 248.107C289.091 248.473 288.739 248.952 288.485 249.515C288.049 250.487 287.739 251.684 287.922 252.741C288.021 253.346 288.147 253.853 288.514 254.374H288.499Z" fill="#FFF9B2" fill-opacity="0.3"/>
<path d="M303.893 169.165C303.668 171.306 303.457 173.447 303.231 175.573C303.175 176.123 302.541 176.278 302.133 176.024C300.992 175.278 299.922 174.447 298.894 173.574C298.119 174.785 297.598 176.123 297.457 177.461C297.26 179.334 297.612 181.137 298.668 182.714C299.696 184.249 301.302 185.461 303.02 186.122C306.316 187.39 309.274 184.742 310.471 181.869C310.597 181.559 310.71 181.249 310.809 180.925C312.386 179.728 313.597 178.01 313.95 176.038C314.288 174.165 313.752 172.236 312.527 170.785C310.147 167.954 306.823 167.841 303.893 169.193V169.165Z" fill="#FFF9B2" fill-opacity="0.3"/>
<path d="M302.429 169.982C301.415 170.658 300.471 171.489 299.697 172.447C300.443 173.066 301.204 173.686 301.992 174.25C302.133 172.827 302.288 171.405 302.429 169.982Z" fill="#FFF9B2" fill-opacity="0.3"/>
<path d="M306.203 181.165L306.217 181.151H306.203V181.165Z" fill="#FFF9B2" fill-opacity="0.3"/>
<path d="M198.361 230.009C197.713 229.6 196.981 229.389 196.22 229.318C195.854 229.248 195.502 229.29 195.15 229.431C194.854 229.53 194.601 229.699 194.389 229.896C194.516 232.206 194.671 234.516 194.826 236.839C195.15 236.952 195.46 237.065 195.784 237.192C196.192 237.262 196.587 237.234 196.967 237.079C197.403 236.896 197.784 236.642 198.108 236.304C198.629 235.769 199.065 234.994 199.164 234.22C199.164 234.206 199.192 234.192 199.192 234.178C199.46 233.755 199.643 233.304 199.727 232.825C199.798 232.417 199.755 232.093 199.657 231.685C199.643 231.614 199.615 231.544 199.586 231.473C199.474 231.192 199.319 230.91 199.108 230.685C198.868 230.445 198.629 230.206 198.347 230.023L198.361 230.009Z" fill="#FFF9B2" fill-opacity="0.3"/>
<path d="M193.417 235.966C193.333 234.699 193.248 233.431 193.164 232.149C193.079 232.924 192.925 233.699 192.939 234.487C192.939 234.53 192.939 234.572 192.939 234.614C192.967 234.839 193.009 235.079 193.065 235.29C193.136 235.529 193.248 235.755 193.403 235.952L193.417 235.966Z" fill="#FFF9B2" fill-opacity="0.3"/>
<g style="mix-blend-mode:multiply" opacity="0.53">
<path d="M198.769 245.853C197.347 242.501 196.009 239.093 194.755 235.67C195.15 241.6 195.53 247.515 195.431 253.459C195.389 255.783 195.319 258.106 195.248 260.43C206.487 277.106 220.163 293.697 235.261 308.781C233.29 306.063 231.332 303.331 229.43 300.556C217.558 283.331 206.91 265.148 198.769 245.853Z" fill="#7ADCCB"/>
</g>
<g style="mix-blend-mode:screen" opacity="0.45">
<path d="M253.951 259.741C240.036 260.515 238.459 271.205 243.895 282.317C254.5 303.965 275.274 321.415 298.133 328.922C302.344 330.302 306.893 331.288 311.33 330.654C314.71 330.175 318.104 328.429 320.09 325.598C321.893 323.02 322.358 319.753 322.076 316.669C321.386 308.993 317.4 301.711 313.189 295.416C311.217 292.472 309.048 289.641 306.682 286.993C304.288 284.303 301.513 282.036 298.724 279.768C289.992 272.67 280.443 266.064 269.753 262.304C264.711 260.529 259.303 259.431 253.923 259.726L253.951 259.741Z" fill="white"/>
</g>
<g style="mix-blend-mode:multiply" opacity="0.53">
<path d="M431.031 140.082C423.594 133.321 416.313 126.378 408.581 119.955C409.229 127.519 409.003 135.124 409.778 142.687C409.834 143.307 409.158 143.603 408.679 143.307C404.06 140.462 400.454 136.335 396.13 133.096C395.37 141.744 394.032 150.349 393.821 159.039C393.821 159.504 393.243 159.715 392.877 159.574C388.708 157.968 384.948 155.518 381.497 152.701C374.948 147.335 369.455 140.8 363.582 134.73C358.329 129.307 352.568 123.998 345.597 120.899C352.061 131.673 358.357 142.546 364.244 153.659C372.159 168.644 379.37 184.052 384.99 200.052C390.469 215.643 394.454 231.868 395.581 248.389C396.595 263.205 395.285 278.275 390.187 292.303C385.863 304.19 378.948 315.133 369.596 323.71C360.216 332.316 348.681 338.33 336.371 341.499C323.062 344.935 308.795 345.541 295.387 342.344C282.655 339.316 271.007 333.034 260.444 325.443C249.529 317.598 239.628 308.457 229.698 299.429C224.642 294.838 219.572 290.232 214.333 285.838C260.374 341.245 328.808 387.089 378.441 367.033C441.369 341.597 452.425 219.009 431.031 140.096V140.082Z" fill="#7ADCCB"/>
</g>
</svg>
