<svg width="455" height="537" viewBox="0 0 455 537" fill="none" xmlns="http://www.w3.org/2000/svg">
<path d="M383 449.322C383 475.453 300.17 472.934 198 472.934C95.8295 472.934 12.9998 475.453 12.9998 449.322C12.9998 423.19 95.8295 402 198 402C300.17 402 383 423.19 383 449.322Z" fill="#AEDB83"/>
<path d="M105.575 254.508C89.2433 346.786 144.552 433.721 229.124 448.688C313.696 463.656 395.482 400.985 411.813 308.706C428.145 216.428 386.185 54.0668 301.613 39.0992C217.042 24.1316 121.906 162.229 105.575 254.508Z" fill="#4BD1F8"/>
<g style="mix-blend-mode:multiply" opacity="0.53">
<path d="M154.503 138.71C152.941 142.24 151.39 145.786 149.907 149.343C140.661 171.538 133.025 194.521 128.464 218.16C124.022 241.121 122.544 264.816 125.893 288.036C129.285 311.641 137.835 334.256 151.102 354.096C164.603 374.271 184.029 389.198 206.088 399.049C228.551 409.07 253.284 414.091 277.849 414.212C300.43 414.318 323.108 410.314 342.872 398.978C360.954 388.605 375.481 373.097 386.607 355.615C398.277 337.278 406.388 316.828 412.195 295.956C413.006 293.035 413.765 290.091 414.48 287.153C413.907 294.664 413.019 301.895 411.808 308.733C395.477 401.012 313.691 463.683 229.119 448.715C144.547 433.748 89.2384 346.814 105.57 254.535C111.869 218.945 129.88 176.556 154.496 138.751L154.503 138.71Z" fill="#84BDC9" fill-opacity="0.5"/>
</g>
<g style="mix-blend-mode:screen" opacity="0.45">
<path d="M284.842 77.1735C289.84 55.8087 306.842 56.2848 322.583 67.7605C353.234 90.1032 374.623 127.067 379.992 164.568C380.981 171.474 381.268 178.787 379.071 185.507C377.398 190.612 373.78 195.401 368.825 197.701C364.341 199.79 359.139 199.611 354.451 198.348C342.739 195.183 332.556 187.014 323.942 178.759C319.91 174.897 316.12 170.77 312.671 166.381C309.161 161.94 306.408 157.016 303.658 152.08C295.048 136.605 287.405 120.013 284.503 102.414C283.131 94.1107 282.906 85.4228 284.839 77.1871L284.842 77.1735Z" fill="white"/>
</g>
<g clip-path="url(#clip0_1_5653)">
<path d="M158.681 234.25C158.026 234.627 158.339 234.454 158.681 234.25V234.25Z" fill="#FFF9B2" fill-opacity="0.2"/>
<path d="M164.514 223.616C164.389 220.645 162.449 218.393 159.54 217.798C157.511 217.381 155.248 217.626 153.281 218.243C150.871 219.009 148.552 220.401 147.328 222.705C146.48 224.3 146.254 226.218 146.611 228.015C146.615 228.125 146.607 228.233 146.611 228.343C146.705 230.176 147.304 232.176 148.684 233.458C149.854 234.555 151.432 235.363 153.041 235.555C154.684 235.754 156.383 235.463 157.865 234.706C158.147 234.564 158.422 234.397 158.695 234.241C158.833 234.157 158.982 234.075 159.066 234.018C159.345 233.827 159.615 233.622 159.876 233.403C160.471 232.893 161.033 232.365 161.525 231.751C163.351 229.487 164.638 226.587 164.512 223.627L164.514 223.616Z" fill="#FFF9B2" fill-opacity="0.2"/>
<path d="M170.194 251.441C170.214 251.335 170.269 251.235 170.279 251.116C170.326 250.93 170.322 250.758 170.245 250.585C170.211 250.311 170.084 250.08 169.875 249.895C169.411 249.442 168.783 249.288 168.161 249.293C168.106 249.258 168.04 249.222 167.986 249.187C167.78 249.112 167.585 249.051 167.38 248.976C167.029 248.898 166.665 248.89 166.323 248.96C165.687 249.036 165.023 249.265 164.509 249.667C164.125 249.961 163.791 250.312 163.545 250.717C163.36 250.986 163.279 251.288 163.269 251.603C163.214 251.897 163.243 252.195 163.373 252.475C163.451 252.709 163.571 252.914 163.715 253.124C163.666 253.382 163.629 253.643 163.625 253.923C163.601 254.442 163.675 254.955 163.763 255.459C163.869 256.064 164.186 256.452 164.759 256.645C165.377 256.858 166.13 256.804 166.723 256.502C167.614 256.035 168.404 255.526 169.133 254.822C169.655 254.311 170.156 253.589 170.281 252.858C170.385 252.305 170.355 251.946 170.196 251.429L170.194 251.441Z" fill="#FFF9B2" fill-opacity="0.2"/>
<path d="M198.499 280.528C193.241 276.289 184.758 278.266 180.415 282.907C178.479 284.98 177.362 287.754 177.496 290.544C177.214 292.05 177.286 293.611 177.891 295.125C178.857 297.572 181.181 299.275 183.57 300.174C187.497 301.641 191.694 300.565 195.117 298.358C198.178 296.387 200.86 293.065 201.497 289.409C202.065 286.191 201.114 282.626 198.501 280.516L198.499 280.528Z" fill="#FFF9B2" fill-opacity="0.2"/>
<path d="M178.402 314.209C178.344 314.003 178.243 313.826 178.142 313.649C177.927 313.304 177.686 312.966 177.4 312.669C177.155 312.416 176.864 312.216 176.617 311.974C175.926 311.309 174.849 311.338 174.016 311.62C173.067 311.941 172.297 312.601 171.969 313.574C171.826 314.01 171.804 314.518 172.004 314.945C171.855 315.088 171.697 315.216 171.56 315.361C171.097 315.883 170.71 316.517 170.709 317.236C170.705 317.844 171.081 318.304 171.582 318.618C172.041 318.899 172.603 318.955 173.12 318.991C173.386 319.005 173.655 318.994 173.918 318.958C174.221 319.356 174.821 319.469 175.331 319.345C175.984 319.176 176.713 318.667 176.766 317.934C177.085 317.726 177.387 317.478 177.661 317.188C178.057 316.763 178.435 316.176 178.51 315.582C178.586 315.048 178.559 314.738 178.402 314.209Z" fill="#FFF9B2" fill-opacity="0.2"/>
<path d="M219.511 362.373C219.415 360.675 218.593 359.022 217.463 357.775C216.335 356.516 214.78 355.907 213.124 355.84C211.433 355.766 209.729 356.47 208.348 357.404C207.135 358.224 206.085 359.403 205.37 360.682C204.71 361.861 204.28 363.242 204.339 364.617C204.401 365.908 204.992 367.237 205.995 368.058C207.684 369.447 209.966 370.009 212.072 369.625C212.609 369.616 213.156 369.56 213.664 369.449C216.87 368.723 219.718 365.81 219.508 362.385L219.511 362.373ZM212.167 364.576C212.091 364.72 212.013 364.876 211.925 365.018C211.909 365.039 211.881 365.058 211.865 365.08C211.842 365.075 211.806 365.069 211.783 365.064C211.617 364.911 211.467 364.737 211.319 364.551C211.189 364.332 211.072 364.115 210.97 363.876C210.97 363.876 210.97 363.876 210.982 363.879C211.398 364.066 211.856 364.152 212.3 364.126C212.273 364.267 212.209 364.413 212.159 364.55L212.167 364.576Z" fill="#FFF9B2" fill-opacity="0.2"/>
<path d="M160.578 334.81C160.558 334.721 160.538 334.632 160.507 334.541C160.477 334.438 160.462 334.326 160.421 334.22C160.423 334.209 160.413 334.195 160.404 334.181C160.318 334.055 160.22 333.927 160.134 333.801C160.072 333.741 160.008 333.692 159.93 333.653C159.807 333.533 159.66 333.469 159.496 333.438C159.34 333.36 159.163 333.327 158.99 333.343C158.677 333.321 158.447 333.314 158.114 333.398C158.051 333.41 157.984 333.446 157.918 333.471C157.895 333.466 157.871 333.462 157.847 333.457C157.664 333.46 157.491 333.476 157.313 333.515C157.1 333.549 156.884 333.593 156.686 333.678C156.618 333.714 156.536 333.759 156.469 333.795C156.308 333.875 156.144 333.966 155.988 334.083C155.546 334.426 155.08 334.899 154.96 335.473C154.943 335.629 154.926 335.784 154.919 335.953C154.764 336.326 154.65 336.67 154.669 337.087C154.663 337.123 154.677 337.174 154.683 337.212C154.713 337.376 154.752 337.554 154.808 337.71C154.891 337.921 155.038 338.107 155.188 338.281C155.496 338.655 155.931 338.932 156.335 339.178C156.484 339.231 156.621 339.281 156.769 339.333L157.261 339.376C157.436 339.348 157.61 339.332 157.786 339.304C158.064 339.247 158.328 339.138 158.566 338.976C158.739 338.899 158.881 338.791 159.015 338.658C159.155 338.563 159.276 338.439 159.365 338.285C159.472 338.171 159.56 338.03 159.6 337.879C159.71 337.68 159.75 337.468 159.719 337.243C159.724 337.025 159.738 336.821 159.766 336.607C159.933 336.431 160.09 336.241 160.214 336.033C160.235 335.988 160.253 335.955 160.274 335.91C160.338 335.764 160.457 335.518 160.498 335.368C160.519 335.189 160.538 335.022 160.548 334.841L160.578 334.81Z" fill="#FFF9B2" fill-opacity="0.2"/>
<path d="M156.246 290.454C156.23 290.281 156.17 290.148 156.046 290.027C155.928 289.81 155.753 289.643 155.505 289.536C155.345 289.481 155.173 289.425 155 289.368C154.612 289.295 154.208 289.305 153.827 289.391C153.342 289.507 152.87 289.687 152.407 289.88C152.263 289.938 152.104 290.006 151.959 290.064C151.746 290.158 151.539 290.289 151.334 290.409C151.238 290.464 151.154 290.522 151.059 290.577C151.031 290.596 151.003 290.615 150.975 290.634C151.003 290.615 151.028 290.608 151.056 290.589C150.973 290.646 150.879 290.689 150.807 290.749C150.751 290.787 150.705 290.839 150.649 290.878C150.605 290.918 150.549 290.956 150.507 290.985C150.323 291.121 150.2 291.195 150 291.414C149.755 291.684 149.577 291.98 149.474 292.338C149.457 292.493 149.437 292.66 149.421 292.815C149.423 293.059 149.504 293.281 149.665 293.458C149.699 293.537 149.763 293.586 149.813 293.644C149.813 293.644 149.813 293.644 149.801 293.642C149.811 293.656 149.832 293.672 149.854 293.688C149.884 293.718 149.927 293.751 149.97 293.783C150.034 293.832 150.109 293.882 150.187 293.921C150.509 294.091 150.864 294.146 151.232 294.13C151.317 294.133 151.392 294.123 151.479 294.115C151.738 294.163 152.003 294.177 152.266 294.202C152.49 294.244 152.706 294.26 152.936 294.206C153.182 294.191 153.414 294.125 153.642 294.009C153.867 293.917 154.076 293.774 154.255 293.601C154.439 293.465 154.58 293.296 154.69 293.098C154.746 292.998 154.779 292.883 154.813 292.767C155.056 292.643 155.289 292.504 155.484 292.309C155.724 292.134 155.911 291.914 156.047 291.647C156.113 291.489 156.181 291.319 156.247 291.161C156.331 290.909 156.326 290.676 156.237 290.44L156.246 290.454Z" fill="#FFF9B2" fill-opacity="0.2"/>
<path d="M270.707 194.447C266.217 192.41 260.551 192.614 257.164 196.387C256.501 196.738 255.889 197.208 255.377 197.794C252.588 200.973 252.534 205.871 253.7 209.72C254.274 211.655 255.34 213.572 256.893 214.899C258.741 216.476 261.128 217.192 263.553 216.928C266.983 216.561 270.241 214.846 272.868 212.659C275.149 210.761 277.305 208.291 277.731 205.241C278.42 200.401 274.904 196.355 270.707 194.447Z" fill="#FFF9B2" fill-opacity="0.2"/>
<path d="M170.327 336.798C169.946 335.582 168.965 334.642 167.889 334.014C166.319 333.098 164.372 332.83 162.502 332.93C160.618 331.48 158.452 330.623 155.931 331.599C153.853 332.415 152.084 334.507 151.601 336.694C151.247 338.321 151.532 340.043 152.332 341.496C153.937 344.428 157.129 346.696 160.448 347.185C162.631 347.497 164.746 347.127 166.623 345.956C168.413 344.855 169.483 343.046 170.174 341.117C170.669 339.712 170.78 338.211 170.329 336.786L170.327 336.798Z" fill="#FFF9B2" fill-opacity="0.2"/>
<path d="M360.523 254.369C359.867 254.746 360.18 254.573 360.523 254.369V254.369Z" fill="#FFF9B2" fill-opacity="0.2"/>
<path d="M366.341 243.744C366.217 240.773 364.276 238.521 361.367 237.927C359.338 237.509 357.075 237.755 355.12 238.374C352.71 239.14 350.391 240.532 349.167 242.836C348.319 244.43 348.093 246.349 348.451 248.146C348.454 248.256 348.446 248.364 348.45 248.474C348.544 250.307 349.155 252.309 350.523 253.589C351.693 254.686 353.271 255.493 354.88 255.686C356.523 255.884 358.21 255.592 359.704 254.837C359.986 254.695 360.262 254.527 360.534 254.372C360.672 254.288 360.821 254.206 360.893 254.147C361.173 253.956 361.443 253.75 361.703 253.531C362.298 253.022 362.86 252.494 363.353 251.88C365.178 249.616 366.468 246.703 366.339 243.756L366.341 243.744Z" fill="#FFF9B2" fill-opacity="0.2"/>
<path d="M308.503 277.396C308.523 277.29 308.578 277.191 308.588 277.071C308.636 276.885 308.631 276.713 308.554 276.541C308.52 276.266 308.393 276.035 308.184 275.85C307.721 275.398 307.092 275.243 306.47 275.248C306.404 275.211 306.349 275.177 306.283 275.14C306.078 275.065 305.883 275.004 305.677 274.929C305.327 274.851 304.974 274.846 304.621 274.913C303.985 274.989 303.321 275.217 302.807 275.62C302.423 275.914 302.089 276.265 301.843 276.67C301.67 276.942 301.577 277.241 301.567 277.556C301.512 277.85 301.541 278.148 301.683 278.43C301.761 278.664 301.881 278.869 302.024 279.079C301.975 279.338 301.939 279.599 301.935 279.878C301.911 280.397 301.985 280.91 302.073 281.414C302.179 282.019 302.496 282.407 303.069 282.6C303.686 282.813 304.439 282.76 305.032 282.457C305.923 281.991 306.713 281.481 307.442 280.778C307.964 280.267 308.454 279.542 308.59 278.813C308.694 278.26 308.664 277.901 308.505 277.384L308.503 277.396Z" fill="#FFF9B2" fill-opacity="0.2"/>
<path d="M261.182 348.732C258.124 346.271 253.207 347.418 250.679 350.111C249.553 351.312 248.907 352.933 248.983 354.543C248.819 355.413 248.868 356.324 249.214 357.205C249.776 358.626 251.124 359.621 252.513 360.138C254.789 360.991 257.232 360.366 259.213 359.093C260.988 357.941 262.543 356.016 262.917 353.893C263.243 352.03 262.694 349.954 261.182 348.732Z" fill="#FFF9B2" fill-opacity="0.2"/>
<path d="M358.284 298.235C355.225 295.773 350.308 296.921 347.781 299.614C346.654 300.815 346.011 302.424 346.085 304.046C345.921 304.916 345.97 305.827 346.316 306.708C346.878 308.129 348.225 309.124 349.614 309.641C351.89 310.494 354.334 309.869 356.315 308.596C358.09 307.443 359.645 305.519 360.019 303.396C360.344 301.533 359.796 299.457 358.284 298.235Z" fill="#FFF9B2" fill-opacity="0.2"/>
<path d="M316.712 340.164C316.653 339.959 316.552 339.781 316.452 339.604C316.236 339.259 315.995 338.922 315.71 338.624C315.465 338.371 315.174 338.171 314.927 337.929C314.236 337.264 313.158 337.293 312.326 337.575C311.376 337.896 310.607 338.556 310.278 339.53C310.135 339.966 310.113 340.473 310.313 340.9C310.165 341.043 310.007 341.172 309.87 341.316C309.406 341.838 309.019 342.472 309.019 343.191C309.014 343.799 309.391 344.259 309.892 344.573C310.351 344.854 310.901 344.908 311.43 344.946C311.695 344.96 311.965 344.949 312.228 344.913C312.531 345.311 313.131 345.424 313.641 345.3C314.294 345.131 315.023 344.622 315.075 343.889C315.394 343.681 315.697 343.433 315.97 343.143C316.367 342.718 316.745 342.132 316.82 341.537C316.896 341.003 316.869 340.693 316.712 340.164Z" fill="#FFF9B2" fill-opacity="0.2"/>
<path d="M262.974 396.302C262.876 394.615 262.056 392.951 260.925 391.703C259.797 390.444 258.243 389.836 256.587 389.769C254.895 389.695 253.192 390.398 251.811 391.333C250.597 392.152 249.548 393.332 248.833 394.611C248.171 395.802 247.743 397.171 247.802 398.546C247.853 399.834 248.455 401.166 249.458 401.987C251.147 403.376 253.428 403.938 255.535 403.554C256.072 403.545 256.619 403.489 257.127 403.377C260.333 402.651 263.181 399.739 262.971 396.314L262.974 396.302ZM255.63 398.505C255.554 398.649 255.476 398.805 255.388 398.947C255.372 398.968 255.344 398.987 255.328 399.008C255.304 399.004 255.269 398.997 255.246 398.993C255.079 398.84 254.929 398.666 254.782 398.48C254.652 398.26 254.535 398.043 254.431 397.817C254.431 397.817 254.431 397.817 254.443 397.819C254.858 398.007 255.305 398.091 255.772 398.069C255.746 398.21 255.682 398.356 255.632 398.493L255.63 398.505Z" fill="#FFF9B2" fill-opacity="0.2"/>
<path d="M298.899 360.768C298.879 360.679 298.86 360.59 298.828 360.498C298.799 360.395 298.783 360.283 298.742 360.178C298.744 360.166 298.735 360.152 298.725 360.138C298.639 360.012 298.541 359.884 298.455 359.759C298.393 359.698 298.329 359.65 298.252 359.611C298.128 359.49 297.982 359.426 297.817 359.395C297.661 359.317 297.485 359.284 297.311 359.3C296.998 359.278 296.768 359.271 296.436 359.355C296.373 359.368 296.305 359.404 296.24 359.428C296.216 359.424 296.192 359.419 296.169 359.415C295.986 359.417 295.812 359.433 295.646 359.475C295.433 359.508 295.217 359.553 295.019 359.637C294.951 359.673 294.869 359.719 294.802 359.755C294.641 359.834 294.477 359.926 294.321 360.042C293.879 360.386 293.413 360.859 293.293 361.433C293.276 361.588 293.259 361.743 293.24 361.91C293.085 362.283 292.972 362.627 292.991 363.045C292.984 363.08 292.999 363.132 293.004 363.169C293.034 363.333 293.074 363.511 293.13 363.668C293.212 363.878 293.36 364.064 293.51 364.238C293.817 364.613 294.252 364.889 294.657 365.136C294.805 365.188 294.942 365.238 295.091 365.29L295.582 365.334C295.758 365.306 295.931 365.29 296.107 365.262C296.397 365.207 296.65 365.096 296.899 364.935C297.072 364.858 297.214 364.751 297.348 364.618C297.488 364.522 297.609 364.399 297.699 364.245C297.805 364.131 297.881 363.987 297.933 363.838C298.032 363.638 298.083 363.428 298.052 363.203C298.057 362.985 298.083 362.782 298.099 362.566C298.266 362.39 298.423 362.201 298.536 361.99C298.556 361.946 298.575 361.912 298.595 361.868C298.659 361.721 298.779 361.476 298.819 361.325C298.84 361.146 298.859 360.979 298.869 360.798L298.899 360.768Z" fill="#FFF9B2" fill-opacity="0.2"/>
<path d="M294.556 316.409C294.54 316.236 294.479 316.103 294.356 315.982C294.238 315.765 294.062 315.598 293.815 315.491C293.654 315.436 293.482 315.38 293.31 315.323C292.922 315.25 292.518 315.26 292.136 315.346C291.652 315.462 291.18 315.642 290.705 315.833C290.56 315.891 290.402 315.959 290.257 316.017C290.044 316.111 289.837 316.242 289.632 316.362C289.536 316.417 289.44 316.472 289.356 316.53C289.329 316.549 289.301 316.568 289.273 316.587C289.301 316.568 289.326 316.561 289.354 316.542C289.27 316.599 289.177 316.642 289.105 316.702C289.049 316.74 289.003 316.792 288.947 316.831C288.891 316.869 288.847 316.909 288.793 316.936C288.609 317.072 288.486 317.146 288.286 317.364C288.041 317.635 287.863 317.93 287.76 318.289C287.743 318.444 287.724 318.611 287.718 318.768C287.721 319.012 287.801 319.234 287.963 319.411C287.997 319.49 288.061 319.539 288.111 319.597C288.111 319.597 288.111 319.597 288.099 319.595C288.109 319.609 288.13 319.625 288.151 319.641C288.182 319.671 288.225 319.704 288.268 319.736C288.332 319.784 288.407 319.835 288.485 319.874C288.807 320.044 289.162 320.099 289.53 320.082C289.615 320.086 289.69 320.076 289.777 320.068C290.035 320.116 290.301 320.13 290.564 320.155C290.788 320.197 291.004 320.213 291.233 320.158C291.48 320.144 291.711 320.078 291.94 319.962C292.164 319.87 292.374 319.727 292.553 319.553C292.737 319.417 292.878 319.249 292.988 319.051C293.043 318.951 293.089 318.838 293.123 318.723C293.366 318.598 293.599 318.459 293.794 318.264C294.022 318.087 294.209 317.867 294.356 317.602C294.422 317.444 294.491 317.274 294.557 317.116C294.641 316.864 294.636 316.631 294.546 316.395L294.556 316.409Z" fill="#FFF9B2" fill-opacity="0.2"/>
<path d="M358.921 176.057C354.431 174.021 348.764 174.236 345.378 177.998C344.715 178.348 344.115 178.82 343.591 179.404C340.802 182.583 340.76 187.484 341.914 191.33C342.5 193.267 343.554 195.182 345.108 196.509C346.955 198.086 349.342 198.802 351.767 198.538C355.198 198.171 358.455 196.456 361.082 194.269C363.363 192.371 365.519 189.901 365.946 186.851C366.623 182.009 363.119 177.965 358.91 176.055L358.921 176.057Z" fill="#FFF9B2" fill-opacity="0.2"/>
<path d="M331.562 377.932C331.181 376.715 330.2 375.776 329.124 375.148C327.542 374.23 325.607 373.964 323.737 374.064C321.853 372.614 319.689 371.745 317.165 372.733C315.088 373.549 313.319 375.641 312.835 377.828C312.481 379.454 312.767 381.177 313.566 382.63C315.172 385.562 318.364 387.83 321.683 388.319C323.865 388.631 325.983 388.249 327.869 387.092C329.659 385.991 330.73 384.182 331.42 382.253C331.916 380.848 332.036 379.361 331.587 377.924L331.562 377.932Z" fill="#FFF9B2" fill-opacity="0.2"/>
<path d="M225.719 126.262C225.645 125.615 225.501 124.893 225.144 124.327C224.948 124.01 224.723 123.651 224.426 123.413C223.943 123.005 223.527 122.818 222.929 122.632C222.306 122.442 221.659 122.455 221.017 122.566C220.807 122.514 220.581 122.484 220.372 122.494C220.372 122.494 220.361 122.491 220.349 122.489C220.337 122.487 220.325 122.485 220.314 122.483C220.314 122.483 220.29 122.478 220.278 122.476C220.194 122.472 220.217 122.477 220.278 122.476C220.18 122.482 220.081 122.488 219.992 122.508C219.891 122.525 219.793 122.531 219.692 122.549C219.17 122.67 218.729 122.879 218.284 123.174C217.701 123.551 217.273 124.08 216.876 124.639C216.088 125.331 215.348 126.094 214.9 127.057C214.492 127.931 214.301 128.687 214.256 129.64C214.226 130.256 214.363 130.891 214.583 131.468C214.534 131.861 214.508 132.258 214.483 132.655C214.434 133.888 214.573 135.157 215.334 136.164C215.842 136.832 216.745 137.086 217.548 137.091C218.618 137.097 219.618 136.639 220.503 136.074C221.279 135.575 221.957 134.886 222.561 134.195C222.902 133.808 223.223 133.394 223.531 132.989C224.032 132.328 224.532 131.678 224.87 130.914C225.522 129.453 225.921 127.847 225.749 126.231L225.719 126.262Z" fill="#FFF9B2" fill-opacity="0.2"/>
<path d="M218.014 152.781C218.014 152.781 217.99 152.715 217.985 152.678C217.942 152.451 217.923 152.228 217.941 152C217.95 151.953 217.957 151.918 217.954 151.868C217.967 151.798 217.943 151.732 217.907 151.665C217.907 151.665 217.911 151.641 217.899 151.639C217.88 151.55 217.862 151.449 217.856 151.351L217.772 151.018C217.707 150.848 217.595 150.729 217.441 150.639C217.349 150.549 217.247 150.506 217.13 150.484C216.95 150.401 216.76 150.378 216.563 150.389C216.267 150.407 215.974 150.474 215.696 150.592C215.484 150.686 215.302 150.81 215.14 150.963C214.97 151.089 214.842 151.248 214.736 151.423C214.592 151.676 214.48 151.947 214.391 152.223C214.387 152.246 214.383 152.27 214.378 152.294C214.365 152.364 214.328 152.625 214.338 152.7C214.332 152.735 214.349 152.775 214.354 152.813C214.391 153.002 214.441 153.194 214.492 153.375C214.61 153.786 214.849 154.136 215.102 154.475C215.235 154.61 215.388 154.7 215.565 154.733C215.744 154.815 215.935 154.839 216.144 154.829C216.294 154.809 216.43 154.798 216.568 154.775C216.795 154.732 217.008 154.638 217.201 154.516C217.334 154.456 217.46 154.37 217.567 154.256C217.737 154.13 217.864 153.971 217.97 153.796C218.015 153.682 218.061 153.569 218.107 153.456C218.162 153.223 218.155 153.002 218.063 152.778L218.014 152.781Z" fill="#FFF9B2" fill-opacity="0.2"/>
<path d="M184.716 188.723C182.629 187.638 180.133 188.156 178.091 189.039C177.96 189.088 177.837 189.162 177.718 189.213C177.458 189.298 177.198 189.383 176.946 189.494C173.701 190.883 171.064 194.164 170.761 197.724C170.406 202.018 174.777 204.361 178.512 204.514C178.731 204.518 178.949 204.523 179.158 204.513C179.599 204.632 180.036 204.702 180.501 204.692C182.84 204.692 184.74 203.198 185.605 201.119C186.466 200.038 187.117 198.772 187.472 197.401C188.246 194.38 187.766 190.319 184.716 188.723Z" fill="#FFF9B2" fill-opacity="0.2"/>
<path d="M181.114 192.469C181.168 192.503 181.223 192.538 181.258 192.545C181.201 192.522 181.17 192.492 181.114 192.469C181.137 192.473 181.137 192.473 181.114 192.469C181.102 192.467 181.079 192.462 181.067 192.46C181.067 192.46 181.043 192.456 181.031 192.453C181.008 192.449 180.973 192.442 180.949 192.438C180.914 192.431 180.867 192.422 180.817 192.425C180.97 192.454 181.053 192.47 181.1 192.478L181.114 192.469Z" fill="#FFF9B2" fill-opacity="0.2"/>
<path d="M212.853 209.947C212.809 209.792 212.774 209.652 212.73 209.498C212.651 209.398 212.587 209.288 212.508 209.188L212.186 208.957C212.061 208.909 211.922 208.871 211.785 208.821C211.55 208.777 211.319 208.77 211.092 208.813C210.921 208.817 210.755 208.859 210.608 208.929C210.441 208.971 210.283 209.038 210.129 209.143C209.97 209.211 209.83 209.307 209.721 209.432C209.535 209.58 209.382 209.746 209.27 209.957C209.166 210.12 209.06 210.295 208.954 210.47C208.793 210.744 208.714 211.034 208.728 211.353C208.743 211.66 208.866 211.915 209.082 212.126C209.31 212.339 209.577 212.475 209.894 212.534C210.153 212.583 210.419 212.596 210.672 212.546C210.956 212.526 211.237 212.457 211.505 212.325C211.851 212.171 212.16 211.948 212.432 211.671C212.661 211.421 212.822 211.147 212.919 210.824C212.998 210.534 212.981 210.239 212.862 209.961L212.853 209.947Z" fill="#FFF9B2" fill-opacity="0.2"/>
<path d="M308.23 128.787C307.37 127.98 306.284 127.605 305.143 127.452C304.484 126.939 303.636 126.719 302.83 126.665C301.049 126.55 299.366 127.537 298.119 128.728C297.035 129.767 296.243 131.324 295.899 132.77C295.733 133.457 295.653 134.209 295.713 134.927C295.801 135.821 296.096 136.521 296.619 137.241C297.684 138.707 299.762 139.122 301.461 139.026C303.037 138.932 304.43 138.524 305.779 137.693C306.854 137.03 307.744 136.052 308.405 134.995C309.552 133.164 309.966 130.44 308.226 128.81L308.23 128.787Z" fill="#FFF9B2" fill-opacity="0.2"/>
<path d="M280.24 94.4482C279.263 94.265 278.1 94.7531 277.617 95.6369C277.174 96.4428 277.549 97.3658 278.49 97.5424C279.431 97.719 280.63 97.2376 281.113 96.3537C281.556 95.5478 281.181 94.6249 280.24 94.4482Z" fill="#FFF9B2" fill-opacity="0.2"/>
<path d="M317.32 203.669C317.309 203.277 317.205 202.856 316.999 202.525C316.345 201.403 315.24 200.928 314.061 200.853C313.956 200.699 313.853 200.534 313.734 200.39C313.467 200.059 312.924 200.031 312.537 200.08C312.049 200.147 311.547 200.357 311.221 200.734C311.017 200.976 310.832 201.246 310.657 201.53C310.631 201.537 310.604 201.556 310.59 201.566C309.747 201.968 308.91 202.663 308.682 203.619C308.48 204.434 308.828 205.242 309.586 205.616C309.742 205.694 309.893 205.795 310.045 205.897C310.097 205.943 310.163 205.98 310.215 206.026C310.506 206.751 310.992 207.402 311.623 207.874C312.04 208.183 312.465 208.385 313.007 208.353C313.621 208.322 314.185 208.111 314.699 207.769C315.587 207.193 316.488 206.351 316.906 205.357C317.146 204.794 317.311 204.301 317.297 203.665L317.32 203.669Z" fill="#FFF9B2" fill-opacity="0.2"/>
<path d="M270.166 258.472C270.132 256.639 269.429 254.741 268.341 253.27C266.255 250.43 262.348 251.061 259.787 252.834C259.519 253.027 259.251 253.221 258.989 253.452C257.021 253.618 255.072 254.397 253.711 255.872C252.427 257.263 251.825 259.172 252.082 261.047C253.109 268.815 264.295 268.6 268.362 263.542C269.537 262.081 270.212 260.369 270.166 258.472Z" fill="#FFF9B2" fill-opacity="0.2"/>
<path d="M245.484 305.812C245.484 305.812 245.536 305.408 245.531 305.37C245.531 305.37 245.533 305.358 245.535 305.347C245.501 305.206 245.464 305.077 245.429 304.937C245.347 304.727 245.206 304.566 245.008 304.456C244.894 304.349 244.759 304.288 244.606 304.259C244.382 304.156 244.145 304.123 243.887 304.136C243.825 304.137 243.774 304.151 243.723 304.166C243.699 304.162 243.68 304.134 243.659 304.117C243.575 304.041 243.476 303.986 243.359 303.964C243.189 303.895 243 303.86 242.817 303.862C242.533 303.882 242.252 303.951 241.988 304.06C241.79 304.144 241.61 304.257 241.446 304.421C241.29 304.538 241.165 304.685 241.071 304.862C241.052 304.895 241.036 304.916 241.006 304.947C240.96 305.061 240.915 305.174 240.869 305.287C240.862 305.322 240.858 305.346 240.851 305.381C240.84 305.44 240.818 305.497 240.795 305.553C240.777 305.647 240.736 305.737 240.718 305.831C240.673 306.005 240.652 306.184 240.633 306.351C240.62 306.422 240.609 306.48 240.607 306.553C240.603 306.577 240.596 306.612 240.592 306.636C240.596 306.612 240.6 306.589 240.605 306.565C240.589 306.647 240.6 306.722 240.608 306.809C240.608 306.87 240.619 306.945 240.631 307.008C240.647 307.182 240.678 307.346 240.705 307.522C240.727 307.794 240.829 308.032 241.024 308.227C241.178 308.378 241.353 308.484 241.551 308.533C241.766 308.622 241.977 308.662 242.212 308.645C242.555 308.636 242.899 308.555 243.219 308.408C243.429 308.325 243.648 308.196 243.823 308.046C243.853 308.015 243.895 307.986 243.925 307.955C244.014 307.936 244.105 307.904 244.187 307.858C244.441 307.736 244.667 307.571 244.845 307.336C244.96 307.175 245.073 306.965 245.066 306.744C245.147 306.638 245.244 306.51 245.278 306.455C245.317 306.378 245.434 306.083 245.461 306.003C245.461 306.003 245.465 305.979 245.467 305.967C245.474 305.932 245.481 305.897 245.485 305.873C245.487 305.861 245.489 305.85 245.492 305.838L245.484 305.812Z" fill="#FFF9B2" fill-opacity="0.2"/>
<path d="M347.114 281.877C347.409 281.347 347.446 280.696 346.985 280.232C346.535 279.77 345.736 279.681 345.144 279.85C344.835 279.938 344.536 280.041 344.246 280.157C344.181 280.181 344.127 280.208 344.073 280.234C344.045 280.253 344.019 280.26 343.98 280.277C343.884 280.332 343.789 280.388 343.693 280.443C343.588 280.484 343.492 280.539 343.406 280.608C343.234 280.746 342.988 280.956 342.867 281.079C342.545 281.433 342.504 281.584 342.326 282.013C342.299 282.093 342.27 282.185 342.242 282.265C342.18 282.534 342.204 282.794 342.296 283.019C342.296 283.019 342.292 283.042 342.289 283.054C342.289 283.054 342.287 283.066 342.285 283.077C342.247 283.277 342.233 283.482 342.219 283.686C342.219 283.881 342.287 284.04 342.406 284.184C342.497 284.347 342.633 284.47 342.802 284.539C343.183 284.72 343.629 284.742 344.036 284.648C344.252 284.604 344.456 284.557 344.673 284.5C345.132 284.391 345.541 284.224 345.942 283.971C346.373 283.686 346.736 283.243 346.869 282.732C346.884 282.649 346.897 282.579 346.913 282.496C346.937 282.367 346.959 282.249 346.995 282.122C347.037 282.032 347.076 281.954 347.117 281.865L347.114 281.877Z" fill="#FFF9B2" fill-opacity="0.2"/>
<path d="M387.374 270.37C387.351 270.171 387.282 269.951 387.221 269.757C387.204 269.717 387.187 269.677 387.182 269.64C387.057 269.397 386.881 269.169 386.726 268.957C386.504 268.648 386.265 268.359 386.043 268.05C385.744 267.762 385.387 267.586 384.987 267.511C384.528 267.425 384.064 267.435 383.605 267.544C382.879 267.712 382.095 268.125 381.593 268.725C381.581 268.723 381.555 268.73 381.541 268.74C381.088 268.947 380.695 269.226 380.37 269.592C380.08 269.903 379.964 270.198 379.819 270.584C379.794 270.653 379.778 270.735 379.765 270.806C379.71 271.1 379.674 271.422 379.738 271.726C379.81 272.057 379.882 272.387 380.02 272.693C380.34 273.386 380.854 273.958 381.447 274.434C381.715 274.692 382.039 274.85 382.404 274.918C382.709 274.976 383.024 274.986 383.326 274.933C383.671 274.913 383.992 274.827 384.302 274.666C384.716 274.475 385.081 274.215 385.387 273.883C385.917 273.203 386.546 272.578 386.999 271.847C387.018 271.814 387.038 271.769 387.057 271.736C387.155 271.535 387.258 271.311 387.31 271.101C387.378 270.87 387.403 270.607 387.388 270.361L387.374 270.37Z" fill="#FFF9B2" fill-opacity="0.2"/>
<path d="M367.867 334.271C367.611 333.432 367.114 332.571 366.439 332.018C365.277 331.069 363.893 330.785 362.421 330.972C361.159 331.137 359.883 331.641 358.836 332.418C356.741 332.549 354.762 333.944 353.661 335.783C353.024 336.845 352.6 338.191 352.829 339.439C353.05 340.662 353.577 341.687 354.414 342.611C355.999 344.358 358.558 345.387 360.912 345.244C362.439 345.153 364.011 344.693 365.237 343.741C366.391 342.849 367.139 341.723 367.67 340.385C368.434 338.458 368.471 336.248 367.879 334.274L367.867 334.271Z" fill="#FFF9B2" fill-opacity="0.2"/>
</g>
<g opacity="0.5">
<path d="M356.95 223.084C356.516 222.248 355.802 219.384 350.869 219.384H310.61L305.728 289.586H363.577C366.118 289.586 367.682 288.53 367.682 285.617C367.682 285.617 367.803 262.959 367.803 254.577C367.803 251.663 367.639 250.81 366.907 248.386C363.862 238.302 356.95 223.087 356.95 223.087V223.084Z" fill="#2ABAA4"/>
<path d="M353.343 226.649C352.979 225.917 352.384 223.405 348.255 223.405H314.556L314.386 284.906H358.896C361.021 284.906 362.329 283.979 362.329 281.43C362.329 281.43 362.43 261.581 362.43 254.237C362.43 251.688 362.293 250.938 361.683 248.817C359.133 239.982 353.346 226.652 353.346 226.652L353.343 226.649Z" fill="#00A691"/>
<path d="M358.246 254.8C358.24 252.587 358.122 251.89 357.627 249.995C355.523 241.965 350.747 229.847 350.747 229.847C350.447 229.183 349.952 226.9 346.546 226.9H318.716L318.646 254.8H358.246Z" fill="#7AD0E7"/>
<path d="M308.679 284.674C308.384 288.964 305.485 292.028 301.541 292.028H190.03C186.089 292.028 183.19 288.964 182.892 284.674L177.34 213.573C177.34 209.509 180.533 206.216 184.477 206.216H305.804C309.744 206.216 312.938 209.509 312.938 213.573L308.676 284.677L308.679 284.674Z" fill="#FFCD28"/>
<path d="M205.871 270.686C205.871 273.933 203.26 276.565 200.042 276.565H197.999C194.781 276.565 192.173 273.936 192.173 270.686V231.307C192.173 228.063 194.781 225.431 197.999 225.431H200.042C203.26 225.431 205.871 228.063 205.871 231.307V270.683V270.686Z" fill="#F9A133"/>
<path d="M235.313 270.686C235.313 273.933 232.705 276.565 229.481 276.565H227.444C224.223 276.565 221.612 273.936 221.612 270.686V231.307C221.612 228.063 224.22 225.431 227.444 225.431H229.481C232.702 225.431 235.313 228.063 235.313 231.307V270.683V270.686Z" fill="#F9A133"/>
<path d="M267.236 270.686C267.236 273.933 264.628 276.565 261.407 276.565H259.367C256.146 276.565 253.535 273.936 253.535 270.686V231.307C253.535 228.063 256.146 225.431 259.367 225.431H261.407C264.628 225.431 267.236 228.063 267.236 231.307V270.683V270.686Z" fill="#F9A133"/>
<path d="M297.406 270.686C297.406 273.933 294.793 276.565 291.575 276.565H289.534C286.313 276.565 283.705 273.936 283.705 270.686V231.307C283.705 228.063 286.313 225.431 289.534 225.431H291.575C294.793 225.431 297.406 228.063 297.406 231.307V270.683V270.686Z" fill="#F9A133"/>
<g style="mix-blend-mode:multiply">
<path d="M306.523 270.358C297.431 270.38 288.363 271.227 279.282 271.588C266.972 272.081 255.001 271.484 242.815 269.48C229.642 267.31 216.636 261.398 207.013 251.948C195.051 240.2 189.674 223.684 189.668 207.112C189.668 206.813 189.684 206.516 189.693 206.216H184.477C180.533 206.216 177.34 209.509 177.34 213.573L182.892 284.677C183.19 288.967 186.089 292.031 190.03 292.031H301.541C305.482 292.031 308.384 288.967 308.679 284.677L309.55 270.196C308.551 270.3 307.543 270.358 306.523 270.361V270.358Z" fill="#FCDCCD"/>
</g>
<path d="M316.49 210.941C316.49 214.325 313.767 217.07 310.409 217.07H179.367C176.007 217.07 173.283 214.325 173.283 210.941V208.184C173.283 204.796 176.007 202.054 179.367 202.054H310.412C313.77 202.054 316.493 204.796 316.493 208.184V210.941H316.49Z" fill="#F9A133"/>
<g style="mix-blend-mode:multiply">
<path d="M313.5 212.645H228.361C216.436 212.535 191.912 215.504 182.774 202.054H179.367C176.007 202.054 173.283 204.796 173.283 208.184V210.941C173.283 214.325 176.007 217.07 179.364 217.07H310.409C313.318 217.07 315.743 215.011 316.341 212.263C315.431 212.502 314.477 212.645 313.5 212.645Z" fill="#F5E1D8"/>
</g>
<g style="mix-blend-mode:soft-light">
<path d="M277.943 220.382C277.943 220.382 295.825 218.781 302.704 233.017C308.825 245.684 304.164 247.416 300.476 244.931C296.784 242.443 293.833 238.468 287.777 237.767C281.72 237.063 280.093 238.602 277.145 232.145C274.2 225.691 269.789 221.266 277.946 220.382H277.943Z" fill="#EBE0D8"/>
</g>
<path d="M370.8 284.864H173.187V294.81H370.8V284.864Z" fill="#242E63"/>
<g style="mix-blend-mode:multiply">
<path d="M370.8 289.987H173.187V294.809H370.8V289.987Z" fill="#3F8AB6"/>
</g>
<path d="M229.669 295.792C229.669 306.64 220.941 315.438 210.182 315.438C199.423 315.438 190.688 306.64 190.688 295.792C190.688 284.943 199.417 276.145 210.182 276.145C220.947 276.145 229.669 284.94 229.669 295.792Z" fill="#141A49"/>
<path d="M221.955 295.792C221.955 302.343 216.682 307.656 210.185 307.656C203.688 307.656 198.412 302.343 198.412 295.792C198.412 289.24 203.685 283.927 210.185 283.927C216.685 283.927 221.955 289.24 221.955 295.792Z" fill="#7AD0E7"/>
<g style="mix-blend-mode:multiply">
<path d="M210.182 279.934C201.472 279.934 194.414 287.049 194.414 295.825C194.414 304.602 201.472 311.72 210.182 311.72C218.892 311.72 225.945 304.605 225.945 295.825C225.945 287.046 218.889 279.934 210.182 279.934ZM210.182 305.425C204.924 305.425 200.659 301.129 200.659 295.825C200.659 290.522 204.924 286.228 210.182 286.228C215.44 286.228 219.703 290.525 219.703 295.825C219.703 301.126 215.44 305.425 210.182 305.425Z" fill="#A6B2C4"/>
</g>
<path d="M357.329 295.792C357.329 306.64 348.604 315.438 337.839 315.438C327.073 315.438 318.351 306.64 318.351 295.792C318.351 284.943 327.076 276.145 337.839 276.145C348.601 276.145 357.329 284.94 357.329 295.792Z" fill="#141A49"/>
<path d="M349.151 299.082C350.953 292.787 347.35 286.211 341.104 284.394C334.858 282.578 328.335 286.21 326.533 292.506C324.731 298.802 328.334 305.378 334.58 307.194C340.826 309.01 347.35 305.378 349.151 299.082Z" fill="#7AD0E7"/>
<g style="mix-blend-mode:multiply">
<path d="M337.839 279.934C329.132 279.934 322.073 287.049 322.073 295.825C322.073 304.602 329.132 311.72 337.839 311.72C346.546 311.72 353.604 304.605 353.604 295.825C353.604 287.046 346.546 279.934 337.839 279.934ZM337.839 305.425C332.584 305.425 328.318 301.129 328.318 295.825C328.318 290.522 332.58 286.228 337.839 286.228C343.097 286.228 347.359 290.525 347.359 295.825C347.359 301.126 343.097 305.425 337.839 305.425Z" fill="#A6B2C4"/>
</g>
</g>
<defs>
<clipPath id="clip0_1_5653">
<rect width="245.127" height="308.838" fill="white" transform="translate(174.769 74.6558) rotate(10.6285)"/>
</clipPath>
</defs>
</svg>
