<svg width="460" height="558" viewBox="0 0 460 558" fill="none" xmlns="http://www.w3.org/2000/svg">
<path d="M447 469.322C447 495.453 364.17 492.934 262 492.934C159.83 492.934 77 495.453 77 469.322C77 443.19 159.83 422 262 422C364.17 422 447 443.19 447 469.322Z" fill="#AEDB83"/>
<path d="M360.466 259.183C377.513 354.002 320.896 443.527 233.996 459.149C147.097 474.772 62.844 410.573 45.7977 315.754C28.7513 220.935 71.4345 53.9078 158.334 38.2851C245.234 22.6624 343.42 164.365 360.466 259.183Z" fill="#FCD84D"/>
<g style="mix-blend-mode:multiply" opacity="0.53">
<path d="M309.847 140.291C311.463 143.916 313.067 147.556 314.602 151.21C324.168 174 332.082 197.606 336.837 221.895C341.467 245.487 343.053 269.841 339.675 293.721C336.253 317.998 327.527 341.271 313.944 361.703C300.12 382.481 280.192 397.88 257.542 408.069C234.477 418.433 209.065 423.664 183.812 423.857C160.599 424.029 137.274 419.975 116.925 408.378C98.3071 397.764 83.3297 381.862 71.8431 363.921C59.7957 345.103 51.4002 324.102 45.3724 302.661C44.5307 299.661 43.7423 296.636 42.9982 293.618C43.6089 301.338 44.5419 308.769 45.8051 315.796C62.8515 410.615 147.104 474.814 234.004 459.191C320.904 443.569 377.52 354.044 360.474 259.226C353.899 222.656 335.266 179.129 309.854 140.333L309.847 140.291Z" fill="#84BDC9" fill-opacity="0.5"/>
</g>
<g style="mix-blend-mode:screen" opacity="0.45">
<path d="M175.682 77.3797C170.484 55.4301 153.007 55.967 136.858 67.8081C105.41 90.8623 83.5242 128.921 78.1089 167.488C77.1117 174.59 76.8371 182.109 79.1142 189.011C80.8485 194.255 84.5815 199.168 89.6816 201.518C94.2968 203.654 99.6439 203.455 104.46 202.143C116.491 198.858 126.937 190.431 135.769 181.92C139.904 177.939 143.788 173.686 147.322 169.164C150.917 164.589 153.734 159.52 156.548 154.437C165.356 138.504 173.166 121.427 176.101 103.326C177.487 94.7867 177.695 85.8548 175.685 77.3936L175.682 77.3797Z" fill="white"/>
</g>
<g clip-path="url(#clip0_1_5728)">
<path d="M74.4434 265.227C73.8472 265.836 74.1336 265.553 74.4434 265.227V265.227Z" fill="#FFF9B2" fill-opacity="0.2"/>
<path d="M77.5357 251.871C76.4952 248.675 73.7024 246.815 70.3628 247.055C68.0329 247.22 65.6509 248.177 63.7032 249.449C61.3208 251.018 59.2265 253.24 58.5995 256.121C58.1654 258.116 58.5046 260.273 59.4397 262.12C59.4773 262.239 59.5014 262.359 59.539 262.478C60.2001 264.444 61.46 266.439 63.3482 267.413C64.9532 268.25 66.9126 268.648 68.7172 268.367C70.5622 268.082 72.3181 267.248 73.6963 265.972C73.9597 265.731 74.2073 265.465 74.456 265.212C74.5798 265.079 74.717 264.944 74.7906 264.856C75.0358 264.563 75.2663 264.258 75.4822 263.94C75.973 263.204 76.4222 262.457 76.7701 261.639C78.0624 258.618 78.5762 255.067 77.5369 251.885L77.5357 251.871Z" fill="#FFF9B2" fill-opacity="0.2"/>
<path d="M92.1805 280.429C92.1698 280.307 92.1995 280.182 92.1742 280.049C92.1686 279.832 92.1116 279.647 91.9752 279.482C91.8549 279.194 91.6464 278.981 91.3633 278.843C90.7225 278.492 89.9928 278.516 89.3189 278.711C89.2493 278.69 89.1662 278.67 89.0966 278.649C88.851 278.63 88.62 278.623 88.3744 278.604C87.9698 278.626 87.5724 278.729 87.2224 278.909C86.5556 279.185 85.9042 279.637 85.4688 280.232C85.1414 280.668 84.886 281.153 84.7417 281.668C84.6234 282.018 84.6274 282.371 84.7121 282.717C84.7418 283.054 84.8644 283.369 85.0911 283.635C85.2469 283.865 85.4395 284.052 85.6591 284.237C85.6852 284.533 85.7248 284.829 85.8059 285.134C85.9376 285.706 86.1746 286.243 86.4238 286.764C86.7229 287.39 87.1853 287.716 87.8659 287.751C88.6016 287.795 89.4028 287.507 89.9541 286.996C90.7798 286.217 91.4821 285.422 92.0591 284.434C92.4703 283.718 92.7942 282.779 92.7071 281.945C92.6512 281.311 92.5092 280.929 92.1793 280.415L92.1805 280.429Z" fill="#FFF9B2" fill-opacity="0.2"/>
<path d="M131.774 303.459C124.774 300.449 116.166 305.188 112.866 311.565C111.396 314.412 111.028 317.772 112.024 320.769C112.176 322.494 112.73 324.171 113.848 325.635C115.642 328.003 118.684 329.148 121.552 329.398C126.262 329.798 130.491 327.347 133.534 323.9C136.258 320.821 138.157 316.387 137.735 312.213C137.371 308.536 135.252 304.946 131.773 303.446L131.774 303.459Z" fill="#FFF9B2" fill-opacity="0.2"/>
<path d="M120.218 346.253C120.091 346.047 119.928 345.885 119.765 345.723C119.426 345.413 119.061 345.119 118.661 344.883C118.318 344.682 117.94 344.552 117.599 344.365C116.646 343.851 115.485 344.212 114.667 344.773C113.734 345.412 113.1 346.364 113.039 347.525C113.017 348.043 113.148 348.602 113.495 349.006C113.377 349.207 113.245 349.395 113.14 349.594C112.796 350.304 112.569 351.112 112.787 351.894C112.968 352.558 113.517 352.944 114.157 353.132C114.741 353.298 115.368 353.188 115.94 353.07C116.232 353.004 116.522 352.91 116.796 352.791C117.246 353.132 117.932 353.071 118.449 352.781C119.106 352.397 119.742 351.621 119.576 350.807C119.859 350.483 120.112 350.121 120.32 349.722C120.621 349.139 120.853 348.385 120.753 347.714C120.673 347.11 120.549 346.781 120.218 346.253Z" fill="#FFF9B2" fill-opacity="0.2"/>
<path d="M179.524 386.146C178.903 384.326 177.506 382.778 175.899 381.765C174.291 380.738 172.418 380.55 170.599 380.982C168.74 381.417 167.105 382.703 165.891 384.141C164.823 385.404 164.043 387.007 163.656 388.617C163.299 390.103 163.253 391.737 163.736 393.216C164.197 394.602 165.243 395.868 166.583 396.457C168.839 397.453 171.487 397.369 173.657 396.309C174.238 396.135 174.814 395.908 175.332 395.631C178.591 393.863 180.796 389.824 179.525 386.16L179.524 386.146ZM172.222 390.784C172.183 390.964 172.146 391.157 172.094 391.338C172.083 391.366 172.059 391.396 172.048 391.424C172.021 391.426 171.98 391.43 171.953 391.432C171.726 391.316 171.51 391.172 171.293 391.015C171.086 390.816 170.892 390.615 170.71 390.387C170.71 390.387 170.71 390.387 170.723 390.386C171.231 390.463 171.756 390.417 172.229 390.253C172.243 390.415 172.218 390.594 172.206 390.758L172.222 390.784Z" fill="#FFF9B2" fill-opacity="0.2"/>
<path d="M107.143 374.115C107.094 374.024 107.046 373.933 106.984 373.844C106.92 373.741 106.869 373.623 106.792 373.521C106.791 373.508 106.777 373.495 106.762 373.483C106.63 373.372 106.485 373.263 106.353 373.152C106.268 373.105 106.184 373.072 106.087 373.053C105.916 372.96 105.738 372.935 105.55 372.951C105.357 372.914 105.155 372.932 104.972 373.002C104.625 373.073 104.374 373.136 104.038 373.329C103.973 373.362 103.911 373.422 103.847 373.468C103.82 373.47 103.793 373.473 103.766 373.475C103.568 373.533 103.385 373.604 103.204 373.701C102.982 373.802 102.762 373.917 102.572 374.069C102.51 374.129 102.435 374.204 102.372 374.264C102.222 374.399 102.072 374.548 101.939 374.723C101.563 375.232 101.201 375.888 101.246 376.55C101.275 376.724 101.304 376.898 101.347 377.085C101.292 377.538 101.274 377.947 101.422 378.396C101.426 378.436 101.457 378.488 101.474 378.527C101.557 378.697 101.654 378.878 101.763 379.032C101.916 379.235 102.133 379.393 102.349 379.537C102.797 379.851 103.354 380.019 103.868 380.164C104.045 380.176 104.209 380.188 104.386 380.2L104.933 380.097C105.115 380.013 105.298 379.943 105.481 379.859C105.766 379.711 106.019 379.512 106.228 379.263C106.392 379.126 106.513 378.966 106.619 378.78C106.742 378.634 106.835 378.462 106.885 378.268C106.967 378.111 107.018 377.93 107.016 377.754C107.076 377.504 107.054 377.261 106.952 377.026C106.89 376.787 106.843 376.56 106.809 376.318C106.936 376.076 107.049 375.822 107.121 375.557C107.13 375.502 107.139 375.46 107.148 375.405C107.173 375.226 107.228 374.923 107.226 374.746C107.194 374.545 107.164 374.358 107.12 374.158L107.143 374.115Z" fill="#FFF9B2" fill-opacity="0.2"/>
<path d="M88.9253 327.151C88.8549 326.967 88.7489 326.841 88.578 326.747C88.3842 326.547 88.1425 326.419 87.8408 326.377C87.6501 326.367 87.446 326.358 87.242 326.349C86.7982 326.388 86.3628 326.521 85.9748 326.732C85.484 327.006 85.0261 327.345 84.5827 327.697C84.4431 327.804 84.2913 327.926 84.1517 328.034C83.9496 328.201 83.7645 328.408 83.5783 328.601C83.4913 328.69 83.4177 328.778 83.3307 328.867C83.3062 328.896 83.2817 328.926 83.2571 328.955C83.2817 328.926 83.3074 328.91 83.3319 328.88C83.2583 328.968 83.1701 329.044 83.11 329.131C83.061 329.19 83.0266 329.261 82.9776 329.319C82.942 329.377 82.8929 329.435 82.8562 329.479C82.698 329.684 82.5865 329.802 82.4366 330.101C82.2523 330.47 82.1499 330.846 82.1464 331.267C82.1753 331.441 82.2054 331.629 82.2343 331.803C82.3118 332.068 82.4665 332.285 82.6959 332.428C82.7568 332.504 82.841 332.537 82.913 332.585C82.913 332.585 82.913 332.585 82.8996 332.587C82.9142 332.599 82.9423 332.61 82.9704 332.621C83.0131 332.645 83.0692 332.667 83.1254 332.689C83.2097 332.722 83.3073 332.755 83.4039 332.773C83.8045 332.86 84.2067 332.811 84.6018 332.681C84.6948 332.659 84.7731 332.625 84.8648 332.59C85.1606 332.564 85.4529 332.498 85.7464 332.445C86.0019 332.422 86.2415 332.374 86.4741 332.245C86.7371 332.153 86.9684 332.011 87.1816 331.815C87.3971 331.647 87.581 331.427 87.7222 331.184C87.8804 330.979 87.9824 330.753 88.0417 330.503C88.0713 330.378 88.0729 330.242 88.0745 330.106C88.2999 329.896 88.5107 329.674 88.6629 329.402C88.8701 329.14 89.0065 328.842 89.0722 328.511C89.0959 328.318 89.1184 328.112 89.1421 327.92C89.1563 327.62 89.08 327.369 88.9107 327.139L88.9253 327.151Z" fill="#FFF9B2" fill-opacity="0.2"/>
<path d="M183.94 187.732C178.445 186.885 172.356 188.834 169.828 193.975C169.215 194.559 168.694 195.257 168.317 196.051C166.257 200.362 167.691 205.711 170.129 209.545C171.343 211.476 173.083 213.238 175.175 214.208C177.661 215.362 180.471 215.413 183.023 214.386C186.636 212.94 189.65 210.08 191.836 206.899C193.733 204.137 195.322 200.79 194.855 197.34C194.129 191.861 189.079 188.529 183.94 187.732Z" fill="#FFF9B2" fill-opacity="0.2"/>
<path d="M118.333 373.306C117.549 372.098 116.198 371.374 114.838 371.019C112.855 370.501 110.659 370.803 108.659 371.482C106.172 370.478 103.56 370.206 101.119 372.037C99.1124 373.559 97.8293 376.376 97.9707 378.904C98.0821 380.782 98.9171 382.57 100.228 383.908C102.864 386.61 107.021 388.105 110.773 387.625C113.238 387.3 115.422 386.251 117.102 384.405C118.71 382.66 119.321 380.365 119.483 378.054C119.593 376.374 119.256 374.705 118.332 373.292L118.333 373.306Z" fill="#FFF9B2" fill-opacity="0.2"/>
<path d="M299.709 225.571C299.113 226.18 299.4 225.897 299.709 225.571V225.571Z" fill="#FFF9B2" fill-opacity="0.2"/>
<path d="M302.789 212.23C301.749 209.034 298.956 207.174 295.616 207.414C293.287 207.579 290.905 208.536 288.97 209.806C286.588 211.375 284.494 213.597 283.867 216.478C283.433 218.473 283.772 220.63 284.707 222.477C284.744 222.596 284.769 222.716 284.806 222.835C285.467 224.801 286.741 226.795 288.615 227.771C290.22 228.608 292.18 229.006 293.984 228.724C295.829 228.439 297.572 227.607 298.963 226.329C299.227 226.089 299.474 225.822 299.723 225.569C299.847 225.436 299.984 225.302 300.044 225.215C300.289 224.922 300.52 224.616 300.736 224.298C301.227 223.562 301.676 222.816 302.024 221.997C303.316 218.976 303.829 215.412 302.791 212.243L302.789 212.23Z" fill="#FFF9B2" fill-opacity="0.2"/>
<path d="M250.249 266.501C250.238 266.38 250.268 266.255 250.243 266.121C250.237 265.904 250.18 265.719 250.044 265.555C249.923 265.266 249.715 265.054 249.432 264.916C248.791 264.565 248.061 264.588 247.387 264.783C247.304 264.763 247.235 264.742 247.152 264.723C246.906 264.703 246.675 264.697 246.43 264.678C246.025 264.7 245.641 264.801 245.277 264.983C244.611 265.259 243.959 265.71 243.524 266.306C243.197 266.742 242.941 267.227 242.797 267.742C242.692 268.091 242.683 268.445 242.767 268.791C242.797 269.128 242.92 269.443 243.16 269.707C243.315 269.938 243.508 270.125 243.728 270.309C243.754 270.606 243.793 270.901 243.874 271.206C244.006 271.779 244.243 272.315 244.492 272.837C244.791 273.462 245.254 273.788 245.934 273.824C246.67 273.867 247.471 273.579 248.023 273.069C248.848 272.29 249.551 271.494 250.128 270.506C250.539 269.791 250.849 268.853 250.776 268.017C250.72 267.383 250.578 267.002 250.248 266.488L250.249 266.501Z" fill="#FFF9B2" fill-opacity="0.2"/>
<path d="M220.609 358.588C216.539 356.841 211.55 359.59 209.627 363.292C208.769 364.943 208.563 366.904 209.135 368.633C209.223 369.631 209.553 370.607 210.197 371.461C211.24 372.836 213.007 373.509 214.672 373.648C217.403 373.883 219.866 372.457 221.628 370.467C223.205 368.671 224.306 366.101 224.066 363.677C223.851 361.549 222.623 359.457 220.609 358.588Z" fill="#FFF9B2" fill-opacity="0.2"/>
<path d="M310.644 274.005C306.574 272.257 301.586 275.007 299.662 278.708C298.805 280.36 298.597 282.307 299.171 284.05C299.259 285.048 299.589 286.024 300.233 286.877C301.276 288.253 303.042 288.926 304.708 289.064C307.439 289.299 309.901 287.873 311.664 285.884C313.24 284.087 314.342 281.518 314.101 279.094C313.887 276.966 312.659 274.873 310.644 274.005Z" fill="#FFF9B2" fill-opacity="0.2"/>
<path d="M278.287 332.326C278.16 332.12 277.997 331.958 277.833 331.795C277.494 331.486 277.13 331.192 276.729 330.955C276.386 330.754 276.009 330.625 275.667 330.437C274.714 329.924 273.553 330.284 272.736 330.845C271.803 331.484 271.168 332.437 271.108 333.597C271.086 334.115 271.216 334.674 271.564 335.078C271.446 335.279 271.313 335.467 271.209 335.667C270.865 336.376 270.638 337.184 270.856 337.967C271.036 338.63 271.585 339.016 272.225 339.205C272.809 339.37 273.423 339.262 274.009 339.143C274.301 339.076 274.591 338.983 274.865 338.863C275.315 339.204 276.001 339.144 276.517 338.854C277.175 338.47 277.811 337.693 277.644 336.879C277.927 336.556 278.18 336.194 278.389 335.795C278.69 335.211 278.922 334.457 278.822 333.787C278.741 333.183 278.618 332.854 278.287 332.326Z" fill="#FFF9B2" fill-opacity="0.2"/>
<path d="M237.049 409.825C236.429 408.018 235.031 406.457 233.424 405.444C231.816 404.417 229.942 404.229 228.124 404.661C226.265 405.096 224.63 406.382 223.415 407.82C222.348 409.082 221.568 410.686 221.181 412.296C220.825 413.795 220.778 415.416 221.261 416.895C221.708 418.282 222.768 419.547 224.108 420.136C226.364 421.132 229.012 421.048 231.182 419.988C231.763 419.814 232.339 419.587 232.857 419.31C236.116 417.542 238.321 413.503 237.05 409.839L237.049 409.825ZM229.746 414.463C229.708 414.643 229.671 414.836 229.619 415.017C229.608 415.045 229.584 415.075 229.572 415.103C229.546 415.105 229.505 415.109 229.478 415.111C229.251 414.995 229.035 414.851 228.818 414.694C228.611 414.495 228.417 414.294 228.236 414.079C228.236 414.079 228.236 414.079 228.249 414.078C228.757 414.156 229.268 414.111 229.769 413.944C229.783 414.106 229.758 414.285 229.745 414.449L229.746 414.463Z" fill="#FFF9B2" fill-opacity="0.2"/>
<path d="M265.225 360.186C265.177 360.096 265.128 360.005 265.066 359.915C265.002 359.812 264.951 359.694 264.875 359.592C264.874 359.579 264.859 359.567 264.844 359.554C264.713 359.444 264.567 359.334 264.436 359.223C264.35 359.177 264.266 359.143 264.169 359.125C263.999 359.031 263.82 359.006 263.632 359.023C263.439 358.985 263.237 359.003 263.054 359.073C262.708 359.145 262.456 359.208 262.12 359.4C262.056 359.433 261.993 359.493 261.929 359.539C261.903 359.542 261.876 359.544 261.849 359.546C261.651 359.605 261.467 359.675 261.299 359.771C261.078 359.872 260.858 359.987 260.668 360.14C260.605 360.199 260.531 360.274 260.468 360.334C260.317 360.469 260.168 360.618 260.034 360.793C259.659 361.302 259.297 361.959 259.342 362.62C259.37 362.794 259.399 362.968 259.429 363.156C259.374 363.609 259.356 364.018 259.504 364.467C259.508 364.508 259.539 364.559 259.557 364.598C259.639 364.768 259.736 364.949 259.845 365.103C259.998 365.307 260.215 365.464 260.431 365.608C260.879 365.922 261.436 366.09 261.95 366.235C262.127 366.247 262.291 366.26 262.468 366.271L263.015 366.169C263.197 366.085 263.381 366.014 263.563 365.93C263.862 365.782 264.102 365.584 264.324 365.333C264.488 365.197 264.609 365.036 264.715 364.85C264.837 364.704 264.931 364.533 264.981 364.338C265.062 364.181 265.101 364.001 265.112 363.824C265.158 363.575 265.15 363.331 265.048 363.096C264.986 362.857 264.953 362.629 264.904 362.388C265.032 362.146 265.145 361.892 265.203 361.628C265.212 361.573 265.222 361.532 265.23 361.477C265.255 361.298 265.31 360.994 265.308 360.818C265.277 360.617 265.247 360.429 265.202 360.229L265.225 360.186Z" fill="#FFF9B2" fill-opacity="0.2"/>
<path d="M246.994 313.224C246.924 313.04 246.818 312.913 246.647 312.82C246.453 312.619 246.211 312.491 245.909 312.45C245.719 312.44 245.515 312.43 245.311 312.421C244.867 312.46 244.431 312.594 244.043 312.805C243.553 313.079 243.095 313.418 242.638 313.771C242.498 313.878 242.346 314 242.207 314.108C242.005 314.275 241.82 314.481 241.633 314.674C241.546 314.764 241.459 314.853 241.386 314.941C241.361 314.97 241.337 314.999 241.312 315.029C241.337 314.999 241.363 314.984 241.387 314.954C241.314 315.042 241.225 315.118 241.165 315.205C241.116 315.263 241.082 315.334 241.033 315.393C240.984 315.452 240.948 315.509 240.898 315.554C240.74 315.758 240.628 315.877 240.478 316.175C240.294 316.545 240.192 316.921 240.188 317.342C240.217 317.516 240.247 317.704 240.289 317.877C240.367 318.142 240.522 318.359 240.751 318.502C240.812 318.578 240.896 318.611 240.968 318.659C240.968 318.659 240.968 318.659 240.955 318.66C240.969 318.673 240.997 318.684 241.026 318.695C241.068 318.718 241.124 318.741 241.181 318.763C241.265 318.796 241.363 318.828 241.459 318.847C241.86 318.934 242.262 318.885 242.657 318.755C242.75 318.733 242.828 318.699 242.92 318.664C243.216 318.638 243.508 318.571 243.802 318.518C244.057 318.496 244.297 318.447 244.529 318.318C244.792 318.227 245.024 318.085 245.237 317.889C245.452 317.721 245.636 317.501 245.777 317.257C245.936 317.053 246.038 316.827 246.097 316.577C246.127 316.452 246.142 316.315 246.143 316.179C246.369 315.969 246.579 315.747 246.732 315.475C246.925 315.213 247.062 314.916 247.141 314.583C247.165 314.391 247.187 314.185 247.211 313.993C247.225 313.693 247.149 313.441 246.979 313.212L246.994 313.224Z" fill="#FFF9B2" fill-opacity="0.2"/>
<path d="M274.11 140.81C268.614 139.963 262.527 141.925 259.997 147.053C259.385 147.637 258.877 148.333 258.486 149.129C256.427 153.44 257.874 158.788 260.298 162.623C261.526 164.552 263.253 166.316 265.344 167.286C267.831 168.439 270.64 168.491 273.192 167.464C276.805 166.018 279.819 163.158 282.005 159.976C283.903 157.214 285.491 153.868 285.025 150.418C284.285 144.94 279.248 141.607 274.096 140.811L274.11 140.81Z" fill="#FFF9B2" fill-opacity="0.2"/>
<path d="M305.916 368.91C305.132 367.702 303.781 366.979 302.422 366.623C300.425 366.106 298.242 366.407 296.242 367.086C293.755 366.082 291.142 365.796 288.702 367.641C286.695 369.163 285.412 371.98 285.554 374.508C285.665 376.387 286.5 378.174 287.811 379.512C290.447 382.215 294.604 383.71 298.356 383.23C300.821 382.904 303.004 381.842 304.699 380.008C306.306 378.263 306.917 375.968 307.08 373.657C307.189 371.977 306.867 370.32 305.942 368.894L305.916 368.91Z" fill="#FFF9B2" fill-opacity="0.2"/>
<path d="M114.322 127.228C114.045 126.546 113.668 125.805 113.108 125.297C112.799 125.012 112.445 124.69 112.051 124.521C111.401 124.225 110.893 124.148 110.187 124.128C109.453 124.111 108.754 124.322 108.09 124.639C107.847 124.647 107.593 124.683 107.369 124.757C107.369 124.757 107.356 124.758 107.342 124.759C107.329 124.76 107.315 124.762 107.302 124.763C107.302 124.763 107.275 124.765 107.261 124.766C107.169 124.788 107.195 124.786 107.261 124.766C107.156 124.803 107.051 124.839 106.961 124.888C106.856 124.938 106.751 124.974 106.647 125.024C106.117 125.316 105.702 125.678 105.309 126.134C104.791 126.723 104.488 127.429 104.227 128.158C103.583 129.153 103.012 130.208 102.818 131.394C102.642 132.469 102.665 133.35 102.907 134.402C103.061 135.081 103.403 135.73 103.819 136.292C103.885 136.734 103.978 137.174 104.071 137.614C104.393 138.972 104.931 140.31 106.065 141.175C106.82 141.747 107.877 141.749 108.75 141.509C109.915 141.189 110.86 140.385 111.649 139.501C112.339 138.72 112.865 137.763 113.311 136.827C113.563 136.302 113.786 135.753 113.996 135.218C114.339 134.346 114.684 133.487 114.818 132.551C115.08 130.762 115.024 128.892 114.345 127.185L114.322 127.228Z" fill="#FFF9B2" fill-opacity="0.2"/>
<path d="M114.037 158.446C114.037 158.446 113.991 158.382 113.974 158.343C113.858 158.109 113.77 157.872 113.72 157.618C113.715 157.564 113.712 157.524 113.694 157.471C113.687 157.39 113.64 157.326 113.581 157.264C113.581 157.264 113.578 157.237 113.565 157.238C113.516 157.147 113.466 157.043 113.43 156.937L113.238 156.601C113.115 156.435 112.957 156.341 112.763 156.29C112.635 156.219 112.511 156.203 112.377 156.215C112.157 156.18 111.943 156.212 111.733 156.285C111.417 156.395 111.12 156.557 110.854 156.77C110.652 156.938 110.492 157.128 110.362 157.344C110.216 157.533 110.127 157.745 110.065 157.967C109.985 158.287 109.946 158.617 109.934 158.944C109.937 158.971 109.939 158.998 109.941 159.024C109.948 159.105 109.988 159.401 110.022 159.479C110.026 159.52 110.056 159.558 110.073 159.597C110.172 159.792 110.284 159.986 110.394 160.167C110.647 160.579 111.013 160.886 111.391 161.179C111.577 161.285 111.771 161.336 111.973 161.318C112.193 161.353 112.407 161.321 112.631 161.247C112.787 161.178 112.932 161.125 113.075 161.058C113.308 160.942 113.51 160.775 113.683 160.583C113.809 160.477 113.92 160.345 114.001 160.188C114.147 159.999 114.237 159.787 114.298 159.564C114.313 159.427 114.328 159.29 114.343 159.153C114.333 158.882 114.258 158.644 114.09 158.428L114.037 158.446Z" fill="#FFF9B2" fill-opacity="0.2"/>
<path d="M88.8373 207.727C86.2415 207.182 83.6887 208.507 81.7414 210.091C81.6141 210.184 81.5026 210.303 81.3887 210.394C81.1328 210.566 80.8769 210.738 80.6369 210.936C77.5372 213.437 75.6732 217.813 76.4294 221.781C77.3522 226.564 82.8122 227.781 86.9138 226.808C87.1523 226.746 87.3908 226.684 87.6146 226.61C88.1292 226.606 88.6255 226.548 89.127 226.396C91.6661 225.683 93.274 223.476 93.5798 220.949C94.1848 219.51 94.5066 217.933 94.474 216.333C94.3938 212.808 92.6349 208.534 88.8373 207.727Z" fill="#FFF9B2" fill-opacity="0.2"/>
<path d="M86.0678 212.903C86.1374 212.924 86.2069 212.945 86.2472 212.941C86.1789 212.934 86.1362 212.91 86.0678 212.903C86.0947 212.9 86.0947 212.9 86.0678 212.903C86.0544 212.904 86.0275 212.906 86.0141 212.908C86.0141 212.908 85.9872 212.91 85.9738 212.911C85.9469 212.913 85.9066 212.917 85.8797 212.919C85.8394 212.923 85.7857 212.928 85.7331 212.946C85.9078 212.93 86.0018 212.922 86.0556 212.917L86.0678 212.903Z" fill="#FFF9B2" fill-opacity="0.2"/>
<path d="M125.852 222.25C125.757 222.095 125.676 221.953 125.582 221.798C125.466 221.713 125.362 221.614 125.246 221.529L124.826 221.375C124.676 221.362 124.513 221.362 124.35 221.349C124.081 221.373 123.829 221.436 123.595 221.552C123.41 221.609 123.243 221.705 123.104 221.826C122.936 221.922 122.785 222.044 122.65 222.206C122.498 222.328 122.375 222.474 122.295 222.645C122.138 222.862 122.023 223.09 121.965 223.353C121.902 223.562 121.84 223.785 121.779 224.008C121.687 224.356 121.69 224.695 121.802 225.038C121.912 225.368 122.123 225.608 122.422 225.772C122.734 225.934 123.065 226 123.428 225.968C123.724 225.942 124.017 225.876 124.276 225.744C124.578 225.636 124.862 225.475 125.113 225.249C125.441 224.976 125.71 224.64 125.92 224.254C126.093 223.913 126.184 223.565 126.192 223.184C126.189 222.845 126.08 222.528 125.866 222.262L125.852 222.25Z" fill="#FFF9B2" fill-opacity="0.2"/>
<path d="M204.672 104.812C203.493 104.196 202.199 104.12 200.914 104.301C200.042 103.943 199.055 103.962 198.163 104.15C196.194 104.568 194.667 106.156 193.677 107.833C192.816 109.294 192.431 111.23 192.498 112.909C192.528 113.708 192.67 114.551 192.954 115.314C193.322 116.26 193.855 116.933 194.642 117.556C196.245 118.828 198.627 118.645 200.443 118.023C202.126 117.44 203.513 116.571 204.725 115.255C205.689 114.205 206.358 112.87 206.753 111.517C207.441 109.174 207.061 106.083 204.674 104.839L204.672 104.812Z" fill="#FFF9B2" fill-opacity="0.2"/>
<path d="M163.821 75.9692C162.705 76.0675 161.59 76.9537 161.336 78.0629C161.1 79.0755 161.788 79.9658 162.864 79.8711C163.94 79.7763 165.094 78.8866 165.349 77.7773C165.585 76.7647 164.897 75.8744 163.821 75.9692Z" fill="#FFF9B2" fill-opacity="0.2"/>
<path d="M237.357 183.555C237.225 183.132 236.984 182.705 236.66 182.408C235.608 181.386 234.264 181.206 232.96 181.484C232.799 181.348 232.637 181.2 232.464 181.079C232.074 180.801 231.476 180.935 231.071 181.107C230.562 181.328 230.08 181.71 229.841 182.221C229.693 182.546 229.575 182.896 229.472 183.258C229.446 183.274 229.421 183.304 229.409 183.318C228.616 184.013 227.92 185.025 227.963 186.136C227.993 187.084 228.616 187.858 229.553 188.033C229.746 188.071 229.942 188.135 230.137 188.199C230.208 188.234 230.291 188.254 230.362 188.288C230.898 188.988 231.625 189.549 232.453 189.87C233 190.08 233.522 190.17 234.101 189.969C234.759 189.748 235.307 189.347 235.761 188.818C236.549 187.92 237.271 186.728 237.422 185.52C237.511 184.832 237.54 184.246 237.331 183.558L237.357 183.555Z" fill="#FFF9B2" fill-opacity="0.2"/>
<path d="M202.861 257.593C202.266 255.608 200.924 253.756 199.295 252.487C196.165 250.032 192.116 251.91 189.875 254.621C189.643 254.913 189.411 255.206 189.197 255.537C187.111 256.318 185.232 257.761 184.204 259.781C183.234 261.687 183.162 263.948 184.013 265.911C187.495 274.055 199.573 270.409 202.447 263.662C203.279 261.714 203.489 259.644 202.861 257.593Z" fill="#FFF9B2" fill-opacity="0.2"/>
<path d="M190.489 316.654C190.489 316.654 190.422 316.198 190.405 316.158C190.405 316.158 190.403 316.145 190.402 316.132C190.322 315.989 190.243 315.86 190.163 315.718C190.009 315.514 189.808 315.382 189.559 315.323C189.402 315.241 189.237 315.215 189.063 315.231C188.788 315.187 188.52 315.224 188.243 315.316C188.177 315.336 188.126 315.367 188.075 315.399C188.048 315.402 188.018 315.377 187.99 315.366C187.877 315.308 187.752 315.278 187.618 315.29C187.413 315.267 187.197 315.286 186.999 315.345C186.697 315.453 186.413 315.614 186.16 315.812C185.97 315.965 185.809 316.142 185.68 316.371C185.547 316.546 185.456 316.744 185.408 316.966C185.398 317.007 185.387 317.035 185.363 317.078C185.348 317.215 185.333 317.353 185.318 317.49C185.322 317.53 185.324 317.557 185.328 317.598C185.334 317.665 185.326 317.734 185.319 317.802C185.328 317.91 185.311 318.02 185.32 318.128C185.325 318.331 185.356 318.533 185.386 318.72C185.393 318.801 185.399 318.868 185.42 318.948C185.422 318.975 185.426 319.015 185.428 319.042C185.426 319.015 185.423 318.988 185.421 318.962C185.429 319.056 185.463 319.134 185.498 319.226C185.518 319.293 185.552 319.371 185.585 319.436C185.655 319.62 185.738 319.79 185.822 319.972C185.928 320.262 186.111 320.49 186.382 320.643C186.596 320.76 186.818 320.822 187.048 320.815C187.308 320.847 187.55 320.825 187.799 320.735C188.169 320.621 188.518 320.428 188.82 320.17C189.023 320.016 189.222 319.809 189.366 319.592C189.389 319.549 189.426 319.505 189.449 319.462C189.54 319.414 189.629 319.352 189.704 319.277C189.943 319.066 190.137 318.818 190.259 318.508C190.336 318.298 190.394 318.034 190.319 317.796C190.374 317.656 190.44 317.487 190.461 317.417C190.48 317.32 190.516 316.964 190.521 316.868C190.521 316.868 190.519 316.841 190.518 316.828C190.514 316.787 190.511 316.747 190.508 316.72C190.507 316.706 190.506 316.693 190.505 316.68L190.489 316.654Z" fill="#FFF9B2" fill-opacity="0.2"/>
<path d="M293.534 259.603C293.692 258.937 293.534 258.218 292.892 257.853C292.263 257.487 291.368 257.634 290.777 257.999C290.469 258.189 290.175 258.391 289.896 258.606C289.832 258.653 289.782 258.698 289.731 258.743C289.707 258.772 289.681 258.788 289.643 258.819C289.556 258.908 289.469 258.997 289.382 259.086C289.281 259.163 289.194 259.252 289.121 259.354C288.977 259.557 288.773 259.86 288.68 260.031C288.438 260.514 288.44 260.691 288.377 261.213C288.372 261.308 288.368 261.417 288.363 261.513C288.377 261.824 288.482 262.1 288.651 262.316C288.651 262.316 288.653 262.343 288.654 262.357C288.654 262.357 288.655 262.37 288.656 262.384C288.677 262.613 288.724 262.84 288.771 263.066C288.83 263.278 288.952 263.431 289.125 263.551C289.274 263.701 289.458 263.794 289.664 263.816C290.131 263.897 290.623 263.786 291.037 263.56C291.257 263.445 291.464 263.332 291.683 263.204C292.148 262.945 292.541 262.639 292.899 262.241C293.28 261.8 293.54 261.206 293.528 260.609C293.519 260.515 293.512 260.434 293.504 260.34C293.491 260.191 293.479 260.057 293.479 259.907C293.497 259.797 293.515 259.7 293.533 259.59L293.534 259.603Z" fill="#FFF9B2" fill-opacity="0.2"/>
<path d="M333.737 234.8C333.651 234.59 333.51 234.371 333.384 234.179C333.354 234.14 333.323 234.102 333.306 234.063C333.097 233.837 332.836 233.643 332.603 233.459C332.267 233.19 331.921 232.949 331.585 232.68C331.173 232.458 330.732 232.374 330.275 232.415C329.75 232.461 329.249 232.614 328.784 232.872C328.047 233.277 327.322 233.966 326.959 234.772C326.945 234.773 326.92 234.789 326.908 234.804C326.479 235.167 326.137 235.592 325.896 236.088C325.676 236.515 325.64 236.872 325.599 237.337C325.593 237.419 325.601 237.514 325.609 237.594C325.638 237.931 325.697 238.293 325.86 238.605C326.039 238.942 326.218 239.28 326.46 239.571C327.02 240.228 327.752 240.693 328.54 241.031C328.91 241.23 329.31 241.303 329.726 241.267C330.076 241.236 330.421 241.151 330.733 241.001C331.101 240.874 331.423 240.682 331.711 240.412C332.102 240.079 332.419 239.684 332.65 239.229C333.018 238.327 333.51 237.455 333.78 236.521C333.79 236.48 333.799 236.424 333.809 236.383C333.855 236.134 333.898 235.859 333.89 235.615C333.893 235.343 333.84 235.049 333.749 234.785L333.737 234.8Z" fill="#FFF9B2" fill-opacity="0.2"/>
<path d="M332.029 310.31C331.495 309.474 330.694 308.688 329.792 308.292C328.241 307.614 326.652 307.727 325.11 308.379C323.791 308.943 322.56 309.881 321.66 311.047C319.425 311.828 317.701 313.95 317.067 316.288C316.698 317.638 316.649 319.232 317.277 320.522C317.89 321.786 318.774 322.74 319.964 323.491C322.217 324.909 325.309 325.248 327.821 324.375C329.451 323.81 331.018 322.83 332.059 321.42C333.041 320.097 333.509 318.643 333.678 317.025C333.92 314.694 333.287 312.278 332.043 310.309L332.029 310.31Z" fill="#FFF9B2" fill-opacity="0.2"/>
</g>
<g opacity="0.5">
<path d="M112.908 214.048C112.908 214.048 99.5422 220.261 88.1962 214.105C74.8878 206.89 78.1319 226.194 87.6355 235.036C97.6483 244.347 105.418 247.685 121.187 245.784C121.187 245.784 112.462 235.711 112.908 214.054V214.048Z" fill="#EF508F"/>
<g style="mix-blend-mode:soft-light">
<path d="M86.3823 220.318C89.0886 218.727 90.1128 224.132 93.4427 222.924C94.7644 222.449 94.4555 219.122 93.8204 218.314C92.8878 217.129 90.0212 216.688 88.4535 216.361C81.1814 214.844 80.5234 221.51 83.8076 224.035C85.0549 224.986 85.1178 221.051 86.3823 220.313V220.318Z" fill="white"/>
</g>
<g style="mix-blend-mode:multiply">
<path d="M112.908 214.048C112.908 214.048 111.145 214.867 108.365 215.611C108.21 218.177 108.21 220.731 108.628 223.147C109.492 228.095 111.906 233.604 106.991 237.441C101.218 241.953 95.3023 240.722 90.2329 237.349C99.0728 244.885 106.803 247.514 121.187 245.779C121.187 245.779 112.461 235.706 112.908 214.048Z" fill="#CAA9B9"/>
</g>
<path d="M178.145 176.832C184.187 171.786 183.752 158.135 181.578 162.269C179.41 166.409 171.342 171.643 173.305 167.721C175.267 163.798 171.342 163.798 167.864 167.938C164.373 172.079 160.448 173.825 161.324 169.685C162.193 165.545 159.361 156.382 157.834 164.016C156.312 171.649 142.586 176.225 142.586 176.225C142.814 176.173 143.049 176.133 143.272 176.081C124.173 182.489 110.487 199.772 110.487 220.095C110.487 245.876 132.498 266.778 159.653 266.778C186.808 266.778 208.83 245.876 208.83 220.095C208.83 200.522 196.134 183.772 178.14 176.837L178.145 176.832Z" fill="#FFCD28"/>
<path d="M286.141 259.505C280.694 270.62 252.921 276.948 232.993 264.521C211.188 250.927 194.978 244.461 175.485 247.949C127.257 256.579 115.253 276.736 115.253 314.119C115.253 357.291 155.682 375.925 204.676 375.925C249.11 375.925 271.333 361.975 289.848 342.35C297.624 334.104 309.239 316.844 311.63 303.542C319.847 257.976 293.996 243.459 286.146 259.499L286.141 259.505Z" fill="#FFCD28"/>
<g style="mix-blend-mode:multiply">
<path d="M299.684 254.317C302.951 261.343 304.627 269.062 304.936 277.165C305.388 289.18 301.109 304.074 294.128 313.895C289.002 321.105 283.549 328.612 276.74 334.436C270.166 340.054 263.203 346.427 255.187 350.064C249.282 352.749 242.611 356.105 236.048 357.766C229.274 359.472 222.042 360.177 215.222 360.893C198.549 362.656 181.567 360.681 165.089 358.361C149.326 356.151 135.754 348.151 121.805 341.062C135.165 365.165 167.44 375.925 204.665 375.925C249.099 375.925 271.322 361.975 289.837 342.35C297.613 334.104 309.228 316.844 311.619 303.542C316.774 274.909 308.501 258.543 299.678 254.311L299.684 254.317Z" fill="#FCDCCD"/>
</g>
<path d="M257.31 288.332C251.085 291.986 235.219 297.013 223.598 289.769C210.879 281.838 197.588 278.878 186.133 280.412C164.494 283.333 153.978 298.096 153.978 319.897C153.978 345.07 178.512 354.737 207.08 354.737C258.763 354.737 270.693 321.706 272.089 313.947C276.872 287.376 266.882 282.703 257.31 288.332Z" fill="#FEDBA6"/>
<g style="mix-blend-mode:multiply">
<path d="M266.613 286.626C266.664 287.611 266.704 288.601 266.704 289.598C266.704 302.849 261.366 318.219 251.147 327.175C245.895 331.779 240.339 336.744 233.874 339.67C228.089 342.299 220.6 346.153 213.751 347.098C206.685 348.071 199.121 349.726 191.82 349.411C184.536 349.102 177.258 347.876 170.078 346.731C169.866 346.674 169.66 346.605 169.448 346.548C179.187 352.263 192.61 354.748 207.079 354.748C258.763 354.748 270.692 321.718 272.088 313.958C275.247 296.412 271.962 288.424 266.613 286.631V286.626Z" fill="#EBE0D8"/>
</g>
<g style="mix-blend-mode:multiply">
<path d="M201.644 195.775C202.165 198.707 202.445 201.719 202.445 204.782C202.445 233.753 178.294 257.936 149.337 257.936C139.45 257.936 130.124 255.113 122.137 250.245C131.148 260.352 144.611 266.777 159.659 266.777C186.819 266.777 208.836 245.876 208.836 220.095C208.836 211.185 206.199 202.858 201.644 195.78V195.775Z" fill="#FCDCCD"/>
</g>
<path d="M129.512 211.82C129.512 217.627 134.221 222.34 140.028 222.34C145.835 222.34 150.533 217.633 150.533 211.82C150.533 206.008 145.824 201.301 140.028 201.301C134.232 201.301 129.512 206.008 129.512 211.82Z" fill="#242E63"/>
<path d="M132.882 213.71C132.882 216.43 135.09 218.641 137.808 218.641C140.526 218.641 142.734 216.43 142.734 213.71C142.734 210.99 140.532 208.78 137.808 208.78C135.085 208.78 132.882 210.984 132.882 213.71Z" fill="#FEDBA6"/>
<path d="M140.846 206.151C140.846 207.417 141.87 208.453 143.141 208.453C144.411 208.453 145.441 207.422 145.441 206.151C145.441 204.88 144.411 203.849 143.141 203.849C141.87 203.849 140.846 204.88 140.846 206.151Z" fill="#FEDBA6"/>
<path d="M144.783 209.518C144.783 210.223 145.355 210.789 146.059 210.789C146.762 210.789 147.335 210.223 147.335 209.518C147.335 208.814 146.762 208.241 146.059 208.241C145.355 208.241 144.783 208.814 144.783 209.518Z" fill="#FEDBA6"/>
<g style="mix-blend-mode:soft-light">
<path d="M140.629 270.843C140.629 270.843 120.369 283.379 124.288 303.874C127.778 322.101 134.095 320.223 136.057 314.663C138.009 309.108 138.009 302.562 143.896 297.002C149.778 291.447 152.719 291.768 150.751 282.617C148.794 273.455 149.99 265.283 140.623 270.843H140.629Z" fill="#EBE0D8"/>
</g>
<g style="mix-blend-mode:soft-light">
<path d="M157.885 178.263C157.885 178.263 134.158 176.156 125.038 194.916C116.919 211.597 123.098 213.882 127.996 210.612C132.893 207.331 136.813 202.097 144.84 201.175C152.885 200.247 155.036 202.274 158.955 193.765C162.863 185.255 168.716 179.431 157.891 178.263H157.885Z" fill="#EBE0D8"/>
</g>
</g>
<defs>
<clipPath id="clip0_1_5728">
<rect width="276.406" height="349.144" fill="white" transform="translate(43.2827 86.5898) rotate(-5.03534)"/>
</clipPath>
</defs>
</svg>
