<svg width="370" height="463" viewBox="0 0 370 463" fill="none" xmlns="http://www.w3.org/2000/svg">
<path d="M370 439.322C370 465.453 287.17 462.934 185 462.934C82.83 462.934 0.000244141 465.453 0.000244141 439.322C0.000244141 413.19 82.83 392 185 392C287.17 392 370 413.19 370 439.322Z" fill="#AEDB83"/>
<path d="M348 261.589C348 360.868 274.253 441.345 183.265 441.345C92.278 441.345 18.5305 360.868 18.5305 261.589C18.5305 162.31 92.2926 0.685059 183.265 0.685059C274.238 0.685059 348 162.31 348 261.589Z" fill="#8CECD7"/>
<g style="mix-blend-mode:multiply" opacity="0.53">
<path d="M318.338 131.772C319.316 135.743 320.279 139.728 321.169 143.713C326.717 168.573 330.439 193.958 330.833 219.46C331.227 244.233 328.395 269.224 320.615 292.828C312.717 316.827 299.623 338.84 282.121 357.087C264.312 375.641 241.291 387.626 216.46 393.83C191.177 400.136 164.449 400.807 138.801 396.399C115.225 392.341 92.3072 383.976 73.7827 368.503C56.8348 354.343 44.5436 335.483 36.1645 315.192C27.3767 293.909 22.6909 271.078 20.4866 248.232C20.1801 245.036 19.9319 241.824 19.7275 238.627C18.9393 246.568 18.5305 254.276 18.5305 261.633C18.5305 360.912 92.278 441.389 183.265 441.389C274.253 441.389 348 360.912 348 261.633C348 223.343 337.037 175.799 318.338 131.816V131.772Z" fill="#84BDC9" fill-opacity="0.5"/>
</g>
<g style="mix-blend-mode:screen" opacity="0.45">
<path d="M193.732 43.5C192.462 20.2897 174.638 17.6475 156.099 26.7127C119.999 44.3613 90.8619 78.9724 78.3371 117.101C76.0307 124.123 74.3812 131.699 75.4322 139.115C76.2351 144.749 79.1254 150.413 83.8697 153.727C88.1614 156.734 93.6209 157.508 98.7447 157.055C111.547 155.917 123.678 149.275 134.188 142.253C139.107 138.969 143.822 135.363 148.231 131.422C152.712 127.437 156.493 122.809 160.274 118.167C172.113 103.613 183.148 87.7164 189.425 69.8926C192.389 61.4843 194.228 52.463 193.732 43.5146V43.5Z" fill="white"/>
</g>
<g clip-path="url(#clip0_1_5794)">
<path d="M58.8486 231.85C58.1908 232.412 58.506 232.151 58.8486 231.85V231.85Z" fill="#FFF9B2" fill-opacity="0.2"/>
<path d="M63.1654 218.653C62.398 215.337 59.7394 213.213 56.3408 213.158C53.97 213.117 51.4759 213.871 49.3929 214.981C46.8439 216.351 44.5279 218.407 43.6372 221.257C43.0205 223.23 43.1712 225.437 43.9524 227.383C43.9798 227.506 43.9935 227.629 44.0209 227.753C44.5142 229.794 45.6106 231.918 47.4332 233.07C48.9817 234.056 50.9277 234.632 52.7778 234.508C54.6689 234.385 56.519 233.7 58.0264 232.535C58.3142 232.316 58.5883 232.069 58.8624 231.836C58.9994 231.713 59.1502 231.59 59.2324 231.507C59.5065 231.233 59.7668 230.945 60.0135 230.644C60.5754 229.945 61.0961 229.233 61.521 228.438C63.0969 225.505 63.9329 221.97 63.1654 218.667L63.1654 218.653Z" fill="#FFF9B2" fill-opacity="0.2"/>
<path d="M75.4305 248.76C75.4305 248.637 75.4716 248.513 75.4579 248.376C75.4716 248.157 75.4305 247.965 75.3072 247.787C75.2112 247.485 75.0194 247.253 74.7453 247.088C74.1286 246.677 73.3886 246.636 72.6897 246.773C72.6212 246.745 72.5389 246.718 72.4704 246.691C72.2237 246.65 71.9908 246.622 71.7441 246.581C71.333 246.567 70.9219 246.636 70.5518 246.787C69.8529 247.006 69.154 247.403 68.6607 247.965C68.2907 248.376 67.9892 248.842 67.7973 249.349C67.6466 249.692 67.6192 250.048 67.674 250.404C67.674 250.747 67.7699 251.076 67.9755 251.364C68.1125 251.61 68.2907 251.816 68.4962 252.021C68.4962 252.323 68.5099 252.624 68.5648 252.939C68.647 253.529 68.8388 254.091 69.0444 254.639C69.2911 255.296 69.7296 255.666 70.4148 255.762C71.1548 255.872 71.9908 255.653 72.5938 255.187C73.4982 254.474 74.2793 253.734 74.9508 252.789C75.4305 252.104 75.8416 251.185 75.8279 250.336C75.8279 249.692 75.7183 249.294 75.4305 248.746L75.4305 248.76Z" fill="#FFF9B2" fill-opacity="0.2"/>
<path d="M113.418 275.509C106.607 271.85 97.4802 275.865 93.5746 282.005C91.8342 284.745 91.1627 288.103 91.9027 291.213C91.9027 292.967 92.3138 294.708 93.3142 296.284C94.9176 298.833 97.8914 300.258 100.769 300.765C105.497 301.587 109.992 299.49 113.377 296.284C116.406 293.42 118.722 289.117 118.667 284.869C118.626 281.128 116.803 277.318 113.418 275.495L113.418 275.509Z" fill="#FFF9B2" fill-opacity="0.2"/>
<path d="M97.9189 317.647C97.8092 317.428 97.6585 317.25 97.5077 317.072C97.1925 316.729 96.8499 316.4 96.4662 316.126C96.1373 315.893 95.7673 315.729 95.4384 315.51C94.5203 314.907 93.3143 315.167 92.4372 315.66C91.4368 316.222 90.7105 317.127 90.5461 318.291C90.4776 318.812 90.5598 319.388 90.875 319.826C90.7379 320.018 90.5872 320.196 90.4639 320.388C90.0527 321.073 89.7512 321.868 89.902 322.677C90.0253 323.362 90.5461 323.8 91.1765 324.047C91.752 324.266 92.3961 324.211 92.9854 324.143C93.2869 324.102 93.5884 324.033 93.8762 323.937C94.301 324.321 94.9999 324.321 95.5481 324.074C96.247 323.745 96.9596 323.019 96.8636 322.183C97.1788 321.882 97.4666 321.539 97.7133 321.155C98.0696 320.594 98.3711 319.854 98.33 319.168C98.3026 318.552 98.2066 318.209 97.9189 317.647Z" fill="#FFF9B2" fill-opacity="0.2"/>
<path d="M154.338 363.157C153.872 361.266 152.598 359.58 151.063 358.415C149.528 357.237 147.651 356.881 145.773 357.155C143.855 357.429 142.087 358.58 140.73 359.923C139.538 361.101 138.606 362.65 138.072 364.239C137.578 365.706 137.387 367.35 137.743 368.885C138.085 370.324 139.031 371.694 140.333 372.407C142.526 373.613 145.212 373.763 147.5 372.886C148.103 372.763 148.706 372.585 149.254 372.352C152.708 370.858 155.298 366.98 154.338 363.17L154.338 363.157ZM146.541 367.186C146.486 367.364 146.431 367.556 146.363 367.734C146.349 367.761 146.322 367.789 146.308 367.816C146.28 367.816 146.239 367.816 146.212 367.816C145.993 367.679 145.787 367.514 145.582 367.336C145.39 367.117 145.212 366.898 145.047 366.651C145.047 366.651 145.047 366.651 145.061 366.651C145.568 366.774 146.102 366.774 146.596 366.651C146.596 366.816 146.555 366.994 146.527 367.158L146.541 367.186Z" fill="#FFF9B2" fill-opacity="0.2"/>
<path d="M82.2139 344.589C82.1728 344.493 82.1317 344.397 82.0769 344.301C82.0221 344.191 81.981 344.068 81.9125 343.958C81.9125 343.945 81.8988 343.931 81.885 343.917C81.7617 343.794 81.6247 343.67 81.5013 343.547C81.4191 343.492 81.3369 343.451 81.241 343.424C81.0765 343.314 80.8984 343.273 80.7065 343.273C80.5146 343.218 80.3091 343.218 80.1172 343.273C79.7609 343.314 79.5005 343.355 79.1442 343.52C79.0757 343.547 79.0072 343.602 78.9387 343.643C78.9113 343.643 78.8839 343.643 78.8565 343.643C78.6509 343.684 78.459 343.739 78.2672 343.821C78.0342 343.903 77.8012 343.999 77.5957 344.136C77.5272 344.191 77.4449 344.26 77.3764 344.315C77.212 344.438 77.0475 344.575 76.8968 344.739C76.4719 345.219 76.0471 345.849 76.0334 346.521C76.0471 346.699 76.0608 346.877 76.0882 347.069C75.9923 347.521 75.9375 347.932 76.0471 348.398C76.0471 348.439 76.0745 348.494 76.0882 348.535C76.1568 348.713 76.239 348.905 76.3349 349.07C76.4719 349.289 76.6775 349.467 76.8831 349.631C77.3079 349.988 77.8561 350.207 78.3631 350.399C78.5413 350.426 78.7057 350.454 78.8839 350.481L79.4457 350.426C79.6376 350.358 79.8294 350.303 80.0213 350.234C80.3228 350.111 80.5969 349.933 80.8298 349.7C81.008 349.577 81.145 349.426 81.2684 349.248C81.4054 349.111 81.515 348.946 81.5836 348.754C81.6795 348.604 81.748 348.426 81.7617 348.247C81.8439 348.001 81.8439 347.754 81.7617 347.507C81.7206 347.261 81.6932 347.028 81.6795 346.781C81.8302 346.548 81.9673 346.302 82.0632 346.041C82.0769 345.986 82.0906 345.945 82.1043 345.89C82.1454 345.712 82.2276 345.411 82.2414 345.233C82.2276 345.027 82.2139 344.835 82.1865 344.63L82.2139 344.589Z" fill="#FFF9B2" fill-opacity="0.2"/>
<path d="M67.9755 295.599C67.9206 295.407 67.8247 295.27 67.6603 295.16C67.4821 294.941 67.2491 294.79 66.9476 294.722C66.7558 294.694 66.5502 294.667 66.3447 294.639C65.8924 294.639 65.4402 294.735 65.0291 294.913C64.5083 295.146 64.015 295.448 63.5353 295.763C63.3846 295.859 63.2201 295.969 63.0694 296.065C62.8501 296.215 62.6446 296.407 62.439 296.585C62.3431 296.668 62.2609 296.75 62.1649 296.832C62.1375 296.859 62.1101 296.887 62.0827 296.914C62.1101 296.887 62.1375 296.873 62.1649 296.846C62.0827 296.928 61.9868 296.996 61.9183 297.079C61.8634 297.133 61.8223 297.202 61.7675 297.257C61.7264 297.312 61.6716 297.366 61.6305 297.408C61.4523 297.599 61.329 297.709 61.1508 297.997C60.9316 298.353 60.7945 298.723 60.7534 299.148C60.7671 299.326 60.7808 299.518 60.7945 299.696C60.8493 299.97 60.9864 300.203 61.2057 300.367C61.2605 300.45 61.3427 300.491 61.4112 300.546C61.4112 300.546 61.4112 300.546 61.3975 300.546C61.4112 300.559 61.4386 300.573 61.466 300.587C61.5071 300.614 61.562 300.642 61.6168 300.669C61.699 300.71 61.7949 300.751 61.8909 300.779C62.2883 300.902 62.6994 300.888 63.1105 300.792C63.2064 300.779 63.2887 300.751 63.3846 300.724C63.6861 300.724 63.9876 300.683 64.2891 300.655C64.5494 300.655 64.7961 300.628 65.0428 300.518C65.3169 300.45 65.5635 300.326 65.7965 300.148C66.0295 299.997 66.235 299.792 66.3995 299.559C66.5776 299.367 66.701 299.148 66.7832 298.901C66.8243 298.778 66.838 298.641 66.8517 298.504C67.0984 298.312 67.3314 298.106 67.5095 297.846C67.7425 297.599 67.9069 297.312 68.0029 296.983C68.044 296.791 68.0851 296.585 68.1262 296.393C68.1673 296.092 68.1125 295.832 67.9617 295.585L67.9755 295.599Z" fill="#FFF9B2" fill-opacity="0.2"/>
<path d="M176.484 163.415C171.002 162.072 164.671 163.497 161.656 168.458C160.985 168.992 160.396 169.65 159.943 170.417C157.477 174.583 158.45 180.106 160.574 184.189C161.629 186.245 163.232 188.177 165.26 189.342C167.672 190.726 170.509 191.027 173.181 190.219C176.964 189.081 180.266 186.464 182.761 183.449C184.926 180.832 186.831 177.598 186.666 174.076C186.42 168.485 181.609 164.675 176.484 163.415Z" fill="#FFF9B2" fill-opacity="0.2"/>
<path d="M93.6021 344.767C92.9169 343.479 91.615 342.629 90.272 342.149C88.3124 341.45 86.0649 341.56 83.9819 342.067C81.5563 340.834 78.9388 340.327 76.3076 341.957C74.1424 343.314 72.5938 346.041 72.5116 348.604C72.4568 350.508 73.142 352.386 74.3479 353.852C76.7736 356.812 80.8437 358.689 84.6808 358.539C87.2023 358.429 89.5046 357.566 91.3684 355.853C93.1499 354.236 93.9721 351.975 94.3421 349.659C94.6025 347.973 94.4107 346.26 93.6021 344.753L93.6021 344.767Z" fill="#FFF9B2" fill-opacity="0.2"/>
<path d="M290.187 211.87C289.529 212.432 289.844 212.172 290.187 211.87V211.87Z" fill="#FFF9B2" fill-opacity="0.2"/>
<path d="M294.49 198.687C293.722 195.371 291.064 193.247 287.665 193.192C285.294 193.151 282.8 193.905 280.731 195.015C278.182 196.385 275.866 198.441 274.975 201.291C274.358 203.264 274.509 205.471 275.29 207.416C275.318 207.54 275.331 207.663 275.359 207.786C275.852 209.828 276.962 211.952 278.771 213.103C280.32 214.09 282.266 214.666 284.116 214.542C286.007 214.419 287.843 213.734 289.364 212.569C289.652 212.35 289.926 212.103 290.2 211.87C290.337 211.747 290.488 211.623 290.557 211.541C290.831 211.267 291.091 210.979 291.338 210.678C291.9 209.979 292.42 209.266 292.845 208.472C294.421 205.539 295.257 201.99 294.49 198.701L294.49 198.687Z" fill="#FFF9B2" fill-opacity="0.2"/>
<path d="M236.521 248.76C236.521 248.637 236.563 248.513 236.549 248.376C236.563 248.157 236.521 247.965 236.398 247.787C236.302 247.485 236.11 247.253 235.836 247.088C235.22 246.677 234.48 246.636 233.781 246.773C233.698 246.745 233.63 246.718 233.548 246.691C233.301 246.65 233.068 246.622 232.821 246.581C232.41 246.567 232.013 246.636 231.629 246.787C230.93 247.006 230.231 247.403 229.738 247.965C229.368 248.376 229.066 248.842 228.875 249.349C228.738 249.692 228.696 250.048 228.751 250.404C228.751 250.747 228.847 251.076 229.066 251.364C229.204 251.61 229.382 251.816 229.587 252.021C229.587 252.323 229.601 252.624 229.656 252.939C229.738 253.529 229.93 254.091 230.135 254.639C230.382 255.296 230.821 255.666 231.506 255.762C232.246 255.872 233.082 255.653 233.685 255.187C234.589 254.474 235.37 253.734 236.042 252.789C236.521 252.104 236.919 251.185 236.919 250.336C236.919 249.692 236.809 249.294 236.521 248.746L236.521 248.76Z" fill="#FFF9B2" fill-opacity="0.2"/>
<path d="M198.342 339.011C194.382 336.887 189.092 339.217 186.817 342.78C185.803 344.369 185.419 346.329 185.844 348.124C185.844 349.138 186.091 350.152 186.666 351.07C187.598 352.55 189.325 353.386 190.997 353.674C193.738 354.154 196.355 352.934 198.315 351.084C200.069 349.412 201.412 346.918 201.385 344.451C201.357 342.286 200.302 340.066 198.342 339.011Z" fill="#FFF9B2" fill-opacity="0.2"/>
<path d="M296.929 261.696C292.969 259.572 287.679 261.902 285.404 265.464C284.39 267.054 284.006 269 284.431 270.809C284.431 271.823 284.678 272.837 285.253 273.755C286.185 275.235 287.912 276.071 289.584 276.359C292.325 276.838 294.942 275.619 296.902 273.769C298.656 272.097 299.999 269.603 299.971 267.136C299.944 264.971 298.889 262.751 296.929 261.696Z" fill="#FFF9B2" fill-opacity="0.2"/>
<path d="M259.01 317.647C258.9 317.428 258.75 317.25 258.599 317.072C258.284 316.729 257.941 316.4 257.557 316.126C257.228 315.893 256.858 315.729 256.53 315.51C255.611 314.907 254.405 315.167 253.528 315.66C252.528 316.222 251.802 317.127 251.637 318.291C251.569 318.812 251.651 319.388 251.966 319.826C251.829 320.018 251.678 320.196 251.555 320.388C251.144 321.073 250.842 321.868 250.993 322.677C251.116 323.362 251.637 323.8 252.268 324.047C252.843 324.266 253.473 324.211 254.076 324.143C254.378 324.102 254.679 324.033 254.967 323.937C255.392 324.321 256.091 324.321 256.639 324.074C257.338 323.745 258.051 323.019 257.955 322.183C258.27 321.882 258.558 321.539 258.804 321.155C259.161 320.594 259.462 319.854 259.421 319.168C259.394 318.552 259.298 318.209 259.01 317.647Z" fill="#FFF9B2" fill-opacity="0.2"/>
<path d="M210.402 392.153C209.936 390.276 208.661 388.577 207.126 387.412C205.592 386.233 203.714 385.877 201.837 386.151C199.918 386.425 198.15 387.576 196.794 388.919C195.601 390.098 194.669 391.646 194.135 393.236C193.642 394.716 193.45 396.347 193.806 397.881C194.135 399.32 195.094 400.691 196.396 401.403C198.589 402.609 201.275 402.76 203.563 401.883C204.166 401.759 204.769 401.581 205.317 401.348C208.771 399.855 211.361 395.977 210.402 392.167L210.402 392.153ZM202.604 396.182C202.549 396.36 202.494 396.552 202.426 396.73C202.412 396.758 202.385 396.785 202.371 396.813C202.344 396.813 202.303 396.813 202.275 396.813C202.056 396.675 201.85 396.511 201.645 396.333C201.453 396.114 201.275 395.894 201.11 395.661C201.11 395.661 201.11 395.661 201.124 395.661C201.631 395.785 202.152 395.785 202.673 395.661C202.673 395.826 202.631 396.004 202.604 396.168L202.604 396.182Z" fill="#FFF9B2" fill-opacity="0.2"/>
<path d="M243.319 344.589C243.278 344.493 243.237 344.397 243.182 344.301C243.127 344.191 243.086 344.068 243.017 343.958C243.017 343.945 243.004 343.931 242.99 343.917C242.867 343.794 242.73 343.67 242.606 343.547C242.524 343.492 242.442 343.451 242.346 343.424C242.181 343.314 242.003 343.273 241.811 343.273C241.62 343.218 241.414 343.218 241.222 343.273C240.866 343.314 240.606 343.355 240.249 343.52C240.181 343.547 240.112 343.602 240.044 343.643C240.016 343.643 239.989 343.643 239.961 343.643C239.756 343.684 239.564 343.739 239.386 343.821C239.153 343.903 238.92 343.999 238.714 344.136C238.646 344.191 238.564 344.26 238.495 344.315C238.331 344.438 238.166 344.575 238.015 344.739C237.591 345.219 237.166 345.849 237.152 346.521C237.166 346.699 237.18 346.877 237.193 347.069C237.097 347.521 237.042 347.932 237.152 348.398C237.152 348.439 237.18 348.494 237.193 348.535C237.262 348.713 237.344 348.905 237.44 349.07C237.577 349.289 237.782 349.467 237.988 349.631C238.413 349.988 238.961 350.207 239.468 350.399C239.646 350.426 239.811 350.454 239.989 350.481L240.551 350.426C240.743 350.358 240.934 350.303 241.126 350.234C241.441 350.111 241.702 349.933 241.949 349.7C242.127 349.577 242.264 349.426 242.387 349.248C242.524 349.111 242.634 348.946 242.702 348.754C242.798 348.604 242.853 348.426 242.88 348.247C242.949 348.001 242.963 347.754 242.88 347.507C242.839 347.261 242.826 347.028 242.798 346.781C242.949 346.548 243.086 346.302 243.168 346.041C243.182 345.986 243.196 345.945 243.209 345.89C243.25 345.712 243.333 345.411 243.346 345.233C243.333 345.027 243.319 344.835 243.292 344.63L243.319 344.589Z" fill="#FFF9B2" fill-opacity="0.2"/>
<path d="M229.067 295.598C229.012 295.407 228.916 295.27 228.751 295.16C228.573 294.941 228.34 294.79 228.039 294.721C227.847 294.694 227.641 294.667 227.436 294.639C226.984 294.639 226.531 294.735 226.12 294.913C225.599 295.146 225.106 295.448 224.613 295.763C224.462 295.859 224.298 295.968 224.147 296.064C223.928 296.215 223.722 296.407 223.516 296.585C223.42 296.667 223.325 296.749 223.242 296.832C223.215 296.859 223.188 296.887 223.16 296.914C223.188 296.887 223.215 296.873 223.242 296.845C223.16 296.928 223.064 296.996 222.996 297.078C222.941 297.133 222.9 297.202 222.845 297.257C222.79 297.311 222.749 297.366 222.694 297.407C222.516 297.599 222.393 297.709 222.215 297.997C221.995 298.353 221.858 298.723 221.817 299.148C221.831 299.326 221.845 299.518 221.872 299.696C221.927 299.97 222.064 300.203 222.283 300.367C222.338 300.449 222.42 300.491 222.489 300.545C222.489 300.545 222.489 300.545 222.475 300.545C222.489 300.559 222.516 300.573 222.543 300.586C222.585 300.614 222.639 300.641 222.694 300.669C222.776 300.71 222.872 300.751 222.968 300.778C223.366 300.902 223.777 300.888 224.188 300.792C224.284 300.778 224.366 300.751 224.462 300.724C224.763 300.724 225.065 300.682 225.366 300.655C225.627 300.655 225.874 300.628 226.12 300.518C226.394 300.449 226.641 300.326 226.874 300.148C227.107 299.997 227.312 299.792 227.477 299.559C227.655 299.367 227.778 299.148 227.861 298.901C227.902 298.778 227.929 298.641 227.943 298.504C228.19 298.312 228.422 298.106 228.601 297.846C228.82 297.599 228.984 297.311 229.094 296.982C229.135 296.791 229.176 296.585 229.217 296.393C229.258 296.092 229.204 295.831 229.053 295.585L229.067 295.598Z" fill="#FFF9B2" fill-opacity="0.2"/>
<path d="M271.851 124.099C266.369 122.756 260.038 124.195 257.023 129.142C256.351 129.677 255.776 130.334 255.31 131.102C252.843 135.268 253.83 140.79 255.94 144.874C257.009 146.929 258.599 148.861 260.627 150.026C263.039 151.41 265.876 151.712 268.548 150.903C272.33 149.766 275.633 147.149 278.127 144.134C280.292 141.516 282.197 138.282 282.033 134.761C281.772 129.17 276.976 125.36 271.837 124.099L271.851 124.099Z" fill="#FFF9B2" fill-opacity="0.2"/>
<path d="M283.691 357.004C283.006 355.716 281.704 354.866 280.361 354.387C278.388 353.688 276.154 353.797 274.071 354.304C271.645 353.071 269.028 352.55 266.396 354.195C264.231 355.551 262.683 358.278 262.6 360.841C262.546 362.746 263.231 364.623 264.437 366.089C266.862 369.049 270.933 370.927 274.77 370.776C277.291 370.666 279.593 369.789 281.471 368.09C283.252 366.473 284.075 364.212 284.445 361.896C284.705 360.211 284.527 358.511 283.718 356.99L283.691 357.004Z" fill="#FFF9B2" fill-opacity="0.2"/>
<path d="M111.472 96.199C111.253 95.4864 110.938 94.7053 110.417 94.1435C110.129 93.8283 109.8 93.472 109.417 93.2665C108.786 92.9102 108.279 92.7868 107.567 92.7046C106.827 92.6224 106.1 92.7731 105.401 93.0335C105.155 93.0198 104.894 93.0335 104.661 93.0883C104.661 93.0883 104.648 93.0883 104.634 93.0883C104.62 93.0883 104.606 93.0883 104.593 93.0883C104.593 93.0883 104.565 93.0883 104.552 93.0883C104.456 93.102 104.483 93.102 104.552 93.0883C104.442 93.1157 104.332 93.1431 104.236 93.1842C104.127 93.2254 104.017 93.2528 103.908 93.2939C103.346 93.5405 102.893 93.8694 102.455 94.2942C101.879 94.8424 101.509 95.5275 101.18 96.2401C100.44 97.1857 99.7689 98.1997 99.4674 99.3782C99.1933 100.447 99.1385 101.338 99.2893 102.42C99.3852 103.119 99.673 103.804 100.043 104.407C100.07 104.86 100.125 105.312 100.18 105.764C100.386 107.162 100.81 108.56 101.879 109.533C102.592 110.177 103.661 110.273 104.565 110.108C105.771 109.889 106.799 109.163 107.676 108.34C108.444 107.614 109.06 106.696 109.595 105.791C109.896 105.284 110.17 104.75 110.431 104.229C110.855 103.38 111.28 102.544 111.5 101.612C111.924 99.8304 112.034 97.9394 111.5 96.1579L111.472 96.199Z" fill="#FFF9B2" fill-opacity="0.2"/>
<path d="M108.402 127.662C108.402 127.662 108.361 127.594 108.348 127.553C108.252 127.306 108.183 127.059 108.156 126.799C108.156 126.744 108.156 126.703 108.142 126.648C108.142 126.566 108.101 126.497 108.046 126.429C108.046 126.429 108.046 126.402 108.032 126.402C107.991 126.306 107.95 126.196 107.923 126.086L107.758 125.73C107.649 125.552 107.498 125.442 107.306 125.374C107.183 125.292 107.059 125.264 106.922 125.264C106.703 125.209 106.484 125.223 106.265 125.278C105.936 125.36 105.621 125.497 105.333 125.689C105.113 125.84 104.935 126.018 104.785 126.223C104.62 126.402 104.51 126.607 104.428 126.826C104.319 127.142 104.25 127.47 104.209 127.799C104.209 127.827 104.209 127.854 104.209 127.882C104.209 127.964 104.223 128.265 104.25 128.347C104.25 128.389 104.278 128.43 104.291 128.471C104.373 128.676 104.469 128.882 104.565 129.074C104.785 129.512 105.127 129.855 105.483 130.184C105.662 130.307 105.853 130.376 106.059 130.376C106.278 130.43 106.498 130.417 106.731 130.362C106.895 130.307 107.046 130.266 107.196 130.211C107.443 130.115 107.662 129.964 107.854 129.786C107.991 129.69 108.115 129.567 108.211 129.416C108.375 129.238 108.485 129.033 108.567 128.813C108.594 128.676 108.622 128.539 108.649 128.402C108.663 128.128 108.608 127.882 108.457 127.649L108.402 127.662Z" fill="#FFF9B2" fill-opacity="0.2"/>
<path d="M78.5276 175.131C75.9512 174.35 73.2515 175.46 71.1411 176.885C71.0041 176.967 70.8807 177.077 70.7574 177.159C70.4833 177.31 70.2092 177.461 69.9489 177.639C66.5914 179.886 64.3165 184.134 64.7276 188.204C65.2347 193.11 70.6478 194.823 74.8823 194.206C75.129 194.165 75.3757 194.124 75.6086 194.069C76.1294 194.11 76.6364 194.097 77.1572 193.987C79.7884 193.494 81.611 191.411 82.1455 188.889C82.8855 187.492 83.3514 185.929 83.4611 184.312C83.694 180.75 82.2962 176.282 78.5276 175.131Z" fill="#FFF9B2" fill-opacity="0.2"/>
<path d="M75.2659 180.105C75.3345 180.133 75.403 180.16 75.4441 180.16C75.3756 180.147 75.3345 180.119 75.2659 180.105C75.2933 180.105 75.2933 180.105 75.2659 180.105C75.2522 180.105 75.2248 180.105 75.2111 180.105C75.2111 180.105 75.1837 180.105 75.17 180.105C75.1426 180.105 75.1015 180.105 75.0741 180.105C75.033 180.105 74.9782 180.105 74.9233 180.119C75.1015 180.119 75.1974 180.119 75.2522 180.119L75.2659 180.105Z" fill="#FFF9B2" fill-opacity="0.2"/>
<path d="M114.665 193.069C114.583 192.905 114.514 192.754 114.432 192.589C114.323 192.494 114.227 192.384 114.117 192.288L113.706 192.096C113.555 192.069 113.391 192.055 113.226 192.028C112.952 192.028 112.692 192.069 112.445 192.165C112.253 192.206 112.075 192.288 111.924 192.398C111.746 192.48 111.582 192.589 111.431 192.74C111.267 192.85 111.129 192.987 111.034 193.151C110.855 193.357 110.718 193.576 110.636 193.836C110.554 194.042 110.472 194.261 110.389 194.481C110.266 194.823 110.239 195.166 110.321 195.522C110.403 195.865 110.595 196.125 110.883 196.317C111.184 196.509 111.513 196.605 111.883 196.605C112.185 196.605 112.486 196.563 112.76 196.454C113.075 196.372 113.377 196.235 113.651 196.029C114.007 195.782 114.309 195.467 114.555 195.097C114.761 194.768 114.884 194.426 114.925 194.042C114.953 193.699 114.871 193.371 114.679 193.083L114.665 193.069Z" fill="#FFF9B2" fill-opacity="0.2"/>
<path d="M204.838 81.6185C203.7 80.8922 202.398 80.7004 201.083 80.7689C200.233 80.3304 199.233 80.2619 198.315 80.3715C196.286 80.6182 194.601 82.0844 193.45 83.6877C192.449 85.0855 191.887 87.004 191.805 88.7032C191.764 89.5117 191.833 90.3751 192.052 91.1699C192.34 92.1565 192.819 92.8828 193.559 93.5817C195.067 95.0068 197.492 95.0342 199.384 94.5683C201.138 94.1298 202.618 93.3761 203.961 92.1565C205.03 91.1836 205.824 89.8954 206.345 88.5662C207.25 86.264 207.14 83.1122 204.838 81.6459L204.838 81.6185Z" fill="#FFF9B2" fill-opacity="0.2"/>
<path d="M166.096 48.8945C164.959 48.8945 163.753 49.6893 163.397 50.7856C163.068 51.786 163.685 52.7452 164.781 52.7452C165.877 52.7452 167.124 51.9504 167.481 50.8541C167.809 49.8538 167.193 48.8945 166.096 48.8945Z" fill="#FFF9B2" fill-opacity="0.2"/>
<path d="M230.876 163.949C230.78 163.51 230.574 163.058 230.273 162.729C229.3 161.606 227.957 161.304 226.614 161.469C226.463 161.318 226.312 161.153 226.148 161.016C225.778 160.701 225.161 160.783 224.736 160.92C224.202 161.099 223.681 161.441 223.393 161.935C223.215 162.25 223.064 162.592 222.927 162.949C222.9 162.962 222.872 162.99 222.859 163.003C221.995 163.634 221.201 164.593 221.146 165.717C221.091 166.676 221.653 167.512 222.585 167.772C222.777 167.827 222.968 167.909 223.16 167.991C223.229 168.033 223.311 168.06 223.38 168.101C223.859 168.855 224.544 169.485 225.353 169.883C225.887 170.143 226.408 170.28 227.011 170.129C227.696 169.965 228.286 169.609 228.793 169.115C229.67 168.279 230.506 167.142 230.766 165.936C230.917 165.251 230.999 164.662 230.848 163.949L230.876 163.949Z" fill="#FFF9B2" fill-opacity="0.2"/>
<path d="M189.393 235.564C188.969 233.508 187.776 231.521 186.242 230.096C183.295 227.342 179.033 228.876 176.525 231.411C176.265 231.686 176.005 231.96 175.758 232.275C173.579 232.878 171.551 234.166 170.331 236.112C169.18 237.948 168.906 240.223 169.591 242.278C172.387 250.802 184.926 248.198 188.434 241.648C189.448 239.757 189.846 237.688 189.393 235.564Z" fill="#FFF9B2" fill-opacity="0.2"/>
<path d="M171.619 294.036C171.619 294.036 171.592 293.57 171.578 293.529C171.578 293.529 171.578 293.516 171.578 293.502C171.51 293.351 171.441 293.214 171.373 293.063C171.236 292.844 171.044 292.693 170.797 292.611C170.646 292.515 170.482 292.474 170.304 292.474C170.03 292.406 169.756 292.419 169.468 292.488C169.399 292.502 169.344 292.529 169.29 292.556C169.262 292.556 169.235 292.529 169.207 292.515C169.098 292.447 168.974 292.406 168.837 292.406C168.632 292.364 168.413 292.364 168.207 292.406C167.892 292.488 167.59 292.625 167.316 292.803C167.111 292.94 166.933 293.104 166.782 293.324C166.631 293.488 166.521 293.68 166.453 293.899C166.439 293.94 166.425 293.968 166.398 294.009C166.371 294.146 166.343 294.283 166.316 294.42C166.316 294.461 166.316 294.489 166.316 294.53C166.316 294.598 166.302 294.667 166.288 294.735C166.288 294.845 166.261 294.954 166.261 295.064C166.247 295.27 166.261 295.475 166.275 295.667C166.275 295.749 166.275 295.818 166.288 295.9C166.288 295.927 166.288 295.969 166.288 295.996C166.288 295.969 166.288 295.941 166.288 295.914C166.288 296.01 166.316 296.092 166.343 296.188C166.357 296.256 166.384 296.338 166.412 296.407C166.467 296.599 166.535 296.777 166.604 296.969C166.686 297.27 166.85 297.517 167.111 297.695C167.316 297.832 167.536 297.914 167.768 297.928C168.029 297.983 168.276 297.983 168.536 297.914C168.92 297.832 169.29 297.668 169.619 297.435C169.838 297.298 170.057 297.106 170.222 296.9C170.249 296.859 170.29 296.818 170.317 296.777C170.413 296.736 170.509 296.681 170.592 296.613C170.852 296.421 171.071 296.188 171.222 295.886C171.318 295.681 171.4 295.42 171.345 295.174C171.414 295.037 171.496 294.872 171.523 294.804C171.551 294.708 171.619 294.351 171.633 294.256C171.633 294.256 171.633 294.228 171.633 294.214C171.633 294.173 171.633 294.132 171.633 294.105C171.633 294.091 171.633 294.077 171.633 294.064L171.619 294.036Z" fill="#FFF9B2" fill-opacity="0.2"/>
<path d="M280.909 245.649C281.128 244.992 281.032 244.252 280.416 243.827C279.813 243.402 278.894 243.47 278.264 243.786C277.935 243.95 277.62 244.128 277.318 244.32C277.25 244.361 277.195 244.402 277.14 244.443C277.113 244.471 277.086 244.484 277.044 244.512C276.948 244.594 276.853 244.676 276.757 244.759C276.647 244.827 276.551 244.909 276.469 245.005C276.304 245.197 276.071 245.485 275.962 245.649C275.674 246.115 275.66 246.293 275.551 246.814C275.537 246.91 275.523 247.02 275.51 247.116C275.496 247.431 275.578 247.718 275.729 247.951C275.729 247.951 275.729 247.979 275.729 247.993C275.729 247.993 275.729 248.006 275.729 248.02C275.729 248.253 275.756 248.486 275.784 248.719C275.825 248.938 275.934 249.103 276.099 249.24C276.236 249.404 276.414 249.514 276.62 249.555C277.085 249.678 277.593 249.61 278.031 249.418C278.264 249.322 278.483 249.226 278.716 249.116C279.21 248.897 279.634 248.623 280.032 248.253C280.457 247.842 280.772 247.266 280.813 246.663C280.813 246.567 280.813 246.485 280.813 246.389C280.813 246.239 280.813 246.101 280.827 245.951C280.854 245.841 280.882 245.745 280.909 245.636L280.909 245.649Z" fill="#FFF9B2" fill-opacity="0.2"/>
<path d="M323.775 224.203C323.707 223.984 323.583 223.751 323.474 223.546C323.446 223.504 323.419 223.463 323.405 223.422C323.213 223.176 322.967 222.956 322.747 222.751C322.432 222.449 322.103 222.175 321.788 221.874C321.391 221.613 320.952 221.49 320.486 221.49C319.952 221.49 319.431 221.6 318.938 221.819C318.157 222.161 317.362 222.792 316.923 223.573C316.91 223.573 316.882 223.587 316.868 223.6C316.402 223.929 316.019 224.327 315.731 224.806C315.471 225.217 315.402 225.574 315.32 226.04C315.306 226.122 315.306 226.218 315.306 226.3C315.306 226.643 315.334 227.013 315.471 227.341C315.621 227.698 315.772 228.054 315.991 228.369C316.498 229.082 317.197 229.616 317.965 230.027C318.321 230.26 318.718 230.37 319.143 230.37C319.5 230.37 319.856 230.315 320.185 230.192C320.569 230.096 320.911 229.931 321.226 229.685C321.651 229.383 322.007 229.013 322.282 228.575C322.734 227.698 323.309 226.862 323.666 225.944C323.679 225.903 323.693 225.848 323.707 225.807C323.775 225.56 323.844 225.286 323.857 225.039C323.885 224.765 323.857 224.464 323.789 224.19L323.775 224.203Z" fill="#FFF9B2" fill-opacity="0.2"/>
<path d="M315.32 300.217C314.854 299.326 314.114 298.463 313.237 297.983C311.729 297.161 310.112 297.133 308.495 297.654C307.111 298.106 305.782 298.942 304.768 300.038C302.438 300.628 300.506 302.615 299.656 304.917C299.163 306.246 298.971 307.849 299.492 309.206C299.999 310.535 300.807 311.577 301.945 312.44C304.096 314.071 307.193 314.687 309.811 314.03C311.51 313.605 313.182 312.755 314.361 311.426C315.471 310.179 316.074 308.754 316.389 307.137C316.841 304.807 316.416 302.313 315.334 300.217L315.32 300.217Z" fill="#FFF9B2" fill-opacity="0.2"/>
</g>
<g opacity="0.5">
<path d="M150.53 142.799C142.281 150.167 130.263 150.196 123.688 142.866C117.118 135.535 118.468 123.62 126.717 116.248C134.966 108.88 146.98 108.85 153.559 116.176C160.138 123.507 158.779 135.426 150.53 142.799Z" fill="#A44D25"/>
<path d="M147.8 140.149C142.403 144.973 134.655 145.12 130.495 140.481C126.33 135.838 127.336 128.167 132.724 123.343C138.13 118.519 145.878 118.372 150.038 123.016C154.203 127.655 153.202 135.33 147.8 140.149Z" fill="#FEDBA6"/>
<path d="M225.108 207.874C225.108 207.874 259.458 213.005 277.424 236.566C291.079 254.481 269.318 266.988 261.377 256.769C252.732 245.643 237.525 229.022 223.341 223.035L225.108 207.874Z" fill="#C97E4B"/>
<g style="mix-blend-mode:multiply">
<path d="M276.259 255.598C272.52 249.783 267.459 244.77 261.898 240.677C253.523 234.505 243.015 229.79 232.436 228.127C243.688 235.827 254.575 247.999 261.381 256.765C265.297 261.803 272.57 261.316 277.302 257.382C276.979 256.777 276.634 256.181 276.259 255.598Z" fill="#CCDDF2"/>
</g>
<path d="M140.767 203.978C140.767 203.978 106.412 209.109 88.4462 232.67C74.7918 250.581 96.5521 263.092 104.494 252.869C113.138 241.743 128.341 225.121 142.534 219.134L140.767 203.974V203.978Z" fill="#C97E4B"/>
<g style="mix-blend-mode:multiply">
<path d="M89.6115 251.706C93.3595 245.891 98.4157 240.878 103.981 236.78C112.356 230.609 122.86 225.894 133.439 224.231C122.187 231.931 111.305 244.102 104.494 252.869C100.582 257.907 93.309 257.42 88.5767 253.486C88.9048 252.877 89.2455 252.281 89.6115 251.701V251.706Z" fill="#CCDDF2"/>
</g>
<path d="M215.382 142.799C223.631 150.167 235.649 150.196 242.224 142.866C248.795 135.535 247.445 123.62 239.196 116.248C230.947 108.88 218.929 108.85 212.35 116.176C205.779 123.507 207.133 135.426 215.382 142.799Z" fill="#A44D25"/>
<path d="M218.108 140.149C223.505 144.973 231.258 145.12 235.418 140.481C239.578 135.838 238.577 128.167 233.18 123.343C227.783 118.519 220.035 118.372 215.87 123.016C211.71 127.655 212.711 135.33 218.104 140.149H218.108Z" fill="#FEDBA6"/>
<path d="M248.16 269.079C248.16 308.116 221.633 329.44 181.448 329.44C135.206 329.44 117.067 306.558 117.067 267.525C117.067 228.493 143.598 188.083 181.448 188.083C219.299 188.083 248.16 230.046 248.16 269.079Z" fill="#C97E4B"/>
<g style="mix-blend-mode:multiply">
<path d="M216.922 201.073C229.529 214.037 237.374 231.629 237.374 250.778C237.374 289.861 204.698 322.474 165.543 322.474C154.169 322.474 143.345 319.72 133.704 314.854C144.056 324.343 159.621 329.439 181.444 329.439C221.629 329.439 248.155 308.116 248.155 269.079C248.155 243.431 236.196 216.515 216.922 201.073Z" fill="#CCDDF2"/>
</g>
<path d="M227.88 269.671C227.88 297.305 210.032 312.402 182.996 312.402C151.893 312.402 139.686 296.201 139.686 268.567C139.686 240.933 157.534 212.329 182.996 212.329C208.459 212.329 227.88 242.037 227.88 269.671Z" fill="#FEDBA6"/>
<g style="mix-blend-mode:multiply">
<path d="M208.202 222.695C215 231.52 214.415 240.937 214.415 252.726C214.415 281.217 190.594 304.992 162.052 304.992C157.867 304.992 158.456 306.033 154.544 305.076C161.346 309.858 170.688 312.407 183.001 312.407C210.036 312.407 227.885 297.309 227.885 269.675C227.885 252.147 220.389 233.787 208.202 222.699V222.695Z" fill="#EBE0D8"/>
</g>
<path d="M242.506 176.008C242.506 206.01 215.689 223.454 183.442 223.454C151.195 223.454 124.866 204.255 124.866 174.257C124.866 144.26 151.203 114.816 183.442 114.816C215.681 114.816 242.506 146.01 242.506 176.008Z" fill="#C97E4B"/>
<g style="mix-blend-mode:multiply">
<path d="M230.766 141.174C231.91 145.704 232.52 150.427 232.52 155.272C232.52 181.156 215.168 203.592 191.628 211.489C184.881 214.197 177.557 215.692 169.935 215.692C169.7 215.692 169.472 215.683 169.237 215.683C169.077 215.683 168.921 215.692 168.766 215.692C158.094 215.692 148.006 212.761 139.274 207.673C150.038 217.741 165.859 223.455 183.446 223.455C215.694 223.455 242.51 206.01 242.51 176.008C242.51 163.879 238.123 151.553 230.77 141.174H230.766Z" fill="#CCDDF2"/>
</g>
<path d="M162.426 165.088C162.426 168.858 159.364 171.919 155.586 171.919C151.809 171.919 148.742 168.858 148.742 165.088C148.742 161.318 151.809 158.261 155.586 158.261C159.364 158.261 162.426 161.318 162.426 165.088Z" fill="#242E63"/>
<path d="M160.239 166.318C160.239 168.086 158.801 169.517 157.034 169.517C155.267 169.517 153.824 168.081 153.824 166.318C153.824 164.555 155.259 163.119 157.034 163.119C158.809 163.119 160.239 164.551 160.239 166.318Z" fill="#FEDBA6"/>
<path d="M155.048 161.406C155.048 162.233 154.379 162.901 153.555 162.901C152.73 162.901 152.057 162.233 152.057 161.406C152.057 160.579 152.73 159.916 153.555 159.916C154.379 159.916 155.048 160.583 155.048 161.406Z" fill="#FEDBA6"/>
<path d="M152.486 163.598C152.486 164.055 152.116 164.425 151.657 164.425C151.199 164.425 150.833 164.055 150.833 163.598C150.833 163.14 151.203 162.771 151.657 162.771C152.112 162.771 152.486 163.144 152.486 163.598Z" fill="#FEDBA6"/>
<path d="M203.045 165.088C203.045 168.858 206.111 171.919 209.889 171.919C213.666 171.919 216.729 168.858 216.729 165.088C216.729 161.318 213.67 158.261 209.889 158.261C206.107 158.261 203.045 161.318 203.045 165.088Z" fill="#242E63"/>
<path d="M205.232 166.318C205.232 168.086 206.675 169.517 208.442 169.517C210.208 169.517 211.651 168.081 211.651 166.318C211.651 164.555 210.212 163.119 208.442 163.119C206.671 163.119 205.232 164.551 205.232 166.318Z" fill="#FEDBA6"/>
<path d="M210.423 161.406C210.423 162.233 211.092 162.901 211.92 162.901C212.749 162.901 213.414 162.233 213.414 161.406C213.414 160.579 212.745 159.916 211.92 159.916C211.096 159.916 210.423 160.583 210.423 161.406Z" fill="#FEDBA6"/>
<path d="M212.985 163.598C212.985 164.055 213.355 164.425 213.814 164.425C214.272 164.425 214.642 164.055 214.642 163.598C214.642 163.14 214.268 162.771 213.814 162.771C213.359 162.771 212.985 163.144 212.985 163.598Z" fill="#FEDBA6"/>
<path d="M208.387 188.259C208.387 200.653 198.422 208.47 183.198 208.47C167.975 208.47 157.32 200.183 157.32 187.785C157.32 175.387 169.96 166.045 183.341 166.045C196.722 166.045 208.391 175.861 208.391 188.255L208.387 188.259Z" fill="#FEDBA6"/>
<g style="mix-blend-mode:multiply">
<path d="M180.544 203.894C171.685 203.894 163.63 199.843 158.157 193.528C160.925 202.673 170.415 208.471 183.203 208.471C198.426 208.471 208.391 200.653 208.391 188.259C208.391 187.168 208.299 186.101 208.122 185.052C203.731 195.997 192.924 203.894 180.544 203.894Z" fill="#EBE0D8"/>
</g>
<path d="M192.533 184.976C194.152 179.552 189.062 174.661 183.345 174.661C177.629 174.661 171.542 178.565 173.49 184.796C174.491 187.986 178.689 191.988 182.651 192.361V200.569C179.652 200.418 177.023 199.129 175.992 197.265C175.845 197.005 175.513 196.912 175.252 197.055C174.991 197.202 174.89 197.534 175.038 197.794C176.342 200.149 179.572 201.673 183.249 201.673C186.925 201.673 189.958 200.237 191.334 198.012C191.494 197.756 191.414 197.42 191.157 197.261C190.9 197.105 190.568 197.185 190.404 197.437C189.281 199.251 186.69 200.456 183.737 200.577V192.37C187.22 192.097 191.321 189.036 192.528 184.976H192.533Z" fill="#242E63"/>
<path opacity="0.2" d="M180.611 177.545C182.5 175.912 185.567 176.239 185.996 178.2C186.433 180.165 182.424 178.439 181.217 181.256C179.661 184.922 175.004 186.933 175.311 181.827C175.551 177.814 178.681 179.212 180.607 177.545H180.611Z" fill="#B3E4FA"/>
<g style="mix-blend-mode:soft-light">
<path d="M135.109 225.852C135.109 225.852 138.815 216.897 142.328 219.231C145.836 221.57 155.204 227.216 160.079 227.019C164.963 226.822 155.788 237.532 151.889 251.941C147.985 266.35 128.673 284.067 127.113 269.856C125.552 255.64 128.673 241.235 135.109 225.848V225.852Z" fill="white"/>
</g>
<path d="M250.049 296.482C245.93 318.7 236.764 335.636 213.161 331.283C189.563 326.933 187.064 307.843 191.174 285.625C195.284 263.407 209.443 246.84 227.354 250.148C245.274 253.452 254.154 274.264 250.049 296.482Z" fill="#A44D25"/>
<path d="M239.12 302.217C236.011 319.015 229.407 331.879 212.867 328.826C196.327 325.774 194.762 311.407 197.866 294.609C200.979 277.816 211.092 265.183 223.644 267.496C236.196 269.809 242.237 285.419 239.124 302.217H239.12Z" fill="#FEDBA6"/>
<g style="mix-blend-mode:multiply">
<path d="M247.937 268.508C248.349 270.981 248.572 273.512 248.572 276.09C248.572 301.961 226.938 323.553 201.017 323.553C199.629 323.553 198.258 323.478 196.895 323.36C200.592 327.177 205.867 329.939 213.161 331.283C236.764 335.636 245.93 318.7 250.048 296.482C251.925 286.355 251.088 276.527 247.937 268.508Z" fill="#CCDDF2"/>
</g>
<path d="M111.342 296.482C115.452 318.7 124.622 335.636 148.221 331.283C171.828 326.933 174.327 307.843 170.213 285.625C166.103 263.407 151.944 246.84 134.028 250.148C116.112 253.452 107.228 274.264 111.342 296.482Z" fill="#A44D25"/>
<path d="M122.262 302.217C125.371 319.015 131.98 331.879 148.52 328.826C165.06 325.774 166.624 311.407 163.52 294.609C160.407 277.816 150.299 265.183 137.747 267.496C125.194 269.813 119.158 285.419 122.267 302.217H122.262Z" fill="#FEDBA6"/>
<g style="mix-blend-mode:multiply">
<path d="M113.454 268.508C113.042 270.981 112.814 273.512 112.814 276.09C112.814 301.961 134.449 323.553 160.369 323.553C161.757 323.553 163.129 323.478 164.487 323.36C160.798 327.177 155.523 329.939 148.221 331.283C124.626 335.636 115.456 318.7 111.342 296.482C109.466 286.355 110.303 276.527 113.454 268.508Z" fill="#CCDDF2"/>
</g>
<g style="mix-blend-mode:soft-light">
<path d="M143.48 138.676C149.626 131.06 169.401 118.633 165.666 130.753C161.93 142.874 152.693 136.64 151.031 143.496C147.683 157.321 136.472 170.819 134.293 162.216C132.35 154.529 135.05 149.113 143.48 138.676Z" fill="white"/>
</g>
</g>
<defs>
<clipPath id="clip0_1_5794">
<rect width="280.604" height="353.536" fill="white" transform="translate(43.2534 48.8945)"/>
</clipPath>
</defs>
</svg>
