<svg width="492" height="445" viewBox="0 0 492 445" fill="none" xmlns="http://www.w3.org/2000/svg">
<path d="M430 309.322C430 335.453 347.17 332.934 245 332.934C142.83 332.934 60 335.453 60 309.322C60 283.19 142.83 262 245 262C347.17 262 430 283.19 430 309.322Z" fill="#AEDB83"/>
<g clip-path="url(#clip0_1_4388)">
<path d="M153.67 178.742C153.015 179.119 153.327 178.946 153.67 178.742V178.742Z" fill="#FFF9B2" fill-opacity="0.2"/>
<path d="M159.502 168.108C159.378 165.137 157.437 162.885 154.528 162.29C152.499 161.873 150.237 162.118 148.269 162.735C145.86 163.501 143.54 164.893 142.316 167.197C141.469 168.792 141.243 170.71 141.6 172.507C141.604 172.617 141.596 172.725 141.599 172.835C141.694 174.668 142.293 176.668 143.672 177.95C144.843 179.047 146.421 179.854 148.029 180.047C149.673 180.245 151.372 179.955 152.854 179.198C153.136 179.056 153.411 178.889 153.684 178.733C153.821 178.649 153.971 178.567 154.055 178.51C154.334 178.319 154.604 178.114 154.864 177.895C155.459 177.385 156.021 176.857 156.514 176.243C158.34 173.979 159.627 171.078 159.5 168.119L159.502 168.108Z" fill="#FFF9B2" fill-opacity="0.2"/>
<path d="M165.182 195.933C165.202 195.827 165.257 195.727 165.268 195.608C165.315 195.422 165.31 195.25 165.233 195.077C165.199 194.803 165.072 194.572 164.863 194.387C164.4 193.935 163.771 193.78 163.149 193.785C163.095 193.75 163.029 193.714 162.974 193.679C162.769 193.604 162.573 193.543 162.368 193.468C162.018 193.39 161.653 193.383 161.312 193.452C160.676 193.528 160.012 193.757 159.498 194.159C159.114 194.453 158.78 194.804 158.534 195.209C158.349 195.479 158.268 195.78 158.258 196.095C158.203 196.389 158.232 196.687 158.362 196.967C158.44 197.201 158.56 197.406 158.703 197.616C158.655 197.874 158.618 198.135 158.614 198.415C158.59 198.934 158.664 199.447 158.752 199.951C158.858 200.556 159.175 200.944 159.748 201.137C160.365 201.35 161.118 201.296 161.711 200.994C162.603 200.528 163.392 200.018 164.121 199.314C164.644 198.803 165.144 198.081 165.27 197.35C165.373 196.797 165.343 196.438 165.184 195.921L165.182 195.933Z" fill="#FFF9B2" fill-opacity="0.2"/>
<path d="M193.488 225.02C188.23 220.781 179.747 222.758 175.404 227.399C173.468 229.472 172.351 232.246 172.485 235.036C172.202 236.542 172.275 238.103 172.88 239.617C173.846 242.064 176.169 243.766 178.559 244.665C182.485 246.133 186.682 245.057 190.105 242.849C193.167 240.878 195.849 237.557 196.486 233.901C197.054 230.682 196.103 227.118 193.49 225.008L193.488 225.02Z" fill="#FFF9B2" fill-opacity="0.2"/>
<path d="M173.391 258.701C173.332 258.495 173.232 258.318 173.131 258.141C172.916 257.796 172.674 257.459 172.389 257.161C172.144 256.908 171.853 256.708 171.606 256.466C170.915 255.801 169.837 255.83 169.005 256.112C168.056 256.433 167.286 257.093 166.957 258.066C166.815 258.503 166.792 259.01 166.992 259.437C166.844 259.58 166.686 259.709 166.549 259.853C166.086 260.375 165.699 261.009 165.698 261.728C165.693 262.336 166.07 262.796 166.571 263.11C167.03 263.391 167.592 263.447 168.109 263.483C168.374 263.497 168.644 263.486 168.907 263.45C169.21 263.848 169.81 263.961 170.32 263.837C170.973 263.668 171.702 263.159 171.754 262.426C172.074 262.218 172.376 261.97 172.649 261.68C173.046 261.255 173.424 260.669 173.499 260.074C173.575 259.54 173.548 259.23 173.391 258.701Z" fill="#FFF9B2" fill-opacity="0.2"/>
<path d="M214.499 306.865C214.404 305.166 213.581 303.514 212.451 302.267C211.323 301.007 209.769 300.399 208.113 300.332C206.421 300.258 204.718 300.961 203.337 301.896C202.123 302.716 201.074 303.895 200.359 305.174C199.699 306.353 199.269 307.734 199.328 309.109C199.39 310.4 199.981 311.729 200.984 312.55C202.672 313.939 204.954 314.501 207.061 314.117C207.598 314.108 208.145 314.052 208.653 313.941C211.858 313.215 214.707 310.302 214.497 306.877L214.499 306.865ZM207.155 309.068C207.08 309.212 207.002 309.368 206.914 309.51C206.898 309.531 206.87 309.55 206.854 309.572C206.83 309.567 206.795 309.56 206.771 309.556C206.605 309.403 206.455 309.229 206.308 309.043C206.178 308.824 206.06 308.607 205.959 308.368C205.959 308.368 205.959 308.368 205.971 308.371C206.386 308.558 206.845 308.644 207.289 308.618C207.262 308.759 207.198 308.905 207.148 309.042L207.155 309.068Z" fill="#FFF9B2" fill-opacity="0.2"/>
<path d="M155.567 279.302C155.547 279.213 155.527 279.124 155.495 279.033C155.466 278.93 155.45 278.817 155.409 278.712C155.412 278.7 155.402 278.687 155.392 278.673C155.306 278.547 155.209 278.419 155.123 278.293C155.061 278.233 154.997 278.184 154.919 278.145C154.795 278.025 154.649 277.961 154.484 277.93C154.328 277.852 154.152 277.819 153.978 277.835C153.666 277.813 153.436 277.806 153.103 277.89C153.04 277.902 152.972 277.938 152.907 277.963C152.883 277.958 152.86 277.954 152.836 277.949C152.653 277.951 152.48 277.968 152.302 278.007C152.088 278.04 151.873 278.085 151.674 278.17C151.607 278.206 151.525 278.251 151.457 278.287C151.296 278.367 151.133 278.458 150.977 278.575C150.535 278.918 150.069 279.391 149.949 279.965C149.932 280.12 149.915 280.275 149.908 280.445C149.752 280.817 149.639 281.162 149.658 281.579C149.651 281.615 149.666 281.666 149.671 281.704C149.701 281.868 149.741 282.046 149.797 282.202C149.879 282.412 150.027 282.599 150.177 282.773C150.484 283.147 150.92 283.424 151.324 283.67C151.473 283.722 151.61 283.772 151.758 283.825L152.249 283.868C152.425 283.84 152.599 283.824 152.774 283.796C153.053 283.739 153.317 283.63 153.555 283.468C153.728 283.39 153.869 283.283 154.004 283.15C154.144 283.054 154.264 282.931 154.354 282.777C154.461 282.663 154.548 282.521 154.589 282.371C154.699 282.172 154.739 281.96 154.708 281.735C154.712 281.517 154.726 281.312 154.754 281.098C154.921 280.923 155.079 280.733 155.203 280.525C155.224 280.48 155.242 280.447 155.263 280.402C155.327 280.256 155.446 280.01 155.486 279.859C155.508 279.681 155.527 279.514 155.536 279.333L155.567 279.302Z" fill="#FFF9B2" fill-opacity="0.2"/>
<path d="M151.235 234.946C151.219 234.773 151.159 234.639 151.035 234.519C150.917 234.302 150.742 234.135 150.494 234.028C150.334 233.973 150.161 233.916 149.989 233.86C149.601 233.787 149.197 233.796 148.816 233.883C148.331 233.999 147.859 234.179 147.396 234.372C147.251 234.43 147.093 234.498 146.948 234.556C146.735 234.65 146.528 234.781 146.323 234.901C146.227 234.956 146.143 235.014 146.047 235.069C146.02 235.088 145.992 235.107 145.964 235.126C145.992 235.107 146.017 235.1 146.045 235.081C145.961 235.138 145.868 235.181 145.796 235.241C145.74 235.279 145.694 235.331 145.638 235.37C145.594 235.41 145.538 235.448 145.496 235.477C145.312 235.613 145.188 235.687 144.989 235.906C144.743 236.176 144.566 236.472 144.462 236.83C144.446 236.985 144.426 237.152 144.409 237.307C144.412 237.551 144.492 237.773 144.654 237.95C144.688 238.029 144.752 238.078 144.802 238.136C144.802 238.136 144.802 238.136 144.79 238.134C144.8 238.148 144.821 238.164 144.842 238.18C144.873 238.21 144.916 238.242 144.959 238.275C145.023 238.323 145.098 238.374 145.176 238.413C145.498 238.583 145.853 238.638 146.221 238.621C146.306 238.625 146.381 238.615 146.468 238.607C146.726 238.655 146.992 238.669 147.255 238.694C147.479 238.736 147.695 238.752 147.924 238.697C148.171 238.683 148.402 238.617 148.631 238.501C148.855 238.409 149.065 238.266 149.244 238.092C149.428 237.956 149.569 237.788 149.679 237.59C149.734 237.49 149.768 237.375 149.802 237.259C150.045 237.134 150.278 236.995 150.473 236.801C150.713 236.626 150.9 236.406 151.036 236.139C151.102 235.981 151.17 235.811 151.236 235.653C151.32 235.401 151.315 235.168 151.225 234.932L151.235 234.946Z" fill="#FFF9B2" fill-opacity="0.2"/>
<path d="M265.696 138.939C261.206 136.902 255.54 137.106 252.152 140.879C251.49 141.23 250.878 141.7 250.366 142.286C247.577 145.465 247.522 150.363 248.688 154.212C249.263 156.147 250.328 158.064 251.882 159.391C253.73 160.968 256.117 161.683 258.542 161.42C261.972 161.053 265.23 159.338 267.857 157.151C270.137 155.253 272.294 152.783 272.72 149.733C273.409 144.893 269.893 140.847 265.696 138.939Z" fill="#FFF9B2" fill-opacity="0.2"/>
<path d="M165.315 281.29C164.935 280.074 163.954 279.134 162.878 278.506C161.308 277.59 159.361 277.322 157.491 277.422C155.607 275.972 153.441 275.115 150.919 276.091C148.842 276.907 147.073 278.999 146.589 281.186C146.235 282.813 146.521 284.535 147.32 285.988C148.926 288.92 152.118 291.188 155.437 291.677C157.619 291.989 159.735 291.619 161.611 290.448C163.402 289.347 164.472 287.538 165.163 285.609C165.658 284.204 165.769 282.703 165.318 281.278L165.315 281.29Z" fill="#FFF9B2" fill-opacity="0.2"/>
<path d="M355.511 198.861C354.856 199.238 355.169 199.065 355.511 198.861V198.861Z" fill="#FFF9B2" fill-opacity="0.2"/>
<path d="M361.33 188.236C361.205 185.265 359.265 183.013 356.356 182.419C354.327 182.001 352.064 182.247 350.109 182.866C347.699 183.632 345.38 185.024 344.156 187.327C343.308 188.922 343.082 190.841 343.439 192.637C343.443 192.748 343.435 192.856 343.438 192.966C343.533 194.799 344.144 196.801 345.512 198.081C346.682 199.178 348.26 199.985 349.868 200.178C351.512 200.376 353.199 200.084 354.693 199.329C354.975 199.187 355.25 199.019 355.523 198.864C355.661 198.78 355.81 198.698 355.882 198.639C356.162 198.447 356.431 198.242 356.692 198.023C357.287 197.514 357.849 196.986 358.342 196.372C360.167 194.108 361.457 191.195 361.328 188.248L361.33 188.236Z" fill="#FFF9B2" fill-opacity="0.2"/>
<path d="M303.492 221.888C303.512 221.782 303.567 221.683 303.577 221.563C303.624 221.377 303.62 221.205 303.543 221.032C303.509 220.758 303.382 220.527 303.173 220.342C302.71 219.89 302.081 219.735 301.459 219.74C301.393 219.703 301.338 219.669 301.272 219.632C301.067 219.557 300.871 219.496 300.666 219.421C300.315 219.343 299.963 219.338 299.609 219.405C298.974 219.481 298.31 219.709 297.796 220.112C297.412 220.406 297.078 220.757 296.832 221.162C296.659 221.434 296.566 221.733 296.556 222.048C296.5 222.342 296.53 222.64 296.672 222.922C296.75 223.156 296.869 223.361 297.013 223.571C296.964 223.829 296.927 224.091 296.924 224.37C296.899 224.889 296.974 225.402 297.062 225.906C297.168 226.511 297.484 226.899 298.057 227.092C298.675 227.305 299.428 227.252 300.021 226.949C300.912 226.483 301.702 225.973 302.431 225.269C302.953 224.758 303.442 224.034 303.579 223.305C303.683 222.752 303.653 222.393 303.494 221.876L303.492 221.888Z" fill="#FFF9B2" fill-opacity="0.2"/>
<path d="M256.171 293.224C253.112 290.762 248.195 291.91 245.668 294.603C244.541 295.804 243.896 297.425 243.972 299.034C243.808 299.905 243.857 300.816 244.203 301.697C244.765 303.117 246.112 304.113 247.501 304.63C249.777 305.483 252.221 304.858 254.202 303.585C255.977 302.432 257.532 300.507 257.906 298.385C258.231 296.522 257.683 294.446 256.171 293.224Z" fill="#FFF9B2" fill-opacity="0.2"/>
<path d="M353.272 242.727C350.214 240.265 345.297 241.413 342.77 244.106C341.643 245.307 341 246.916 341.073 248.538C340.91 249.408 340.958 250.319 341.305 251.2C341.866 252.621 343.214 253.616 344.603 254.133C346.879 254.986 349.323 254.361 351.304 253.088C353.079 251.935 354.634 250.011 355.008 247.888C355.333 246.025 354.785 243.949 353.272 242.727Z" fill="#FFF9B2" fill-opacity="0.2"/>
<path d="M311.701 284.656C311.642 284.451 311.541 284.273 311.441 284.096C311.225 283.751 310.984 283.414 310.699 283.116C310.454 282.863 310.163 282.663 309.916 282.421C309.224 281.756 308.147 281.785 307.315 282.067C306.365 282.388 305.596 283.048 305.267 284.022C305.124 284.458 305.102 284.965 305.302 285.392C305.153 285.535 304.995 285.664 304.858 285.808C304.395 286.33 304.008 286.964 304.007 287.683C304.003 288.291 304.379 288.751 304.881 289.065C305.34 289.346 305.89 289.4 306.418 289.438C306.684 289.452 306.954 289.441 307.216 289.405C307.519 289.803 308.119 289.916 308.63 289.792C309.283 289.623 310.012 289.114 310.064 288.381C310.383 288.173 310.685 287.925 310.959 287.635C311.356 287.21 311.734 286.624 311.809 286.029C311.885 285.495 311.857 285.185 311.701 284.656Z" fill="#FFF9B2" fill-opacity="0.2"/>
<path d="M257.962 340.794C257.865 339.107 257.044 337.443 255.914 336.195C254.786 334.936 253.232 334.328 251.576 334.261C249.884 334.187 248.181 334.89 246.8 335.825C245.586 336.644 244.537 337.824 243.822 339.102C243.16 340.294 242.732 341.663 242.791 343.038C242.841 344.326 243.444 345.657 244.447 346.479C246.135 347.868 248.417 348.43 250.523 348.046C251.061 348.037 251.607 347.981 252.116 347.869C255.321 347.143 258.17 344.231 257.96 340.806L257.962 340.794ZM250.618 342.997C250.543 343.141 250.465 343.297 250.377 343.439C250.361 343.46 250.333 343.479 250.317 343.5C250.293 343.496 250.258 343.489 250.234 343.485C250.068 343.332 249.918 343.158 249.77 342.971C249.641 342.752 249.523 342.535 249.42 342.309C249.42 342.309 249.42 342.309 249.431 342.311C249.847 342.499 250.294 342.583 250.761 342.561C250.735 342.702 250.671 342.848 250.621 342.985L250.618 342.997Z" fill="#FFF9B2" fill-opacity="0.2"/>
<path d="M293.888 305.259C293.868 305.17 293.848 305.081 293.817 304.99C293.787 304.887 293.772 304.775 293.731 304.67C293.733 304.658 293.723 304.644 293.714 304.63C293.628 304.504 293.53 304.376 293.444 304.25C293.382 304.19 293.318 304.141 293.24 304.102C293.117 303.982 292.97 303.918 292.806 303.887C292.65 303.809 292.473 303.776 292.3 303.792C291.987 303.77 291.757 303.763 291.425 303.847C291.361 303.86 291.294 303.896 291.228 303.92C291.205 303.915 291.181 303.911 291.158 303.907C290.975 303.909 290.801 303.925 290.635 303.967C290.422 304 290.206 304.045 290.007 304.129C289.94 304.165 289.858 304.211 289.791 304.247C289.629 304.326 289.466 304.417 289.31 304.534C288.868 304.878 288.402 305.35 288.282 305.925C288.265 306.08 288.248 306.235 288.229 306.402C288.074 306.775 287.96 307.119 287.979 307.537C287.973 307.572 287.988 307.623 287.993 307.661C288.023 307.825 288.063 308.003 288.118 308.159C288.201 308.37 288.349 308.556 288.499 308.73C288.806 309.104 289.241 309.381 289.646 309.627C289.794 309.68 289.931 309.73 290.079 309.782L290.571 309.825C290.746 309.798 290.92 309.781 291.096 309.753C291.386 309.698 291.639 309.587 291.888 309.427C292.061 309.35 292.203 309.243 292.337 309.109C292.477 309.014 292.598 308.89 292.687 308.737C292.794 308.623 292.87 308.479 292.922 308.33C293.021 308.129 293.072 307.92 293.041 307.695C293.046 307.476 293.071 307.274 293.088 307.058C293.255 306.882 293.412 306.692 293.525 306.482C293.545 306.437 293.564 306.404 293.584 306.359C293.648 306.213 293.767 305.967 293.808 305.817C293.829 305.638 293.848 305.471 293.858 305.29L293.888 305.259Z" fill="#FFF9B2" fill-opacity="0.2"/>
<path d="M289.545 260.901C289.528 260.728 289.468 260.595 289.345 260.474C289.227 260.257 289.051 260.09 288.803 259.983C288.643 259.928 288.471 259.871 288.299 259.815C287.911 259.742 287.507 259.751 287.125 259.838C286.641 259.954 286.168 260.134 285.694 260.325C285.549 260.383 285.39 260.45 285.245 260.509C285.033 260.603 284.825 260.734 284.62 260.854C284.525 260.909 284.429 260.964 284.345 261.022C284.317 261.041 284.289 261.06 284.261 261.079C284.289 261.06 284.315 261.053 284.343 261.033C284.259 261.091 284.166 261.134 284.094 261.194C284.038 261.232 283.991 261.284 283.936 261.322C283.88 261.361 283.836 261.401 283.782 261.428C283.598 261.564 283.474 261.638 283.275 261.856C283.029 262.127 282.852 262.422 282.748 262.78C282.732 262.936 282.712 263.102 282.707 263.26C282.71 263.504 282.79 263.726 282.952 263.903C282.986 263.982 283.05 264.031 283.1 264.089C283.1 264.089 283.1 264.089 283.088 264.086C283.098 264.1 283.119 264.117 283.14 264.133C283.171 264.163 283.214 264.195 283.256 264.228C283.32 264.276 283.396 264.327 283.474 264.366C283.795 264.536 284.151 264.59 284.519 264.574C284.604 264.578 284.679 264.568 284.765 264.56C285.024 264.608 285.29 264.621 285.553 264.646C285.777 264.688 285.993 264.705 286.222 264.65C286.469 264.636 286.7 264.569 286.929 264.454C287.153 264.362 287.363 264.219 287.542 264.045C287.725 263.909 287.867 263.741 287.977 263.542C288.032 263.443 288.078 263.33 288.112 263.214C288.354 263.089 288.587 262.95 288.782 262.756C289.01 262.579 289.198 262.359 289.345 262.094C289.411 261.936 289.48 261.766 289.546 261.608C289.63 261.356 289.625 261.123 289.535 260.887L289.545 260.901Z" fill="#FFF9B2" fill-opacity="0.2"/>
<path d="M353.91 120.549C349.42 118.512 343.752 118.728 340.367 122.489C339.704 122.84 339.104 123.312 338.58 123.896C335.791 127.075 335.749 131.976 336.903 135.822C337.489 137.759 338.543 139.674 340.096 141.001C341.944 142.578 344.331 143.294 346.756 143.03C350.186 142.663 353.444 140.948 356.071 138.761C358.352 136.863 360.508 134.393 360.934 131.343C361.612 126.501 358.107 122.457 353.898 120.547L353.91 120.549Z" fill="#FFF9B2" fill-opacity="0.2"/>
<path d="M326.55 322.424C326.17 321.207 325.189 320.268 324.113 319.64C322.531 318.722 320.596 318.456 318.725 318.556C316.842 317.106 314.678 316.237 312.154 317.225C310.077 318.041 308.308 320.133 307.824 322.32C307.47 323.947 307.756 325.669 308.555 327.122C310.161 330.054 313.353 332.322 316.672 332.811C318.854 333.123 320.972 332.741 322.858 331.584C324.648 330.483 325.718 328.674 326.409 326.745C326.904 325.34 327.025 323.853 326.576 322.416L326.55 322.424Z" fill="#FFF9B2" fill-opacity="0.2"/>
<path d="M220.708 70.7538C220.634 70.1067 220.489 69.3853 220.133 68.819C219.937 68.502 219.712 68.1431 219.415 67.9048C218.931 67.4973 218.516 67.3097 217.917 67.1243C217.295 66.9345 216.647 66.9469 216.005 67.0578C215.796 67.0063 215.57 66.9761 215.361 66.9857C215.361 66.9857 215.349 66.9834 215.338 66.9812C215.326 66.979 215.314 66.9768 215.302 66.9746C215.302 66.9746 215.279 66.9702 215.267 66.968C215.182 66.9643 215.206 66.9687 215.267 66.968C215.168 66.9739 215.07 66.9797 214.981 66.9996C214.88 67.0172 214.782 67.0231 214.681 67.0407C214.159 67.162 213.717 67.3715 213.272 67.6655C212.69 68.0434 212.262 68.5721 211.865 69.1309C211.077 69.8235 210.337 70.5859 209.888 71.5492C209.481 72.4228 209.29 73.1787 209.245 74.1325C209.215 74.748 209.352 75.3826 209.572 75.9599C209.523 76.3526 209.497 76.7497 209.471 77.1468C209.423 78.38 209.562 79.6485 210.323 80.6561C210.831 81.3239 211.733 81.5785 212.537 81.583C213.607 81.5891 214.607 81.1311 215.492 80.5665C216.268 80.0665 216.946 79.3776 217.55 78.6872C217.891 78.3005 218.212 77.8858 218.52 77.4806C219.021 76.8196 219.521 76.1704 219.859 75.4056C220.511 73.9445 220.91 72.3386 220.738 70.7229L220.708 70.7538Z" fill="#FFF9B2" fill-opacity="0.2"/>
<path d="M213.003 97.2729C213.003 97.2729 212.978 97.2075 212.973 97.17C212.931 96.9427 212.912 96.7199 212.93 96.492C212.939 96.4449 212.945 96.4096 212.943 96.3603C212.956 96.2897 212.932 96.2243 212.896 96.1566C212.896 96.1566 212.9 96.1331 212.888 96.1309C212.868 96.0419 212.851 95.9412 212.845 95.8426L212.761 95.5102C212.696 95.3396 212.584 95.2212 212.43 95.1315C212.338 95.041 212.236 94.9976 212.118 94.9755C211.939 94.8931 211.748 94.8696 211.551 94.8813C211.256 94.8989 210.963 94.9658 210.685 95.0841C210.473 95.1782 210.291 95.3025 210.128 95.4546C209.958 95.5811 209.831 95.7399 209.725 95.9149C209.58 96.1679 209.469 96.4392 209.38 96.7149C209.376 96.7385 209.371 96.762 209.367 96.7855C209.354 96.8561 209.317 97.1172 209.327 97.1922C209.321 97.2275 209.337 97.2672 209.343 97.3047C209.38 97.4944 209.429 97.6864 209.481 97.8666C209.598 98.2784 209.837 98.6277 210.09 98.9675C210.223 99.1021 210.377 99.1918 210.554 99.225C210.733 99.3073 210.923 99.3309 211.132 99.3214C211.282 99.3008 211.418 99.2898 211.557 99.267C211.784 99.2244 211.996 99.1303 212.19 99.0083C212.323 98.948 212.449 98.862 212.555 98.748C212.725 98.6216 212.853 98.4627 212.958 98.2877C213.004 98.1745 213.05 98.0613 213.095 97.948C213.151 97.7149 213.144 97.4943 213.052 97.27L213.003 97.2729Z" fill="#FFF9B2" fill-opacity="0.2"/>
<path d="M179.705 133.215C177.618 132.13 175.122 132.648 173.08 133.531C172.949 133.58 172.826 133.654 172.706 133.705C172.447 133.79 172.187 133.875 171.935 133.986C168.69 135.375 166.053 138.656 165.75 142.216C165.395 146.51 169.766 148.853 173.501 149.006C173.72 149.01 173.938 149.015 174.147 149.005C174.588 149.124 175.025 149.194 175.49 149.184C177.828 149.184 179.729 147.69 180.594 145.611C181.455 144.53 182.106 143.264 182.461 141.893C183.235 138.872 182.755 134.811 179.705 133.215Z" fill="#FFF9B2" fill-opacity="0.2"/>
<path d="M176.103 136.961C176.157 136.995 176.212 137.03 176.247 137.036C176.19 137.014 176.159 136.984 176.103 136.961C176.126 136.965 176.126 136.965 176.103 136.961C176.091 136.959 176.067 136.954 176.056 136.952C176.056 136.952 176.032 136.947 176.02 136.945C175.997 136.941 175.962 136.934 175.938 136.93C175.903 136.923 175.856 136.914 175.806 136.917C175.959 136.946 176.042 136.961 176.089 136.97L176.103 136.961Z" fill="#FFF9B2" fill-opacity="0.2"/>
<path d="M207.841 154.439C207.797 154.285 207.763 154.144 207.719 153.99C207.64 153.89 207.575 153.78 207.497 153.68L207.175 153.449C207.05 153.401 206.911 153.363 206.774 153.313C206.538 153.269 206.308 153.262 206.081 153.305C205.91 153.309 205.743 153.351 205.596 153.421C205.43 153.463 205.271 153.53 205.118 153.636C204.959 153.703 204.819 153.799 204.71 153.924C204.524 154.072 204.371 154.238 204.259 154.449C204.155 154.612 204.049 154.787 203.943 154.962C203.782 155.236 203.703 155.526 203.716 155.845C203.732 156.152 203.855 156.407 204.071 156.618C204.299 156.831 204.566 156.967 204.883 157.026C205.142 157.075 205.408 157.088 205.661 157.038C205.944 157.018 206.225 156.949 206.494 156.817C206.839 156.663 207.149 156.441 207.42 156.163C207.65 155.913 207.811 155.639 207.908 155.316C207.987 155.027 207.969 154.731 207.851 154.453L207.841 154.439Z" fill="#FFF9B2" fill-opacity="0.2"/>
<path d="M303.219 73.2784C302.359 72.4715 301.272 72.0971 300.132 71.9439C299.473 71.4305 298.625 71.2105 297.819 71.1567C296.038 71.0417 294.354 72.029 293.108 73.2201C292.024 74.259 291.232 75.8157 290.888 77.2614C290.722 77.9489 290.642 78.7012 290.702 79.4189C290.79 80.3124 291.085 81.0132 291.608 81.7325C292.672 83.199 294.751 83.6134 296.449 83.518C298.026 83.4242 299.418 83.0155 300.768 82.1848C301.842 81.5216 302.732 80.5437 303.394 79.4864C304.541 77.6555 304.955 74.9318 303.214 73.3019L303.219 73.2784Z" fill="#FFF9B2" fill-opacity="0.2"/>
<path d="M275.229 38.9402C274.252 38.7569 273.089 39.245 272.606 40.1289C272.163 40.9348 272.537 41.8577 273.479 42.0343C274.42 42.211 275.619 41.7295 276.101 40.8457C276.545 40.0398 276.17 39.1168 275.229 38.9402Z" fill="#FFF9B2" fill-opacity="0.2"/>
<path d="M312.309 148.161C312.297 147.769 312.194 147.348 311.988 147.017C311.334 145.895 310.229 145.42 309.049 145.345C308.944 145.191 308.841 145.026 308.722 144.881C308.455 144.551 307.913 144.522 307.526 144.572C307.038 144.638 306.536 144.849 306.209 145.226C306.006 145.468 305.821 145.738 305.646 146.021C305.62 146.029 305.592 146.048 305.578 146.057C304.735 146.46 303.898 147.155 303.67 148.111C303.469 148.926 303.816 149.734 304.575 150.108C304.731 150.186 304.882 150.287 305.033 150.389C305.086 150.435 305.152 150.472 305.204 150.518C305.494 151.243 305.981 151.894 306.611 152.366C307.028 152.675 307.453 152.877 307.995 152.845C308.61 152.814 309.173 152.603 309.688 152.261C310.576 151.685 311.477 150.843 311.895 149.849C312.135 149.285 312.3 148.793 312.286 148.157L312.309 148.161Z" fill="#FFF9B2" fill-opacity="0.2"/>
<path d="M265.155 202.964C265.121 201.131 264.418 199.233 263.33 197.762C261.244 194.922 257.337 195.553 254.775 197.326C254.508 197.519 254.24 197.713 253.977 197.943C252.01 198.11 250.061 198.889 248.7 200.363C247.416 201.755 246.814 203.663 247.071 205.539C248.098 213.307 259.283 213.092 263.351 208.033C264.526 206.573 265.201 204.861 265.155 202.964Z" fill="#FFF9B2" fill-opacity="0.2"/>
<path d="M240.473 250.304C240.473 250.304 240.525 249.9 240.519 249.862C240.519 249.862 240.522 249.85 240.524 249.839C240.489 249.698 240.453 249.569 240.418 249.429C240.336 249.219 240.195 249.058 239.997 248.948C239.883 248.841 239.748 248.779 239.595 248.751C239.371 248.648 239.133 248.615 238.875 248.628C238.814 248.629 238.763 248.643 238.711 248.658C238.688 248.654 238.669 248.626 238.647 248.609C238.564 248.533 238.465 248.478 238.347 248.456C238.177 248.387 237.989 248.352 237.806 248.354C237.522 248.374 237.241 248.443 236.977 248.552C236.779 248.636 236.599 248.749 236.434 248.913C236.279 249.03 236.154 249.177 236.059 249.354C236.041 249.387 236.025 249.408 235.995 249.439C235.949 249.552 235.903 249.666 235.858 249.779C235.851 249.814 235.847 249.838 235.84 249.873C235.829 249.932 235.806 249.989 235.783 250.045C235.766 250.139 235.725 250.229 235.707 250.323C235.662 250.497 235.641 250.676 235.622 250.843C235.608 250.914 235.597 250.972 235.596 251.045C235.591 251.069 235.585 251.104 235.58 251.128C235.585 251.104 235.589 251.08 235.594 251.057C235.578 251.139 235.588 251.214 235.596 251.301C235.597 251.362 235.608 251.437 235.62 251.5C235.636 251.674 235.666 251.838 235.694 252.014C235.716 252.286 235.818 252.524 236.013 252.719C236.167 252.87 236.342 252.976 236.54 253.025C236.754 253.114 236.966 253.154 237.201 253.137C237.544 253.128 237.888 253.047 238.208 252.899C238.418 252.817 238.637 252.688 238.811 252.538C238.842 252.507 238.884 252.478 238.914 252.447C239.003 252.428 239.094 252.396 239.176 252.35C239.43 252.228 239.656 252.063 239.834 251.828C239.949 251.667 240.062 251.457 240.054 251.236C240.135 251.13 240.232 251.002 240.267 250.947C240.306 250.869 240.422 250.575 240.449 250.494C240.449 250.494 240.454 250.471 240.456 250.459C240.463 250.424 240.469 250.389 240.474 250.365C240.476 250.353 240.478 250.342 240.48 250.33L240.473 250.304Z" fill="#FFF9B2" fill-opacity="0.2"/>
<path d="M342.103 226.369C342.397 225.839 342.434 225.188 341.973 224.724C341.524 224.262 340.725 224.173 340.133 224.342C339.824 224.431 339.524 224.533 339.235 224.649C339.169 224.673 339.116 224.7 339.062 224.726C339.034 224.745 339.008 224.753 338.969 224.769C338.873 224.825 338.777 224.88 338.682 224.935C338.577 224.976 338.481 225.031 338.395 225.1C338.223 225.238 337.976 225.448 337.856 225.572C337.534 225.925 337.493 226.076 337.315 226.505C337.288 226.585 337.258 226.677 337.231 226.758C337.169 227.026 337.193 227.286 337.285 227.511C337.285 227.511 337.28 227.534 337.278 227.546C337.278 227.546 337.276 227.558 337.274 227.569C337.236 227.769 337.222 227.974 337.208 228.178C337.208 228.373 337.276 228.532 337.395 228.676C337.486 228.839 337.621 228.962 337.791 229.031C338.171 229.212 338.618 229.235 339.025 229.14C339.241 229.096 339.444 229.049 339.662 228.992C340.121 228.883 340.53 228.716 340.931 228.463C341.362 228.178 341.725 227.735 341.858 227.224C341.873 227.141 341.886 227.071 341.902 226.988C341.926 226.859 341.948 226.741 341.984 226.614C342.025 226.524 342.064 226.447 342.105 226.357L342.103 226.369Z" fill="#FFF9B2" fill-opacity="0.2"/>
<path d="M382.363 214.862C382.339 214.663 382.271 214.443 382.21 214.249C382.193 214.209 382.176 214.169 382.171 214.132C382.046 213.889 381.87 213.661 381.714 213.449C381.492 213.14 381.254 212.851 381.032 212.542C380.733 212.254 380.376 212.078 379.976 212.003C379.517 211.917 379.052 211.927 378.594 212.036C377.868 212.204 377.084 212.617 376.581 213.217C376.57 213.215 376.544 213.222 376.53 213.232C376.077 213.439 375.683 213.718 375.359 214.084C375.069 214.395 374.953 214.69 374.807 215.076C374.782 215.145 374.767 215.227 374.754 215.298C374.698 215.592 374.662 215.914 374.727 216.218C374.799 216.549 374.871 216.879 375.008 217.185C375.329 217.878 375.843 218.45 376.436 218.926C376.704 219.184 377.028 219.342 377.392 219.41C377.698 219.468 378.013 219.478 378.315 219.425C378.66 219.405 378.981 219.319 379.291 219.158C379.704 218.967 380.07 218.707 380.376 218.375C380.906 217.695 381.534 217.07 381.988 216.339C382.007 216.306 382.027 216.261 382.046 216.228C382.144 216.027 382.247 215.803 382.299 215.593C382.366 215.362 382.391 215.099 382.377 214.853L382.363 214.862Z" fill="#FFF9B2" fill-opacity="0.2"/>
<path d="M362.856 278.763C362.599 277.923 362.103 277.063 361.427 276.51C360.266 275.561 358.882 275.277 357.409 275.464C356.148 275.629 354.872 276.132 353.825 276.91C351.73 277.041 349.75 278.435 348.65 280.275C348.012 281.337 347.589 282.683 347.818 283.931C348.039 285.154 348.565 286.179 349.403 287.103C350.987 288.85 353.547 289.878 355.9 289.735C357.428 289.644 359 289.184 360.226 288.233C361.38 287.341 362.128 286.215 362.659 284.877C363.422 282.95 363.459 280.74 362.868 278.766L362.856 278.763Z" fill="#FFF9B2" fill-opacity="0.2"/>
</g>
<g opacity="0.5">
<path d="M351.938 167.576C351.504 166.74 350.791 163.876 345.857 163.876H305.598L300.717 234.077H358.566C361.107 234.077 362.67 233.022 362.67 230.108C362.67 230.108 362.792 207.45 362.792 199.068C362.792 196.155 362.628 195.301 361.896 192.878C358.851 182.794 351.938 167.579 351.938 167.579V167.576Z" fill="#2ABAA4"/>
<path d="M348.332 171.141C347.968 170.409 347.372 167.897 343.244 167.897H309.545L309.375 229.398H353.885C356.01 229.398 357.318 228.471 357.318 225.922C357.318 225.922 357.418 206.073 357.418 198.729C357.418 196.18 357.282 195.43 356.671 193.309C354.121 184.474 348.335 171.144 348.335 171.144L348.332 171.141Z" fill="#00A691"/>
<path d="M353.235 199.292C353.229 197.079 353.11 196.382 352.615 194.487C350.512 186.457 345.736 174.339 345.736 174.339C345.435 173.675 344.941 171.392 341.534 171.392H313.704L313.634 199.292H353.235Z" fill="#7AD0E7"/>
<path d="M303.668 229.166C303.373 233.456 300.474 236.52 296.53 236.52H185.018C181.078 236.52 178.178 233.456 177.881 229.166L172.328 158.064C172.328 154 175.522 150.708 179.466 150.708H300.793C304.733 150.708 307.927 154 307.927 158.064L303.664 229.169L303.668 229.166Z" fill="#FFCD28"/>
<path d="M200.86 215.178C200.86 218.424 198.249 221.056 195.031 221.056H192.988C189.769 221.056 187.162 218.427 187.162 215.178V175.798C187.162 172.555 189.769 169.923 192.988 169.923H195.031C198.249 169.923 200.86 172.555 200.86 175.798V215.174V215.178Z" fill="#F9A133"/>
<path d="M230.302 215.178C230.302 218.424 227.694 221.056 224.47 221.056H222.433C219.212 221.056 216.601 218.427 216.601 215.178V175.798C216.601 172.555 219.209 169.923 222.433 169.923H224.47C227.691 169.923 230.302 172.555 230.302 175.798V215.174V215.178Z" fill="#F9A133"/>
<path d="M262.224 215.178C262.224 218.424 259.617 221.056 256.395 221.056H254.355C251.134 221.056 248.523 218.427 248.523 215.178V175.798C248.523 172.555 251.134 169.923 254.355 169.923H256.395C259.617 169.923 262.224 172.555 262.224 175.798V215.174V215.178Z" fill="#F9A133"/>
<path d="M292.395 215.178C292.395 218.424 289.781 221.056 286.563 221.056H284.523C281.302 221.056 278.694 218.427 278.694 215.178V175.798C278.694 172.555 281.302 169.923 284.523 169.923H286.563C289.781 169.923 292.395 172.555 292.395 175.798V215.174V215.178Z" fill="#F9A133"/>
<g style="mix-blend-mode:multiply">
<path d="M301.512 214.85C292.419 214.871 283.351 215.719 274.271 216.08C261.96 216.573 249.99 215.976 237.804 213.972C224.631 211.802 211.625 205.89 202.001 196.44C190.04 184.691 184.663 168.175 184.657 151.604C184.657 151.304 184.672 151.008 184.681 150.708H179.466C175.522 150.708 172.328 154 172.328 158.064L177.881 229.169C178.178 233.459 181.078 236.523 185.018 236.523H296.53C300.471 236.523 303.373 233.459 303.668 229.169L304.539 214.688C303.54 214.792 302.532 214.85 301.512 214.853V214.85Z" fill="#FCDCCD"/>
</g>
<path d="M311.479 155.433C311.479 158.817 308.756 161.562 305.398 161.562H174.356C170.995 161.562 168.272 158.817 168.272 155.433V152.675C168.272 149.288 170.995 146.546 174.356 146.546H305.401C308.759 146.546 311.482 149.288 311.482 152.675V155.433H311.479Z" fill="#F9A133"/>
<g style="mix-blend-mode:multiply">
<path d="M308.488 157.137H223.35C211.425 157.027 186.901 159.995 177.762 146.546H174.356C170.995 146.546 168.272 149.288 168.272 152.675V155.433C168.272 158.817 170.995 161.562 174.353 161.562H305.398C308.306 161.562 310.732 159.503 311.33 156.755C310.419 156.993 309.466 157.137 308.488 157.137Z" fill="#F5E1D8"/>
</g>
<g style="mix-blend-mode:soft-light">
<path d="M272.932 164.873C272.932 164.873 290.813 163.273 297.693 177.509C303.813 190.175 299.153 191.908 295.464 189.423C291.773 186.935 288.822 182.959 282.765 182.259C276.709 181.555 275.081 183.094 272.134 176.637C269.189 170.183 264.778 165.758 272.935 164.873H272.932Z" fill="#EBE0D8"/>
</g>
<path d="M365.788 229.355H168.175V239.301H365.788V229.355Z" fill="#242E63"/>
<g style="mix-blend-mode:multiply">
<path d="M365.788 234.478H168.175V239.301H365.788V234.478Z" fill="#3F8AB6"/>
</g>
<path d="M224.658 240.284C224.658 251.132 215.93 259.93 205.171 259.93C194.411 259.93 185.677 251.132 185.677 240.284C185.677 229.435 194.405 220.637 205.171 220.637C215.936 220.637 224.658 229.432 224.658 240.284Z" fill="#141A49"/>
<path d="M216.944 240.284C216.944 246.835 211.67 252.148 205.174 252.148C198.677 252.148 193.4 246.835 193.4 240.284C193.4 233.732 198.674 228.419 205.174 228.419C211.673 228.419 216.944 233.732 216.944 240.284Z" fill="#7AD0E7"/>
<g style="mix-blend-mode:multiply">
<path d="M205.171 224.425C196.461 224.425 189.402 231.54 189.402 240.317C189.402 249.094 196.461 256.212 205.171 256.212C213.881 256.212 220.933 249.097 220.933 240.317C220.933 231.537 213.878 224.425 205.171 224.425ZM205.171 249.917C199.913 249.917 195.647 245.621 195.647 240.317C195.647 235.014 199.913 230.72 205.171 230.72C210.429 230.72 214.691 235.017 214.691 240.317C214.691 245.618 210.429 249.917 205.171 249.917Z" fill="#A6B2C4"/>
</g>
<path d="M352.318 240.284C352.318 251.132 343.593 259.93 332.827 259.93C322.062 259.93 313.34 251.132 313.34 240.284C313.34 229.435 322.065 220.637 332.827 220.637C343.59 220.637 352.318 229.432 352.318 240.284Z" fill="#141A49"/>
<path d="M344.14 243.574C345.942 237.278 342.339 230.702 336.093 228.886C329.847 227.07 323.323 230.702 321.522 236.998C319.72 243.294 323.323 249.87 329.569 251.686C335.815 253.502 342.338 249.87 344.14 243.574Z" fill="#7AD0E7"/>
<g style="mix-blend-mode:multiply">
<path d="M332.827 224.425C324.12 224.425 317.062 231.54 317.062 240.317C317.062 249.094 324.12 256.212 332.827 256.212C341.534 256.212 348.593 249.097 348.593 240.317C348.593 231.537 341.534 224.425 332.827 224.425ZM332.827 249.917C327.572 249.917 323.307 245.621 323.307 240.317C323.307 235.014 327.569 230.72 332.827 230.72C338.086 230.72 342.348 235.017 342.348 240.317C342.348 245.618 338.086 249.917 332.827 249.917Z" fill="#A6B2C4"/>
</g>
</g>
<path d="M316.657 145.487C316.39 145.853 315.897 145.98 315.545 145.628C313.193 143.262 311.094 140.684 309.094 138.022C301.982 128.544 296.024 117.305 285.94 110.573C281.038 117.699 276.489 125.051 272.377 132.656C272.18 133.023 271.546 133.149 271.264 132.797C267.743 128.361 265.011 123.403 262.124 118.558C260.771 116.291 259.377 114.037 257.828 111.896C256.504 121.488 255.391 130.825 254.49 134.741C254.307 135.558 254.096 136.361 253.87 137.149C253.405 138.825 252.842 140.459 252.18 142.079C252.11 142.248 252.039 142.431 251.969 142.614C251.856 142.867 251.744 143.121 251.631 143.374C251.518 143.614 251.406 143.867 251.293 144.107C251.194 144.318 251.082 144.543 250.983 144.755C250.828 145.05 250.673 145.346 250.518 145.642C250.434 145.811 250.335 145.98 250.251 146.149C249.997 146.614 249.729 147.064 249.448 147.515C249.222 147.881 248.673 148.022 248.335 147.698C247.321 146.741 246.321 145.769 245.335 144.769C238.082 137.473 231.744 129.29 226.167 120.741C225.336 125.431 226.082 130.234 225.308 134.952C225.209 135.501 224.505 135.6 224.125 135.304C218.35 130.882 214.252 124.797 209.336 119.544C207.505 129.361 209.407 139.698 205.674 149.191C205.534 149.543 205.224 149.797 204.815 149.712C199.506 148.515 194.886 145.234 190.787 141.896C187.731 139.403 184.872 136.699 182.041 133.952C180.999 132.938 179.943 131.91 178.9 130.896C178.746 131.403 178.619 131.924 178.506 132.445C178.408 132.882 178.309 133.332 178.21 133.769C177.408 137.67 176.985 141.642 175.365 145.332C175.21 145.67 174.717 145.783 174.394 145.628C167.661 142.093 163.408 135.586 158.394 130.164C156.619 142.684 151.605 168.331 151.169 168.092C135.676 159.571 127.733 143.093 115.775 130.966C112.775 134.53 114.128 139.867 113.423 144.121C113.339 144.642 112.606 144.811 112.24 144.473C108.226 140.727 104.325 136.811 100.973 132.501C99.1421 139.642 98.6491 147.064 96.1703 154.078C96.0295 154.459 95.5506 154.797 95.1422 154.529C87.917 149.881 83.6354 142.431 77.2413 136.938C75.5652 143.248 74.6498 149.698 73.5794 156.121C73.4667 156.797 73.354 157.473 73.2273 158.149C73.1991 158.29 73.1709 158.444 73.1428 158.585C73.0442 159.149 72.9456 159.726 72.8329 160.289C72.7907 160.515 72.7484 160.754 72.7062 160.98C72.6076 161.473 72.509 161.98 72.4104 162.472C72.3541 162.754 72.2836 163.05 72.2273 163.332C72.1287 163.782 72.0442 164.219 71.9456 164.67C71.8752 165.008 71.7907 165.332 71.7203 165.67C71.6217 166.064 71.5372 166.472 71.4386 166.867C71.34 167.247 71.2414 167.627 71.1428 168.008C71.0442 168.36 70.9597 168.712 70.8611 169.064C70.7344 169.515 70.5935 169.965 70.4668 170.416C70.3823 170.698 70.3119 170.965 70.2274 171.247C70.002 171.979 69.7626 172.698 69.5091 173.416C69.3401 173.895 68.7485 174.148 68.326 173.768C62.467 168.613 57.6502 162.487 53.0729 156.247C51.8053 154.529 50.5659 152.797 49.3124 151.078C48.8195 150.388 48.3125 149.698 47.8054 149.008C46.721 158.261 48.0871 167.81 49.3265 176.951C50.0448 182.218 50.7209 187.472 51.7631 192.683C52.4673 196.218 53.2842 199.725 54.2278 203.19C56.4813 207.654 58.9319 211.964 61.5656 216.133C62.8754 218.203 64.2275 220.246 65.6359 222.246C76.1286 237.217 89.0015 249.991 103.466 260.104C108.283 263.47 113.283 266.54 118.437 269.301C120.494 270.399 122.578 271.455 124.677 272.469C126.775 273.469 128.902 274.427 131.043 275.329C133.183 276.23 135.352 277.075 137.535 277.878C146.268 281.061 155.281 283.385 164.464 284.793C165.605 284.962 166.76 285.131 167.915 285.286C174.83 286.173 181.83 286.525 188.872 286.342C190.041 286.314 191.224 286.258 192.393 286.202C195.914 286.018 199.449 285.694 202.97 285.216C210.026 284.286 217.083 282.779 224.096 280.666C235.138 277.357 245.42 272.737 254.87 267.019C255.941 266.371 257.011 265.709 258.053 265.033C261.053 263.104 263.969 261.061 266.785 258.906C267.518 258.343 268.25 257.78 268.982 257.202C303.869 229.428 323.826 185.106 322.037 138.051C320.277 140.558 318.474 143.036 316.671 145.515L316.657 145.487Z" fill="#9B9D97"/>
<path d="M317.713 127.755C315.826 132.29 314.305 136.952 312.784 141.614C309.686 151.092 306.643 160.74 301.517 169.374C301.221 169.867 300.601 169.796 300.291 169.374C292.883 159.036 288.827 146.825 282.25 136.008C277.841 143.248 275.982 151.797 270.532 158.458C270.222 158.839 269.658 158.641 269.419 158.318C265.025 152.191 262.363 145.093 258.532 138.642C256.631 143.853 254.096 148.811 251.405 153.656C251.166 154.092 250.42 154.135 250.18 153.656C248.265 149.712 247.955 144.093 244.082 141.487C236.35 156.839 233.702 175.289 221.575 188.162C221.223 188.528 220.73 188.359 220.463 188.021C212.505 177.683 208.956 164.923 203.59 153.205C200.449 159.965 198.351 167.585 193.027 173.021C192.773 173.275 192.266 173.317 192.027 173.021C188.745 169.106 187.14 164.205 184.435 159.937C181.886 164.754 179.407 169.599 176.45 174.19C173.563 178.655 170.168 183.218 165.506 185.951C165.14 186.162 164.774 185.993 164.535 185.697C158.225 177.514 156.971 166.852 152.352 157.796C149.267 164.374 147.183 171.528 143.028 177.542C142.746 177.937 142.056 178.049 141.803 177.542C139.676 173.176 138.958 168.247 136.803 163.909C133.69 175.261 129.493 186.444 123.803 196.767C123.578 197.19 123.029 197.204 122.691 196.908C119.212 193.781 116.451 189.979 114.156 185.922C109.846 178.275 107.071 169.881 103.818 161.768C100.776 154.163 97.2688 146.388 91.3816 140.543C87.7057 148.839 83.0157 156.642 78.9454 164.74C78.6919 165.247 78.0017 165.148 77.7201 164.74C74.706 160.134 72.861 154.867 69.8329 150.275C67.5091 157.853 64.312 165.12 62.1148 172.726C61.9458 173.289 61.1149 173.444 60.8191 172.895C55.8897 163.909 51.6503 154.599 47.2279 145.36C46.411 152.881 45.9885 160.148 45.9885 167.064C45.9885 251.315 108.578 319.609 185.788 319.609C262.997 319.609 325.587 251.315 325.587 167.064C325.587 152.923 323.826 137.304 320.516 121.079C319.544 123.304 318.573 125.53 317.643 127.783L317.713 127.755Z" fill="#33BDE4"/>
<path d="M87.903 165.05C87.903 164.937 87.9311 164.825 87.9311 164.698C87.9452 164.501 87.903 164.332 87.7903 164.163C87.7058 163.895 87.5368 163.684 87.2833 163.529C86.7199 163.163 86.0579 163.12 85.4242 163.247C85.3537 163.219 85.2833 163.205 85.2129 163.177C85.0016 163.149 84.7763 163.106 84.5509 163.078C84.1707 163.078 83.8186 163.135 83.4665 163.261C82.8327 163.458 82.1989 163.825 81.7623 164.318C81.4384 164.684 81.1567 165.106 80.9736 165.571C80.8468 165.881 80.8046 166.205 80.8609 166.529C80.8609 166.839 80.9454 167.134 81.1426 167.388C81.2693 167.613 81.4384 167.796 81.6074 167.979C81.6074 168.247 81.6215 168.515 81.6778 168.81C81.7623 169.332 81.9313 169.853 82.1144 170.346C82.3397 170.937 82.7341 171.275 83.3538 171.36C84.0298 171.458 84.7763 171.261 85.3256 170.839C86.1425 170.191 86.8467 169.529 87.4523 168.67C87.8889 168.05 88.2551 167.219 88.241 166.458C88.241 165.881 88.1424 165.529 87.8748 165.022L87.903 165.05Z" fill="#FFF9B2" fill-opacity="0.3"/>
<path d="M123.86 196.753C123.634 197.176 123.085 197.19 122.747 196.894C119.902 194.331 117.536 191.317 115.508 188.078C111.029 188.627 106.635 191.43 104.297 195.105C102.719 197.584 102.114 200.612 102.79 203.429C102.79 205.021 103.17 206.584 104.057 208.007C105.508 210.316 108.198 211.598 110.804 212.063C115.071 212.809 119.142 210.922 122.198 208.021C124.93 205.429 127.029 201.542 126.986 197.711C126.972 196.091 126.578 194.472 125.846 193.021C125.212 194.275 124.55 195.528 123.874 196.753H123.86Z" fill="#FFF9B2" fill-opacity="0.3"/>
<path d="M108.226 227.33C108.128 227.133 108.001 226.978 107.846 226.809C107.564 226.499 107.255 226.203 106.903 225.95C106.607 225.739 106.269 225.584 105.973 225.386C105.142 224.851 104.058 225.077 103.255 225.527C102.353 226.034 101.691 226.851 101.551 227.908C101.48 228.372 101.565 228.893 101.846 229.288C101.72 229.457 101.579 229.612 101.48 229.795C101.114 230.415 100.832 231.133 100.973 231.865C101.086 232.485 101.565 232.879 102.128 233.105C102.649 233.302 103.227 233.259 103.762 233.189C104.029 233.161 104.311 233.09 104.565 233.006C104.945 233.358 105.579 233.358 106.072 233.133C106.705 232.837 107.339 232.175 107.255 231.429C107.536 231.147 107.804 230.851 108.015 230.499C108.339 229.992 108.607 229.316 108.579 228.71C108.55 228.147 108.466 227.837 108.212 227.344L108.226 227.33Z" fill="#FFF9B2" fill-opacity="0.3"/>
<path d="M159.239 268.456C158.817 266.752 157.662 265.23 156.282 264.174C154.901 263.118 153.197 262.78 151.493 263.033C149.761 263.287 148.155 264.315 146.93 265.54C145.859 266.611 145.014 268.005 144.535 269.442C144.085 270.78 143.916 272.258 144.24 273.639C144.549 274.934 145.395 276.174 146.578 276.822C148.563 277.92 150.986 278.047 153.056 277.258C153.606 277.146 154.141 276.991 154.634 276.765C157.76 275.413 160.084 271.92 159.239 268.47V268.456ZM152.197 272.103C152.155 272.272 152.099 272.427 152.042 272.596C152.028 272.625 152.014 272.653 152 272.667C151.972 272.667 151.944 272.667 151.915 272.667C151.718 272.54 151.535 272.385 151.352 272.23C151.183 272.033 151.014 271.836 150.859 271.611C150.859 271.611 150.859 271.611 150.873 271.611C151.324 271.723 151.803 271.723 152.268 271.611C152.268 271.765 152.225 271.92 152.211 272.075L152.197 272.103Z" fill="#FFF9B2" fill-opacity="0.3"/>
<path d="M94.0438 251.667C94.0157 251.583 93.9734 251.484 93.9312 251.4C93.8889 251.301 93.8466 251.189 93.7762 251.09C93.7762 251.09 93.7621 251.062 93.7481 251.048C93.6354 250.935 93.5227 250.822 93.396 250.71C93.3255 250.667 93.241 250.625 93.1565 250.597C93.0157 250.498 92.8467 250.456 92.6777 250.456C92.4946 250.414 92.3256 250.4 92.1425 250.456C91.8185 250.484 91.5791 250.527 91.2552 250.682C91.1988 250.71 91.1284 250.752 91.0721 250.794C91.0439 250.794 91.0157 250.794 91.0017 250.794C90.8186 250.822 90.6496 250.893 90.4805 250.963C90.2693 251.034 90.058 251.118 89.8749 251.259C89.8045 251.301 89.7482 251.358 89.6777 251.414C89.5228 251.527 89.382 251.653 89.2411 251.794C88.8468 252.231 88.4665 252.794 88.4665 253.4C88.4665 253.569 88.4947 253.724 88.5088 253.893C88.4102 254.301 88.3679 254.681 88.4665 255.09C88.4665 255.132 88.4947 255.174 88.5088 255.217C88.5792 255.372 88.6355 255.555 88.7341 255.695C88.8609 255.893 89.044 256.062 89.2271 256.202C89.6073 256.526 90.1144 256.724 90.565 256.893C90.72 256.921 90.8749 256.935 91.0298 256.963L91.5369 256.907C91.7059 256.85 91.889 256.794 92.058 256.738C92.3396 256.625 92.5791 256.47 92.7903 256.259C92.9453 256.146 93.072 256.005 93.1847 255.85C93.3115 255.724 93.396 255.569 93.4664 255.4C93.5509 255.259 93.6072 255.104 93.6213 254.935C93.6917 254.71 93.6917 254.484 93.6213 254.259C93.5931 254.034 93.565 253.822 93.5509 253.597C93.6917 253.386 93.8044 253.16 93.8889 252.935C93.903 252.893 93.9171 252.85 93.9312 252.794C93.9734 252.625 94.0438 252.372 94.0579 252.189C94.0438 252.005 94.0297 251.836 94.0157 251.653L94.0438 251.667Z" fill="#FFF9B2" fill-opacity="0.3"/>
<path d="M81.1708 207.401C81.1285 207.232 81.0299 207.105 80.8891 207.006C80.7201 206.809 80.5088 206.668 80.2553 206.612C80.0722 206.584 79.8891 206.556 79.7201 206.542C79.3117 206.542 78.9032 206.626 78.523 206.795C78.0441 207.006 77.6075 207.274 77.1709 207.556C77.03 207.64 76.8892 207.739 76.7484 207.837C76.5512 207.978 76.3681 208.147 76.185 208.302C76.1005 208.373 76.016 208.443 75.9315 208.527C75.9033 208.556 75.8751 208.57 75.847 208.598C75.8751 208.57 75.9033 208.556 75.9174 208.527C75.8329 208.598 75.7625 208.668 75.6921 208.739C75.6498 208.795 75.5935 208.851 75.5512 208.894C75.509 208.936 75.4667 208.992 75.4245 209.035C75.2554 209.204 75.1569 209.302 74.9878 209.57C74.7907 209.88 74.6639 210.232 74.6357 210.612C74.6357 210.781 74.6639 210.95 74.678 211.105C74.7343 211.358 74.8611 211.556 75.0442 211.71C75.1005 211.781 75.1709 211.823 75.2273 211.88C75.2273 211.88 75.2273 211.88 75.2132 211.88C75.2273 211.88 75.2554 211.894 75.2695 211.908C75.3118 211.936 75.3681 211.964 75.4104 211.978C75.4949 212.02 75.5653 212.049 75.6498 212.077C76.0019 212.189 76.3822 212.175 76.7484 212.091C76.8329 212.077 76.9174 212.049 77.0019 212.02C77.2695 212.02 77.5512 211.992 77.8188 211.964C78.0582 211.964 78.2835 211.936 78.4948 211.851C78.7483 211.781 78.9737 211.682 79.1708 211.527C79.3821 211.387 79.5652 211.218 79.706 211.006C79.8609 210.837 79.9736 210.64 80.044 210.415C80.0722 210.302 80.1004 210.175 80.1145 210.049C80.3398 209.88 80.5511 209.682 80.706 209.457C80.9173 209.232 81.0581 208.964 81.1567 208.682C81.1989 208.499 81.2271 208.33 81.2694 208.147C81.2975 207.88 81.2553 207.64 81.1144 207.415L81.1708 207.401Z" fill="#FFF9B2" fill-opacity="0.3"/>
<path d="M104.339 251.836C103.72 250.667 102.536 249.907 101.325 249.47C99.5506 248.836 97.5225 248.935 95.6352 249.4C93.4381 248.287 91.072 247.822 88.6918 249.301C86.7341 250.526 85.3397 252.991 85.2552 255.315C85.1989 257.033 85.8186 258.737 86.9172 260.061C89.1143 262.737 92.7903 264.441 96.2549 264.287C98.5366 264.188 100.621 263.399 102.311 261.864C103.917 260.399 104.663 258.357 105.001 256.259C105.241 254.738 105.072 253.188 104.339 251.836Z" fill="#FFF9B2" fill-opacity="0.3"/>
<path d="M282.039 131.699C281.447 132.206 281.729 131.966 282.039 131.699V131.699Z" fill="#FFF9B2" fill-opacity="0.3"/>
<path d="M199.013 246.639C195.435 244.724 190.647 246.822 188.604 250.048C187.689 251.484 187.337 253.245 187.731 254.878C187.731 255.794 187.942 256.709 188.478 257.54C189.323 258.878 190.872 259.625 192.393 259.892C194.872 260.329 197.238 259.23 199.013 257.54C200.604 256.033 201.815 253.78 201.787 251.555C201.759 249.597 200.815 247.597 199.041 246.639H199.013Z" fill="#FFF9B2" fill-opacity="0.3"/>
<path d="M288.137 176.74C284.56 174.824 279.771 176.923 277.729 180.148C276.813 181.585 276.461 183.345 276.856 184.979C276.856 185.895 277.067 186.81 277.588 187.641C278.433 188.979 279.982 189.725 281.503 189.993C283.982 190.43 286.348 189.331 288.109 187.641C289.7 186.134 290.912 183.881 290.883 181.655C290.855 179.698 289.912 177.698 288.137 176.74Z" fill="#FFF9B2" fill-opacity="0.3"/>
<path d="M253.856 227.33C253.758 227.133 253.631 226.978 253.476 226.809C253.194 226.499 252.884 226.203 252.546 225.95C252.251 225.739 251.913 225.584 251.617 225.386C250.786 224.851 249.701 225.077 248.899 225.527C247.997 226.034 247.335 226.851 247.194 227.908C247.124 228.372 247.208 228.893 247.49 229.288C247.363 229.457 247.223 229.612 247.124 229.795C246.758 230.415 246.476 231.133 246.617 231.865C246.73 232.485 247.194 232.879 247.772 233.105C248.293 233.302 248.87 233.259 249.406 233.189C249.673 233.161 249.941 233.09 250.208 233.006C250.589 233.358 251.222 233.358 251.715 233.133C252.349 232.837 252.983 232.175 252.913 231.429C253.194 231.147 253.462 230.851 253.673 230.499C253.997 229.992 254.265 229.316 254.236 228.71C254.208 228.147 254.124 227.837 253.87 227.344L253.856 227.33Z" fill="#FFF9B2" fill-opacity="0.3"/>
<path d="M209.914 294.666C209.491 292.962 208.336 291.441 206.956 290.384C205.576 289.328 203.872 288.99 202.168 289.244C200.435 289.497 198.83 290.525 197.604 291.751C196.534 292.807 195.689 294.215 195.21 295.652C194.759 296.99 194.59 298.469 194.914 299.849C195.224 301.145 196.069 302.384 197.252 303.032C199.238 304.131 201.661 304.257 203.731 303.469C204.28 303.37 204.815 303.201 205.308 302.99C208.435 301.638 210.759 298.145 209.914 294.694V294.666ZM202.872 298.314C202.83 298.483 202.773 298.652 202.717 298.807C202.717 298.835 202.689 298.863 202.675 298.877C202.646 298.877 202.618 298.877 202.59 298.877C202.393 298.75 202.196 298.61 202.027 298.441C201.844 298.243 201.689 298.046 201.534 297.835C201.534 297.835 201.534 297.835 201.548 297.835C201.999 297.948 202.477 297.948 202.942 297.835C202.942 297.99 202.9 298.145 202.886 298.286L202.872 298.314Z" fill="#FFF9B2" fill-opacity="0.3"/>
<path d="M239.659 251.667C239.631 251.583 239.589 251.484 239.547 251.4C239.504 251.301 239.462 251.189 239.392 251.09C239.392 251.09 239.378 251.062 239.364 251.048C239.251 250.935 239.138 250.822 239.011 250.71C238.941 250.667 238.856 250.625 238.772 250.597C238.631 250.498 238.462 250.456 238.293 250.456C238.11 250.414 237.941 250.4 237.758 250.456C237.434 250.484 237.195 250.527 236.871 250.682C236.814 250.71 236.744 250.752 236.688 250.794C236.659 250.794 236.631 250.794 236.617 250.794C236.434 250.822 236.265 250.893 236.082 250.963C235.871 251.034 235.659 251.118 235.476 251.259C235.406 251.301 235.35 251.358 235.279 251.414C235.124 251.527 234.983 251.653 234.842 251.794C234.448 252.231 234.068 252.794 234.068 253.4C234.082 253.569 234.096 253.724 234.11 253.893C234.026 254.301 233.969 254.681 234.068 255.09C234.068 255.132 234.096 255.174 234.11 255.217C234.181 255.372 234.237 255.555 234.335 255.695C234.462 255.893 234.645 256.062 234.828 256.202C235.209 256.526 235.716 256.724 236.166 256.893C236.321 256.921 236.476 256.935 236.631 256.963L237.138 256.907C237.307 256.85 237.49 256.794 237.659 256.738C237.941 256.625 238.18 256.47 238.392 256.259C238.547 256.146 238.687 256.005 238.786 255.85C238.913 255.724 238.997 255.569 239.068 255.4C239.152 255.259 239.209 255.104 239.223 254.935C239.293 254.71 239.293 254.484 239.223 254.259C239.194 254.034 239.166 253.822 239.152 253.597C239.293 253.386 239.406 253.16 239.49 252.935C239.504 252.893 239.518 252.85 239.533 252.794C239.575 252.625 239.645 252.372 239.659 252.189C239.645 252.005 239.631 251.836 239.617 251.653L239.659 251.667Z" fill="#FFF9B2" fill-opacity="0.3"/>
<path d="M226.786 207.401C226.744 207.232 226.646 207.105 226.505 207.006C226.336 206.809 226.124 206.668 225.871 206.612C225.688 206.584 225.505 206.556 225.336 206.542C224.927 206.542 224.519 206.626 224.153 206.795C223.674 207.006 223.237 207.274 222.801 207.556C222.66 207.64 222.519 207.739 222.378 207.837C222.181 207.978 221.998 208.147 221.815 208.302C221.73 208.373 221.646 208.443 221.561 208.527C221.533 208.556 221.505 208.57 221.477 208.598C221.505 208.57 221.533 208.556 221.547 208.527C221.477 208.598 221.392 208.668 221.322 208.739C221.28 208.795 221.237 208.851 221.181 208.894C221.139 208.936 221.096 208.992 221.054 209.035C220.885 209.204 220.787 209.302 220.632 209.57C220.42 209.88 220.308 210.232 220.28 210.612C220.28 210.781 220.308 210.95 220.322 211.105C220.378 211.358 220.505 211.556 220.688 211.71C220.744 211.781 220.815 211.823 220.871 211.88C220.871 211.88 220.871 211.88 220.857 211.88C220.871 211.88 220.899 211.894 220.913 211.908C220.956 211.936 221.012 211.964 221.054 211.978C221.139 212.02 221.209 212.049 221.294 212.077C221.646 212.189 222.026 212.175 222.392 212.091C222.477 212.077 222.561 212.049 222.646 212.02C222.913 212.02 223.195 211.992 223.463 211.964C223.702 211.964 223.927 211.936 224.139 211.851C224.378 211.781 224.617 211.682 224.815 211.527C225.026 211.387 225.209 211.218 225.35 211.006C225.505 210.837 225.617 210.64 225.688 210.415C225.716 210.302 225.744 210.175 225.758 210.049C225.984 209.88 226.195 209.682 226.35 209.457C226.561 209.232 226.702 208.964 226.8 208.682C226.843 208.499 226.871 208.33 226.913 208.147C226.941 207.88 226.899 207.64 226.758 207.415L226.786 207.401Z" fill="#FFF9B2" fill-opacity="0.3"/>
<path d="M276.166 262.906C275.546 261.737 274.363 260.977 273.152 260.54C271.377 259.907 269.349 260.005 267.462 260.47C265.265 259.357 262.898 258.892 260.518 260.371C258.56 261.597 257.166 264.061 257.082 266.385C257.025 268.103 257.645 269.808 258.744 271.132C260.927 273.808 264.617 275.512 268.081 275.357C270.363 275.258 272.433 274.47 274.138 272.92C275.743 271.456 276.49 269.413 276.828 267.315C277.067 265.794 276.898 264.244 276.166 262.892V262.906Z" fill="#FFF9B2" fill-opacity="0.3"/>
<path d="M182.407 163.839C183.647 163.585 184.872 163.149 185.985 162.543C185.506 161.656 185.027 160.782 184.478 159.923C183.788 161.233 183.098 162.529 182.407 163.839Z" fill="#FFF9B2" fill-opacity="0.3"/>
<path d="M174.858 205.978C174.858 205.978 174.83 205.556 174.816 205.528V205.514C174.76 205.387 174.689 205.246 174.633 205.119C174.506 204.922 174.337 204.795 174.112 204.711C173.985 204.626 173.83 204.584 173.675 204.584C173.422 204.528 173.182 204.528 172.929 204.598C172.872 204.612 172.816 204.64 172.76 204.654C172.732 204.654 172.718 204.626 172.689 204.612C172.591 204.542 172.478 204.514 172.351 204.514C172.154 204.471 171.971 204.471 171.774 204.514C171.492 204.584 171.225 204.711 170.971 204.866C170.774 204.992 170.619 205.147 170.492 205.331C170.351 205.485 170.253 205.654 170.196 205.852C170.196 205.88 170.168 205.922 170.154 205.95C170.126 206.077 170.098 206.204 170.084 206.316C170.084 206.345 170.084 206.387 170.084 206.415C170.084 206.471 170.07 206.542 170.056 206.598C170.056 206.697 170.027 206.795 170.027 206.894C170.027 207.077 170.027 207.26 170.027 207.443C170.027 207.514 170.027 207.584 170.042 207.654C170.042 207.739 170.07 207.823 170.084 207.894C170.098 207.964 170.126 208.021 170.14 208.091C170.196 208.26 170.253 208.429 170.323 208.598C170.394 208.88 170.549 209.091 170.788 209.26C170.971 209.387 171.168 209.457 171.38 209.471C171.605 209.528 171.844 209.513 172.07 209.457C172.422 209.373 172.746 209.232 173.041 209.021C173.239 208.894 173.436 208.725 173.591 208.528C173.619 208.485 173.647 208.457 173.675 208.415C173.76 208.373 173.844 208.33 173.929 208.274C174.168 208.091 174.365 207.88 174.492 207.612C174.577 207.429 174.647 207.19 174.605 206.964C174.661 206.838 174.732 206.697 174.76 206.626C174.788 206.542 174.844 206.218 174.858 206.133V206.105C174.858 206.077 174.858 206.035 174.858 206.007C174.858 206.007 174.858 205.978 174.858 205.964V205.978Z" fill="#FFF9B2" fill-opacity="0.3"/>
<path d="M273.644 162.233C273.841 161.641 273.757 160.965 273.208 160.585C272.658 160.205 271.827 160.261 271.25 160.557C270.954 160.698 270.672 160.867 270.391 161.036C270.334 161.078 270.278 161.106 270.222 161.148C270.194 161.163 270.165 161.191 270.137 161.205C270.053 161.275 269.968 161.36 269.884 161.43C269.785 161.501 269.701 161.571 269.63 161.655C269.475 161.824 269.264 162.078 269.165 162.233C268.898 162.655 268.884 162.824 268.799 163.289C268.785 163.388 268.771 163.472 268.771 163.571C268.757 163.853 268.827 164.12 268.968 164.317V164.346C268.968 164.346 268.968 164.36 268.968 164.374C268.968 164.585 268.996 164.796 269.025 165.008C269.067 165.205 269.165 165.36 269.306 165.472C269.433 165.627 269.588 165.712 269.785 165.754C270.222 165.867 270.658 165.796 271.067 165.627C271.278 165.543 271.475 165.444 271.686 165.36C272.137 165.162 272.517 164.923 272.87 164.571C273.25 164.191 273.531 163.684 273.574 163.134C273.574 163.05 273.574 162.965 273.574 162.881C273.574 162.754 273.574 162.613 273.588 162.486C273.616 162.388 273.63 162.303 273.658 162.205L273.644 162.233Z" fill="#FFF9B2" fill-opacity="0.3"/>
<path d="M312.39 142.839C311.981 144.093 311.573 145.332 311.15 146.585C311.531 145.881 311.981 145.191 312.277 144.445C312.291 144.402 312.305 144.36 312.319 144.318C312.376 144.093 312.432 143.853 312.46 143.628C312.488 143.374 312.46 143.107 312.39 142.867C312.39 142.867 312.39 142.867 312.39 142.853V142.839Z" fill="#FFF9B2" fill-opacity="0.3"/>
<path d="M304.756 211.57C304.334 210.767 303.672 209.978 302.869 209.556C301.503 208.809 300.038 208.781 298.587 209.26C297.334 209.668 296.137 210.429 295.207 211.415C293.095 211.95 291.348 213.753 290.588 215.837C290.151 217.049 289.968 218.485 290.433 219.725C290.898 220.922 291.63 221.879 292.658 222.64C294.602 224.105 297.404 224.668 299.771 224.077C301.306 223.696 302.827 222.922 303.883 221.724C304.883 220.598 305.432 219.302 305.714 217.837C306.122 215.725 305.742 213.485 304.756 211.584V211.57Z" fill="#FFF9B2" fill-opacity="0.3"/>
<g style="mix-blend-mode:multiply" opacity="0.53">
<path d="M317.714 127.755C315.826 132.29 314.305 136.952 312.784 141.614C312.108 143.656 311.446 145.712 310.756 147.768C309.869 163.303 307.291 178.754 302.418 193.542C295.714 213.908 284.602 232.597 269.757 248.076C254.645 263.822 235.11 273.99 214.026 279.244C192.576 284.596 169.887 285.159 148.127 281.413C128.127 277.976 108.663 270.864 92.9592 257.737C78.5793 245.724 68.143 229.71 61.0305 212.499C53.5659 194.443 49.5942 175.064 47.721 155.67C47.4675 152.951 47.2562 150.233 47.0731 147.515C46.4112 154.261 46.0591 160.796 46.0591 167.036C46.0591 251.287 108.649 319.581 185.858 319.581C263.067 319.581 325.657 251.287 325.657 167.036C325.657 152.895 323.897 137.276 320.587 121.051C319.615 123.276 318.643 125.501 317.714 127.755Z" fill="#41C3EA"/>
</g>
<path d="M405.629 125C406.277 132.563 406.051 140.168 406.826 147.732C406.882 148.351 406.206 148.647 405.727 148.351C401.108 145.506 397.502 141.38 393.178 138.14C392.418 146.788 391.08 155.393 390.869 164.083C390.869 164.548 390.291 164.759 389.925 164.619C385.756 163.013 381.996 160.562 378.545 157.745C371.996 152.379 366.503 145.844 360.63 139.774C355.039 134.014 348.912 128.338 341.335 125.352C340.025 136.845 340.419 148.549 341.87 159.999C341.94 160.59 341.236 160.971 340.771 160.619C336.828 157.675 334.349 153.365 330.898 149.943C329.617 156.9 330.391 164.083 329.87 171.097C329.828 171.618 329.152 171.844 328.772 171.548C320.955 165.224 315.941 155.788 307.322 150.45C304.378 154.548 303.124 159.745 302.237 164.647C301.279 169.942 300.843 175.294 300.279 180.632C300.223 181.181 299.589 181.336 299.181 181.083C295.04 178.393 291.843 174.449 287.576 171.956C285.026 178.886 286.111 186.66 285.576 193.885C285.533 194.378 284.843 194.674 284.477 194.336C275.196 185.773 267.365 175.407 256.478 168.745C250.661 184.562 255.041 202.012 253.534 218.392C253.506 218.772 253.112 219.011 252.76 218.969C247.929 218.462 245.534 214.026 242.464 210.786C241.859 216.04 241.436 221.335 241.746 226.617C241.774 227.208 241.14 227.589 240.647 227.237C234.633 222.899 229.591 217.321 223.408 213.209C221.211 221.152 222.76 229.518 221.155 237.546C221.056 238.053 220.493 238.293 220.056 237.983C210.127 230.8 202.071 221.293 191.818 214.533C191.128 219.617 191.043 224.758 191.226 229.884C191.55 239.447 192.663 248.94 192.494 258.517C192.451 260.841 192.381 263.165 192.311 265.489C236.478 331.051 318.42 395.133 375.489 372.078C438.417 346.642 449.473 224.054 428.079 145.14C420.642 138.38 413.361 131.436 405.629 125.014V125Z" fill="#4BD1F8"/>
<path d="M416.178 146.436C415.107 144.929 413.516 143.577 411.657 143.239C410.079 142.943 408.305 143.112 406.854 143.816C406.741 143.873 406.629 143.943 406.516 144.013C406.601 145.253 406.699 146.492 406.826 147.732C406.882 148.351 406.206 148.647 405.727 148.351C404.953 147.872 404.22 147.351 403.488 146.802C403.417 146.915 403.319 147.027 403.248 147.14C403.094 147.408 402.953 147.703 402.798 147.985C402.727 148.126 402.657 148.281 402.615 148.365C402.474 148.675 402.361 148.999 402.263 149.323C402.037 150.07 401.84 150.83 401.756 151.605C401.446 154.506 401.925 157.647 403.615 160.069C405.319 162.506 408.178 163.365 410.952 162.295C412.882 161.548 414.671 160.112 415.981 158.534C417.6 156.591 418.797 154.154 418.6 151.562C418.459 149.76 417.614 148.013 416.333 146.703C416.276 146.605 416.22 146.52 416.15 146.422L416.178 146.436Z" fill="#FFF9B2" fill-opacity="0.3"/>
<path d="M341.349 125.352C341.194 126.676 341.081 127.986 340.969 129.31C341.955 129.915 343.067 130.324 344.25 130.45C346.011 130.633 347.715 130.352 349.306 129.718C346.828 127.972 344.18 126.479 341.349 125.352Z" fill="#FFF9B2" fill-opacity="0.3"/>
<path d="M329.842 242.039C334.729 241.335 339.391 238.095 340.222 233.095C340.588 232.448 340.842 231.715 340.969 230.941C341.602 226.744 338.997 222.603 335.941 219.983C334.405 218.673 332.476 217.617 330.448 217.335C328.039 217.011 325.631 217.687 323.744 219.209C321.04 221.378 319.237 224.575 318.195 227.842C317.293 230.673 316.814 233.926 318.096 236.729C320.138 241.18 325.279 242.701 329.856 242.039H329.842Z" fill="#FFF9B2" fill-opacity="0.3"/>
<path d="M221.747 239.997C221.93 239.645 222.099 239.321 221.747 239.997V239.997Z" fill="#FFF9B2" fill-opacity="0.3"/>
<path d="M222.578 252.109C224.282 254.546 227.141 255.405 229.915 254.32C231.845 253.574 233.634 252.151 234.943 250.56C236.563 248.616 237.76 246.18 237.549 243.588C237.408 241.785 236.563 240.039 235.281 238.729C235.225 238.631 235.169 238.546 235.098 238.448C234.028 236.941 232.436 235.603 230.577 235.25C229 234.955 227.225 235.124 225.775 235.828C224.268 236.546 223.014 237.715 222.169 239.152C222.014 239.419 221.873 239.715 221.718 239.997C221.648 240.138 221.578 240.293 221.535 240.377C221.395 240.687 221.282 241.011 221.183 241.335C220.958 242.081 220.761 242.842 220.676 243.616C220.366 246.504 220.845 249.658 222.535 252.081L222.578 252.109Z" fill="#FFF9B2" fill-opacity="0.3"/>
<path d="M258.379 187.928C258.182 187.773 257.971 187.66 257.746 187.575C257.647 187.336 257.534 187.097 257.393 186.857C257.126 186.406 256.788 186.012 256.45 185.632C256.041 185.167 255.562 185.026 254.971 185.167C254.351 185.322 253.774 185.744 253.436 186.294C253.351 188.533 253.365 190.773 253.408 193.026C253.464 193.11 253.534 193.195 253.619 193.251C253.788 193.463 254.027 193.589 254.309 193.632C254.943 193.758 255.548 193.547 256.084 193.209C256.154 193.209 256.224 193.209 256.295 193.209C256.506 193.153 256.717 193.11 256.915 193.054C257.253 192.927 257.562 192.744 257.816 192.491C258.309 192.082 258.745 191.533 258.971 190.927C259.126 190.477 259.224 189.998 259.224 189.519C259.224 189.195 259.14 188.885 258.971 188.618C258.858 188.336 258.675 188.111 258.407 187.942L258.379 187.928Z" fill="#FFF9B2" fill-opacity="0.3"/>
<path d="M265.379 305.178C270.266 304.474 274.942 301.234 275.759 296.234C276.125 295.587 276.379 294.854 276.506 294.08C277.139 289.897 274.534 285.742 271.478 283.122C269.942 281.812 268.013 280.756 265.985 280.474C263.576 280.136 261.168 280.826 259.281 282.347C256.577 284.516 254.774 287.713 253.732 290.981C252.83 293.812 252.351 297.065 253.633 299.868C255.675 304.319 260.816 305.84 265.393 305.178H265.379Z" fill="#FFF9B2" fill-opacity="0.3"/>
<path d="M404.601 275.235C405.023 275.742 405.53 276.263 406.122 276.559C406.46 276.728 406.84 276.897 407.22 276.939C407.854 277.024 408.305 276.967 408.91 276.784C409.544 276.601 410.079 276.249 410.558 275.798C410.769 275.728 410.967 275.629 411.15 275.517C411.15 275.517 411.164 275.517 411.178 275.503C411.178 275.503 411.206 275.503 411.206 275.474C411.206 275.474 411.22 275.474 411.234 275.46C411.276 275.432 411.305 275.418 411.234 275.46C411.319 275.404 411.389 275.348 411.46 275.277C411.544 275.207 411.614 275.15 411.685 275.08C412.051 274.7 412.319 274.277 412.53 273.798C412.812 273.165 412.896 272.489 412.938 271.798C413.234 270.799 413.445 269.742 413.29 268.686C413.164 267.742 412.924 266.982 412.431 266.151C412.121 265.616 411.657 265.151 411.178 264.785C410.995 264.432 410.812 264.08 410.614 263.728C409.995 262.658 409.192 261.658 407.995 261.235C407.206 260.954 406.305 261.221 405.629 261.644C404.713 262.221 404.122 263.137 403.685 264.094C403.305 264.94 403.108 265.883 402.967 266.785C402.896 267.292 402.84 267.813 402.798 268.334C402.741 269.165 402.657 269.982 402.798 270.813C403.037 272.39 403.558 273.967 404.586 275.235H404.601Z" fill="#FFF9B2" fill-opacity="0.3"/>
<path d="M396.77 248.715C396.77 248.715 396.826 248.757 396.854 248.785C397.009 248.954 397.15 249.137 397.249 249.335C397.263 249.377 397.291 249.419 397.305 249.447C397.333 249.518 397.389 249.56 397.46 249.602C397.46 249.602 397.474 249.616 397.488 249.63C397.558 249.701 397.629 249.771 397.685 249.842L397.939 250.081C398.094 250.18 398.249 250.236 398.432 250.222C398.558 250.25 398.671 250.222 398.784 250.18C398.981 250.151 399.15 250.067 399.319 249.954C399.558 249.785 399.77 249.56 399.939 249.32C400.065 249.137 400.164 248.926 400.206 248.701C400.277 248.504 400.305 248.306 400.291 248.095C400.277 247.799 400.22 247.518 400.15 247.222C400.15 247.194 400.15 247.18 400.136 247.151C400.122 247.081 399.995 246.842 399.953 246.785C399.925 246.757 399.911 246.729 399.882 246.701C399.756 246.56 399.601 246.419 399.46 246.292C399.136 246.011 398.742 245.842 398.347 245.687C398.164 245.644 397.995 245.659 397.826 245.715C397.629 245.743 397.446 245.828 397.291 245.94C397.178 246.039 397.066 246.123 396.967 246.222C396.798 246.391 396.671 246.574 396.573 246.785C396.488 246.912 396.432 247.053 396.404 247.194C396.333 247.391 396.305 247.588 396.319 247.799C396.347 247.926 396.361 248.039 396.389 248.166C396.46 248.391 396.601 248.574 396.798 248.701L396.77 248.715Z" fill="#FFF9B2" fill-opacity="0.3"/>
<path d="M405.446 200.42C407.784 200.209 409.615 198.42 410.868 196.575C410.953 196.463 411.009 196.336 411.079 196.223C411.248 196.012 411.417 195.801 411.572 195.575C413.558 192.66 414.009 188.449 412.347 185.294C410.333 181.477 405.375 181.871 402.136 183.759C401.953 183.871 401.77 183.984 401.587 184.111C401.15 184.252 400.742 184.435 400.347 184.674C398.375 185.942 397.587 188.223 397.981 190.449C397.84 191.829 397.981 193.251 398.418 194.589C399.389 197.547 401.995 200.716 405.432 200.42H405.446Z" fill="#FFF9B2" fill-opacity="0.3"/>
<path d="M406.474 195.322C406.474 195.322 406.347 195.322 406.305 195.322C406.361 195.322 406.417 195.322 406.46 195.322C406.431 195.322 406.445 195.336 406.46 195.322C406.46 195.322 406.488 195.322 406.502 195.308C406.502 195.308 406.516 195.308 406.53 195.308C406.558 195.308 406.572 195.279 406.6 195.279C406.643 195.265 406.671 195.237 406.713 195.209C406.572 195.265 406.488 195.294 406.445 195.322H406.474Z" fill="#FFF9B2" fill-opacity="0.3"/>
<path d="M370.263 197.716C370.376 197.815 370.489 197.928 370.615 198.026C370.728 198.068 370.855 198.125 370.968 198.167H371.362C371.503 198.167 371.63 198.125 371.77 198.082C371.996 197.998 372.193 197.885 372.362 197.716C372.503 197.618 372.615 197.505 372.714 197.35C372.841 197.223 372.925 197.083 372.996 196.913C373.094 196.773 373.151 196.618 373.179 196.449C373.263 196.223 373.291 195.998 373.277 195.759C373.277 195.561 373.277 195.364 373.277 195.153C373.277 194.843 373.165 194.547 372.996 194.294C372.813 194.054 372.573 193.899 372.277 193.829C371.968 193.773 371.672 193.801 371.376 193.914C371.123 194.012 370.897 194.139 370.714 194.336C370.475 194.505 370.292 194.716 370.137 194.97C369.925 195.294 369.785 195.646 369.714 196.026C369.658 196.35 369.672 196.688 369.77 196.998C369.855 197.294 370.038 197.519 370.292 197.688L370.263 197.716Z" fill="#FFF9B2" fill-opacity="0.3"/>
<path d="M333.659 317.657C334.814 317.868 335.941 317.6 336.983 317.121C337.814 317.192 338.645 316.938 339.363 316.544C340.926 315.685 341.814 313.938 342.222 312.262C342.574 310.798 342.405 309.065 341.912 307.657C341.673 306.981 341.349 306.305 340.898 305.741C340.335 305.037 339.715 304.615 338.884 304.277C337.194 303.615 335.222 304.389 333.842 305.389C332.56 306.319 331.603 307.417 330.927 308.84C330.377 309.981 330.152 311.277 330.166 312.53C330.194 314.699 331.321 317.22 333.659 317.657Z" fill="#FFF9B2" fill-opacity="0.3"/>
<path d="M375.813 331.515C376.742 331.149 377.446 330.107 377.376 329.093C377.32 328.163 376.503 327.586 375.616 327.952C374.686 328.332 373.982 329.361 374.052 330.375C374.109 331.304 374.925 331.882 375.813 331.515Z" fill="#FFF9B2" fill-opacity="0.3"/>
<path d="M285.562 259.419C285.787 259.743 286.097 260.038 286.449 260.222C287.604 260.813 288.787 260.616 289.829 260.038C289.998 260.109 290.167 260.193 290.35 260.25C290.759 260.391 291.224 260.123 291.519 259.869C291.9 259.56 292.195 259.095 292.266 258.602C292.308 258.278 292.322 257.954 292.308 257.63C292.322 257.602 292.336 257.588 292.35 257.56C292.843 256.771 293.167 255.729 292.857 254.799C292.59 254.01 291.857 253.503 291.012 253.602C290.829 253.63 290.646 253.616 290.477 253.616C290.407 253.616 290.336 253.616 290.266 253.602C289.632 253.151 288.872 252.856 288.083 252.799C287.562 252.757 287.097 252.827 286.66 253.151C286.153 253.518 285.801 253.996 285.548 254.56C285.111 255.532 284.801 256.729 284.984 257.785C285.083 258.391 285.21 258.898 285.576 259.419H285.562Z" fill="#FFF9B2" fill-opacity="0.3"/>
<path d="M300.956 174.21C300.73 176.35 300.519 178.491 300.294 180.618C300.237 181.167 299.603 181.322 299.195 181.069C298.054 180.322 296.984 179.491 295.956 178.618C295.181 179.829 294.66 181.167 294.519 182.505C294.322 184.378 294.674 186.181 295.73 187.759C296.759 189.294 298.364 190.505 300.082 191.167C303.378 192.435 306.336 189.787 307.533 186.914C307.66 186.604 307.772 186.294 307.871 185.97C309.448 184.773 310.66 183.055 311.012 181.083C311.35 179.21 310.814 177.28 309.589 175.829C307.209 172.998 303.885 172.886 300.956 174.238V174.21Z" fill="#FFF9B2" fill-opacity="0.3"/>
<path d="M299.491 175.027C298.477 175.703 297.533 176.534 296.759 177.491C297.505 178.111 298.266 178.731 299.054 179.294C299.195 177.872 299.35 176.449 299.491 175.027Z" fill="#FFF9B2" fill-opacity="0.3"/>
<path d="M303.265 186.209L303.279 186.195H303.265V186.209Z" fill="#FFF9B2" fill-opacity="0.3"/>
<path d="M195.423 235.053C194.776 234.645 194.043 234.433 193.283 234.363C192.916 234.293 192.564 234.335 192.212 234.476C191.916 234.574 191.663 234.743 191.452 234.94C191.578 237.25 191.733 239.56 191.888 241.884C192.212 241.997 192.522 242.109 192.846 242.236C193.254 242.306 193.649 242.278 194.029 242.123C194.466 241.94 194.846 241.687 195.17 241.349C195.691 240.814 196.128 240.039 196.226 239.264C196.226 239.25 196.254 239.236 196.254 239.222C196.522 238.799 196.705 238.349 196.79 237.87C196.86 237.461 196.818 237.138 196.719 236.729C196.705 236.659 196.677 236.588 196.649 236.518C196.536 236.236 196.381 235.954 196.17 235.729C195.93 235.49 195.691 235.25 195.409 235.067L195.423 235.053Z" fill="#FFF9B2" fill-opacity="0.3"/>
<path d="M190.48 241.011C190.395 239.743 190.311 238.475 190.226 237.194C190.142 237.968 189.987 238.743 190.001 239.532C190.001 239.574 190.001 239.616 190.001 239.659C190.029 239.884 190.071 240.123 190.128 240.335C190.198 240.574 190.311 240.799 190.466 240.996L190.48 241.011Z" fill="#FFF9B2" fill-opacity="0.3"/>
<g style="mix-blend-mode:multiply" opacity="0.53">
<path d="M195.832 250.898C194.409 247.546 193.071 244.137 191.818 240.715C192.212 246.644 192.592 252.56 192.494 258.503C192.451 260.827 192.381 263.151 192.311 265.475C203.55 282.15 217.225 298.741 232.324 313.826C230.352 311.107 228.394 308.375 226.493 305.6C214.62 288.376 203.972 270.193 195.832 250.898Z" fill="#41C3EA"/>
</g>
<g style="mix-blend-mode:screen" opacity="0.45">
<path d="M251.013 264.785C237.098 265.56 235.521 276.249 240.957 287.362C251.563 309.009 272.337 326.459 295.195 333.966C299.406 335.346 303.955 336.332 308.392 335.698C311.772 335.22 315.166 333.473 317.152 330.642C318.955 328.065 319.42 324.797 319.138 321.713C318.448 314.037 314.462 306.756 310.251 300.46C308.279 297.516 306.11 294.686 303.744 292.038C301.35 289.348 298.575 287.08 295.787 284.813C287.055 277.714 277.506 271.109 266.816 267.348C261.774 265.574 256.365 264.475 250.985 264.771L251.013 264.785Z" fill="white"/>
</g>
<g style="mix-blend-mode:multiply" opacity="0.53">
<path d="M428.093 145.126C420.657 138.366 413.375 131.422 405.643 125C406.291 132.563 406.065 140.168 406.84 147.732C406.896 148.351 406.22 148.647 405.741 148.351C401.122 145.506 397.516 141.38 393.193 138.14C392.432 146.788 391.094 155.393 390.883 164.083C390.883 164.548 390.305 164.759 389.939 164.619C385.77 163.013 382.01 160.562 378.559 157.745C372.01 152.379 366.517 145.844 360.644 139.774C355.391 134.352 349.63 129.042 342.659 125.944C349.123 136.718 355.419 147.591 361.306 158.703C369.221 173.689 376.432 189.097 382.052 205.096C387.531 220.687 391.516 236.912 392.643 253.433C393.657 268.249 392.347 283.32 387.249 297.347C382.925 309.234 376.01 320.178 366.658 328.755C357.278 337.36 345.743 343.374 333.434 346.543C320.124 349.98 305.857 350.585 292.449 347.388C279.717 344.36 268.069 338.079 257.506 330.487C246.591 322.642 236.69 313.502 226.76 304.474C221.704 299.882 216.634 295.277 211.395 290.883C257.436 346.29 325.87 392.133 375.503 372.078C438.431 346.642 449.487 224.054 428.093 145.14V145.126Z" fill="#41C3EA"/>
</g>
<defs>
<clipPath id="clip0_1_4388">
<rect width="245.127" height="308.838" fill="white" transform="translate(169.758 19.1477) rotate(10.6285)"/>
</clipPath>
</defs>
</svg>
