<svg width="293" height="390" viewBox="0 0 293 390" fill="none" xmlns="http://www.w3.org/2000/svg">
<path d="M160.08 323.704C114.507 323.704 67.6621 338.424 67.6621 356.586C67.6621 374.748 114.505 389.47 160.08 389.47C183.318 389.47 204.293 385.64 219.287 379.476C226.248 381.315 234.337 382.39 243.013 382.39C268.758 382.39 291.388 370.032 292.112 358.611C293.757 332.555 191.869 323.705 160.08 323.705V323.704Z" fill="#94C437"/>
<path d="M133.663 364.171C141.26 354.838 164.604 356.721 170.792 365.767C176.986 374.817 124.998 374.817 133.663 364.171Z" fill="#AED84A"/>
<path d="M166.222 354.629C151.995 358.544 162.021 372.29 216.448 375.757C283.134 380.005 297.607 339.602 236.389 336.207" fill="#7EA81A"/>
<path d="M85.2778 341.461C98.5299 323.916 160.201 329.723 165.483 343.311C170.771 356.903 68.4668 363.701 85.2778 341.461Z" fill="#AED84A"/>
<path d="M114.695 363.405C117.294 361.296 129.544 360.214 125.834 365.689C122.122 371.165 108.508 368.421 114.695 363.405Z" fill="#AED84A"/>
<path d="M145.236 343.14C147.612 325.343 248.173 328.308 255.97 344.88C263.772 361.443 142.277 365.304 145.236 343.14Z" fill="#7EA81A"/>
<path d="M141.269 7.54013L193.586 347.384L184.704 349.358C184.704 349.358 118.085 15.9053 119.997 11.1549C121.913 6.40296 138.925 5.19855 141.269 7.54013Z" fill="#FFB531" stroke="#3C1607" stroke-width="2" stroke-linecap="round" stroke-linejoin="round"/>
<path d="M12.8832 48.0075C9.52124 52.8162 17.9693 180.898 27.0205 184.922C36.0717 188.947 278.304 146.691 284.336 140.656C290.371 134.616 261.359 19.4632 254.322 14.4349C247.284 9.3976 19.925 37.9448 12.8832 48.0075Z" fill="#E27905" stroke="#3C1607" stroke-width="2" stroke-linecap="round" stroke-linejoin="round"/>
<path d="M25.5487 45.4089C22.6346 48.8637 23.3303 71.628 25.8353 76.7774C28.3344 81.9238 71.881 76.6578 71.881 76.6578C71.881 76.6578 31.4828 86.4425 28.2448 89.6045C25.0142 92.7709 25.3636 118.383 27.2222 123.522C29.0838 128.669 39.3442 126.218 39.3442 126.218C39.3442 126.218 32.2531 131.263 30.2975 134.44C28.3433 137.621 38.8501 170.952 44.5841 172.936C50.3167 174.925 274.511 141.693 279.029 137.903C283.549 134.111 282.488 114.897 278.018 114.208C273.55 113.515 235.08 122.038 235.08 122.038C235.08 122.038 274.886 108.407 276.218 103.942C277.548 99.4759 270.342 57.7877 263.339 55.1458C256.337 52.5068 157.107 61.6236 157.107 61.6236C157.107 61.6236 257.694 45.4791 260.926 42.3157C264.161 39.1522 258.638 18.604 250.97 17.8778C243.303 17.1515 34.6238 34.6274 25.5502 45.4104L25.5487 45.4089Z" fill="#FFB531"/>
<path d="M40.983 56.4532C47.0097 42.1975 214.282 28.931 214.282 38.5304C214.282 48.1299 26.9143 89.7388 40.983 56.4532Z" fill="#F8A329"/>
<path d="M51.8543 86.5395C43.448 91.9743 41.6238 114.701 50.5764 117.264C59.5291 119.819 125.396 115.982 125.396 115.982C125.396 115.982 65.923 121.103 66.5605 131.984C67.2009 142.867 103.015 135.823 153.528 128.139C204.048 120.463 245.611 106.379 254.568 98.6972C263.521 91.0164 255.209 69.2548 239.219 64.1338C223.234 59.0129 82.549 66.6951 51.8543 86.5395Z" fill="#F8A329"/>
<g filter="url(#filter0_d_1_4686)">
<path d="M109.359 108.008C111.401 109.841 117.298 115.024 124.105 120.014C135.649 128.483 144.246 132.416 149.666 131.701C150.148 131.637 150.609 131.533 151.053 131.403L151.095 131.397L151.15 131.375L151.235 131.364C151.867 131.137 152.449 130.858 152.964 130.502C157.176 127.613 160.166 121.689 161.603 113.378C162.861 106.113 162.921 97.077 161.76 87.9572C160.573 78.6392 158.181 69.6819 155.032 62.7396C151.438 54.8194 146.96 49.6942 142.06 47.922C141.41 47.691 140.715 47.5524 139.991 47.5185L139.934 47.5259C139.47 47.5008 138.983 47.5219 138.502 47.5854C133.138 48.2937 125.861 54.136 116.878 64.9551C110.33 72.8322 105.17 80.6412 105.122 80.7195C105.087 80.7817 105.052 80.8439 105.03 80.8901C103.062 80.8187 99.715 80.7711 96.7854 81.1579C94.4077 81.4719 92.7222 82.0112 91.6335 82.8173C86.4309 86.6001 86.655 92.1142 87.2855 96.9988L87.293 97.0554L87.3005 97.112L87.3042 97.1403L87.308 97.1686L87.3154 97.2252L87.3229 97.2818C87.9818 102.163 89.1984 107.56 95.164 109.883C96.4246 110.379 98.1924 110.462 100.57 110.148C103.938 109.703 107.69 108.56 109.347 108.024L109.359 108.008Z" fill="#3C1607"/>
<path d="M170.909 92.0338C169.485 92.8122 168.458 94.0853 168.042 95.6234C167.633 97.103 167.838 98.6597 168.62 99.9965C169.827 102.055 172.163 103.172 174.598 102.85C175.348 102.751 176.079 102.511 176.751 102.148C183.453 98.4843 187.152 91.3866 186.186 84.0697C185.22 76.7528 179.807 70.8727 172.382 69.0596C171.639 68.8841 170.885 68.8397 170.12 68.9407C167.7 69.2602 165.72 70.9472 165.088 73.2482C164.68 74.7419 164.884 76.2845 165.665 77.6213C166.48 78.9968 167.789 79.9616 169.365 80.3438C172.013 80.9877 173.944 83.0655 174.284 85.6413C174.624 88.2171 173.299 90.7247 170.909 92.0338Z" fill="#3C1607"/>
<path d="M181.137 54.7712C180.376 54.5693 179.605 54.5127 178.841 54.6136C176.393 54.9368 174.426 56.7229 173.826 59.1635C173.018 62.4237 174.957 65.7675 178.14 66.6432C185.726 68.6942 191.31 75.2142 192.371 83.2528C193.432 91.2915 189.732 99.0373 182.939 102.987C180.091 104.645 179.088 108.391 180.714 111.33C181.926 113.531 184.29 114.746 186.738 114.422C187.503 114.321 188.246 114.065 188.929 113.672C199.96 107.248 205.976 94.6893 204.259 81.6831C202.542 68.6769 193.472 58.1103 181.151 54.7693L181.137 54.7712Z" fill="#3C1607"/>
<path d="M159.744 85.3435L159.741 85.3152C159.679 84.8482 159.589 84.3849 159.513 83.9197L159.504 83.8489C159.428 83.3838 159.338 82.9205 159.262 82.4553C159.001 81.0211 158.713 79.6048 158.385 78.2082L158.379 78.1657C157.947 76.3077 157.475 74.4836 156.953 72.7095C156.824 72.2801 156.696 71.8507 156.569 71.4355C156.524 71.3118 156.493 71.1863 156.448 71.0627C156.35 70.7588 156.25 70.4408 156.153 70.1369C156.108 70.0133 156.077 69.8878 156.031 69.7641C155.91 69.3914 155.773 69.0063 155.654 68.6477C155.648 68.6052 155.63 68.5788 155.61 68.5382C155.469 68.1248 155.316 67.7275 155.161 67.316C155.12 67.2207 155.092 67.1235 155.051 67.0281C154.937 66.712 154.811 66.4118 154.699 66.1098C154.656 66.0003 154.613 65.8908 154.571 65.7955C154.44 65.4529 154.294 65.1122 154.15 64.7856C154.145 64.7431 154.109 64.6903 154.089 64.6497C153.922 64.2542 153.756 63.8729 153.576 63.4934C153.553 63.4245 153.515 63.3575 153.494 63.3028C153.352 62.9903 153.211 62.6921 153.069 62.3796C153.028 62.2843 152.988 62.2031 152.947 62.1078C152.791 61.7972 152.649 61.4848 152.494 61.1884C152.473 61.1336 152.453 61.0931 152.417 61.0402C152.225 60.6768 152.049 60.3256 151.859 59.9763C151.855 59.948 151.822 59.9093 151.804 59.8829C151.633 59.5742 151.465 59.2796 151.294 58.9709C151.257 58.9039 151.217 58.8227 151.166 58.7576C150.999 58.4772 150.832 58.1968 150.668 57.9306C150.634 57.8919 150.612 57.8371 150.578 57.7984C150.177 57.1602 149.766 56.5521 149.344 55.9743C149.308 55.9214 149.272 55.8685 149.222 55.8175C149.045 55.5673 148.856 55.3331 148.681 55.0971C148.647 55.0583 148.613 55.0196 148.577 54.9668C146.437 52.283 144.079 50.3481 141.509 49.4203C140.267 58.2239 139.811 67.0965 140.14 75.9087C143.127 75.7446 145.966 76.5217 148.367 78.019C151.849 80.1799 154.376 83.8349 154.953 88.208C155.34 91.1376 154.793 93.9745 153.562 96.4265C151.679 100.16 148.166 103 143.838 103.917C145.028 109.116 146.498 114.25 148.245 119.303C149.291 122.319 150.437 125.321 151.677 128.282L152.037 129.156C152.251 129.027 152.446 128.872 152.656 128.714C152.682 128.696 152.707 128.664 152.747 128.645C152.943 128.489 153.124 128.336 153.304 128.168C153.342 128.134 153.367 128.102 153.406 128.068C153.585 127.9 153.763 127.719 153.94 127.537C153.965 127.505 153.989 127.473 154.03 127.453C154.206 127.257 154.381 127.061 154.555 126.851L154.569 126.849C154.741 126.625 154.901 126.416 155.073 126.192L155.147 126.096C155.306 125.888 155.464 125.665 155.606 125.43C155.629 125.384 155.667 125.35 155.69 125.304C155.834 125.084 155.99 124.847 156.131 124.612C156.154 124.566 156.179 124.534 156.201 124.488C156.341 124.239 156.495 123.988 156.634 123.725L156.656 123.679C156.794 123.416 156.932 123.153 157.056 122.892C157.081 122.86 157.089 122.815 157.114 122.783C157.238 122.522 157.36 122.247 157.482 121.972C157.505 121.925 157.525 121.865 157.548 121.819C157.67 121.544 157.776 121.256 157.898 120.981C157.921 120.935 157.942 120.874 157.95 120.83C158.069 120.526 158.175 120.239 158.291 119.921L158.312 119.861C158.416 119.559 158.518 119.243 158.622 118.941C158.633 118.911 158.641 118.867 158.666 118.835C158.768 118.519 158.856 118.205 158.957 117.875C158.978 117.814 158.984 117.756 159.005 117.696C159.093 117.382 159.18 117.053 159.266 116.725C159.287 116.665 159.293 116.606 159.316 116.56C159.4 116.218 159.485 115.875 159.555 115.535C159.551 115.507 159.562 115.477 159.572 115.446C159.642 115.106 159.725 114.749 159.793 114.395C159.79 114.367 159.812 114.32 159.809 114.292C159.877 113.937 159.945 113.583 160.012 113.214C160.018 113.156 160.039 113.095 160.046 113.037C160.114 112.682 160.167 112.315 160.221 111.962C160.228 111.904 160.234 111.846 160.255 111.785C160.307 111.418 160.358 111.037 160.408 110.656C160.405 110.628 160.415 110.598 160.424 110.553C160.474 110.172 160.523 109.777 160.559 109.398L160.548 109.313C160.611 108.916 160.645 108.523 160.68 108.129C160.672 108.073 160.693 108.012 160.7 107.954C160.734 107.561 160.769 107.167 160.789 106.776C160.781 106.719 160.802 106.659 160.807 106.586C160.84 106.179 160.858 105.773 160.876 105.367C160.873 105.339 160.869 105.311 160.878 105.267C160.894 104.847 160.925 104.425 160.94 103.991L160.934 103.949C160.95 103.529 160.965 103.095 160.982 102.675C160.974 102.619 160.983 102.574 160.989 102.516C160.992 102.098 161.008 101.678 161.011 101.26C161.003 101.204 161.01 101.145 161.017 101.087C161.017 100.655 161.018 100.223 161.018 99.7906C161.015 99.7623 161.011 99.734 161.007 99.7057C161.003 98.7991 160.97 97.8963 160.937 96.9934C160.931 96.951 160.926 96.9085 160.92 96.8661C160.905 96.4217 160.875 95.9793 160.862 95.5491C160.856 95.5066 160.848 95.45 160.843 95.4076C160.813 94.9651 160.796 94.5066 160.752 94.066L160.743 93.9952C160.678 93.0679 160.597 92.1282 160.516 91.1885L160.505 91.1036C160.459 90.6488 160.414 90.1941 160.366 89.7252C160.361 89.6827 160.357 89.6544 160.351 89.612C160.29 89.1449 160.244 88.6902 160.182 88.2231L160.179 88.1948C160.051 87.2325 159.926 86.2842 159.771 85.3256L159.744 85.3435Z" fill="#7EA81A"/>
<path d="M149.946 128.366C139.766 103.835 136.231 77.0582 139.694 50.7254C139.769 50.1972 139.827 49.6567 139.915 49.1267C139.364 49.0986 138.809 49.1432 138.22 49.2641C138.121 49.2772 138.01 49.3063 137.912 49.3336C137.827 49.3448 137.744 49.3701 137.661 49.3955C137.548 49.4105 137.439 49.4537 137.327 49.4828C137.242 49.494 137.161 49.5335 137.092 49.557C136.969 49.6022 136.857 49.6313 136.734 49.6764C136.665 49.6999 136.582 49.7252 136.515 49.7629C136.391 49.808 136.255 49.8692 136.117 49.9162C136.048 49.9396 135.981 49.9773 135.913 50.0008C135.777 50.0619 135.627 50.125 135.491 50.1861C135.436 50.2077 135.369 50.2454 135.314 50.267C135.166 50.3442 135.018 50.4213 134.855 50.5004C134.801 50.522 134.748 50.5578 134.707 50.5775C134.545 50.6566 134.384 50.7498 134.224 50.8429C134.183 50.8627 134.145 50.8966 134.09 50.9182C133.915 51.0133 133.742 51.1225 133.57 51.2317C133.529 51.2515 133.503 51.2694 133.462 51.2891C133.275 51.4002 133.09 51.5254 132.903 51.6365L132.838 51.6883C132.639 51.8154 132.454 51.9406 132.256 52.0819L132.218 52.1158C132.02 52.257 131.809 52.4002 131.599 52.5574L131.571 52.5612C131.363 52.7326 131.153 52.8899 130.93 53.049C130.734 53.2044 130.525 53.3617 130.329 53.5171L130.276 53.5529C119.08 62.4325 106.448 81.5956 106.448 81.5956L109.686 106.122C109.686 106.122 116.194 112.117 124.257 118.108L124.289 118.132C124.561 118.341 124.832 118.536 125.118 118.743L125.146 118.739C125.421 118.962 125.691 119.157 125.962 119.351C126.026 119.401 126.074 119.437 126.138 119.487C126.36 119.644 126.583 119.802 126.805 119.96C126.885 120.021 126.965 120.083 127.044 120.13C127.25 120.276 127.456 120.421 127.663 120.567C127.757 120.626 127.839 120.702 127.933 120.761C128.124 120.895 128.33 121.04 128.521 121.173C128.615 121.233 128.711 121.307 128.805 121.366C128.996 121.499 129.2 121.631 129.39 121.764C129.485 121.824 129.581 121.897 129.689 121.955C129.88 122.088 130.084 122.22 130.289 122.351C130.383 122.411 130.477 122.47 130.573 122.544C130.778 122.675 130.984 122.821 131.189 122.952C131.283 123.012 131.361 123.059 131.441 123.12C131.662 123.264 131.883 123.408 132.117 123.55C132.181 123.599 132.258 123.632 132.322 123.681C132.605 123.86 132.887 124.038 133.17 124.217L133.198 124.213C133.499 124.418 133.81 124.593 134.109 124.784L134.137 124.78C134.422 124.973 134.703 125.138 134.982 125.288C135.06 125.335 135.137 125.368 135.201 125.418C135.419 125.547 135.622 125.664 135.839 125.78C135.933 125.839 136.025 125.885 136.12 125.944C136.306 126.049 136.507 126.152 136.694 126.257C136.802 126.315 136.896 126.374 137.003 126.418C137.188 126.509 137.374 126.614 137.545 126.706C137.653 126.764 137.762 126.822 137.87 126.879C138.041 126.972 138.226 127.063 138.394 127.141C138.503 127.199 138.611 127.257 138.718 127.3C138.888 127.393 139.071 127.47 139.24 127.548C139.349 127.606 139.455 127.649 139.563 127.707C139.732 127.785 139.915 127.862 140.084 127.941C140.19 127.984 140.283 128.03 140.389 128.073C140.572 128.15 140.755 128.226 140.938 128.303C141.031 128.348 141.121 128.38 141.213 128.425C141.412 128.514 141.624 128.587 141.823 128.676C141.883 128.697 141.959 128.73 142.02 128.751C142.55 128.954 143.079 129.143 143.59 129.306C143.665 129.325 143.741 129.358 143.816 129.377C143.995 129.426 144.176 129.488 144.341 129.538C144.432 129.57 144.52 129.587 144.625 129.616C144.774 129.654 144.939 129.704 145.088 129.742C145.193 129.772 145.281 129.789 145.384 129.804C145.533 129.842 145.68 129.866 145.813 129.891C145.916 129.906 146.005 129.924 146.109 129.953C146.242 129.979 146.389 130.002 146.522 130.028C146.625 130.043 146.714 130.06 146.815 130.061C146.946 130.073 147.079 130.098 147.21 130.11C147.299 130.127 147.4 130.128 147.486 130.131C147.618 130.143 147.749 130.154 147.878 130.151C147.965 130.154 148.051 130.157 148.152 130.158C148.282 130.156 148.411 130.153 148.54 130.15C148.625 130.139 148.698 130.144 148.784 130.147C148.841 130.139 148.898 130.132 148.954 130.124C149.51 130.08 150.044 129.981 150.544 129.843L150.144 128.887C150.064 128.711 149.997 128.532 149.93 128.354L149.946 128.366Z" fill="#7EA81A"/>
<path d="M108.073 106.335L104.926 82.502C103.015 82.4231 99.7688 82.3766 96.9524 82.7484C95.1267 82.9895 93.497 83.4063 92.5528 84.1069C88.4199 87.1581 88.2021 91.5066 88.8925 96.844L88.9037 96.9289L88.9149 97.0139C89.6354 102.362 90.9744 106.505 95.7557 108.364C96.8495 108.796 98.5456 108.774 100.357 108.534C103.188 108.161 106.337 107.255 108.164 106.697C108.121 106.588 108.09 106.462 108.075 106.349L108.073 106.335Z" fill="#94C437"/>
<path d="M159.741 85.315C159.679 84.8479 159.589 84.3846 159.514 83.9195L159.504 83.8487C159.428 83.3835 159.339 82.9202 159.263 82.4551C159.001 81.0209 158.714 79.6045 158.385 78.208L158.38 78.1655C157.947 76.3075 157.476 74.4834 156.954 72.7093C154.73 65.1408 151.653 58.5203 147.897 54.178C152.103 61.0528 150.59 70.4249 148.353 78.0207C151.835 80.1816 154.362 83.8365 154.94 88.2097C155.326 91.1392 154.779 93.9761 153.548 96.4282C156.711 104.463 157.89 113.062 150.265 118.345C149.624 118.833 148.944 119.139 148.231 119.305C149.278 122.32 150.423 125.323 151.663 128.284L152.023 129.158C152.237 129.029 152.432 128.873 152.642 128.716C152.668 128.698 152.693 128.666 152.734 128.646C152.929 128.491 153.11 128.337 153.29 128.17C153.328 128.136 153.353 128.104 153.392 128.07C153.571 127.902 153.749 127.72 153.926 127.538C153.951 127.506 153.976 127.474 154.016 127.454C154.192 127.259 154.368 127.063 154.541 126.852L154.556 126.85C154.727 126.626 154.887 126.418 155.059 126.194L155.133 126.097C155.293 125.889 155.45 125.667 155.592 125.432C155.615 125.386 155.654 125.352 155.676 125.306C155.82 125.085 155.976 124.849 156.118 124.614C156.14 124.568 156.165 124.536 156.188 124.489C156.328 124.241 156.482 123.99 156.62 123.727L156.642 123.681C156.781 123.418 156.919 123.155 157.042 122.893C157.067 122.861 157.076 122.817 157.1 122.785C157.224 122.524 157.346 122.249 157.468 121.973C157.491 121.927 157.512 121.867 157.534 121.821C157.656 121.545 157.762 121.258 157.884 120.982C157.907 120.936 157.928 120.876 157.937 120.832C158.055 120.528 158.161 120.24 158.277 119.923L158.298 119.862C158.402 119.56 158.505 119.245 158.609 118.943C158.619 118.913 158.628 118.868 158.652 118.836C158.755 118.52 158.843 118.206 158.943 117.876C158.964 117.816 158.971 117.758 158.991 117.697C159.08 117.383 159.166 117.055 159.252 116.727C159.273 116.666 159.28 116.608 159.302 116.562C159.387 116.219 159.471 115.877 159.541 115.537C159.538 115.508 159.548 115.478 159.558 115.448C159.629 115.108 159.711 114.751 159.78 114.396C159.776 114.368 159.799 114.322 159.795 114.294C159.863 113.939 159.932 113.584 159.998 113.216C160.005 113.157 160.026 113.097 160.032 113.038C160.101 112.684 160.153 112.317 160.207 111.964C160.214 111.906 160.221 111.847 160.241 111.787C160.294 111.42 160.344 111.039 160.395 110.658C160.391 110.63 160.401 110.599 160.41 110.555C160.46 110.174 160.509 109.779 160.545 109.4L160.534 109.315C160.597 108.918 160.631 108.524 160.666 108.131C160.658 108.074 160.679 108.014 160.686 107.956C160.72 107.562 160.755 107.169 160.775 106.777C160.768 106.721 160.788 106.66 160.793 106.588C160.826 106.18 160.844 105.775 160.863 105.369C160.859 105.341 160.855 105.312 160.864 105.268C160.88 104.848 160.911 104.427 160.926 103.993L160.92 103.95C160.937 103.531 160.951 103.097 160.968 102.677C160.961 102.62 160.969 102.576 160.976 102.518C160.978 102.1 160.995 101.68 160.997 101.262C160.99 101.205 160.996 101.147 161.003 101.088C161.004 100.656 161.004 100.224 161.005 99.7922C161.001 99.7639 160.997 99.7356 160.993 99.7073C160.989 98.8007 160.956 97.8979 160.923 96.9951C160.918 96.9526 160.912 96.9102 160.907 96.8677C160.891 96.4234 160.861 95.9809 160.848 95.5507C160.842 95.5083 160.835 95.4517 160.829 95.4092C160.8 94.9667 160.782 94.5083 160.738 94.0677L160.729 93.9969C160.664 93.0695 160.583 92.1298 160.502 91.1902L160.491 91.1052C160.446 90.6505 160.4 90.1957 160.352 89.7268C160.347 89.6844 160.343 89.6561 160.337 89.6136C160.276 89.1466 160.23 88.6918 160.168 88.2248L160.165 88.1965C160.038 87.2341 159.912 86.2859 159.757 85.3273L159.753 85.299L159.741 85.315Z" fill="#94C437"/>
<path d="M184.559 84.2845C183.681 77.6328 178.74 72.2806 171.986 70.6381C171.42 70.4969 170.871 70.483 170.32 70.5558C168.607 70.7819 167.108 71.9734 166.642 73.6765C166.031 75.9171 167.412 78.197 169.748 78.7669C173.05 79.5692 175.455 82.1891 175.883 85.43C176.311 88.671 174.669 91.8253 171.687 93.4573C169.58 94.614 168.823 97.1761 170.01 99.1794C170.902 100.703 172.658 101.465 174.371 101.239C174.909 101.168 175.448 100.996 175.959 100.726C182.07 97.3854 185.437 90.9362 184.559 84.2845Z" fill="#F8A329"/>
<path d="M202.646 81.8963C201.014 69.5411 192.403 59.5042 180.71 56.3395C180.143 56.1841 179.592 56.1561 179.04 56.2289C177.327 56.455 175.84 57.7314 175.391 59.5618C174.802 61.9723 176.209 64.4504 178.554 65.091C186.768 67.3184 192.825 74.3663 193.972 83.0559C195.119 91.7456 191.114 100.122 183.745 104.407C181.647 105.634 180.915 108.38 182.125 110.568C183.034 112.219 184.802 113.065 186.515 112.839C187.052 112.768 187.591 112.596 188.099 112.299C198.57 106.208 204.281 94.2798 202.649 81.9246L202.646 81.8963Z" fill="#E27905"/>
<path d="M143.471 102.338C149.847 101.006 154.205 94.9736 153.34 88.4209C152.475 81.8683 146.7 77.1735 140.197 77.5425C140.593 85.885 141.688 94.1784 143.471 102.338Z" fill="#7EA81A"/>
<path d="M135.641 67.0279C133.94 76.396 123.183 84.0224 127.795 94.1985C131.347 101.246 141.492 111.34 130.396 116.404C128.375 117.348 126.306 117.924 124.244 118.124C124.531 118.331 124.819 118.552 125.106 118.759L125.134 118.755C125.408 118.978 125.679 119.173 125.949 119.367C126.013 119.417 126.062 119.453 126.126 119.503C126.348 119.66 126.57 119.818 126.793 119.976C126.873 120.037 126.953 120.099 127.031 120.146C127.238 120.292 127.444 120.437 127.651 120.583C127.745 120.642 127.827 120.718 127.921 120.777C128.111 120.911 128.318 121.056 128.508 121.189C128.602 121.249 128.699 121.323 128.793 121.382C128.983 121.516 129.188 121.647 129.378 121.78C129.472 121.84 129.569 121.913 129.677 121.971C129.867 122.104 130.072 122.236 130.276 122.367C130.371 122.427 130.465 122.486 130.561 122.56C130.766 122.691 130.972 122.837 131.177 122.968C131.271 123.028 131.349 123.075 131.429 123.136C131.65 123.28 131.87 123.424 132.105 123.566C132.169 123.615 132.245 123.648 132.31 123.697C132.592 123.876 132.875 124.054 133.158 124.233L133.186 124.229C133.487 124.434 133.798 124.609 134.097 124.8L134.125 124.796C134.41 124.989 134.691 125.154 134.97 125.304C135.048 125.351 135.124 125.384 135.188 125.434C135.407 125.563 135.61 125.68 135.827 125.796C135.921 125.855 136.013 125.901 136.107 125.96C136.294 126.065 136.495 126.168 136.682 126.273C136.79 126.331 136.884 126.39 136.991 126.434C137.176 126.525 137.362 126.63 137.533 126.722C137.641 126.78 137.75 126.838 137.858 126.895C138.029 126.988 138.213 127.079 138.382 127.157C138.491 127.215 138.599 127.273 138.706 127.316C138.876 127.409 139.059 127.486 139.228 127.564C139.336 127.622 139.443 127.665 139.551 127.723C139.72 127.802 139.903 127.878 140.072 127.957C140.178 128 140.271 128.046 140.377 128.089C140.56 128.166 140.743 128.242 140.926 128.319C141.018 128.364 141.109 128.396 141.201 128.441C141.4 128.53 141.611 128.603 141.81 128.692C141.871 128.713 141.947 128.746 142.007 128.767C142.538 128.97 143.067 129.159 143.578 129.322C143.653 129.341 143.729 129.374 143.804 129.393C143.983 129.442 144.164 129.504 144.329 129.554C144.419 129.586 144.508 129.603 144.613 129.632C144.762 129.67 144.927 129.72 145.076 129.758C145.18 129.788 145.269 129.805 145.372 129.82C145.521 129.858 145.668 129.882 145.801 129.907C145.904 129.922 145.992 129.94 146.097 129.969C146.23 129.995 146.377 130.018 146.51 130.044C146.613 130.059 146.702 130.076 146.803 130.077C146.934 130.089 147.067 130.115 147.198 130.126C147.286 130.143 147.387 130.144 147.474 130.147C147.605 130.159 147.736 130.17 147.866 130.167C147.952 130.17 148.039 130.173 148.14 130.174C148.269 130.172 148.399 130.169 148.528 130.166C148.613 130.155 148.685 130.16 148.772 130.163C148.829 130.155 148.885 130.148 148.942 130.14C149.498 130.096 150.032 129.997 150.532 129.859L150.132 128.903C150.051 128.727 149.985 128.548 149.918 128.37C139.738 103.839 136.203 77.062 139.666 50.7291C139.74 50.201 139.799 49.6605 139.887 49.1305C139.336 49.1024 138.78 49.147 138.192 49.2679C138.093 49.281 137.981 49.3101 137.884 49.3373C137.799 49.3485 137.716 49.3739 137.633 49.3993C137.52 49.4142 137.41 49.4575 137.299 49.4866C137.214 49.4978 137.133 49.5373 137.064 49.5608C136.94 49.6059 136.829 49.635 136.705 49.6802C136.636 49.7036 136.553 49.729 136.486 49.7667C136.363 49.8118 136.227 49.8729 136.089 49.9199C136.02 49.9434 135.953 49.9811 135.884 50.0046C135.748 50.0657 135.598 50.1287 135.462 50.1899C135.408 50.2115 135.341 50.2491 135.286 50.2708C135.138 50.3479 134.989 50.4251 134.827 50.5041C134.772 50.5258 134.719 50.5615 134.679 50.5813C134.517 50.6603 134.356 50.7535 134.196 50.8467C134.155 50.8665 134.116 50.9004 134.061 50.922C133.887 51.0171 133.714 51.1263 133.541 51.2355C133.501 51.2552 133.474 51.2731 133.434 51.2929C133.247 51.404 133.062 51.5292 132.875 51.6403L132.81 51.6921C132.61 51.8192 132.425 51.9444 132.228 52.0856L132.189 52.1196C131.992 52.2608 131.78 52.4039 131.571 52.5612L131.543 52.5649C131.335 52.7364 131.125 52.8936 130.901 53.0528C130.679 53.2261 130.47 53.3833 130.248 53.5566C133.359 57.5953 136.418 61.6839 135.627 67.0297L135.641 67.0279Z" fill="#94C437"/>
<path d="M118.17 103.202C117.548 103.284 117.675 104.246 118.297 104.164C118.92 104.082 118.793 103.12 118.17 103.202Z" fill="white"/>
<path d="M137.156 119.947C136.534 120.029 136.661 120.991 137.283 120.909C137.906 120.827 137.779 119.865 137.156 119.947Z" fill="white"/>
<path d="M137.207 93.287C137.83 93.2048 137.703 92.2424 137.08 92.3246C136.457 92.4068 136.584 93.3692 137.207 93.287Z" fill="white"/>
<path d="M120.267 82.55C119.644 82.6322 119.771 83.5946 120.394 83.5123C121.017 83.4301 120.89 82.4677 120.267 82.55Z" fill="white"/>
<path d="M132.065 64.9226C131.443 65.0048 131.57 65.9672 132.192 65.885C132.815 65.8027 132.688 64.8404 132.065 64.9226Z" fill="white"/>
<path d="M101.93 87.1887C101.307 87.2709 101.434 88.2333 102.057 88.1511C102.68 88.0689 102.553 87.1065 101.93 87.1887Z" fill="white"/>
<path d="M101.635 99.0207C101.012 99.1029 101.139 100.065 101.762 99.983C102.385 99.9008 102.258 98.9384 101.635 99.0207Z" fill="white"/>
<path d="M132.565 58.3479C133.202 57.5007 132.164 56.3994 131.278 56.9916C123.54 62.4051 115.911 71.26 111.916 79.8224C111.481 80.7869 112.757 81.612 113.476 80.8404C115.152 79.035 116.791 77.1627 118.404 75.3082C123.027 69.8597 128.288 64.0101 132.578 58.3319L132.565 58.3479Z" fill="white"/>
<path d="M110.918 85.4267C111.939 85.1874 112.573 84.1658 112.334 83.1449C112.094 82.1239 111.073 81.4903 110.052 81.7296C109.031 81.9689 108.397 82.9905 108.637 84.0114C108.876 85.0323 109.897 85.666 110.918 85.4267Z" fill="white"/>
<path d="M176.861 94.6893C177.484 94.6071 177.356 93.6447 176.734 93.7269C176.111 93.8091 176.238 94.7715 176.861 94.6893Z" fill="#FAA92B"/>
<path d="M181.081 82.483C181.704 82.4008 181.577 81.4384 180.954 81.5207C180.331 81.6029 180.458 82.5653 181.081 82.483Z" fill="#FAA92B"/>
<path d="M171.698 74.0168C171.075 74.099 171.202 75.0614 171.825 74.9791C172.448 74.8969 172.321 73.9345 171.698 74.0168Z" fill="#FAA92B"/>
<path d="M182.964 62.3923C182.341 62.4745 182.468 63.4369 183.091 63.3547C183.713 63.2725 183.586 62.3101 182.964 62.3923Z" fill="#FAA92B"/>
<path d="M195.297 71.0592C195.92 70.9769 195.793 70.0146 195.17 70.0968C194.547 70.179 194.674 71.1414 195.297 71.0592Z" fill="#FAA92B"/>
<path d="M197.821 90.1793C198.444 90.0971 198.317 89.1347 197.694 89.217C197.072 89.2992 197.199 90.2616 197.821 90.1793Z" fill="#FAA92B"/>
<path d="M196.698 101.962C197.321 101.88 197.194 100.918 196.571 101C195.949 101.082 196.076 102.045 196.698 101.962Z" fill="#FAA92B"/>
<path d="M187.1 106.916C186.478 106.998 186.605 107.96 187.227 107.878C187.85 107.796 187.723 106.834 187.1 106.916Z" fill="#FAA92B"/>
<path d="M199.528 81.9481C200.151 81.8658 200.024 80.9035 199.401 80.9857C198.778 81.0679 198.905 82.0303 199.528 81.9481Z" fill="#94C437"/>
<path d="M193.8 100.948C194.423 100.866 194.296 99.9036 193.673 99.9858C193.05 100.068 193.177 101.03 193.8 100.948Z" fill="#FAA92B"/>
</g>
<path d="M88.3053 150.548C94.9097 140.161 205.329 124.305 218.757 130.702C232.187 137.106 79.3541 164.631 88.3053 150.548Z" fill="#F8A329"/>
<path d="M157.565 180.224C156.627 183.039 187.533 344.98 187.533 344.98L192.22 345.449L165.531 171.782C165.531 171.782 159.439 174.596 157.565 180.224Z" fill="#F8A329"/>
<path d="M126.336 9.80547C124.966 12.5475 129.549 21.473 129.549 21.473L141.604 19.0597C141.604 19.0597 141.604 11.8168 140.797 8.60106C139.996 5.38232 127.138 8.1961 126.335 9.80697L126.336 9.80547Z" fill="#F8A329"/>
<path d="M239.755 12.1187C242.77 3.97021 255.728 0.956196 263.563 11.5105C260.85 15.1342 247.892 19.3571 243.672 15.4375C253.016 24.1837 236.134 30.8199 236.134 30.8199C229.491 19.9518 234.631 14.8293 234.631 14.8293C219.562 13.8267 222.376 2.56407 222.376 2.56407C229.408 -1.86356 238.85 3.67135 239.755 12.1187Z" fill="#7EA81A" stroke="#455E00" stroke-width="2" stroke-linecap="round" stroke-linejoin="round"/>
<path d="M237.694 11.0234C237.821 3.96431 230.103 1.64365 225.197 3.20222C230.566 8.28286 237.694 11.0234 237.694 11.0234Z" fill="#94C437"/>
<path d="M238.445 14.2316C232.819 15.2373 231.617 22.676 236.237 27.3023C240.658 25.8977 238.445 14.2316 238.445 14.2316Z" fill="#94C437"/>
<path d="M241.625 12.147C242.427 4.50215 256.492 4.90561 259.708 10.7379C252.274 15.9665 244.036 15.5675 241.625 12.147Z" fill="#94C437"/>
<path d="M16.8496 118.391C8.27164 114.464 16.5346 100.594 22.2926 101.294C25.2648 108.741 24.1362 119.648 16.8496 118.391Z" fill="#7EA81A" stroke="#455E00" stroke-width="2" stroke-linecap="round" stroke-linejoin="round"/>
<path d="M23.1075 133.565C26.4605 125.906 24.9751 117.805 16.8495 118.389C8.72832 118.972 11.7006 126.415 23.1075 133.565Z" fill="#7EA81A" stroke="#455E00" stroke-width="2" stroke-linecap="round" stroke-linejoin="round"/>
<path d="M14.2446 117.261C5.12319 115.091 0.314693 121.368 1.07904 131.802C9.5107 131.509 17.9842 123.271 14.2446 117.261Z" fill="#7EA81A" stroke="#455E00" stroke-width="2" stroke-linecap="round" stroke-linejoin="round"/>
<path d="M12.5098 118.223C10.26 115.522 2.85992 118.156 3.02115 128.613C7.32805 125.244 15.4462 121.744 12.5098 118.223Z" fill="#94C437"/>
<path d="M20.1665 103.515C13.6293 106.357 11.2392 112.88 16.5463 115.111C21.8505 117.342 20.1665 103.515 20.1665 103.515Z" fill="#94C437"/>
<path d="M178.693 345.186C179.455 333.723 165.411 332.68 162.702 333.777C159.992 334.874 154.269 344.42 152.362 344.804C150.453 345.186 156.444 329.27 160.376 327.616C167.749 324.512 177.551 333.347 177.551 333.347C177.164 324.559 165.538 320.109 165.538 320.109C175.89 314.251 182.128 327.616 182.128 331.055C180.219 319.977 185.353 310.603 194.686 309.12C190.106 315.23 186.325 334.109 186.325 334.109C187.85 327.999 194.198 318.411 198.505 317.864C201.076 317.537 216.091 321.884 216.471 324.179C216.855 326.468 203.245 322.269 200.699 323.416C198.156 324.559 190.903 336.398 190.903 336.398C190.903 336.398 197.239 330.316 203.497 331.055C208.044 331.589 215.326 339.071 215.709 341.367C209.985 339.458 208.068 337 205.018 337.081C201.971 337.163 195.48 345.186 195.48 345.186C192.429 348.241 191.284 347.441 191.284 347.441C188.994 352.029 185.944 347.093 185.944 347.093C182.509 350.533 179.075 348.242 178.693 345.186Z" fill="#5C8E04" stroke="#374F03" stroke-width="2" stroke-linecap="round" stroke-linejoin="round"/>
<path d="M161.139 328.209C159 327.231 154.578 336.655 153.29 341.111C157.741 336.773 165.241 330.086 161.139 328.209Z" fill="#77A80C"/>
<path d="M170.748 320.119C176.609 319.765 182.117 327.271 183.051 340.525C179.302 328.913 175.085 322.346 170.748 320.119Z" fill="#77A80C"/>
<path d="M190.668 311.908C181.996 315.076 181.177 332.668 183.05 341.933C185.041 331.377 185.277 320.472 190.668 311.908Z" fill="#77A80C"/>
<path d="M184.81 340.292C184.459 333.958 197.562 319.179 198.916 318.829C200.276 318.475 200.509 321.291 199.453 321.994C198.402 322.7 185.044 342.873 184.81 340.292Z" fill="#77A80C"/>
<path d="M189.806 341.933C188.416 337.894 198.753 331.848 202.152 331.377C205.548 330.91 206.133 333.489 201.211 335.597C196.291 337.709 190.666 344.436 189.804 341.933H189.806Z" fill="#77A80C"/>
<defs>
<filter id="filter0_d_1_4686" x="82.9617" y="47.5156" width="125.587" height="92.2679" filterUnits="userSpaceOnUse" color-interpolation-filters="sRGB">
<feFlood flood-opacity="0" result="BackgroundImageFix"/>
<feColorMatrix in="SourceAlpha" type="matrix" values="0 0 0 0 0 0 0 0 0 0 0 0 0 0 0 0 0 0 127 0" result="hardAlpha"/>
<feOffset dy="4"/>
<feGaussianBlur stdDeviation="2"/>
<feComposite in2="hardAlpha" operator="out"/>
<feColorMatrix type="matrix" values="0 0 0 0 0 0 0 0 0 0 0 0 0 0 0 0 0 0 0.25 0"/>
<feBlend mode="normal" in2="BackgroundImageFix" result="effect1_dropShadow_1_4686"/>
<feBlend mode="normal" in="SourceGraphic" in2="effect1_dropShadow_1_4686" result="shape"/>
</filter>
</defs>
</svg>
