<svg width="844" height="390" viewBox="0 0 844 390" fill="none" xmlns="http://www.w3.org/2000/svg">
<path d="M-16 -26H853V402H-16V-26Z" fill="#A8E2E4"/>
<g opacity="0.65">
<path d="M775.32 257.319H715.734L693.986 290.462L668.298 292.261L609.916 239.057L521.102 234.998L511.396 276.934L502.857 277.827L493.845 251.678L477.753 252.124L453.16 294.52L434.915 294.966L430.646 289.555L401.929 290.002L395.836 299.471L336.687 227.328H267.066V247.471L167.014 250.772L136.764 263.406L59.0796 250.772L20 289.88V406.651L841 401.591V279.41L811.809 286.85L775.32 257.319Z" fill="#4F91CB" fill-opacity="0.21"/>
<path d="M772.291 264.902L761.929 265.132L767.329 324.883L712.085 339.141L695.044 302.103H662.825L605.647 249.575L580.871 250.021L632.101 322.394L557.299 318.458L537.157 290.509L493.845 291.281L490.707 264.685L485.781 260.397L465.018 311.356L434.915 311.802L427.581 298.071L412.876 313.385L394.011 314.508L329.243 237.63L301.877 240.674L336.687 308.42L273.452 276.522L121.257 335.705L122.169 276.184L20 310.557V411.988L841 406.929V308.42L821.296 312.925L772.291 264.902Z" fill="white" fill-opacity="0.44"/>
</g>
<path d="M978 393.831V432H-49V372.368C68.915 337.189 241.549 315 433.895 315C662.901 315 863.962 346.453 978 393.831Z" fill="#F0BA7C"/>
<path d="M476.579 -13.0468C508.48 -18.9048 542.318 -22.8349 577.232 -24.6887C593.854 -25.5785 610.908 -26.0234 629.306 -26.0234C644.584 -26.0234 660.454 -25.7268 677.938 -25.1336C712.313 -23.873 746.904 -21.426 779.182 -18.979C792.254 -17.9408 805.381 -16.9027 818.453 -15.8646C823.564 -15.4197 828.728 -15.0489 833.839 -14.6781V-25.356C826.953 -25.9492 820.067 -26.6166 813.235 -27.2098C777.46 -30.4725 740.503 -33.8835 704.136 -36.1081C672.558 -38.036 644.369 -39 617.848 -39C576.263 -39 538.552 -36.7013 502.563 -31.8814C468.241 -27.284 434.242 -20.0912 401.48 -10.5256C372.322 -1.99815 343.273 9.27296 318.688 19.061C266.936 39.8236 216.959 63.2556 170.157 88.7639C115.93 118.276 67.783 149.791 22.8095 185.013C15.0629 191.094 7.47765 197.322 0 203.625L0 239.293C41.6919 201.772 88.7097 167.884 142.506 136.518C168.866 121.243 195.818 107.228 222.554 94.7702C208.137 102.779 193.558 111.529 179.248 120.501C133.576 149.272 90.2698 182.195 50.4607 218.307C32.8694 234.25 16.085 250.934 0.053796 268.212L0.053796 289.197C3.17397 285.786 6.18654 282.375 9.36051 278.964C69.0741 215.564 139.17 160.172 217.713 114.272H217.874V114.198H217.928L218.143 114.05C274.252 81.5712 332.782 54.8764 392.227 34.7813C404.17 31.8893 416.166 29.3682 427.894 27.1436C429.292 26.847 430.583 26.6245 431.928 26.4021L430.906 26.5504C480.506 17.578 533.603 12.9806 588.744 12.9806C602.031 12.9806 615.696 13.2772 629.414 13.7962C638.344 14.167 647.543 14.6119 657.495 15.2051C624.303 18.542 589.658 24.5483 551.571 33.5207C523.92 40.046 495.3 48.1286 464.098 58.3616C437.254 67.1115 409.442 77.122 381.468 88.0224C338.054 104.929 296.362 123.541 257.468 143.266C236.595 153.869 215.13 165.585 193.72 178.117C170.695 191.539 149.661 204.812 129.487 218.678C82.5769 250.86 42.3913 283.561 6.50932 318.709C4.30368 320.86 2.25943 323.01 0.107592 325.161L0.107592 342.957C52.7201 290.457 115.5 243.223 191.406 199.028L190.653 199.399C229.817 176.782 271.562 155.649 314.814 136.592C333.589 128.361 353.601 120.13 375.98 111.454C403.954 100.628 431.552 90.8402 458.073 82.3127C504.445 67.4081 549.957 55.6921 593.317 47.5354L594.446 47.3129H594.877V47.2388C641.625 38.7113 684.017 34.5588 724.417 34.5588C756.641 34.5588 787.843 37.3024 817.269 42.7155L815.279 42.2706C821.358 43.457 827.652 44.7918 834 46.2748V2.52512C812.266 -4.44516 789.726 -10.0807 766.432 -14.3815C729.69 -21.1294 690.956 -24.5404 651.309 -24.5404C641.841 -24.5404 632.05 -24.3179 622.205 -23.9471C573.842 -22.0192 523.274 -14.9747 471.899 -3.03627L471.092 -2.88797C438.061 1.85776 404.546 8.9022 371.462 18.0971C361.725 20.7665 351.826 23.8068 341.981 27.0694C354.139 22.3237 365.221 18.0229 375.927 14.167C407.236 2.74759 441.074 -6.37311 476.633 -13.1209L476.579 -13.0468ZM652.923 -10.3773C691.763 -10.3773 729.905 -7.04049 766.378 -0.366806C786.552 3.41495 806.241 8.23483 824.908 13.8704C823.832 13.6479 822.757 13.4255 821.681 13.2772C805.488 10.1628 788.542 7.1967 771.381 4.45308C737.382 -1.03417 703.706 -5.18669 671.321 -7.78201C658.248 -8.82014 645.391 -9.63581 633.179 -10.1549C639.742 -10.3032 646.413 -10.3773 652.923 -10.3773Z" fill="white" fill-opacity="0.19" style="mix-blend-mode:color-dodge"/>
<path fill-rule="evenodd" clip-rule="evenodd" d="M168.065 62.3216C167.365 64.6248 165.838 66.1238 163.658 67.0708C161.855 67.856 159.98 68.3605 158.033 68.4557C154.393 68.6365 150.976 68.0369 148.335 65.1911C148.225 65.0722 148.045 65.0246 148.035 65.0198C147.017 66.2285 146.16 67.5039 145.056 68.508C141.882 71.3966 138.066 72.2151 133.887 71.6773C131.327 71.349 129.157 70.3354 127.591 68.1987C127.358 67.8798 127.058 67.6086 126.644 67.147C125.264 69.7167 123.042 71.111 120.672 72.3388C118.083 73.676 115.428 74.5659 112.444 74.7039C108.956 74.8705 105.682 73.9282 102.356 73.2668C99.2576 72.6481 96.8402 70.659 94.5417 68.6365C90.2968 64.9008 88.3219 60.1801 88.8121 54.4886C88.8549 53.9937 88.8882 53.4988 88.9358 52.8611C79.1184 53.9033 71.7043 50.3865 66.5648 42.1538C65.9366 42.4774 65.3798 42.8058 64.7898 43.0628C62.3485 44.1526 59.8597 45.1852 57.1472 44.1668C55.1723 43.4244 53.2259 42.5726 51.3414 41.6209C49.9995 40.9499 49.0763 39.784 48.4433 38.3944C46.0259 33.1074 46.7825 28.0821 49.6901 23.2424C49.9281 22.8475 50.2802 22.5048 50.6276 22.1908C53.4781 19.5877 56.8331 18.4789 60.6829 18.8596C61.3111 18.9215 61.944 18.9595 62.5531 19.0024C62.634 18.8644 62.7387 18.7692 62.7435 18.6693C62.753 18.26 62.7149 17.846 62.7197 17.4367C62.7578 14.0723 63.4097 10.8982 65.4941 8.13808C67.7592 5.1448 70.724 3.05569 74.1265 1.61377C78.1619 -0.0993881 82.3068 -1.0321 86.6468 0.576363C87.0038 0.70961 87.4273 0.647739 87.9888 0.690567C87.9508 -0.79417 87.8699 -2.18374 87.8889 -3.57806C87.9222 -5.95745 88.6122 -8.14172 90.3635 -9.81205C93.252 -12.5721 96.6831 -14.0664 100.742 -13.8903C102.08 -13.8332 103.412 -13.6952 104.94 -13.5763C104.93 -14.1426 104.916 -14.7088 104.911 -15.2704C104.854 -21.2664 106.386 -26.7962 109.836 -31.731C112.216 -35.1336 115.471 -37.5272 119.03 -39.5687C121.319 -40.8822 123.77 -41.5341 126.392 -41.8149C129.7 -42.167 132.974 -41.9624 136.252 -41.6531C140.397 -41.2629 144.19 -39.9114 147.321 -37.0894C148.758 -35.795 150.015 -34.3008 151.39 -32.9397C153.156 -31.1933 153.798 -28.9519 154.274 -26.6248C154.388 -26.0681 154.455 -25.5018 154.564 -24.7784C155.054 -25.0211 155.373 -25.1449 155.654 -25.3257C159.204 -27.6099 163.035 -28.0001 167.004 -26.8104C171.582 -25.4399 174.318 -21.2284 172.89 -16.5457C172.776 -16.1841 172.781 -15.7843 172.709 -15.218C173.566 -15.4417 174.237 -15.6083 174.908 -15.7891C178.415 -16.7361 181.78 -16.3935 185.011 -14.7231C187.614 -13.3764 188.975 -11.292 188.875 -8.33685C188.842 -7.34226 188.675 -6.35242 188.575 -5.35784C188.537 -4.9819 188.518 -4.60595 188.471 -4.00635C189.541 -4.30615 190.379 -4.56312 191.221 -4.77727C196.794 -6.19063 202.109 -5.57674 206.982 -2.46926C209.419 -0.913136 211.46 1.13789 213.292 3.39832C214.829 5.29707 215.719 7.41949 215.819 9.85123C215.948 12.9492 215.676 15.9663 213.982 18.6978C213.602 19.3117 213.135 19.9589 213.288 20.8393C213.859 20.9392 214.382 20.9963 214.887 21.1153C217.499 21.7529 219.579 23.014 220.278 25.836C220.683 27.473 221.063 29.1148 221.477 30.8422C221.696 30.8375 222.053 30.8803 222.391 30.8089C226.902 29.881 231.014 31.1135 234.959 33.1693C236.758 34.1067 237.829 35.6058 237.905 37.6663C237.938 38.599 237.852 39.5603 237.657 40.4693C237.015 43.4292 235.897 46.175 234.06 48.6401C232.708 50.4532 231.1 51.8237 228.915 52.4376C228.021 52.6898 227.378 53.1657 226.826 53.9271C225.679 55.507 224.109 56.5206 222.187 56.9108C217.18 57.9245 212.507 57.0298 208.148 54.4077C207.606 54.0794 207.073 53.7272 206.701 53.4893C205.045 54.2078 203.642 55.0359 202.128 55.4166C200.572 55.8116 198.907 55.7735 197.041 55.9448C196.846 56.1923 196.494 56.6586 196.123 57.1107C194.157 59.4996 192.025 61.8029 188.965 62.6356C186.262 63.3685 183.431 63.6207 180.652 64.0823C180.538 64.1014 180.414 64.0823 180.3 64.0538C176.569 63.2971 172.662 63.2162 169.255 61.1985C169.112 61.1176 168.917 61.1271 168.565 61.0652C168.365 61.5459 168.179 61.9123 168.06 62.293L168.065 62.3216ZM66.9931 26.5403C65.6416 24.8366 64.3377 23.1949 62.8577 21.3294C62.6102 21.2675 62.0439 21.1391 61.4919 20.9677C58.4749 20.0303 55.6814 20.5157 53.0784 22.2478C51.4652 23.3186 50.6847 24.9984 50.0328 26.6926C48.6147 30.3806 48.7051 34.0734 50.5087 37.6378C50.8418 38.2992 51.2986 38.9988 51.8792 39.4271C53.835 40.8642 56.005 41.9445 58.3987 42.4394C61.1207 43.0009 63.5001 42.1158 65.6654 40.493C66.2174 40.079 66.7932 39.7031 67.5546 39.1796C67.9401 39.7745 68.3541 40.1932 68.5111 40.6929C69.2107 42.9295 70.6669 44.5761 72.4562 45.9942C73.4222 46.7604 74.3597 47.5836 75.3876 48.2594C76.3679 48.8971 77.3958 49.6109 78.5046 49.8583C80.903 50.3961 83.3538 50.7102 85.795 51.029C88.3981 51.3669 90.6347 50.3675 92.7238 48.9256C93.2378 48.5687 93.8041 48.2927 94.2704 48.0214C95.2317 48.6115 95.0842 49.1873 94.5226 49.6965C93.9563 50.2057 93.3567 50.7102 92.6857 51.0623C91.5674 51.6572 91.182 52.5899 91.0249 53.7748C90.3016 59.2379 92.0528 63.7349 96.2072 67.3088C99.21 69.8976 102.522 71.7915 106.61 72.0628C108.247 72.1722 109.855 72.6481 111.492 72.7576C114.824 72.9717 117.826 71.9248 120.744 70.3354C123.209 68.9934 124.869 67.0994 125.835 64.5154C126.411 62.9735 126.963 61.4174 127.591 59.8946C127.948 59.0285 128.381 58.1814 128.876 57.3867C129.119 57.0013 129.585 56.7586 129.995 56.4159C130.756 57.2582 130.442 57.8959 130.19 58.5574C129.609 60.0945 129.09 61.6601 128.491 63.1924C127.977 64.5059 128.353 65.5718 129.157 66.633C130.199 67.994 131.484 68.8887 133.14 69.3884C135.539 70.1164 137.942 70.145 140.259 69.3693C143.709 68.2177 145.932 65.8764 146.308 62.0932C146.403 61.1271 146.65 60.3514 148.035 60.3895C148.254 60.7797 148.554 61.1985 148.744 61.6649C149.853 64.3583 151.942 65.8526 154.712 66.3665C157.481 66.8805 160.222 66.6426 162.84 65.5147C164.429 64.8295 165.605 63.7397 166.061 62.0027C166.423 60.6275 166.409 59.4282 165.181 58.3337C162.745 56.159 162.188 53.2323 162.311 50.12C162.35 49.1826 162.721 48.4307 163.934 48.0262C164.12 48.464 164.377 48.8352 164.429 49.2302C164.524 49.9868 164.496 50.7577 164.539 51.5191C164.691 54.2364 165.938 56.335 168.17 57.8626C171.03 59.8232 174.118 61.1985 177.625 61.4507C177.744 61.4602 177.868 61.4602 177.973 61.4983C180.89 62.4786 183.797 61.8362 186.691 61.3793C190.693 60.7464 193.215 58.0863 195.257 54.8741C195.542 54.4267 195.461 53.7462 195.561 53.0991C198.026 51.462 197.774 48.8637 197.726 46.3416C197.712 45.5469 197.65 44.7569 197.612 43.9955C199.163 43.7718 199.444 43.8813 199.701 45.0853C200.158 47.1887 200.144 49.2873 199.382 51.3431C199.121 52.0474 198.868 52.7612 198.545 53.6606C200.282 54.2983 201.805 54.0127 203.175 53.1847C204.512 52.3805 205.716 51.3526 207.006 50.4008C207.306 50.5579 207.663 50.6292 207.796 50.8339C209.485 53.5321 212.236 54.4363 215.091 54.9883C217.152 55.388 219.26 55.6593 221.401 55.2262C224.713 54.56 226.203 51.8142 226.427 48.8209C226.469 48.2499 226.427 47.6741 226.427 47.1363C228.016 46.8222 228.435 47.0744 228.554 48.3974C228.616 49.0922 228.554 49.7964 228.554 50.5626C229.529 50.8291 230.186 50.3199 230.819 49.8298C232.537 48.4973 233.717 46.708 234.564 44.7712C235.245 43.2246 235.654 41.5304 235.977 39.8649C236.501 37.1571 235.659 35.6533 233.208 34.4113C231.138 33.3644 228.939 32.7505 226.665 32.3698C224.199 31.9558 221.872 32.4983 219.598 33.3787C218.946 33.6309 218.303 34.0972 217.747 32.9932C220.426 30.0285 219.284 26.9067 217.128 24.5083C214.411 21.4912 211.127 22.7904 208.239 24.7129C207.972 24.5511 207.796 24.4892 207.687 24.3655C207.577 24.2418 207.534 24.061 207.168 23.5185C207.591 23.3186 208.062 23.1806 208.434 22.9046C212.336 20.0017 213.916 16.0139 213.916 11.2551C213.916 8.19518 212.707 5.7206 210.699 3.4697C206.901 -0.789413 202.409 -3.7113 196.565 -3.90165C193.415 -4.00159 190.384 -3.15453 187.623 -1.58413C186.986 -1.22246 186.496 -0.575268 186.001 -0.00897217C185.349 0.728638 184.811 1.58998 183.821 1.85171C183.15 1.53763 183.207 1.12838 183.512 0.666782C184.249 -0.456291 184.992 -1.57937 185.729 -2.70245C186.772 -4.28712 187.057 -6.06213 187.105 -7.92282C187.171 -10.464 185.977 -12.1343 183.726 -13.2051C179.562 -15.18 175.531 -14.9182 171.572 -12.6435C171.149 -12.4008 170.649 -12.2914 169.987 -12.0487C169.935 -12.6911 169.797 -13.0956 169.887 -13.443C170.097 -14.2377 170.382 -15.0134 170.696 -15.7748C172.448 -20.053 170.463 -23.5887 166.371 -25.0449C163.782 -25.9681 161.127 -25.9443 158.566 -25.0307C156.511 -24.2978 154.845 -23.0605 154.488 -20.6145C154.288 -19.244 153.903 -18.7205 153.056 -17.883C152.18 -18.2113 152.48 -18.8823 152.589 -19.5009C153.056 -22.1088 152.604 -24.669 152.128 -27.2102C151.576 -30.1464 149.496 -32.1308 147.531 -34.1628C143.776 -38.0459 139.16 -39.859 133.792 -40.0922C130.67 -40.2302 127.563 -40.4539 124.46 -39.9256C123.537 -39.7686 122.576 -39.6116 121.738 -39.2261C117.398 -37.2227 113.601 -34.5244 110.807 -30.5556C108.794 -27.7003 107.866 -24.4263 107.072 -21.0999C106.291 -17.8354 106.477 -14.5613 107.019 -11.2873C107.138 -10.5735 107.462 -9.77875 106.5 -9.17914C106.296 -9.38853 106.02 -9.55509 105.925 -9.78827C105.368 -11.1302 104.25 -11.7774 102.946 -12.0201C98.9911 -12.7578 95.3364 -12.1867 92.2575 -9.33143C90.7442 -7.92283 90.0589 -6.14304 89.8923 -4.15863C89.721 -2.09332 89.8733 -0.0327606 90.53 1.9469C90.8346 2.86534 90.8108 3.56011 89.6306 3.95985C88.9882 3.63149 88.2648 3.26032 87.5415 2.89865C83.5108 0.90472 79.442 1.22356 75.3876 2.78445C72.8892 3.74572 70.6859 5.18761 68.6967 6.98643C66.1412 9.30872 65.1086 12.2972 64.804 15.6189C64.7374 16.3184 64.7612 17.0322 64.7898 17.7365C64.8802 20.0588 65.5607 22.1289 67.4023 23.6898C68.0257 24.218 68.7015 24.7415 68.4873 25.9074C68.0971 26.0692 67.6403 26.2643 67.0026 26.5355L66.9931 26.5403Z" fill="#485C70"/>
<path fill-rule="evenodd" clip-rule="evenodd" d="M71.4469 33.6686C77.6333 48.8968 95.7167 39.8551 107.614 37.9516C102.945 50.2625 111.911 63.3254 123.023 68.7028C122.352 69.3119 121.6 69.8497 120.738 70.3208C117.821 71.9102 114.818 72.9572 111.487 72.743C109.85 72.6383 108.242 72.1577 106.605 72.0482C102.517 71.777 99.2097 69.883 96.2021 67.2942C92.0429 63.7156 90.2917 59.2186 91.0198 53.7602C91.1768 52.5706 91.5623 51.6426 92.6806 51.0477C93.3468 50.6956 93.9512 50.1912 94.5175 49.682C95.079 49.1728 95.2313 48.597 94.2653 48.0069C93.7942 48.2781 93.2326 48.5541 92.7187 48.911C90.6296 50.3577 88.3929 51.3523 85.7899 51.0144C83.3486 50.6956 80.8979 50.3863 78.4994 49.8438C77.3954 49.5963 76.3627 48.8825 75.3824 48.2448C74.3498 47.5738 73.4171 46.7505 72.451 45.9796C70.6665 44.5663 69.2103 42.9197 68.506 40.6784C68.3489 40.1787 67.9349 39.7599 67.5495 39.1651C66.7881 39.6933 66.2123 40.0692 65.6602 40.4785C63.495 42.1012 61.1204 42.9864 58.3936 42.4248C55.9999 41.9299 53.8347 40.8497 51.874 39.4125C51.2887 38.9842 50.8366 38.2847 50.5035 37.6232C48.9521 34.5633 48.6714 31.4082 49.5232 28.2437C55.1862 33.326 63.5426 34.9773 71.4517 33.6592L71.4469 33.6686Z" fill="#D0F7FF"/>
<path fill-rule="evenodd" clip-rule="evenodd" d="M208.5 41.283C210.879 46.0418 216.59 49.3729 221.825 47.4694C225.156 46.5177 225.632 41.7589 228.011 38.4277C228.011 39.3795 228.487 40.8071 228.963 41.283C231.195 42.1396 233.365 42.2538 235.497 41.9397C235.244 42.9058 234.949 43.8623 234.554 44.7617C233.707 46.6985 232.527 48.4878 230.809 49.8203C230.181 50.3104 229.52 50.8196 228.544 50.5531C228.544 49.7822 228.601 49.0779 228.544 48.3879C228.43 47.0697 228.011 46.8127 226.417 47.1268C226.417 47.6693 226.455 48.2403 226.417 48.8114C226.198 51.8047 224.704 54.5505 221.392 55.2167C219.25 55.645 217.147 55.3785 215.081 54.9788C212.226 54.4268 209.476 53.5226 207.786 50.8244C207.653 50.615 207.296 50.5484 206.996 50.3913C205.707 51.3431 204.503 52.371 203.165 53.1752C201.795 54.0033 200.272 54.2888 198.535 53.6511C198.859 52.7517 199.111 52.0379 199.373 51.3336C199.663 50.5579 199.839 49.7774 199.929 48.9875C203.694 47.8358 206.454 44.5618 208.5 41.2878V41.283Z" fill="#D0F7FF"/>
<path fill-rule="evenodd" clip-rule="evenodd" d="M49.5186 28.2534C55.1815 33.3357 63.5379 34.987 71.447 33.6689C77.6334 48.897 95.7168 39.8553 107.614 37.9518C102.945 50.2627 111.911 63.3256 123.023 68.703C124.27 67.5657 125.202 66.1856 125.83 64.501C126.292 63.2685 126.739 62.0264 127.22 60.7987C127.339 60.4941 127.458 60.1848 127.586 59.8802C127.943 59.0141 128.376 58.1671 128.871 57.3724C129.114 56.9869 129.58 56.7442 129.99 56.4016C130.751 57.2439 130.437 57.8816 130.185 58.543C129.78 59.609 129.409 60.6845 129.019 61.76C134.529 64.0442 141.958 61.7695 143.785 55.5593C149.62 57.7483 158.247 59.9278 163.677 56.5443C162.506 54.6599 162.216 52.4375 162.311 50.1057C162.349 49.1682 162.72 48.4163 163.934 48.0118C164.12 48.4496 164.377 48.8208 164.429 49.2158C164.524 49.9725 164.496 50.7434 164.538 51.5048C164.615 52.823 164.948 53.9936 165.528 55.0263C166.142 56.1208 167.022 57.063 168.169 57.8482C171.029 59.8088 174.118 61.1842 177.625 61.4364C177.744 61.4459 177.868 61.4459 177.972 61.4839C180.59 62.3596 183.198 61.936 185.791 61.5077C186.091 61.4601 186.391 61.4078 186.686 61.3602C190.688 60.7273 193.21 58.0671 195.252 54.855C195.537 54.4076 195.456 53.7271 195.556 53.0799C198.021 51.4429 197.769 48.8446 197.721 46.3225C197.707 45.5278 197.645 44.7378 197.607 43.9764C199.158 43.7527 199.439 43.8622 199.696 45.0661C199.982 46.3748 200.082 47.6835 199.934 48.9779C203.698 47.8263 206.458 44.5522 208.505 41.2782C210.884 46.037 216.595 49.3681 221.829 47.4646C225.16 46.5128 225.636 41.7541 228.016 38.4229C228.016 39.3747 228.492 40.8023 228.968 41.2782C231.199 42.1348 233.369 42.2489 235.501 41.9349C235.677 41.2448 235.834 40.5453 235.968 39.8505C236.386 37.6758 235.925 36.2719 234.454 35.1631C234.098 34.8919 233.679 34.6397 233.203 34.397C231.133 33.35 228.934 32.7362 226.66 32.3555C224.194 31.9414 221.867 32.4839 219.593 33.3643C218.941 33.6165 218.298 34.0829 217.742 32.9789C220.421 30.0141 219.279 26.8924 217.123 24.4939C214.406 21.4769 211.122 22.776 208.234 24.6986C207.967 24.5368 207.791 24.4749 207.681 24.3512C207.572 24.2274 207.529 24.0466 207.163 23.5041C207.348 23.4184 207.543 23.3375 207.734 23.2614C209.775 12.5874 204.041 1.08072 194.628 -3.84463C192.173 -3.62096 189.812 -2.84052 187.623 -1.59372C186.986 -1.23205 186.495 -0.584854 186 -0.0185623C185.349 0.719051 184.811 1.58039 183.821 1.84212C183.15 1.52805 183.207 1.11879 183.512 0.657192C184.249 -0.465881 184.992 -1.58896 185.729 -2.71203C186.438 -3.79228 186.79 -4.96294 186.966 -6.18119C187.047 -6.75224 187.09 -7.33757 187.105 -7.92765C187.171 -10.4688 185.977 -12.1392 183.726 -13.2099C179.562 -15.1848 175.531 -14.9231 171.572 -12.6484C171.148 -12.4057 170.649 -12.2962 169.987 -12.0535C169.935 -12.696 169.797 -13.1005 169.887 -13.4478C170.097 -14.2426 170.382 -15.0182 170.696 -15.7796C171.843 -18.5778 171.381 -21.0476 169.792 -22.8369C165.423 -22.7751 161.107 -21.8994 157.124 -20.1101C156.125 -19.777 155.13 -19.4487 154.131 -19.2774C153.898 -18.7682 153.56 -18.378 153.06 -17.883C152.185 -18.2114 152.484 -18.8824 152.594 -19.501C153.06 -22.1088 152.608 -24.6691 152.132 -27.2103C151.58 -30.1464 149.501 -32.1308 147.535 -34.1628C143.781 -38.046 139.165 -39.8591 133.797 -40.0923C130.675 -40.2303 127.567 -40.4539 124.465 -39.9257C123.541 -39.7687 122.58 -39.6116 121.743 -39.2262C117.403 -37.2227 113.605 -34.5245 110.812 -30.5557C108.799 -27.7004 107.871 -24.4264 107.076 -21.1C106.296 -17.8354 106.481 -14.5614 107.024 -11.2874C107.143 -10.5735 107.466 -9.77883 106.505 -9.17922C106.3 -9.38861 106.024 -9.55516 105.929 -9.78834C105.372 -11.1303 104.254 -11.7775 102.95 -12.0202C98.9956 -12.7578 95.3409 -12.1868 92.262 -9.3315C90.7487 -7.9229 90.0634 -6.14312 89.8968 -4.15871C89.7255 -2.0934 89.8778 -0.0328331 90.5345 1.94682C90.8391 2.86526 90.8153 3.56004 89.6351 3.95977C88.9927 3.63142 88.2693 3.26024 87.546 2.89857C83.5153 0.904644 79.4465 1.22349 75.3921 2.78437C72.8937 3.74564 70.6904 5.18753 68.7012 6.98635C66.1457 9.30864 65.1131 12.2972 64.8085 15.6188C64.7419 16.3183 64.7657 17.0322 64.7943 17.7365C64.8847 20.0587 65.5652 22.1288 67.4068 23.6897C68.0302 24.2179 68.706 24.7414 68.4918 25.9073C68.1016 26.0691 67.6448 26.2642 67.0071 26.5354C65.6556 24.8318 64.3517 23.19 62.8717 21.3246C62.6242 21.2627 62.058 21.1342 61.5059 20.9629C58.4889 20.0254 55.6955 20.5108 53.0924 22.243C51.4792 23.3138 50.6987 24.9936 50.0468 26.6877C49.8469 27.2112 49.6804 27.7299 49.5424 28.2534H49.5186ZM196.817 39.0844C197.031 38.7417 197.422 38.3705 197.802 38.2896C198.549 38.1326 199.025 38.5133 199.04 39.3604C198.587 40.0647 197.955 40.2693 197.236 39.9124C196.998 39.7934 196.722 39.2224 196.812 39.0796L196.817 39.0844ZM176.126 5.23038C176.954 3.56956 178.125 2.99375 179.6 3.61239C179.191 4.90202 178.786 5.28749 177.611 5.65392C177.011 5.83951 176.459 5.92991 176.126 5.22561V5.23038ZM171.686 5.74908C172.1 4.00737 172.999 3.36018 174.589 3.66949C175.051 4.55939 174.489 5.09713 173.832 5.50163C173.185 5.90613 172.486 6.51049 171.686 5.74908ZM168.75 3.77895C169.364 3.69806 169.716 4.06447 169.763 4.69263C169.192 5.38107 168.509 5.51115 167.712 5.08286C167.632 4.32145 168.031 3.87413 168.75 3.77895ZM165.685 40.0694C164.629 42.2061 164.434 42.3489 162.749 42.2204C162.587 40.907 163.173 39.8362 164.248 39.3842C165.009 39.0606 165.452 39.3651 165.69 40.0694H165.685ZM163.829 43.1817C164.476 42.6201 165.076 42.6392 165.714 43.3815C165.057 45.6658 164.467 46.2511 162.778 46.4129C162.216 45.366 162.568 44.281 163.834 43.1817H163.829ZM111.249 -5.01052C111.678 -5.09142 112.206 -5.19136 112.791 -5.29605C113.086 -4.71072 113.31 -4.26339 113.638 -3.6162C113.072 -3.22598 112.572 -2.88335 111.987 -2.47886C111.373 -3.32592 110.764 -3.89222 111.254 -5.00577L111.249 -5.01052ZM100.261 13.6725C100.633 13.1109 101.28 13.1776 102.184 13.8819C101.561 14.9621 101.051 15.2429 100.49 14.8622C100.038 14.5528 99.9664 14.115 100.261 13.6677V13.6725ZM97.6441 8.46159C98.2104 8.50443 98.7291 8.5425 99.1907 8.58056C99.9664 11.2122 99.6904 11.9736 97.9772 12.0878C97.3586 10.9933 97.292 9.83688 97.6441 8.46159ZM93.2756 6.76271C94.9031 6.09648 95.5788 6.6818 95.8691 9.10402C95.4694 9.2563 95.0316 9.42287 94.5176 9.61798C93.8323 8.66146 93.1709 7.88102 93.2756 6.76271Z" fill="white"/>
<path fill-rule="evenodd" clip-rule="evenodd" d="M194.619 -3.83961C195.261 -3.89671 195.904 -3.92527 196.555 -3.90624C202.399 -3.71589 206.892 -0.798742 210.689 3.46513C212.697 5.71603 213.911 8.19059 213.906 11.2505C213.906 16.0045 212.321 19.9971 208.424 22.9C208.215 23.057 207.972 23.1665 207.729 23.2712C209.771 12.5972 204.036 1.0905 194.623 -3.83484L194.619 -3.83961Z" fill="#D0F7FF"/>
<path fill-rule="evenodd" clip-rule="evenodd" d="M143.78 55.5596C149.615 57.7486 158.242 59.9281 163.672 56.5446C164.067 57.1776 164.562 57.7724 165.176 58.3197C166.404 59.4142 166.418 60.6086 166.056 61.9887C165.599 63.7256 164.424 64.8154 162.835 65.5007C160.217 66.6285 157.471 66.8664 154.707 66.3525C151.937 65.8385 149.848 64.3443 148.739 61.6508C148.549 61.1845 148.249 60.7657 148.03 60.3755C146.645 60.3374 146.398 61.1131 146.303 62.0791C145.927 65.8623 143.704 68.2037 140.254 69.3553C137.937 70.131 135.533 70.1024 133.135 69.3743C131.479 68.8747 130.194 67.98 129.152 66.619C128.343 65.5578 127.972 64.4918 128.486 63.1784C128.671 62.7073 128.843 62.2362 129.019 61.7603C134.529 64.0445 141.958 61.7698 143.785 55.5596H143.78Z" fill="#D0F7FF"/>
<path fill-rule="evenodd" clip-rule="evenodd" d="M165.714 43.377C165.081 42.6346 164.477 42.6156 163.829 43.1772C162.564 44.2764 162.211 45.3614 162.773 46.4084C164.467 46.2466 165.052 45.6612 165.709 43.377H165.714Z" fill="#485C70"/>
<path fill-rule="evenodd" clip-rule="evenodd" d="M97.6442 8.46143C97.2921 9.83671 97.3587 10.9931 97.9773 12.0876C99.6905 11.9734 99.9618 11.212 99.1908 8.5804C98.7292 8.54708 98.2105 8.50425 97.6442 8.46143Z" fill="#485C70"/>
<path fill-rule="evenodd" clip-rule="evenodd" d="M162.749 42.2205C164.438 42.349 164.629 42.2062 165.685 40.0695C165.447 39.37 165.005 39.0654 164.243 39.3842C163.173 39.8363 162.582 40.9023 162.744 42.2205H162.749Z" fill="#485C70"/>
<path fill-rule="evenodd" clip-rule="evenodd" d="M179.6 3.61699C178.125 2.99835 176.959 3.5694 176.126 5.23498C176.454 5.93928 177.006 5.84886 177.611 5.66326C178.791 5.29684 179.191 4.91137 179.6 3.62174V3.61699Z" fill="#485C70"/>
<path fill-rule="evenodd" clip-rule="evenodd" d="M94.5222 9.61779C95.0314 9.42268 95.4739 9.25611 95.8737 9.10383C95.5834 6.68637 94.9076 6.09629 93.2801 6.76252C93.1802 7.88083 93.8369 8.66127 94.5222 9.61779Z" fill="#485C70"/>
<path fill-rule="evenodd" clip-rule="evenodd" d="M174.584 3.66966C172.999 3.36034 172.095 4.00753 171.681 5.74925C172.481 6.51065 173.175 5.90629 173.827 5.5018C174.484 5.09254 175.046 4.55956 174.584 3.66966Z" fill="#485C70"/>
<path fill-rule="evenodd" clip-rule="evenodd" d="M199.04 39.3652C199.025 38.5181 198.55 38.1327 197.802 38.2945C197.422 38.3754 197.032 38.7465 196.817 39.0892C196.727 39.2319 197.003 39.803 197.241 39.922C197.96 40.2789 198.588 40.0742 199.044 39.3699L199.04 39.3652Z" fill="#485C70"/>
<path fill-rule="evenodd" clip-rule="evenodd" d="M102.184 13.8819C101.28 13.1776 100.633 13.111 100.262 13.6725C99.9667 14.1198 100.038 14.5577 100.49 14.867C101.052 15.2477 101.561 14.9621 102.184 13.8866V13.8819Z" fill="#485C70"/>
<path fill-rule="evenodd" clip-rule="evenodd" d="M169.763 4.69286C169.721 4.0647 169.369 3.69828 168.75 3.77918C168.031 3.87436 167.632 4.31692 167.712 5.08308C168.509 5.51137 169.192 5.3813 169.763 4.69286Z" fill="#485C70"/>
<path fill-rule="evenodd" clip-rule="evenodd" d="M851.314 199.375C850.615 201.678 849.087 203.177 846.908 204.124C845.104 204.909 843.229 205.414 841.283 205.509C837.642 205.69 834.226 205.09 831.584 202.244C831.475 202.125 831.294 202.078 831.285 202.073C830.266 203.282 829.41 204.557 828.306 205.561C825.132 208.45 821.315 209.268 817.137 208.731C814.577 208.402 812.407 207.389 810.841 205.252C810.608 204.933 810.308 204.662 809.894 204.2C808.514 206.77 806.292 208.164 803.922 209.392C801.333 210.729 798.677 211.619 795.694 211.757C792.206 211.924 788.931 210.981 785.605 210.32C782.507 209.701 780.09 207.712 777.791 205.69C773.546 201.954 771.571 197.233 772.062 191.542C772.104 191.047 772.138 190.552 772.185 189.914C762.368 190.957 754.954 187.44 749.814 179.207C749.186 179.531 748.629 179.859 748.039 180.116C745.598 181.206 743.109 182.238 740.397 181.22C738.422 180.478 736.475 179.626 734.591 178.674C733.249 178.003 732.326 176.837 731.693 175.448C729.275 170.161 730.032 165.135 732.94 160.296C733.178 159.901 733.53 159.558 733.877 159.244C736.728 156.641 740.083 155.532 743.932 155.913C744.561 155.975 745.194 156.013 745.803 156.056C745.884 155.918 745.988 155.822 745.993 155.722C746.003 155.313 745.964 154.899 745.969 154.49C746.007 151.125 746.659 147.951 748.744 145.191C751.009 142.198 753.973 140.109 757.376 138.667C761.411 136.954 765.556 136.021 769.896 137.63C770.253 137.763 770.677 137.701 771.238 137.744C771.2 136.259 771.119 134.869 771.138 133.475C771.172 131.096 771.862 128.911 773.613 127.241C776.502 124.481 779.933 122.987 783.992 123.163C785.329 123.22 786.662 123.358 788.189 123.477C788.18 122.911 788.165 122.344 788.161 121.783C788.103 115.787 789.636 110.257 793.086 105.322C795.465 101.92 798.72 99.526 802.28 97.4845C804.569 96.1711 807.02 95.5191 809.642 95.2383C812.949 94.8862 816.223 95.0908 819.502 95.4001C823.647 95.7904 827.44 97.1419 830.571 99.9638C832.008 101.258 833.264 102.752 834.64 104.113C836.405 105.86 837.048 108.101 837.523 110.428C837.638 110.985 837.704 111.551 837.814 112.275C838.304 112.032 838.623 111.908 838.903 111.728C842.454 109.443 846.284 109.053 850.253 110.243C854.831 111.613 857.567 115.825 856.14 120.507C856.026 120.869 856.03 121.269 855.959 121.835C856.816 121.612 857.487 121.445 858.158 121.264C861.665 120.317 865.029 120.66 868.26 122.33C870.863 123.677 872.224 125.761 872.125 128.716C872.091 129.711 871.925 130.701 871.825 131.695C871.787 132.071 871.768 132.447 871.72 133.047C872.791 132.747 873.628 132.49 874.471 132.276C880.043 130.863 885.359 131.476 890.232 134.584C892.668 136.14 894.71 138.191 896.542 140.452C898.079 142.35 898.969 144.473 899.069 146.904C899.197 150.002 898.926 153.019 897.232 155.751C896.851 156.365 896.385 157.012 896.537 157.892C897.108 157.992 897.632 158.05 898.136 158.168C900.749 158.806 902.828 160.067 903.528 162.889C903.932 164.526 904.313 166.168 904.727 167.895C904.946 167.891 905.303 167.934 905.641 167.862C910.152 166.934 914.264 168.167 918.209 170.222C920.007 171.16 921.078 172.659 921.154 174.72C921.188 175.652 921.102 176.614 920.907 177.522C920.264 180.482 919.146 183.228 917.309 185.693C915.958 187.506 914.349 188.877 912.165 189.491C911.27 189.743 910.628 190.219 910.076 190.98C908.929 192.56 907.359 193.574 905.436 193.964C900.43 194.978 895.757 194.083 891.398 191.461C890.855 191.133 890.322 190.78 889.951 190.542C888.295 191.261 886.891 192.089 885.378 192.47C883.822 192.865 882.156 192.827 880.291 192.998C880.095 193.245 879.743 193.712 879.372 194.164C877.407 196.553 875.275 198.856 872.215 199.689C869.512 200.422 866.68 200.674 863.901 201.136C863.787 201.155 863.663 201.136 863.549 201.107C859.818 200.35 855.911 200.269 852.504 198.252C852.361 198.171 852.166 198.18 851.814 198.118C851.614 198.599 851.429 198.966 851.31 199.346L851.314 199.375ZM750.243 163.594C748.891 161.89 747.587 160.248 746.107 158.383C745.86 158.321 745.293 158.192 744.741 158.021C741.724 157.083 738.931 157.569 736.328 159.301C734.715 160.372 733.934 162.052 733.282 163.746C731.864 167.434 731.955 171.127 733.758 174.691C734.091 175.352 734.548 176.052 735.129 176.48C737.085 177.917 739.255 178.998 741.648 179.493C744.37 180.054 746.75 179.169 748.915 177.546C749.467 177.132 750.043 176.756 750.804 176.233C751.19 176.828 751.604 177.246 751.761 177.746C752.46 179.983 753.916 181.629 755.706 183.047C756.672 183.814 757.609 184.637 758.637 185.313C759.617 185.95 760.645 186.664 761.754 186.912C764.153 187.449 766.603 187.763 769.045 188.082C771.648 188.42 773.884 187.421 775.973 185.979C776.487 185.622 777.054 185.346 777.52 185.075C778.481 185.665 778.334 186.241 777.772 186.75C777.206 187.259 776.606 187.763 775.935 188.116C774.817 188.71 774.431 189.643 774.274 190.828C773.551 196.291 775.302 200.788 779.457 204.362C782.46 206.951 785.772 208.845 789.859 209.116C791.496 209.225 793.105 209.701 794.742 209.811C798.073 210.025 801.076 208.978 803.993 207.389C806.458 206.047 808.119 204.153 809.085 201.569C809.661 200.027 810.213 198.471 810.841 196.948C811.198 196.082 811.631 195.235 812.126 194.44C812.368 194.054 812.835 193.812 813.244 193.469C814.006 194.311 813.691 194.949 813.439 195.611C812.859 197.148 812.34 198.713 811.74 200.246C811.226 201.559 811.602 202.625 812.407 203.686C813.449 205.047 814.734 205.942 816.39 206.442C818.788 207.17 821.191 207.198 823.509 206.423C826.959 205.271 829.181 202.93 829.557 199.146C829.652 198.18 829.9 197.405 831.285 197.443C831.504 197.833 831.803 198.252 831.994 198.718C833.103 201.412 835.192 202.906 837.961 203.42C840.731 203.934 843.472 203.696 846.089 202.568C847.679 201.883 848.854 200.793 849.311 199.056C849.673 197.681 849.658 196.481 848.431 195.387C845.994 193.212 845.437 190.286 845.561 187.173C845.599 186.236 845.97 185.484 847.184 185.079C847.369 185.517 847.626 185.888 847.679 186.283C847.774 187.04 847.745 187.811 847.788 188.572C847.94 191.29 849.187 193.388 851.419 194.916C854.279 196.876 857.368 198.252 860.875 198.504C860.994 198.513 861.117 198.513 861.222 198.552C864.139 199.532 867.047 198.889 869.94 198.433C873.942 197.8 876.465 195.139 878.506 191.927C878.792 191.48 878.711 190.799 878.811 190.152C881.276 188.515 881.023 185.917 880.976 183.395C880.962 182.6 880.9 181.81 880.862 181.049C882.413 180.825 882.694 180.935 882.951 182.138C883.408 184.242 883.393 186.34 882.632 188.396C882.37 189.101 882.118 189.814 881.794 190.714C883.531 191.351 885.054 191.066 886.425 190.238C887.762 189.434 888.966 188.406 890.255 187.454C890.555 187.611 890.912 187.682 891.045 187.887C892.735 190.585 895.485 191.49 898.341 192.042C900.401 192.441 902.509 192.713 904.651 192.279C907.963 191.613 909.452 188.867 909.676 185.874C909.719 185.303 909.676 184.727 909.676 184.19C911.266 183.875 911.684 184.128 911.803 185.451C911.865 186.145 911.803 186.85 911.803 187.616C912.779 187.882 913.436 187.373 914.068 186.883C915.786 185.551 916.967 183.761 917.814 181.824C918.494 180.278 918.903 178.584 919.227 176.918C919.75 174.21 918.908 172.707 916.457 171.465C914.387 170.418 912.189 169.804 909.914 169.423C907.449 169.009 905.122 169.551 902.847 170.432C902.195 170.684 901.553 171.15 900.996 170.046C903.675 167.082 902.533 163.96 900.377 161.561C897.66 158.544 894.377 159.844 891.488 161.766C891.222 161.604 891.045 161.542 890.936 161.419C890.827 161.295 890.784 161.114 890.417 160.572C890.841 160.372 891.312 160.234 891.683 159.958C895.585 157.055 897.165 153.067 897.165 148.308C897.165 145.248 895.957 142.774 893.948 140.523C890.151 136.264 885.658 133.342 879.815 133.152C876.664 133.052 873.633 133.899 870.873 135.469C870.235 135.831 869.745 136.478 869.25 137.044C868.598 137.782 868.061 138.643 867.071 138.905C866.4 138.591 866.457 138.182 866.761 137.72C867.499 136.597 868.241 135.474 868.979 134.351C870.021 132.766 870.307 130.991 870.354 129.13C870.421 126.589 869.226 124.919 866.976 123.848C862.812 121.873 858.781 122.135 854.822 124.41C854.398 124.652 853.898 124.762 853.237 125.005C853.185 124.362 853.047 123.958 853.137 123.61C853.346 122.815 853.632 122.04 853.946 121.278C855.697 117 853.713 113.464 849.62 112.008C847.031 111.085 844.376 111.109 841.816 112.023C839.76 112.755 838.094 113.993 837.738 116.439C837.538 117.809 837.152 118.333 836.305 119.17C835.43 118.842 835.729 118.171 835.839 117.552C836.305 114.944 835.853 112.384 835.377 109.843C834.825 106.907 832.746 104.922 830.78 102.89C827.026 99.0073 822.41 97.1942 817.042 96.961C813.92 96.823 810.812 96.5994 807.71 97.1276C806.786 97.2846 805.825 97.4417 804.988 97.8271C800.648 99.8306 796.85 102.529 794.057 106.498C792.044 109.353 791.116 112.627 790.321 115.953C789.541 119.218 789.726 122.492 790.269 125.766C790.388 126.48 790.711 127.274 789.75 127.874C789.545 127.665 789.269 127.498 789.174 127.265C788.617 125.923 787.499 125.276 786.195 125.033C782.241 124.295 778.586 124.867 775.507 127.722C773.994 129.13 773.308 130.91 773.142 132.895C772.971 134.96 773.123 137.02 773.78 139C774.084 139.919 774.06 140.613 772.88 141.013C772.238 140.685 771.514 140.314 770.791 139.952C766.76 137.958 762.692 138.277 758.637 139.838C756.139 140.799 753.935 142.241 751.946 144.04C749.391 146.362 748.358 149.35 748.054 152.672C747.987 153.372 748.011 154.085 748.039 154.79C748.13 157.112 748.81 159.182 750.652 160.743C751.275 161.271 751.951 161.795 751.737 162.961C751.347 163.122 750.89 163.317 750.252 163.589L750.243 163.594Z" fill="#485C70"/>
<path fill-rule="evenodd" clip-rule="evenodd" d="M754.697 170.722C760.883 185.95 778.967 176.908 790.864 175.005C786.195 187.316 795.161 200.379 806.273 205.756C805.602 206.365 804.85 206.903 803.988 207.374C801.071 208.963 798.068 210.01 794.737 209.796C793.1 209.692 791.492 209.211 789.855 209.101C785.767 208.83 782.46 206.936 779.452 204.347C775.293 200.769 773.542 196.272 774.27 190.813C774.427 189.624 774.812 188.696 775.931 188.101C776.597 187.749 777.201 187.244 777.767 186.735C778.329 186.226 778.481 185.65 777.515 185.06C777.044 185.331 776.483 185.607 775.969 185.964C773.88 187.411 771.643 188.406 769.04 188.068C766.599 187.749 764.148 187.44 761.749 186.897C760.645 186.65 759.613 185.936 758.632 185.298C757.6 184.627 756.667 183.804 755.701 183.033C753.916 181.619 752.46 179.973 751.756 177.732C751.599 177.232 751.185 176.813 750.799 176.218C750.038 176.747 749.462 177.122 748.91 177.532C746.745 179.154 744.37 180.04 741.644 179.478C739.25 178.983 737.085 177.903 735.124 176.466C734.539 176.037 734.087 175.338 733.754 174.676C732.202 171.617 731.921 168.461 732.773 165.297C738.436 170.379 746.793 172.031 754.702 170.712L754.697 170.722Z" fill="#CEF6FF"/>
<path fill-rule="evenodd" clip-rule="evenodd" d="M837.362 117.78C837.528 117.424 837.642 117.005 837.723 116.439C838.08 113.993 839.746 112.755 841.802 112.022C844.362 111.109 847.017 111.09 849.606 112.008C851.024 112.513 852.18 113.274 853.027 114.221C848.659 114.283 844.343 115.158 840.36 116.948C839.36 117.281 838.366 117.609 837.366 117.78H837.362Z" fill="#CEF6FF"/>
<path fill-rule="evenodd" clip-rule="evenodd" d="M732.768 165.307C738.431 170.389 746.787 172.04 754.697 170.722C760.883 185.95 778.966 176.908 790.863 175.005C786.195 187.316 795.16 200.379 806.272 205.756C807.519 204.619 808.452 203.239 809.08 201.554C809.542 200.322 809.989 199.08 810.469 197.852C810.588 197.547 810.707 197.238 810.836 196.933C811.193 196.067 811.626 195.22 812.121 194.426C812.363 194.04 812.83 193.797 813.239 193.455C814.001 194.297 813.686 194.935 813.434 195.596C813.03 196.662 812.659 197.738 812.268 198.813C817.779 201.097 825.207 198.823 827.035 192.612C832.869 194.802 841.497 196.981 846.927 193.598C845.756 191.713 845.466 189.491 845.561 187.159C845.599 186.221 845.97 185.47 847.183 185.065C847.369 185.503 847.626 185.874 847.678 186.269C847.774 187.026 847.745 187.797 847.788 188.558C847.864 189.876 848.197 191.047 848.778 192.079C849.392 193.174 850.272 194.116 851.419 194.901C854.279 196.862 857.367 198.237 860.875 198.49C860.993 198.499 861.117 198.499 861.222 198.537C863.839 199.413 866.447 198.989 869.041 198.561C869.34 198.513 869.64 198.461 869.935 198.413C873.937 197.781 876.46 195.12 878.501 191.908C878.787 191.461 878.706 190.78 878.806 190.133C881.271 188.496 881.018 185.898 880.971 183.376C880.957 182.581 880.895 181.791 880.857 181.03C882.408 180.806 882.689 180.915 882.946 182.119C883.231 183.428 883.331 184.737 883.184 186.031C886.948 184.879 889.708 181.605 891.754 178.331C894.134 183.09 899.844 186.421 905.079 184.518C908.41 183.566 908.886 178.807 911.265 175.476C911.265 176.428 911.741 177.856 912.217 178.331C914.449 179.188 916.619 179.302 918.751 178.988C918.927 178.298 919.084 177.599 919.217 176.904C919.636 174.729 919.174 173.325 917.704 172.216C917.347 171.945 916.928 171.693 916.452 171.45C914.382 170.403 912.184 169.789 909.909 169.409C907.444 168.995 905.117 169.537 902.842 170.418C902.19 170.67 901.548 171.136 900.991 170.032C903.67 167.067 902.528 163.946 900.372 161.547C897.655 158.53 894.372 159.829 891.483 161.752C891.217 161.59 891.04 161.528 890.931 161.404C890.822 161.281 890.779 161.1 890.412 160.557C890.598 160.472 890.793 160.391 890.983 160.315C893.025 149.641 887.291 138.134 877.878 133.209C875.422 133.432 873.062 134.213 870.873 135.46C870.235 135.821 869.745 136.468 869.25 137.035C868.598 137.772 868.06 138.634 867.07 138.895C866.399 138.581 866.457 138.172 866.761 137.71C867.499 136.587 868.241 135.464 868.979 134.341C869.688 133.261 870.04 132.09 870.216 130.872C870.297 130.301 870.34 129.716 870.354 129.126C870.421 126.584 869.226 124.914 866.975 123.843C862.811 121.868 858.781 122.13 854.821 124.405C854.398 124.648 853.898 124.757 853.237 125C853.184 124.357 853.046 123.953 853.137 123.605C853.346 122.811 853.632 122.035 853.946 121.274C855.093 118.475 854.631 116.006 853.042 114.216C848.673 114.278 844.357 115.154 840.374 116.943C839.374 117.276 838.38 117.605 837.38 117.776C837.147 118.285 836.809 118.675 836.31 119.17C835.434 118.842 835.734 118.171 835.843 117.552C836.31 114.944 835.858 112.384 835.382 109.843C834.83 106.907 832.75 104.922 830.785 102.89C827.03 99.0072 822.414 97.1941 817.046 96.961C813.924 96.8229 810.817 96.5993 807.714 97.1275C806.791 97.2846 805.83 97.4416 804.992 97.827C800.652 99.8305 796.855 102.529 794.061 106.498C792.048 109.353 791.12 112.627 790.326 115.953C789.545 119.218 789.731 122.492 790.273 125.766C790.392 126.48 790.716 127.274 789.755 127.874C789.55 127.665 789.274 127.498 789.179 127.265C788.622 125.923 787.504 125.276 786.2 125.033C782.245 124.295 778.59 124.866 775.511 127.722C773.998 129.13 773.313 130.91 773.146 132.895C772.975 134.96 773.127 137.02 773.784 139C774.089 139.918 774.065 140.613 772.885 141.013C772.242 140.685 771.519 140.313 770.796 139.952C766.765 137.958 762.696 138.277 758.642 139.838C756.143 140.799 753.94 142.241 751.951 144.04C749.395 146.362 748.363 149.35 748.058 152.672C747.991 153.372 748.015 154.085 748.044 154.79C748.134 157.112 748.815 159.182 750.656 160.743C751.28 161.271 751.955 161.795 751.741 162.961C751.351 163.122 750.894 163.317 750.257 163.589C748.905 161.885 747.601 160.243 746.121 158.378C745.874 158.316 745.307 158.187 744.755 158.016C741.738 157.079 738.945 157.564 736.342 159.296C734.729 160.367 733.948 162.047 733.296 163.741C733.096 164.264 732.93 164.783 732.792 165.307H732.768ZM880.067 176.138C880.281 175.795 880.671 175.424 881.052 175.343C881.799 175.186 882.275 175.567 882.289 176.414C881.837 177.118 881.204 177.323 880.485 176.966C880.248 176.847 879.972 176.276 880.062 176.133L880.067 176.138ZM859.375 142.284C860.204 140.623 861.374 140.047 862.849 140.666C862.44 141.955 862.036 142.341 860.86 142.707C860.261 142.893 859.709 142.983 859.375 142.279V142.284ZM854.936 142.802C855.35 141.061 856.249 140.413 857.838 140.723C858.3 141.613 857.738 142.15 857.082 142.555C856.435 142.959 855.735 143.564 854.936 142.802ZM851.999 140.832C852.613 140.751 852.965 141.118 853.013 141.746C852.442 142.434 851.758 142.564 850.962 142.136C850.881 141.375 851.281 140.927 851.999 140.832ZM848.935 177.123C847.878 179.259 847.683 179.402 845.999 179.274C845.837 177.96 846.422 176.889 847.498 176.437C848.259 176.114 848.702 176.418 848.939 177.123H848.935ZM847.079 180.235C847.726 179.673 848.326 179.692 848.963 180.435C848.307 182.719 847.716 183.304 846.027 183.466C845.466 182.419 845.818 181.334 847.084 180.235H847.079ZM794.499 132.043C794.927 131.962 795.456 131.862 796.041 131.757C796.336 132.343 796.56 132.79 796.888 133.437C796.322 133.827 795.822 134.17 795.237 134.574C794.623 133.727 794.014 133.161 794.504 132.047L794.499 132.043ZM783.511 150.726C783.882 150.164 784.529 150.231 785.434 150.935C784.81 152.015 784.301 152.296 783.739 151.915C783.287 151.606 783.216 151.168 783.511 150.721V150.726ZM780.894 145.515C781.46 145.558 781.979 145.596 782.44 145.634C783.216 148.265 782.94 149.027 781.227 149.141C780.608 148.046 780.541 146.89 780.894 145.515ZM776.525 143.816C778.153 143.15 778.828 143.735 779.119 146.157C778.719 146.31 778.281 146.476 777.767 146.671C777.082 145.715 776.42 144.934 776.525 143.816Z" fill="white"/>
<path fill-rule="evenodd" clip-rule="evenodd" d="M827.03 192.613C832.865 194.802 841.492 196.981 846.922 193.598C847.317 194.231 847.812 194.826 848.426 195.373C849.654 196.467 849.668 197.662 849.306 199.042C848.849 200.779 847.674 201.869 846.085 202.554C843.467 203.682 840.721 203.92 837.957 203.406C835.187 202.892 833.098 201.398 831.989 198.704C831.799 198.238 831.499 197.819 831.28 197.429C829.895 197.391 829.648 198.166 829.553 199.132C829.177 202.916 826.954 205.257 823.504 206.409C821.187 207.184 818.783 207.156 816.385 206.428C814.729 205.928 813.444 205.033 812.402 203.672C811.593 202.611 811.222 201.545 811.736 200.232C811.921 199.76 812.093 199.289 812.269 198.814C817.779 201.098 825.208 198.823 827.035 192.613H827.03Z" fill="#CEF6FF"/>
<path fill-rule="evenodd" clip-rule="evenodd" d="M780.894 145.515C780.542 146.89 780.608 148.046 781.227 149.141C782.94 149.027 783.211 148.265 782.44 145.634C781.979 145.6 781.46 145.557 780.894 145.515Z" fill="#485C70"/>
<path fill-rule="evenodd" clip-rule="evenodd" d="M777.772 146.671C778.281 146.476 778.724 146.309 779.124 146.157C778.833 143.74 778.158 143.15 776.53 143.816C776.43 144.934 777.087 145.714 777.772 146.671Z" fill="#485C70"/>
<path fill-rule="evenodd" clip-rule="evenodd" d="M796.888 133.432C796.564 132.785 796.336 132.338 796.041 131.752C795.456 131.862 794.927 131.962 794.499 132.038C794.014 133.156 794.618 133.718 795.232 134.565C795.817 134.16 796.317 133.813 796.883 133.428L796.888 133.432Z" fill="#485C70"/>
<path fill-rule="evenodd" clip-rule="evenodd" d="M785.434 150.935C784.53 150.231 783.882 150.164 783.511 150.726C783.216 151.173 783.288 151.611 783.74 151.92C784.301 152.301 784.81 152.015 785.434 150.94V150.935Z" fill="#485C70"/>
<path opacity="0.25" d="M843.54 -20.2672C846.009 -17.029 847.13 -12.7872 849.346 -8.10386C851.562 -3.42052 853.498 5.79897 852.056 9.37168C850.614 12.9444 848.078 19.394 848.038 23.1541C848.011 26.9141 849.627 36.4146 848.038 41.1515C846.45 45.8883 843.032 51.8696 837.199 52.9669C831.366 54.0641 822.035 48.0828 822.035 48.0828C822.035 48.0828 823.303 50.0231 818.898 54.2782C814.479 58.5334 811.476 63.9259 807.057 63.4843C802.626 63.0561 798.821 35.8526 798.821 35.8526V20.2504C798.821 20.2504 804.041 18.5109 808.82 21.8695C813.585 25.2281 813.825 23.1675 813.825 23.1675L823.583 12.8775C823.583 12.8775 825.626 7.40468 823.583 6.96311C821.541 6.52154 822.622 2.4002 824.09 -2.72471C825.559 -7.84962 829.537 -14.6472 832.967 -17.8853C836.398 -21.1369 841.484 -23.0103 841.484 -23.0103C841.484 -23.0103 838.988 -20.3474 835.717 -17.6712C832.447 -14.9951 829.337 -9.64267 828.215 -6.96648C827.094 -4.29028 823.503 0.379675 824.077 3.06925C824.651 5.74544 825.652 6.64197 825.652 6.64197C825.652 6.64197 831.579 6.64197 834.796 8.64911C838.013 10.6563 839.402 10.4288 841.484 13.3325C843.566 16.2361 845.595 18.5778 845.595 18.5778L849.346 14.229C849.346 14.229 853.351 10.7098 851.095 5.17006C848.839 -0.369659 848.011 -6.72562 846.677 -10.0709C845.342 -13.4161 842.418 -17.4438 841.951 -20.227L841.484 -22.9969L843.54 -20.227V-20.2672Z" fill="black"/>
<path d="M840.843 20.652C844.901 18.5378 856.034 10.1078 848.852 -0.423018C841.671 -10.9538 840.029 -21.8192 843.927 -24.0003C845.368 -24.8165 845.862 -23.7728 845.168 -23.0368C844.594 -22.4347 844.127 -21.7121 843.847 -20.9227C843.233 -19.1831 842.792 -16.1323 844.674 -12.1314C849.013 -2.92525 851.602 -2.34987 852.523 6.44142C852.844 9.57256 848.399 19.5681 842.004 22.2577C835.61 24.9473 840.83 20.6654 840.83 20.6654L840.843 20.652Z" fill="#5C736E"/>
<path d="M806.897 27.048C810.955 24.9338 827.988 15.808 820.82 5.27719C813.652 -5.25363 827.882 -17.7648 831.553 -20.3072C836.225 -23.5454 843.927 -23.3045 843.233 -22.5686C842.659 -21.9665 837.172 -22.5686 832.781 -19.2501C831.312 -18.1395 823.009 -10.2046 820.994 -6.2572C817.216 1.10233 823.917 3.02919 824.838 11.8071C825.159 14.9382 814.466 25.9775 808.086 28.6537C801.691 31.3433 806.911 27.0614 806.911 27.0614L806.897 27.048Z" fill="#5C736E"/>
<path d="M817.937 38.9565C820.219 50.8924 815.347 61.8648 807.058 63.4571C798.768 65.0494 790.198 56.6596 787.915 44.7237C785.633 32.7879 790.505 21.8155 798.795 20.2232C807.084 18.6309 815.654 27.0207 817.937 38.9565Z" fill="#5C736E"/>
<path d="M834.394 53.8615C843.206 52.1716 848.387 40.5161 845.965 27.8283C843.544 15.1405 834.437 6.22491 825.625 7.9148C816.813 9.60469 811.632 21.2601 814.053 33.9479C816.475 46.6358 825.581 55.5513 834.394 53.8615Z" fill="#5C736E"/>
<path d="M836.986 29.5499C838.708 38.5686 835.024 46.8514 828.763 48.0557C822.503 49.26 816.028 42.9174 814.306 33.8987C812.584 24.8799 816.269 16.5971 822.529 15.3928C828.79 14.1885 835.264 20.5311 836.986 29.5499Z" fill="#9C9C9C"/>
<path d="M837.052 29.5365C838.614 37.7123 835.277 45.2324 829.59 46.3162C823.904 47.4001 818.044 41.6596 816.482 33.4839C814.92 25.3081 818.257 17.788 823.944 16.7041C829.617 15.6203 835.49 21.3607 837.052 29.5365Z" fill="#6A847E"/>
<path d="M809.487 40.5758C811.103 49.0593 807.645 56.8604 801.745 57.9844C795.858 59.1084 789.758 53.1539 788.143 44.6704C786.527 36.1868 789.985 28.3857 795.885 27.2617C801.785 26.1377 807.872 32.0922 809.487 40.5758Z" fill="#9C9C9C"/>
<path d="M809.541 40.5759C811.009 48.2699 807.872 55.3351 802.519 56.3654C797.18 57.3957 791.654 51.9764 790.185 44.2824C788.717 36.5883 791.854 29.5232 797.207 28.4928C802.546 27.4625 808.073 32.8818 809.541 40.5759Z" fill="#6A847E"/>
<path d="M823.13 18.5371L836.305 33.9787L835.744 35.5443L823.13 18.5371Z" fill="#9C9C9C"/>
<path d="M818.898 22.2573L834.436 41.5794L833.702 43.0246L818.898 22.2573Z" fill="#9C9C9C"/>
<path d="M816.789 26.5659L830.992 44.7105L816.162 27.904L816.789 26.5659Z" fill="#9C9C9C"/>
<path d="M817.27 35.4644L826.801 45.5135L825.613 45.2994L817.27 35.4644Z" fill="#9C9C9C"/>
<path d="M826.867 18.6043L817.176 33.2164L828.216 18.3501L826.867 18.6043Z" fill="#9C9C9C"/>
<path d="M831.9 21.8423L819.325 39.8531L832.954 22.0831L831.9 21.8423Z" fill="#9C9C9C"/>
<path d="M835.504 26.7399C835.33 26.9942 823.09 44.2556 823.09 44.2556L823.864 44.8979L835.504 26.7266V26.7399Z" fill="#9C9C9C"/>
<path d="M835.704 38.1538L828.937 45.6338L829.31 45.7542L835.704 38.1538Z" fill="#9C9C9C"/>
<path d="M797.767 29.1616L790.505 42.5693L790.719 43.7201L797.767 29.1616Z" fill="#9C9C9C"/>
<path d="M802.973 31.4897L792.748 49.5808L793.362 50.7717L802.973 31.4897Z" fill="#9C9C9C"/>
<path d="M806.937 36.3608L796.525 54.2378L807.645 37.2975L806.937 36.3608Z" fill="#9C9C9C"/>
<path d="M808.286 44.0415L800.57 55.3217L808.553 45.393L808.286 44.0415Z" fill="#9C9C9C"/>
<path d="M791.026 35.9995L806.47 52.3376L791.186 34.3804L791.026 35.9995Z" fill="#9C9C9C"/>
<path d="M794.563 30.8211L808.486 47.2395L795.391 30.3394L794.563 30.8211Z" fill="#9C9C9C"/>
<path d="M800.664 30.0179L808.807 40.3346L801.318 29.8975L800.664 30.0179Z" fill="#9C9C9C"/>
<path d="M790.025 40.5762L802.492 55.1882L800.81 55.5093L790.025 40.5762Z" fill="#9C9C9C"/>
<path d="M58.1144 274.72C55.9224 269.532 50.5565 266.614 46.2225 263.033C40.5577 258.359 36.2949 252.009 34.0959 244.996C32.1317 238.717 31.3133 231.218 25.8406 227.594C25.8264 230.276 24.9937 232.952 23.4921 235.178C24.0757 232.788 21.7913 230.362 19.3432 230.226C16.8879 230.084 14.6106 231.732 13.2941 233.808C11.9846 235.892 11.4651 238.367 11.0025 240.779C7.01723 261.563 5.70778 283.881 14.4114 303.159L9.5365 306.356C5.18115 281.833 5.37329 256.504 10.1058 232.053C10.4474 230.298 10.8246 228.507 11.522 226.873C11.8707 226.031 12.312 225.232 12.8671 224.497C16.6958 219.474 24.2109 219.674 30.4237 220.78C35.4195 221.665 40.3727 222.813 45.2476 224.226C47.5391 224.89 49.8733 225.639 51.7379 227.13C56.0861 230.612 56.6483 236.919 56.869 242.498C57.2034 251.246 57.545 260 57.8866 268.755C57.9578 270.745 58.0361 272.729 58.1144 274.72Z" fill="#7EA81A"/>
<g style="mix-blend-mode:multiply" opacity="0.2">
<path d="M6.49074 304.336L6.81099 304.55C6.56191 304.6 6.12068 304.351 6.49074 304.336Z" fill="#492C4D"/>
</g>
<path d="M6.95313 304.315C6.88908 303.801 6.24148 303.516 6.16319 303.002C5.9497 301.625 5.6935 300.262 5.38037 298.907C5.12417 297.772 4.83239 296.645 4.49791 295.525C3.75067 292.928 2.81839 290.388 1.72244 287.919C1.45201 287.32 1.17446 286.72 0.882679 286.128C-0.561989 283.131 -2.26285 280.263 -4.19145 277.559C-5.65035 275.511 -7.32275 273.499 -9.57159 272.401C-9.62141 272.372 -9.67123 272.343 -9.72104 272.322C-12.0482 271.238 -15.1297 271.387 -16.8376 273.307C-20.3034 277.195 -25.591 278.808 -30.6581 279.978C-39.1054 281.918 -47.7236 283.081 -56.3845 283.467C-56.9254 283.488 -57.4591 283.51 -58 283.524C-53.8154 279.999 -49.6238 276.467 -45.4392 272.943C-41.212 269.382 -36.9278 265.787 -31.9462 263.403C-26.9645 261.02 -21.1289 259.95 -15.884 261.67C-8.62508 264.038 -4.02065 271.045 -0.284439 277.716C0.19949 278.579 0.662071 279.436 1.1033 280.292C1.42355 280.92 1.73667 281.54 2.03557 282.168C2.83974 283.823 3.57275 285.472 4.23459 287.127C4.59754 288.019 4.93914 288.918 5.2665 289.817C7.16663 295.075 8.49032 300.455 9.53646 306.355L6.81792 304.55C6.91044 304.522 6.97448 304.458 6.95313 304.315Z" fill="#7EA81A"/>
<path d="M4.34824 314.846C4.34113 315.046 4.33401 315.238 4.3269 315.431L-0.526619 303.494C0.0284729 297.722 0.57645 291.929 0.882462 286.128C0.989212 284.18 1.06038 282.24 1.10308 280.292C1.20271 275.012 1.03903 269.739 0.427002 264.495C-0.291775 258.331 -1.69374 252.159 -3.92124 246.365C-6.36223 239.987 -9.81377 234.065 -14.4609 229.078C-17.3716 225.967 -20.7093 223.256 -23.4278 219.966C-29.7118 212.368 -32.1883 202.179 -32.2026 192.304C-32.2168 182.43 -29.9751 172.712 -27.7405 163.094C-27.7191 163.13 -27.6907 163.166 -27.6693 163.201C-20.1257 174.403 -13.7848 186.397 -8.76052 198.926C-6.52591 204.505 -4.54749 210.199 -3.23093 216.064C-1.87166 222.1 -1.22405 228.271 -0.583553 234.422C0.120991 241.078 0.818413 247.728 1.51584 254.378C1.90014 258.088 2.29155 261.805 2.6545 265.515V265.53C3.03168 269.382 3.37327 273.228 3.65082 277.088C3.89278 280.434 4.08493 283.781 4.23438 287.127C4.35536 289.924 4.44788 292.721 4.49769 295.525C4.62579 301.967 4.57598 308.41 4.34824 314.846Z" fill="#7EA81A"/>
<path d="M15.1869 190.114C16.5747 190.072 17.9482 189.708 19.1651 189.044C17.1226 196.236 10.6181 201.359 7.9707 208.351C6.4691 212.304 6.29118 216.613 6.14174 220.844C5.35179 243.826 5.06002 266.821 5.2664 289.817C5.29486 292.842 5.33044 295.867 5.38026 298.893C5.38026 298.893 5.38026 298.893 5.38026 298.907C5.47989 305.906 5.62934 312.906 5.82149 319.905L4.34836 314.853L0.69043 302.325C1.08896 297.523 1.43055 292.721 1.72233 287.919C1.8362 286 1.94295 284.088 2.03547 282.176C2.32013 276.625 2.52651 271.081 2.65461 265.53C3.01756 250.825 2.86099 236.099 2.18491 221.401C1.99276 217.248 1.76504 213.067 1.78639 208.908C1.78639 204.605 2.07817 200.324 2.93216 196.115C5.74321 182.295 14.461 170.515 23.7482 159.87L24.6662 158.821C24.1183 169.816 20.8304 180.668 15.1869 190.114Z" fill="#7EA81A"/>
<path d="M30.3666 351.127C30.1887 360.459 28.8365 370.955 25.7408 382.05C24.1751 387.679 22.1611 393.458 19.6134 399.316C18.6882 401.471 17.6848 403.633 16.6102 405.802H-2.41956C-3.94963 402.712 -5.33736 399.637 -6.58277 396.59C-9.28707 389.948 -11.3295 383.427 -12.8169 377.126C-14.2972 370.891 -15.2294 364.876 -15.7276 359.189C-16.6029 349.365 -16.1688 340.532 -14.9946 333.233C-14.5035 330.208 -13.8915 327.439 -13.1798 324.985C-12.8667 323.893 -12.5394 322.859 -12.1906 321.888C-11.5359 320.04 -10.8243 318.421 -10.0841 317.065C-8.31921 313.826 -7.17345 310.365 -6.44044 306.991C-6.03479 305.128 -5.75724 303.295 -5.57221 301.532C-4.74669 293.606 -5.82129 287.263 -5.82129 287.263H20.0119C20.0119 287.263 19.3003 291.458 19.4782 297.287C19.528 298.992 19.6632 300.84 19.9052 302.767C20.4959 307.397 21.7697 312.456 24.2748 317.065C25.3636 319.063 26.3884 321.624 27.2851 324.657C28.1035 327.439 28.8009 330.628 29.3347 334.153C30.0819 339.176 30.4876 344.891 30.3666 351.127Z" fill="white"/>
<path d="M-6.15576 307.019C-6.24828 307.012 -6.34791 306.998 -6.44043 306.991C-6.03478 305.128 -5.75724 303.295 -5.5722 301.532C1.45187 302.346 8.6681 301.547 15.2865 299.049C16.6956 298.514 18.0905 297.908 19.4782 297.287C19.528 298.992 19.6632 300.84 19.9052 302.767C11.7638 306.384 2.70439 307.932 -6.15576 307.019Z" fill="#4F254E"/>
<path d="M25.7408 382.05C24.1751 387.679 22.1611 393.458 19.6134 399.316C18.3324 393.851 16.0551 388.621 12.8598 384.012C5.6293 373.595 -5.50104 366.838 -15.7276 359.19C-16.6029 349.365 -16.1688 340.532 -14.9946 333.233C-12.1551 341.788 -7.72854 349.779 -1.72925 356.564C5.35176 364.576 14.1336 370.862 21.9049 378.204C23.2144 379.438 24.5025 380.723 25.7408 382.05Z" fill="#4F254E"/>
<path d="M30.3667 351.127C27.5913 351.905 24.7233 352.39 21.8695 352.604C17.0943 352.968 12.0842 352.604 7.89966 350.278C3.85032 348.024 0.968099 344.171 -1.77891 340.439C-5.5507 335.324 -9.31538 330.215 -13.0872 325.106C-13.1156 325.064 -13.1441 325.028 -13.1797 324.985C-12.8666 323.894 -12.5392 322.859 -12.1905 321.889C-7.06653 327.604 -1.87142 333.255 3.39485 338.841C6.6329 342.28 10.3406 345.912 15.0376 346.311C21.3571 346.854 26.6448 341.21 28.9292 335.274C29.0715 334.903 29.2067 334.532 29.3348 334.154C30.0821 339.176 30.4877 344.892 30.3667 351.127Z" fill="#4F254E"/>
<path d="M5.30194 404.603C5.25213 405.01 5.17385 405.409 5.08133 405.802H-2.41956C-7.2873 395.991 -10.6463 386.316 -12.8169 377.126C-9.30841 377.141 -5.9138 378.125 -3.17391 380.337C1.765 384.333 3.34488 391.082 4.61875 397.311C5.11691 399.715 5.60796 402.17 5.30194 404.603Z" fill="#4F254E"/>
<g style="mix-blend-mode:multiply" opacity="0.2">
<path d="M30.3668 351.127C30.1889 360.46 28.8368 370.955 25.741 382.05C24.1754 387.679 22.1614 393.458 19.6137 399.316C18.6885 401.471 17.6851 403.633 16.6105 405.802H-2.41931C-3.94938 402.712 -5.33712 399.637 -6.58252 396.591C-1.03158 391.368 4.0639 385.731 8.35521 379.424C19.329 363.292 24.1754 344.135 27.2853 324.657C28.1037 327.439 28.8012 330.629 29.3349 334.153C30.0822 339.176 30.4878 344.891 30.3668 351.127Z" fill="#7EA81A"/>
</g>
<g style="mix-blend-mode:multiply" opacity="0.2">
<path d="M23.7484 159.87C22.012 163.937 20.2115 167.975 18.0694 171.842C16.2689 175.088 14.2407 178.199 12.3548 181.403C7.35891 189.872 3.3665 199.268 1.78662 208.908C1.78662 204.605 2.0784 200.324 2.93239 196.115C5.74345 182.295 14.4613 170.515 23.7484 159.87Z" fill="#492C4D"/>
</g>
<g style="mix-blend-mode:multiply" opacity="0.2">
<path d="M57.8866 268.755C54.7339 259.08 48.3503 250.204 45.1336 240.379C43.8028 241.385 42.7638 242.77 42.1803 244.332C40.7 244.118 40.2374 242.227 40.1236 240.729C39.846 237.14 39.5685 233.558 39.2909 229.977C38.5366 231.061 37.7822 232.146 37.0278 233.23C35.3697 227.009 28.8224 222.499 22.4388 223.184C20.6312 223.377 18.8805 223.926 17.1441 224.483C15.2226 225.096 13.2086 225.789 11.522 226.873C11.8707 226.031 12.3119 225.232 12.867 224.497C16.6957 219.474 24.2109 219.674 30.4236 220.78C35.4195 221.665 40.3726 222.813 45.2475 224.226C47.539 224.89 49.8733 225.639 51.7378 227.13C56.0861 230.612 56.6483 236.919 56.8689 242.498C57.2034 251.246 57.545 260 57.8866 268.755Z" fill="#492C4D"/>
</g>
<path d="M226.669 332.164C225.737 331.428 224.538 331.112 223.356 331.008C221.527 330.846 219.663 331.159 217.983 331.909C216.994 332.351 216.044 332.947 214.969 333.076C214.083 333.184 213.194 332.958 212.311 332.814C207.892 332.103 203.273 333.625 200.063 336.771C198.551 335.805 197.426 334.196 195.733 333.622C194.508 333.205 193.156 333.403 191.921 333.794C191.324 333.984 190.726 334.221 190.1 334.211C189.473 334.2 188.801 333.862 188.623 333.259C188.505 332.857 188.623 332.43 188.648 332.01C188.722 330.857 188.025 329.697 186.979 329.231C185.933 328.764 184.613 329.022 183.815 329.852C183.353 330.333 183.075 330.961 182.684 331.503C182.107 332.297 181.3 332.882 180.57 333.536C177.802 336.02 176.129 339.575 173.3 341.991C171.439 343.582 169.194 344.774 169.005 347.226C167.511 346.518 165.575 346.924 164.483 348.17C163.995 348.723 163.671 349.412 163.141 349.926C162.615 350.439 161.75 350.734 161.148 350.31C160.184 349.624 160.857 348.091 160.618 346.924C160.273 345.244 158.113 344.727 156.423 344.935C151.594 345.531 147.345 349.445 146.317 354.241C146.2 354.787 146.132 355.401 146.445 355.861C146.712 356.252 147.185 356.432 147.627 356.586C148.555 356.913 149.516 357.247 150.495 357.168C151.473 357.089 152.484 356.489 152.722 355.527C152.875 354.913 152.722 354.177 153.149 353.706C153.743 353.049 154.946 353.645 155.142 354.514C155.338 355.38 154.886 356.252 154.409 357.002C152.868 359.43 150.338 361.803 147.538 361.235C146.182 360.959 145.036 360.022 143.694 359.688C142.349 359.354 140.531 360.097 140.613 361.49C140.663 362.349 141.41 362.973 141.773 363.749C142.317 364.908 141.944 366.341 141.172 367.361C140.399 368.384 139.624 369.648 138.389 369.964C137.987 370.068 137.837 370.61 138.001 370.991C138.161 371.375 138.528 371.626 138.884 371.834C140.296 372.671 142.3 373.152 143.42 371.946C144.1 371.217 144.196 370.107 144.748 369.274C145.271 368.488 146.217 368.003 147.153 368.043C147.669 368.064 148.196 368.248 148.537 368.635C148.993 369.156 149.036 369.91 149.16 370.592C149.288 371.274 149.63 372.039 150.306 372.179C151.292 372.384 151.943 371.159 152.857 370.728C153.697 370.334 154.736 370.678 155.412 371.317C156.088 371.956 156.483 372.836 156.853 373.698C158.65 373.773 160.561 374.208 162.17 375.015C162.074 377.259 162.8 379.532 164.177 381.299C164.831 382.139 165.625 382.864 166.237 383.736C167.013 384.842 167.472 386.174 167.554 387.528C167.383 387.456 167.208 387.384 167.034 387.316C166.717 387.19 166.397 387.072 166.112 386.882C165.66 386.58 165.337 386.117 165.041 385.657C163.504 383.295 162.273 380.703 160.358 378.642C159.305 377.511 158.053 376.552 156.636 375.945C155.537 375.475 154.363 375.224 153.192 374.972C151.331 374.574 149.445 374.175 147.548 374.305C145.285 374.459 143.122 375.36 140.858 375.507C139.36 375.604 137.631 375.45 136.599 376.549C136.097 377.083 135.877 377.816 135.67 378.52C135.386 379.493 135.101 380.462 134.816 381.435C134.115 383.826 133.45 386.541 134.706 388.688C135.357 389.801 136.45 390.583 137.603 391.147C138.819 391.739 140.214 392.124 141.52 391.775C142.321 391.56 143.026 391.09 143.783 390.759C144.541 390.429 145.442 390.246 146.182 390.616C146.829 390.386 147.477 391.56 147.616 392.239C147.755 392.917 147.673 393.664 148.025 394.256C148.402 394.888 149.182 395.179 149.562 395.807C150.21 396.874 149.413 398.252 149.587 399.488C149.676 400.13 150.028 400.701 150.313 401.286C151.704 404.119 151.672 407.498 153.078 410.323C153.345 410.862 153.694 411.4 154.234 411.648C154.726 411.874 155.295 411.821 155.832 411.763C156.829 411.655 157.843 411.544 158.771 411.16C159.7 410.776 160.547 410.076 160.882 409.121C161.067 408.586 161.088 407.986 161.383 407.501C161.707 406.97 162.298 406.679 162.828 406.36C163.746 405.799 164.561 405.063 165.212 404.205C165.354 404.019 165.49 403.818 165.561 403.591C165.632 403.365 165.628 403.121 165.628 402.884C165.621 401.574 165.088 399.875 165.682 398.712C166.589 396.938 167.835 395.337 169.329 394.03C169.916 393.517 170.55 393.039 171.009 392.407C171.464 391.772 171.724 390.932 171.454 390.196C171.194 389.492 170.525 389.043 169.874 388.673C169.183 388.282 168.475 387.926 167.746 387.611C168.279 386.663 169.297 386.024 170.354 385.74C171.546 385.42 172.802 385.481 174.033 385.546C174.129 384.487 174.226 383.403 173.934 382.383C173.642 381.363 172.866 380.412 171.827 380.239C173.265 380.15 174.706 380.128 176.147 380.178C176.837 380.204 177.553 380.247 178.172 380.566C178.702 380.839 179.115 381.295 179.627 381.604C180.666 382.229 181.951 382.164 183.157 382.246C184.363 382.325 185.712 382.674 186.296 383.744C187.114 385.237 186.196 387.675 187.698 388.458C188.669 388.964 189.861 388.171 190.381 387.198C190.9 386.225 191.035 385.079 191.562 384.113C192.092 383.148 193.345 382.056 194.299 382.591C194.647 384.878 195.985 386.993 197.896 388.275C198.17 388.458 198.469 388.641 198.608 388.939C198.875 389.506 198.451 390.174 198.529 390.799C198.668 391.897 200.106 392.17 201.205 392.163C201.483 392.163 201.782 392.152 201.995 391.976C202.501 391.567 202.109 390.731 201.604 390.318C201.102 389.905 200.444 389.474 200.469 388.82C201.301 388.903 202.091 389.248 202.924 389.32C203.757 389.391 204.728 389.083 205.024 388.293C205.418 387.23 204.383 386.178 204.262 385.051C204.152 384.031 204.817 383.076 205.604 382.426C206.39 381.776 207.322 381.309 208.066 380.609C209.429 379.331 210.027 377.277 209.568 375.461C209.24 374.164 208.429 372.786 209.027 371.594C209.71 370.237 211.646 370.269 213.09 370.707C213.937 370.962 214.966 371.249 215.61 370.639C215.898 370.366 216.033 369.964 216.119 369.572C216.695 366.937 215.642 363.871 217.183 361.663C217.834 360.729 218.937 359.936 218.873 358.798C218.802 357.57 217.442 356.934 216.385 356.317C215.023 355.52 213.823 354.22 213.653 352.64C213.432 350.608 215.211 348.533 217.236 348.59C217.546 347.707 217.88 346.788 218.56 346.145C219.236 345.502 220.371 345.244 221.097 345.826C221.559 346.199 221.759 346.809 221.897 347.391C222.139 348.411 222.278 349.452 222.307 350.5C222.332 351.387 222.406 352.486 223.214 352.841C223.887 353.136 224.691 352.654 225.025 351.997C225.36 351.34 225.353 350.565 225.356 349.825C225.381 345.133 226.164 340.447 227.673 336.009C228.057 334.878 227.594 332.897 226.659 332.16L226.669 332.164Z" fill="#F0B700" fill-opacity="0.22" style="mix-blend-mode:multiply"/>
<path d="M415.025 340.454C413.855 341.584 413.196 343.128 412.525 344.613C411.634 346.582 410.519 348.377 409.482 350.274C407.027 350.811 404.906 352.701 404.075 355.092C403.437 356.932 403.367 359.235 401.744 360.288C400.706 360.959 399.329 360.872 398.26 361.494C397.195 362.112 396.631 363.313 395.936 364.336C395.242 365.36 394.145 366.339 392.933 366.114C391.593 365.868 390.921 364.204 391.204 362.863C391.488 361.518 392.429 360.435 393.29 359.372C393.769 358.785 394.252 358.136 394.3 357.377C394.35 356.611 393.937 355.891 393.455 355.295C391.375 352.731 387.787 351.555 386.23 348.638C385.298 346.895 385.261 344.805 384.534 342.965C383.806 341.124 382.225 339.408 380.427 340.209C379.332 339.458 378.146 338.68 376.823 338.69C375.63 338.7 374.506 339.39 373.792 340.356C373.083 341.323 372.758 342.533 372.698 343.732C372.656 344.628 372.763 345.566 373.238 346.322C373.439 346.645 373.714 346.942 373.786 347.318C373.863 347.703 373.718 348.094 373.55 348.445C372.783 350.074 371.094 351.558 369.365 351.098C368.128 350.769 367.316 349.535 367.005 348.284C366.694 347.034 366.767 345.725 366.659 344.44C364.84 345.014 362.725 344.487 361.382 343.126C361.947 342.186 362.543 341.212 363.467 340.632C364.392 340.052 365.743 340.004 366.466 340.828C366.636 341.022 366.778 341.27 367.019 341.366C367.336 341.497 367.692 341.315 367.98 341.123C368.934 340.487 369.766 339.668 370.425 338.726C371.225 337.583 369.664 335.338 368.355 334.881C367.047 334.421 365.588 334.769 364.315 335.326C363.042 335.883 361.858 336.648 360.539 337.077C359.827 337.309 359.073 337.441 358.419 337.809C356.973 338.622 356.327 340.625 357.022 342.137C357.513 343.209 358.522 343.937 359.22 344.882C360.311 346.354 360.605 348.3 360.41 350.127C360.213 351.953 359.845 354.047 358.849 355.582C357.986 356.916 355.938 356.621 354.614 357.492C352.483 358.895 353.196 362.443 351.471 364.332C349.928 366.019 347.08 365.712 345.355 367.209C344.18 368.228 343.765 369.926 343.947 371.478C344.129 373.03 344.825 374.467 345.572 375.835C346.424 377.395 347.407 378.967 348.903 379.916C349.59 380.354 350.364 380.642 351.045 381.086C353.079 382.415 354.101 384.986 356.213 386.186C356.94 383.177 358.235 380.229 360.417 378.053C362.601 375.874 365.768 374.564 368.791 375.119C370.551 375.444 372.143 376.358 373.799 377.047C375.455 377.737 377.326 378.212 379.019 377.62C380.383 377.143 381.446 376.035 382.77 375.442C385.682 374.137 389.602 375.414 391.899 373.185C392.858 372.253 393.324 370.851 394.418 370.089C395.594 369.269 397.289 369.341 398.287 368.31C398.86 367.717 399.084 366.869 399.544 366.18C400.251 365.122 401.45 364.534 402.523 363.853C403.596 363.173 405.422 362.104 405.218 360.844C405.15 360.424 405.795 360.309 406.187 360.467C408.043 361.22 408.841 363.605 410.691 364.368C412.011 364.91 413.541 364.472 414.777 363.755C416.016 363.038 417.091 362.057 418.361 361.398C418.687 361.23 419.058 361.078 419.41 361.177C419.702 361.26 419.92 361.501 420.17 361.679C420.817 362.141 421.66 362.171 422.452 362.181C426.09 362.242 429.747 362.3 433.344 361.76C434.175 361.633 435.013 361.478 435.851 361.53C437.147 361.615 438.35 362.19 439.562 362.663C440.773 363.136 442.098 363.517 443.356 363.193C444.614 362.869 445.695 361.487 445.402 360.211C443.734 360.617 442.012 359.646 440.828 358.395C439.644 357.143 438.784 355.599 437.58 354.369C436.73 353.505 435.725 352.807 434.894 351.926C433.205 350.125 432.308 347.617 430.379 346.081C429.703 345.545 428.928 345.148 428.262 344.599C427.211 343.731 426.492 342.529 425.57 341.522C424.238 340.063 422.432 339.01 420.482 338.753C418.533 338.495 416.451 339.079 415.03 340.448L415.025 340.454Z" fill="#F0B700" fill-opacity="0.22" style="mix-blend-mode:multiply"/>
<path d="M765.221 353.455C764.051 354.584 763.392 356.128 762.721 357.613C761.83 359.583 760.715 361.377 759.678 363.275C757.223 363.811 755.102 365.702 754.271 368.093C753.633 369.932 753.563 372.235 751.939 373.288C750.902 373.959 749.525 373.873 748.456 374.494C747.391 375.113 746.827 376.313 746.132 377.337C745.438 378.36 744.341 379.339 743.129 379.115C741.789 378.869 741.117 377.204 741.4 375.863C741.684 374.519 742.625 373.435 743.486 372.372C743.964 371.786 744.448 371.136 744.496 370.377C744.546 369.612 744.133 368.891 743.651 368.296C741.571 365.732 737.983 364.556 736.426 361.638C735.494 359.895 735.457 357.806 734.729 355.965C734.002 354.125 732.421 352.409 730.623 353.21C729.528 352.459 728.342 351.681 727.018 351.691C725.826 351.701 724.701 352.391 723.988 353.357C723.278 354.323 722.954 355.533 722.894 356.733C722.852 357.628 722.959 358.567 723.434 359.322C723.635 359.645 723.91 359.942 723.982 360.318C724.059 360.703 723.914 361.094 723.746 361.446C722.979 363.075 721.29 364.559 719.561 364.098C718.324 363.77 717.512 362.536 717.201 361.285C716.89 360.034 716.963 358.725 716.855 357.441C715.036 358.014 712.921 357.487 711.578 356.127C712.143 355.186 712.739 354.212 713.663 353.632C714.587 353.052 715.939 353.005 716.662 353.828C716.832 354.023 716.974 354.27 717.215 354.367C717.532 354.498 717.888 354.316 718.176 354.123C719.13 353.487 719.962 352.669 720.621 351.726C721.42 350.583 719.859 348.338 718.551 347.882C717.243 347.422 715.784 347.769 714.511 348.326C713.238 348.884 712.054 349.648 710.735 350.077C710.023 350.31 709.269 350.441 708.615 350.809C707.168 351.623 706.522 353.625 707.218 355.138C707.709 356.209 708.717 356.938 709.416 357.883C710.507 359.355 710.801 361.301 710.606 363.127C710.408 364.953 710.041 367.047 709.044 368.583C708.181 369.916 706.133 369.621 704.81 370.493C702.679 371.896 703.392 375.444 701.667 377.332C700.124 379.019 697.276 378.713 695.55 380.209C694.376 381.229 693.961 382.926 694.142 384.478C694.324 386.03 695.021 387.468 695.768 388.835C696.62 390.396 697.602 391.968 699.099 392.917C699.786 393.355 700.559 393.642 701.241 394.086C703.274 395.415 704.297 397.987 706.408 399.186C707.136 396.177 708.43 393.229 710.613 391.054C712.797 388.875 715.964 387.564 718.987 388.119C720.747 388.445 722.339 389.358 723.995 390.048C725.651 390.738 727.522 391.212 729.214 390.621C730.579 390.144 731.642 389.035 732.965 388.442C735.877 387.137 739.798 388.415 742.095 386.186C743.053 385.253 743.52 383.851 744.614 383.089C745.79 382.27 747.484 382.341 748.483 381.31C749.056 380.718 749.28 379.869 749.74 379.18C750.447 378.122 751.646 377.534 752.719 376.854C753.792 376.173 755.617 375.105 755.413 373.844C755.345 373.424 755.99 373.309 756.383 373.468C758.239 374.221 759.037 376.606 760.887 377.368C762.207 377.911 763.737 377.473 764.973 376.755C766.212 376.039 767.287 375.058 768.557 374.398C768.883 374.231 769.254 374.079 769.606 374.178C769.898 374.261 770.116 374.502 770.365 374.68C771.013 375.141 771.856 375.172 772.648 375.182C776.286 375.243 779.943 375.301 783.54 374.76C784.371 374.633 785.209 374.479 786.047 374.531C787.342 374.615 788.546 375.191 789.758 375.663C790.969 376.136 792.293 376.518 793.552 376.193C794.81 375.869 795.891 374.487 795.597 373.211C793.93 373.617 792.208 372.647 791.024 371.395C789.84 370.143 788.98 368.6 787.776 367.369C786.926 366.505 785.921 365.808 785.09 364.926C783.401 363.126 782.504 360.617 780.575 359.082C779.899 358.545 779.123 358.148 778.458 357.599C777.407 356.732 776.688 355.529 775.766 354.523C774.433 353.063 772.627 352.011 770.678 351.753C768.729 351.495 766.647 352.079 765.226 353.448L765.221 353.455Z" fill="#F0B700" fill-opacity="0.22" style="mix-blend-mode:multiply"/>
<path d="M666.77 369.304C665.601 370.434 664.942 371.978 664.271 373.463C663.38 375.432 662.265 377.227 661.227 379.124C658.773 379.661 656.652 381.551 655.821 383.942C655.183 385.782 655.113 388.085 653.489 389.138C652.452 389.809 651.075 389.722 650.005 390.344C648.941 390.963 648.376 392.163 647.682 393.186C646.988 394.21 645.89 395.189 644.679 394.965C643.339 394.718 642.667 393.054 642.95 391.713C643.234 390.368 644.175 389.285 645.036 388.222C645.514 387.635 645.997 386.986 646.046 386.227C646.096 385.461 645.683 384.741 645.201 384.145C643.12 381.581 639.532 380.405 637.975 377.488C637.044 375.745 637.007 373.655 636.279 371.815C635.552 369.974 633.971 368.259 632.173 369.059C631.077 368.309 629.892 367.53 628.568 367.54C627.375 367.55 626.251 368.24 625.538 369.206C624.828 370.173 624.504 371.383 624.444 372.582C624.402 373.478 624.509 374.416 624.984 375.172C625.185 375.495 625.46 375.792 625.532 376.168C625.609 376.553 625.464 376.944 625.296 377.295C624.529 378.924 622.84 380.408 621.11 379.948C619.873 379.619 619.062 378.385 618.751 377.134C618.439 375.884 618.513 374.575 618.404 373.29C616.586 373.864 614.47 373.337 613.128 371.976C613.693 371.036 614.288 370.062 615.213 369.482C616.137 368.902 617.489 368.854 618.212 369.678C618.382 369.872 618.524 370.12 618.764 370.216C619.082 370.347 619.438 370.165 619.726 369.973C620.68 369.337 621.512 368.518 622.171 367.576C622.97 366.433 621.409 364.188 620.1 363.731C618.792 363.271 617.334 363.619 616.061 364.176C614.788 364.733 613.604 365.498 612.285 365.927C611.573 366.159 610.819 366.291 610.165 366.659C608.718 367.472 608.072 369.475 608.768 370.987C609.259 372.059 610.267 372.787 610.966 373.732C612.056 375.204 612.35 377.15 612.156 378.977C611.958 380.803 611.591 382.897 610.594 384.433C609.731 385.766 607.683 385.471 606.36 386.342C604.229 387.745 604.942 391.294 603.216 393.182C601.673 394.869 598.826 394.562 597.1 396.059C595.926 397.078 595.51 398.776 595.692 400.328C595.874 401.88 596.57 403.317 597.318 404.685C598.169 406.245 599.152 407.817 600.649 408.766C601.335 409.204 602.109 409.492 602.791 409.936C604.824 411.265 605.846 413.836 607.958 415.036C608.686 412.027 609.98 409.079 612.163 406.903C614.347 404.724 617.514 403.414 620.537 403.969C622.297 404.294 623.888 405.208 625.544 405.898C627.2 406.587 629.072 407.062 630.764 406.47C632.129 405.993 633.192 404.885 634.515 404.292C637.427 402.987 641.347 404.264 643.645 402.035C644.603 401.103 645.07 399.701 646.164 398.939C647.34 398.119 649.034 398.191 650.033 397.16C650.606 396.567 650.83 395.719 651.29 395.03C651.997 393.972 653.195 393.384 654.269 392.703C655.342 392.023 657.167 390.954 656.963 389.694C656.895 389.274 657.54 389.159 657.933 389.317C659.789 390.07 660.586 392.455 662.436 393.218C663.757 393.76 665.287 393.322 666.523 392.605C667.762 391.888 668.837 390.907 670.106 390.248C670.433 390.08 670.804 389.928 671.155 390.027C671.448 390.111 671.666 390.352 671.915 390.529C672.562 390.991 673.405 391.021 674.198 391.032C677.835 391.092 681.493 391.15 685.09 390.61C685.921 390.483 686.759 390.328 687.597 390.38C688.892 390.465 690.096 391.04 691.307 391.513C692.519 391.986 693.843 392.367 695.102 392.043C696.36 391.719 697.441 390.337 697.147 389.061C695.48 389.467 693.757 388.496 692.573 387.245C691.389 385.993 690.53 384.45 689.326 383.219C688.475 382.355 687.471 381.658 686.64 380.776C684.95 378.975 684.054 376.467 682.125 374.931C681.449 374.395 680.673 373.998 680.007 373.449C678.957 372.581 678.238 371.379 677.316 370.372C675.983 368.913 674.177 367.861 672.228 367.603C670.279 367.345 668.196 367.929 666.776 369.298L666.77 369.304Z" fill="#F0B700" fill-opacity="0.22" style="mix-blend-mode:multiply"/>
<path d="M98.0751 379.93C98.568 377.536 100.211 375.581 101.356 373.422C102.495 371.264 103.068 368.4 101.52 366.52C100.746 365.579 99.575 365.061 98.7111 364.211C97.5027 363.025 96.9569 361.273 95.7326 360.103C93.2098 357.688 88.9858 358.73 86.1027 360.696C83.3626 362.566 80.9299 364.906 78.121 366.68C76.0593 367.983 72.307 367.497 70.717 369.004C70.4097 369.298 70.2824 369.731 70.1712 370.142C69.6147 372.204 69.2702 374.886 71.0562 376.046C72.1374 376.751 73.8599 376.751 74.2627 377.985C74.5966 379 73.7115 379.946 73.1444 380.849C71.3 383.803 72.7575 387.597 73.3246 391.038C73.6691 393.105 73.6744 395.253 74.4323 397.203C75.1902 399.153 77.008 400.911 79.0803 400.708C82.0217 400.414 83.2036 396.786 85.3925 394.788C88.8162 391.668 95.1443 392.325 97.243 388.179C98.4991 385.695 97.5027 382.665 98.0645 379.935L98.0751 379.93Z" fill="#F0B700" fill-opacity="0.22" style="mix-blend-mode:multiply"/>
<path d="M507.227 375.121C507.72 372.728 509.363 370.772 510.508 368.614C511.648 366.455 512.22 363.592 510.672 361.711C509.899 360.771 508.727 360.252 507.863 359.403C506.655 358.217 506.109 356.464 504.885 355.294C502.362 352.879 498.138 353.921 495.255 355.887C492.515 357.757 490.082 360.097 487.273 361.871C485.212 363.175 481.459 362.689 479.869 364.195C479.562 364.489 479.435 364.922 479.323 365.333C478.767 367.396 478.423 370.078 480.209 371.237C481.29 371.942 483.012 371.942 483.415 373.177C483.749 374.192 482.864 375.137 482.297 376.04C480.452 378.995 481.91 382.788 482.477 386.229C482.821 388.297 482.827 390.444 483.585 392.395C484.343 394.345 486.16 396.103 488.233 395.899C491.174 395.606 492.356 391.978 494.545 389.98C497.969 386.859 504.297 387.517 506.395 383.371C507.651 380.886 506.655 377.857 507.217 375.127L507.227 375.121Z" fill="#F0B700" fill-opacity="0.22" style="mix-blend-mode:multiply"/>
<path d="M601.352 350.229C601.845 347.835 603.488 345.88 604.633 343.721C605.772 341.563 606.344 338.699 604.797 336.818C604.023 335.878 602.852 335.36 601.988 334.51C600.78 333.324 600.234 331.572 599.009 330.402C596.487 327.987 592.263 329.029 589.38 330.995C586.639 332.865 584.207 335.205 581.398 336.979C579.336 338.282 575.584 337.796 573.994 339.303C573.687 339.597 573.559 340.029 573.448 340.441C572.892 342.503 572.547 345.185 574.333 346.345C575.414 347.05 577.137 347.05 577.54 348.284C577.873 349.299 576.988 350.245 576.421 351.148C574.577 354.102 576.034 357.896 576.601 361.336C576.946 363.404 576.951 365.552 577.709 367.502C578.467 369.452 580.285 371.21 582.357 371.007C585.299 370.713 586.48 367.085 588.669 365.087C592.093 361.967 598.421 362.624 600.52 358.478C601.776 355.994 600.78 352.964 601.341 350.234L601.352 350.229Z" fill="#F0B700" fill-opacity="0.22" style="mix-blend-mode:multiply"/>
<path d="M57.7376 375.025C60.5466 376.008 63.5198 374.213 65.8147 372.311C67.3729 371.023 68.8568 369.645 70.256 368.181C72.3548 365.996 74.4058 363.672 77.4003 362.801C79.6368 362.149 82.6949 361.802 82.5995 358.633C82.5359 356.592 80.8293 354.861 78.8789 354.306C76.9286 353.75 74.8192 354.183 72.9536 354.974C70.68 355.935 68.5971 357.469 67.2192 359.531C67.0231 359.83 66.8323 360.145 66.5408 360.359C65.8147 360.899 64.8077 360.594 63.9067 360.525C62.3909 360.407 60.8328 361.096 59.8894 362.304C59.2428 363.132 58.8877 364.153 58.5485 365.152C57.8277 367.267 57.1016 369.378 56.3809 371.494C56.1424 372.199 55.8986 372.973 56.153 373.673C56.3968 374.352 57.0592 374.79 57.7323 375.025H57.7376Z" fill="#F0B700" fill-opacity="0.22" style="mix-blend-mode:multiply"/>
<path d="M466.89 370.217C469.699 371.2 472.672 369.404 474.967 367.502C476.525 366.215 478.009 364.836 479.408 363.372C481.507 361.187 483.558 358.863 486.553 357.992C488.789 357.34 491.847 356.993 491.752 353.825C491.688 351.784 489.982 350.053 488.031 349.497C486.081 348.942 483.972 349.374 482.106 350.165C479.832 351.127 477.749 352.66 476.372 354.722C476.175 355.022 475.985 355.337 475.693 355.551C474.967 356.09 473.96 355.786 473.059 355.716C471.543 355.599 469.985 356.288 469.042 357.495C468.395 358.323 468.04 359.344 467.701 360.343C466.98 362.459 466.254 364.569 465.533 366.685C465.295 367.39 465.051 368.165 465.305 368.865C465.549 369.543 466.212 369.981 466.885 370.217H466.89Z" fill="#F0B700" fill-opacity="0.22" style="mix-blend-mode:multiply"/>
<path d="M648.693 367.97C651.502 368.953 654.475 367.158 656.77 365.256C658.328 363.968 659.812 362.59 661.211 361.126C663.31 358.941 665.361 356.617 668.355 355.746C670.592 355.094 673.65 354.747 673.555 351.578C673.491 349.537 671.784 347.806 669.834 347.251C667.884 346.695 665.774 347.128 663.909 347.918C661.635 348.88 659.552 350.414 658.174 352.476C657.978 352.775 657.787 353.09 657.496 353.304C656.77 353.844 655.763 353.539 654.862 353.47C653.346 353.352 651.788 354.041 650.844 355.249C650.198 356.077 649.843 357.097 649.504 358.096C648.783 360.212 648.057 362.323 647.336 364.438C647.097 365.144 646.854 365.918 647.108 366.618C647.352 367.297 648.014 367.735 648.687 367.97H648.693Z" fill="#F0B700" fill-opacity="0.22" style="mix-blend-mode:multiply"/>
<path d="M37.8469 380.496C37.9847 381.308 37.6561 382.217 38.0695 382.927C38.2974 383.323 38.7108 383.568 39.1189 383.761C41.2123 384.744 44.4877 384.728 46.1677 382.879C47.4079 381.511 47.869 377.739 46.5652 376.254C45.272 374.774 42.6857 375.73 41.0427 374.657C40.6187 374.379 40.2901 373.989 39.9032 373.663C39.2461 373.112 38.4246 372.76 37.5713 372.68C36.8558 372.61 36.0661 372.749 35.5785 373.283C35.2923 373.599 35.1386 374.021 35.0644 374.443C34.8736 375.479 35.1121 376.591 35.7057 377.456C36.4159 378.493 37.6349 379.262 37.8469 380.502V380.496Z" fill="#F0B700" fill-opacity="0.22" style="mix-blend-mode:multiply"/>
<path d="M446.999 375.688C447.137 376.5 446.808 377.408 447.222 378.119C447.45 378.514 447.863 378.76 448.271 378.952C450.365 379.935 453.64 379.919 455.32 378.07C456.56 376.703 457.021 372.931 455.718 371.445C454.424 369.965 451.838 370.922 450.195 369.848C449.771 369.57 449.442 369.18 449.056 368.854C448.398 368.304 447.577 367.951 446.724 367.871C446.008 367.802 445.218 367.941 444.731 368.475C444.445 368.79 444.291 369.212 444.217 369.634C444.026 370.671 444.264 371.782 444.858 372.648C445.568 373.684 446.787 374.453 446.999 375.693V375.688Z" fill="#F0B700" fill-opacity="0.22" style="mix-blend-mode:multiply"/>
<path d="M44.3977 372.407C46.2474 373.15 48.59 372.204 49.4167 370.382L49.6552 369.746C51.0279 368.843 51.7169 367 51.2717 365.408C51.1551 364.981 50.9537 364.559 50.6251 364.265C49.9785 363.677 49.0087 363.682 48.1448 363.778C45.6803 364.046 42.9297 365.093 42.1294 367.46C41.4881 369.356 42.5428 371.67 44.3924 372.412L44.3977 372.407Z" fill="#F0B700" fill-opacity="0.22" style="mix-blend-mode:multiply"/>
<path d="M453.55 367.599C455.399 368.342 457.742 367.396 458.569 365.574L458.807 364.938C460.18 364.035 460.869 362.192 460.424 360.6C460.307 360.173 460.106 359.75 459.777 359.457C459.13 358.869 458.161 358.874 457.297 358.97C454.832 359.238 452.082 360.285 451.281 362.652C450.64 364.548 451.695 366.862 453.544 367.604L453.55 367.599Z" fill="#F0B700" fill-opacity="0.22" style="mix-blend-mode:multiply"/>
<path d="M644.457 343.677C646.306 344.42 648.649 343.474 649.476 341.652L649.714 341.016C651.087 340.113 651.776 338.27 651.331 336.678C651.214 336.251 651.013 335.829 650.684 335.535C650.038 334.947 649.068 334.952 648.204 335.049C645.739 335.316 642.989 336.363 642.188 338.73C641.547 340.626 642.602 342.94 644.452 343.682L644.457 343.677Z" fill="#F0B700" fill-opacity="0.22" style="mix-blend-mode:multiply"/>
<path d="M51.1233 378.434C51.5897 378.963 52.4059 379.102 53.0525 378.83C53.6991 378.557 54.1602 377.927 54.3139 377.237C54.4835 376.489 54.2768 375.635 53.6991 375.138C53.1214 374.641 52.1568 374.603 51.6215 375.154L51.2929 375.111C50.8053 376.179 50.3496 377.558 51.1233 378.439V378.434Z" fill="#F0B700" fill-opacity="0.22" style="mix-blend-mode:multiply"/>
<path d="M460.276 373.626C460.742 374.154 461.558 374.293 462.205 374.021C462.851 373.748 463.313 373.118 463.466 372.429C463.636 371.681 463.429 370.826 462.851 370.329C462.274 369.832 461.309 369.795 460.774 370.345L460.445 370.302C459.958 371.371 459.502 372.749 460.276 373.631V373.626Z" fill="#F0B700" fill-opacity="0.22" style="mix-blend-mode:multiply"/>
<path d="M334.488 355.344C333.613 353.015 333.576 350.445 332.908 348.046C332.24 345.647 330.613 343.206 328.17 342.837C328.303 344.525 327.995 346.801 326.331 347.015C324.041 347.309 323.405 343.222 321.121 342.917C319.923 342.757 318.901 343.74 317.74 344.076C315.816 344.627 313.723 343.35 311.793 343.884C310.156 344.338 309.143 345.946 308.29 347.426C306.896 349.847 305.497 352.262 304.103 354.682C303.51 355.708 302.905 356.766 302.704 357.941C302.508 359.111 302.794 360.447 303.722 361.179C305.089 362.263 307.055 361.644 308.725 361.168C311.634 360.34 316.425 359.148 318.747 361.681C321.031 364.176 321.413 367.676 325.144 368.765C326.464 369.15 327.884 369.059 329.219 368.728C333.359 367.708 337.042 363.594 336.104 359.405C335.786 357.978 334.991 356.717 334.477 355.35L334.488 355.344Z" fill="#F0B700" fill-opacity="0.22" style="mix-blend-mode:multiply"/>
<path d="M283.842 363.507C282.968 361.178 282.93 358.608 282.263 356.209C281.595 353.81 279.968 351.369 277.525 351C277.657 352.688 277.35 354.964 275.685 355.178C273.396 355.472 272.76 351.385 270.476 351.08C269.278 350.92 268.255 351.903 267.094 352.24C265.17 352.79 263.077 351.513 261.148 352.047C259.51 352.501 258.498 354.11 257.645 355.589C256.251 358.01 254.852 360.425 253.458 362.845C252.864 363.871 252.26 364.929 252.059 366.104C251.862 367.274 252.149 368.61 253.076 369.342C254.443 370.426 256.41 369.807 258.079 369.331C260.989 368.503 265.78 367.312 268.101 369.844C270.386 372.339 270.767 375.839 274.498 376.929C275.818 377.313 277.238 377.222 278.574 376.891C282.713 375.871 286.397 371.757 285.459 367.568C285.141 366.141 284.346 364.881 283.831 363.513L283.842 363.507Z" fill="#F0B700" fill-opacity="0.22" style="mix-blend-mode:multiply"/>
<path d="M559.842 359.507C558.968 357.178 558.93 354.608 558.263 352.209C557.595 349.81 555.968 347.369 553.525 347C553.657 348.688 553.35 350.964 551.685 351.178C549.396 351.472 548.76 347.385 546.476 347.08C545.278 346.92 544.255 347.903 543.094 348.24C541.17 348.79 539.077 347.513 537.148 348.047C535.51 348.501 534.498 350.11 533.645 351.589C532.251 354.01 530.852 356.425 529.458 358.845C528.864 359.871 528.26 360.929 528.059 362.104C527.862 363.274 528.149 364.61 529.076 365.342C530.443 366.426 532.41 365.807 534.079 365.331C536.989 364.503 541.78 363.312 544.101 365.844C546.386 368.339 546.767 371.839 550.498 372.929C551.818 373.313 553.238 373.222 554.574 372.891C558.713 371.871 562.397 367.757 561.459 363.568C561.141 362.141 560.346 360.881 559.831 359.513L559.842 359.507Z" fill="#F0B700" fill-opacity="0.22" style="mix-blend-mode:multiply"/>
<path d="M503.842 334.507C502.968 332.178 502.93 329.608 502.263 327.209C501.595 324.81 499.968 322.369 497.525 322C497.657 323.688 497.35 325.964 495.685 326.178C493.396 326.472 492.76 322.385 490.476 322.08C489.278 321.92 488.255 322.903 487.094 323.24C485.17 323.79 483.077 322.513 481.148 323.047C479.51 323.501 478.498 325.11 477.645 326.589C476.251 329.01 474.852 331.425 473.458 333.845C472.864 334.871 472.26 335.929 472.059 337.104C471.862 338.274 472.149 339.61 473.076 340.342C474.443 341.426 476.41 340.807 478.079 340.331C480.989 339.503 485.78 338.312 488.101 340.844C490.386 343.339 490.767 346.839 494.498 347.929C495.818 348.313 497.238 348.222 498.574 347.891C502.713 346.871 506.397 342.757 505.459 338.568C505.141 337.141 504.346 335.881 503.831 334.513L503.842 334.507Z" fill="#F0B700" fill-opacity="0.22" style="mix-blend-mode:multiply"/>
<path d="M389.736 11.6328L392.027 9.30908L393.92 11.7658L397.639 13.1968L393.707 14.3797L391.417 16.7035L389.524 14.2468L385.805 12.8158L389.736 11.6328Z" fill="#FEFEFE"/>
<path d="M225.943 106.418L228.233 104.095L230.126 106.551L233.845 107.982L229.914 109.165L227.623 111.489L225.73 109.032L222.011 107.601L225.943 106.418Z" fill="#FEFEFE"/>
<path d="M693.255 93.5699L695.546 91.2461L697.439 93.7028L701.158 95.1338L697.226 96.3167L694.936 98.6405L693.043 96.1838L689.324 94.7528L693.255 93.5699Z" fill="#FEFEFE"/>
<path d="M551.443 9.81546L553.734 7.4917L555.627 9.94837L559.346 11.3794L555.414 12.5623L553.124 14.8861L551.231 12.4294L547.512 10.9984L551.443 9.81546Z" fill="#FEFEFE"/>
<path d="M613.308 189.221L615.598 186.897L617.491 189.354L621.21 190.785L617.278 191.968L614.988 194.292L613.095 191.835L609.376 190.404L613.308 189.221Z" fill="#FEFEFE"/>
<path d="M275.91 237.761L278.201 235.437L280.094 237.894L283.813 239.325L279.881 240.508L277.591 242.831L275.698 240.375L271.979 238.944L275.91 237.761Z" fill="#FEFEFE"/>
<path d="M837.447 256.796L839.737 254.473L841.63 256.929L845.349 258.36L841.417 259.543L839.127 261.867L837.234 259.41L833.515 257.979L837.447 256.796Z" fill="#FEFEFE"/>
<g opacity="0.8">
<path d="M183.24 135.687C186.2 128.532 182.807 120.33 175.66 117.366C168.513 114.402 160.32 117.8 157.36 124.955C154.4 132.11 157.793 140.313 164.94 143.276C172.087 146.24 180.28 142.842 183.24 135.687Z" fill="#F2F2F2"/>
<path d="M170.299 145.794C161.777 145.794 154.845 138.854 154.845 130.321C154.845 121.788 161.777 114.854 170.299 114.854C178.822 114.854 185.754 121.794 185.754 130.326C185.754 138.859 178.822 145.799 170.299 145.799V145.794ZM170.299 117.754C163.372 117.754 157.742 123.391 157.742 130.326C157.742 137.261 163.372 142.899 170.299 142.899C177.226 142.899 182.857 137.261 182.857 130.326C182.857 123.391 177.221 117.754 170.299 117.754Z" fill="#EF335B"/>
<path d="M170.65 119.641H169.501V122.755H170.65V119.641Z" fill="#EF335B"/>
<path d="M170.65 138.334H169.501V141.448H170.65V138.334Z" fill="#EF335B"/>
<path d="M180.967 129.97H177.857V131.12H180.967V129.97Z" fill="#EF335B"/>
<path d="M162.295 129.97H159.185V131.12H162.295V129.97Z" fill="#EF335B"/>
<path d="M175.188 131.12H169.501V121.646H170.65V129.97H175.188V131.12Z" fill="#600E23"/>
</g>
</svg>
