<svg width="435" height="167" viewBox="0 0 435 167" fill="none" xmlns="http://www.w3.org/2000/svg">
<g filter="url(#filter0_d_1_20002)">
<path d="M15.5983 156.505L10.1395 90.5352L4.67536 23.5653L430.036 10.1154L422.655 154.161L15.5983 156.505Z" fill="#FDC927"/>
</g>
<path opacity="0.5" d="M15.2905 137.474L11.7905 102.974L424.791 84.4736L424.791 125.474L15.2905 137.474Z" fill="#FDEECE" fill-opacity="0.5"/>
<path opacity="0.5" d="M5.79053 47.9736L9.79053 87.4736L427.791 73.9736L427.791 28.4736L5.79053 47.9736Z" fill="#FDEECE" fill-opacity="0.2"/>
<mask id="path-4-outside-1_1_20002" maskUnits="userSpaceOnUse" x="54" y="71" width="229" height="28" fill="black">
<rect fill="white" x="54" y="71" width="229" height="28"/>
<path d="M66.0647 72.185C67.768 72.185 69.2614 72.43 70.5447 72.92C71.8514 73.3867 72.5047 74.0283 72.5047 74.845C72.5047 75.6617 72.1897 76.6767 71.5597 77.89C70.953 79.08 70.4397 79.675 70.0197 79.675C69.903 79.675 69.763 79.6167 69.5997 79.5C69.4597 79.36 69.1097 79.22 68.5497 79.08C68.013 78.9167 67.5464 78.835 67.1497 78.835C65.7964 78.835 64.6997 79.3133 63.8597 80.27C63.043 81.2267 62.6347 82.6967 62.6347 84.68C62.6347 86.64 63.0547 88.0983 63.8947 89.055C64.758 90.0117 65.843 90.49 67.1497 90.49C67.6864 90.49 68.2814 90.42 68.9347 90.28C69.6114 90.1167 70.0897 89.895 70.3697 89.615C70.4164 89.5683 70.5097 89.545 70.6497 89.545C70.7897 89.545 71.0464 89.8133 71.4197 90.35C71.8164 90.8633 72.178 91.5517 72.5047 92.415C72.8314 93.255 72.9947 93.9083 72.9947 94.375C72.9947 95.285 72.2947 96.0083 70.8947 96.545C69.4947 97.0817 67.838 97.35 65.9247 97.35C62.8447 97.35 60.313 96.265 58.3297 94.095C56.3464 91.925 55.3547 88.8683 55.3547 84.925C55.3547 80.9583 56.3697 77.8433 58.3997 75.58C60.453 73.3167 63.008 72.185 66.0647 72.185ZM77.0038 94.935C75.5572 93.325 74.8338 91.0967 74.8338 88.25C74.8338 85.4033 75.5572 83.175 77.0038 81.565C78.4738 79.955 80.4455 79.15 82.9188 79.15C85.3922 79.15 87.3522 79.955 88.7988 81.565C90.2455 83.175 90.9688 85.4033 90.9688 88.25C90.9688 91.0967 90.2455 93.325 88.7988 94.935C87.3522 96.545 85.3922 97.35 82.9188 97.35C80.4455 97.35 78.4738 96.545 77.0038 94.935ZM82.9188 84.995C81.6122 84.995 80.9588 86.0683 80.9588 88.215C80.9588 90.3617 81.6122 91.435 82.9188 91.435C84.2488 91.435 84.9138 90.3617 84.9138 88.215C84.9138 86.0683 84.2488 84.995 82.9188 84.995ZM101.108 96.965C101.108 97.1283 100.046 97.21 97.9232 97.21C95.7998 97.1633 94.7382 97.07 94.7382 96.93L94.7382 85.31L93.7932 85.31C93.4198 85.31 93.1165 85.0883 92.8832 84.645C92.6732 84.1783 92.5682 83.6067 92.5682 82.93C92.5682 80.41 93.3148 79.15 94.8082 79.15C95.8582 79.15 96.7332 79.4767 97.4332 80.13C98.1332 80.76 98.4832 81.4833 98.4832 82.3C98.9732 81.3433 99.6265 80.585 100.443 80.025C101.283 79.4417 102.135 79.15 102.998 79.15C104.351 79.15 105.168 79.5 105.448 80.2C105.518 80.3867 105.553 80.6667 105.553 81.04C105.553 81.39 105.436 82.0317 105.203 82.965C104.993 83.8983 104.771 84.575 104.538 84.995C104.305 85.415 104.165 85.625 104.118 85.625C104.071 85.625 103.85 85.5433 103.453 85.38C103.08 85.1933 102.741 85.1 102.438 85.1C101.551 85.1 101.108 85.8 101.108 87.2L101.108 96.965ZM114.985 96.965C114.985 97.1283 113.923 97.21 111.8 97.21C109.677 97.1633 108.615 97.07 108.615 96.93L108.615 85.31L107.67 85.31C107.297 85.31 106.993 85.0883 106.76 84.645C106.55 84.1783 106.445 83.6067 106.445 82.93C106.445 80.41 107.192 79.15 108.685 79.15C109.735 79.15 110.61 79.4767 111.31 80.13C112.01 80.76 112.36 81.4833 112.36 82.3C112.85 81.3433 113.503 80.585 114.32 80.025C115.16 79.4417 116.012 79.15 116.875 79.15C118.228 79.15 119.045 79.5 119.325 80.2C119.395 80.3867 119.43 80.6667 119.43 81.04C119.43 81.39 119.313 82.0317 119.08 82.965C118.87 83.8983 118.648 84.575 118.415 84.995C118.182 85.415 118.042 85.625 117.995 85.625C117.948 85.625 117.727 85.5433 117.33 85.38C116.957 85.1933 116.618 85.1 116.315 85.1C115.428 85.1 114.985 85.8 114.985 87.2L114.985 96.965ZM134.427 96.055C132.957 96.9183 131.067 97.35 128.757 97.35C126.447 97.35 124.499 96.5683 122.912 95.005C121.325 93.4183 120.532 91.2367 120.532 88.46C120.532 85.66 121.29 83.4083 122.807 81.705C124.347 80.0017 126.284 79.15 128.617 79.15C130.95 79.15 132.747 79.745 134.007 80.935C135.29 82.125 135.932 83.5717 135.932 85.275C135.932 89.055 133.762 90.945 129.422 90.945L127.007 90.945C127.007 91.645 127.194 92.135 127.567 92.415C127.964 92.6717 128.535 92.8 129.282 92.8C130.915 92.8 132.467 92.4267 133.937 91.68C133.96 91.6567 134.065 91.82 134.252 92.17C134.812 93.1733 135.092 94.025 135.092 94.725C135.092 95.4017 134.87 95.845 134.427 96.055ZM130.052 85.94C130.052 84.96 129.574 84.47 128.617 84.47C128.174 84.47 127.789 84.61 127.462 84.89C127.159 85.1467 127.007 85.5317 127.007 86.045L127.007 87.13L128.897 87.13C129.667 87.13 130.052 86.7333 130.052 85.94ZM143.959 88.32C143.959 90.6067 144.822 91.75 146.549 91.75C147.669 91.75 148.602 91.5283 149.349 91.085C149.699 91.085 149.979 91.6917 150.189 92.905C150.422 94.095 150.539 94.9117 150.539 95.355C150.539 95.775 150.48 96.055 150.364 96.195C149.127 96.965 147.435 97.35 145.289 97.35C143.142 97.35 141.31 96.5567 139.794 94.97C138.3 93.36 137.554 91.1783 137.554 88.425C137.554 85.6483 138.289 83.4083 139.759 81.705C141.252 80.0017 143.224 79.15 145.674 79.15C148.147 79.15 149.862 79.745 150.819 80.935C151.029 81.1917 151.134 81.5767 151.134 82.09C151.134 82.58 151.04 83.1867 150.854 83.91C150.434 85.4033 149.885 86.2667 149.209 86.5C149.115 86.5233 148.975 86.535 148.789 86.535C148.625 86.535 148.415 86.395 148.159 86.115C147.249 85.205 146.514 84.75 145.954 84.75C145.417 84.75 144.95 85.03 144.554 85.59C144.157 86.15 143.959 87.06 143.959 88.32ZM161.103 96.79C161.103 97.07 160.123 97.21 158.163 97.21C155.829 97.1167 154.663 96.965 154.663 96.755L154.663 84.365L152.878 84.365C152.411 84.365 152.178 83.56 152.178 81.95C152.178 81.53 152.213 81.0167 152.283 80.41C152.376 79.8033 152.551 79.5 152.808 79.5L154.663 79.5L154.663 76.42C154.663 75.9533 155.643 75.72 157.603 75.72C159.586 75.72 160.578 75.9067 160.578 76.28L160.578 78.52L160.613 79.5L163.588 79.5C163.984 79.5 164.183 80.3167 164.183 81.95C164.183 83.5833 163.984 84.4 163.588 84.4L161.103 84.4L161.103 96.79ZM174.74 84.295C174.087 83.1283 173.76 82.1833 173.76 81.46C173.76 80.7133 173.958 80.235 174.355 80.025C175.685 79.4417 177.505 79.15 179.815 79.15C182.148 79.15 183.793 79.6983 184.75 80.795C185.707 81.8683 186.185 83.4667 186.185 85.59L186.185 91.12L187.375 91.12C187.772 91.12 188.075 91.3533 188.285 91.82C188.518 92.2867 188.635 92.9283 188.635 93.745C188.635 94.5617 188.425 95.3667 188.005 96.16C187.608 96.9533 187.06 97.35 186.36 97.35C185.1 97.35 184.085 97.0117 183.315 96.335C182.965 96.055 182.697 95.7167 182.51 95.32C181.437 96.6733 179.768 97.35 177.505 97.35C175.802 97.35 174.367 96.7433 173.2 95.53C172.033 94.3167 171.45 92.8817 171.45 91.225C171.45 87.4217 173.725 85.52 178.275 85.52L180.2 85.52L180.2 85.17C180.2 84.5633 180.095 84.1783 179.885 84.015C179.698 83.8283 179.243 83.735 178.52 83.735C177.633 83.735 176.373 83.9217 174.74 84.295ZM177.54 90.735C177.54 91.2483 177.68 91.645 177.96 91.925C178.24 92.1817 178.59 92.31 179.01 92.31C179.453 92.31 179.85 92.135 180.2 91.785L180.2 89.09L179.22 89.09C178.1 89.09 177.54 89.6383 177.54 90.735ZM197.931 96.79C197.931 96.9533 197.091 97.035 195.411 97.035C193.078 96.965 191.911 96.8367 191.911 96.65L191.911 85.31L191.001 85.31C190.394 85.31 189.998 84.7967 189.811 83.77C189.764 83.4667 189.741 83.1633 189.741 82.86C189.741 82.1367 189.881 81.4133 190.161 80.69C190.581 79.6633 191.234 79.15 192.121 79.15C193.008 79.15 193.801 79.36 194.501 79.78C195.201 80.2 195.668 80.62 195.901 81.04C197.371 79.78 199.121 79.15 201.151 79.15C203.181 79.15 204.651 79.6983 205.561 80.795C206.471 81.8917 206.926 83.6883 206.926 86.185L206.926 96.685C206.926 96.965 205.923 97.105 203.916 97.105C201.933 97.105 200.941 96.965 200.941 96.685L200.941 86.57C200.941 85.4033 200.533 84.82 199.716 84.82C199.483 84.82 199.156 84.925 198.736 85.135C198.316 85.3217 198.048 85.4617 197.931 85.555L197.931 96.79ZM210.628 90.7C212.518 91.8433 214.012 92.415 215.108 92.415C215.808 92.415 216.158 92.17 216.158 91.68C216.158 91.33 215.552 90.875 214.338 90.315C211.422 89.125 209.963 87.1767 209.963 84.47C209.963 82.7433 210.593 81.425 211.853 80.515C213.113 79.605 214.618 79.15 216.368 79.15C218.142 79.15 219.635 79.3367 220.848 79.71C222.085 80.0833 222.703 80.5733 222.703 81.18C222.703 81.6933 222.447 82.37 221.933 83.21C221.443 84.05 221.105 84.505 220.918 84.575C219.915 84.015 218.83 83.735 217.663 83.735C217.033 83.735 216.718 83.9567 216.718 84.4C216.718 84.68 216.835 84.925 217.068 85.135C217.325 85.3217 217.78 85.5667 218.433 85.87C219.087 86.15 219.623 86.4067 220.043 86.64C220.487 86.8733 220.977 87.2 221.513 87.62C222.633 88.5067 223.193 89.6617 223.193 91.085C223.193 92.9517 222.575 94.4683 221.338 95.635C220.102 96.7783 218.235 97.35 215.738 97.35C214.082 97.35 212.577 97.07 211.223 96.51C209.87 95.95 209.193 95.18 209.193 94.2C209.193 93.5467 209.345 92.8583 209.648 92.135C209.975 91.4117 210.302 90.9333 210.628 90.7ZM243.815 79.675C243.815 79.465 244.457 79.36 245.74 79.36C248.634 79.36 250.057 79.4533 250.01 79.64L246.58 96.65C246.51 97.0233 245.215 97.21 242.695 97.21C240.175 97.21 238.88 97.0233 238.81 96.65L237.375 88.81L235.59 96.65C235.52 97 234.179 97.175 231.565 97.175C228.975 97.175 227.645 96.965 227.575 96.545L224.46 79.5C224.39 79.36 225.394 79.29 227.47 79.29C229.524 79.3133 230.55 79.36 230.55 79.43L232.16 91.26L235.065 79.57C235.112 79.43 235.882 79.36 237.375 79.36C238.869 79.36 239.639 79.43 239.685 79.57L242.555 91.12L243.815 79.675ZM265.199 96.055C263.729 96.9183 261.839 97.35 259.529 97.35C257.219 97.35 255.27 96.5683 253.684 95.005C252.097 93.4183 251.304 91.2367 251.304 88.46C251.304 85.66 252.062 83.4083 253.579 81.705C255.119 80.0017 257.055 79.15 259.389 79.15C261.722 79.15 263.519 79.745 264.779 80.935C266.062 82.125 266.704 83.5717 266.704 85.275C266.704 89.055 264.534 90.945 260.194 90.945L257.779 90.945C257.779 91.645 257.965 92.135 258.339 92.415C258.735 92.6717 259.307 92.8 260.054 92.8C261.687 92.8 263.239 92.4267 264.709 91.68C264.732 91.6567 264.837 91.82 265.024 92.17C265.584 93.1733 265.864 94.025 265.864 94.725C265.864 95.4017 265.642 95.845 265.199 96.055ZM260.824 85.94C260.824 84.96 260.345 84.47 259.389 84.47C258.945 84.47 258.56 84.61 258.234 84.89C257.93 85.1467 257.779 85.5317 257.779 86.045L257.779 87.13L259.669 87.13C260.439 87.13 260.824 86.7333 260.824 85.94ZM276.655 96.965C276.655 97.1283 275.593 97.21 273.47 97.21C271.347 97.1633 270.285 97.07 270.285 96.93L270.285 85.31L269.34 85.31C268.967 85.31 268.663 85.0883 268.43 84.645C268.22 84.1783 268.115 83.6067 268.115 82.93C268.115 80.41 268.862 79.15 270.355 79.15C271.405 79.15 272.28 79.4767 272.98 80.13C273.68 80.76 274.03 81.4833 274.03 82.3C274.52 81.3433 275.173 80.585 275.99 80.025C276.83 79.4417 277.682 79.15 278.545 79.15C279.898 79.15 280.715 79.5 280.995 80.2C281.065 80.3867 281.1 80.6667 281.1 81.04C281.1 81.39 280.983 82.0317 280.75 82.965C280.54 83.8983 280.318 84.575 280.085 84.995C279.852 85.415 279.712 85.625 279.665 85.625C279.618 85.625 279.397 85.5433 279 85.38C278.627 85.1933 278.288 85.1 277.985 85.1C277.098 85.1 276.655 85.8 276.655 87.2L276.655 96.965Z"/>
</mask>
<path d="M66.0647 72.185C67.768 72.185 69.2614 72.43 70.5447 72.92C71.8514 73.3867 72.5047 74.0283 72.5047 74.845C72.5047 75.6617 72.1897 76.6767 71.5597 77.89C70.953 79.08 70.4397 79.675 70.0197 79.675C69.903 79.675 69.763 79.6167 69.5997 79.5C69.4597 79.36 69.1097 79.22 68.5497 79.08C68.013 78.9167 67.5464 78.835 67.1497 78.835C65.7964 78.835 64.6997 79.3133 63.8597 80.27C63.043 81.2267 62.6347 82.6967 62.6347 84.68C62.6347 86.64 63.0547 88.0983 63.8947 89.055C64.758 90.0117 65.843 90.49 67.1497 90.49C67.6864 90.49 68.2814 90.42 68.9347 90.28C69.6114 90.1167 70.0897 89.895 70.3697 89.615C70.4164 89.5683 70.5097 89.545 70.6497 89.545C70.7897 89.545 71.0464 89.8133 71.4197 90.35C71.8164 90.8633 72.178 91.5517 72.5047 92.415C72.8314 93.255 72.9947 93.9083 72.9947 94.375C72.9947 95.285 72.2947 96.0083 70.8947 96.545C69.4947 97.0817 67.838 97.35 65.9247 97.35C62.8447 97.35 60.313 96.265 58.3297 94.095C56.3464 91.925 55.3547 88.8683 55.3547 84.925C55.3547 80.9583 56.3697 77.8433 58.3997 75.58C60.453 73.3167 63.008 72.185 66.0647 72.185ZM77.0038 94.935C75.5572 93.325 74.8338 91.0967 74.8338 88.25C74.8338 85.4033 75.5572 83.175 77.0038 81.565C78.4738 79.955 80.4455 79.15 82.9188 79.15C85.3922 79.15 87.3522 79.955 88.7988 81.565C90.2455 83.175 90.9688 85.4033 90.9688 88.25C90.9688 91.0967 90.2455 93.325 88.7988 94.935C87.3522 96.545 85.3922 97.35 82.9188 97.35C80.4455 97.35 78.4738 96.545 77.0038 94.935ZM82.9188 84.995C81.6122 84.995 80.9588 86.0683 80.9588 88.215C80.9588 90.3617 81.6122 91.435 82.9188 91.435C84.2488 91.435 84.9138 90.3617 84.9138 88.215C84.9138 86.0683 84.2488 84.995 82.9188 84.995ZM101.108 96.965C101.108 97.1283 100.046 97.21 97.9232 97.21C95.7998 97.1633 94.7382 97.07 94.7382 96.93L94.7382 85.31L93.7932 85.31C93.4198 85.31 93.1165 85.0883 92.8832 84.645C92.6732 84.1783 92.5682 83.6067 92.5682 82.93C92.5682 80.41 93.3148 79.15 94.8082 79.15C95.8582 79.15 96.7332 79.4767 97.4332 80.13C98.1332 80.76 98.4832 81.4833 98.4832 82.3C98.9732 81.3433 99.6265 80.585 100.443 80.025C101.283 79.4417 102.135 79.15 102.998 79.15C104.351 79.15 105.168 79.5 105.448 80.2C105.518 80.3867 105.553 80.6667 105.553 81.04C105.553 81.39 105.436 82.0317 105.203 82.965C104.993 83.8983 104.771 84.575 104.538 84.995C104.305 85.415 104.165 85.625 104.118 85.625C104.071 85.625 103.85 85.5433 103.453 85.38C103.08 85.1933 102.741 85.1 102.438 85.1C101.551 85.1 101.108 85.8 101.108 87.2L101.108 96.965ZM114.985 96.965C114.985 97.1283 113.923 97.21 111.8 97.21C109.677 97.1633 108.615 97.07 108.615 96.93L108.615 85.31L107.67 85.31C107.297 85.31 106.993 85.0883 106.76 84.645C106.55 84.1783 106.445 83.6067 106.445 82.93C106.445 80.41 107.192 79.15 108.685 79.15C109.735 79.15 110.61 79.4767 111.31 80.13C112.01 80.76 112.36 81.4833 112.36 82.3C112.85 81.3433 113.503 80.585 114.32 80.025C115.16 79.4417 116.012 79.15 116.875 79.15C118.228 79.15 119.045 79.5 119.325 80.2C119.395 80.3867 119.43 80.6667 119.43 81.04C119.43 81.39 119.313 82.0317 119.08 82.965C118.87 83.8983 118.648 84.575 118.415 84.995C118.182 85.415 118.042 85.625 117.995 85.625C117.948 85.625 117.727 85.5433 117.33 85.38C116.957 85.1933 116.618 85.1 116.315 85.1C115.428 85.1 114.985 85.8 114.985 87.2L114.985 96.965ZM134.427 96.055C132.957 96.9183 131.067 97.35 128.757 97.35C126.447 97.35 124.499 96.5683 122.912 95.005C121.325 93.4183 120.532 91.2367 120.532 88.46C120.532 85.66 121.29 83.4083 122.807 81.705C124.347 80.0017 126.284 79.15 128.617 79.15C130.95 79.15 132.747 79.745 134.007 80.935C135.29 82.125 135.932 83.5717 135.932 85.275C135.932 89.055 133.762 90.945 129.422 90.945L127.007 90.945C127.007 91.645 127.194 92.135 127.567 92.415C127.964 92.6717 128.535 92.8 129.282 92.8C130.915 92.8 132.467 92.4267 133.937 91.68C133.96 91.6567 134.065 91.82 134.252 92.17C134.812 93.1733 135.092 94.025 135.092 94.725C135.092 95.4017 134.87 95.845 134.427 96.055ZM130.052 85.94C130.052 84.96 129.574 84.47 128.617 84.47C128.174 84.47 127.789 84.61 127.462 84.89C127.159 85.1467 127.007 85.5317 127.007 86.045L127.007 87.13L128.897 87.13C129.667 87.13 130.052 86.7333 130.052 85.94ZM143.959 88.32C143.959 90.6067 144.822 91.75 146.549 91.75C147.669 91.75 148.602 91.5283 149.349 91.085C149.699 91.085 149.979 91.6917 150.189 92.905C150.422 94.095 150.539 94.9117 150.539 95.355C150.539 95.775 150.48 96.055 150.364 96.195C149.127 96.965 147.435 97.35 145.289 97.35C143.142 97.35 141.31 96.5567 139.794 94.97C138.3 93.36 137.554 91.1783 137.554 88.425C137.554 85.6483 138.289 83.4083 139.759 81.705C141.252 80.0017 143.224 79.15 145.674 79.15C148.147 79.15 149.862 79.745 150.819 80.935C151.029 81.1917 151.134 81.5767 151.134 82.09C151.134 82.58 151.04 83.1867 150.854 83.91C150.434 85.4033 149.885 86.2667 149.209 86.5C149.115 86.5233 148.975 86.535 148.789 86.535C148.625 86.535 148.415 86.395 148.159 86.115C147.249 85.205 146.514 84.75 145.954 84.75C145.417 84.75 144.95 85.03 144.554 85.59C144.157 86.15 143.959 87.06 143.959 88.32ZM161.103 96.79C161.103 97.07 160.123 97.21 158.163 97.21C155.829 97.1167 154.663 96.965 154.663 96.755L154.663 84.365L152.878 84.365C152.411 84.365 152.178 83.56 152.178 81.95C152.178 81.53 152.213 81.0167 152.283 80.41C152.376 79.8033 152.551 79.5 152.808 79.5L154.663 79.5L154.663 76.42C154.663 75.9533 155.643 75.72 157.603 75.72C159.586 75.72 160.578 75.9067 160.578 76.28L160.578 78.52L160.613 79.5L163.588 79.5C163.984 79.5 164.183 80.3167 164.183 81.95C164.183 83.5833 163.984 84.4 163.588 84.4L161.103 84.4L161.103 96.79ZM174.74 84.295C174.087 83.1283 173.76 82.1833 173.76 81.46C173.76 80.7133 173.958 80.235 174.355 80.025C175.685 79.4417 177.505 79.15 179.815 79.15C182.148 79.15 183.793 79.6983 184.75 80.795C185.707 81.8683 186.185 83.4667 186.185 85.59L186.185 91.12L187.375 91.12C187.772 91.12 188.075 91.3533 188.285 91.82C188.518 92.2867 188.635 92.9283 188.635 93.745C188.635 94.5617 188.425 95.3667 188.005 96.16C187.608 96.9533 187.06 97.35 186.36 97.35C185.1 97.35 184.085 97.0117 183.315 96.335C182.965 96.055 182.697 95.7167 182.51 95.32C181.437 96.6733 179.768 97.35 177.505 97.35C175.802 97.35 174.367 96.7433 173.2 95.53C172.033 94.3167 171.45 92.8817 171.45 91.225C171.45 87.4217 173.725 85.52 178.275 85.52L180.2 85.52L180.2 85.17C180.2 84.5633 180.095 84.1783 179.885 84.015C179.698 83.8283 179.243 83.735 178.52 83.735C177.633 83.735 176.373 83.9217 174.74 84.295ZM177.54 90.735C177.54 91.2483 177.68 91.645 177.96 91.925C178.24 92.1817 178.59 92.31 179.01 92.31C179.453 92.31 179.85 92.135 180.2 91.785L180.2 89.09L179.22 89.09C178.1 89.09 177.54 89.6383 177.54 90.735ZM197.931 96.79C197.931 96.9533 197.091 97.035 195.411 97.035C193.078 96.965 191.911 96.8367 191.911 96.65L191.911 85.31L191.001 85.31C190.394 85.31 189.998 84.7967 189.811 83.77C189.764 83.4667 189.741 83.1633 189.741 82.86C189.741 82.1367 189.881 81.4133 190.161 80.69C190.581 79.6633 191.234 79.15 192.121 79.15C193.008 79.15 193.801 79.36 194.501 79.78C195.201 80.2 195.668 80.62 195.901 81.04C197.371 79.78 199.121 79.15 201.151 79.15C203.181 79.15 204.651 79.6983 205.561 80.795C206.471 81.8917 206.926 83.6883 206.926 86.185L206.926 96.685C206.926 96.965 205.923 97.105 203.916 97.105C201.933 97.105 200.941 96.965 200.941 96.685L200.941 86.57C200.941 85.4033 200.533 84.82 199.716 84.82C199.483 84.82 199.156 84.925 198.736 85.135C198.316 85.3217 198.048 85.4617 197.931 85.555L197.931 96.79ZM210.628 90.7C212.518 91.8433 214.012 92.415 215.108 92.415C215.808 92.415 216.158 92.17 216.158 91.68C216.158 91.33 215.552 90.875 214.338 90.315C211.422 89.125 209.963 87.1767 209.963 84.47C209.963 82.7433 210.593 81.425 211.853 80.515C213.113 79.605 214.618 79.15 216.368 79.15C218.142 79.15 219.635 79.3367 220.848 79.71C222.085 80.0833 222.703 80.5733 222.703 81.18C222.703 81.6933 222.447 82.37 221.933 83.21C221.443 84.05 221.105 84.505 220.918 84.575C219.915 84.015 218.83 83.735 217.663 83.735C217.033 83.735 216.718 83.9567 216.718 84.4C216.718 84.68 216.835 84.925 217.068 85.135C217.325 85.3217 217.78 85.5667 218.433 85.87C219.087 86.15 219.623 86.4067 220.043 86.64C220.487 86.8733 220.977 87.2 221.513 87.62C222.633 88.5067 223.193 89.6617 223.193 91.085C223.193 92.9517 222.575 94.4683 221.338 95.635C220.102 96.7783 218.235 97.35 215.738 97.35C214.082 97.35 212.577 97.07 211.223 96.51C209.87 95.95 209.193 95.18 209.193 94.2C209.193 93.5467 209.345 92.8583 209.648 92.135C209.975 91.4117 210.302 90.9333 210.628 90.7ZM243.815 79.675C243.815 79.465 244.457 79.36 245.74 79.36C248.634 79.36 250.057 79.4533 250.01 79.64L246.58 96.65C246.51 97.0233 245.215 97.21 242.695 97.21C240.175 97.21 238.88 97.0233 238.81 96.65L237.375 88.81L235.59 96.65C235.52 97 234.179 97.175 231.565 97.175C228.975 97.175 227.645 96.965 227.575 96.545L224.46 79.5C224.39 79.36 225.394 79.29 227.47 79.29C229.524 79.3133 230.55 79.36 230.55 79.43L232.16 91.26L235.065 79.57C235.112 79.43 235.882 79.36 237.375 79.36C238.869 79.36 239.639 79.43 239.685 79.57L242.555 91.12L243.815 79.675ZM265.199 96.055C263.729 96.9183 261.839 97.35 259.529 97.35C257.219 97.35 255.27 96.5683 253.684 95.005C252.097 93.4183 251.304 91.2367 251.304 88.46C251.304 85.66 252.062 83.4083 253.579 81.705C255.119 80.0017 257.055 79.15 259.389 79.15C261.722 79.15 263.519 79.745 264.779 80.935C266.062 82.125 266.704 83.5717 266.704 85.275C266.704 89.055 264.534 90.945 260.194 90.945L257.779 90.945C257.779 91.645 257.965 92.135 258.339 92.415C258.735 92.6717 259.307 92.8 260.054 92.8C261.687 92.8 263.239 92.4267 264.709 91.68C264.732 91.6567 264.837 91.82 265.024 92.17C265.584 93.1733 265.864 94.025 265.864 94.725C265.864 95.4017 265.642 95.845 265.199 96.055ZM260.824 85.94C260.824 84.96 260.345 84.47 259.389 84.47C258.945 84.47 258.56 84.61 258.234 84.89C257.93 85.1467 257.779 85.5317 257.779 86.045L257.779 87.13L259.669 87.13C260.439 87.13 260.824 86.7333 260.824 85.94ZM276.655 96.965C276.655 97.1283 275.593 97.21 273.47 97.21C271.347 97.1633 270.285 97.07 270.285 96.93L270.285 85.31L269.34 85.31C268.967 85.31 268.663 85.0883 268.43 84.645C268.22 84.1783 268.115 83.6067 268.115 82.93C268.115 80.41 268.862 79.15 270.355 79.15C271.405 79.15 272.28 79.4767 272.98 80.13C273.68 80.76 274.03 81.4833 274.03 82.3C274.52 81.3433 275.173 80.585 275.99 80.025C276.83 79.4417 277.682 79.15 278.545 79.15C279.898 79.15 280.715 79.5 280.995 80.2C281.065 80.3867 281.1 80.6667 281.1 81.04C281.1 81.39 280.983 82.0317 280.75 82.965C280.54 83.8983 280.318 84.575 280.085 84.995C279.852 85.415 279.712 85.625 279.665 85.625C279.618 85.625 279.397 85.5433 279 85.38C278.627 85.1933 278.288 85.1 277.985 85.1C277.098 85.1 276.655 85.8 276.655 87.2L276.655 96.965Z" fill="#231F20"/>
<path d="M70.5447 72.92L70.188 73.8542L70.1981 73.8581L70.2084 73.8617L70.5447 72.92ZM71.5597 77.89L70.6722 77.4292L70.6688 77.4358L71.5597 77.89ZM69.5997 79.5L68.8926 80.2071L68.9511 80.2656L69.0185 80.3137L69.5997 79.5ZM68.5497 79.08L68.2585 80.0367L68.2827 80.044L68.3072 80.0501L68.5497 79.08ZM63.8597 80.27L63.1082 79.6101L63.0991 79.6207L63.8597 80.27ZM63.8947 89.055L63.1432 89.7149L63.1523 89.725L63.8947 89.055ZM68.9347 90.28L69.1442 91.2578L69.1568 91.2551L69.1693 91.2521L68.9347 90.28ZM70.3697 89.615L69.6626 88.9079L70.3697 89.615ZM71.4197 90.35L70.5988 90.9211L70.6131 90.9416L70.6284 90.9614L71.4197 90.35ZM72.5047 92.415L71.5694 92.7689L71.5727 92.7774L72.5047 92.415ZM70.8947 96.545L71.2526 97.4787L70.8947 96.545ZM58.3297 94.095L57.5915 94.7696L58.3297 94.095ZM58.3997 75.58L57.659 74.9081L57.6552 74.9123L58.3997 75.58ZM66.0647 73.185C67.6743 73.185 69.0422 73.4167 70.188 73.8542L70.9014 71.9858C69.4805 71.4433 67.8617 71.185 66.0647 71.185L66.0647 73.185ZM70.2084 73.8617C71.4282 74.2974 71.5047 74.7062 71.5047 74.845L73.5047 74.845C73.5047 73.3505 72.2745 72.4759 70.881 71.9783L70.2084 73.8617ZM71.5047 74.845C71.5047 75.4276 71.272 76.274 70.6722 77.4292L72.4472 78.3508C73.1074 77.0794 73.5047 75.8958 73.5047 74.845L71.5047 74.845ZM70.6688 77.4358C70.3803 78.0016 70.1429 78.3665 69.9625 78.5755C69.8734 78.6788 69.8228 78.715 69.8146 78.7202C69.8086 78.7241 69.8826 78.675 70.0197 78.675L70.0197 80.675C70.6918 80.675 71.182 80.2238 71.4768 79.882C71.8098 79.496 72.1324 78.9684 72.4506 78.3442L70.6688 77.4358ZM70.0197 78.675C70.1265 78.675 70.1948 78.7011 70.2118 78.7082C70.2294 78.7155 70.2198 78.714 70.1809 78.6863L69.0185 80.3137C69.2423 80.4736 69.5919 80.675 70.0197 80.675L70.0197 78.675ZM70.3068 78.7929C70.0892 78.5753 69.8112 78.4446 69.6036 78.3615C69.3708 78.2684 69.0957 78.1857 68.7922 78.1099L68.3072 80.0501C68.5637 80.1143 68.7436 80.1716 68.8608 80.2185C68.9187 80.2416 68.9488 80.2573 68.9592 80.2632C68.9731 80.2712 68.9408 80.2553 68.8926 80.2071L70.3068 78.7929ZM68.8409 78.1233C68.2455 77.9421 67.6765 77.835 67.1497 77.835L67.1497 79.835C67.4162 79.835 67.7805 79.8912 68.2585 80.0367L68.8409 78.1233ZM67.1497 77.835C65.5291 77.835 64.1513 78.4223 63.1082 79.6102L64.6111 80.9298C65.2481 80.2043 66.0636 79.835 67.1497 79.835L67.1497 77.835ZM63.0991 79.6207C62.0605 80.8374 61.6347 82.5886 61.6347 84.68L63.6347 84.68C63.6347 82.8047 64.0255 81.6159 64.6203 80.9193L63.0991 79.6207ZM61.6347 84.68C61.6347 86.7571 62.076 88.4993 63.1432 89.7148L64.6461 88.3952C64.0334 87.6974 63.6347 86.5229 63.6347 84.68L61.6347 84.68ZM63.1523 89.725C64.2083 90.8951 65.5645 91.49 67.1497 91.49L67.1497 89.49C66.1215 89.49 65.3078 89.1283 64.6371 88.385L63.1523 89.725ZM67.1497 91.49C67.7714 91.49 68.438 91.4091 69.1442 91.2578L68.7252 89.3022C68.1247 89.4309 67.6013 89.49 67.1497 89.49L67.1497 91.49ZM69.1693 91.2521C69.9068 91.0741 70.6015 90.7974 71.0768 90.3221L69.6626 88.9079C69.5778 88.9926 69.3159 89.1593 68.7 89.3079L69.1693 91.2521ZM71.0768 90.3221C70.9263 90.4726 70.7708 90.5192 70.7172 90.5326C70.6576 90.5476 70.628 90.545 70.6497 90.545L70.6497 88.545C70.5314 88.545 70.3851 88.5541 70.2322 88.5924C70.0852 88.6291 69.8598 88.7107 69.6626 88.9079L71.0768 90.3221ZM70.6497 90.545C70.5094 90.545 70.4017 90.512 70.339 90.4872C70.2755 90.462 70.2339 90.4355 70.2163 90.4236C70.1842 90.4019 70.1858 90.397 70.2245 90.4375C70.3 90.5163 70.4231 90.6685 70.5988 90.9211L72.2406 89.7789C72.043 89.4948 71.8511 89.2445 71.6698 89.055C71.5803 88.9614 71.4681 88.8558 71.3369 88.767C71.2264 88.6923 70.9815 88.545 70.6497 88.545L70.6497 90.545ZM70.6284 90.9614C70.945 91.3712 71.2642 91.9624 71.5694 92.7689L73.44 92.0611C73.0918 91.141 72.6877 90.3555 72.211 89.7386L70.6284 90.9614ZM71.5727 92.7774C71.8883 93.5891 71.9947 94.1002 71.9947 94.375L73.9947 94.375C73.9947 93.7164 73.7744 92.9209 73.4367 92.0526L71.5727 92.7774ZM71.9947 94.375C71.9947 94.635 71.8311 95.1151 70.5368 95.6113L71.2526 97.4787C72.7583 96.9016 73.9947 95.935 73.9947 94.375L71.9947 94.375ZM70.5368 95.6113C69.2777 96.0939 67.7479 96.35 65.9247 96.35L65.9247 98.35C67.9281 98.35 69.7117 98.0694 71.2526 97.4787L70.5368 95.6113ZM65.9247 96.35C63.1104 96.35 60.8517 95.3722 59.0678 93.4204L57.5915 94.7696C59.7743 97.1578 62.579 98.35 65.9247 98.35L65.9247 96.35ZM59.0678 93.4204C57.3035 91.49 56.3547 88.7053 56.3547 84.925L54.3547 84.925C54.3547 89.0313 55.3892 92.36 57.5915 94.7696L59.0678 93.4204ZM56.3547 84.925C56.3547 81.1279 57.3237 78.2774 59.1441 76.2477L57.6552 74.9123C55.4157 77.4093 54.3547 80.7888 54.3547 84.925L56.3547 84.925ZM59.1403 76.2519C61.0041 74.1976 63.29 73.185 66.0647 73.185L66.0647 71.185C62.726 71.185 59.902 72.4358 57.6591 74.9081L59.1403 76.2519ZM77.0038 94.935L76.26 95.6034L76.2653 95.6093L77.0038 94.935ZM77.0038 81.565L76.2653 80.8907L76.26 80.8966L77.0038 81.565ZM88.7988 81.565L88.055 82.2334L88.7988 81.565ZM88.7988 94.935L88.055 94.2666L88.7988 94.935ZM77.7477 94.2666C76.5123 92.8918 75.8338 90.9294 75.8338 88.25L73.8338 88.25C73.8338 91.264 74.6021 93.7582 76.26 95.6034L77.7477 94.2666ZM75.8338 88.25C75.8338 85.5706 76.5123 83.6082 77.7477 82.2334L76.26 80.8966C74.6021 82.7418 73.8338 85.236 73.8338 88.25L75.8338 88.25ZM77.7423 82.2393C78.9964 80.8657 80.6847 80.15 82.9188 80.15L82.9188 78.15C80.2063 78.15 77.9512 79.0443 76.2653 80.8907L77.7423 82.2393ZM82.9188 80.15C85.1532 80.15 86.826 80.8656 88.055 82.2334L89.5427 80.8966C87.8783 79.0444 85.6312 78.15 82.9188 78.15L82.9188 80.15ZM88.055 82.2334C89.2904 83.6082 89.9688 85.5706 89.9688 88.25L91.9688 88.25C91.9688 85.236 91.2006 82.7418 89.5427 80.8966L88.055 82.2334ZM89.9688 88.25C89.9688 90.9294 89.2904 92.8918 88.055 94.2666L89.5427 95.6034C91.2006 93.7582 91.9688 91.264 91.9688 88.25L89.9688 88.25ZM88.055 94.2666C86.826 95.6344 85.1532 96.35 82.9188 96.35L82.9188 98.35C85.6312 98.35 87.8783 97.4556 89.5427 95.6034L88.055 94.2666ZM82.9188 96.35C80.6847 96.35 78.9964 95.6343 77.7423 94.2607L76.2653 95.6093C77.9512 97.4557 80.2063 98.35 82.9188 98.35L82.9188 96.35ZM82.9188 83.995C81.9335 83.995 81.1114 84.4311 80.5946 85.2801C80.1268 86.0486 79.9588 87.0728 79.9588 88.215L81.9588 88.215C81.9588 87.2106 82.1175 86.6247 82.303 86.3199C82.4396 86.0956 82.5975 85.995 82.9188 85.995L82.9188 83.995ZM79.9588 88.215C79.9588 89.3572 80.1268 90.3814 80.5946 91.1499C81.1114 91.9989 81.9335 92.435 82.9188 92.435L82.9188 90.435C82.5975 90.435 82.4396 90.3344 82.303 90.1101C82.1175 89.8053 81.9588 89.2194 81.9588 88.215L79.9588 88.215ZM82.9188 92.435C83.9076 92.435 84.7388 92.0061 85.2651 91.1567C85.7424 90.3863 85.9138 89.3592 85.9138 88.215L83.9138 88.215C83.9138 89.2175 83.7527 89.8004 83.565 90.1033C83.4263 90.3272 83.26 90.435 82.9188 90.435L82.9188 92.435ZM85.9138 88.215C85.9138 87.0708 85.7424 86.0437 85.2651 85.2733C84.7388 84.4239 83.9076 83.995 82.9188 83.995L82.9188 85.995C83.26 85.995 83.4263 86.1028 83.565 86.3267C83.7527 86.6296 83.9138 87.2125 83.9138 88.215L85.9138 88.215ZM97.9232 97.21L97.9012 98.2098L97.9122 98.21L97.9232 98.21L97.9232 97.21ZM94.7382 85.31L95.7382 85.31L95.7382 84.31L94.7382 84.31L94.7382 85.31ZM92.8832 84.645L91.9712 85.0554L91.9839 85.0835L91.9982 85.1107L92.8832 84.645ZM97.4332 80.13L96.7508 80.8611L96.7575 80.8672L96.7642 80.8733L97.4332 80.13ZM98.4832 82.3L97.4832 82.3L99.3732 82.7559L98.4832 82.3ZM100.443 80.025L101.009 80.8497L101.014 80.8464L100.443 80.025ZM105.448 80.2L106.384 79.8489L106.381 79.8387L106.377 79.8286L105.448 80.2ZM105.203 82.965L104.233 82.7225L104.23 82.7339L104.228 82.7455L105.203 82.965ZM103.453 85.38L103.006 86.2744L103.039 86.2908L103.072 86.3047L103.453 85.38ZM100.108 96.965C100.108 96.3861 100.568 96.1509 100.584 96.142C100.669 96.0964 100.722 96.0892 100.684 96.0978C100.627 96.1111 100.488 96.1322 100.235 96.1517C99.744 96.1895 98.9791 96.21 97.9232 96.21L97.9232 98.21C98.9906 98.21 99.8181 98.1897 100.389 98.1458C100.666 98.1244 100.926 98.0946 101.134 98.0466C101.229 98.0246 101.382 97.9841 101.532 97.9029C101.615 97.8583 102.108 97.5847 102.108 96.965L100.108 96.965ZM97.9451 96.2102C96.8884 96.187 96.1189 96.1525 95.622 96.1088C95.367 96.0864 95.2198 96.0645 95.1519 96.0496C95.1093 96.0402 95.1502 96.0447 95.2232 96.08C95.2581 96.0969 95.3579 96.1477 95.4616 96.2525C95.5723 96.3644 95.7382 96.5943 95.7382 96.93L93.7382 96.93C93.7382 97.2832 93.9124 97.5303 94.0396 97.6589C94.1599 97.7805 94.2846 97.8477 94.3526 97.8806C94.492 97.948 94.6324 97.9831 94.7226 98.0029C94.92 98.0463 95.171 98.0769 95.4468 98.1012C96.0116 98.1508 96.8346 98.1863 97.9012 98.2098L97.9451 96.2102ZM95.7382 96.93L95.7382 85.31L93.7382 85.31L93.7382 96.93L95.7382 96.93ZM94.7382 84.31L93.7932 84.31L93.7932 86.31L94.7382 86.31L94.7382 84.31ZM93.7932 84.31C93.8004 84.31 93.8169 84.3113 93.8376 84.3181C93.8582 84.3249 93.8714 84.3332 93.8757 84.3364C93.881 84.3403 93.8364 84.309 93.7681 84.1793L91.9982 85.1107C92.3362 85.7528 92.9218 86.31 93.7932 86.31L93.7932 84.31ZM93.7951 84.2346C93.6586 83.9314 93.5682 83.5086 93.5682 82.93L91.5682 82.93C91.5682 83.7047 91.6877 84.4252 91.9712 85.0554L93.7951 84.2346ZM93.5682 82.93C93.5682 81.7361 93.7509 81.0058 93.9885 80.6048C94.1774 80.2859 94.4062 80.15 94.8082 80.15L94.8082 78.15C93.7168 78.15 92.8256 78.6441 92.2679 79.5852C91.7588 80.4442 91.5682 81.6039 91.5682 82.93L93.5682 82.93ZM94.8082 80.15C95.6315 80.15 96.2546 80.3979 96.7508 80.8611L98.1155 79.3989C97.2117 78.5554 96.0848 78.15 94.8082 78.15L94.8082 80.15ZM96.7642 80.8733C97.2891 81.3457 97.4832 81.8114 97.4832 82.3L99.4832 82.3C99.4832 81.1553 98.9773 80.1743 98.1021 79.3867L96.7642 80.8733ZM99.3732 82.7559C99.794 81.9343 100.341 81.3078 101.009 80.8497L99.8776 79.2003C98.9123 79.8622 98.1523 80.7524 97.5931 81.8441L99.3732 82.7559ZM101.014 80.8464C101.718 80.3574 102.374 80.15 102.998 80.15L102.998 78.15C101.896 78.15 100.849 78.526 99.8728 79.2036L101.014 80.8464ZM102.998 80.15C104.29 80.15 104.489 80.4939 104.52 80.5714L106.377 79.8286C105.848 78.5061 104.413 78.15 102.998 78.15L102.998 80.15ZM104.512 80.5511C104.511 80.5479 104.523 80.5824 104.535 80.674C104.546 80.7622 104.553 80.8824 104.553 81.04L106.553 81.04C106.553 80.6326 106.519 80.207 106.384 79.8489L104.512 80.5511ZM104.553 81.04C104.553 81.2492 104.47 81.7763 104.233 82.7225L106.173 83.2075C106.403 82.287 106.553 81.5308 106.553 81.04L104.553 81.04ZM104.228 82.7455C104.022 83.6587 103.825 84.2196 103.664 84.5094L105.412 85.4806C105.718 84.9304 105.964 84.138 106.179 83.1845L104.228 82.7455ZM103.664 84.5094C103.551 84.7128 103.473 84.8421 103.426 84.9128C103.4 84.952 103.401 84.9465 103.423 84.9213C103.433 84.9105 103.473 84.8654 103.54 84.8152C103.575 84.7892 103.635 84.7479 103.718 84.7106C103.798 84.6744 103.937 84.625 104.118 84.625L104.118 86.625C104.461 86.625 104.689 86.4535 104.74 86.4152C104.825 86.3518 104.885 86.287 104.918 86.25C104.987 86.1722 105.046 86.088 105.09 86.0222C105.183 85.8829 105.292 85.6972 105.412 85.4806L103.664 84.5094ZM104.118 84.625C104.182 84.625 104.231 84.6315 104.255 84.635C104.281 84.6389 104.302 84.6432 104.313 84.6457C104.334 84.6505 104.345 84.6542 104.342 84.653C104.334 84.6509 104.31 84.643 104.263 84.6254C104.169 84.5911 104.028 84.5354 103.834 84.4553L103.072 86.3047C103.275 86.388 103.443 86.4548 103.571 86.5021C103.634 86.5253 103.699 86.5481 103.759 86.5664C103.767 86.5688 103.933 86.625 104.118 86.625L104.118 84.625ZM103.9 84.4856C103.438 84.2542 102.944 84.1 102.438 84.1L102.438 86.1C102.539 86.1 102.722 86.1325 103.006 86.2744L103.9 84.4856ZM102.438 84.1C101.681 84.1 101.016 84.4269 100.596 85.0899C100.225 85.6758 100.108 86.4267 100.108 87.2L102.108 87.2C102.108 86.5733 102.213 86.2742 102.285 86.1601C102.3 86.1365 102.311 86.1254 102.315 86.1213C102.319 86.1175 102.321 86.1167 102.322 86.1162C102.323 86.1156 102.33 86.112 102.346 86.1083C102.364 86.1045 102.393 86.1 102.438 86.1L102.438 84.1ZM100.108 87.2L100.108 96.965L102.108 96.965L102.108 87.2L100.108 87.2ZM111.8 97.21L111.778 98.2098L111.789 98.21L111.8 98.21L111.8 97.21ZM108.615 85.31L109.615 85.31L109.615 84.31L108.615 84.31L108.615 85.31ZM106.76 84.645L105.848 85.0554L105.861 85.0835L105.875 85.1107L106.76 84.645ZM111.31 80.13L110.628 80.8611L110.634 80.8672L110.641 80.8733L111.31 80.13ZM112.36 82.3L111.36 82.3L113.25 82.7559L112.36 82.3ZM114.32 80.025L114.886 80.8497L114.891 80.8464L114.32 80.025ZM119.325 80.2L120.261 79.8489L120.258 79.8387L120.254 79.8286L119.325 80.2ZM119.08 82.965L118.11 82.7225L118.107 82.7339L118.105 82.7455L119.08 82.965ZM117.33 85.38L116.883 86.2744L116.916 86.2908L116.949 86.3047L117.33 85.38ZM113.985 96.965C113.985 96.3861 114.445 96.1509 114.461 96.142C114.546 96.0964 114.599 96.0892 114.561 96.0978C114.504 96.1111 114.365 96.1322 114.112 96.1517C113.621 96.1895 112.856 96.21 111.8 96.21L111.8 98.21C112.868 98.21 113.695 98.1897 114.266 98.1458C114.543 98.1244 114.803 98.0946 115.011 98.0466C115.106 98.0246 115.259 97.9841 115.409 97.9029C115.492 97.8583 115.985 97.5847 115.985 96.965L113.985 96.965ZM111.822 96.2102C110.765 96.187 109.996 96.1525 109.499 96.1088C109.244 96.0864 109.097 96.0645 109.029 96.0496C108.986 96.0402 109.027 96.0447 109.1 96.08C109.135 96.0969 109.235 96.1477 109.339 96.2525C109.449 96.3644 109.615 96.5943 109.615 96.93L107.615 96.93C107.615 97.2832 107.789 97.5303 107.917 97.6589C108.037 97.7805 108.162 97.8477 108.23 97.8806C108.369 97.948 108.509 97.9831 108.6 98.0029C108.797 98.0463 109.048 98.0769 109.324 98.1012C109.889 98.1508 110.712 98.1863 111.778 98.2098L111.822 96.2102ZM109.615 96.93L109.615 85.31L107.615 85.31L107.615 96.93L109.615 96.93ZM108.615 84.31L107.67 84.31L107.67 86.31L108.615 86.31L108.615 84.31ZM107.67 84.31C107.677 84.31 107.694 84.3113 107.715 84.3181C107.735 84.3249 107.748 84.3332 107.753 84.3364C107.758 84.3403 107.713 84.309 107.645 84.1793L105.875 85.1107C106.213 85.7528 106.799 86.31 107.67 86.31L107.67 84.31ZM107.672 84.2346C107.536 83.9314 107.445 83.5086 107.445 82.93L105.445 82.93C105.445 83.7047 105.565 84.4252 105.848 85.0554L107.672 84.2346ZM107.445 82.93C107.445 81.7361 107.628 81.0058 107.865 80.6048C108.054 80.2859 108.283 80.15 108.685 80.15L108.685 78.15C107.594 78.15 106.703 78.6441 106.145 79.5852C105.636 80.4442 105.445 81.6039 105.445 82.93L107.445 82.93ZM108.685 80.15C109.508 80.15 110.132 80.3979 110.628 80.8611L111.992 79.3989C111.089 78.5554 109.962 78.15 108.685 78.15L108.685 80.15ZM110.641 80.8733C111.166 81.3457 111.36 81.8114 111.36 82.3L113.36 82.3C113.36 81.1553 112.854 80.1743 111.979 79.3867L110.641 80.8733ZM113.25 82.7559C113.671 81.9343 114.218 81.3078 114.886 80.8497L113.755 79.2003C112.789 79.8622 112.029 80.7524 111.47 81.8441L113.25 82.7559ZM114.891 80.8464C115.595 80.3574 116.251 80.15 116.875 80.15L116.875 78.15C115.772 78.15 114.726 78.526 113.75 79.2036L114.891 80.8464ZM116.875 80.15C118.167 80.15 118.366 80.4939 118.397 80.5714L120.254 79.8286C119.725 78.5061 118.29 78.15 116.875 78.15L116.875 80.15ZM118.389 80.5511C118.388 80.5479 118.4 80.5824 118.412 80.674C118.423 80.7622 118.43 80.8824 118.43 81.04L120.43 81.04C120.43 80.6326 120.396 80.207 120.261 79.8489L118.389 80.5511ZM118.43 81.04C118.43 81.2492 118.347 81.7763 118.11 82.7225L120.05 83.2075C120.28 82.287 120.43 81.5308 120.43 81.04L118.43 81.04ZM118.105 82.7455C117.899 83.6587 117.702 84.2196 117.541 84.5094L119.289 85.4806C119.595 84.9304 119.841 84.138 120.056 83.1845L118.105 82.7455ZM117.541 84.5094C117.428 84.7128 117.35 84.8421 117.303 84.9128C117.277 84.952 117.278 84.9465 117.3 84.9213C117.31 84.9105 117.35 84.8654 117.417 84.8152C117.452 84.7892 117.512 84.7479 117.595 84.7106C117.675 84.6744 117.814 84.625 117.995 84.625L117.995 86.625C118.338 86.625 118.566 86.4535 118.617 86.4152C118.701 86.3518 118.762 86.287 118.795 86.25C118.864 86.1722 118.923 86.088 118.967 86.0222C119.06 85.8829 119.169 85.6972 119.289 85.4806L117.541 84.5094ZM117.995 84.625C118.059 84.625 118.108 84.6315 118.132 84.635C118.158 84.6389 118.179 84.6432 118.19 84.6457C118.211 84.6505 118.222 84.6542 118.218 84.653C118.211 84.6509 118.187 84.643 118.14 84.6254C118.046 84.5911 117.905 84.5354 117.711 84.4553L116.949 86.3047C117.152 86.388 117.32 86.4548 117.448 86.5021C117.511 86.5253 117.576 86.5481 117.636 86.5664C117.644 86.5688 117.81 86.625 117.995 86.625L117.995 84.625ZM117.777 84.4856C117.315 84.2542 116.821 84.1 116.315 84.1L116.315 86.1C116.416 86.1 116.599 86.1325 116.883 86.2744L117.777 84.4856ZM116.315 84.1C115.558 84.1 114.893 84.4269 114.473 85.0899C114.102 85.6758 113.985 86.4267 113.985 87.2L115.985 87.2C115.985 86.5733 116.09 86.2742 116.162 86.1601C116.177 86.1365 116.188 86.1254 116.192 86.1213C116.196 86.1175 116.198 86.1167 116.199 86.1162C116.2 86.1156 116.207 86.112 116.223 86.1083C116.241 86.1045 116.27 86.1 116.315 86.1L116.315 84.1ZM113.985 87.2L113.985 96.965L115.985 96.965L115.985 87.2L113.985 87.2ZM134.427 96.055L133.999 95.1513L133.959 95.1703L133.921 95.1927L134.427 96.055ZM122.912 95.005L122.205 95.7121L122.21 95.7173L122.912 95.005ZM122.807 81.705L122.065 81.0343L122.06 81.04L122.807 81.705ZM134.007 80.935L133.32 81.662L133.327 81.6683L134.007 80.935ZM127.007 90.945L127.007 89.945L126.007 89.945L126.007 90.945L127.007 90.945ZM127.567 92.415L126.967 93.215L126.995 93.2358L127.024 93.2546L127.567 92.415ZM133.937 91.68L134.39 92.5716L134.532 92.4996L134.644 92.3871L133.937 91.68ZM134.252 92.17L133.37 92.6406L133.374 92.649L133.379 92.6574L134.252 92.17ZM127.462 84.89L128.108 85.6534L128.113 85.6493L127.462 84.89ZM127.007 87.13L126.007 87.13L126.007 88.13L127.007 88.13L127.007 87.13ZM133.921 95.1927C132.649 95.9394 130.95 96.35 128.757 96.35L128.757 98.35C131.184 98.35 133.265 97.8973 134.933 96.9173L133.921 95.1927ZM128.757 96.35C126.699 96.35 125.006 95.6642 123.614 94.2927L122.21 95.7173C123.992 97.4725 126.195 98.35 128.757 98.35L128.757 96.35ZM123.619 94.2979C122.262 92.9412 121.532 91.0382 121.532 88.46L119.532 88.46C119.532 91.4351 120.388 93.8955 122.205 95.7121L123.619 94.2979ZM121.532 88.46C121.532 85.8469 122.235 83.8509 123.554 82.37L122.06 81.04C120.345 82.9658 119.532 85.4731 119.532 88.46L121.532 88.46ZM123.549 82.3756C124.896 80.8858 126.561 80.15 128.617 80.15L128.617 78.15C126.006 78.15 123.798 79.1175 122.065 81.0344L123.549 82.3756ZM128.617 80.15C130.785 80.15 132.303 80.7008 133.32 81.662L134.694 80.208C133.191 78.7892 131.115 78.15 128.617 78.15L128.617 80.15ZM133.327 81.6683C134.413 82.6749 134.932 83.8585 134.932 85.275L136.932 85.275C136.932 83.2848 136.168 81.5751 134.687 80.2017L133.327 81.6683ZM134.932 85.275C134.932 86.9721 134.451 88.0736 133.648 88.7734C132.818 89.4963 131.469 89.945 129.422 89.945L129.422 91.945C131.715 91.945 133.621 91.4487 134.961 90.2816C136.328 89.0914 136.932 87.3579 136.932 85.275L134.932 85.275ZM129.422 89.945L127.007 89.945L127.007 91.945L129.422 91.945L129.422 89.945ZM126.007 90.945C126.007 91.7966 126.235 92.666 126.967 93.215L128.167 91.615C128.152 91.604 128.007 91.4934 128.007 90.945L126.007 90.945ZM127.024 93.2546C127.651 93.6604 128.445 93.8 129.282 93.8L129.282 91.8C128.626 91.8 128.276 91.6829 128.11 91.5754L127.024 93.2546ZM129.282 93.8C131.074 93.8 132.781 93.3888 134.39 92.5716L133.484 90.7884C132.153 91.4645 130.756 91.8 129.282 91.8L129.282 93.8ZM134.644 92.3871C134.455 92.5766 134.201 92.6778 133.942 92.6778C133.721 92.6778 133.557 92.604 133.479 92.5624C133.331 92.4832 133.245 92.3861 133.233 92.3732C133.188 92.3248 133.172 92.2941 133.192 92.3258C133.222 92.3716 133.279 92.4703 133.37 92.6406L135.134 91.6994C135.039 91.5197 134.95 91.3617 134.874 91.2442C134.842 91.1942 134.784 91.1052 134.707 91.0218C134.679 90.9914 134.58 90.8826 134.42 90.7976C134.337 90.7531 134.168 90.6778 133.942 90.6778C133.68 90.6778 133.422 90.7805 133.23 90.9729L134.644 92.3871ZM133.379 92.6574C133.903 93.5968 134.092 94.2719 134.092 94.725L136.092 94.725C136.092 93.778 135.721 92.7499 135.125 91.6826L133.379 92.6574ZM134.092 94.725C134.092 94.9618 134.052 95.0762 134.031 95.1178C134.027 95.1276 134.023 95.1333 134.021 95.1362C134.019 95.139 134.017 95.1401 134.017 95.1404C134.017 95.1407 134.016 95.1415 134.014 95.1429C134.012 95.1443 134.007 95.1473 133.999 95.1513L134.855 96.9587C135.78 96.5209 136.092 95.6171 136.092 94.725L134.092 94.725ZM131.052 85.94C131.052 85.3018 130.896 84.6384 130.409 84.139C129.917 83.6351 129.256 83.47 128.617 83.47L128.617 85.47C128.774 85.47 128.87 85.4904 128.922 85.5082C128.947 85.5168 128.961 85.5245 128.968 85.5287C128.974 85.5326 128.977 85.5351 128.978 85.536C128.979 85.537 128.982 85.5406 128.987 85.5496C128.993 85.559 129.002 85.5767 129.011 85.6063C129.031 85.6675 129.052 85.7733 129.052 85.94L131.052 85.94ZM128.617 83.47C127.943 83.47 127.325 83.6903 126.811 84.1307L128.113 85.6493C128.252 85.5297 128.405 85.47 128.617 85.47L128.617 83.47ZM126.816 84.1266C126.226 84.6257 126.007 85.3297 126.007 86.045L128.007 86.045C128.007 85.7336 128.091 85.6676 128.108 85.6534L126.816 84.1266ZM126.007 86.045L126.007 87.13L128.007 87.13L128.007 86.045L126.007 86.045ZM127.007 88.13L128.897 88.13L128.897 86.13L127.007 86.13L127.007 88.13ZM128.897 88.13C129.444 88.13 130.036 87.9874 130.481 87.529C130.92 87.0761 131.052 86.4835 131.052 85.94L129.052 85.94C129.052 86.1899 128.991 86.1923 129.046 86.136C129.07 86.111 129.089 86.1059 129.078 86.1098C129.061 86.1156 129.007 86.13 128.897 86.13L128.897 88.13ZM149.349 91.085L149.349 90.085L149.074 90.085L148.838 90.2251L149.349 91.085ZM150.189 92.905L149.203 93.0755L149.205 93.0865L149.207 93.0974L150.189 92.905ZM150.364 96.195L150.892 97.0439L151.029 96.9588L151.132 96.8352L150.364 96.195ZM139.794 94.97L139.06 95.65L139.065 95.6556L139.071 95.661L139.794 94.97ZM139.759 81.705L139.007 81.0457L139.001 81.0516L139.759 81.705ZM150.819 80.935L150.039 81.5616L150.045 81.5682L150.819 80.935ZM150.854 83.91L151.816 84.1807L151.819 84.1703L151.822 84.1599L150.854 83.91ZM149.209 86.5L149.451 87.4701L149.493 87.4596L149.535 87.4454L149.209 86.5ZM148.159 86.115L148.896 85.4393L148.881 85.4233L148.866 85.4079L148.159 86.115ZM144.554 85.59L145.37 86.168V86.168L144.554 85.59ZM142.959 88.32C142.959 89.5606 143.188 90.6736 143.808 91.4951C144.468 92.3695 145.444 92.75 146.549 92.75L146.549 90.75C145.927 90.75 145.607 90.5588 145.404 90.2899C145.161 89.968 144.959 89.3661 144.959 88.32L142.959 88.32ZM146.549 92.75C147.797 92.75 148.919 92.5029 149.859 91.9449L148.838 90.2251C148.285 90.5538 147.54 90.75 146.549 90.75L146.549 92.75ZM149.349 92.085C149.117 92.085 148.963 91.9757 148.904 91.9191C148.859 91.8756 148.871 91.8669 148.913 91.9591C148.998 92.1428 149.103 92.4956 149.203 93.0755L151.174 92.7345C151.064 92.1011 150.924 91.5438 150.729 91.1209C150.576 90.7888 150.176 90.085 149.349 90.085L149.349 92.085ZM149.207 93.0974C149.442 94.297 149.539 95.0226 149.539 95.355L151.539 95.355C151.539 94.8007 151.401 93.893 151.17 92.7126L149.207 93.0974ZM149.539 95.355C149.539 95.5252 149.526 95.6264 149.516 95.676C149.511 95.6992 149.509 95.6976 149.517 95.6791C149.525 95.6611 149.547 95.6131 149.595 95.5548L151.132 96.8352C151.338 96.5874 151.428 96.3019 151.474 96.084C151.522 95.8536 151.539 95.6048 151.539 95.355L149.539 95.355ZM149.835 95.3461C148.815 95.9811 147.331 96.35 145.289 96.35L145.289 98.35C147.539 98.35 149.439 97.9489 150.892 97.0439L149.835 95.3461ZM145.289 96.35C143.422 96.35 141.849 95.6733 140.516 94.279L139.071 95.661C140.771 97.44 142.862 98.35 145.289 98.35L145.289 96.35ZM140.527 94.29C139.245 92.9086 138.554 90.9929 138.554 88.425L136.554 88.425C136.554 91.3638 137.355 93.8114 139.06 95.65L140.527 94.29ZM138.554 88.425C138.554 85.8299 139.237 83.8404 140.516 82.3583L139.001 81.0516C137.34 82.9763 136.554 85.4667 136.554 88.425L138.554 88.425ZM140.51 82.3642C141.797 80.8966 143.485 80.15 145.674 80.15L145.674 78.15C142.962 78.15 140.707 79.1067 139.007 81.0458L140.51 82.3642ZM145.674 80.15C148.03 80.15 149.364 80.7222 150.039 81.5616L151.598 80.3084C150.359 78.7678 148.264 78.15 145.674 78.15L145.674 80.15ZM150.045 81.5682C150.047 81.5714 150.134 81.6875 150.134 82.09L152.134 82.09C152.134 81.4658 152.01 80.812 151.593 80.3018L150.045 81.5682ZM150.134 82.09C150.134 82.4639 150.061 82.9805 149.885 83.6601L151.822 84.1599C152.02 83.3928 152.134 82.6961 152.134 82.09L150.134 82.09ZM149.891 83.6393C149.695 84.3353 149.486 84.8227 149.283 85.1414C149.08 85.4619 148.932 85.5377 148.883 85.5546L149.535 87.4454C150.162 87.229 150.627 86.7565 150.971 86.2136C151.317 85.669 151.592 84.9781 151.816 84.1807L149.891 83.6393ZM148.966 85.5299C148.99 85.524 148.989 85.5265 148.951 85.5297C148.915 85.5326 148.863 85.535 148.789 85.535L148.789 87.535C148.996 87.535 149.235 87.5241 149.451 87.4701L148.966 85.5299ZM148.789 85.535C148.891 85.535 148.967 85.5568 149.008 85.5724C149.049 85.5878 149.068 85.6012 149.063 85.598C149.059 85.5953 149.042 85.5831 149.011 85.5555C148.981 85.5283 148.943 85.4904 148.896 85.4393L147.421 86.7907C147.58 86.9634 147.757 87.1311 147.954 87.262C148.14 87.3862 148.429 87.535 148.789 87.535L148.789 85.535ZM148.866 85.4079C148.38 84.9221 147.908 84.5236 147.451 84.241C147.005 83.9646 146.495 83.75 145.954 83.75L145.954 85.75C145.972 85.75 146.11 85.7629 146.398 85.9415C146.677 86.1139 147.027 86.3979 147.451 86.8221L148.866 85.4079ZM145.954 83.75C145.004 83.75 144.264 84.2694 143.738 85.012L145.37 86.168C145.637 85.7906 145.83 85.75 145.954 85.75L145.954 83.75ZM143.738 85.012C143.157 85.8319 142.959 87.0029 142.959 88.32L144.959 88.32C144.959 87.1171 145.157 86.4681 145.37 86.168L143.738 85.012ZM158.163 97.21L158.123 98.2092L158.143 98.21L158.163 98.21L158.163 97.21ZM154.663 84.365L155.663 84.365L155.663 83.365L154.663 83.365L154.663 84.365ZM152.283 80.41L151.294 80.2579L151.291 80.2766L151.289 80.2954L152.283 80.41ZM154.663 79.5L154.663 80.5L155.663 80.5L155.663 79.5L154.663 79.5ZM160.578 78.52L159.578 78.52L159.578 78.5379L159.578 78.5557L160.578 78.52ZM160.613 79.5L159.613 79.5357L159.648 80.5L160.613 80.5L160.613 79.5ZM161.103 84.4L161.103 83.4L160.103 83.4L160.103 84.4L161.103 84.4ZM160.103 96.79C160.103 96.4998 160.24 96.2911 160.349 96.1813C160.4 96.1307 160.446 96.0993 160.473 96.0825C160.501 96.0652 160.52 96.0568 160.525 96.0546C160.533 96.0512 160.515 96.0595 160.457 96.0731C160.403 96.0861 160.327 96.1006 160.226 96.1151C159.809 96.1747 159.132 96.21 158.163 96.21L158.163 98.21C159.153 98.21 159.946 98.1753 160.509 98.0949C160.78 98.0562 161.068 97.9978 161.313 97.8929C161.462 97.8288 162.103 97.5317 162.103 96.79L160.103 96.79ZM158.203 96.2108C157.043 96.1644 156.204 96.1045 155.666 96.0346C155.39 95.9986 155.239 95.9656 155.177 95.9464C155.139 95.9346 155.192 95.9453 155.274 96.0002C155.327 96.0356 155.663 96.2719 155.663 96.755L153.663 96.755C153.663 97.2906 154.035 97.5776 154.161 97.6618C154.316 97.7656 154.477 97.8233 154.585 97.8567C154.815 97.9279 155.102 97.9781 155.409 98.0179C156.038 98.0997 156.949 98.1623 158.123 98.2092L158.203 96.2108ZM155.663 96.755L155.663 84.365L153.663 84.365L153.663 96.755L155.663 96.755ZM154.663 83.365L152.878 83.365L152.878 85.365L154.663 85.365L154.663 83.365ZM152.878 83.365C153.093 83.365 153.254 83.4748 153.326 83.5579C153.373 83.6115 153.352 83.616 153.313 83.4829C153.237 83.2196 153.178 82.7305 153.178 81.95L151.178 81.95C151.178 82.7795 151.235 83.4979 151.392 84.0396C151.47 84.309 151.595 84.6153 151.817 84.8702C152.064 85.1546 152.428 85.365 152.878 85.365L152.878 83.365ZM153.178 81.95C153.178 81.5812 153.209 81.1087 153.276 80.5246L151.289 80.2954C151.217 80.9247 151.178 81.4788 151.178 81.95L153.178 81.95ZM153.271 80.5621C153.289 80.4425 153.309 80.3552 153.327 80.2947C153.346 80.2319 153.357 80.2154 153.35 80.2272C153.344 80.2381 153.303 80.3066 153.205 80.3751C153.096 80.452 152.955 80.5 152.808 80.5L152.808 78.5C152.196 78.5 151.81 78.8939 151.618 79.2278C151.438 79.5387 151.348 79.9102 151.294 80.2579L153.271 80.5621ZM152.808 80.5L154.663 80.5L154.663 78.5L152.808 78.5L152.808 80.5ZM155.663 79.5L155.663 76.42L153.663 76.42L153.663 79.5L155.663 79.5ZM155.663 76.42C155.663 76.7177 155.483 76.8876 155.428 76.9275C155.397 76.9491 155.437 76.9136 155.629 76.8678C156.002 76.779 156.642 76.72 157.603 76.72L157.603 74.72C156.603 74.72 155.773 74.7776 155.166 74.9222C154.868 74.993 154.54 75.1034 154.265 75.3C153.964 75.5149 153.663 75.8889 153.663 76.42L155.663 76.42ZM157.603 76.72C158.579 76.72 159.247 76.7672 159.649 76.8427C159.859 76.8822 159.918 76.916 159.9 76.9058C159.889 76.8994 159.578 76.7141 159.578 76.28L161.578 76.28C161.578 75.6592 161.143 75.3106 160.883 75.1642C160.617 75.014 160.305 74.9311 160.019 74.8773C159.428 74.7661 158.609 74.72 157.603 74.72L157.603 76.72ZM159.578 76.28L159.578 78.52L161.578 78.52L161.578 76.28L159.578 76.28ZM159.578 78.5557L159.613 79.5357L161.612 79.4643L161.577 78.4843L159.578 78.5557ZM160.613 80.5L163.588 80.5L163.588 78.5L160.613 78.5L160.613 80.5ZM163.588 80.5C163.281 80.5 163.096 80.3199 163.04 80.242C163.002 80.1908 163.026 80.1983 163.062 80.3485C163.132 80.6376 163.183 81.1531 163.183 81.95L165.183 81.95C165.183 81.1136 165.134 80.4041 165.006 79.8765C164.943 79.6184 164.842 79.3196 164.656 79.0643C164.451 78.7822 164.092 78.5 163.588 78.5L163.588 80.5ZM163.183 81.95C163.183 82.7469 163.132 83.2624 163.062 83.5515C163.026 83.7017 163.002 83.7092 163.04 83.658C163.096 83.5801 163.281 83.4 163.588 83.4L163.588 85.4C164.092 85.4 164.451 85.1178 164.656 84.8357C164.842 84.5804 164.943 84.2816 165.006 84.0235C165.134 83.4959 165.183 82.7864 165.183 81.95L163.183 81.95ZM163.588 83.4L161.103 83.4L161.103 85.4L163.588 85.4L163.588 83.4ZM160.103 84.4L160.103 96.79L162.103 96.79L162.103 84.4L160.103 84.4ZM174.74 84.295L173.867 84.7836L174.233 85.4366L174.963 85.2699L174.74 84.295ZM174.355 80.025L173.953 79.1092L173.92 79.124L173.887 79.1412L174.355 80.025ZM184.75 80.795L183.996 81.4524L184.003 81.4604L184.75 80.795ZM186.185 91.12L185.185 91.12L185.185 92.12L186.185 92.12L186.185 91.12ZM188.285 91.82L187.373 92.2304L187.381 92.249L187.391 92.2672L188.285 91.82ZM188.005 96.16L187.121 95.6921L187.116 95.7024L187.111 95.7128L188.005 96.16ZM183.315 96.335L183.975 95.5838L183.958 95.5686L183.94 95.5541L183.315 96.335ZM182.51 95.32L183.415 94.8942L182.728 93.4354L181.726 94.6986L182.51 95.32ZM173.2 95.53L173.921 94.8369L173.2 95.53ZM180.2 85.52L180.2 86.52L181.2 86.52L181.2 85.52L180.2 85.52ZM179.885 84.015L179.178 84.7221L179.222 84.7661L179.271 84.8044L179.885 84.015ZM177.96 91.925L177.253 92.6321L177.268 92.6475L177.284 92.6622L177.96 91.925ZM180.2 91.785L180.907 92.4921L181.2 92.1992L181.2 91.785L180.2 91.785ZM180.2 89.09L181.2 89.09L181.2 88.09L180.2 88.09L180.2 89.09ZM175.612 83.8064C174.983 82.682 174.76 81.9213 174.76 81.46L172.76 81.46C172.76 82.4453 173.19 83.5747 173.867 84.7836L175.612 83.8064ZM174.76 81.46C174.76 81.1647 174.801 81.0009 174.832 80.9243C174.857 80.8651 174.861 80.8885 174.823 80.9088L173.887 79.1412C172.984 79.6192 172.76 80.6024 172.76 81.46L174.76 81.46ZM174.757 80.9408C175.907 80.4361 177.571 80.15 179.815 80.15L179.815 78.15C177.439 78.15 175.463 78.4472 173.953 79.1092L174.757 80.9408ZM179.815 80.15C182.031 80.15 183.319 80.6757 183.996 81.4524L185.504 80.1376C184.268 78.721 182.266 78.15 179.815 78.15L179.815 80.15ZM184.003 81.4604C184.734 82.2801 185.185 83.5977 185.185 85.59L187.185 85.59C187.185 83.3357 186.679 81.4566 185.496 80.1296L184.003 81.4604ZM185.185 85.59L185.185 91.12L187.185 91.12L187.185 85.59L185.185 85.59ZM186.185 92.12L187.375 92.12L187.375 90.12L186.185 90.12L186.185 92.12ZM187.375 92.12C187.375 92.12 187.372 92.12 187.365 92.119C187.358 92.1179 187.349 92.1159 187.339 92.1124C187.316 92.105 187.3 92.0948 187.29 92.0876C187.275 92.0756 187.314 92.0987 187.373 92.2304L189.197 91.4096C189.046 91.0746 188.829 90.7478 188.51 90.5024C188.176 90.2461 187.785 90.12 187.375 90.12L187.375 92.12ZM187.391 92.2672C187.526 92.5384 187.635 93.0046 187.635 93.745L189.635 93.745C189.635 92.8521 189.51 92.035 189.179 91.3728L187.391 92.2672ZM187.635 93.745C187.635 94.3828 187.473 95.0283 187.121 95.6921L188.889 96.6279C189.377 95.705 189.635 94.7405 189.635 93.745L187.635 93.745ZM187.111 95.7128C186.829 96.2751 186.574 96.35 186.36 96.35L186.36 98.35C187.546 98.35 188.387 97.6315 188.899 96.6072L187.111 95.7128ZM186.36 96.35C185.285 96.35 184.523 96.0656 183.975 95.5838L182.655 97.0862C183.647 97.9578 184.915 98.35 186.36 98.35L186.36 96.35ZM183.94 95.5541C183.706 95.3673 183.535 95.1495 183.415 94.8942L181.605 95.7458C181.858 96.2838 182.224 96.7427 182.69 97.1159L183.94 95.5541ZM181.726 94.6986C180.898 95.7427 179.565 96.35 177.505 96.35L177.505 98.35C179.971 98.35 181.975 97.604 183.293 95.9414L181.726 94.6986ZM177.505 96.35C176.07 96.35 174.896 95.8515 173.921 94.8369L172.479 96.2231C173.837 97.6352 175.533 98.35 177.505 98.35L177.505 96.35ZM173.921 94.8369C172.93 93.8065 172.45 92.6187 172.45 91.225L170.45 91.225C170.45 93.1447 171.137 94.8268 172.479 96.2231L173.921 94.8369ZM172.45 91.225C172.45 89.5293 172.949 88.4232 173.798 87.7135C174.681 86.9751 176.115 86.52 178.275 86.52L178.275 84.52C175.885 84.52 173.907 85.0157 172.515 86.179C171.089 87.371 170.45 89.1174 170.45 91.225L172.45 91.225ZM178.275 86.52L180.2 86.52L180.2 84.52L178.275 84.52L178.275 86.52ZM181.2 85.52L181.2 85.17L179.2 85.17L179.2 85.52L181.2 85.52ZM181.2 85.17C181.2 84.8188 181.171 84.4735 181.086 84.1631C181.004 83.8611 180.841 83.4918 180.499 83.2256L179.271 84.8044C179.139 84.7015 179.134 84.6064 179.156 84.6894C179.177 84.764 179.2 84.9145 179.2 85.17L181.2 85.17ZM180.592 83.3079C180.29 83.0063 179.896 82.8852 179.605 82.8254C179.285 82.7599 178.916 82.735 178.52 82.735L178.52 84.735C178.847 84.735 179.067 84.7568 179.203 84.7846C179.269 84.7982 179.295 84.8093 179.295 84.809C179.293 84.8084 179.281 84.8029 179.261 84.7902C179.241 84.7775 179.211 84.7557 179.178 84.7221L180.592 83.3079ZM178.52 82.735C177.519 82.735 176.171 82.9421 174.517 83.3201L174.963 85.2699C176.575 84.9013 177.748 84.735 178.52 84.735L178.52 82.735ZM176.54 90.735C176.54 91.4315 176.734 92.1136 177.253 92.6321L178.667 91.2179C178.626 91.1764 178.54 91.0651 178.54 90.735L176.54 90.735ZM177.284 92.6622C177.769 93.1063 178.368 93.31 179.01 93.31L179.01 91.31C178.812 91.31 178.711 91.257 178.636 91.1878L177.284 92.6622ZM179.01 93.31C179.751 93.31 180.393 93.0057 180.907 92.4921L179.493 91.0779C179.306 91.2643 179.156 91.31 179.01 91.31L179.01 93.31ZM181.2 91.785L181.2 89.09L179.2 89.09L179.2 91.785L181.2 91.785ZM180.2 88.09L179.22 88.09L179.22 90.09L180.2 90.09L180.2 88.09ZM179.22 88.09C178.511 88.09 177.795 88.2635 177.26 88.7867C176.722 89.3138 176.54 90.0271 176.54 90.735L178.54 90.735C178.54 90.3462 178.638 90.2371 178.66 90.2158C178.685 90.1906 178.809 90.09 179.22 90.09L179.22 88.09ZM195.411 97.035L195.381 98.0345L195.396 98.035L195.411 98.035L195.411 97.035ZM191.911 85.31L192.911 85.31L192.911 84.31L191.911 84.31L191.911 85.31ZM189.811 83.77L188.823 83.9221L188.825 83.9355L188.827 83.9489L189.811 83.77ZM190.161 80.69L189.235 80.3114L189.232 80.3202L189.228 80.329L190.161 80.69ZM194.501 79.78L193.987 80.6375V80.6375L194.501 79.78ZM195.901 81.04L195.027 81.5256L195.622 82.5964L196.552 81.7993L195.901 81.04ZM205.561 80.795L204.791 81.4336L205.561 80.795ZM198.736 85.135L199.142 86.0488L199.163 86.0396L199.183 86.0294L198.736 85.135ZM197.931 85.555L197.306 84.7741L196.931 85.0744L196.931 85.555L197.931 85.555ZM196.931 96.79C196.931 96.3258 197.239 96.0816 197.329 96.0207C197.386 95.9821 197.432 95.961 197.454 95.9517C197.478 95.9417 197.493 95.9375 197.494 95.9372C197.494 95.9371 197.471 95.9433 197.417 95.9522C197.364 95.9607 197.294 95.9697 197.204 95.9784C196.834 96.0144 196.244 96.035 195.411 96.035L195.411 98.035C196.258 98.035 196.928 98.0147 197.398 97.9691C197.624 97.9471 197.857 97.9146 198.054 97.8572C198.145 97.8305 198.301 97.7786 198.454 97.6741C198.596 97.5775 198.931 97.295 198.931 96.79L196.931 96.79ZM195.441 96.0355C194.28 96.0006 193.438 95.9519 192.895 95.8922C192.617 95.8616 192.46 95.8324 192.39 95.8136C192.348 95.8021 192.395 95.8094 192.474 95.856C192.496 95.8689 192.911 96.1051 192.911 96.65L190.911 96.65C190.911 97.2416 191.363 97.5227 191.458 97.5785C191.609 97.6681 191.766 97.7166 191.869 97.7445C192.091 97.8045 192.372 97.8467 192.677 97.8803C193.301 97.9489 194.208 97.9994 195.381 98.0345L195.441 96.0355ZM192.911 96.65L192.911 85.31L190.911 85.31L190.911 96.65L192.911 96.65ZM191.911 84.31L191.001 84.31L191.001 86.31L191.911 86.31L191.911 84.31ZM191.001 84.31C190.995 84.31 191.015 84.3101 191.041 84.3235C191.065 84.3358 191.063 84.3429 191.04 84.3136C190.981 84.238 190.875 84.0325 190.795 83.5911L188.827 83.9489C188.934 84.5342 189.119 85.0986 189.457 85.5364C189.83 86.0185 190.364 86.31 191.001 86.31L191.001 84.31ZM190.799 83.6179C190.76 83.3643 190.741 83.1118 190.741 82.86L188.741 82.86C188.741 83.2148 188.768 83.569 188.823 83.9221L190.799 83.6179ZM190.741 82.86C190.741 82.2688 190.855 81.6676 191.094 81.051L189.228 80.329C188.907 81.1591 188.741 82.0045 188.741 82.86L190.741 82.86ZM191.087 81.0686C191.252 80.6637 191.431 80.4411 191.584 80.3213C191.722 80.2127 191.886 80.15 192.121 80.15L192.121 78.15C191.47 78.15 190.863 78.3439 190.348 78.7487C189.847 79.1423 189.49 79.6896 189.235 80.3114L191.087 81.0686ZM192.121 80.15C192.843 80.15 193.455 80.3187 193.987 80.6375L195.016 78.9225C194.147 78.4013 193.173 78.15 192.121 78.15L192.121 80.15ZM193.987 80.6375C194.629 81.0227 194.919 81.3317 195.027 81.5256L196.775 80.5544C196.416 79.9083 195.773 79.3773 195.016 78.9225L193.987 80.6375ZM196.552 81.7993C197.831 80.7026 199.347 80.15 201.151 80.15L201.151 78.15C198.895 78.15 196.911 78.8574 195.25 80.2807L196.552 81.7993ZM201.151 80.15C203.015 80.15 204.142 80.6506 204.791 81.4336L206.331 80.1564C205.16 78.746 203.347 78.15 201.151 78.15L201.151 80.15ZM204.791 81.4336C205.476 82.2583 205.926 83.7635 205.926 86.185L207.926 86.185C207.926 83.6132 207.466 81.525 206.331 80.1564L204.791 81.4336ZM205.926 86.185L205.926 96.685L207.926 96.685L207.926 86.185L205.926 86.185ZM205.926 96.685C205.926 96.3864 206.07 96.1753 206.18 96.0681C206.231 96.0183 206.276 95.9879 206.303 95.972C206.33 95.9557 206.348 95.9479 206.352 95.9463C206.357 95.944 206.336 95.9529 206.276 95.9669C206.219 95.9803 206.14 95.995 206.035 96.0096C205.605 96.0697 204.909 96.105 203.916 96.105L203.916 98.105C204.93 98.105 205.739 98.0703 206.312 97.9904C206.588 97.9519 206.878 97.8941 207.124 97.7912C207.246 97.7402 207.42 97.6524 207.578 97.4988C207.75 97.3303 207.926 97.0536 207.926 96.685L205.926 96.685ZM203.916 96.105C202.935 96.105 202.249 96.0697 201.825 96.0098C201.722 95.9953 201.645 95.9807 201.588 95.9675C201.53 95.9537 201.51 95.9451 201.517 95.9479C201.521 95.9498 201.54 95.9579 201.567 95.9747C201.594 95.9911 201.64 96.0219 201.69 96.0722C201.8 96.1807 201.941 96.3906 201.941 96.685L199.941 96.685C199.941 97.0494 200.113 97.325 200.285 97.4947C200.441 97.6493 200.615 97.738 200.737 97.7896C200.982 97.8935 201.271 97.9515 201.545 97.9902C202.113 98.0703 202.914 98.105 203.916 98.105L203.916 96.105ZM201.941 96.685L201.941 86.57L199.941 86.57L199.941 96.685L201.941 96.685ZM201.941 86.57C201.941 85.9007 201.829 85.2204 201.454 84.684C201.033 84.0827 200.395 83.82 199.716 83.82L199.716 85.82C199.801 85.82 199.828 85.835 199.822 85.8322C199.811 85.8271 199.807 85.8194 199.816 85.831C199.848 85.878 199.941 86.0727 199.941 86.57L201.941 86.57ZM199.716 83.82C199.237 83.82 198.734 84.0177 198.289 84.2406L199.183 86.0294C199.363 85.9395 199.501 85.8832 199.602 85.8508C199.708 85.8166 199.74 85.82 199.716 85.82L199.716 83.82ZM198.33 84.2212C197.933 84.3977 197.541 84.5863 197.306 84.7741L198.556 86.3359C198.535 86.3525 198.56 86.3305 198.682 86.2666C198.791 86.2098 198.943 86.1375 199.142 86.0488L198.33 84.2212ZM196.931 85.555L196.931 96.79L198.931 96.79L198.931 85.555L196.931 85.555ZM210.628 90.7L211.146 89.8444L210.583 89.5037L210.047 89.8863L210.628 90.7ZM214.338 90.315L214.757 89.407L214.737 89.3976L214.716 89.3891L214.338 90.315ZM211.853 80.515L212.439 81.3257L212.439 81.3257L211.853 80.515ZM220.848 79.71L220.554 80.6658L220.559 80.6673L220.848 79.71ZM221.933 83.21L221.08 82.6885L221.075 82.6973L221.07 82.7061L221.933 83.21ZM220.918 84.575L220.431 85.4482L220.836 85.674L221.269 85.5113L220.918 84.575ZM217.068 85.135L216.399 85.8783L216.438 85.9131L216.48 85.9437L217.068 85.135ZM218.433 85.87L218.012 86.777L218.026 86.7833L218.039 86.7891L218.433 85.87ZM220.043 86.64L219.558 87.5142L219.568 87.5196L219.578 87.5249L220.043 86.64ZM221.513 87.62L222.134 86.8359L222.13 86.8325L221.513 87.62ZM221.338 95.635L222.017 96.3693L222.025 96.3624L221.338 95.635ZM211.223 96.51L211.606 95.586L211.223 96.51ZM209.648 92.135L208.737 91.7234L208.731 91.7358L208.726 91.7483L209.648 92.135ZM210.111 91.5556C212.028 92.7152 213.722 93.415 215.108 93.415L215.108 91.415C214.302 91.415 213.009 90.9715 211.146 89.8444L210.111 91.5556ZM215.108 93.415C215.544 93.415 216.05 93.3442 216.469 93.0505C216.954 92.7112 217.158 92.196 217.158 91.68L215.158 91.68C215.158 91.6836 215.158 91.6386 215.19 91.5716C215.224 91.4996 215.276 91.4448 215.322 91.412C215.363 91.3837 215.379 91.3863 215.34 91.3952C215.302 91.4042 215.228 91.415 215.108 91.415L215.108 93.415ZM217.158 91.68C217.158 91.2983 216.994 90.9963 216.843 90.796C216.69 90.5927 216.496 90.421 216.303 90.2762C215.917 89.9862 215.388 89.6979 214.757 89.407L213.919 91.223C214.503 91.4921 214.883 91.7113 215.103 91.8762C215.214 91.959 215.248 92.0017 215.246 91.9997C215.243 91.9961 215.223 91.9688 215.202 91.9177C215.181 91.8646 215.158 91.7831 215.158 91.68L217.158 91.68ZM214.716 89.3891C213.377 88.8429 212.451 88.1541 211.858 87.362C211.272 86.5802 210.963 85.6328 210.963 84.47L208.963 84.47C208.963 86.0139 209.383 87.394 210.257 88.5605C211.122 89.7167 212.383 90.5971 213.961 91.2409L214.716 89.3891ZM210.963 84.47C210.963 83.0232 211.471 82.0247 212.439 81.3257L211.268 79.7043C209.716 80.8253 208.963 82.4635 208.963 84.47L210.963 84.47ZM212.439 81.3257C213.507 80.554 214.801 80.15 216.368 80.15L216.368 78.15C214.436 78.15 212.719 78.656 211.268 79.7043L212.439 81.3257ZM216.368 80.15C218.078 80.15 219.466 80.3308 220.554 80.6658L221.142 78.7542C219.804 78.3425 218.205 78.15 216.368 78.15L216.368 80.15ZM220.559 80.6673C221.124 80.8378 221.451 81.0086 221.619 81.1412C221.766 81.2583 221.703 81.2693 221.703 81.18L223.703 81.18C223.703 80.484 223.331 79.9467 222.861 79.5738C222.41 79.2164 221.809 78.9555 221.137 78.7527L220.559 80.6673ZM221.703 81.18C221.703 81.4064 221.571 81.885 221.08 82.6885L222.787 83.7314C223.322 82.855 223.703 81.9803 223.703 81.18L221.703 81.18ZM221.07 82.7061C220.832 83.1132 220.647 83.4005 220.51 83.5845C220.441 83.6773 220.398 83.7249 220.38 83.7432C220.343 83.7801 220.41 83.6978 220.567 83.6387L221.269 85.5113C221.52 85.4172 221.7 85.2517 221.794 85.1574C221.907 85.0444 222.014 84.9127 222.115 84.778C222.316 84.507 222.545 84.1468 222.797 83.7139L221.07 82.7061ZM221.406 83.7018C220.251 83.0573 218.998 82.735 217.663 82.735L217.663 84.735C218.662 84.735 219.579 84.9727 220.431 85.4482L221.406 83.7018ZM217.663 82.735C217.262 82.735 216.782 82.8002 216.379 83.0834C215.912 83.4119 215.718 83.9095 215.718 84.4L217.718 84.4C217.718 84.4073 217.717 84.4619 217.681 84.5371C217.643 84.6175 217.586 84.6799 217.53 84.7191C217.481 84.7537 217.454 84.7559 217.478 84.7501C217.503 84.7443 217.561 84.735 217.663 84.735L217.663 82.735ZM215.718 84.4C215.718 84.9995 215.984 85.5042 216.399 85.8783L217.737 84.3917C217.72 84.3761 217.711 84.3657 217.708 84.3612C217.705 84.357 217.706 84.3579 217.709 84.3638C217.712 84.37 217.715 84.3779 217.716 84.3865C217.718 84.395 217.718 84.4 217.718 84.4L215.718 84.4ZM216.48 85.9437C216.822 86.1925 217.355 86.4719 218.012 86.777L218.854 84.963C218.205 84.6615 217.828 84.4508 217.657 84.3263L216.48 85.9437ZM218.039 86.7891C218.675 87.0614 219.178 87.3032 219.558 87.5142L220.529 85.7658C220.069 85.5102 219.499 85.2386 218.827 84.9509L218.039 86.7891ZM219.578 87.5249C219.953 87.7224 220.392 88.0122 220.897 88.4075L222.13 86.8325C221.561 86.3878 221.02 86.0242 220.509 85.7551L219.578 87.5249ZM220.893 88.404C221.774 89.1018 222.193 89.9685 222.193 91.085L224.193 91.085C224.193 89.3548 223.493 87.9115 222.134 86.836L220.893 88.404ZM222.193 91.085C222.193 92.7063 221.668 93.9495 220.652 94.9076L222.025 96.3624C223.482 94.9872 224.193 93.1971 224.193 91.085L222.193 91.085ZM220.66 94.9007C219.68 95.8066 218.103 96.35 215.738 96.35L215.738 98.35C218.368 98.35 220.524 97.75 222.017 96.3693L220.66 94.9007ZM215.738 96.35C214.196 96.35 212.823 96.0897 211.606 95.586L210.841 97.434C212.33 98.0503 213.968 98.35 215.738 98.35L215.738 96.35ZM211.606 95.586C210.412 95.0922 210.193 94.5855 210.193 94.2L208.193 94.2C208.193 95.7745 209.328 96.8078 210.841 97.434L211.606 95.586ZM210.193 94.2C210.193 93.7033 210.308 93.1466 210.571 92.5217L208.726 91.7483C208.382 92.57 208.193 93.3901 208.193 94.2L210.193 94.2ZM210.56 92.5466C210.872 91.8551 211.109 91.5854 211.21 91.5137L210.047 89.8863C209.494 90.2813 209.078 90.9683 208.737 91.7234L210.56 92.5466ZM243.815 79.675L244.809 79.7844L244.815 79.7299L244.815 79.675L243.815 79.675ZM250.01 79.64L249.04 79.3975L249.034 79.4198L249.03 79.4423L250.01 79.64ZM246.58 96.65L245.6 96.4523L245.597 96.4657L246.58 96.65ZM238.81 96.65L237.827 96.83L237.827 96.8343L238.81 96.65ZM237.375 88.81L238.359 88.63L236.4 88.588L237.375 88.81ZM235.59 96.65L234.615 96.428L234.612 96.4409L234.61 96.4539L235.59 96.65ZM227.575 96.545L228.562 96.3806L228.56 96.3729L228.559 96.3652L227.575 96.545ZM224.46 79.5L225.444 79.3202L225.418 79.1802L225.355 79.0528L224.46 79.5ZM227.47 79.29L227.482 78.29L227.47 78.29L227.47 79.29ZM230.55 79.43L229.55 79.43L229.55 79.4977L229.559 79.5649L230.55 79.43ZM232.16 91.26L231.169 91.3949L233.131 91.5012L232.16 91.26ZM235.065 79.57L234.117 79.2538L234.104 79.2909L234.095 79.3288L235.065 79.57ZM239.685 79.57L240.656 79.3288L240.646 79.2909L240.634 79.2538L239.685 79.57ZM242.555 91.12L241.585 91.3612L243.549 91.2294L242.555 91.12ZM244.815 79.675C244.815 79.929 244.71 80.1308 244.599 80.2588C244.501 80.371 244.405 80.4209 244.376 80.4349C244.324 80.4606 244.329 80.4467 244.458 80.4256C244.696 80.3867 245.111 80.36 245.74 80.36L245.74 78.36C245.086 78.36 244.539 78.3858 244.135 78.4519C243.943 78.4833 243.708 78.535 243.495 78.6395C243.327 78.7221 242.815 79.0225 242.815 79.675L244.815 79.675ZM245.74 80.36C247.182 80.36 248.235 80.3834 248.912 80.4279C249.259 80.4506 249.467 80.4765 249.57 80.4974C249.635 80.5106 249.589 80.5085 249.505 80.4655C249.466 80.4458 249.335 80.3761 249.214 80.2228C249.066 80.0335 248.956 79.734 249.04 79.3975L250.98 79.8825C251.07 79.5227 250.954 79.2006 250.789 78.9894C250.652 78.8143 250.491 78.7233 250.412 78.6832C250.248 78.5994 250.076 78.5594 249.969 78.5376C249.728 78.4885 249.408 78.4561 249.043 78.4321C248.297 78.3832 247.191 78.36 245.74 78.36L245.74 80.36ZM249.03 79.4423L245.6 96.4523L247.56 96.8477L250.99 79.8377L249.03 79.4423ZM245.597 96.4657C245.683 96.0105 246.055 95.914 245.918 95.9698C245.861 95.9935 245.708 96.0378 245.414 96.0802C244.839 96.1631 243.943 96.21 242.695 96.21L242.695 98.21C243.968 98.21 244.979 98.1636 245.699 98.0598C246.052 98.0089 246.394 97.9365 246.678 97.8202C246.883 97.736 247.443 97.4761 247.563 96.8343L245.597 96.4657ZM242.695 96.21C241.448 96.21 240.552 96.1631 239.977 96.0802C239.682 96.0378 239.53 95.9935 239.472 95.9698C239.336 95.914 239.708 96.0105 239.793 96.4657L237.827 96.8343C237.948 97.4761 238.508 97.736 238.713 97.8202C238.996 97.9365 239.338 98.0089 239.691 98.0598C240.411 98.1636 241.423 98.21 242.695 98.21L242.695 96.21ZM239.794 96.47L238.359 88.63L236.392 88.99L237.827 96.83L239.794 96.47ZM236.4 88.588L234.615 96.428L236.565 96.872L238.35 89.032L236.4 88.588ZM234.61 96.4539C234.663 96.1889 234.818 96.0407 234.885 95.9882C234.949 95.9374 234.987 95.929 234.951 95.9424C234.88 95.9687 234.712 96.0118 234.402 96.0521C233.797 96.1311 232.861 96.175 231.565 96.175L231.565 98.175C232.883 98.175 233.924 98.1314 234.661 98.0354C235.022 97.9882 235.366 97.9219 235.648 97.817C235.788 97.7648 235.963 97.6853 236.124 97.5579C236.287 97.4288 236.5 97.1986 236.571 96.8461L234.61 96.4539ZM231.565 96.175C230.284 96.175 229.367 96.1222 228.781 96.0297C228.481 95.9824 228.329 95.9335 228.274 95.9087C228.166 95.8597 228.492 95.962 228.562 96.3806L226.589 96.7094C226.694 97.338 227.212 97.624 227.454 97.7325C227.748 97.8652 228.104 97.9476 228.469 98.0053C229.213 98.1228 230.256 98.175 231.565 98.175L231.565 96.175ZM228.559 96.3652L225.444 79.3202L223.476 79.6798L226.591 96.7248L228.559 96.3652ZM225.355 79.0528C225.478 79.2997 225.502 79.6197 225.358 79.9138C225.243 80.1483 225.071 80.2638 225.01 80.3016C224.885 80.3785 224.789 80.3926 224.828 80.3837C224.867 80.3751 224.987 80.357 225.23 80.3401C225.695 80.3076 226.436 80.29 227.47 80.29L227.47 78.29C226.428 78.29 225.629 78.3074 225.091 78.3449C224.832 78.363 224.584 78.3886 224.389 78.4325C224.312 78.4499 224.133 78.4925 223.959 78.6C223.873 78.6531 223.684 78.7844 223.561 79.0354C223.409 79.3459 223.434 79.6828 223.566 79.9472L225.355 79.0528ZM227.459 80.2899C228.483 80.3016 229.239 80.3189 229.735 80.3415C229.986 80.3529 230.151 80.3649 230.245 80.3755C230.298 80.3815 230.293 80.3834 230.26 80.375C230.251 80.3728 230.172 80.3542 230.075 80.3034C230.027 80.2785 229.922 80.2189 229.817 80.1069C229.706 79.9883 229.55 79.758 229.55 79.43L231.55 79.43C231.55 79.0976 231.392 78.863 231.277 78.7401C231.168 78.6239 231.057 78.56 231.001 78.5309C230.888 78.4717 230.785 78.4449 230.745 78.4347C230.647 78.4102 230.546 78.3968 230.471 78.3883C230.307 78.3697 230.087 78.3554 229.826 78.3435C229.295 78.3194 228.511 78.3018 227.482 78.2901L227.459 80.2899ZM229.559 79.5649L231.169 91.3949L233.151 91.1251L231.541 79.2951L229.559 79.5649ZM233.131 91.5012L236.036 79.8112L234.095 79.3288L231.19 91.0188L233.131 91.5012ZM236.014 79.8862C235.897 80.2369 235.632 80.3789 235.591 80.4013C235.518 80.4406 235.47 80.4506 235.485 80.4466C235.509 80.4405 235.593 80.4243 235.768 80.4084C236.107 80.3776 236.636 80.36 237.375 80.36L237.375 78.36C236.621 78.36 236.018 78.3774 235.587 78.4166C235.377 78.4357 235.167 78.4633 234.987 78.5096C234.9 78.5319 234.773 78.5703 234.643 78.6403C234.544 78.6932 234.245 78.8681 234.117 79.2538L236.014 79.8862ZM237.375 80.36C238.114 80.36 238.643 80.3776 238.982 80.4084C239.157 80.4243 239.242 80.4405 239.266 80.4466C239.281 80.4506 239.233 80.4406 239.16 80.4013C239.118 80.3789 238.853 80.2369 238.737 79.8862L240.634 79.2538C240.505 78.8681 240.206 78.6932 240.108 78.6403C239.978 78.5703 239.85 78.5319 239.764 78.5096C239.583 78.4633 239.373 78.4357 239.163 78.4166C238.732 78.3774 238.13 78.36 237.375 78.36L237.375 80.36ZM238.715 79.8112L241.585 91.3612L243.526 90.8788L240.656 79.3288L238.715 79.8112ZM243.549 91.2294L244.809 79.7844L242.821 79.5656L241.561 91.0106L243.549 91.2294ZM265.199 96.055L264.77 95.1513L264.73 95.1703L264.692 95.1927L265.199 96.055ZM253.684 95.005L252.976 95.7121L252.982 95.7173L253.684 95.005ZM253.579 81.705L252.837 81.0343L252.832 81.04L253.579 81.705ZM264.779 80.935L264.092 81.662L264.099 81.6683L264.779 80.935ZM257.779 90.945L257.779 89.945L256.779 89.945L256.779 90.945L257.779 90.945ZM258.339 92.415L257.739 93.215L257.766 93.2358L257.795 93.2546L258.339 92.415ZM264.709 91.68L265.161 92.5716L265.303 92.4996L265.416 92.3871L264.709 91.68ZM265.024 92.17L264.141 92.6406L264.146 92.649L264.15 92.6574L265.024 92.17ZM258.234 84.89L258.88 85.6534L258.884 85.6493L258.234 84.89ZM257.779 87.13L256.779 87.13L256.779 88.13L257.779 88.13L257.779 87.13ZM264.692 95.1927C263.421 95.9394 261.721 96.35 259.529 96.35L259.529 98.35C261.956 98.35 264.036 97.8973 265.705 96.9173L264.692 95.1927ZM259.529 96.35C257.47 96.35 255.777 95.6642 254.385 94.2927L252.982 95.7173C254.763 97.4725 256.967 98.35 259.529 98.35L259.529 96.35ZM254.391 94.2979C253.034 92.9412 252.304 91.0382 252.304 88.46L250.304 88.46C250.304 91.4351 251.16 93.8955 252.976 95.7121L254.391 94.2979ZM252.304 88.46C252.304 85.8469 253.007 83.8509 254.325 82.37L252.832 81.04C251.117 82.9658 250.304 85.4731 250.304 88.46L252.304 88.46ZM254.32 82.3756C255.667 80.8858 257.333 80.15 259.389 80.15L259.389 78.15C256.778 78.15 254.57 79.1175 252.837 81.0344L254.32 82.3756ZM259.389 80.15C261.557 80.15 263.074 80.7008 264.092 81.662L265.465 80.208C263.963 78.7892 261.887 78.15 259.389 78.15L259.389 80.15ZM264.099 81.6683C265.184 82.6749 265.704 83.8585 265.704 85.275L267.704 85.275C267.704 83.2848 266.94 81.5751 265.458 80.2017L264.099 81.6683ZM265.704 85.275C265.704 86.9721 265.223 88.0736 264.419 88.7734C263.589 89.4963 262.241 89.945 260.194 89.945L260.194 91.945C262.486 91.945 264.393 91.4487 265.733 90.2816C267.099 89.0914 267.704 87.3579 267.704 85.275L265.704 85.275ZM260.194 89.945L257.779 89.945L257.779 91.945L260.194 91.945L260.194 89.945ZM256.779 90.945C256.779 91.7966 257.007 92.666 257.739 93.215L258.939 91.615C258.924 91.604 258.779 91.4934 258.779 90.945L256.779 90.945ZM257.795 93.2546C258.422 93.6604 259.217 93.8 260.054 93.8L260.054 91.8C259.397 91.8 259.048 91.6829 258.882 91.5754L257.795 93.2546ZM260.054 93.8C261.846 93.8 263.552 93.3888 265.161 92.5716L264.256 90.7884C262.925 91.4645 261.528 91.8 260.054 91.8L260.054 93.8ZM265.416 92.3871C265.226 92.5766 264.972 92.6778 264.714 92.6778C264.492 92.6778 264.329 92.604 264.251 92.5624C264.102 92.4832 264.016 92.3861 264.004 92.3732C263.96 92.3248 263.943 92.2941 263.964 92.3258C263.993 92.3716 264.05 92.4703 264.141 92.6406L265.906 91.6994C265.81 91.5197 265.721 91.3617 265.646 91.2442C265.614 91.1942 265.555 91.1052 265.479 91.0218C265.451 90.9914 265.351 90.8826 265.192 90.7976C265.108 90.7531 264.94 90.6778 264.714 90.6778C264.451 90.6778 264.194 90.7805 264.001 90.9729L265.416 92.3871ZM264.15 92.6574C264.675 93.5968 264.864 94.2719 264.864 94.725L266.864 94.725C266.864 93.778 266.492 92.7499 265.897 91.6826L264.15 92.6574ZM264.864 94.725C264.864 94.9618 264.824 95.0762 264.803 95.1178C264.798 95.1276 264.794 95.1333 264.792 95.1362C264.79 95.139 264.789 95.1401 264.789 95.1404C264.788 95.1407 264.788 95.1415 264.786 95.1429C264.783 95.1443 264.779 95.1473 264.77 95.1513L265.627 96.9587C266.551 96.5209 266.864 95.6171 266.864 94.725L264.864 94.725ZM261.824 85.94C261.824 85.3018 261.668 84.6384 261.18 84.139C260.688 83.6351 260.027 83.47 259.389 83.47L259.389 85.47C259.545 85.47 259.641 85.4904 259.693 85.5082C259.718 85.5168 259.733 85.5245 259.739 85.5287C259.746 85.5326 259.748 85.5351 259.749 85.536C259.75 85.537 259.754 85.5406 259.759 85.5496C259.764 85.559 259.773 85.5767 259.783 85.6063C259.803 85.6675 259.824 85.7733 259.824 85.94L261.824 85.94ZM259.389 83.47C258.714 83.47 258.097 83.6903 257.583 84.1307L258.884 85.6493C259.024 85.5297 259.176 85.47 259.389 85.47L259.389 83.47ZM257.588 84.1266C256.998 84.6257 256.779 85.3297 256.779 86.045L258.779 86.045C258.779 85.7336 258.863 85.6676 258.88 85.6534L257.588 84.1266ZM256.779 86.045L256.779 87.13L258.779 87.13L258.779 86.045L256.779 86.045ZM257.779 88.13L259.669 88.13L259.669 86.13L257.779 86.13L257.779 88.13ZM259.669 88.13C260.215 88.13 260.807 87.9874 261.252 87.529C261.692 87.0761 261.824 86.4835 261.824 85.94L259.824 85.94C259.824 86.1899 259.763 86.1923 259.817 86.136C259.842 86.111 259.861 86.1059 259.849 86.1098C259.832 86.1156 259.778 86.13 259.669 86.13L259.669 88.13ZM273.47 97.21L273.448 98.2098L273.459 98.21L273.47 98.21L273.47 97.21ZM270.285 85.31L271.285 85.31L271.285 84.31L270.285 84.31L270.285 85.31ZM268.43 84.645L267.518 85.0554L267.531 85.0835L267.545 85.1107L268.43 84.645ZM272.98 80.13L272.298 80.8611L272.304 80.8672L272.311 80.8733L272.98 80.13ZM274.03 82.3L273.03 82.3L274.92 82.7559L274.03 82.3ZM275.99 80.025L276.556 80.8497L276.56 80.8464L275.99 80.025ZM280.995 80.2L281.931 79.8489L281.928 79.8387L281.924 79.8286L280.995 80.2ZM280.75 82.965L279.78 82.7225L279.777 82.7339L279.774 82.7455L280.75 82.965ZM279 85.38L278.553 86.2744L278.586 86.2908L278.619 86.3047L279 85.38ZM275.655 96.965C275.655 96.3861 276.115 96.1509 276.131 96.142C276.216 96.0964 276.268 96.0892 276.231 96.0978C276.174 96.1111 276.035 96.1322 275.782 96.1517C275.291 96.1895 274.526 96.21 273.47 96.21L273.47 98.21C274.537 98.21 275.365 98.1897 275.935 98.1458C276.213 98.1244 276.473 98.0946 276.681 98.0466C276.776 98.0246 276.929 97.9841 277.079 97.9029C277.162 97.8583 277.655 97.5847 277.655 96.965L275.655 96.965ZM273.492 96.2102C272.435 96.187 271.666 96.1525 271.169 96.1088C270.914 96.0864 270.767 96.0645 270.699 96.0496C270.656 96.0402 270.697 96.0447 270.77 96.08C270.805 96.0969 270.905 96.1477 271.008 96.2525C271.119 96.3644 271.285 96.5943 271.285 96.93L269.285 96.93C269.285 97.2832 269.459 97.5303 269.587 97.6589C269.707 97.7805 269.831 97.8477 269.9 97.8806C270.039 97.948 270.179 97.9831 270.269 98.0029C270.467 98.0463 270.718 98.0769 270.994 98.1012C271.558 98.1508 272.381 98.1863 273.448 98.2098L273.492 96.2102ZM271.285 96.93L271.285 85.31L269.285 85.31L269.285 96.93L271.285 96.93ZM270.285 84.31L269.34 84.31L269.34 86.31L270.285 86.31L270.285 84.31ZM269.34 84.31C269.347 84.31 269.364 84.3113 269.384 84.3181C269.405 84.3249 269.418 84.3332 269.423 84.3364C269.428 84.3403 269.383 84.309 269.315 84.1793L267.545 85.1107C267.883 85.7528 268.469 86.31 269.34 86.31L269.34 84.31ZM269.342 84.2346C269.206 83.9314 269.115 83.5086 269.115 82.93L267.115 82.93C267.115 83.7047 267.235 84.4252 267.518 85.0554L269.342 84.2346ZM269.115 82.93C269.115 81.7361 269.298 81.0058 269.535 80.6048C269.724 80.2859 269.953 80.15 270.355 80.15L270.355 78.15C269.264 78.15 268.372 78.6441 267.815 79.5852C267.306 80.4442 267.115 81.6039 267.115 82.93L269.115 82.93ZM270.355 80.15C271.178 80.15 271.801 80.3979 272.298 80.8611L273.662 79.3989C272.759 78.5554 271.632 78.15 270.355 78.15L270.355 80.15ZM272.311 80.8733C272.836 81.3457 273.03 81.8114 273.03 82.3L275.03 82.3C275.03 81.1553 274.524 80.1743 273.649 79.3867L272.311 80.8733ZM274.92 82.7559C275.341 81.9343 275.888 81.3078 276.556 80.8497L275.425 79.2003C274.459 79.8622 273.699 80.7524 273.14 81.8441L274.92 82.7559ZM276.56 80.8464C277.265 80.3574 277.921 80.15 278.545 80.15L278.545 78.15C277.442 78.15 276.395 78.526 275.42 79.2036L276.56 80.8464ZM278.545 80.15C279.837 80.15 280.036 80.4939 280.067 80.5714L281.924 79.8286C281.395 78.5061 279.96 78.15 278.545 78.15L278.545 80.15ZM280.059 80.5511C280.058 80.5479 280.07 80.5824 280.082 80.674C280.093 80.7622 280.1 80.8824 280.1 81.04L282.1 81.04C282.1 80.6326 282.066 80.207 281.931 79.8489L280.059 80.5511ZM280.1 81.04C280.1 81.2492 280.016 81.7763 279.78 82.7225L281.72 83.2075C281.95 82.287 282.1 81.5308 282.1 81.04L280.1 81.04ZM279.774 82.7455C279.569 83.6587 279.372 84.2196 279.211 84.5094L280.959 85.4806C281.265 84.9304 281.511 84.138 281.726 83.1845L279.774 82.7455ZM279.211 84.5094C279.098 84.7128 279.02 84.8421 278.973 84.9128C278.947 84.952 278.948 84.9465 278.97 84.9213C278.98 84.9105 279.02 84.8654 279.087 84.8152C279.122 84.7892 279.182 84.7479 279.265 84.7106C279.345 84.6744 279.484 84.625 279.665 84.625L279.665 86.625C280.008 86.625 280.236 86.4535 280.287 86.4152C280.371 86.3518 280.432 86.287 280.465 86.25C280.534 86.1722 280.593 86.088 280.637 86.0222C280.73 85.8829 280.839 85.6972 280.959 85.4806L279.211 84.5094ZM279.665 84.625C279.729 84.625 279.778 84.6315 279.802 84.635C279.828 84.6389 279.849 84.6432 279.86 84.6457C279.881 84.6505 279.892 84.6542 279.888 84.653C279.881 84.6509 279.857 84.643 279.809 84.6254C279.716 84.5911 279.575 84.5354 279.381 84.4553L278.619 86.3047C278.822 86.388 278.99 86.4548 279.118 86.5021C279.181 86.5253 279.246 86.5481 279.306 86.5664C279.314 86.5688 279.48 86.625 279.665 86.625L279.665 84.625ZM279.447 84.4856C278.984 84.2542 278.491 84.1 277.985 84.1L277.985 86.1C278.086 86.1 278.269 86.1325 278.553 86.2744L279.447 84.4856ZM277.985 84.1C277.228 84.1 276.563 84.4269 276.143 85.0899C275.772 85.6758 275.655 86.4267 275.655 87.2L277.655 87.2C277.655 86.5733 277.76 86.2742 277.832 86.1601C277.847 86.1365 277.858 86.1254 277.862 86.1213C277.866 86.1175 277.868 86.1167 277.869 86.1162C277.87 86.1156 277.877 86.112 277.893 86.1083C277.91 86.1045 277.94 86.1 277.985 86.1L277.985 84.1ZM275.655 87.2L275.655 96.965L277.655 96.965L277.655 87.2L275.655 87.2Z" fill="white" mask="url(#path-4-outside-1_1_20002)"/>
<path d="M350.31 33.93C350.31 33.93 349.387 25.2663 350.196 23.4178C351.005 21.5694 366.23 21.4562 368.544 23.3047C370.871 25.1531 368.544 33.93 368.544 33.93L350.31 33.93Z" fill="#752309"/>
<path d="M359.604 30.6608C356.38 30.4471 352.447 29.2902 349.855 26.964C349.893 30.0824 350.298 33.9302 350.298 33.9302L368.532 33.9302C368.532 33.9302 369.948 28.5609 369.455 25.3419C367.862 28.8753 363.588 30.9375 359.592 30.6734L359.604 30.6608Z" fill="#12AB0F"/>
<path d="M368.671 50.5281L368.671 38.0417L349.83 38.0417L349.83 50.5281C349.83 54.6022 347.414 58.3242 343.633 59.896C328.864 66.0952 318.583 80.7821 319.013 97.8204C319.544 119.021 336.944 136.298 358.264 136.801C380.937 137.342 399.487 119.222 399.487 96.7893C399.487 80.254 389.409 66.0826 375.032 59.9715C371.2 58.3494 368.671 54.6651 368.671 50.5281Z" fill="#F4ECE5"/>
<path d="M370.568 29.9565L347.933 29.9565C346.732 29.9565 345.758 30.9248 345.758 32.1193L345.758 38.5322C345.758 39.7267 346.732 40.695 347.933 40.695L370.568 40.695C371.769 40.695 372.743 39.7267 372.743 38.5322L372.743 32.1193C372.743 30.9248 371.769 29.9565 370.568 29.9565Z" fill="#F4ECE5"/>
<g style="mix-blend-mode:multiply" opacity="0.3">
<path d="M368.456 37.6522L350.373 37.6522C348.11 37.6522 346.567 36.533 345.745 35.0241L345.745 38.5324C345.745 39.7269 346.719 40.6952 347.92 40.6952L370.568 40.6952C371.769 40.6952 372.743 39.7269 372.743 38.5324L372.743 35.5648C371.87 36.7971 370.441 37.6522 368.456 37.6522Z" fill="#25DDFF"/>
</g>
<path d="M381.152 67.9062L337.348 67.9062C328.56 74.5078 322.87 84.9822 322.87 96.7896C322.87 116.77 339.157 132.966 359.25 132.966C379.343 132.966 395.63 116.77 395.63 96.7896C395.63 84.9822 389.94 74.5078 381.152 67.9062Z" fill="#23CF53"/>
<path d="M381.152 67.9063C383.314 69.6667 371.352 71.5654 359.25 71.5654C347.148 71.5654 334.756 70.0439 337.348 67.9063C338.916 66.6111 347.148 64.2471 359.25 64.2471C371.352 64.2471 379.571 66.6363 381.152 67.9063Z" fill="#12AB0F"/>
<g style="mix-blend-mode:multiply" opacity="0.3">
<path d="M397.806 85.3093C397.047 90.7037 395.251 96.3747 392.507 100.612C386.425 110.043 377.396 118.393 365.94 120.618C357.505 122.253 353.889 122.467 345.442 120.618C343.368 120.166 341.85 119.298 339.701 118.405C334.428 116.192 331.532 115.085 327.068 110.332C324.577 107.692 322.288 104.825 320.353 101.744C319.898 101.015 319.481 100.26 319.089 99.5058C320.467 119.939 337.5 136.324 358.264 136.814C380.937 137.355 399.487 119.235 399.487 96.8023C399.487 92.8036 398.893 88.9558 397.793 85.3093L397.806 85.3093Z" fill="#25DDFF"/>
</g>
<path d="M376.069 82.7689C374.602 81.9013 372.199 82.1779 370.884 83.2593C364.384 88.5909 358.846 94.9535 354.559 102.171C354.508 102.247 354.471 102.322 354.42 102.398C352.801 100.826 350.968 99.4677 348.995 98.3989C347.427 97.5564 345.214 97.8079 343.811 98.8893C343.242 99.3294 342.571 99.9456 342.521 100.713C342.483 101.379 342.736 102.058 343.368 102.398C344.253 102.875 345.1 103.404 345.922 103.995C346.302 104.271 346.668 104.548 347.035 104.85C347.136 104.938 347.844 105.491 347.275 105.051C347.452 105.189 347.617 105.365 347.794 105.529C349.223 106.887 350.462 108.433 351.486 110.118C351.714 110.483 352.308 110.76 352.688 110.885C353.408 111.124 354.205 111.099 354.938 110.961C356.152 110.747 357.695 110.093 358.251 108.899C359.883 105.378 361.817 102.008 364.03 98.8139C364.106 98.7007 364.195 98.5875 364.271 98.4744C364.271 98.4744 364.283 98.4618 364.296 98.4492C364.296 98.4492 364.309 98.4241 364.321 98.4241C364.397 98.3109 364.486 98.1977 364.561 98.0845C364.852 97.6947 365.143 97.3049 365.434 96.9151C366.028 96.1481 366.635 95.3811 367.255 94.6392C368.494 93.1554 369.809 91.7093 371.175 90.3387C371.959 89.5465 372.756 88.7795 373.578 88.0376C373.78 87.849 373.995 87.6604 374.197 87.4843C374.222 87.4592 374.248 87.434 374.273 87.4215C374.716 87.0442 375.171 86.667 375.613 86.2898C376.182 85.8245 376.802 85.2461 376.903 84.4665C376.992 83.8 376.638 83.121 376.056 82.7815L376.069 82.7689Z" fill="white"/>
<defs>
<filter id="filter0_d_1_20002" x="0.675293" y="10.1154" width="433.36" height="154.39" filterUnits="userSpaceOnUse" color-interpolation-filters="sRGB">
<feFlood flood-opacity="0" result="BackgroundImageFix"/>
<feColorMatrix in="SourceAlpha" type="matrix" values="0 0 0 0 0 0 0 0 0 0 0 0 0 0 0 0 0 0 127 0" result="hardAlpha"/>
<feOffset dy="4"/>
<feGaussianBlur stdDeviation="2"/>
<feComposite in2="hardAlpha" operator="out"/>
<feColorMatrix type="matrix" values="0 0 0 0 0 0 0 0 0 0 0 0 0 0 0 0 0 0 0.25 0"/>
<feBlend mode="normal" in2="BackgroundImageFix" result="effect1_dropShadow_1_20002"/>
<feBlend mode="normal" in="SourceGraphic" in2="effect1_dropShadow_1_20002" result="shape"/>
</filter>
</defs>
</svg>
