<svg width="355" height="474" viewBox="0 0 355 474" fill="none" xmlns="http://www.w3.org/2000/svg">
<path d="M194.432 393.43C139.017 393.43 82.0566 411.33 82.0566 433.413C82.0566 455.497 139.015 473.398 194.432 473.398C222.688 473.398 248.193 468.741 266.425 461.246C274.889 463.483 284.724 464.789 295.274 464.789C326.578 464.789 354.095 449.763 354.976 435.875C356.976 404.192 233.086 393.432 194.432 393.432V393.43Z" fill="#3AB3D7"/>
<path d="M162.31 442.637C171.548 431.288 199.933 433.577 207.457 444.577C214.989 455.581 151.775 455.581 162.31 442.637Z" fill="#D4EFF0"/>
<path d="M201.901 431.033C184.601 435.794 196.792 452.508 262.972 456.724C344.059 461.889 361.658 412.762 287.22 408.633" fill="#60CEED"/>
<path d="M103.476 415.022C119.59 393.688 194.579 400.749 201.001 417.271C207.431 433.799 83.0346 442.064 103.476 415.022Z" fill="#D4EFF0"/>
<path d="M139.246 441.704C142.406 439.141 157.302 437.825 152.791 444.483C148.276 451.14 131.723 447.804 139.246 441.704Z" fill="#D4EFF0"/>
<path d="M176.382 417.064C179.272 395.424 301.548 399.029 311.029 419.179C320.515 439.319 172.784 444.014 176.382 417.064Z" fill="#60CEED"/>
<path d="M171.558 8.9916L235.173 422.224L224.373 424.624C224.373 424.624 143.368 19.1631 145.693 13.3869C148.022 7.60886 168.709 6.14436 171.558 8.9916Z" fill="#FFB531" stroke="#3C1607" stroke-width="2" stroke-linecap="round" stroke-linejoin="round"/>
<path d="M15.4484 58.1981C11.3605 64.0452 21.6329 219.785 32.6387 224.679C43.6445 229.574 338.187 178.193 345.52 170.854C352.859 163.509 317.582 23.4898 309.025 17.3756C300.468 11.2505 24.0109 45.9624 15.4484 58.1981Z" fill="#E27905" stroke="#3C1607" stroke-width="2" stroke-linecap="round" stroke-linejoin="round"/>
<path d="M30.8491 55.0384C27.3057 59.2393 28.1516 86.9195 31.1976 93.1809C34.2363 99.4386 87.1867 93.0355 87.1867 93.0355C87.1867 93.0355 38.0646 104.933 34.1274 108.778C30.1992 112.628 30.624 143.772 32.8839 150.02C35.1475 156.278 47.6237 153.298 47.6237 153.298C47.6237 153.298 39.0013 159.432 36.6233 163.295C34.2472 167.164 47.0228 207.692 53.9951 210.105C60.9657 212.523 333.574 172.115 339.067 167.507C344.564 162.895 343.273 139.532 337.838 138.695C332.405 137.852 285.628 148.216 285.628 148.216C285.628 148.216 334.03 131.641 335.649 126.212C337.267 120.781 328.504 70.0904 319.989 66.878C311.476 63.6692 190.817 74.7547 190.817 74.7547C190.817 74.7547 313.126 55.1238 317.056 51.2773C320.989 47.4307 314.273 22.4451 304.95 21.5621C295.627 20.679 41.8839 41.9288 30.8509 55.0402L30.8491 55.0384Z" fill="#FFB531"/>
<path d="M49.616 68.4677C56.9441 51.1335 260.338 35.0022 260.338 46.6746C260.338 58.347 32.5092 108.941 49.616 68.4677Z" fill="#F8A329"/>
<path d="M62.8361 105.051C52.6145 111.659 50.3962 139.294 61.2822 142.41C72.1682 145.517 152.258 140.851 152.258 140.851C152.258 140.851 79.9429 147.078 80.718 160.309C81.4967 173.543 125.044 164.977 186.466 155.634C247.896 146.3 298.434 129.175 309.325 119.834C320.211 110.495 310.104 84.0337 290.661 77.8068C271.225 71.58 100.159 80.9212 62.8361 105.051Z" fill="#F8A329"/>
<path d="M107.158 182.882C115.188 170.252 249.452 150.972 265.78 158.75C282.11 166.536 96.2736 200.005 107.158 182.882Z" fill="#F8A329"/>
<path d="M191.374 218.966C190.234 222.389 227.813 419.301 227.813 419.301L233.512 419.871L201.06 208.702C201.06 208.702 193.652 212.123 191.374 218.966Z" fill="#F8A329"/>
<path d="M153.401 11.7464C151.734 15.0806 157.307 25.9335 157.307 25.9335L171.965 22.9991C171.965 22.9991 171.965 14.1921 170.985 10.2819C170.01 6.36808 154.376 9.78949 153.399 11.7482L153.401 11.7464Z" fill="#F8A329"/>
<path d="M291.311 14.559C294.978 4.65093 310.734 0.986044 320.261 13.8195C316.963 18.2257 301.206 23.3605 296.075 18.5946C307.436 29.2295 286.909 37.2987 286.909 37.2987C278.832 24.0837 285.082 17.855 285.082 17.855C266.759 16.6358 270.18 2.94113 270.18 2.94113C278.73 -2.44263 290.211 4.28753 291.311 14.559Z" fill="#60CEED" stroke="#455E00" stroke-width="2" stroke-linecap="round" stroke-linejoin="round"/>
<path d="M288.806 13.2273C288.96 4.64382 279.576 1.82203 273.611 3.71716C280.138 9.89495 288.806 13.2273 288.806 13.2273Z" fill="#3AB3D7"/>
<path d="M289.719 17.1279C282.878 18.3508 281.416 27.3958 287.035 33.0212C292.41 31.3132 289.719 17.1279 289.719 17.1279Z" fill="#3AB3D7"/>
<path d="M293.586 14.5936C294.561 5.29785 311.664 5.78844 315.574 12.8802C306.534 19.2379 296.518 18.7527 293.586 14.5936Z" fill="#3AB3D7"/>
<path d="M20.2717 143.78C9.84137 139.005 19.8887 122.14 26.8901 122.992C30.5042 132.046 29.1319 145.308 20.2717 143.78Z" fill="#60CEED" stroke="#455E00" stroke-width="2" stroke-linecap="round" stroke-linejoin="round"/>
<path d="M27.881 162.232C31.958 152.918 30.1518 143.068 20.2715 143.779C10.3966 144.487 14.0108 153.538 27.881 162.232Z" fill="#60CEED" stroke="#455E00" stroke-width="2" stroke-linecap="round" stroke-linejoin="round"/>
<path d="M17.1042 142.407C6.01309 139.768 0.166215 147.4 1.09562 160.088C11.3481 159.732 21.6514 149.715 17.1042 142.407Z" fill="#60CEED" stroke="#455E00" stroke-width="2" stroke-linecap="round" stroke-linejoin="round"/>
<path d="M14.9944 143.577C12.2589 140.292 3.26072 143.495 3.45677 156.211C8.69373 152.113 18.565 147.858 14.9944 143.577Z" fill="#3AB3D7"/>
<path d="M24.3044 125.692C16.3554 129.148 13.4492 137.079 19.9024 139.792C26.3519 142.505 24.3044 125.692 24.3044 125.692Z" fill="#3AB3D7"/>
<g filter="url(#filter0_d_1_7862)">
<g filter="url(#filter1_d_1_7862)">
<path d="M223.67 177.131L160.227 192.405C115.469 203.18 71.9869 170.476 69.9239 124.486C68.162 85.2073 97.7302 51.5464 136.908 48.2301L201.932 42.726C240.56 39.4562 274.157 68.9681 275.894 107.696C277.359 140.36 255.46 169.478 223.67 177.131Z" fill="white"/>
<path d="M223.67 177.131L160.227 192.405C115.469 203.18 71.9869 170.476 69.9239 124.486C68.162 85.2073 97.7302 51.5464 136.908 48.2301L201.932 42.726C240.56 39.4562 274.157 68.9681 275.894 107.696C277.359 140.36 255.46 169.478 223.67 177.131Z" stroke="#53BCBF" stroke-width="3"/>
</g>
<g filter="url(#filter2_d_1_7862)">
<path d="M221.275 174.212L160.48 188.897C117.033 199.392 74.7993 167.652 72.7964 123.001C71.0869 84.8891 99.7735 52.2265 137.787 49.0026L200.107 43.7173C237.619 40.5359 270.248 69.1934 271.935 106.802C273.357 138.501 252.118 166.762 221.275 174.212Z" fill="white"/>
<path d="M221.275 174.212L160.48 188.897C117.033 199.392 74.7993 167.652 72.7964 123.001C71.0869 84.8891 99.7735 52.2265 137.787 49.0026L200.107 43.7173C237.619 40.5359 270.248 69.1934 271.935 106.802C273.357 138.501 252.118 166.762 221.275 174.212Z" stroke="#E27905" stroke-width="6"/>
</g>
<path d="M219.625 173.059L161.331 187.203C118.934 197.49 77.688 166.526 75.733 122.943C74.0657 85.7733 102.039 53.9164 139.112 50.7641L198.881 45.682C235.507 42.5677 267.37 70.5459 269.017 107.267C270.404 138.187 249.703 165.761 219.625 173.059Z" fill="#53BCBF"/>
<path opacity="0.43" d="M115.801 62.5537C101.1 60.7807 84.1636 86.7371 103.336 84.4009C116.499 82.2336 127.284 63.0283 115.801 62.5537Z" fill="white"/>
<path opacity="0.43" d="M91.6942 84.1348C91.6942 84.1348 88.3503 84.1506 85.5418 90.8526C82.7332 97.5545 85.1973 101.906 89.1324 98.9618C93.0683 96.0341 97.7013 82.4227 91.6942 84.1348Z" fill="white"/>
<path opacity="0.43" d="M263.174 113.738C263.523 132.834 243.173 144.592 244.759 130.732C245.897 127.246 254.732 120.206 255.643 113.359C256.555 106.511 264.574 105.346 263.174 113.738Z" fill="white"/>
<g filter="url(#filter3_d_1_7862)">
<g filter="url(#filter4_d_1_7862)">
<path d="M214.344 90.6706C221.67 93.035 223.689 102.443 217.979 107.606L160.133 159.897C154.423 165.059 145.265 162.104 143.65 154.577L127.287 78.3356C125.672 70.809 132.81 64.3562 140.136 66.7205L214.344 90.6706Z" fill="#FFB531"/>
</g>
</g>
<g filter="url(#filter5_d_1_7862)">
<path d="M212.791 88.7305C220.117 91.0948 222.137 100.503 216.426 105.665L158.58 157.957C152.87 163.119 143.712 160.163 142.097 152.637L125.734 76.3954C124.119 68.8688 131.257 62.416 138.583 64.7804L212.791 88.7305Z" fill="url(#paint0_linear_1_7862)" fill-opacity="0.8" shape-rendering="crispEdges"/>
</g>
</g>
<defs>
<filter id="filter0_d_1_7862" x="68.3491" y="40.4758" width="216.114" height="163.494" filterUnits="userSpaceOnUse" color-interpolation-filters="sRGB">
<feFlood flood-opacity="0" result="BackgroundImageFix"/>
<feColorMatrix in="SourceAlpha" type="matrix" values="0 0 0 0 0 0 0 0 0 0 0 0 0 0 0 0 0 0 127 0" result="hardAlpha"/>
<feOffset dx="4" dy="5"/>
<feGaussianBlur stdDeviation="1.5"/>
<feComposite in2="hardAlpha" operator="out"/>
<feColorMatrix type="matrix" values="0 0 0 0 0.929412 0 0 0 0 0.682353 0 0 0 0 0.380392 0 0 0 1 0"/>
<feBlend mode="normal" in2="BackgroundImageFix" result="effect1_dropShadow_1_7862"/>
<feBlend mode="normal" in="SourceGraphic" in2="effect1_dropShadow_1_7862" result="shape"/>
</filter>
<filter id="filter1_d_1_7862" x="64.3491" y="40.9783" width="217.114" height="162.991" filterUnits="userSpaceOnUse" color-interpolation-filters="sRGB">
<feFlood flood-opacity="0" result="BackgroundImageFix"/>
<feColorMatrix in="SourceAlpha" type="matrix" values="0 0 0 0 0 0 0 0 0 0 0 0 0 0 0 0 0 0 127 0" result="hardAlpha"/>
<feOffset dy="4"/>
<feGaussianBlur stdDeviation="2"/>
<feComposite in2="hardAlpha" operator="out"/>
<feColorMatrix type="matrix" values="0 0 0 0 0 0 0 0 0 0 0 0 0 0 0 0 0 0 0.25 0"/>
<feBlend mode="normal" in2="BackgroundImageFix" result="effect1_dropShadow_1_7862"/>
<feBlend mode="normal" in="SourceGraphic" in2="effect1_dropShadow_1_7862" result="shape"/>
</filter>
<filter id="filter2_d_1_7862" x="65.7236" y="40.4758" width="213.279" height="161.439" filterUnits="userSpaceOnUse" color-interpolation-filters="sRGB">
<feFlood flood-opacity="0" result="BackgroundImageFix"/>
<feColorMatrix in="SourceAlpha" type="matrix" values="0 0 0 0 0 0 0 0 0 0 0 0 0 0 0 0 0 0 127 0" result="hardAlpha"/>
<feOffset dy="4"/>
<feGaussianBlur stdDeviation="2"/>
<feComposite in2="hardAlpha" operator="out"/>
<feColorMatrix type="matrix" values="0 0 0 0 0 0 0 0 0 0 0 0 0 0 0 0 0 0 0.25 0"/>
<feBlend mode="normal" in2="BackgroundImageFix" result="effect1_dropShadow_1_7862"/>
<feBlend mode="normal" in="SourceGraphic" in2="effect1_dropShadow_1_7862" result="shape"/>
</filter>
<filter id="filter3_d_1_7862" x="127.056" y="65.2246" width="98.2207" height="100.262" filterUnits="userSpaceOnUse" color-interpolation-filters="sRGB">
<feFlood flood-opacity="0" result="BackgroundImageFix"/>
<feColorMatrix in="SourceAlpha" type="matrix" values="0 0 0 0 0 0 0 0 0 0 0 0 0 0 0 0 0 0 127 0" result="hardAlpha"/>
<feOffset dx="2" dy="1"/>
<feGaussianBlur stdDeviation="1"/>
<feComposite in2="hardAlpha" operator="out"/>
<feColorMatrix type="matrix" values="0 0 0 0 1 0 0 0 0 0.933333 0 0 0 0 0.882353 0 0 0 1 0"/>
<feBlend mode="normal" in2="BackgroundImageFix" result="effect1_dropShadow_1_7862"/>
<feBlend mode="normal" in="SourceGraphic" in2="effect1_dropShadow_1_7862" result="shape"/>
</filter>
<filter id="filter4_d_1_7862" x="123.056" y="66.2246" width="102.221" height="104.262" filterUnits="userSpaceOnUse" color-interpolation-filters="sRGB">
<feFlood flood-opacity="0" result="BackgroundImageFix"/>
<feColorMatrix in="SourceAlpha" type="matrix" values="0 0 0 0 0 0 0 0 0 0 0 0 0 0 0 0 0 0 127 0" result="hardAlpha"/>
<feOffset dy="4"/>
<feGaussianBlur stdDeviation="2"/>
<feComposite in2="hardAlpha" operator="out"/>
<feColorMatrix type="matrix" values="0 0 0 0 0 0 0 0 0 0 0 0 0 0 0 0 0 0 0.25 0"/>
<feBlend mode="normal" in2="BackgroundImageFix" result="effect1_dropShadow_1_7862"/>
<feBlend mode="normal" in="SourceGraphic" in2="effect1_dropShadow_1_7862" result="shape"/>
</filter>
<filter id="filter5_d_1_7862" x="121.503" y="64.2844" width="102.221" height="104.262" filterUnits="userSpaceOnUse" color-interpolation-filters="sRGB">
<feFlood flood-opacity="0" result="BackgroundImageFix"/>
<feColorMatrix in="SourceAlpha" type="matrix" values="0 0 0 0 0 0 0 0 0 0 0 0 0 0 0 0 0 0 127 0" result="hardAlpha"/>
<feOffset dy="4"/>
<feGaussianBlur stdDeviation="2"/>
<feComposite in2="hardAlpha" operator="out"/>
<feColorMatrix type="matrix" values="0 0 0 0 0 0 0 0 0 0 0 0 0 0 0 0 0 0 0.25 0"/>
<feBlend mode="normal" in2="BackgroundImageFix" result="effect1_dropShadow_1_7862"/>
<feBlend mode="normal" in="SourceGraphic" in2="effect1_dropShadow_1_7862" result="shape"/>
</filter>
<linearGradient id="paint0_linear_1_7862" x1="216.545" y1="95.0988" x2="137.07" y2="114.34" gradientUnits="userSpaceOnUse">
<stop stop-color="white" stop-opacity="0.55"/>
<stop offset="1" stop-color="white" stop-opacity="0"/>
</linearGradient>
</defs>
</svg>
