<svg width="1440" height="900" viewBox="0 0 1440 900" fill="none" xmlns="http://www.w3.org/2000/svg">
<rect x="1" y="736" width="1440" height="165" fill="#88D643"/>
<rect x="3" y="-9" width="1443" height="624" fill="#9ACCFB"/>
<path d="M1394.58 121.124C1394.58 121.124 1394.58 121.124 1394.58 121.077C1394.58 108.309 1384.22 98 1371.5 98C1358.78 98 1348.42 108.356 1348.42 121.077C1348.42 121.077 1348.42 121.077 1348.42 121.124C1340.34 121.786 1334 128.549 1334 136.824V137.155C1334 145.856 1341.05 152.95 1349.79 152.95H1393.3C1402 152.95 1409.09 145.903 1409.09 137.155V136.824C1409.09 128.549 1402.76 121.786 1394.67 121.124H1394.58Z" fill="white"/>
<path d="M1129.47 124.22C1129.47 124.22 1129.47 124.22 1129.47 124.173C1129.47 115.235 1122.23 108 1113.29 108C1104.36 108 1097.12 115.235 1097.12 124.173C1097.12 124.173 1097.12 124.173 1097.12 124.22C1091.45 124.693 1087 129.422 1087 135.238V135.475C1087 141.575 1091.97 146.54 1098.07 146.54H1128.57C1134.67 146.54 1139.63 141.575 1139.63 135.475V135.238C1139.63 129.422 1135.19 124.693 1129.51 124.22H1129.47Z" fill="white"/>
<path d="M859.465 89.1728C859.465 80.2352 852.23 73 843.293 73C834.355 73 827.12 80.2352 827.12 89.1728C821.445 89.6456 817 94.3745 817 100.191V100.427C817 106.528 821.965 111.493 828.066 111.493H858.567C864.667 111.493 869.633 106.528 869.633 100.427V100.191C869.633 94.3745 865.187 89.6456 859.513 89.1728H859.465Z" fill="white"/>
<path d="M419.619 91.8543C419.619 91.8543 419.619 91.8543 419.619 91.8071C419.619 80.3159 410.303 71 398.812 71C387.32 71 378.004 80.3159 378.004 91.8071C378.004 91.8071 378.004 91.807 378.004 91.8543C370.722 92.4691 365 98.5693 365 105.994V106.277C365 114.127 371.337 120.464 379.187 120.464H418.342C426.192 120.464 432.529 114.127 432.529 106.277V105.994C432.529 98.5693 426.807 92.4691 419.524 91.8543H419.619Z" fill="white"/>
<path d="M691.619 149.854C691.619 149.854 691.619 149.854 691.619 149.807C691.619 138.316 682.303 129 670.812 129C659.32 129 650.004 138.316 650.004 149.807C650.004 149.807 650.004 149.807 650.004 149.854C642.722 150.469 637 156.569 637 163.994V164.277C637 172.127 643.337 178.464 651.187 178.464H690.342C698.192 178.464 704.529 172.127 704.529 164.277V163.994C704.529 156.569 698.807 150.469 691.524 149.854H691.619Z" fill="white"/>
<g opacity="0.4">
<path d="M1332.44 230.194H1226.69L1188.1 292.295L1142.51 295.666L1038.9 195.976L881.288 188.372L864.063 266.947L848.91 268.62L832.916 219.625L804.358 220.461L760.713 299.899L728.335 300.735L720.759 290.596L669.796 291.433L658.982 309.176L554.013 174H430.46V211.742L252.9 217.926L199.218 241.6L61.3532 217.926L-8 291.205V510L1449 500.52V271.586L1397.2 285.527L1332.44 230.194Z" fill="#2795D3"/>
<path d="M1327.07 234.402L1308.67 234.833L1318.26 346.79L1220.22 373.506L1189.98 304.106H1132.8L1031.33 205.684L987.358 206.52L1078.27 342.127L945.526 334.751L909.78 282.384L832.916 283.829L827.347 233.996L818.605 225.961L781.759 321.443L728.335 322.28L715.32 296.553L689.223 325.246L655.744 327.349L540.803 183.302L492.237 189.005L554.013 315.943L441.792 256.175L171.697 367.068L173.316 255.541L-8 319.948V510L1449 500.52V315.943L1414.03 324.384L1327.07 234.402Z" fill="#4CAADF"/>
</g>
<path d="M1446 353.697H964.337V734H1446V353.697Z" fill="#5F4933"/>
<path d="M1013.81 353.697H964.337V422.288H1013.81V353.697Z" fill="#886949"/>
<path d="M1234.57 353.697H1162.62V422.288H1234.57V353.697Z" fill="#886949"/>
<path d="M1304.47 353.697H1238.45V422.288H1304.47V353.697Z" fill="#886949"/>
<path d="M1446 353.697H1383.39V422.288H1446V353.697Z" fill="#886949"/>
<path d="M1379.54 353.697H1308.32V422.288H1379.54V353.697Z" fill="#906F4D"/>
<path d="M1158.75 353.697H1092V422.288H1158.75V353.697Z" fill="#74593E"/>
<path d="M1088.16 353.697H1017.69V422.288H1088.16V353.697Z" fill="#906F4D"/>
<g style="mix-blend-mode:multiply">
<path d="M1446 353.697H964.337V408.411H1446V353.697Z" fill="#886949"/>
</g>
<path d="M976.651 426.535H964.337V466.461H976.651V426.535Z" fill="#886949"/>
<path d="M1047.99 426.535H980.493V466.461H1047.99V426.535Z" fill="#886949"/>
<path d="M1128.3 426.535H1051.87V466.461H1128.3V426.535Z" fill="#886949"/>
<path d="M1199.64 426.535H1132.14V466.461H1199.64V426.535Z" fill="#906F4D"/>
<path d="M1341.63 426.535H1272.63V466.461H1341.63V426.535Z" fill="#74593E"/>
<path d="M1446 426.535H1424.28V466.461H1446V426.535Z" fill="#906F4D"/>
<path d="M1420.4 426.535H1345.47V466.461H1420.4V426.535Z" fill="#886949"/>
<path d="M1268.79 426.535H1203.52V466.461H1268.79V426.535Z" fill="#886949"/>
<path d="M1013.81 470.708H964.337V505.742H1013.81V470.708Z" fill="#886949"/>
<path d="M1088.16 470.708H1017.69V505.742H1088.16V470.708Z" fill="#906F4D"/>
<path d="M1158.75 470.708H1092V505.742H1158.75V470.708Z" fill="#886949"/>
<path d="M1234.57 470.708H1162.62V505.742H1234.57V470.708Z" fill="#886949"/>
<path d="M1304.47 470.708H1238.45V505.742H1304.47V470.708Z" fill="#886949"/>
<path d="M1379.55 470.708H1308.32V505.742H1379.55V470.708Z" fill="#886949"/>
<path d="M1446 470.708H1383.39V505.742H1446V470.708Z" fill="#886949"/>
<path d="M976.651 509.951H964.337V546.616H976.651V509.951Z" fill="#886949"/>
<path d="M1047.99 509.951H980.493V546.616H1047.99V509.951Z" fill="#74593E"/>
<path d="M1128.3 509.951H1051.87V546.616H1128.3V509.951Z" fill="#886949"/>
<path d="M1199.64 509.951H1132.14V546.616H1199.64V509.951Z" fill="#886949"/>
<path d="M1341.63 509.951H1272.63V546.616H1341.63V509.951Z" fill="#906F4D"/>
<path d="M1446 509.951H1424.28V546.616H1446V509.951Z" fill="#886949"/>
<path d="M1420.4 509.951H1345.47V546.616H1420.4V509.951Z" fill="#886949"/>
<path d="M1268.79 509.951H1203.52V546.616H1268.79V509.951Z" fill="#886949"/>
<path d="M1013.81 550.863H964.337V586.694H1013.81V550.863Z" fill="#886949"/>
<path d="M1088.16 550.863H1017.69V586.694H1088.16V550.863Z" fill="#886949"/>
<path d="M1158.75 550.863H1092V586.694H1158.75V550.863Z" fill="#886949"/>
<path d="M1234.57 550.863H1162.62V586.694H1234.57V550.863Z" fill="#886949"/>
<path d="M1304.47 550.863H1238.45V586.694H1304.47V550.863Z" fill="#886949"/>
<path d="M1379.55 550.863H1308.32V586.694H1379.55V550.863Z" fill="#886949"/>
<path d="M1446 550.863H1383.39V586.694H1446V550.863Z" fill="#886949"/>
<path d="M976.651 590.941H964.337V634.962H976.651V590.941Z" fill="#886949"/>
<path d="M1047.99 590.941H980.493V634.962H1047.99V590.941Z" fill="#906F4D"/>
<path d="M1128.3 590.941H1051.87V634.962H1128.3V590.941Z" fill="#886949"/>
<path d="M1199.64 590.941H1132.14V634.962H1199.64V590.941Z" fill="#886949"/>
<path d="M1268.79 590.941H1203.52V634.962H1268.79V590.941Z" fill="#886949"/>
<path d="M1341.63 590.941H1272.63V634.962H1341.63V590.941Z" fill="#886949"/>
<path d="M1420.4 590.941H1345.47V634.962H1420.4V590.941Z" fill="#906F4D"/>
<path d="M1446 590.941H1424.28V634.962H1446V590.941Z" fill="#886949"/>
<path d="M1013.81 639.209H964.337V679.969H1013.81V639.209Z" fill="#886949"/>
<path d="M1158.75 639.209H1092V679.969H1158.75V639.209Z" fill="#886949"/>
<path d="M1304.47 639.209H1238.45V679.969H1304.47V639.209Z" fill="#886949"/>
<path d="M1446 639.209H1383.39V679.969H1446V639.209Z" fill="#74593E"/>
<path d="M1379.55 639.209H1308.32V679.969H1379.55V639.209Z" fill="#886949"/>
<path d="M1234.57 639.209H1162.62V679.969H1234.57V639.209Z" fill="#886949"/>
<path d="M1088.16 639.209H1017.69V679.969H1088.16V639.209Z" fill="#886949"/>
<path d="M976.651 684.178H964.337V734H976.651V684.178Z" fill="#886949"/>
<path d="M1047.99 684.178H980.493V734H1047.99V684.178Z" fill="#74593E"/>
<path d="M1128.3 684.178H1051.87V734H1128.3V684.178Z" fill="#886949"/>
<path d="M1268.79 684.178H1203.52V734H1268.79V684.178Z" fill="#886949"/>
<path d="M1420.4 684.178H1345.47V734H1420.4V684.178Z" fill="#886949"/>
<path d="M1446 684.178H1424.28V734H1446V684.178Z" fill="#886949"/>
<path d="M1341.63 684.178H1272.63V734H1341.63V684.178Z" fill="#886949"/>
<path d="M1199.64 684.178H1132.14V734H1199.64V684.178Z" fill="#886949"/>
<g style="mix-blend-mode:multiply" opacity="0.7">
<path d="M999.844 396.353H996.146V733.773H999.844V396.353Z" fill="#626362"/>
</g>
<path d="M996.469 396.353H965.199V733.773H996.469V396.353Z" fill="#886949"/>
<g style="mix-blend-mode:multiply">
<path d="M996.469 396.353H965.199V410.344H996.469V396.353Z" fill="#886949"/>
</g>
<path d="M498.076 353.697H-3.72754V734H498.076V353.697Z" fill="#5F4933"/>
<path d="M47.8279 353.697H-3.72754V422.288H47.8279V353.697Z" fill="#886949"/>
<path d="M277.817 353.697H202.854V422.288H277.817V353.697Z" fill="#886949"/>
<path d="M350.662 353.697H281.874V422.288H350.662V353.697Z" fill="#886949"/>
<path d="M498.112 353.697H432.878V422.288H498.112V353.697Z" fill="#886949"/>
<path d="M428.857 353.697H354.647V422.288H428.857V353.697Z" fill="#906F4D"/>
<path d="M198.832 353.697H129.29V422.288H198.832V353.697Z" fill="#74593E"/>
<path d="M125.269 353.697H51.8489V422.288H125.269V353.697Z" fill="#906F4D"/>
<g style="mix-blend-mode:multiply">
<path d="M498.076 353.697H-3.72754V408.411H498.076V353.697Z" fill="#886949"/>
</g>
<path d="M9.08952 426.535H-3.72754V466.461H9.08952V426.535Z" fill="#886949"/>
<path d="M83.4426 426.535H13.1104V466.461H83.4426V426.535Z" fill="#886949"/>
<path d="M167.095 426.535H87.4639V466.461H167.095V426.535Z" fill="#886949"/>
<path d="M241.448 426.535H171.116V466.461H241.448V426.535Z" fill="#906F4D"/>
<path d="M389.365 426.535H317.489V466.461H389.365V426.535Z" fill="#74593E"/>
<path d="M498.076 426.535H475.458V466.461H498.076V426.535Z" fill="#906F4D"/>
<path d="M471.473 426.535H393.386V466.461H471.473V426.535Z" fill="#886949"/>
<path d="M313.468 426.535H245.469V466.461H313.468V426.535Z" fill="#886949"/>
<path d="M47.8279 470.708H-3.72754V505.742H47.8279V470.708Z" fill="#886949"/>
<path d="M125.269 470.708H51.8491V505.742H125.269V470.708Z" fill="#906F4D"/>
<path d="M198.832 470.708H129.29V505.742H198.832V470.708Z" fill="#886949"/>
<path d="M277.817 470.708H202.854V505.742H277.817V470.708Z" fill="#886949"/>
<path d="M350.663 470.708H281.874V505.742H350.663V470.708Z" fill="#886949"/>
<path d="M428.857 470.708H354.647V505.742H428.857V470.708Z" fill="#886949"/>
<path d="M498.112 470.708H432.878V505.742H498.112V470.708Z" fill="#886949"/>
<path d="M9.08952 509.951H-3.72754V546.616H9.08952V509.951Z" fill="#886949"/>
<path d="M83.4426 509.951H13.1104V546.616H83.4426V509.951Z" fill="#74593E"/>
<path d="M167.095 509.951H87.4639V546.616H167.095V509.951Z" fill="#886949"/>
<path d="M241.448 509.951H171.116V546.616H241.448V509.951Z" fill="#886949"/>
<path d="M389.365 509.951H317.489V546.616H389.365V509.951Z" fill="#906F4D"/>
<path d="M498.076 509.951H475.458V546.616H498.076V509.951Z" fill="#886949"/>
<path d="M471.473 509.951H393.386V546.616H471.473V509.951Z" fill="#886949"/>
<path d="M313.468 509.951H245.469V546.616H313.468V509.951Z" fill="#886949"/>
<path d="M47.8279 550.863H-3.72754V586.694H47.8279V550.863Z" fill="#886949"/>
<path d="M125.269 550.863H51.8491V586.694H125.269V550.863Z" fill="#886949"/>
<path d="M198.832 550.863H129.29V586.694H198.832V550.863Z" fill="#886949"/>
<path d="M277.817 550.863H202.854V586.694H277.817V550.863Z" fill="#886949"/>
<path d="M350.663 550.863H281.874V586.694H350.663V550.863Z" fill="#886949"/>
<path d="M428.857 550.863H354.647V586.694H428.857V550.863Z" fill="#886949"/>
<path d="M498.112 550.863H432.878V586.694H498.112V550.863Z" fill="#886949"/>
<path d="M9.08952 590.941H-3.72754V634.962H9.08952V590.941Z" fill="#886949"/>
<path d="M83.4426 590.941H13.1104V634.962H83.4426V590.941Z" fill="#906F4D"/>
<path d="M167.095 590.941H87.4639V634.962H167.095V590.941Z" fill="#886949"/>
<path d="M241.448 590.941H171.116V634.962H241.448V590.941Z" fill="#886949"/>
<path d="M313.468 590.941H245.469V634.962H313.468V590.941Z" fill="#886949"/>
<path d="M389.365 590.941H317.489V634.962H389.365V590.941Z" fill="#886949"/>
<path d="M471.473 590.941H393.386V634.962H471.473V590.941Z" fill="#906F4D"/>
<path d="M498.076 590.941H475.458V634.962H498.076V590.941Z" fill="#886949"/>
<path d="M47.8279 639.209H-3.72754V679.969H47.8279V639.209Z" fill="#886949"/>
<path d="M198.832 639.209H129.29V679.969H198.832V639.209Z" fill="#886949"/>
<path d="M350.663 639.209H281.874V679.969H350.663V639.209Z" fill="#886949"/>
<path d="M498.112 639.209H432.878V679.969H498.112V639.209Z" fill="#74593E"/>
<path d="M428.857 639.209H354.647V679.969H428.857V639.209Z" fill="#886949"/>
<path d="M277.817 639.209H202.854V679.969H277.817V639.209Z" fill="#886949"/>
<path d="M125.269 639.209H51.8491V679.969H125.269V639.209Z" fill="#886949"/>
<path d="M9.08952 684.178H-3.72754V734H9.08952V684.178Z" fill="#886949"/>
<path d="M83.4426 684.178H13.1104V734H83.4426V684.178Z" fill="#74593E"/>
<path d="M167.095 684.178H87.4639V734H167.095V684.178Z" fill="#886949"/>
<path d="M313.468 684.178H245.469V734H313.468V684.178Z" fill="#886949"/>
<path d="M471.473 684.178H393.386V734H471.473V684.178Z" fill="#886949"/>
<path d="M498.076 684.178H475.458V734H498.076V684.178Z" fill="#886949"/>
<path d="M389.365 684.178H317.489V734H389.365V684.178Z" fill="#886949"/>
<path d="M241.448 684.178H171.116V734H241.448V684.178Z" fill="#886949"/>
<path d="M997.188 353.697H495.384V734H997.188V353.697Z" fill="#5F4933"/>
<path d="M546.939 353.697H495.384V422.288H546.939V353.697Z" fill="#886949"/>
<path d="M776.928 353.697H701.965V422.288H776.928V353.697Z" fill="#886949"/>
<path d="M849.738 353.697H780.949V422.288H849.738V353.697Z" fill="#886949"/>
<path d="M997.188 353.697H931.954V422.288H997.188V353.697Z" fill="#886949"/>
<path d="M927.969 353.697H853.759V422.288H927.969V353.697Z" fill="#906F4D"/>
<path d="M697.944 353.697H628.401V422.288H697.944V353.697Z" fill="#74593E"/>
<path d="M624.38 353.697H550.96V422.288H624.38V353.697Z" fill="#906F4D"/>
<g style="mix-blend-mode:multiply">
<path d="M997.188 353.697H495.384V408.411H997.188V353.697Z" fill="#886949"/>
</g>
<path d="M508.201 426.535H495.384V466.461H508.201V426.535Z" fill="#886949"/>
<path d="M582.554 426.535H512.222V466.461H582.554V426.535Z" fill="#886949"/>
<path d="M666.206 426.535H586.575V466.461H666.206V426.535Z" fill="#886949"/>
<path d="M740.523 426.535H670.191V466.461H740.523V426.535Z" fill="#906F4D"/>
<path d="M888.44 426.535H816.564V466.461H888.44V426.535Z" fill="#74593E"/>
<path d="M997.188 426.535H974.569V466.461H997.188V426.535Z" fill="#906F4D"/>
<path d="M970.549 426.535H892.461V466.461H970.549V426.535Z" fill="#886949"/>
<path d="M812.543 426.535H744.544V466.461H812.543V426.535Z" fill="#886949"/>
<path d="M546.939 470.708H495.384V505.742H546.939V470.708Z" fill="#886949"/>
<path d="M624.38 470.708H550.96V505.742H624.38V470.708Z" fill="#906F4D"/>
<path d="M697.943 470.708H628.401V505.742H697.943V470.708Z" fill="#886949"/>
<path d="M776.928 470.708H701.964V505.742H776.928V470.708Z" fill="#886949"/>
<path d="M849.738 470.708H780.949V505.742H849.738V470.708Z" fill="#886949"/>
<path d="M927.969 470.708H853.759V505.742H927.969V470.708Z" fill="#886949"/>
<path d="M997.188 470.708H931.954V505.742H997.188V470.708Z" fill="#886949"/>
<path d="M508.201 509.951H495.384V546.616H508.201V509.951Z" fill="#886949"/>
<path d="M582.554 509.951H512.222V546.616H582.554V509.951Z" fill="#74593E"/>
<path d="M666.206 509.951H586.575V546.616H666.206V509.951Z" fill="#886949"/>
<path d="M740.523 509.951H670.191V546.616H740.523V509.951Z" fill="#886949"/>
<path d="M888.44 509.951H816.564V546.616H888.44V509.951Z" fill="#906F4D"/>
<path d="M997.188 509.951H974.569V546.616H997.188V509.951Z" fill="#886949"/>
<path d="M970.549 509.951H892.461V546.616H970.549V509.951Z" fill="#886949"/>
<path d="M812.543 509.951H744.544V546.616H812.543V509.951Z" fill="#886949"/>
<path d="M546.939 550.863H495.384V586.694H546.939V550.863Z" fill="#886949"/>
<path d="M624.38 550.863H550.96V586.694H624.38V550.863Z" fill="#886949"/>
<path d="M697.943 550.863H628.401V586.694H697.943V550.863Z" fill="#886949"/>
<path d="M776.928 550.863H701.964V586.694H776.928V550.863Z" fill="#886949"/>
<path d="M849.738 550.863H780.949V586.694H849.738V550.863Z" fill="#886949"/>
<path d="M927.969 550.863H853.759V586.694H927.969V550.863Z" fill="#886949"/>
<path d="M997.188 550.863H931.954V586.694H997.188V550.863Z" fill="#886949"/>
<path d="M508.201 590.941H495.384V634.962H508.201V590.941Z" fill="#886949"/>
<path d="M582.554 590.941H512.222V634.962H582.554V590.941Z" fill="#906F4D"/>
<path d="M666.206 590.941H586.575V634.962H666.206V590.941Z" fill="#886949"/>
<path d="M740.523 590.941H670.191V634.962H740.523V590.941Z" fill="#886949"/>
<path d="M812.543 590.941H744.544V634.962H812.543V590.941Z" fill="#886949"/>
<path d="M888.44 590.941H816.564V634.962H888.44V590.941Z" fill="#886949"/>
<path d="M970.549 590.941H892.461V634.962H970.549V590.941Z" fill="#906F4D"/>
<path d="M997.188 590.941H974.569V634.962H997.188V590.941Z" fill="#886949"/>
<path d="M546.939 639.209H495.384V679.969H546.939V639.209Z" fill="#886949"/>
<path d="M697.943 639.209H628.401V679.969H697.943V639.209Z" fill="#886949"/>
<path d="M849.738 639.209H780.949V679.969H849.738V639.209Z" fill="#886949"/>
<path d="M997.188 639.209H931.954V679.969H997.188V639.209Z" fill="#74593E"/>
<path d="M927.969 639.209H853.759V679.969H927.969V639.209Z" fill="#886949"/>
<path d="M776.928 639.209H701.964V679.969H776.928V639.209Z" fill="#886949"/>
<path d="M624.38 639.209H550.96V679.969H624.38V639.209Z" fill="#886949"/>
<path d="M508.201 684.178H495.384V734H508.201V684.178Z" fill="#886949"/>
<path d="M582.554 684.178H512.222V734H582.554V684.178Z" fill="#74593E"/>
<path d="M666.206 684.178H586.575V734H666.206V684.178Z" fill="#886949"/>
<path d="M812.543 684.178H744.544V734H812.543V684.178Z" fill="#886949"/>
<path d="M970.549 684.178H892.461V734H970.549V684.178Z" fill="#886949"/>
<path d="M997.188 684.178H974.569V734H997.188V684.178Z" fill="#886949"/>
<path d="M888.44 684.178H816.564V734H888.44V684.178Z" fill="#886949"/>
<path d="M740.523 684.178H670.191V734H740.523V684.178Z" fill="#886949"/>
<g style="mix-blend-mode:multiply" opacity="0.7">
<path d="M2.19627 396.353H-4.26611V733.773H2.19627V396.353Z" fill="#5F4933"/>
</g>
<g style="mix-blend-mode:multiply" opacity="0.7">
<path d="M62.7273 396.353H56.2649V733.773H62.7273V396.353Z" fill="#626362"/>
</g>
<path d="M56.7675 396.353H2.19629V733.773H56.7675V396.353Z" fill="#886949"/>
<path d="M30.9539 396.353H2.19629V733.773H30.9539V396.353Z" fill="#987552"/>
<g style="mix-blend-mode:multiply">
<path d="M56.7675 396.353H2.19629V410.344H56.7675V396.353Z" fill="#886949"/>
</g>
<g style="mix-blend-mode:multiply" opacity="0.7">
<path d="M936.585 396.353H930.123V733.773H936.585V396.353Z" fill="#5F4933"/>
</g>
<g style="mix-blend-mode:multiply" opacity="0.7">
<path d="M997.116 396.353H990.654V733.773H997.116V396.353Z" fill="#626362"/>
</g>
<path d="M991.156 396.353H936.585V733.773H991.156V396.353Z" fill="#886949"/>
<path d="M965.307 396.353H936.585V733.773H965.307V396.353Z" fill="#987552"/>
<g style="mix-blend-mode:multiply">
<path d="M991.156 396.353H936.585V410.344H991.156V396.353Z" fill="#886949"/>
</g>
<g style="mix-blend-mode:multiply" opacity="0.7">
<path d="M469.426 396.353H462.964V733.773H469.426V396.353Z" fill="#5F4933"/>
</g>
<g style="mix-blend-mode:multiply" opacity="0.7">
<path d="M529.957 396.353H523.495V733.773H529.957V396.353Z" fill="#626362"/>
</g>
<path d="M523.997 396.353H469.426V733.773H523.997V396.353Z" fill="#886949"/>
<path d="M498.184 396.353H469.426V733.773H498.184V396.353Z" fill="#987552"/>
<g style="mix-blend-mode:multiply">
<path d="M523.997 396.353H469.426V410.344H523.997V396.353Z" fill="#886949"/>
</g>
<path d="M1000.92 346H-8V397.642H1000.92V346Z" fill="#886949"/>
<path opacity="0.4" d="M1000.92 372.162H-8V397.642H1000.92V372.162Z" fill="#453525"/>
<g style="mix-blend-mode:screen">
<path d="M1000.92 346H-8V354.304H1000.92V346Z" fill="#886949"/>
</g>
<path d="M1446 346H961.429V397.642H1446V346Z" fill="#886949"/>
<path opacity="0.4" d="M1446 372.162H961.429V397.642H1446V372.162Z" fill="#453525"/>
<g style="mix-blend-mode:screen">
<path d="M1446 346H961.429V354.304H1446V346Z" fill="#886949"/>
</g>
<path d="M263.023 801.055C264.123 801.285 265.123 801.875 266.183 802.245C268.183 802.955 272.543 803.205 273.683 800.865C275.373 797.405 270.363 798.105 268.673 797.815C266.213 797.385 264.693 794.795 262.343 793.965C259.473 792.955 255.683 794.655 253.543 792.485C252.753 791.685 252.423 790.535 251.713 789.655C250.393 788.035 248.063 787.715 246.293 786.615C244.513 785.505 243.363 783.635 241.843 782.195C240.323 780.755 237.983 779.725 236.153 780.755C235.493 781.125 234.953 781.825 235.003 782.575C235.033 783.075 235.313 783.515 235.573 783.935C236.273 785.035 236.973 786.145 237.663 787.245C239.753 790.545 241.983 793.985 245.403 795.885C247.693 797.155 250.403 797.675 252.403 799.355C252.983 799.845 253.493 800.425 254.143 800.825C256.713 802.385 260.063 800.425 263.013 801.045L263.023 801.055Z" fill="#ABD855" fill-opacity="0.45" style="mix-blend-mode:multiply"/>
<path d="M265.573 790.065C267.303 790.085 269.633 787.795 270.413 786.415C270.753 785.815 270.973 785.145 271.193 784.485C271.543 783.415 271.893 782.355 272.243 781.285C272.563 780.305 272.893 779.295 272.793 778.275C272.693 777.255 272.053 776.205 271.063 775.965C270.063 775.725 269.053 776.345 268.313 777.075C267.573 777.805 266.953 778.675 266.053 779.165C265.493 779.465 264.873 779.605 264.283 779.835C262.703 780.455 261.483 781.725 260.313 782.955C259.973 783.315 259.603 783.725 259.583 784.225C259.563 784.725 259.883 785.175 260.203 785.555C261.373 786.985 263.543 790.025 265.583 790.055L265.573 790.065Z" fill="#ABD855" fill-opacity="0.45" style="mix-blend-mode:multiply"/>
<path d="M281.364 784.735C281.594 784.375 281.834 783.975 281.774 783.545C281.654 782.815 280.754 782.545 280.014 782.485C279.094 782.405 278.144 782.415 277.294 782.755C276.434 783.095 275.684 783.825 275.544 784.725C275.444 785.375 275.664 786.035 275.844 786.665C276.244 788.005 276.174 791.755 277.014 792.725C277.904 793.755 280.604 793.805 281.824 793.685C282.254 793.645 282.744 793.525 282.924 793.125C283.014 792.935 283.004 792.715 282.974 792.505C282.784 790.765 281.714 789.145 280.194 788.275C280.034 788.185 279.864 788.095 279.774 787.935C279.574 787.615 279.774 787.205 279.984 786.895C280.444 786.175 280.914 785.455 281.374 784.735H281.364Z" fill="#ABD855" fill-opacity="0.45" style="mix-blend-mode:multiply"/>
<path d="M279.914 765.165C279.514 765.015 279.074 764.915 278.794 764.595C278.504 764.265 278.474 763.785 278.454 763.355C278.404 762.305 278.314 761.235 277.924 760.255C277.524 759.275 276.774 758.395 275.764 758.095C274.754 757.795 273.513 758.215 273.083 759.185C272.823 759.785 272.894 760.465 273.024 761.105C273.144 761.715 273.324 762.325 273.634 762.865C274.104 763.695 274.884 764.335 275.304 765.185C276.394 767.395 274.944 770.515 276.664 772.275C278.354 774.005 285.044 776.015 284.884 771.745C284.834 770.405 283.994 769.225 283.194 768.155C282.304 766.955 281.334 765.695 279.924 765.175L279.914 765.165Z" fill="#ABD855" fill-opacity="0.45" style="mix-blend-mode:multiply"/>
<path d="M302.043 789.455C300.353 788.855 299.483 786.875 297.823 786.205C297.033 785.885 296.143 785.905 295.293 785.935C294.823 785.945 294.273 786.005 294.013 786.395C293.803 786.725 293.883 787.155 293.963 787.535C294.513 790.005 295.273 792.755 297.493 793.975C299.063 794.835 301.013 794.635 302.563 795.535C304.133 796.445 304.563 797.845 305.363 799.345C307.183 802.765 309.133 801.285 312.193 799.825C314.093 798.925 316.273 798.615 318.343 798.975C318.763 799.045 319.223 799.135 319.583 798.915C320.083 798.605 320.093 797.885 320.033 797.295C319.873 795.565 319.683 793.775 318.773 792.295C317.443 790.125 314.803 789.065 312.273 788.875C309.733 788.685 307.213 789.235 304.693 789.565C303.813 789.685 302.893 789.765 302.053 789.465L302.043 789.455Z" fill="#ABD855" fill-opacity="0.45" style="mix-blend-mode:multiply"/>
<path d="M283.323 799.085C283.053 799.335 282.783 799.665 282.823 800.035C282.883 800.605 283.583 800.825 284.153 800.875C285.853 801.035 287.593 800.895 289.243 800.445C289.933 800.255 290.683 799.965 290.993 799.315C291.303 798.665 290.733 797.685 290.053 797.905L289.793 797.435C287.543 796.865 285.023 797.505 283.323 799.085Z" fill="#ABD855" fill-opacity="0.45" style="mix-blend-mode:multiply"/>
<path d="M318.583 830.355C316.933 825.995 316.863 821.185 315.603 816.695C314.343 812.205 311.273 807.635 306.663 806.945C306.913 810.105 306.333 814.365 303.193 814.765C298.873 815.315 297.673 807.665 293.363 807.095C291.103 806.795 289.173 808.635 286.983 809.265C283.353 810.295 279.403 807.905 275.763 808.905C272.673 809.755 270.763 812.765 269.153 815.535C266.523 820.065 263.883 824.585 261.253 829.115C260.133 831.035 258.993 833.015 258.613 835.215C258.243 837.405 258.783 839.905 260.533 841.275C263.113 843.305 266.823 842.145 269.973 841.255C275.463 839.705 284.503 837.475 288.883 842.215C293.193 846.885 293.913 853.435 300.953 855.475C303.443 856.195 306.123 856.025 308.643 855.405C316.453 853.495 323.403 845.795 321.633 837.955C321.033 835.285 319.533 832.925 318.563 830.365L318.583 830.355Z" fill="#ABD855" fill-opacity="0.45" style="mix-blend-mode:multiply"/>
<path d="M1064.02 782.055C1065.12 782.285 1066.12 782.875 1067.18 783.245C1069.18 783.955 1073.54 784.205 1074.68 781.865C1076.37 778.405 1071.36 779.105 1069.67 778.815C1067.21 778.385 1065.69 775.795 1063.34 774.965C1060.47 773.955 1056.68 775.655 1054.54 773.485C1053.75 772.685 1053.42 771.535 1052.71 770.655C1051.39 769.035 1049.06 768.715 1047.29 767.615C1045.51 766.505 1044.36 764.635 1042.84 763.195C1041.32 761.755 1038.98 760.725 1037.15 761.755C1036.49 762.125 1035.95 762.825 1036 763.575C1036.03 764.075 1036.31 764.515 1036.57 764.935C1037.27 766.035 1037.97 767.145 1038.66 768.245C1040.75 771.545 1042.98 774.985 1046.4 776.885C1048.69 778.155 1051.4 778.675 1053.4 780.355C1053.98 780.845 1054.49 781.425 1055.14 781.825C1057.71 783.385 1061.06 781.425 1064.01 782.045L1064.02 782.055Z" fill="#ABD855" fill-opacity="0.45" style="mix-blend-mode:multiply"/>
<path d="M1066.57 771.065C1068.3 771.085 1070.63 768.795 1071.41 767.415C1071.75 766.815 1071.97 766.145 1072.19 765.485C1072.54 764.415 1072.89 763.355 1073.24 762.285C1073.56 761.305 1073.89 760.295 1073.79 759.275C1073.69 758.255 1073.05 757.205 1072.06 756.965C1071.06 756.725 1070.05 757.345 1069.31 758.075C1068.57 758.805 1067.95 759.675 1067.05 760.165C1066.49 760.465 1065.87 760.605 1065.28 760.835C1063.7 761.455 1062.48 762.725 1061.31 763.955C1060.97 764.315 1060.6 764.725 1060.58 765.225C1060.56 765.725 1060.88 766.175 1061.2 766.555C1062.37 767.985 1064.54 771.025 1066.58 771.055L1066.57 771.065Z" fill="#ABD855" fill-opacity="0.45" style="mix-blend-mode:multiply"/>
<path d="M1082.36 765.735C1082.59 765.375 1082.83 764.975 1082.77 764.545C1082.65 763.815 1081.75 763.545 1081.01 763.485C1080.09 763.405 1079.14 763.415 1078.29 763.755C1077.43 764.095 1076.68 764.825 1076.54 765.725C1076.44 766.375 1076.66 767.035 1076.84 767.665C1077.24 769.005 1077.17 772.755 1078.01 773.725C1078.9 774.755 1081.6 774.805 1082.82 774.685C1083.25 774.645 1083.74 774.525 1083.92 774.125C1084.01 773.935 1084 773.715 1083.97 773.505C1083.78 771.765 1082.71 770.145 1081.19 769.275C1081.03 769.185 1080.86 769.095 1080.77 768.935C1080.57 768.615 1080.77 768.205 1080.98 767.895C1081.44 767.175 1081.91 766.455 1082.37 765.735H1082.36Z" fill="#ABD855" fill-opacity="0.45" style="mix-blend-mode:multiply"/>
<path d="M1080.91 746.165C1080.51 746.015 1080.07 745.915 1079.79 745.595C1079.5 745.265 1079.47 744.785 1079.45 744.355C1079.4 743.305 1079.31 742.235 1078.92 741.255C1078.52 740.275 1077.77 739.395 1076.76 739.095C1075.75 738.795 1074.51 739.215 1074.08 740.185C1073.82 740.785 1073.89 741.465 1074.02 742.105C1074.14 742.715 1074.32 743.325 1074.63 743.865C1075.1 744.695 1075.88 745.335 1076.3 746.185C1077.39 748.395 1075.94 751.515 1077.66 753.275C1079.35 755.005 1086.04 757.015 1085.88 752.745C1085.83 751.405 1084.99 750.225 1084.19 749.155C1083.3 747.955 1082.33 746.695 1080.92 746.175L1080.91 746.165Z" fill="#ABD855" fill-opacity="0.45" style="mix-blend-mode:multiply"/>
<path d="M1103.04 770.455C1101.35 769.855 1100.48 767.875 1098.82 767.205C1098.03 766.885 1097.14 766.905 1096.29 766.935C1095.82 766.945 1095.27 767.005 1095.01 767.395C1094.8 767.725 1094.88 768.155 1094.96 768.535C1095.51 771.005 1096.27 773.755 1098.49 774.975C1100.06 775.835 1102.01 775.635 1103.56 776.535C1105.13 777.445 1105.56 778.845 1106.36 780.345C1108.18 783.765 1110.13 782.285 1113.19 780.825C1115.09 779.925 1117.27 779.615 1119.34 779.975C1119.76 780.045 1120.22 780.135 1120.58 779.915C1121.08 779.605 1121.09 778.885 1121.03 778.295C1120.87 776.565 1120.68 774.775 1119.77 773.295C1118.44 771.125 1115.8 770.065 1113.27 769.875C1110.73 769.685 1108.21 770.235 1105.69 770.565C1104.81 770.685 1103.89 770.765 1103.05 770.465L1103.04 770.455Z" fill="#ABD855" fill-opacity="0.45" style="mix-blend-mode:multiply"/>
<path d="M1084.32 780.085C1084.05 780.335 1083.78 780.665 1083.82 781.035C1083.88 781.605 1084.58 781.825 1085.15 781.875C1086.85 782.035 1088.59 781.895 1090.24 781.445C1090.93 781.255 1091.68 780.965 1091.99 780.315C1092.3 779.665 1091.73 778.685 1091.05 778.905L1090.79 778.435C1088.54 777.865 1086.02 778.505 1084.32 780.085Z" fill="#ABD855" fill-opacity="0.45" style="mix-blend-mode:multiply"/>
<path d="M1119.58 811.355C1117.93 806.995 1117.86 802.185 1116.6 797.695C1115.34 793.205 1112.27 788.635 1107.66 787.945C1107.91 791.105 1107.33 795.365 1104.19 795.765C1099.87 796.315 1098.67 788.665 1094.36 788.095C1092.1 787.795 1090.17 789.635 1087.98 790.265C1084.35 791.295 1080.4 788.905 1076.76 789.905C1073.67 790.755 1071.76 793.765 1070.15 796.535C1067.52 801.065 1064.88 805.585 1062.25 810.115C1061.13 812.035 1059.99 814.015 1059.61 816.215C1059.24 818.405 1059.78 820.905 1061.53 822.275C1064.11 824.305 1067.82 823.145 1070.97 822.255C1076.46 820.705 1085.5 818.475 1089.88 823.215C1094.19 827.885 1094.91 834.435 1101.95 836.475C1104.44 837.195 1107.12 837.025 1109.64 836.405C1117.45 834.495 1124.4 826.795 1122.63 818.955C1122.03 816.285 1120.53 813.925 1119.56 811.365L1119.58 811.355Z" fill="#ABD855" fill-opacity="0.45" style="mix-blend-mode:multiply"/>
<path d="M524.851 740.922C523.092 739.545 520.829 738.953 518.6 738.758C515.149 738.456 511.631 739.041 508.462 740.445C506.595 741.272 504.803 742.387 502.775 742.629C501.103 742.831 499.425 742.407 497.76 742.138C489.421 740.808 480.706 743.657 474.65 749.544C471.796 747.736 469.675 744.726 466.479 743.65C464.169 742.871 461.618 743.241 459.288 743.973C458.16 744.329 457.032 744.773 455.85 744.753C454.669 744.732 453.4 744.101 453.064 742.972C452.842 742.219 453.064 741.419 453.111 740.633C453.252 738.476 451.936 736.305 449.962 735.432C447.988 734.558 445.497 735.042 443.993 736.594C443.12 737.495 442.597 738.671 441.858 739.686C440.77 741.171 439.246 742.266 437.87 743.489C432.646 748.139 429.491 754.792 424.153 759.315C420.642 762.292 416.405 764.523 416.049 769.113C413.229 767.789 409.577 768.548 407.516 770.88C406.596 771.915 405.985 773.205 404.984 774.166C403.991 775.127 402.359 775.678 401.224 774.885C399.405 773.602 400.674 770.732 400.224 768.548C399.573 765.403 395.497 764.436 392.308 764.825C383.197 765.941 375.18 773.266 373.24 782.244C373.019 783.265 372.891 784.414 373.482 785.275C373.985 786.007 374.878 786.343 375.711 786.632C377.463 787.244 379.276 787.869 381.122 787.721C382.969 787.573 384.876 786.451 385.325 784.65C385.614 783.5 385.325 782.123 386.131 781.243C387.252 780.013 389.522 781.128 389.891 782.755C390.26 784.374 389.408 786.007 388.508 787.412C385.601 791.954 380.827 796.396 375.543 795.335C372.985 794.817 370.823 793.063 368.292 792.438C365.754 791.813 362.323 793.204 362.477 795.812C362.571 797.418 363.981 798.587 364.666 800.039C365.693 802.209 364.989 804.89 363.532 806.799C362.075 808.714 360.611 811.08 358.281 811.671C357.522 811.866 357.24 812.881 357.549 813.593C357.851 814.312 358.543 814.782 359.214 815.172C361.88 816.738 365.66 817.638 367.775 815.38C369.057 814.016 369.239 811.94 370.279 810.381C371.266 808.909 373.052 808.002 374.818 808.076C375.791 808.116 376.785 808.459 377.43 809.185C378.289 810.159 378.37 811.57 378.605 812.847C378.846 814.124 379.491 815.555 380.767 815.817C382.626 816.2 383.855 813.909 385.581 813.102C387.165 812.363 389.126 813.008 390.401 814.204C391.677 815.401 392.422 817.047 393.121 818.66C396.511 818.801 400.117 819.614 403.151 821.126C402.97 825.326 404.34 829.58 406.938 832.886C408.174 834.459 409.671 835.816 410.826 837.449C412.289 839.519 413.155 842.012 413.31 844.546C412.988 844.411 412.659 844.277 412.33 844.149C411.732 843.914 411.128 843.692 410.591 843.336C409.738 842.771 409.127 841.905 408.57 841.044C405.669 836.623 403.346 831.771 399.734 827.913C397.747 825.797 395.383 824.002 392.711 822.867C390.636 821.986 388.421 821.516 386.212 821.045C382.7 820.3 379.142 819.554 375.563 819.796C371.293 820.085 367.211 821.771 362.941 822.047C360.114 822.228 356.851 821.939 354.904 823.996C353.957 824.997 353.541 826.368 353.152 827.685C352.614 829.506 352.077 831.32 351.54 833.142C350.218 837.617 348.962 842.698 351.332 846.716C352.561 848.799 354.622 850.264 356.797 851.319C359.094 852.428 361.725 853.147 364.19 852.495C365.7 852.092 367.03 851.212 368.46 850.594C369.89 849.975 371.588 849.633 372.985 850.325C374.207 849.895 375.429 852.092 375.691 853.362C375.953 854.632 375.798 856.03 376.463 857.139C377.175 858.322 378.645 858.866 379.363 860.042C380.585 862.038 379.081 864.618 379.41 866.93C379.578 868.133 380.243 869.202 380.78 870.297C383.405 875.599 383.345 881.923 385.997 887.211C386.5 888.219 387.158 889.227 388.179 889.691C389.106 890.114 390.18 890.014 391.194 889.906C393.074 889.704 394.987 889.496 396.739 888.777C398.492 888.058 400.09 886.748 400.721 884.96C401.07 883.959 401.11 882.837 401.668 881.929C402.279 880.935 403.393 880.39 404.393 879.792C406.126 878.744 407.663 877.366 408.892 875.76C409.16 875.411 409.416 875.035 409.55 874.611C409.684 874.188 409.677 873.731 409.677 873.287C409.664 870.834 408.657 867.656 409.778 865.479C411.49 862.159 413.84 859.162 416.66 856.716C417.768 855.755 418.963 854.861 419.829 853.678C420.689 852.489 421.179 850.916 420.668 849.539C420.178 848.221 418.916 847.381 417.687 846.689C416.385 845.957 415.049 845.292 413.672 844.7C414.679 842.926 416.6 841.73 418.594 841.199C420.843 840.601 423.213 840.715 425.536 840.836C425.717 838.854 425.899 836.824 425.348 834.916C424.798 833.007 423.334 831.226 421.373 830.904C424.086 830.736 426.805 830.696 429.524 830.79C430.827 830.837 432.176 830.917 433.345 831.515C434.345 832.026 435.124 832.88 436.091 833.457C438.051 834.627 440.475 834.506 442.751 834.66C445.027 834.808 447.572 835.46 448.673 837.463C450.217 840.258 448.485 844.821 451.318 846.286C453.151 847.234 455.4 845.748 456.381 843.927C457.361 842.106 457.616 839.962 458.61 838.155C459.61 836.347 461.974 834.304 463.773 835.305C464.431 839.586 466.955 843.544 470.561 845.943C471.078 846.286 471.642 846.629 471.904 847.187C472.407 848.248 471.608 849.498 471.756 850.668C472.018 852.724 474.73 853.235 476.805 853.221C477.329 853.221 477.893 853.201 478.295 852.872C479.249 852.106 478.51 850.54 477.557 849.767C476.61 848.994 475.368 848.188 475.415 846.965C476.986 847.119 478.477 847.764 480.048 847.899C481.619 848.033 483.452 847.455 484.009 845.977C484.754 843.988 482.801 842.019 482.572 839.909C482.364 838 483.62 836.213 485.104 834.996C486.587 833.78 488.346 832.906 489.75 831.596C492.321 829.204 493.449 825.36 492.583 821.959C491.965 819.533 490.435 816.953 491.562 814.722C492.852 812.182 496.504 812.242 499.23 813.062C500.828 813.539 502.768 814.077 503.984 812.934C504.527 812.424 504.783 811.671 504.944 810.939C506.031 806.006 504.044 800.267 506.951 796.134C508.18 794.387 510.261 792.902 510.14 790.772C510.006 788.473 507.441 787.284 505.447 786.128C502.876 784.636 500.613 782.204 500.291 779.247C499.875 775.443 503.232 771.559 507.052 771.666C507.636 770.013 508.267 768.293 509.55 767.09C510.825 765.887 512.967 765.403 514.337 766.492C515.21 767.191 515.585 768.333 515.847 769.422C516.304 771.33 516.566 773.279 516.619 775.242C516.666 776.901 516.807 778.958 518.332 779.623C519.6 780.174 521.118 779.274 521.749 778.044C522.38 776.814 522.367 775.362 522.373 773.978C522.42 765.195 523.898 756.425 526.744 748.119C527.469 746.002 526.597 742.293 524.831 740.915L524.851 740.922Z" fill="#ABD855" fill-opacity="0.45" style="mix-blend-mode:multiply"/>
<path d="M729.83 860.26C732.45 859.49 742.91 859.61 741.17 854.44C740.89 853.61 740.17 853.02 739.42 852.58C736.52 850.88 732.95 850.8 729.61 851.2C727.6 851.44 725.51 851.87 723.93 853.14C722.35 854.41 721.45 856.73 722.37 858.54C723.63 861.01 727.17 861.04 729.83 860.26Z" fill="#ABD855" fill-opacity="0.45" style="mix-blend-mode:multiply"/>
<path d="M506.27 866.16C504.02 869.97 501.77 873.78 499.52 877.59C497.19 881.54 494.83 885.55 493.71 889.99C495.07 890.66 496.73 890.42 498.08 889.74C499.43 889.06 500.53 887.98 501.61 886.92C505.05 883.54 508.49 880.16 511.93 876.78C514.57 874.19 517.39 871.19 517.43 867.49C517.44 866.49 517.22 865.45 516.62 864.66C513.95 861.16 508.13 863.01 506.27 866.16Z" fill="#ABD855" fill-opacity="0.45" style="mix-blend-mode:multiply"/>
<path d="M809.558 867.271C811.498 867.691 813.158 865.921 814.358 864.341C815.538 862.781 816.718 861.221 817.898 859.661C818.968 858.241 820.058 856.801 820.678 855.131C822.448 850.361 818.638 846.251 814.148 848.761C810.358 850.881 808.508 856.371 807.508 860.261C807.168 861.581 806.848 862.961 807.078 864.311C807.308 865.661 808.228 866.981 809.558 867.271Z" fill="#ABD855" fill-opacity="0.45" style="mix-blend-mode:multiply"/>
<path d="M1245.8 877.559C1248.65 874.102 1249.97 869.68 1251.34 865.415C1253.16 859.759 1255.65 854.506 1257.89 848.999C1264.47 846.744 1269.69 840.905 1271.21 834.118C1272.37 828.897 1271.83 822.596 1275.95 819.202C1278.59 817.037 1282.4 816.829 1285.14 814.79C1287.87 812.759 1289.04 809.305 1290.62 806.291C1292.2 803.276 1294.9 800.253 1298.3 800.474C1302.06 800.713 1304.44 805.033 1304.1 808.78C1303.75 812.537 1301.51 815.795 1299.48 818.971C1298.35 820.725 1297.23 822.652 1297.34 824.736C1297.45 826.839 1298.82 828.67 1300.33 830.138C1306.87 836.457 1317.11 838.506 1322.32 845.957C1325.44 850.408 1326.21 856.093 1328.8 860.876C1331.39 865.659 1336.28 869.826 1340.96 867.063C1344.22 868.757 1347.72 870.495 1351.36 870.041C1354.63 869.629 1357.5 867.385 1359.15 864.522C1360.79 861.657 1361.3 858.254 1361.08 854.964C1360.91 852.509 1360.31 849.986 1358.77 848.08C1358.11 847.264 1357.26 846.542 1356.94 845.54C1356.61 844.516 1356.88 843.403 1357.23 842.39C1358.82 837.702 1362.98 833.111 1367.88 833.808C1371.39 834.305 1374.01 837.408 1375.27 840.717C1376.53 844.027 1376.74 847.619 1377.45 851.086C1382.27 848.935 1388.25 849.689 1392.37 852.965C1391.12 855.711 1389.8 858.559 1387.44 860.438C1385.09 862.318 1381.39 862.884 1379.14 860.873C1378.61 860.397 1378.14 859.768 1377.45 859.583C1376.53 859.327 1375.61 859.939 1374.88 860.556C1372.46 862.599 1370.44 865.099 1368.93 867.88C1367.1 871.254 1372.11 876.871 1375.85 877.693C1379.59 878.525 1383.49 877.107 1386.81 875.178C1390.13 873.248 1393.14 870.781 1396.63 869.186C1398.51 868.322 1400.54 867.721 1402.22 866.506C1405.93 863.822 1407.07 858.153 1404.67 854.255C1402.98 851.491 1399.98 849.831 1397.75 847.48C1394.29 843.819 1392.85 838.609 1392.8 833.566C1392.76 828.524 1393.1 822.697 1395.35 818.189C1397.3 814.275 1403.02 814.418 1406.38 811.615C1411.78 807.103 1408.69 797.66 1412.83 791.955C1416.53 786.858 1424.45 786.775 1428.72 782.138C1431.62 778.98 1432.21 774.217 1431.22 770.045C1430.22 765.872 1427.85 762.179 1425.36 758.691C1422.52 754.712 1419.31 750.743 1414.9 748.639C1412.87 747.666 1410.65 747.133 1408.63 746.142C1402.62 743.174 1398.99 736.493 1392.8 733.905C1391.76 742.343 1389.15 750.797 1383.85 757.433C1378.54 764.079 1370.26 768.674 1361.77 768.135C1356.83 767.816 1352.16 765.839 1347.39 764.493C1342.62 763.147 1337.32 762.457 1332.86 764.615C1329.26 766.356 1326.7 769.721 1323.25 771.765C1315.66 776.263 1304.48 774.045 1298.88 780.863C1296.55 783.714 1295.71 787.688 1292.95 790.117C1289.98 792.731 1285.3 793.083 1282.89 796.216C1281.5 798.016 1281.16 800.401 1280.11 802.429C1278.51 805.541 1275.4 807.531 1272.67 809.732C1269.94 811.934 1265.26 815.436 1266.23 818.807C1266.55 819.93 1264.81 820.451 1263.68 820.146C1258.34 818.693 1255.39 812.447 1250.06 810.965C1246.25 809.913 1242.19 811.6 1239.02 813.955C1235.85 816.308 1233.21 819.33 1229.93 821.538C1229.09 822.099 1228.11 822.633 1227.12 822.477C1226.29 822.344 1225.61 821.758 1224.87 821.354C1222.94 820.305 1220.61 820.493 1218.43 820.721C1208.42 821.73 1198.35 822.751 1188.63 825.386C1186.39 825.999 1184.14 826.692 1181.82 826.82C1178.23 827.008 1174.74 825.826 1171.26 824.929C1167.77 824.032 1164.01 823.419 1160.66 824.708C1157.3 825.998 1154.78 830.115 1155.99 833.499C1160.44 831.855 1165.49 833.944 1169.14 836.974C1172.8 840.004 1175.65 843.935 1179.36 846.902C1181.97 848.983 1184.96 850.56 1187.52 852.695C1192.74 857.059 1196.01 863.609 1201.8 867.172C1203.83 868.418 1206.09 869.25 1208.09 870.532C1211.26 872.557 1213.62 875.603 1216.48 878.05C1220.61 881.6 1225.91 883.885 1231.35 883.959C1236.79 884.033 1242.32 881.769 1245.79 877.578L1245.8 877.559Z" fill="#ABD855" fill-opacity="0.45" style="mix-blend-mode:multiply"/>
<path d="M765.455 768.544C763.249 770.658 762.005 773.548 760.74 776.328C759.058 780.013 756.954 783.372 754.997 786.924C750.366 787.928 746.363 791.466 744.795 795.942C743.591 799.385 743.46 803.695 740.396 805.666C738.439 806.922 735.841 806.76 733.823 807.923C731.814 809.081 730.749 811.328 729.439 813.243C728.129 815.159 726.059 816.992 723.773 816.572C721.244 816.111 719.976 812.996 720.51 810.486C721.046 807.969 722.821 805.941 724.446 803.952C725.349 802.853 726.26 801.638 726.352 800.218C726.446 798.785 725.667 797.436 724.757 796.322C720.832 791.523 714.062 789.321 711.124 783.861C709.366 780.599 709.297 776.687 707.924 773.243C706.551 769.798 703.569 766.587 700.176 768.086C698.109 766.68 695.872 765.224 693.375 765.242C691.124 765.261 689.003 766.553 687.657 768.36C686.318 770.17 685.706 772.435 685.593 774.68C685.513 776.356 685.715 778.112 686.612 779.526C686.991 780.131 687.51 780.687 687.645 781.39C687.791 782.111 687.517 782.843 687.2 783.501C685.753 786.55 682.566 789.327 679.303 788.465C676.969 787.85 675.437 785.54 674.85 783.2C674.263 780.859 674.402 778.409 674.197 776.004C670.766 777.078 666.774 776.092 664.241 773.545C665.307 771.785 666.431 769.962 668.175 768.877C669.919 767.791 672.47 767.702 673.833 769.243C674.155 769.607 674.423 770.071 674.876 770.251C675.475 770.496 676.147 770.156 676.691 769.796C678.49 768.604 680.06 767.073 681.303 765.309C682.812 763.17 679.867 758.968 677.397 758.113C674.929 757.252 672.178 757.903 669.776 758.946C667.374 759.989 665.139 761.42 662.651 762.222C661.307 762.658 659.884 762.904 658.651 763.593C655.921 765.115 654.702 768.863 656.015 771.694C656.942 773.7 658.844 775.063 660.162 776.832C662.22 779.587 662.774 783.229 662.408 786.648C662.034 790.066 661.342 793.985 659.461 796.859C657.832 799.355 653.968 798.803 651.471 800.434C647.45 803.06 648.795 809.701 645.54 813.235C642.629 816.393 637.256 815.819 634 818.62C631.784 820.528 631 823.706 631.343 826.61C631.686 829.515 633 832.205 634.411 834.766C636.017 837.686 637.872 840.628 640.695 842.404C641.991 843.224 643.451 843.762 644.737 844.593C648.574 847.081 650.502 851.894 654.487 854.138C655.86 848.507 658.302 842.989 662.421 838.917C666.541 834.839 672.517 832.386 678.22 833.425C681.542 834.034 684.544 835.744 687.669 837.035C690.794 838.326 694.325 839.214 697.518 838.107C700.093 837.214 702.099 835.14 704.595 834.03C710.09 831.587 717.487 833.978 721.821 829.806C723.63 828.061 724.51 825.436 726.574 824.011C728.793 822.477 731.99 822.61 733.874 820.681C734.956 819.572 735.379 817.984 736.246 816.694C737.58 814.714 739.842 813.614 741.867 812.34C743.892 811.066 747.336 809.066 746.951 806.707C746.823 805.92 748.04 805.706 748.78 806.002C752.283 807.411 753.787 811.875 757.278 813.303C759.77 814.318 762.656 813.498 764.988 812.155C767.326 810.814 769.355 808.978 771.75 807.743C772.366 807.43 773.066 807.146 773.729 807.331C774.281 807.487 774.692 807.938 775.163 808.27C776.384 809.134 777.975 809.192 779.469 809.21C786.333 809.324 793.234 809.432 800.021 808.421C801.589 808.184 803.171 807.894 804.751 807.991C807.196 808.149 809.467 809.227 811.753 810.112C814.039 810.996 816.537 811.71 818.911 811.104C821.286 810.497 823.325 807.91 822.771 805.522C819.626 806.281 816.376 804.466 814.141 802.123C811.907 799.78 810.286 796.891 808.013 794.588C806.409 792.97 804.513 791.665 802.946 790.015C799.758 786.645 798.067 781.95 794.427 779.076C793.151 778.072 791.688 777.328 790.432 776.301C788.449 774.678 787.092 772.427 785.353 770.543C782.838 767.811 779.431 765.842 775.753 765.359C772.075 764.877 768.146 765.97 765.465 768.532L765.455 768.544Z" fill="#ABD855" fill-opacity="0.45" style="mix-blend-mode:multiply"/>
<path d="M178.012 808.429C178.942 803.949 182.042 800.289 184.202 796.249C186.352 792.209 187.432 786.849 184.512 783.329C183.052 781.569 180.842 780.599 179.212 779.009C176.932 776.789 175.902 773.509 173.592 771.319C168.832 766.799 160.862 768.749 155.422 772.429C150.252 775.929 145.662 780.309 140.362 783.629C136.472 786.069 129.392 785.159 126.392 787.979C125.812 788.529 125.572 789.339 125.362 790.109C124.312 793.969 123.662 798.989 127.032 801.159C129.072 802.479 132.322 802.479 133.082 804.789C133.712 806.689 132.042 808.459 130.972 810.149C127.492 815.679 130.242 822.779 131.312 829.219C131.962 833.089 131.972 837.109 133.402 840.759C134.832 844.409 138.262 847.699 142.172 847.319C147.722 846.769 149.952 839.979 154.082 836.239C160.542 830.399 172.482 831.629 176.442 823.869C178.812 819.219 176.932 813.549 177.992 808.439L178.012 808.429Z" fill="#ABD855" fill-opacity="0.45" style="mix-blend-mode:multiply"/>
<path d="M950.012 799.429C950.942 794.949 954.042 791.289 956.202 787.249C958.352 783.209 959.432 777.849 956.512 774.329C955.052 772.569 952.842 771.599 951.212 770.009C948.932 767.789 947.902 764.509 945.592 762.319C940.832 757.799 932.862 759.749 927.422 763.429C922.252 766.929 917.662 771.309 912.362 774.629C908.472 777.069 901.392 776.159 898.392 778.979C897.812 779.529 897.572 780.339 897.362 781.109C896.312 784.969 895.662 789.989 899.032 792.159C901.072 793.479 904.322 793.479 905.082 795.789C905.712 797.689 904.042 799.459 902.972 801.149C899.492 806.679 902.242 813.779 903.312 820.219C903.962 824.089 903.972 828.109 905.402 831.759C906.832 835.409 910.262 838.699 914.172 838.319C919.722 837.769 921.952 830.979 926.082 827.239C932.542 821.399 944.482 822.629 948.442 814.869C950.812 810.219 948.932 804.549 949.992 799.439L950.012 799.429Z" fill="#ABD855" fill-opacity="0.45" style="mix-blend-mode:multiply"/>
<path d="M101.902 799.249C107.202 801.089 112.812 797.729 117.142 794.169C120.082 791.759 122.882 789.179 125.522 786.439C129.482 782.349 133.352 777.999 139.002 776.369C143.222 775.149 148.992 774.499 148.812 768.569C148.692 764.749 145.472 761.509 141.792 760.469C138.112 759.429 134.132 760.239 130.612 761.719C126.322 763.519 122.392 766.389 119.792 770.249C119.422 770.809 119.062 771.399 118.512 771.799C117.142 772.809 115.242 772.239 113.542 772.109C110.682 771.889 107.742 773.179 105.962 775.439C104.742 776.989 104.072 778.899 103.432 780.769C102.072 784.729 100.702 788.679 99.3419 792.639C98.8919 793.959 98.4319 795.409 98.9119 796.719C99.3719 797.989 100.622 798.809 101.892 799.249H101.902Z" fill="#ABD855" fill-opacity="0.45" style="mix-blend-mode:multiply"/>
<path d="M873.902 790.249C879.202 792.089 884.812 788.729 889.142 785.169C892.082 782.759 894.882 780.179 897.522 777.439C901.482 773.349 905.352 768.999 911.002 767.369C915.222 766.149 920.992 765.499 920.812 759.569C920.692 755.749 917.472 752.509 913.792 751.469C910.112 750.429 906.132 751.239 902.612 752.719C898.322 754.519 894.392 757.389 891.792 761.249C891.422 761.809 891.062 762.399 890.512 762.799C889.142 763.809 887.242 763.239 885.542 763.109C882.682 762.889 879.742 764.179 877.962 766.439C876.742 767.989 876.072 769.899 875.432 771.769C874.072 775.729 872.702 779.679 871.342 783.639C870.892 784.959 870.432 786.409 870.912 787.719C871.372 788.989 872.622 789.809 873.892 790.249H873.902Z" fill="#ABD855" fill-opacity="0.45" style="mix-blend-mode:multiply"/>
<path d="M64.3716 809.489C64.6316 811.009 64.0116 812.709 64.7916 814.039C65.2216 814.779 66.0016 815.239 66.7716 815.599C70.7216 817.439 76.9016 817.409 80.0716 813.949C82.4116 811.389 83.2816 804.329 80.8216 801.549C78.3816 798.779 73.5016 800.569 70.4016 798.559C69.6016 798.039 68.9816 797.309 68.2516 796.699C67.0116 795.669 65.4616 795.009 63.8516 794.859C62.5016 794.729 61.0116 794.989 60.0916 795.989C59.5516 796.579 59.2616 797.369 59.1216 798.159C58.7616 800.099 59.2116 802.179 60.3316 803.799C61.6716 805.739 63.9716 807.179 64.3716 809.499V809.489Z" fill="#ABD855" fill-opacity="0.45" style="mix-blend-mode:multiply"/>
<path d="M836.372 800.489C836.632 802.009 836.012 803.709 836.792 805.039C837.222 805.779 838.002 806.239 838.772 806.599C842.722 808.439 848.902 808.409 852.072 804.949C854.412 802.389 855.282 795.329 852.822 792.549C850.382 789.779 845.502 791.569 842.402 789.559C841.602 789.039 840.982 788.309 840.252 787.699C839.012 786.669 837.462 786.009 835.852 785.859C834.502 785.729 833.012 785.989 832.092 786.989C831.552 787.579 831.262 788.369 831.122 789.159C830.762 791.099 831.212 793.179 832.332 794.799C833.672 796.739 835.972 798.179 836.372 800.499V800.489Z" fill="#ABD855" fill-opacity="0.45" style="mix-blend-mode:multiply"/>
<path d="M76.7313 794.349C80.2213 795.739 84.6413 793.969 86.2013 790.559L86.6513 789.369C89.2413 787.679 90.5413 784.229 89.7013 781.249C89.4813 780.449 89.1013 779.659 88.4813 779.109C87.2613 778.009 85.4313 778.019 83.8013 778.199C79.1513 778.699 73.9613 780.659 72.4513 785.089C71.2413 788.639 73.2313 792.969 76.7213 794.359L76.7313 794.349Z" fill="#ABD855" fill-opacity="0.45" style="mix-blend-mode:multiply"/>
<path d="M848.731 785.349C852.221 786.739 856.641 784.969 858.201 781.559L858.651 780.369C861.241 778.679 862.541 775.229 861.701 772.249C861.481 771.449 861.101 770.659 860.481 770.109C859.261 769.009 857.431 769.019 855.801 769.199C851.151 769.699 845.961 771.659 844.451 776.089C843.241 779.639 845.231 783.969 848.721 785.359L848.731 785.349Z" fill="#ABD855" fill-opacity="0.45" style="mix-blend-mode:multiply"/>
<path d="M89.4223 805.629C90.3023 806.619 91.8423 806.879 93.0623 806.369C94.2823 805.859 95.1523 804.679 95.4423 803.389C95.7623 801.989 95.3723 800.389 94.2823 799.459C93.1923 798.529 91.3723 798.459 90.3623 799.489L89.7423 799.409C88.8223 801.409 87.9623 803.989 89.4223 805.639V805.629Z" fill="#ABD855" fill-opacity="0.45" style="mix-blend-mode:multiply"/>
<path d="M861.422 796.629C862.302 797.619 863.842 797.879 865.062 797.369C866.282 796.859 867.152 795.679 867.442 794.389C867.762 792.989 867.372 791.389 866.282 790.459C865.192 789.529 863.372 789.459 862.362 790.489L861.742 790.409C860.822 792.409 859.962 794.989 861.422 796.639V796.629Z" fill="#ABD855" fill-opacity="0.45" style="mix-blend-mode:multiply"/>
<path d="M621.08 770.41C619.43 766.05 619.36 761.24 618.1 756.75C616.84 752.26 613.77 747.69 609.16 747C609.41 750.16 608.83 754.42 605.69 754.82C601.37 755.37 600.17 747.72 595.86 747.15C593.6 746.85 591.67 748.69 589.48 749.32C585.85 750.35 581.9 747.96 578.26 748.96C575.17 749.81 573.26 752.82 571.65 755.59C569.02 760.12 566.38 764.64 563.75 769.17C562.63 771.09 561.49 773.07 561.11 775.27C560.74 777.46 561.28 779.96 563.03 781.33C565.61 783.36 569.32 782.2 572.47 781.31C577.96 779.76 587 777.53 591.38 782.27C595.69 786.94 596.41 793.49 603.45 795.53C605.94 796.25 608.62 796.08 611.14 795.46C618.95 793.55 625.9 785.85 624.13 778.01C623.53 775.34 622.03 772.98 621.06 770.42L621.08 770.41Z" fill="#ABD855" fill-opacity="0.45" style="mix-blend-mode:multiply"/>
</svg>
