<svg width="345" height="318" viewBox="0 0 345 318" fill="none" xmlns="http://www.w3.org/2000/svg">
<path d="M13.9346 317.958H330.396V181.661C330.396 180.617 330.477 179.532 330.477 178.447C330.477 87.8883 259.597 14.4395 172.206 14.4395C84.8143 14.4395 15.5858 86.2607 14.0151 175.443H13.9346V178.406C13.9346 178.406 13.9346 178.447 13.9346 178.489C13.9346 178.489 13.9346 178.531 13.9346 178.573V318V317.958Z" fill="#363635"/>
<g style="mix-blend-mode:screen">
<path d="M172.206 17.8198C252.872 17.8198 319.482 80.1678 329.591 160.92C321.134 78.582 253.919 14.4395 172.206 14.4395C90.4927 14.4395 23.2375 78.6654 14.8608 161.087C24.8887 80.293 91.4995 17.8198 172.206 17.8198Z" fill="white"/>
</g>
<path d="M0.0402504 317.958H13.9343V178.531C13.9343 178.531 13.9343 178.489 13.9343 178.447C13.9343 178.447 13.9343 178.406 13.9343 178.364V175.401H14.0148C15.5855 86.2189 85.7805 14.3976 172.205 14.3976C258.63 14.3976 330.477 87.8465 330.477 178.406C330.477 179.491 330.436 180.534 330.396 181.619V317.917H344.29V181.744C344.29 181.41 344.29 181.118 344.29 180.784C344.29 179.991 344.33 179.198 344.33 178.406C344.33 80.0425 267.088 0 172.165 0C126.738 0 83.8877 18.1953 51.5086 51.2055C22.4318 80.8354 4.75213 119.396 0.845689 161.003H0.0805009L0 175.401V178.113V178.406C0 178.489 0 178.572 0 178.614V317.875L0.0402504 317.958Z" fill="#3F413F"/>
<path d="M0.0405273 246.847H13.9345V178.531C13.9345 178.531 13.9345 178.489 13.9345 178.447C13.9345 178.447 13.9345 178.406 13.9345 178.364V177.362H0.725154C0.483518 177.362 0.24189 177.321 0.0405273 177.237V178.406C0.0405273 178.406 0.0405273 178.573 0.0405273 178.614V246.763V246.847Z" fill="#575857"/>
<path d="M13.9345 251.521H0.0405273V290.039H13.9345V251.521Z" fill="#575857"/>
<path d="M13.9345 294.713H0.0405273V317.958H13.9345V294.713Z" fill="#575857"/>
<path d="M108.534 12.6865C91.2173 19.8227 75.0277 29.922 60.5698 42.7338C62.8654 47.0322 65.1609 51.3306 67.4161 55.6708C80.6658 43.5267 95.8889 33.6361 112.521 26.5834C111.152 21.9511 109.823 17.3188 108.534 12.6865Z" fill="#575857"/>
<path d="M112.723 11.0174C114.052 15.6497 115.381 20.2819 116.71 24.8725C132.255 18.8213 148.968 15.1906 166.406 14.5646V0.125244C147.841 0.751228 129.758 4.4654 112.723 10.9756V11.0174Z" fill="#575857"/>
<path d="M31.1307 104.289C39.5074 87.2205 50.6629 71.863 63.9931 58.8842C61.6976 54.5441 59.402 50.1622 57.1065 45.822C55.2137 47.5748 53.3612 49.3693 51.5489 51.2055C38.4603 64.5181 27.7075 79.7086 19.4517 96.1094C23.3178 98.8638 27.2242 101.576 31.1307 104.247V104.289Z" fill="#575857"/>
<path d="M17.4381 100.283C8.53786 119.187 2.89967 139.678 0.926317 161.003H0.161129L0.0805664 172.813C0.281929 172.772 0.523619 172.688 0.765254 172.688H14.176C14.9411 149.777 20.2571 128.076 29.1574 108.462C25.2509 105.75 21.3445 103.037 17.4381 100.241V100.283Z" fill="#575857"/>
<path d="M245.018 16.8181C243.246 21.2417 241.515 25.7071 239.823 30.1307C253.637 36.8913 266.403 45.6551 277.679 56.1299C280.297 52.1654 282.955 48.2008 285.653 44.3197C273.531 33.3024 259.839 24.0378 245.059 16.8181H245.018Z" fill="#575857"/>
<path d="M240.951 14.8984C219.888 5.34175 196.651 0.041748 172.206 0.041748C171.763 0.041748 171.36 0.041748 170.917 0.041748V14.4394C171.36 14.4394 171.763 14.4394 172.206 14.4394C194.799 14.4394 216.304 19.3638 235.756 28.2111C237.447 23.7457 239.179 19.3221 240.951 14.8984Z" fill="#575857"/>
<path d="M314.287 106.125C323.872 126.324 329.591 148.859 330.396 172.73H344.29C343.485 145.896 336.88 120.565 325.805 97.9458C321.979 100.7 318.153 103.413 314.287 106.125Z" fill="#575857"/>
<path d="M312.233 101.952C316.1 99.2395 319.926 96.5686 323.711 93.7725C314.61 76.3702 302.85 60.7206 288.956 47.408C286.258 51.3725 283.64 55.3371 280.982 59.3017C293.507 71.6127 304.098 85.9686 312.233 101.91V101.952Z" fill="#575857"/>
<path d="M330.436 246.847H344.33V181.786C344.33 181.452 344.33 181.16 344.33 180.826C344.33 180.033 344.371 179.24 344.371 178.447C344.371 178.114 344.371 177.738 344.371 177.404H330.477C330.477 177.78 330.477 178.114 330.477 178.447C330.477 179.532 330.436 180.576 330.396 181.661V246.847H330.436Z" fill="#575857"/>
<path d="M344.331 251.521H330.437V290.039H344.331V251.521Z" fill="#575857"/>
<path d="M344.331 294.713H330.437V317.958H344.331V294.713Z" fill="#575857"/>
<mask id="mask0_1_3091" style="mask-type:luminance" maskUnits="userSpaceOnUse" x="13" y="15" width="318" height="294">
<path d="M13.4768 308.27H330.832V176.719C330.848 175.69 330.911 174.676 330.911 173.63C330.911 86.2153 259.848 15.3391 172.186 15.3391C84.5243 15.3391 15.1128 84.6311 13.5404 170.715H13.4609V173.567C13.4609 173.567 13.4609 173.614 13.4609 173.63C13.4609 173.662 13.4609 173.678 13.4609 173.709V308.27H13.4768Z" fill="white"/>
</mask>
<g mask="url(#mask0_1_3091)">
<path d="M11.8556 243.208C11.7888 276.381 11.6886 235.366 11.5884 268.539C11.5383 282.86 11.5717 297.165 11.3379 311.47C19.6719 309.522 28.006 307.842 36.7075 306.733C49.5342 305.102 62.4111 303.708 75.3214 302.773C118.645 299.605 162.236 299.921 205.526 303.581C203.672 299.224 202.353 294.472 200.75 290.401C197.66 282.543 194.587 274.686 191.497 266.844C185.418 251.446 179.038 236.142 173.008 220.728C166.996 205.33 161.134 189.869 155.322 174.407C152.365 166.518 149.342 158.66 146.336 150.787C144.182 145.147 140.958 138.937 139.455 132.822C135.146 136.814 130.269 140.458 125.843 144.228L109.109 158.47C97.9519 167.959 86.7953 177.464 75.6387 186.954C54.7618 204.712 33.7513 222.154 11.8723 238.756C11.8723 240.245 11.8723 241.735 11.8723 243.224L11.8556 243.208ZM159.848 263.596C165.56 263.517 171.856 262.709 177.368 264.262C178.32 264.531 178.32 265.814 177.368 266.083C173.175 267.272 168.499 267.113 163.973 266.907C164.073 267.351 164.19 267.81 164.24 268.238C164.407 269.584 164.34 270.994 164.374 272.357C164.407 273.735 164.541 275.145 164.474 276.539C164.424 277.49 164.123 278.329 163.773 279.185C168.148 279.09 172.574 279.09 176.75 280.024C178.136 280.341 178.136 282.353 176.75 282.67C170.47 284.096 163.606 283.398 157.192 283.398C150.261 283.398 143.347 283.43 136.415 283.414C122.503 283.383 108.674 283.494 94.8621 281.798C94.2442 281.719 94.2442 280.959 94.8621 280.88C101.66 280.04 108.44 279.66 115.255 279.47C115.221 278.994 115.221 278.519 115.221 278.028C115.238 276.792 115.271 275.541 115.288 274.305C115.305 273.07 115.271 271.818 115.388 270.582C115.455 269.87 115.505 269.157 115.823 268.507C115.923 268.301 116.023 268.048 116.157 267.858C116.374 267.557 116.541 267.509 116.658 267.161C116.791 266.749 117.392 266.749 117.526 267.161C117.643 267.509 117.81 267.557 118.027 267.858C118.161 268.048 118.261 268.301 118.361 268.507C118.678 269.157 118.712 269.885 118.795 270.582C118.929 271.818 118.879 273.07 118.896 274.305C118.912 275.541 118.946 276.792 118.962 278.028C118.962 278.503 118.962 278.947 118.946 279.406C124.758 279.295 130.587 279.28 136.415 279.264C143.347 279.232 150.261 279.264 157.192 279.28C158.378 279.28 159.58 279.248 160.8 279.216C160.733 279.058 160.649 278.884 160.583 278.725C160.265 278.028 160.148 277.141 160.115 276.381C160.081 275.05 160.182 273.687 160.215 272.357C160.249 270.931 160.132 269.394 160.382 267.984C160.449 267.588 160.549 267.176 160.633 266.78C160.132 266.765 159.631 266.749 159.146 266.733C153.618 266.654 148.073 266.559 142.545 266.479C142.177 267.161 140.875 267.161 140.541 266.448C140.507 266.448 140.474 266.448 140.441 266.448C128.299 266.258 115.739 266.971 103.697 265.371C103.48 265.339 103.48 264.99 103.697 264.959C115.472 263.39 127.731 264.024 139.639 263.881C139.555 263.279 139.539 262.677 139.539 262.06C139.555 260.681 139.589 259.319 139.622 257.941C139.639 256.562 139.672 255.2 139.706 253.822C139.706 252.998 139.739 252.285 140.023 251.525C140.14 251.24 140.223 250.907 140.374 250.638C140.591 250.257 141.109 250.02 141.276 249.64C141.393 249.386 141.727 249.386 141.827 249.64C141.994 250.02 142.512 250.273 142.729 250.638C142.879 250.907 142.979 251.24 143.079 251.525C143.363 252.301 143.38 253.014 143.397 253.822C143.413 255.2 143.447 256.562 143.464 257.941C143.48 259.319 143.514 260.681 143.547 262.06C143.547 262.646 143.547 263.248 143.464 263.834C148.925 263.755 154.386 263.675 159.848 263.58V263.596ZM64.1481 218.827C70.9456 217.988 77.7264 217.608 84.5406 217.417C84.5072 216.942 84.5072 216.467 84.5072 215.976C84.5239 214.74 84.5573 213.489 84.574 212.253C84.5907 211.017 84.5573 209.766 84.6742 208.53C84.741 207.817 84.7911 207.104 85.1084 206.455C85.2086 206.249 85.3089 205.996 85.4425 205.805C85.6596 205.504 85.8266 205.457 85.9435 205.108C86.0771 204.696 86.6784 204.696 86.812 205.108C86.9289 205.457 87.0959 205.504 87.313 205.805C87.4466 205.98 87.5469 206.249 87.6471 206.455C87.9644 207.104 87.9978 207.833 88.0813 208.53C88.2149 209.766 88.1648 211.017 88.1815 212.253C88.1982 213.489 88.2316 214.74 88.2483 215.976C88.2483 216.451 88.2483 216.895 88.2316 217.354C94.0437 217.243 99.8726 217.227 105.701 217.211C112.633 217.196 119.547 217.211 126.478 217.227C127.664 217.227 128.866 217.196 130.086 217.164C130.019 217.006 129.935 216.831 129.868 216.673C129.551 215.976 129.434 215.089 129.401 214.328C129.367 212.998 129.468 211.635 129.501 210.304C129.534 208.879 129.418 207.342 129.668 205.932C129.735 205.536 129.835 205.124 129.919 204.728C129.418 204.712 128.916 204.696 128.432 204.681C122.904 204.601 117.359 204.506 111.831 204.427C111.463 205.108 110.161 205.108 109.827 204.395C109.793 204.395 109.76 204.395 109.726 204.395C97.5845 204.205 85.0249 204.918 72.9831 203.318C72.766 203.287 72.766 202.938 72.9831 202.906C84.7577 201.338 97.0166 201.972 108.925 201.829C108.841 201.227 108.825 200.625 108.825 200.007C108.858 198.629 108.875 197.267 108.908 195.888C108.941 194.51 108.958 193.148 108.992 191.77C108.992 190.946 109.025 190.233 109.309 189.473C109.426 189.187 109.509 188.855 109.66 188.585C109.877 188.205 110.395 187.968 110.562 187.587C110.678 187.334 111.012 187.334 111.113 187.587C111.28 187.968 111.797 188.221 112.015 188.585C112.165 188.855 112.265 189.187 112.365 189.473C112.649 190.249 112.666 190.962 112.683 191.77C112.699 193.148 112.733 194.51 112.749 195.888C112.783 197.267 112.8 198.629 112.833 200.007C112.833 200.593 112.833 201.195 112.749 201.782C118.211 201.702 123.672 201.623 129.134 201.528C134.846 201.449 141.142 200.641 146.653 202.193C147.605 202.463 147.605 203.746 146.653 204.015C142.461 205.203 137.785 205.045 133.259 204.839C133.359 205.283 133.476 205.742 133.526 206.17C133.693 207.516 133.626 208.926 133.66 210.289C133.693 211.667 133.827 213.077 133.76 214.471C133.71 215.421 133.409 216.261 133.058 217.116C137.434 217.021 141.86 217.021 146.036 217.956C147.422 218.273 147.422 220.285 146.036 220.602C139.756 222.027 132.891 221.33 126.478 221.33C119.547 221.33 112.633 221.362 105.701 221.346C91.789 221.315 77.9602 221.425 64.1481 219.73C63.5301 219.651 63.5301 218.891 64.1481 218.812V218.827Z" fill="#E2C888"/>
<path d="M210.387 297.878C211.205 299.985 212.157 302.092 212.875 304.231C234.554 306.258 256.149 309.11 277.577 312.817C283.957 313.926 290.404 315.066 296.85 316.255C287.08 304.246 277.46 292.143 267.74 280.088C246.596 253.885 225.318 227.826 203.573 202.083C192.85 189.393 182.044 176.768 171.138 164.237C162.42 154.225 153.334 144.197 145.719 133.329C148.19 138.494 149.844 144.403 151.831 149.345C154.988 157.171 158.128 165.013 161.318 172.839C167.464 187.873 173.577 202.922 179.522 218.035C185.585 233.418 191.297 248.927 197.276 264.341C200.216 271.897 203.188 279.454 206.145 286.995C207.564 290.622 208.984 294.25 210.403 297.878H210.387Z" fill="#CEA882"/>
<path d="M279.18 225.782C279.247 225.402 279.347 225.006 279.431 224.61C278.946 224.61 278.462 224.578 277.978 224.562C272.583 224.483 267.205 224.404 261.81 224.324C261.443 224.99 260.19 224.99 259.856 224.293C259.823 224.293 259.79 224.293 259.773 224.293C252.107 224.182 244.291 224.372 236.524 224.15C240.048 228.364 243.556 232.594 247.046 236.839C249.986 236.824 252.909 236.776 255.848 236.776C262.595 236.76 269.343 236.776 276.074 236.792C277.226 236.792 278.412 236.76 279.581 236.729C279.514 236.57 279.431 236.412 279.364 236.237C279.063 235.556 278.93 234.685 278.913 233.956C278.879 232.657 278.98 231.342 279.013 230.043C279.046 228.649 278.93 227.16 279.18 225.798V225.782Z" fill="#E2C888"/>
<path d="M310.879 319.011C319.631 320.849 328.333 322.892 336.783 325.443C336.75 321.229 336.75 317.031 336.717 312.817C336.633 299.526 336.566 286.234 336.483 272.959C334.562 270.884 333.259 268.301 331.973 265.719C329.635 261.077 327.364 256.404 325.009 251.763C320.466 242.78 315.823 233.845 311.23 224.879C302.529 207.881 294.078 191.009 286.762 173.457C285.343 174.47 283.773 175.358 282.554 176.229C279.714 178.241 276.892 180.3 274.119 182.391C268.524 186.589 263.08 190.946 257.702 195.397C252.174 199.96 246.779 204.649 241.301 209.259C238.629 211.493 236.023 213.806 233.351 216.071C232.666 216.641 231.998 217.259 231.313 217.877C232.466 219.255 233.602 220.649 234.754 222.027C242.821 221.695 250.988 221.932 259.005 221.837C258.921 221.251 258.904 220.665 258.904 220.063C258.921 218.732 258.954 217.386 258.971 216.055C258.988 214.724 259.021 213.378 259.038 212.047C259.038 211.255 259.071 210.558 259.355 209.798C259.456 209.512 259.539 209.196 259.706 208.942C259.923 208.578 260.424 208.34 260.575 207.96C260.675 207.706 261.009 207.706 261.126 207.96C261.293 208.34 261.794 208.578 261.994 208.942C262.144 209.196 262.228 209.528 262.345 209.798C262.629 210.558 262.646 211.239 262.662 212.047C262.679 213.378 262.712 214.724 262.729 216.055C262.746 217.386 262.779 218.732 262.796 220.063C262.796 220.633 262.796 221.22 262.712 221.79C268.04 221.711 273.351 221.631 278.679 221.552C284.241 221.473 290.37 220.681 295.748 222.202C296.666 222.455 296.666 223.723 295.748 223.976C291.673 225.132 287.113 224.974 282.704 224.784C282.804 225.212 282.904 225.655 282.971 226.083C283.138 227.398 283.071 228.776 283.088 230.091C283.122 231.437 283.238 232.816 283.188 234.162C283.155 235.081 282.854 235.905 282.504 236.729C286.762 236.634 291.071 236.634 295.13 237.552C296.466 237.853 296.466 239.834 295.13 240.135C289.017 241.513 282.32 240.848 276.074 240.848C269.326 240.848 262.579 240.879 255.848 240.863C253.994 240.863 252.14 240.848 250.286 240.832C271.096 266.384 291.773 292.112 310.763 318.9C310.796 318.948 310.813 319.011 310.846 319.058L310.879 319.011Z" fill="#E2C888"/>
<path d="M295.18 178.051C293.51 176.657 291.907 175.215 290.287 173.773C300.274 189.964 309.042 206.613 317.777 223.485C322.404 232.42 326.98 241.386 331.69 250.289C333.243 253.22 334.83 256.151 336.399 259.066C336.399 258.289 336.399 257.529 336.399 256.753C336.266 234.099 336.149 219.873 336.049 208.404C332.959 207.722 329.652 205.029 327.731 203.619C320.266 198.138 313.067 192.324 305.786 186.605C302.211 183.801 298.671 180.981 295.197 178.067L295.18 178.051Z" fill="#CEA882"/>
<path d="M198.111 116.679C190.462 110.945 182.061 107.016 172.658 104.56C164.14 102.343 156.224 102.976 147.756 103.673C147.723 104.418 147.656 105.162 147.522 105.891C147.238 107.475 144.783 107.269 144.366 105.891C142.729 100.489 142.128 95.499 138.704 90.6831C135.514 86.1998 131.121 82.5245 126.144 79.9107C114.854 73.9383 101.209 74.0967 89.6515 79.4512C64.9332 90.889 56.5825 118.549 55.3466 142.66C55.2631 144.276 53.643 145.005 52.1733 144.387C39.3131 138.921 25.8851 137.828 12.0396 138.462C11.9895 169.322 11.9227 200.197 11.8726 231.057C30.5281 213.394 49.8518 196.49 69.4426 179.73C80.8331 169.987 92.2068 160.26 103.597 150.518L120.299 136.244C125.86 131.492 131.238 126.137 137.384 122.081C138.904 121.083 140.391 121.083 141.593 121.685C142.495 121.369 143.597 121.416 144.516 122.097C159.948 133.662 172.291 148.886 184.8 163.159C199.147 179.54 213.226 196.158 227.155 212.855C227.589 212.38 228.023 211.889 228.458 211.413C230.879 208.689 233.435 206.075 235.99 203.461C240.934 198.391 246.328 193.591 251.773 189.013C257.385 184.292 263.147 179.73 269.026 175.294C271.982 173.076 274.955 170.89 277.961 168.736C280.8 166.708 283.189 164.379 286.746 164.522C287.464 164.062 288.383 163.84 289.402 164.11C292.074 164.791 294.278 166.565 296.5 168.054C298.654 169.496 300.775 170.985 302.88 172.49C307.055 175.484 311.097 178.605 315.172 181.71C322.12 187.017 329.485 192.086 335.965 197.932C335.815 181.013 335.715 166.534 335.748 129.305C335.748 124.965 335.748 120.608 335.748 116.268C328.617 118.565 323.205 124.6 321.903 131.745C321.602 133.424 319.23 133.329 318.379 132.189C308.141 118.169 286.479 117.503 274.404 129.828C274.303 129.939 274.17 129.939 274.036 129.907C273.468 130.652 272.951 131.428 272.266 132.078C271.28 133.012 269.71 132.046 270.011 130.826C271.347 125.456 273.769 120.735 274.12 115.095C274.42 110.121 273.619 105.067 271.798 100.394C267.756 90.0336 258.42 82.4929 247.23 79.7047C223.447 73.764 200.85 91.8395 202.504 114.984C202.671 117.313 199.681 117.883 198.111 116.711V116.679Z" fill="white"/>
<path d="M12.24 -39.0453C12.3402 -29.6986 12.2734 -20.352 12.2567 -11.0053C12.2567 -6.98148 12.2567 -2.94182 12.2567 1.08199C16.4822 -3.95569 22.762 -6.68048 29.8267 -5.44483C34.2693 -4.66858 37.7933 -2.54578 40.9666 0.400799C44.2735 3.47411 46.7954 3.585 51.1044 2.38102C53.3758 1.74735 55.6472 1.1612 58.0021 0.796844C75.8394 -2.00715 94.7288 4.21867 106.787 17.0188C108.19 18.508 107.221 20.805 105.084 20.9159C74.1024 22.3417 43.1712 24.3061 12.24 26.3497C12.24 32.2903 12.24 38.2468 12.2233 44.1875C12.1732 75.1265 12.1064 106.081 12.0563 137.02C25.0167 133.583 38.8455 135.294 51.3048 139.809C52.0898 126.248 55.2464 112.466 62.3779 100.616C69.0418 89.5584 80.7997 80.5603 93.2256 75.9503C105.384 71.4354 119.18 71.8631 130.37 78.5167C137.869 82.9682 146.169 91.5069 147.556 100.505C156.157 98.1922 166.178 98.9526 174.696 100.489C182.913 101.963 190.846 105.448 197.643 110.153C200.349 87.1346 223.765 70.0096 248.349 75.9186C260.558 78.8493 270.679 86.8653 275.439 97.9704C278.846 105.955 280.199 117.979 276.024 126.628C281.518 120.814 289.084 117.345 297.552 117.598C305.869 117.852 313.669 121.511 319.18 127.309C321.836 120.165 328.116 114.731 335.765 112.64C335.782 84.7267 335.798 56.8293 335.815 28.916C335.815 18.6981 335.815 8.48011 335.815 -1.73785C332.592 -0.0586166 328.8 1.00278 325.427 1.68398C320.65 2.66617 315.69 2.93549 310.813 2.42854C292.909 0.575058 278.128 -11.1637 273.201 -27.6392C270.278 -37.3977 270.863 -52.9702 278.963 -60.8753C276.224 -60.8594 273.485 -60.8119 270.763 -60.796C226.721 -60.6535 182.696 -60.6535 138.654 -60.6693C116.457 -60.6693 94.2778 -60.5901 72.0815 -60.8277C60.8247 -60.9545 49.5345 -60.9069 38.2777 -61.2238C29.0751 -61.4772 20.24 -62.4119 11.2546 -63.4258C12.7077 -55.4257 12.2066 -47.1404 12.2901 -39.0453H12.24ZM309.326 24.2585C309.393 23.2922 309.744 22.4209 310.045 21.5021C310.295 20.7417 311.581 20.4248 311.982 21.2644C312.383 22.1199 312.884 22.9595 313.084 23.8783C313.285 24.8605 313.552 25.8427 313.619 26.8407C313.685 27.7754 313.786 28.7101 313.819 29.6289C313.819 30.0408 313.769 30.4527 313.719 30.8646C313.602 31.7042 313.452 32.3379 312.75 32.8131C312.483 33.0824 312.149 33.32 311.748 33.32C311.347 33.32 311.03 33.1299 310.763 32.8765C309.677 32.2903 309.41 30.7061 309.326 29.6289C309.26 28.7418 309.226 27.8388 309.176 26.9358C309.126 26.0487 309.26 25.1457 309.326 24.2427V24.2585ZM267.573 20.4882C268.792 18.1753 270.378 16.0525 272.383 14.3099C273.435 13.4069 274.571 12.5673 275.74 11.8227C276.324 11.4425 276.909 11.1257 277.577 10.8564C277.911 10.7138 278.262 10.5712 278.612 10.4603C279.247 10.2702 279.798 10.3653 280.399 10.6029C281.051 10.8722 281.318 11.7594 281.151 12.3455C280.884 13.2485 280.065 13.6445 279.314 14.1198C278.796 14.4525 278.262 14.7218 277.744 15.0228C277.226 15.3238 276.708 15.6406 276.207 15.9891C276.057 16.0842 275.923 16.1792 275.79 16.2901C275.756 16.306 275.389 16.5753 275.556 16.4485C275.723 16.3218 275.372 16.5911 275.339 16.6228C275.222 16.7178 275.105 16.7971 275.005 16.8921C273.168 18.3495 271.347 19.9813 269.928 21.7872C269.493 22.3417 268.775 22.6268 268.074 22.2466C267.422 21.8823 267.255 21.106 267.589 20.4882H267.573ZM265.619 -12.5895C266.136 -10.7835 263.631 -10.1974 262.328 -9.92805C260.758 -9.61121 259.188 -9.29438 257.619 -8.97755C254.562 -8.35971 251.472 -7.99535 248.366 -7.58347C246.763 -7.37752 246.061 -9.45279 247.681 -9.94389C250.654 -10.8469 253.577 -11.7657 256.616 -12.4469C258.186 -12.7954 259.74 -13.1439 261.31 -13.5083C262.662 -13.8093 265.117 -14.3954 265.635 -12.6053L265.619 -12.5895ZM240.366 -42.6413C242.888 -43.4334 245.276 -44.4632 247.781 -45.3345C249.001 -45.7622 250.236 -46.079 251.489 -46.38C252.875 -46.6968 254.328 -47.1563 255.765 -47.0929C256.767 -47.0454 257.685 -46.4592 257.953 -45.5087C258.203 -44.6533 257.802 -43.4651 256.917 -43.0849C255.564 -42.4988 254.178 -42.372 252.725 -42.1819C251.305 -41.9918 249.886 -41.8334 248.449 -41.7859C247.13 -41.7384 245.794 -41.6433 244.491 -41.7384C243.155 -41.8334 241.869 -41.7701 240.533 -41.7067C239.932 -41.675 239.865 -42.4988 240.399 -42.6572L240.366 -42.6413Z" fill="#A9C2FF"/>
<path d="M57.9024 5.47019C54.1278 6.1197 50.3533 7.84646 46.4786 7.81478C42.704 7.78309 40.6998 5.3593 38.3783 2.85629C31.3971 -4.6844 19.4555 -4.65271 12.2572 2.33352C12.2572 9.01875 12.2572 15.704 12.2405 22.4051C41.3512 20.7258 70.4619 18.9516 99.5225 16.7495C88.249 7.3712 72.8669 2.91966 57.9024 5.48603V5.47019Z" fill="white"/>
<path d="M346.938 -14.5062C346.938 -23.8529 346.838 -33.1995 346.721 -42.5462C346.604 -51.7978 347.222 -61.4613 343.782 -70.2693C342.963 -72.3604 339.756 -72.3604 338.938 -70.2693C338.621 -69.4456 338.354 -68.6218 338.103 -67.798C329.969 -70.4594 321.418 -70.8238 312.667 -71.1248C301.41 -71.505 290.136 -71.5208 278.863 -71.5525C256.666 -71.6159 234.487 -71.7268 212.291 -71.7268C168.265 -71.7268 124.207 -72.1228 80.1816 -71.6317C67.8893 -71.505 55.597 -71.3624 43.3214 -71.2357C37.1753 -71.1723 31.0291 -70.9347 24.883 -70.6337C19.6387 -70.3802 14.6282 -69.5406 9.51757 -68.8436C7.27957 -71.5208 1.60105 -71.0456 0.598963 -67.3703C-1.62234 -59.2593 -1.1881 -50.9582 -1.28831 -42.6571C-1.37181 -34.5144 -1.35511 -26.3717 -1.35511 -18.2291C-1.35511 -1.6427 -1.35511 14.9437 -1.32171 31.53C-1.2549 64.7027 -1.2048 97.8754 -1.13799 131.048C-1.02108 197.394 -0.920874 189.536 -0.703754 255.881C-0.636948 275.383 -0.820665 294.9 -0.43653 314.401C-2.02317 314.987 -1.88956 317.348 -0.353023 317.728C0.0144106 333.791 0.799381 349.823 2.48623 365.823C2.36932 365.887 2.25241 365.934 2.1355 366.014C0.431948 367.122 0.431948 368.976 2.1355 370.069C6.16057 372.683 10.9205 372.683 15.7806 372.889C21.2253 373.111 26.7201 373.047 32.1648 373.095C43.4383 373.206 54.6951 373.222 65.9687 373.237C88.165 373.269 110.361 373.301 132.558 373.332C176.599 373.396 220.658 373.428 264.7 373.428C276.992 373.428 289.284 373.459 301.577 373.428C313.752 373.396 326.579 373.982 338.186 370.449C338.604 370.323 338.921 370.132 339.205 369.911C339.656 372.271 343.264 372.255 343.598 369.784C345.235 357.633 345.702 345.403 345.869 333.174C346.571 332.017 346.654 330.56 345.919 329.372C345.953 325.966 345.986 322.56 346.003 319.154C346.103 302.583 346.187 285.997 346.287 269.41C346.47 235.952 346.671 276.682 346.855 243.224C347.239 176.007 347.022 108.79 346.971 41.5579L346.938 -14.5062ZM285.293 -60.9385C292.725 -61.0019 300.14 -61.0336 307.573 -61.1445C317.577 -61.287 327.798 -61.3979 337.251 -64.3128C336.082 -58.3721 336.266 -52.2889 336.099 -46.1581C335.865 -37.7303 335.898 -29.2708 335.832 -20.8429C335.798 -16.1063 335.798 -11.3696 335.798 -6.63287C331.64 -5.03284 327.798 -3.17935 323.239 -2.40311C318.445 -1.59517 313.418 -1.61102 308.642 -2.45063C299.055 -4.12986 290.353 -8.99329 284.575 -16.5023C279.063 -23.6628 276.107 -32.55 276.491 -41.4056C276.792 -48.1542 279.431 -56.5187 285.31 -60.9385H285.293ZM247.23 79.6891C258.42 82.4772 267.756 90.0179 271.798 100.378C273.618 105.052 274.42 110.105 274.12 115.08C273.769 120.703 271.347 125.424 270.011 130.811C269.71 132.03 271.297 132.981 272.266 132.062C272.95 131.413 273.468 130.636 274.036 129.892C274.17 129.923 274.303 129.923 274.403 129.812C286.479 117.488 308.141 118.153 318.379 132.173C319.214 133.329 321.585 133.424 321.903 131.729C323.205 124.585 328.6 118.565 335.748 116.252C335.748 120.593 335.748 124.949 335.748 129.29C335.731 166.518 335.815 180.997 335.965 197.916C329.485 192.071 322.12 186.986 315.172 181.694C311.097 178.589 307.055 175.469 302.88 172.474C300.775 170.969 298.654 169.48 296.5 168.039C294.278 166.55 292.057 164.775 289.401 164.094C288.383 163.825 287.464 164.047 286.746 164.506C283.188 164.348 280.8 166.676 277.961 168.72C274.955 170.874 271.982 173.061 269.026 175.278C263.147 179.698 257.385 184.261 251.773 188.997C246.328 193.592 240.934 198.376 235.99 203.445C233.435 206.059 230.879 208.689 228.458 211.398C228.04 211.873 227.589 212.348 227.155 212.839C213.209 196.142 199.146 179.54 184.8 163.144C172.29 148.854 159.948 133.646 144.516 122.082C143.614 121.4 142.512 121.337 141.593 121.67C140.391 121.084 138.921 121.068 137.384 122.066C131.238 126.121 125.86 131.476 120.299 136.228L103.597 150.502C92.2067 160.245 80.833 169.971 69.4426 179.714C49.8517 196.475 30.5281 213.378 11.8725 231.042C11.9226 200.182 11.9894 169.306 12.0395 138.446C25.885 137.813 39.3298 138.89 52.1732 144.371C53.6429 144.989 55.263 144.26 55.3465 142.644C56.5824 118.549 64.9332 90.8734 89.6514 79.4356C101.209 74.0969 114.837 73.9226 126.144 79.895C131.105 82.5247 135.514 86.2 138.704 90.6674C142.144 95.4833 142.729 100.489 144.366 105.876C144.783 107.254 147.238 107.46 147.522 105.876C147.656 105.131 147.723 104.386 147.756 103.658C156.224 102.961 164.14 102.327 172.658 104.545C182.061 107 190.462 110.929 198.111 116.664C199.681 117.836 202.67 117.266 202.503 114.937C200.85 91.7922 223.464 73.7167 247.23 79.6574V79.6891ZM336.032 208.388C336.132 219.873 336.266 234.083 336.383 256.737C336.383 257.513 336.383 258.274 336.383 259.05C334.813 256.119 333.226 253.204 331.673 250.273C326.963 241.37 322.387 232.404 317.761 223.469C309.026 206.598 300.257 189.964 290.27 173.758C291.89 175.199 293.493 176.657 295.163 178.035C298.654 180.934 302.195 183.77 305.752 186.574C313.034 192.293 320.232 198.106 327.698 203.588C329.619 204.998 332.926 207.691 336.015 208.372L336.032 208.388ZM75.6221 186.938C86.7787 177.449 97.9353 167.944 109.092 158.454L125.827 144.213C130.253 140.442 135.113 136.799 139.439 132.807C140.925 138.906 144.165 145.131 146.32 150.771C149.326 158.645 152.349 166.518 155.305 174.391C161.117 189.869 166.979 205.314 172.992 220.713C179.021 236.127 185.401 251.43 191.48 266.828C194.587 274.67 197.643 282.527 200.733 290.385C202.336 294.456 203.656 299.209 205.51 303.565C162.236 299.906 118.645 299.589 75.3048 302.757C62.3945 303.692 49.5177 305.086 36.6909 306.718C27.9894 307.827 19.6721 309.49 11.3213 311.454C11.5552 297.149 11.5217 282.828 11.5719 268.523C11.6721 235.35 11.789 276.365 11.8391 243.192C11.8391 241.703 11.8391 240.214 11.8391 238.725C33.7181 222.123 54.7285 204.681 75.6054 186.922L75.6221 186.938ZM197.259 264.341C191.28 248.927 185.551 233.418 179.506 218.035C173.56 202.922 167.464 187.873 161.301 172.839C158.111 165.013 154.971 157.171 151.814 149.345C149.827 144.403 148.157 138.494 145.702 133.329C153.318 144.197 162.403 154.225 171.121 164.237C182.044 176.768 192.833 189.393 203.556 202.083C225.318 227.826 246.579 253.901 267.723 280.088C277.443 292.127 287.08 304.246 296.834 316.255C290.387 315.066 283.94 313.926 277.56 312.817C256.132 309.11 234.537 306.258 212.858 304.231C212.14 302.092 211.188 299.985 210.37 297.878C208.95 294.25 207.531 290.622 206.111 286.995C203.155 279.438 200.182 271.897 197.242 264.341H197.259ZM279.381 236.238C279.447 236.396 279.531 236.554 279.598 236.729C278.429 236.76 277.243 236.792 276.09 236.792C269.343 236.792 262.595 236.745 255.865 236.776C252.925 236.776 249.986 236.824 247.063 236.84C243.572 232.594 240.065 228.364 236.541 224.15C244.291 224.388 252.124 224.182 259.79 224.293C259.823 224.293 259.856 224.293 259.873 224.293C260.207 224.99 261.46 224.99 261.827 224.325C267.222 224.404 272.6 224.483 277.994 224.562C278.479 224.562 278.963 224.594 279.447 224.61C279.364 225.006 279.264 225.402 279.197 225.782C278.963 227.16 279.063 228.649 279.03 230.028C278.996 231.327 278.896 232.642 278.93 233.941C278.946 234.669 279.08 235.541 279.381 236.222V236.238ZM250.303 240.784C252.157 240.784 254.011 240.816 255.865 240.816C262.612 240.832 269.36 240.816 276.09 240.8C282.337 240.8 289.034 241.465 295.147 240.087C296.483 239.786 296.483 237.806 295.147 237.505C291.088 236.586 286.779 236.586 282.52 236.681C282.871 235.857 283.155 235.034 283.205 234.115C283.272 232.768 283.138 231.39 283.105 230.043C283.072 228.729 283.155 227.35 282.988 226.035C282.938 225.624 282.821 225.18 282.721 224.736C287.13 224.927 291.69 225.085 295.765 223.929C296.683 223.675 296.683 222.408 295.765 222.154C290.387 220.633 284.257 221.426 278.696 221.505C273.368 221.584 268.057 221.663 262.729 221.742C262.796 221.172 262.829 220.586 262.813 220.016C262.796 218.685 262.763 217.338 262.746 216.008C262.729 214.677 262.696 213.33 262.679 212C262.679 211.208 262.646 210.511 262.362 209.75C262.261 209.465 262.161 209.148 262.011 208.895C261.794 208.53 261.293 208.293 261.142 207.913C261.042 207.659 260.708 207.659 260.591 207.913C260.424 208.293 259.923 208.53 259.723 208.895C259.573 209.164 259.489 209.481 259.372 209.75C259.088 210.495 259.071 211.192 259.055 212C259.038 213.33 259.005 214.677 258.988 216.008C258.971 217.338 258.938 218.685 258.921 220.016C258.921 220.618 258.921 221.204 259.021 221.79C251.021 221.885 242.854 221.663 234.771 221.98C233.618 220.602 232.483 219.208 231.33 217.829C232.015 217.212 232.7 216.61 233.368 216.023C236.023 213.758 238.629 211.461 241.318 209.212C246.813 204.617 252.19 199.912 257.719 195.35C263.097 190.914 268.558 186.558 274.136 182.344C276.925 180.253 279.731 178.193 282.57 176.181C283.79 175.31 285.376 174.423 286.779 173.409C294.095 190.962 302.545 207.833 311.247 224.832C315.84 233.798 320.466 242.733 325.026 251.715C327.381 256.357 329.635 261.03 331.99 265.672C333.293 268.238 334.579 270.82 336.5 272.911C336.583 286.203 336.65 299.494 336.733 312.769C336.75 316.983 336.767 321.181 336.8 325.395C328.333 322.845 319.648 320.801 310.896 318.963C310.863 318.916 310.846 318.853 310.813 318.805C291.823 292.017 271.147 266.274 250.337 240.737L250.303 240.784ZM38.2275 -61.2237C49.4843 -60.9227 60.7578 -60.9544 72.0313 -60.8276C94.2276 -60.59 116.407 -60.6692 138.604 -60.6692C182.645 -60.6692 226.671 -60.6692 270.712 -60.7959C273.451 -60.7959 276.191 -60.8593 278.913 -60.8752C270.813 -52.9543 270.245 -37.3818 273.151 -27.6391C278.078 -11.1636 292.859 0.57515 310.763 2.42864C315.623 2.93558 320.583 2.65042 325.376 1.68407C328.75 0.987038 332.541 -0.0585251 335.765 -1.73775C335.765 8.4802 335.765 18.6982 335.765 28.9161C335.748 56.8293 335.731 84.7267 335.715 112.64C328.065 114.731 321.786 120.181 319.13 127.309C313.619 121.527 305.819 117.852 297.502 117.598C289.034 117.345 281.468 120.814 275.973 126.628C280.132 117.995 278.796 105.955 275.389 97.9705C270.629 86.8654 260.525 78.8494 248.299 75.9187C223.731 70.0097 200.299 87.1347 197.593 110.153C190.796 105.448 182.863 101.963 174.645 100.489C166.128 98.9685 156.107 98.1923 147.505 100.505C146.119 91.507 137.819 82.9683 130.32 78.5168C119.13 71.8632 105.334 71.4196 93.1754 75.9504C80.7495 80.5762 68.9916 89.5585 62.3277 100.616C55.1962 112.45 52.0396 126.248 51.2546 139.809C38.7953 135.278 24.9665 133.583 12.0061 137.021C12.0562 106.066 12.123 75.1266 12.1731 44.1876C12.1731 38.2469 12.1731 32.2904 12.1898 26.3497C43.121 24.3062 74.0522 22.3418 105.033 20.916C107.171 20.821 108.14 18.5239 106.737 17.0189C94.6952 4.21877 75.7891 -2.0229 57.9519 0.796936C55.597 1.1613 53.3423 1.74744 51.0542 2.38112C46.7452 3.58509 44.24 3.47421 40.9164 0.400894C37.7431 -2.54568 34.2191 -4.66848 29.7765 -5.44473C22.7118 -6.66455 16.432 -3.93976 12.2065 1.08209C12.2065 -2.94173 12.2065 -6.98138 12.2065 -11.0052C12.2065 -20.3519 12.2733 -29.6985 12.1898 -39.0452C12.1063 -47.1403 12.5906 -55.4097 11.1543 -63.4257C20.1397 -62.4276 28.9748 -61.4771 38.1774 -61.2237H38.2275ZM12.2399 22.3893C12.2399 15.7041 12.2399 9.01883 12.2566 2.31775C19.455 -4.65264 31.3965 -4.68432 38.3778 2.84053C40.6993 5.34354 42.7035 7.78316 46.478 7.79901C50.3527 7.83069 54.1273 6.10394 57.9018 5.45442C72.8664 2.88805 88.2485 7.3396 99.522 16.7179C70.4447 18.9041 41.3506 20.6942 12.2399 22.3735V22.3893ZM338.17 365.649C327.999 362.544 317.376 362.909 306.687 362.719C295.431 362.528 284.14 362.671 272.884 362.671H206.295C162.253 362.671 118.194 362.782 74.1524 362.845C61.8601 362.861 49.5678 362.845 37.2755 362.956C31.1293 363.019 24.9832 363.019 18.837 363.13C15.5134 363.194 11.956 363.13 8.63239 363.685C10.1856 348.144 10.8871 332.587 11.2211 316.999C18.7368 316.476 26.2525 315.938 33.7849 315.146C44.7076 313.989 55.6304 312.833 66.5866 311.993C88.8497 310.266 111.13 309.205 133.459 309.157C178.353 309.062 223.247 312.595 267.489 319.819C279.598 321.799 291.673 324.049 303.664 326.583C314.754 328.912 325.761 331.779 336.867 334.045C337.034 344.691 337.435 355.32 338.654 365.903C338.487 365.823 338.337 365.728 338.136 365.665L338.17 365.649Z" fill="#3A0505"/>
<path d="M105.702 221.362C112.633 221.378 119.548 221.362 126.479 221.346C132.892 221.346 139.773 222.027 146.036 220.617C147.422 220.301 147.422 218.289 146.036 217.972C141.861 217.037 137.452 217.037 133.059 217.132C133.41 216.293 133.711 215.437 133.761 214.487C133.827 213.108 133.694 211.699 133.66 210.304C133.627 208.942 133.711 207.532 133.527 206.186C133.477 205.758 133.36 205.298 133.26 204.855C137.786 205.061 142.462 205.203 146.654 204.031C147.606 203.762 147.606 202.479 146.654 202.209C141.143 200.657 134.846 201.465 129.134 201.544C123.673 201.623 118.212 201.702 112.75 201.797C112.817 201.211 112.85 200.609 112.834 200.023C112.817 198.645 112.784 197.283 112.75 195.904C112.733 194.526 112.7 193.164 112.683 191.785C112.683 190.962 112.65 190.265 112.366 189.488C112.266 189.203 112.166 188.871 112.015 188.601C111.798 188.221 111.28 187.983 111.113 187.603C110.996 187.35 110.662 187.35 110.562 187.603C110.395 187.983 109.877 188.237 109.66 188.601C109.51 188.871 109.41 189.203 109.31 189.488C109.026 190.265 109.009 190.977 108.992 191.785C108.959 193.164 108.942 194.526 108.909 195.904C108.875 197.283 108.859 198.645 108.825 200.023C108.825 200.641 108.825 201.243 108.926 201.845C97.034 201.988 84.7751 201.354 72.9839 202.922C72.7667 202.954 72.7667 203.302 72.9839 203.334C85.0257 204.934 97.5685 204.221 109.727 204.411C109.761 204.411 109.794 204.411 109.827 204.411C110.161 205.124 111.464 205.124 111.832 204.443C117.36 204.522 122.905 204.617 128.433 204.696C128.917 204.696 129.418 204.728 129.919 204.744C129.819 205.156 129.736 205.552 129.669 205.948C129.418 207.358 129.535 208.895 129.502 210.32C129.468 211.651 129.368 213.013 129.402 214.344C129.418 215.105 129.552 215.992 129.869 216.689C129.936 216.847 130.02 217.021 130.086 217.18C128.884 217.211 127.665 217.243 126.479 217.243C119.548 217.243 112.633 217.196 105.702 217.227C99.8566 217.243 94.0445 217.259 88.2323 217.37C88.249 216.926 88.2657 216.467 88.249 215.992C88.2323 214.756 88.1989 213.505 88.1822 212.269C88.1655 211.033 88.1989 209.782 88.082 208.546C88.0152 207.833 87.9651 207.12 87.6478 206.471C87.5476 206.265 87.4474 206.011 87.3138 205.821C87.0966 205.52 86.9296 205.473 86.8127 205.124C86.6791 204.712 86.0778 204.712 85.9442 205.124C85.8273 205.473 85.6603 205.52 85.4432 205.821C85.3096 205.996 85.2094 206.265 85.1092 206.471C84.7918 207.12 84.7584 207.849 84.6749 208.546C84.5413 209.782 84.5914 211.033 84.5747 212.269C84.558 213.505 84.5246 214.756 84.5079 215.992C84.5079 216.483 84.5079 216.958 84.5413 217.433C77.7438 217.623 70.9463 218.004 64.1488 218.843C63.5308 218.922 63.5308 219.683 64.1488 219.762C77.9609 221.457 91.7898 221.346 105.702 221.378V221.362Z" fill="#3A0505"/>
<path d="M143.547 262.075C143.514 260.697 143.497 259.335 143.464 257.957C143.447 256.578 143.413 255.216 143.397 253.838C143.397 253.014 143.363 252.317 143.079 251.541C142.979 251.255 142.879 250.923 142.729 250.653C142.512 250.273 141.994 250.036 141.827 249.655C141.71 249.402 141.376 249.402 141.276 249.655C141.109 250.036 140.591 250.289 140.374 250.653C140.223 250.923 140.123 251.255 140.023 251.541C139.739 252.317 139.722 253.03 139.706 253.838C139.672 255.216 139.656 256.578 139.622 257.957C139.605 259.335 139.572 260.697 139.539 262.075C139.539 262.693 139.539 263.295 139.639 263.897C127.747 264.04 115.489 263.406 103.697 264.974C103.48 265.006 103.48 265.355 103.697 265.386C115.739 266.986 128.282 266.273 140.441 266.464C140.474 266.464 140.507 266.464 140.541 266.464C140.875 267.176 142.178 267.176 142.545 266.495C148.073 266.574 153.618 266.67 159.146 266.749C159.631 266.749 160.132 266.78 160.633 266.796C160.532 267.208 160.449 267.604 160.382 268C160.132 269.41 160.249 270.947 160.215 272.373C160.182 273.703 160.082 275.066 160.115 276.396C160.132 277.157 160.265 278.044 160.583 278.741C160.649 278.915 160.733 279.074 160.8 279.232C159.597 279.264 158.378 279.295 157.192 279.295C150.261 279.295 143.347 279.248 136.415 279.28C130.57 279.295 124.758 279.311 118.946 279.422C118.962 278.979 118.979 278.519 118.962 278.044C118.946 276.808 118.912 275.557 118.896 274.321C118.879 273.085 118.912 271.834 118.795 270.598C118.729 269.885 118.678 269.173 118.361 268.523C118.261 268.317 118.161 268.064 118.027 267.873C117.81 267.573 117.643 267.525 117.526 267.176C117.392 266.765 116.791 266.765 116.658 267.176C116.541 267.525 116.374 267.573 116.157 267.873C116.023 268.064 115.923 268.317 115.823 268.523C115.505 269.173 115.472 269.901 115.388 270.598C115.255 271.834 115.305 273.085 115.288 274.321C115.271 275.557 115.238 276.808 115.221 278.044C115.221 278.535 115.221 279.01 115.255 279.486C108.457 279.676 101.66 280.056 94.8621 280.895C94.2442 280.975 94.2442 281.735 94.8621 281.814C108.674 283.509 122.503 283.398 136.415 283.43C143.347 283.446 150.261 283.43 157.192 283.414C163.606 283.414 170.487 284.096 176.75 282.686C178.136 282.369 178.136 280.357 176.75 280.04C172.574 279.089 168.165 279.105 163.773 279.2C164.123 278.361 164.424 277.505 164.474 276.555C164.541 275.177 164.407 273.767 164.374 272.373C164.34 271.01 164.424 269.6 164.24 268.254C164.19 267.826 164.073 267.367 163.973 266.923C168.499 267.129 173.175 267.272 177.368 266.099C178.32 265.83 178.32 264.547 177.368 264.277C171.856 262.725 165.56 263.533 159.848 263.612C154.386 263.691 148.925 263.77 143.464 263.866C143.53 263.279 143.564 262.677 143.547 262.091V262.075Z" fill="#3A0505"/>
<path d="M269.895 21.7714C271.314 19.9655 273.135 18.3338 274.972 16.8763C275.089 16.7813 275.206 16.7021 275.306 16.607C275.339 16.5753 275.707 16.306 275.523 16.4327C275.356 16.5595 275.723 16.2902 275.757 16.2743C275.89 16.1793 276.041 16.0842 276.174 15.9733C276.675 15.6407 277.193 15.308 277.711 15.007C278.245 14.706 278.78 14.4367 279.281 14.104C280.049 13.6129 280.851 13.2327 281.118 12.3297C281.285 11.7436 281.018 10.8406 280.366 10.5871C279.765 10.3495 279.214 10.2386 278.579 10.4445C278.229 10.5554 277.878 10.7139 277.544 10.8406C276.893 11.1099 276.308 11.4267 275.707 11.8069C274.521 12.5515 273.402 13.3911 272.35 14.2941C270.329 16.0367 268.759 18.1753 267.54 20.4724C267.206 21.0902 267.373 21.8665 268.024 22.2308C268.709 22.611 269.427 22.3259 269.878 21.7714H269.895Z" fill="#3A0505"/>
<path d="M310.763 32.8924C311.03 33.13 311.348 33.336 311.749 33.336C312.149 33.336 312.467 33.1142 312.751 32.829C313.452 32.3379 313.602 31.7201 313.719 30.8805C313.769 30.4686 313.836 30.0567 313.82 29.6448C313.786 28.7102 313.686 27.7755 313.619 26.8567C313.552 25.8586 313.285 24.8764 313.085 23.8943C312.901 22.9754 312.383 22.1358 311.982 21.2804C311.582 20.4407 310.296 20.7734 310.045 21.518C309.744 22.4368 309.394 23.3081 309.327 24.2745C309.26 25.1616 309.126 26.0646 309.177 26.9676C309.227 27.8705 309.26 28.7577 309.327 29.6607C309.41 30.7538 309.678 32.3221 310.763 32.9082V32.8924Z" fill="#3A0505"/>
</g>
</svg>
