<svg width="345" height="320" viewBox="0 0 345 320" fill="none" xmlns="http://www.w3.org/2000/svg">
<path d="M13.9346 319.958H330.396V182.803C330.396 181.753 330.477 180.662 330.477 179.57C330.477 88.4411 259.597 14.5303 172.206 14.5303C84.8143 14.5303 15.5858 86.8033 14.0151 176.546H13.9346V179.528C13.9346 179.528 13.9346 179.57 13.9346 179.612C13.9346 179.612 13.9346 179.654 13.9346 179.696V320V319.958Z" fill="#363635"/>
<g style="mix-blend-mode:screen">
<path d="M172.206 17.9318C252.872 17.9318 319.482 80.672 329.591 161.932C321.134 79.0762 253.919 14.5303 172.206 14.5303C90.4927 14.5303 23.2375 79.1602 14.8608 162.1C24.8887 80.798 91.4995 17.9318 172.206 17.9318Z" fill="white"/>
</g>
<path d="M0.0402504 319.958H13.9343V179.654C13.9343 179.654 13.9343 179.612 13.9343 179.57C13.9343 179.57 13.9343 179.528 13.9343 179.486V176.504H14.0148C15.5855 86.7611 85.7805 14.4882 172.205 14.4882C258.63 14.4882 330.477 88.3989 330.477 179.528C330.477 180.619 330.436 181.669 330.396 182.761V319.916H344.29V182.887C344.29 182.551 344.29 182.257 344.29 181.921C344.29 181.123 344.33 180.325 344.33 179.528C344.33 80.5459 267.088 0 172.165 0C126.738 0 83.8877 18.3097 51.5086 51.5276C22.4318 81.3438 4.75213 120.147 0.845689 162.016H0.0805009L0 176.504V179.234V179.528C0 179.612 0 179.696 0 179.738V319.874L0.0402504 319.958Z" fill="#3F413F"/>
<path d="M0.0405273 248.399H13.9345V179.654C13.9345 179.654 13.9345 179.612 13.9345 179.57C13.9345 179.57 13.9345 179.528 13.9345 179.486V178.478H0.725154C0.483518 178.478 0.24189 178.436 0.0405273 178.352V179.528C0.0405273 179.528 0.0405273 179.696 0.0405273 179.738V248.315V248.399Z" fill="#575857"/>
<path d="M13.9345 253.103H0.0405273V291.864H13.9345V253.103Z" fill="#575857"/>
<path d="M13.9345 296.567H0.0405273V319.958H13.9345V296.567Z" fill="#575857"/>
<path d="M108.534 12.7664C91.2173 19.9475 75.0277 30.1102 60.5698 43.0026C62.8654 47.328 65.1609 51.6535 67.4161 56.021C80.6658 43.8005 95.8889 33.8477 112.521 26.7506C111.152 22.0892 109.823 17.4278 108.534 12.7664Z" fill="#575857"/>
<path d="M112.723 11.0866C114.052 15.748 115.381 20.4094 116.71 25.0289C132.255 18.9396 148.968 15.2861 166.406 14.6562V0.125977C147.841 0.755898 129.758 4.49343 112.723 11.0446V11.0866Z" fill="#575857"/>
<path d="M31.1307 104.945C39.5074 87.7692 50.6629 72.3151 63.9931 59.2547C61.6976 54.8873 59.402 50.4778 57.1065 46.1104C55.2137 47.8741 53.3612 49.6799 51.5489 51.5277C38.4603 64.924 27.7075 80.2101 19.4517 96.714C23.3178 99.4857 27.2242 102.215 31.1307 104.903V104.945Z" fill="#575857"/>
<path d="M17.4381 100.914C8.53786 119.937 2.89967 140.557 0.926317 162.016H0.161129L0.0805664 173.9C0.281929 173.858 0.523619 173.774 0.765254 173.774H14.176C14.9411 150.719 20.2571 128.882 29.1574 109.145C25.2509 106.415 21.3445 103.685 17.4381 100.872V100.914Z" fill="#575857"/>
<path d="M245.018 16.9241C243.246 21.3755 241.515 25.869 239.823 30.3204C253.637 37.1236 266.403 45.9424 277.679 56.4831C280.297 52.4936 282.955 48.5041 285.653 44.5986C273.531 33.512 259.839 24.1892 245.059 16.9241H245.018Z" fill="#575857"/>
<path d="M240.951 14.9921C219.888 5.37532 196.651 0.0419922 172.206 0.0419922C171.763 0.0419922 171.36 0.0419922 170.917 0.0419922V14.5302C171.36 14.5302 171.763 14.5302 172.206 14.5302C194.799 14.5302 216.304 19.4856 235.756 28.3885C237.447 23.895 239.179 19.4436 240.951 14.9921Z" fill="#575857"/>
<path d="M314.287 106.793C323.872 127.118 329.591 149.795 330.396 173.816H344.29C343.485 146.814 336.88 121.323 325.805 98.5618C321.979 101.333 318.153 104.063 314.287 106.793Z" fill="#575857"/>
<path d="M312.233 102.593C316.1 99.8635 319.926 97.1759 323.711 94.3622C314.61 76.8504 302.85 61.1024 288.956 47.7061C286.258 51.6956 283.64 55.6851 280.982 59.6746C293.507 72.063 304.098 86.5092 312.233 102.551V102.593Z" fill="#575857"/>
<path d="M330.436 248.399H344.33V182.929C344.33 182.593 344.33 182.299 344.33 181.963C344.33 181.165 344.371 180.368 344.371 179.57C344.371 179.234 344.371 178.856 344.371 178.52H330.477C330.477 178.898 330.477 179.234 330.477 179.57C330.477 180.662 330.436 181.711 330.396 182.803V248.399H330.436Z" fill="#575857"/>
<path d="M344.331 253.103H330.437V291.864H344.331V253.103Z" fill="#575857"/>
<path d="M344.331 296.567H330.437V319.958H344.331V296.567Z" fill="#575857"/>
<mask id="mask0_1_3132" style="mask-type:luminance" maskUnits="userSpaceOnUse" x="15" y="14" width="315" height="300">
<path d="M15.7041 314H329.705V179.476C329.729 178.427 329.789 177.378 329.789 176.328C329.789 86.9382 259.475 14.4607 172.741 14.4607C86.0064 14.4607 17.3209 85.3087 15.776 173.329H15.7041V176.242C15.7041 176.242 15.7041 176.291 15.7041 176.316C15.7041 176.341 15.7041 176.365 15.7041 176.402V314Z" fill="white"/>
</mask>
<g mask="url(#mask0_1_3132)">
<path d="M140.344 193.241C137.985 193.488 135.302 194.105 132.835 193.784C131.074 194.932 129.374 196.154 127.96 197.673C124.427 201.45 122.595 206.574 123.289 211.512C123.984 216.437 127.014 221.276 131.422 224.227C135.949 227.264 141.757 228.029 146.991 226.856C156.776 224.684 163.71 216.326 161.818 207.006C159.89 197.525 150.309 192.216 140.332 193.241H140.344ZM154.297 215.413C153.782 216.018 153.183 216.301 152.428 216.585C151.327 216.993 149.746 216.771 148.56 216.746C147.506 216.734 146.452 216.721 145.398 216.709C144.668 216.709 143.913 216.709 143.206 216.524C143.027 216.474 142.847 216.4 142.68 216.338C142.093 216.659 141.434 216.857 140.632 216.857C139.075 216.857 137.733 216.104 136.919 214.919C135.853 213.388 136.296 211.684 136.5 210.018C136.631 208.907 136.763 207.808 136.895 206.697C137.063 205.314 137.302 203.993 137.637 202.636C137.757 202.154 137.853 201.648 137.997 201.179C138.212 200.5 138.679 199.895 139.063 199.278C139.925 197.883 142.679 197.66 143.458 199.278C143.757 199.895 144.189 200.525 144.368 201.179C144.56 201.87 144.584 202.673 144.692 203.376C144.847 204.487 144.991 205.574 145.003 206.697C145.027 207.845 145.051 208.993 145.063 210.141C145.063 210.314 145.075 210.487 145.087 210.672C145.195 210.672 145.29 210.647 145.398 210.635C146.452 210.536 147.506 210.45 148.56 210.351C149.806 210.24 151.207 209.956 152.428 210.289C153.997 210.734 154.991 211.956 155.063 213.425C155.099 214.141 154.764 214.845 154.297 215.4V215.413Z" fill="#B2A6A1"/>
<path d="M178.621 210.746C178.705 204.314 178.777 197.883 178.86 191.451C178.908 187.982 179.028 184.525 179.184 181.056C179.244 179.563 179.304 178.057 179.531 176.588C170.74 176.575 161.842 176.674 153.111 175.872C149.566 175.551 145.997 175.106 142.44 174.649C139.398 176.304 135.469 176.316 131.984 176.501C128.02 176.699 124.032 176.686 120.068 176.773C116.103 176.859 112.127 176.748 108.151 176.699C106.067 176.674 104.043 176.439 101.971 176.205C101.276 176.118 100.69 175.921 100.079 175.748C101.492 181.131 101.097 186.859 101.157 192.352C101.24 198.883 101.216 205.426 101.205 211.956C101.205 218.487 101.193 225.029 101.181 231.56C101.181 236.967 101.432 242.288 99.9829 247.46C102.426 246.683 105.289 246.584 107.72 246.473C112.319 246.25 116.906 246.201 121.505 246.189C126.128 246.176 130.679 246.275 135.29 246.571C136.499 246.645 137.697 246.744 138.871 246.855C142.5 246.695 146.129 246.596 149.71 246.436C156.021 246.164 162.381 245.818 168.704 245.831C172.848 245.831 177.447 245.646 181.699 246.337C177.004 235.177 178.417 222.499 178.561 210.746H178.621ZM169.339 177.526C177.663 177.526 177.651 189.229 169.339 189.229C161.027 189.229 161.027 177.526 169.339 177.526ZM114.546 180.328C121.409 180.328 121.397 189.982 114.546 189.982C107.696 189.982 107.696 180.328 114.546 180.328ZM115.481 237.856C115.265 238.448 114.906 238.967 114.391 239.399C113.912 239.868 113.337 240.201 112.678 240.399C112.043 240.695 111.361 240.843 110.63 240.819C109.672 240.819 108.786 240.596 107.959 240.164L106.881 239.411C106.223 238.806 105.768 238.103 105.516 237.288L105.324 236.004C105.3 235.337 105.444 234.72 105.78 234.152C105.995 233.56 106.354 233.041 106.881 232.609C107.36 232.14 107.935 231.807 108.582 231.609C109.217 231.313 109.899 231.165 110.63 231.19C111.588 231.19 112.474 231.412 113.301 231.844C113.66 232.091 114.019 232.35 114.379 232.597C115.037 233.202 115.493 233.905 115.744 234.72C115.804 235.152 115.876 235.572 115.936 236.004C115.96 236.671 115.816 237.288 115.481 237.856ZM157.722 233.054C146.859 238.424 133.35 237.51 123.936 230.116C115.145 223.202 111.037 210.87 115.469 200.92C117.768 195.759 121.684 191.463 126.75 188.328C128.727 187.106 130.942 186.328 133.242 185.772C137.002 183.809 142.248 183.661 146.2 184.093C158.524 185.439 169.004 193.327 171.303 204.635C173.543 215.684 168.92 227.511 157.722 233.054ZM171.291 241.189C164.8 241.189 164.812 232.054 171.291 232.054C177.771 232.054 177.771 241.189 171.291 241.189Z" fill="#84807F"/>
<path d="M195.137 229.523C195.137 220.203 195.125 210.894 195.113 201.574C195.113 192.254 195.005 182.933 195.089 173.625C195.137 168.81 195.065 163.934 195.352 159.132C195.46 157.379 195.592 155.601 196.011 153.935C195.52 153.873 195.005 153.861 194.526 153.737C193.903 153.589 193.316 153.342 192.73 153.145C192.742 153.182 192.765 153.219 192.777 153.256C193.137 154.033 193.041 155.058 193.053 155.897C193.065 156.675 193.089 157.453 193.101 158.243C193.604 160.811 192.023 163.737 188.238 163.86C184.43 163.983 180.537 163.28 176.693 163.218C173.112 163.156 169.543 163.107 165.974 163.045C159.986 162.959 154.009 162.786 148.033 162.588C147.051 162.983 145.961 163.033 144.907 163.169C142.081 163.502 139.254 163.872 136.404 164.02C130.943 164.304 125.469 164.453 119.996 164.662C109.205 165.082 97.5759 165.428 87.1802 162.342C86.797 162.23 86.5694 161.996 86.3299 161.774C86.0904 161.749 85.8508 161.774 85.6233 161.687C85.1442 161.502 84.725 161.193 84.4616 160.786C84.2699 160.49 84.0903 160.021 84.1262 159.675C84.1621 159.329 84.1621 158.996 84.1262 158.663C84.1621 158.897 84.1981 159.132 84.234 159.366C84.1621 158.86 84.1382 158.552 84.1981 158.157C84.1981 158.181 84.1981 158.206 84.1981 158.218C84.246 157.885 84.222 157.539 84.1981 157.206C84.1502 157.021 84.1023 156.836 84.0304 156.651C83.8987 156.416 83.7669 156.169 83.5873 155.959C83.707 156.095 83.8268 156.243 83.9466 156.379C83.743 156.157 83.707 155.897 83.5753 155.675C83.4675 155.614 83.3477 155.552 83.2399 155.502C83.0363 155.441 82.8208 155.391 82.6052 155.342C82.4495 155.342 82.3058 155.342 82.1501 155.342C83.0842 158.021 83.0842 161.119 83.3597 163.848C83.8268 168.489 83.6232 173.23 83.6711 177.896C83.7549 186.587 83.8148 195.29 83.7789 203.981C83.7549 212.672 83.719 221.375 83.6831 230.066C83.6471 238.572 84.4735 247.818 81.144 255.88C81.2638 255.941 81.4075 255.978 81.5153 256.077C81.6471 256.176 81.7908 256.262 81.9225 256.361C82.0303 256.435 82.1381 256.522 82.2459 256.596C82.4734 256.756 82.713 256.929 82.9405 257.089C83.3837 257.41 83.8388 257.731 84.2819 258.052C84.6652 258.324 85.0604 258.596 85.4316 258.88C85.6353 259.04 85.8269 259.225 86.0185 259.398C86.0425 259.423 86.0425 259.46 86.0664 259.472C90.342 258.275 95.8752 258.83 99.8394 258.805C106.055 258.781 112.271 258.88 118.487 258.917C124.703 258.954 130.919 259.052 137.134 259.262C140.955 259.398 145.841 259.336 150.021 260.299C155.255 260.114 160.513 260.139 165.746 260.089C172.202 260.028 178.669 259.941 185.124 259.941C187.148 259.941 190.706 259.744 193.508 260.423C193.46 260.237 193.352 260.077 193.352 259.879C193.197 259.25 193.233 258.608 193.448 257.978C193.628 257.596 193.807 257.213 193.975 256.843C194.454 256.04 195.137 255.435 195.796 254.769C196.095 254.472 196.442 254.225 196.79 253.966C195.125 250.831 195.197 247.757 195.185 244.004C195.185 239.177 195.185 234.338 195.185 229.511L195.137 229.523ZM188.801 245.065C188.945 247.374 189.077 249.695 189.22 252.003C189.304 253.398 188.226 254.509 186.873 254.978C186.789 255.028 186.753 255.127 186.669 255.164C181.16 257.509 174.07 257.028 168.07 256.991C161.974 256.954 155.866 256.67 149.782 256.398C143.554 256.127 137.17 256.164 130.99 255.374C130.667 255.336 130.344 255.275 130.032 255.225C127.218 255.324 124.403 255.472 121.577 255.46C116.966 255.448 112.391 255.398 107.792 255.176C104.043 254.991 99.2526 255.016 96.7016 252.114C95.4321 252.287 94.0787 251.744 93.4679 250.337C90.845 244.263 91.372 237.955 91.372 231.535C91.372 225.005 91.36 218.462 91.3481 211.931C91.3481 205.401 91.3241 198.858 91.396 192.328C91.4678 186.056 90.7971 179.439 93.0847 173.427C93.4559 172.464 94.2105 171.946 95.0488 171.625C95.1925 170.958 95.5399 170.329 96.2465 170.008C98.1986 169.107 99.8394 168.354 102.031 168.094C104.103 167.847 106.127 167.625 108.211 167.601C112.175 167.551 116.151 167.44 120.128 167.526C124.092 167.613 128.08 167.601 132.044 167.798C134.715 167.934 137.673 167.971 140.296 168.712C144.584 168.131 148.883 167.625 153.159 167.243C162.609 166.378 172.274 166.564 181.771 166.527C185.388 166.514 187.16 169.082 187.113 171.637C187.232 171.761 187.4 171.823 187.508 171.983C189.34 174.724 189.4 177.933 189.532 181.069C189.676 184.538 189.807 187.994 189.855 191.463C189.939 197.895 190.011 204.327 190.095 210.759C190.226 221.116 191.364 232.214 188.43 242.362C188.598 243.275 188.777 244.177 188.825 245.09L188.801 245.065Z" fill="#B2A6A1"/>
<path d="M137.913 69.4083C142.141 69.4207 146.356 69.4453 150.584 69.4577C153.89 69.47 157.303 69.7046 160.525 70.4947C160.046 69.5071 159.59 68.4948 159.04 67.5812C157.387 64.853 155.997 62.2976 154.8 59.3595C152.237 53.1252 149.782 46.854 147.542 40.521C145.302 34.2003 143.482 27.7316 141.698 21.2998C141.194 19.4851 140.656 17.6457 140.141 15.7939C139.817 17.3988 139.482 19.016 139.135 20.6332C137.733 27.102 136.404 33.5584 134.464 39.9161C132.464 46.4589 130.248 52.9401 127.805 59.3595C126.703 62.2605 125.565 65.1369 124.379 68.001C124.152 68.5688 123.936 69.0873 123.721 69.6182C124.343 69.5564 124.906 69.5194 125.254 69.5071C129.481 69.3095 133.697 69.3589 137.925 69.3836L137.913 69.4083ZM150.189 56.2238C150.596 56.5078 151.003 56.7917 151.399 57.0756C152.141 57.7546 152.656 58.557 152.943 59.4829C153.015 59.9644 153.087 60.4458 153.159 60.9273C153.195 61.6803 153.015 62.3717 152.644 63.0259C152.405 63.7049 151.985 64.2851 151.399 64.7789C150.86 65.3098 150.213 65.6801 149.47 65.9023C148.752 66.248 147.985 66.3961 147.159 66.3714C146.069 66.3714 145.063 66.1245 144.129 65.6307C143.722 65.3468 143.314 65.0629 142.919 64.7789C142.177 64.1 141.662 63.2975 141.374 62.3717C141.302 61.8902 141.23 61.4087 141.159 60.9273C141.123 60.1742 141.302 59.4829 141.674 58.8286C141.913 58.1497 142.332 57.5694 142.919 57.0756C143.458 56.5448 144.105 56.1745 144.847 55.9522C145.566 55.6066 146.332 55.4585 147.159 55.4831C148.237 55.4831 149.255 55.73 150.189 56.2238ZM139.985 43.2369C146.632 43.2369 146.62 52.5821 139.985 52.5821C133.35 52.5821 133.35 43.2369 139.985 43.2369ZM128.152 59.7422C128.356 59.1743 128.703 58.6681 129.206 58.2484C129.673 57.804 130.212 57.483 130.847 57.2979C131.458 57.0139 132.104 56.8781 132.811 56.9028C133.733 56.9028 134.583 57.1127 135.386 57.5324C135.733 57.767 136.069 58.0139 136.416 58.2608C137.051 58.841 137.482 59.52 137.721 60.2977C137.781 60.7051 137.841 61.1125 137.901 61.5322C137.925 62.1741 137.781 62.7667 137.458 63.3099C137.254 63.8777 136.907 64.3839 136.404 64.7913C135.937 65.2357 135.398 65.5567 134.763 65.7418C134.152 66.0258 133.506 66.1616 132.799 66.1369C131.877 66.1369 131.026 65.927 130.224 65.5073C129.877 65.2604 129.541 65.0258 129.194 64.7789C128.559 64.1987 128.128 63.5197 127.889 62.742C127.829 62.3346 127.769 61.9272 127.709 61.5075C127.685 60.8656 127.829 60.273 128.152 59.7298V59.7422Z" fill="#84807F"/>
<path d="M115.206 132.466C111.362 132.466 109.517 129.701 109.601 126.998C107.409 131.109 104.99 135.121 102.211 138.886C102.93 138.762 103.685 138.676 104.499 138.614C108.607 138.306 112.799 138.441 116.919 138.392C124.608 138.306 132.297 138.133 139.985 138.12C147.674 138.108 155.363 138.244 163.052 138.306C167.615 138.343 172.753 137.948 177.568 138.454C175.496 135.75 173.747 132.849 172.142 129.899C172.142 129.899 172.142 129.874 172.131 129.874C171.843 130.504 171.496 131.096 170.933 131.565C170.31 132.17 169.58 132.602 168.729 132.849C167.915 133.244 167.029 133.417 166.094 133.38C164.861 133.38 163.711 133.096 162.633 132.528C162.166 132.207 161.711 131.886 161.244 131.553C160.394 130.775 159.807 129.862 159.483 128.812C159.399 128.257 159.316 127.714 159.244 127.158C159.208 126.306 159.399 125.504 159.831 124.763C160.106 123.998 160.573 123.331 161.244 122.763C161.867 122.158 162.597 121.726 163.448 121.479C164.262 121.097 165.148 120.912 166.082 120.949C166.729 120.949 167.352 121.035 167.951 121.195C166.597 117.986 165.4 114.727 164.43 111.406C162.537 104.925 161.148 98.0362 161.064 91.3206C161.028 87.9751 161.172 84.5431 161.663 81.2223C162.01 78.8644 163.052 76.9016 164.118 74.877C163.759 74.6918 163.531 74.4079 163.232 74.1733C161.028 75.0128 158.681 75.4325 156.298 75.7288C157.184 77.0621 157.351 78.7657 157.495 80.2841C157.639 81.7902 157.783 83.2963 157.926 84.8024C158.07 86.3702 158.07 87.9257 158.094 89.5058C158.118 91.2465 157.998 93.3945 156.633 94.7154C156.609 94.7525 156.585 94.7895 156.561 94.8265C155.256 96.8511 152.273 96.6289 150.92 94.8265C150.896 94.8018 150.884 94.7772 150.872 94.7525C150.237 94.1969 149.746 93.518 149.507 92.6291C149.231 91.6045 149.159 90.5428 149.088 89.4935C148.992 87.9874 148.86 86.4813 148.884 84.9752C148.908 83.4691 148.932 81.963 148.956 80.4569C148.98 79.0126 149.088 77.4818 149.734 76.1609C147.579 76.1856 145.423 76.1609 143.303 76.1239C143.662 78.0497 144.034 79.9755 144.153 81.9013L144.405 85.6665C144.501 87.1603 144.728 88.6293 144.213 90.0861C143.746 91.407 142.513 92.2464 140.991 92.3082C139.435 92.3699 138.297 91.2959 137.77 90.0861C137.171 88.6787 137.339 87.1479 137.339 85.6665C137.339 84.4567 137.339 83.2593 137.339 82.0495C137.339 80.0742 137.602 78.0744 137.83 76.0868C135.65 76.0992 133.458 76.1362 131.267 76.1239C131.314 76.5312 131.362 76.9386 131.41 77.3584C131.542 78.8151 131.734 80.2718 131.817 81.7285C131.901 83.1852 131.865 84.6419 131.889 86.0986C131.925 88.0862 131.877 90.1107 130.392 91.6909C129.374 92.7896 127.266 92.6662 126.224 91.6909C124.655 90.2342 124.572 88.0244 124.464 86.0986C124.38 84.6419 124.248 83.1852 124.224 81.7285C124.2 80.2718 124.296 78.8151 124.32 77.3584C124.332 76.8646 124.356 76.4201 124.416 75.9634C122.488 75.8646 120.476 75.6177 119.086 74.6671C118.919 74.7289 118.823 74.8276 118.631 74.877C118.571 74.8893 118.5 74.877 118.44 74.9017C121.757 85.148 119.877 97.3819 117.338 107.394C115.984 112.727 114.032 117.973 111.613 123.072C112.523 122.381 113.649 121.874 115.158 121.874C122.679 121.874 122.667 132.454 115.158 132.454L115.206 132.466ZM152.525 108.678C152.752 108.048 153.136 107.517 153.675 107.06C154.178 106.567 154.777 106.221 155.459 106.023C156.118 105.702 156.836 105.567 157.603 105.591C158.609 105.591 159.543 105.826 160.405 106.283L161.531 107.073C162.214 107.702 162.693 108.443 162.956 109.295C163.016 109.739 163.088 110.184 163.16 110.628C163.184 111.319 163.028 111.961 162.681 112.566C162.453 113.196 162.07 113.727 161.531 114.184C161.028 114.677 160.429 115.023 159.747 115.22C159.088 115.541 158.369 115.677 157.603 115.653C156.597 115.653 155.663 115.418 154.8 114.961C154.429 114.702 154.058 114.43 153.675 114.171C152.992 113.542 152.513 112.801 152.249 111.949C152.178 111.505 152.118 111.06 152.046 110.616C152.01 109.924 152.178 109.283 152.525 108.678ZM150.429 123.208C156.92 123.208 156.908 132.343 150.429 132.343C143.95 132.343 143.95 123.208 150.429 123.208ZM141.95 106.233C149.028 106.233 149.016 116.196 141.95 116.196C134.883 116.196 134.883 106.233 141.95 106.233ZM133.47 121.27C141.866 121.27 141.854 133.084 133.47 133.084C125.087 133.084 125.087 121.27 133.47 121.27ZM125.638 104.814C133.889 104.814 133.877 116.418 125.638 116.418C117.398 116.418 117.41 104.814 125.638 104.814Z" fill="#B2A6A1"/>
<path d="M29.6813 18.7936C38.1967 17.9418 46.7958 17.5715 55.3471 17.0159C62.9761 16.5221 70.6052 16.1024 78.2462 15.6703C75.0485 14.8185 71.8508 13.9667 68.6411 13.1149C57.7065 10.2138 45.8377 7.9547 35.3702 3.85616C31.406 2.30069 28.7711 -0.637421 28.7352 -4.66189C28.6993 -8.73575 31.5976 -12.0566 32.1006 -15.9823C32.9988 -23.0313 28.1364 -28.0927 22.0403 -31.4012C16.0161 -31.7468 10.0757 -32.3764 4.4707 -33.8208C7.896 -15.5996 8.78226 2.81918 8.94993 21.2626C15.573 19.6701 23.1541 19.4479 29.6813 18.7936Z" fill="white"/>
<path d="M68.5446 389.021C67.2631 388.305 67.2631 386.638 68.5446 385.922C71.1195 384.478 73.9939 383.972 76.9402 383.712C77.024 381.503 77.0958 379.317 77.0958 377.169C77.1438 365.257 77.1917 353.344 77.2276 341.431C77.2396 337.9 77.1677 334.382 77.1078 330.863C73.958 330.234 70.9998 329.271 68.5326 327.666C68.1015 327.382 68.1015 326.888 68.5326 326.604C70.9639 325.012 73.8981 324.061 77.024 323.432C76.8922 317.518 76.7006 311.617 76.497 305.704C76.3653 301.754 76.4252 297.779 76.4132 293.816C70.7243 289.298 65.3708 283.718 58.0292 281.31C50.3642 278.792 41.9447 278.619 34.1479 280.607C30.4951 281.533 27.9441 278.496 28.495 275.471C30.8664 262.497 28.7345 248.917 22.7463 236.955C19.6922 230.856 15.6801 225.128 10.7098 220.166C10.0391 219.499 9.28462 218.906 8.578 218.277C8.51812 227.4 8.49417 236.523 8.42231 245.658C8.18278 275.286 8.05104 304.902 7.85941 334.53C7.7636 349.591 7.34442 364.652 7.00908 379.712C6.73362 391.971 7.39233 404.242 5.04492 416.34C15.4525 413.6 29.7645 414.562 40.1362 414.353C52.3882 414.093 64.6283 413.933 76.8803 413.859C76.9042 412.007 76.8803 410.131 77.0958 408.291C77.2276 407.242 77.2755 406.193 77.3713 405.143C76.6767 400.6 76.5928 395.909 76.6886 391.23C73.8143 390.971 71.0237 390.44 68.5206 389.045L68.5446 389.021Z" fill="white"/>
<path d="M176.705 155.046C178.167 155.021 179.64 154.885 181.113 154.774C181.077 154.132 181.101 153.49 181.149 152.824C181.245 151.577 181.34 150.317 181.436 149.071C181.544 147.589 181.736 146.12 181.999 144.651C178.238 145.663 174.071 145.75 169.975 145.7L170.454 147.318C170.549 147.626 170.753 147.799 171.029 148.157C171.412 148.626 171.603 149.182 171.831 149.737C172.178 150.577 172.657 151.466 172.861 152.342C173.005 152.972 173.089 153.675 173.112 154.33C173.112 154.601 173.017 154.848 172.957 155.107C174.202 155.083 175.46 155.07 176.705 155.046Z" fill="#84807F"/>
<path d="M193.903 275.2C193.568 274.94 193.185 274.706 192.897 274.409C192.598 274.113 192.346 273.768 192.071 273.447C191.795 273.126 191.52 272.805 191.244 272.484C190.897 272.076 190.49 271.694 190.238 271.237C190.143 271.064 190.071 270.891 189.987 270.718C189.687 270.113 189.4 269.509 189.101 268.904C187.556 268.928 186.118 268.879 185.1 268.879C178.645 268.879 172.19 268.793 165.722 268.731C159.698 268.669 153.65 268.78 147.638 268.459C146.476 268.397 145.326 268.212 144.177 268.114C141.697 268.262 139.23 268.299 137.11 268.373C130.895 268.595 124.679 268.681 118.463 268.718C112.247 268.755 106.031 268.867 99.8155 268.83C97.0608 268.817 93.5278 269.076 90.1983 268.83C90.0905 268.965 90.0546 269.138 89.9348 269.237C89.5875 269.521 89.2881 269.842 88.9886 270.163C88.6294 270.62 88.294 271.076 88.0186 271.57C87.4916 272.521 86.6173 273.175 85.8867 273.99C87.4317 277.891 87.4077 282.224 87.4916 286.421C87.6233 292.828 87.5874 299.26 87.3598 305.667C87.1682 311.235 86.9886 316.79 86.8568 322.345C90.9768 322.197 95.0488 322.271 98.5938 322.135C109.828 321.703 121.11 321.827 132.344 321.703C152.632 321.469 173.292 320.975 193.64 321.864C193.46 314.79 193.328 307.716 193.34 300.643C193.364 293.692 192.981 286.582 194.047 279.681C194.239 278.409 194.49 277.125 194.837 275.891C194.514 275.656 194.203 275.422 193.891 275.175L193.903 275.2ZM98.6298 318.963C95.3961 318.963 92.6175 316.457 92.6295 313.518C92.6655 307.161 92.7253 300.815 93.0128 294.458C93.1685 291.051 93.1325 287.569 93.6835 284.199C93.911 282.816 94.0787 281.421 94.5817 280.101C95.1446 278.582 95.935 277.15 96.6776 275.706C97.4321 274.237 100.235 274.212 100.977 275.706C101.696 277.15 102.498 278.594 103.025 280.101C103.564 281.619 103.732 283.248 103.971 284.829C104.438 287.989 104.343 291.26 104.45 294.458C104.678 300.815 104.666 307.148 104.63 313.518C104.618 316.469 101.899 318.963 98.6298 318.963ZM115.936 317.432C112.702 317.432 109.924 314.926 109.936 311.988C109.972 305.63 110.031 299.285 110.319 292.927C110.475 289.52 110.439 286.038 110.99 282.668C111.217 281.286 111.385 279.891 111.888 278.57C112.451 277.051 113.241 275.619 113.984 274.175C114.738 272.706 117.541 272.681 118.283 274.175C119.002 275.619 119.804 277.064 120.331 278.57C120.87 280.088 121.038 281.718 121.277 283.298C121.745 286.458 121.649 289.73 121.756 292.927C121.984 299.285 121.972 305.63 121.936 311.988C121.924 314.938 119.205 317.432 115.936 317.432ZM134.104 318.963C130.871 318.963 128.092 316.457 128.104 313.518C128.14 307.161 128.2 300.815 128.487 294.458C128.643 291.051 128.607 287.569 129.158 284.199C129.386 282.816 129.553 281.421 130.056 280.101C130.619 278.582 131.41 277.15 132.152 275.706C132.907 274.237 135.709 274.212 136.452 275.706C137.17 277.15 137.973 278.594 138.5 280.101C139.039 281.619 139.206 283.248 139.446 284.829C139.913 287.989 139.817 291.26 139.925 294.458C140.152 300.815 140.14 307.148 140.105 313.518C140.093 316.469 137.374 318.963 134.104 318.963ZM151.41 317.432C148.177 317.432 145.398 314.926 145.41 311.988C145.446 305.63 145.506 299.285 145.793 292.927C145.949 289.52 145.913 286.038 146.464 282.668C146.692 281.286 146.859 279.891 147.362 278.57C147.925 277.051 148.716 275.619 149.458 274.175C150.213 272.706 153.015 272.681 153.758 274.175C154.476 275.619 155.279 277.064 155.806 278.57C156.345 280.088 156.512 281.718 156.752 283.298C157.219 286.458 157.123 289.73 157.231 292.927C157.459 299.285 157.447 305.63 157.411 311.988C157.399 314.938 154.68 317.432 151.41 317.432ZM167.507 318.963C164.273 318.963 161.495 316.457 161.507 313.518C161.543 307.161 161.602 300.815 161.89 294.458C162.046 291.051 162.01 287.569 162.561 284.199C162.788 282.816 162.956 281.421 163.459 280.101C164.022 278.582 164.812 277.15 165.555 275.706C166.309 274.237 169.112 274.212 169.854 275.706C170.573 277.15 171.375 278.594 171.902 280.101C172.441 281.619 172.609 283.248 172.848 284.829C173.316 287.989 173.22 291.26 173.327 294.458C173.555 300.815 173.543 307.148 173.507 313.518C173.495 316.469 170.776 318.963 167.507 318.963ZM184.801 317.432C181.567 317.432 178.789 314.926 178.801 311.988C178.837 305.63 178.897 299.285 179.184 292.927C179.34 289.52 179.304 286.038 179.855 282.668C180.082 281.286 180.25 279.891 180.753 278.57C181.316 277.051 182.106 275.619 182.849 274.175C183.603 272.706 186.406 272.681 187.148 274.175C187.867 275.619 188.669 277.064 189.196 278.57C189.735 280.088 189.903 281.718 190.143 283.298C190.61 286.458 190.514 289.73 190.622 292.927C190.849 299.285 190.837 305.63 190.801 311.988C190.789 314.938 188.071 317.432 184.801 317.432Z" fill="#B2A6A1"/>
<path d="M324.328 41.6443C318.172 51.0635 317.944 62.2604 317.681 72.8895C317.633 75.0622 315.956 77.4325 313.477 77.8892C298.051 80.7656 282.374 81.6174 267.164 85.5678C256.876 88.2343 246.899 91.5922 237.174 95.5055C243.558 95.6166 250.001 95.3697 256.157 95.3574C266.445 95.345 276.733 95.0488 287.021 95.0364C307.309 94.9994 327.585 94.987 347.862 95.2463C347.921 81.6051 347.91 67.9762 347.993 54.3349C348.041 46.965 347.993 39.595 347.969 32.2127C338.652 29.6449 329.226 34.1385 324.316 41.6319L324.328 41.6443Z" fill="white"/>
<path d="M166.01 149.737C166.165 149.182 166.357 148.663 166.668 148.157C166.764 148.009 166.86 147.861 166.956 147.7C167.076 147.528 167.088 147.503 167.004 147.614C167.028 147.478 167.052 147.355 167.064 147.219C167.147 146.7 167.231 146.182 167.315 145.663C165.866 145.639 164.429 145.602 163.051 145.614C160.429 145.639 157.818 145.651 155.195 145.676C155.327 145.984 155.47 146.281 155.59 146.589C155.794 147.12 156.009 147.639 156.141 148.182C156.464 149.515 156.428 150.959 156.524 152.317C156.56 152.885 156.608 153.453 156.644 154.021C156.68 154.515 156.608 154.984 156.584 155.428C159.518 155.354 162.453 155.268 165.399 155.206C165.315 154.91 165.207 154.626 165.183 154.293C165.147 153.712 165.159 153.144 165.243 152.577C165.387 151.614 165.722 150.651 165.986 149.713L166.01 149.737Z" fill="#84807F"/>
<path d="M349.599 373.676C349.216 356.602 348.904 339.529 348.797 322.456C348.569 285.779 348.282 249.115 348.054 212.438C329.79 214.721 322.472 233.584 316.628 248.275C309.561 266.052 305.358 288.112 312.651 306.408C313.358 308.173 311.022 309.247 309.489 308.617C285.321 298.606 259.356 315.963 259.919 339.282C260.014 343.443 254.553 346.393 250.613 344.122C237.175 336.369 220.803 335.098 206.599 341.998C206.323 342.134 206.072 342.134 205.808 342.221C205.509 354.454 205.377 366.688 205.258 378.935C205.246 380.651 205.21 382.379 205.198 384.107C205.976 384.515 206.779 384.91 207.461 385.44C208.695 386.403 208.695 388.551 207.461 389.502C206.743 390.057 205.928 390.465 205.114 390.885C205.078 393.428 205.054 395.958 205.018 398.501C204.946 403.415 205.868 409.106 203.952 413.772C225.127 413.797 246.289 413.809 267.464 413.896C283.069 413.957 298.663 414.068 314.256 414.34C321.67 414.464 329.143 414.451 336.545 414.883C339.191 415.044 341.347 415.439 343.395 415.92C343.754 415.883 344.09 415.784 344.449 415.747C344.868 415.71 345.275 415.71 345.695 415.673C345.06 415.723 346.234 415.587 346.353 415.575C347.264 415.451 348.198 415.328 349.108 415.291C349.252 415.291 349.264 415.291 349.311 415.291C349.647 415.229 349.994 415.167 350.341 415.143C350.689 415.143 351.024 415.167 351.371 415.192C348.844 401.514 349.922 387.465 349.611 373.7L349.599 373.676Z" fill="white"/>
<path d="M125.457 146.342C125.493 146.108 125.541 145.886 125.577 145.651C122.691 145.602 119.804 145.577 116.918 145.552C114.954 145.528 112.978 145.552 111.001 145.54C111.061 145.676 111.121 145.799 111.181 145.923C111.564 146.898 111.66 148.009 111.852 149.021C112.091 150.305 112.271 151.589 112.403 152.885C112.499 153.873 112.57 154.836 112.487 155.799C115.014 155.823 117.541 155.848 120.008 155.947C121.649 156.009 123.289 156.083 124.942 156.144C124.894 155.626 124.87 155.107 124.882 154.589C124.906 153.342 124.93 152.083 124.942 150.836C124.966 149.305 125.194 147.836 125.457 146.33V146.342Z" fill="#84807F"/>
<path d="M96.6177 143.984C96.6177 143.984 96.6656 144.083 96.6895 144.145C96.965 144.75 97.3003 145.355 97.5039 145.972C97.7674 146.799 97.7914 147.836 97.9231 148.7C98.2944 151.219 98.6178 153.749 98.6776 156.292C101.025 156.046 103.396 156.021 105.756 155.934C105.72 155.774 105.66 155.626 105.636 155.428C105.612 155.157 105.588 154.897 105.576 154.626C105.54 154.095 105.504 153.552 105.468 153.021C105.396 151.898 105.361 150.799 105.385 149.688C105.408 148.441 105.337 147.157 105.636 145.923C105.684 145.737 105.744 145.552 105.78 145.367C105.361 145.342 104.929 145.367 104.51 145.33C101.66 145.12 99.6478 144.614 97.3842 143.738C97.1327 143.812 96.8812 143.96 96.6177 143.984Z" fill="#84807F"/>
<path d="M264.637 -30.858C235.474 -30.7839 206.311 -30.6605 177.148 -30.6728L89.6593 -30.7345C74.7006 -30.7345 59.7419 -30.6605 44.7951 -30.895C41.5974 -30.9444 38.3517 -30.9444 35.0941 -30.9691C36.5553 -29.5247 37.8248 -27.9199 38.7589 -26.278C40.4596 -23.2781 41.4896 -19.9326 41.4058 -16.5378C41.3579 -14.8465 41.0584 -13.1182 40.5435 -11.4887C40.1123 -10.0937 37.9685 -6.97039 38.3158 -5.47664C38.8308 -3.26689 44.2442 -2.83481 46.1844 -2.32867C49.0947 -1.58797 51.993 -0.834923 54.9033 -0.0818787C60.712 1.41187 66.5086 2.97969 72.2933 4.53516C84.198 7.74486 96.0907 10.9669 107.995 14.1766C113.648 15.7074 112.091 22.6206 106.666 23.0527C89.5515 24.4477 72.449 26.1266 55.3345 27.5339C46.7952 28.2376 38.232 29.1388 29.6687 29.5091C23.0457 29.8054 15.764 30.5955 8.98525 29.9288C8.96129 42.101 8.74571 54.2855 8.81757 66.4083C9.10501 113.356 8.93734 160.304 8.6499 207.24C12.3746 209.586 15.7759 212.857 18.1234 215.166C23.6685 220.597 28.3393 226.844 31.8125 233.547C37.9805 245.473 40.4357 258.669 38.5553 271.632C46.1245 270.977 53.6817 271.632 61.0593 273.693C66.4248 275.187 71.91 277.002 76.6887 279.742C76.9043 277.718 77.2875 275.718 78.066 273.829C77.9342 273.471 77.7426 273.138 77.7426 272.755C77.7187 272.434 77.6947 272.113 77.7187 271.792C77.7306 271.385 77.7905 270.854 77.8863 270.545C77.9941 270.175 78.2217 269.768 78.4373 269.397C78.5331 269.237 78.6289 269.076 78.7367 268.928C78.9283 268.632 79.1439 268.348 79.3714 268.064C79.6948 267.669 80.0182 267.262 80.3774 266.879C80.7487 266.496 81.2398 266.225 81.7428 265.99C81.7907 265.965 81.8386 265.965 81.8745 265.941C81.4553 265.472 81.2038 264.916 81.108 264.323C80.3056 263.694 79.6589 262.941 79.0121 262.188C78.7127 261.83 78.4133 261.484 78.1139 261.126C77.9462 260.929 77.7785 260.731 77.6109 260.534C77.539 260.447 77.4671 260.361 77.3953 260.274L76.9043 259.706C76.9043 259.706 76.8444 259.595 76.8204 259.534L76.3533 258.571C76.2216 258.299 76.1138 258.015 76.0539 257.731C75.7785 257.46 75.4671 257.237 75.2874 256.83C71.4789 248.571 72.4011 238.893 72.3771 230.066C72.3412 221.375 72.3172 212.672 72.2813 203.981C72.2454 195.278 72.3053 186.587 72.3891 177.896C72.437 173.23 72.2693 168.502 72.7005 163.847C73.0478 160.144 72.9161 155.478 75.4671 152.465C75.9461 151.91 76.509 151.601 77.0959 151.416C77.2516 151.293 77.3594 151.12 77.527 151.021C80.4014 149.441 84.3656 149.762 86.9526 151.725C87.0723 151.762 87.2041 151.762 87.3119 151.811C87.7909 151.996 88.0904 152.33 88.4017 152.663C88.4856 151.342 88.6173 150.033 88.7491 148.725C88.8449 147.787 88.8449 146.725 89.1323 145.836C89.3239 145.219 89.6353 144.614 89.8868 144.021C90.3539 142.886 90.7971 141.75 91.2043 140.602C90.9288 139.417 91.1923 138.083 92.4019 136.812C100.869 127.874 106.774 117.591 110.199 106.233C111.852 100.752 112.93 95.1352 113.325 89.4688C113.744 83.5309 113.193 77.5806 113.9 71.6673C113.9 71.6056 113.96 71.5685 113.984 71.5068C113.576 69.1489 114.858 67.112 115.996 64.6183C117.289 61.779 118.535 58.9149 119.744 56.0509C122.247 50.1129 124.559 44.1009 126.679 38.0395C128.799 31.9781 131.122 25.9784 132.99 19.843C134.751 14.0532 136.296 8.26335 138.356 2.55995C138.38 2.31305 138.332 2.0785 138.356 1.8316C138.404 1.42421 138.631 1.12793 138.907 0.893379C139.482 -0.501606 141.925 -0.328777 141.889 1.28842C141.889 1.60939 141.841 1.90567 141.829 2.22664C145.254 7.54734 146.62 13.7816 148.548 19.6454C150.584 25.8056 152.848 31.8793 155.027 38.0025C157.207 44.1132 159.375 50.2117 161.746 56.2607C163.04 59.5568 164.022 62.7419 164.896 66.1367C165.339 67.865 166.201 69.4946 166.585 71.1612C167.447 70.8896 168.489 71.2846 168.585 72.371C168.872 75.6301 170.249 78.5682 170.405 81.8643C170.561 85.0616 170.693 88.222 171.076 91.407C171.794 97.3573 172.753 103.184 174.549 108.949C176.381 114.862 178.873 120.578 182.046 126.01C183.687 128.825 185.532 131.528 187.376 134.232C189.065 136.688 191.508 139.194 190.178 142.244C190.107 142.404 189.975 142.466 189.891 142.614C190.083 142.997 190.298 143.367 190.382 143.787C190.49 144.305 190.538 144.848 190.586 145.379C190.669 146.33 190.669 147.28 190.681 148.231L192.238 147.663C193.065 147.367 193.939 147.305 194.813 147.182C196.035 147.021 197.161 147.009 198.382 147.021C199.149 147.021 199.939 147.009 200.682 147.206C202.323 147.638 203.46 148.996 203.58 150.503C205.389 153.021 205.724 156.119 205.904 159.193C206.191 163.996 206.131 168.872 206.167 173.686C206.251 183.007 206.155 192.327 206.143 201.636L206.119 229.585C206.119 234.412 206.119 239.251 206.119 244.078C206.119 247.3 206.215 250.016 205.185 252.719C205.221 253.077 205.233 253.435 205.245 253.781C205.209 253.534 205.173 253.287 205.137 253.04C205.437 254.608 205.736 256.373 205.257 257.941C204.993 258.83 204.67 259.805 204.119 260.571C203.951 260.805 203.784 261.027 203.604 261.25C203.257 261.682 202.933 262.138 202.514 262.509C202.107 262.867 201.604 263.175 201.113 263.459C200.514 263.805 199.855 264.003 199.149 264.027C198.55 264.151 197.951 264.077 197.364 263.953C197.388 264.138 197.484 264.286 197.484 264.496C197.484 264.978 197.34 265.36 197.197 265.743C197.556 265.891 197.903 266.039 198.263 266.188C198.658 266.36 199.089 266.496 199.472 266.694C199.855 266.891 200.203 267.163 200.55 267.41C200.909 267.657 201.257 267.891 201.604 268.138C202.107 268.36 202.514 268.657 202.826 269.039C203.508 269.657 203.975 270.397 204.239 271.237C204.431 271.866 204.443 272.286 204.431 272.842C204.431 273.064 204.347 273.249 204.311 273.459C207.628 278.903 206.574 291.989 206.586 295.124C206.61 304.642 206.407 314.148 206.179 323.666C207.604 324.098 208.814 324.925 209.82 325.913C210.575 326.653 210.563 327.715 209.82 328.456C208.778 329.48 207.52 330.369 206.023 330.764C206.011 331.369 205.987 331.986 205.976 332.591C219.269 326.271 235.126 325.468 248.876 330.715C255.163 307.247 282.625 294.803 308.1 303.963C307.141 292.186 305.129 280.532 305.776 268.632C306.387 257.237 308.375 245.596 312.77 234.893C317.789 222.659 331.765 202.611 347.969 205.537C347.85 184.772 347.694 164.008 347.67 143.244C347.646 130.393 347.754 117.541 347.802 104.69C327.525 104.369 307.261 103.777 286.985 103.159C276.266 102.838 265.559 102.221 254.828 101.913C243.929 101.604 232.108 100.32 221.365 102.32C216.287 103.271 212.73 96.8264 217.701 94.4315C232.264 87.4195 247.558 81.5063 263.295 77.0127C277.056 73.087 291.668 68.8897 306.243 67.9515C306.483 55.2238 307.884 41.5825 317.609 31.83C325.286 24.1267 337.059 19.8059 347.945 22.5959C348.041 3.88087 348.724 -14.8095 352.161 -33.364C351.958 -33.3146 351.802 -33.2282 351.574 -33.1912C324.088 -28.5988 292.746 -30.895 264.589 -30.8209L264.637 -30.858Z" fill="#C8ABFF"/>
<path d="M147.123 145.762C144.74 145.774 142.368 145.824 139.985 145.824C137.841 145.824 135.685 145.774 133.542 145.75C133.577 145.947 133.613 146.145 133.649 146.342C133.913 147.848 134.14 149.317 134.164 150.848C134.188 152.095 134.212 153.354 134.224 154.601C134.224 155.243 134.2 155.885 134.116 156.515C134.14 156.515 134.176 156.515 134.2 156.515C137.673 156.231 141.147 155.873 144.524 155.762C145.195 155.737 145.865 155.737 146.536 155.712C146.404 154.601 146.38 153.465 146.332 152.342C146.297 151.293 146.201 150.219 146.249 149.169C146.285 148.293 146.56 147.453 146.788 146.614C146.871 146.305 147.003 146.046 147.111 145.762H147.123Z" fill="#84807F"/>
<path d="M190.059 210.746C189.975 204.315 189.903 197.883 189.819 191.451C189.772 187.982 189.64 184.526 189.496 181.057C189.364 177.921 189.304 174.711 187.472 171.971C187.376 171.823 187.197 171.761 187.077 171.625C187.113 169.07 185.34 166.502 181.735 166.514C172.238 166.564 162.585 166.366 153.123 167.23C148.848 167.625 144.548 168.119 140.26 168.699C137.638 167.959 134.679 167.922 132.009 167.786C128.044 167.588 124.056 167.601 120.092 167.514C116.128 167.428 112.152 167.539 108.175 167.588C106.091 167.613 104.067 167.847 101.995 168.082C99.8157 168.341 98.1629 169.094 96.2107 169.995C95.5041 170.316 95.1568 170.946 95.0131 171.613C94.1747 171.934 93.4202 172.452 93.0489 173.415C90.7614 179.427 91.4321 186.044 91.3602 192.315C91.2764 198.846 91.3003 205.389 91.3123 211.919C91.3123 218.45 91.3243 224.992 91.3363 231.523C91.3363 237.955 90.8093 244.251 93.4322 250.324C94.043 251.732 95.3843 252.275 96.6658 252.102C99.2168 255.003 104.007 254.979 107.756 255.164C112.355 255.386 116.942 255.435 121.541 255.448C124.38 255.448 127.182 255.312 129.997 255.213C130.32 255.25 130.631 255.312 130.955 255.361C137.135 256.151 143.518 256.102 149.746 256.386C155.83 256.657 161.938 256.941 168.034 256.978C174.034 257.015 181.124 257.509 186.634 255.151C186.729 255.114 186.753 255.016 186.837 254.966C188.179 254.497 189.269 253.386 189.185 251.991C189.041 249.682 188.909 247.362 188.765 245.053C188.706 244.152 188.538 243.238 188.37 242.325C191.305 232.19 190.167 221.079 190.035 210.722L190.059 210.746ZM168.765 245.819C162.441 245.806 156.081 246.139 149.77 246.423C146.189 246.584 142.548 246.67 138.931 246.843C137.745 246.72 136.56 246.633 135.35 246.559C130.739 246.263 126.176 246.164 121.565 246.177C116.954 246.189 112.379 246.238 107.78 246.46C105.349 246.584 102.486 246.67 100.043 247.448C101.492 242.276 101.229 236.967 101.241 231.548C101.241 225.017 101.265 218.474 101.265 211.944C101.265 205.413 101.289 198.87 101.217 192.34C101.145 186.846 101.54 181.118 100.139 175.736C100.75 175.909 101.337 176.106 102.031 176.193C104.103 176.44 106.127 176.662 108.211 176.686C112.175 176.736 116.152 176.847 120.128 176.761C124.092 176.674 128.08 176.686 132.045 176.489C135.518 176.316 139.446 176.291 142.5 174.637C146.057 175.094 149.626 175.538 153.171 175.859C161.902 176.662 170.801 176.563 179.591 176.575C179.364 178.044 179.304 179.551 179.244 181.044C179.1 184.513 178.969 187.97 178.921 191.439C178.837 197.871 178.765 204.302 178.681 210.734C178.538 222.474 177.124 235.152 181.819 246.325C177.579 245.633 172.968 245.819 168.825 245.819H168.765Z" fill="#3A0505"/>
<path d="M171.303 204.635C169.004 193.327 158.524 185.427 146.201 184.093C142.248 183.661 137.014 183.809 133.242 185.772C130.942 186.34 128.727 187.105 126.751 188.328C121.685 191.463 117.768 195.759 115.469 200.92C111.037 210.87 115.145 223.202 123.936 230.115C133.35 237.51 146.859 238.424 157.722 233.054C168.92 227.523 173.555 215.684 171.303 204.635ZM147.003 226.856C141.757 228.017 135.961 227.251 131.433 224.227C127.026 221.264 123.996 216.437 123.301 211.512C122.607 206.574 124.427 201.45 127.972 197.673C129.385 196.154 131.086 194.932 132.847 193.784C135.314 194.105 137.997 193.488 140.356 193.241C150.332 192.216 159.902 197.525 161.842 207.006C163.734 216.326 156.8 224.684 147.015 226.856H147.003Z" fill="#3A0505"/>
<path d="M152.441 210.302C151.219 209.956 149.818 210.252 148.573 210.363C147.519 210.462 146.465 210.549 145.411 210.647C145.303 210.647 145.207 210.672 145.099 210.684C145.099 210.512 145.076 210.326 145.076 210.154C145.052 209.006 145.028 207.857 145.016 206.709C144.992 205.586 144.86 204.5 144.704 203.389C144.608 202.685 144.572 201.882 144.381 201.191C144.201 200.537 143.77 199.907 143.471 199.29C142.68 197.673 139.926 197.895 139.075 199.29C138.692 199.907 138.237 200.512 138.009 201.191C137.854 201.673 137.77 202.166 137.65 202.648C137.315 203.993 137.075 205.327 136.908 206.709C136.776 207.82 136.644 208.919 136.512 210.03C136.309 211.709 135.854 213.4 136.931 214.931C137.746 216.104 139.087 216.869 140.644 216.869C141.447 216.869 142.105 216.672 142.692 216.351C142.872 216.413 143.039 216.487 143.219 216.536C143.926 216.734 144.668 216.721 145.411 216.721C146.465 216.734 147.519 216.746 148.573 216.758C149.758 216.771 151.339 216.993 152.441 216.598C153.196 216.326 153.794 216.03 154.309 215.425C154.777 214.882 155.112 214.166 155.076 213.45C155.004 211.981 153.998 210.746 152.441 210.314V210.302Z" fill="#3A0505"/>
<path d="M114.546 189.982C121.397 189.982 121.409 180.328 114.546 180.328C107.684 180.328 107.684 189.982 114.546 189.982Z" fill="#3A0505"/>
<path d="M169.339 189.229C177.651 189.229 177.663 177.526 169.339 177.526C161.015 177.526 161.015 189.229 169.339 189.229Z" fill="#3A0505"/>
<path d="M114.391 232.597C114.032 232.35 113.672 232.091 113.313 231.844C112.487 231.412 111.588 231.19 110.642 231.19C109.912 231.165 109.229 231.301 108.594 231.609C107.936 231.807 107.373 232.14 106.894 232.609C106.379 233.041 106.007 233.56 105.792 234.152C105.456 234.72 105.301 235.338 105.337 236.004L105.528 237.288C105.78 238.103 106.235 238.806 106.894 239.411L107.971 240.164C108.798 240.596 109.696 240.819 110.642 240.819C111.373 240.843 112.055 240.708 112.69 240.399C113.349 240.201 113.912 239.868 114.403 239.399C114.918 238.967 115.289 238.448 115.493 237.856C115.828 237.288 115.972 236.671 115.948 236.004C115.888 235.572 115.816 235.152 115.756 234.72C115.505 233.906 115.05 233.202 114.391 232.597Z" fill="#3A0505"/>
<path d="M171.292 232.054C164.812 232.054 164.8 241.189 171.292 241.189C177.783 241.189 177.783 232.054 171.292 232.054Z" fill="#3A0505"/>
<path d="M103.972 284.841C103.732 283.248 103.565 281.631 103.026 280.113C102.487 278.594 101.696 277.162 100.978 275.718C100.235 274.224 97.4325 274.249 96.678 275.718C95.9354 277.162 95.145 278.607 94.5821 280.113C94.0911 281.434 93.9114 282.829 93.6839 284.211C93.1329 287.594 93.1689 291.063 93.0132 294.47C92.7257 300.828 92.6659 307.161 92.6299 313.531C92.6179 316.469 95.3965 318.975 98.6302 318.975C101.864 318.975 104.618 316.481 104.63 313.531C104.666 307.173 104.678 300.828 104.451 294.47C104.343 291.285 104.439 288.001 103.972 284.841Z" fill="#3A0505"/>
<path d="M121.277 283.31C121.038 281.718 120.87 280.1 120.331 278.582C119.792 277.064 119.002 275.632 118.283 274.187C117.541 272.693 114.738 272.718 113.984 274.187C113.241 275.632 112.451 277.076 111.888 278.582C111.397 279.903 111.217 281.298 110.99 282.681C110.439 286.063 110.475 289.532 110.319 292.939C110.031 299.297 109.972 305.63 109.936 312C109.924 314.938 112.702 317.444 115.936 317.444C119.17 317.444 121.924 314.95 121.936 312C121.972 305.642 121.984 299.297 121.756 292.939C121.649 289.754 121.744 286.471 121.277 283.31Z" fill="#3A0505"/>
<path d="M139.446 284.841C139.206 283.248 139.039 281.631 138.5 280.113C137.961 278.594 137.17 277.162 136.452 275.718C135.709 274.224 132.907 274.249 132.152 275.718C131.41 277.162 130.619 278.607 130.056 280.113C129.565 281.434 129.386 282.829 129.158 284.211C128.607 287.594 128.643 291.063 128.487 294.47C128.2 300.828 128.14 307.161 128.104 313.531C128.092 316.469 130.871 318.975 134.104 318.975C137.338 318.975 140.093 316.481 140.105 313.531C140.14 307.173 140.152 300.828 139.925 294.47C139.817 291.285 139.913 288.001 139.446 284.841Z" fill="#3A0505"/>
<path d="M156.752 283.31C156.513 281.718 156.345 280.1 155.806 278.582C155.267 277.064 154.477 275.632 153.758 274.187C153.016 272.693 150.213 272.718 149.459 274.187C148.716 275.632 147.926 277.076 147.363 278.582C146.872 279.903 146.692 281.298 146.465 282.681C145.914 286.063 145.95 289.532 145.794 292.939C145.506 299.297 145.447 305.63 145.411 312C145.399 314.938 148.177 317.444 151.411 317.444C154.645 317.444 157.399 314.95 157.411 312C157.447 305.642 157.459 299.297 157.232 292.939C157.124 289.754 157.22 286.471 156.752 283.31Z" fill="#3A0505"/>
<path d="M172.849 284.841C172.609 283.248 172.441 281.631 171.903 280.113C171.364 278.594 170.573 277.162 169.855 275.718C169.112 274.224 166.309 274.249 165.555 275.718C164.812 277.162 164.022 278.607 163.459 280.113C162.968 281.434 162.788 282.829 162.561 284.211C162.01 287.594 162.046 291.063 161.89 294.47C161.603 300.828 161.543 307.161 161.507 313.531C161.495 316.469 164.273 318.975 167.507 318.975C170.741 318.975 173.495 316.481 173.507 313.531C173.543 307.173 173.555 300.828 173.328 294.47C173.22 291.285 173.316 288.001 172.849 284.841Z" fill="#3A0505"/>
<path d="M190.143 283.31C189.904 281.718 189.736 280.1 189.197 278.582C188.658 277.064 187.868 275.632 187.149 274.187C186.406 272.693 183.604 272.718 182.849 274.187C182.107 275.632 181.316 277.076 180.753 278.582C180.262 279.903 180.083 281.298 179.855 282.681C179.304 286.063 179.34 289.532 179.185 292.939C178.897 299.297 178.837 305.63 178.801 312C178.789 314.938 181.568 317.444 184.802 317.444C188.035 317.444 190.79 314.95 190.802 312C190.838 305.642 190.85 299.297 190.622 292.939C190.514 289.754 190.61 286.471 190.143 283.31Z" fill="#3A0505"/>
<path d="M360.401 -36.0428C360.042 -37.8452 358.006 -38.6476 356.114 -38.4995C355.647 -39.9932 354.197 -41.3265 351.634 -41.7586C337.861 -44.0671 323.621 -43.7708 309.513 -43.956C294.566 -44.1535 279.596 -44.0918 264.649 -44.1165C235.474 -44.1905 206.311 -44.314 177.16 -44.3016L89.6714 -44.2399C74.7127 -44.2399 59.754 -44.3016 44.8073 -44.0794C30.9385 -43.8696 16.0636 -44.5115 3.06903 -40.8203C1.2965 -40.3142 0.398256 -39.4377 -0.0808058 -38.4995C-1.73357 -38.4007 -3.31447 -37.5983 -3.63784 -36.0305C-9.60216 -6.11853 -8.10509 24.1761 -8.28474 54.335C-8.46439 83.963 -8.62009 113.591 -8.58416 143.207C-8.50032 202.957 -7.87754 262.706 -7.50627 322.456C-7.39848 339.529 -7.08709 356.602 -6.70384 373.676C-6.34454 389.934 -8.03323 406.575 -3.3025 422.537C-2.76355 424.352 0.697669 424.722 2.57799 423.735C12.5904 427.228 27.1179 426.216 37.9088 426.475C53.5023 426.846 69.0957 427.105 84.7012 427.105C115.158 427.105 145.614 427.129 176.07 427.129C205.784 427.129 235.498 427.08 265.212 426.969C280.817 426.907 296.411 426.833 312.004 426.549C319.43 426.426 326.879 426.413 334.292 426.055C341.49 425.71 344.904 424.414 350.449 422.895C350.724 422.982 350.988 423.08 351.263 423.167C352.018 423.389 352.724 423.389 353.455 423.303C355.012 424.846 359.419 424.586 360.03 422.537C364.21 408.439 362.976 394.057 363.3 379.7C363.635 364.639 364.066 349.578 364.162 334.517C364.342 304.889 364.485 275.274 364.725 245.646C365.204 185.896 365.467 126.146 365.108 66.396C364.904 32.2868 367.132 -2.2175 360.377 -36.0305L360.401 -36.0428ZM22.0399 -31.4011C28.1359 -28.0926 32.9864 -23.0312 32.1002 -15.9822C31.5972 -12.0441 28.6869 -8.72332 28.7348 -4.66181C28.7827 -0.637341 31.4055 2.31311 35.3698 3.85624C45.8373 7.95478 57.706 10.2016 68.6406 13.115C71.8384 13.9668 75.0361 14.8186 78.2458 15.6704C70.6168 16.1025 62.9757 16.5222 55.3467 17.016C46.7954 17.5715 38.1962 17.9296 29.6809 18.7937C23.1537 19.448 15.5725 19.6702 8.94951 21.2627C8.79382 2.81926 7.90755 -15.5871 4.47028 -33.8207C10.0753 -32.3764 16.0157 -31.7468 22.0399 -31.4011ZM77.1081 408.266C76.8925 410.106 76.9284 411.982 76.8925 413.834C64.6405 413.908 52.4004 414.081 40.1484 414.328C29.7767 414.55 15.4648 413.587 5.05713 416.315C7.40454 404.217 6.74583 391.946 7.02129 379.688C7.35663 364.627 7.78779 349.566 7.87162 334.505C8.05127 304.877 8.19499 275.261 8.43452 245.633C8.50638 236.51 8.53033 227.387 8.59022 218.252C9.29683 218.894 10.0514 219.474 10.722 220.141C15.6923 225.103 19.7045 230.832 22.7585 236.93C28.7467 248.892 30.8786 262.472 28.5072 275.446C27.9563 278.471 30.5193 281.508 34.1601 280.582C41.9569 278.607 50.3764 278.78 58.0414 281.286C65.383 283.693 70.7245 289.273 76.4254 293.791C76.4254 297.754 76.3655 301.729 76.5092 305.679C76.7128 311.593 76.9044 317.506 77.0362 323.407C73.9103 324.036 70.9761 324.987 68.5448 326.579C68.1137 326.863 68.1137 327.357 68.5448 327.641C71.012 329.258 73.9702 330.209 77.12 330.838C77.1679 334.357 77.2518 337.875 77.2398 341.406C77.1919 353.319 77.144 365.232 77.1081 377.145C77.1081 379.293 77.0242 381.478 76.9523 383.687C74.0061 383.934 71.1198 384.453 68.5568 385.897C67.2753 386.613 67.2753 388.28 68.5568 388.996C71.0479 390.391 73.8504 390.922 76.7248 391.181C76.629 395.86 76.7128 400.551 77.4075 405.094C77.3117 406.143 77.2637 407.192 77.132 408.242L77.1081 408.266ZM194.059 279.693C192.993 286.594 193.364 293.705 193.352 300.655C193.34 307.729 193.472 314.802 193.652 321.876C173.316 320.987 152.644 321.493 132.356 321.715C121.11 321.839 109.828 321.715 98.6059 322.148C95.0609 322.283 90.9889 322.209 86.8689 322.357C87.0007 316.802 87.1803 311.247 87.372 305.679C87.5995 299.272 87.6354 292.841 87.5037 286.433C87.4199 282.249 87.4558 277.915 85.8988 274.002C86.6174 273.187 87.4917 272.521 88.0307 271.582C88.3061 271.089 88.6534 270.632 89.0008 270.175C89.3002 269.854 89.5996 269.533 89.9469 269.249C90.0667 269.15 90.1026 268.978 90.2104 268.842C93.5518 269.089 97.073 268.829 99.8276 268.842C106.043 268.867 112.259 268.768 118.475 268.731C124.691 268.694 130.907 268.595 137.123 268.385C139.242 268.311 141.71 268.274 144.189 268.126C145.338 268.225 146.476 268.41 147.65 268.471C153.662 268.792 159.71 268.681 165.735 268.743C172.19 268.805 178.657 268.891 185.113 268.891C186.131 268.891 187.568 268.941 189.113 268.916C189.412 269.521 189.712 270.126 189.999 270.731C190.083 270.903 190.155 271.076 190.251 271.249C190.514 271.706 190.909 272.089 191.257 272.496C191.532 272.817 191.807 273.138 192.083 273.459C192.358 273.78 192.61 274.113 192.909 274.422C193.209 274.718 193.58 274.953 193.915 275.212C194.227 275.446 194.538 275.693 194.861 275.928C194.514 277.15 194.263 278.434 194.071 279.718L194.059 279.693ZM194.766 381.404C194.43 381.181 193.939 381.083 193.58 381.305C193.424 381.404 193.269 381.49 193.125 381.589C187.185 381.416 180.957 382.083 175.951 382.107C163.531 382.169 151.123 382.218 138.703 382.268C126.272 382.317 113.888 382.799 101.456 382.996C96.6059 383.07 91.7554 383.169 86.9049 383.305C86.833 381.243 86.7611 379.181 86.7611 377.169C86.7132 365.256 86.6653 353.343 86.6294 341.43C86.6174 338.245 86.6893 335.073 86.7372 331.888C90.8811 332.036 94.989 331.962 98.594 332.098C109.828 332.53 121.11 332.406 132.344 332.53C152.74 332.764 173.495 333.27 193.939 332.357C194.011 334.838 194.083 337.307 194.155 339.789C194.538 352.837 194.61 365.874 194.73 378.922C194.73 379.749 194.754 380.564 194.766 381.391V381.404ZM190.346 417.636C190.334 419.216 187.616 420.537 184.346 420.537C181.076 420.537 178.334 419.204 178.346 417.636C178.358 416.328 178.466 415.019 178.49 413.723C177.687 413.723 176.897 413.723 176.094 413.723C175.052 413.723 174.01 413.723 172.968 413.723C172.98 415.303 173.064 416.883 173.052 418.463C173.04 420.043 170.322 421.364 167.052 421.364C163.782 421.364 161.04 420.031 161.052 418.463C161.064 416.883 161.183 415.303 161.231 413.735C159.782 413.735 158.333 413.735 156.884 413.735C156.884 415.044 156.968 416.34 156.956 417.649C156.944 419.229 154.225 420.55 150.955 420.55C147.686 420.55 144.943 419.216 144.955 417.649C144.967 416.34 145.075 415.044 145.099 413.735C143.255 413.735 141.41 413.735 139.578 413.735C139.59 415.303 139.674 416.883 139.662 418.463C139.65 420.043 136.931 421.364 133.661 421.364C130.392 421.364 127.649 420.031 127.661 418.463C127.673 416.883 127.793 415.315 127.841 413.747C125.697 413.747 123.565 413.747 121.421 413.747C121.421 415.044 121.505 416.352 121.493 417.649C121.481 419.229 118.762 420.55 115.493 420.55C112.223 420.55 109.481 419.216 109.493 417.649C109.505 416.352 109.612 415.044 109.636 413.747C107.792 413.747 105.96 413.747 104.115 413.747C104.127 415.315 104.211 416.883 104.199 418.463C104.187 420.043 101.468 421.364 98.1988 421.364C94.9292 421.364 92.1865 420.031 92.1985 418.463C92.2105 416.895 92.3302 415.328 92.3782 413.76C90.5817 413.76 88.7972 413.76 87.0007 413.76C86.9767 411.933 87.0007 410.093 86.7971 408.279C86.6773 407.229 86.6174 406.18 86.5216 405.131C87.1923 400.724 87.2761 396.193 87.1923 391.65C91.959 391.786 96.7376 391.885 101.492 391.959C113.912 392.156 126.308 392.625 138.739 392.687L175.986 392.847C181.436 392.872 188.478 393.699 194.957 393.304C194.981 395.045 194.993 396.773 195.017 398.514C195.089 403.415 194.167 409.106 196.071 413.772C194.143 413.772 192.227 413.772 190.298 413.772C190.298 415.068 190.382 416.365 190.37 417.661L190.346 417.636ZM195.76 254.781C195.101 255.447 194.418 256.04 193.939 256.855C193.76 257.237 193.58 257.62 193.412 257.991C193.197 258.62 193.161 259.262 193.317 259.892C193.317 260.089 193.436 260.25 193.472 260.435C190.67 259.756 187.113 259.953 185.089 259.953C178.633 259.953 172.178 260.04 165.711 260.102C160.477 260.151 155.219 260.126 149.985 260.311C145.806 259.349 140.919 259.41 137.099 259.274C130.883 259.052 124.667 258.966 118.451 258.929C112.235 258.892 106.019 258.781 99.8036 258.818C95.8274 258.842 90.3062 258.287 86.0306 259.484C86.0066 259.46 86.0066 259.423 85.9827 259.41C85.791 259.237 85.6114 259.052 85.3958 258.892C85.0246 258.608 84.6293 258.336 84.2461 258.065C83.8029 257.744 83.3478 257.423 82.9047 257.102C82.6771 256.941 82.4496 256.768 82.2101 256.608C82.1023 256.534 81.9945 256.447 81.8867 256.373C81.755 256.275 81.6112 256.176 81.4795 256.089C81.3717 255.991 81.24 255.954 81.1082 255.892C84.4377 247.831 83.6233 238.584 83.6472 230.078C83.6832 221.388 83.7071 212.684 83.743 203.993C83.779 195.29 83.7191 186.599 83.6353 177.908C83.5874 173.254 83.791 168.502 83.3239 163.86C83.0484 161.132 83.0484 158.033 82.1143 155.354C82.258 155.354 82.4137 155.354 82.5694 155.354C82.7849 155.391 83.0005 155.441 83.2041 155.515C83.3239 155.564 83.4317 155.626 83.5395 155.687C83.6712 155.91 83.7071 156.169 83.9107 156.391C83.791 156.255 83.6712 156.12 83.5514 155.971C83.7311 156.194 83.8508 156.428 83.9946 156.663C84.0664 156.848 84.1143 157.033 84.1622 157.218C84.1862 157.552 84.2101 157.897 84.1622 158.231C84.1622 158.206 84.1622 158.181 84.1622 158.169C84.1143 158.576 84.1263 158.872 84.1982 159.379C84.1622 159.144 84.1263 158.91 84.0904 158.675C84.1383 159.008 84.1383 159.354 84.0904 159.687C84.0544 160.033 84.2341 160.514 84.4257 160.798C84.6892 161.218 85.1084 161.514 85.5874 161.699C85.815 161.786 86.0665 161.761 86.2941 161.786C86.5456 162.008 86.7731 162.243 87.1444 162.354C97.54 165.428 109.169 165.094 119.96 164.675C125.421 164.465 130.907 164.317 136.368 164.033C139.218 163.885 142.045 163.514 144.871 163.181C145.925 163.057 147.003 162.996 147.997 162.601C153.986 162.786 159.962 162.959 165.938 163.057C169.507 163.107 173.088 163.156 176.657 163.23C180.502 163.304 184.406 164.008 188.203 163.872C191.999 163.749 193.568 160.823 193.065 158.255C193.053 157.478 193.029 156.687 193.017 155.91C192.993 155.07 193.089 154.046 192.742 153.268C192.73 153.231 192.706 153.194 192.694 153.157C193.293 153.354 193.867 153.589 194.49 153.749C194.969 153.873 195.484 153.885 195.975 153.947C195.556 155.613 195.424 157.391 195.317 159.144C195.029 163.946 195.101 168.823 195.053 173.637C194.969 182.958 195.065 192.278 195.077 201.586C195.077 210.907 195.089 220.215 195.101 229.535C195.101 234.362 195.101 239.201 195.101 244.028C195.101 247.769 195.029 250.843 196.706 253.991C196.371 254.25 196.011 254.497 195.712 254.793L195.76 254.781ZM115.205 121.887C113.684 121.887 112.559 122.393 111.66 123.084C114.068 117.998 116.032 112.739 117.385 107.406C119.924 97.3943 121.805 85.1604 118.487 74.9141C118.547 74.9017 118.619 74.9141 118.679 74.8894C118.858 74.84 118.954 74.7289 119.134 74.6795C120.523 75.6301 122.523 75.877 124.463 75.9758C124.415 76.4202 124.379 76.8769 124.368 77.3708C124.332 78.8275 124.236 80.2842 124.272 81.7409C124.296 83.1976 124.427 84.6543 124.511 86.111C124.619 88.0368 124.703 90.2342 126.272 91.7033C127.314 92.6786 129.422 92.802 130.44 91.7033C131.913 90.1231 131.961 88.0986 131.937 86.111C131.913 84.6543 131.949 83.1852 131.865 81.7409C131.781 80.2842 131.589 78.8275 131.458 77.3708C131.422 76.951 131.374 76.5436 131.314 76.1362C133.506 76.1362 135.685 76.1239 137.877 76.0992C137.65 78.0868 137.386 80.0867 137.386 82.0619C137.386 83.2717 137.386 84.4691 137.386 85.6789C137.386 87.1603 137.23 88.7035 137.817 90.0984C138.332 91.3083 139.482 92.3823 141.039 92.3206C142.56 92.2588 143.793 91.4194 144.261 90.0984C144.776 88.6417 144.56 87.1727 144.452 85.6789L144.201 81.9137C144.069 79.9879 143.71 78.0621 143.35 76.1362C145.47 76.1733 147.626 76.198 149.782 76.1733C149.135 77.4818 149.027 79.0126 149.003 80.4693C148.979 81.9754 148.955 83.4815 148.931 84.9876C148.907 86.4937 149.039 87.9998 149.135 89.5059C149.207 90.5429 149.279 91.6169 149.554 92.6415C149.794 93.5304 150.285 94.2093 150.92 94.7649C150.943 94.7896 150.955 94.8142 150.967 94.8389C152.321 96.6413 155.303 96.8635 156.608 94.8389C156.632 94.8019 156.656 94.7649 156.68 94.7278C158.046 93.4069 158.165 91.2589 158.141 89.5182C158.117 87.9504 158.117 86.3826 157.974 84.8148C157.83 83.3087 157.686 81.8026 157.543 80.2965C157.399 78.7781 157.231 77.0745 156.345 75.7412C158.728 75.4449 161.076 75.0129 163.279 74.1857C163.567 74.4203 163.806 74.7042 164.166 74.8894C163.1 76.9016 162.058 78.8768 161.71 81.2347C161.219 84.5555 161.076 87.9875 161.112 91.333C161.195 98.0486 162.585 104.937 164.477 111.418C165.447 114.739 166.633 117.998 167.998 121.208C167.399 121.047 166.776 120.961 166.13 120.961C165.184 120.924 164.309 121.109 163.495 121.492C162.645 121.739 161.914 122.171 161.291 122.776C160.621 123.344 160.153 124.01 159.878 124.776C159.447 125.516 159.255 126.319 159.291 127.171C159.375 127.726 159.459 128.269 159.531 128.825C159.854 129.874 160.441 130.788 161.291 131.565C161.758 131.886 162.213 132.207 162.68 132.541C163.746 133.108 164.896 133.38 166.142 133.392C167.088 133.429 167.962 133.244 168.777 132.862C169.627 132.615 170.357 132.183 170.98 131.578C171.543 131.096 171.89 130.504 172.178 129.886C172.178 129.886 172.178 129.911 172.19 129.911C173.795 132.862 175.555 135.763 177.615 138.466C172.801 137.96 167.675 138.355 163.1 138.318C155.411 138.256 147.722 138.108 140.033 138.133C132.344 138.145 124.655 138.318 116.966 138.404C112.846 138.454 108.654 138.318 104.546 138.627C103.732 138.688 102.977 138.787 102.259 138.898C105.037 135.133 107.457 131.121 109.648 127.01C109.564 129.714 111.409 132.479 115.253 132.479C122.763 132.479 122.775 121.899 115.253 121.899L115.205 121.887ZM123.697 69.6428C123.912 69.1119 124.116 68.5934 124.356 68.0256C125.541 65.1615 126.679 62.2728 127.781 59.3841C130.212 52.9647 132.428 46.4835 134.44 39.9407C136.38 33.583 137.709 27.1266 139.111 20.6578C139.458 19.0406 139.805 17.4234 140.117 15.8186C140.632 17.6703 141.171 19.5097 141.674 21.3244C143.458 27.7562 145.279 34.225 147.518 40.5456C149.758 46.8786 152.213 53.1498 154.776 59.3841C155.986 62.3222 157.375 64.8776 159.016 67.6059C159.567 68.5194 160.034 69.5317 160.501 70.5193C157.279 69.7292 153.866 69.4946 150.56 69.4823C146.333 69.4699 142.117 69.4453 137.889 69.4329C133.661 69.4206 129.446 69.3588 125.218 69.5564C124.871 69.5687 124.308 69.6057 123.685 69.6675L123.697 69.6428ZM172.861 152.342C172.657 151.465 172.178 150.577 171.831 149.737C171.603 149.194 171.411 148.638 171.028 148.157C170.753 147.811 170.537 147.639 170.453 147.318L169.974 145.7C174.07 145.75 178.238 145.663 181.999 144.651C181.735 146.12 181.556 147.577 181.436 149.071C181.34 150.317 181.244 151.577 181.148 152.823C181.1 153.478 181.076 154.12 181.112 154.774C179.639 154.885 178.166 155.021 176.705 155.046C175.459 155.07 174.202 155.083 172.956 155.107C173.016 154.848 173.124 154.601 173.112 154.33C173.088 153.675 173.004 152.972 172.861 152.342ZM165.411 155.243C162.477 155.305 159.543 155.391 156.596 155.465C156.62 155.009 156.692 154.552 156.656 154.058C156.62 153.49 156.572 152.922 156.537 152.354C156.441 150.996 156.477 149.54 156.153 148.219C156.022 147.676 155.806 147.157 155.602 146.626C155.483 146.318 155.339 146.009 155.207 145.713C157.83 145.688 160.441 145.663 163.064 145.651C164.441 145.651 165.878 145.676 167.327 145.7C167.244 146.219 167.16 146.737 167.076 147.256C167.052 147.392 167.028 147.515 167.016 147.651C167.1 147.54 167.076 147.564 166.968 147.737C166.872 147.885 166.776 148.034 166.681 148.194C166.357 148.688 166.178 149.219 166.022 149.774C165.758 150.725 165.423 151.675 165.279 152.638C165.196 153.206 165.184 153.786 165.22 154.354C165.243 154.675 165.339 154.971 165.435 155.268L165.411 155.243ZM146.344 152.342C146.38 153.453 146.404 154.589 146.548 155.712C145.877 155.737 145.207 155.737 144.536 155.762C141.147 155.885 137.673 156.231 134.212 156.515C134.188 156.515 134.152 156.515 134.128 156.515C134.212 155.885 134.248 155.243 134.236 154.601C134.212 153.354 134.188 152.095 134.176 150.848C134.152 149.317 133.925 147.848 133.661 146.342C133.625 146.145 133.589 145.947 133.554 145.75C135.697 145.774 137.853 145.824 139.997 145.824C142.38 145.824 144.752 145.787 147.135 145.762C147.015 146.046 146.883 146.305 146.812 146.614C146.584 147.453 146.309 148.305 146.273 149.169C146.225 150.219 146.321 151.28 146.356 152.342H146.344ZM124.93 156.157C123.29 156.095 121.649 156.033 119.996 155.959C117.529 155.86 115.002 155.836 112.475 155.811C112.571 154.848 112.487 153.873 112.391 152.898C112.259 151.601 112.08 150.317 111.84 149.034C111.648 148.009 111.565 146.898 111.169 145.935C111.121 145.799 111.05 145.676 110.99 145.552C112.966 145.552 114.942 145.552 116.906 145.565C119.792 145.602 122.679 145.626 125.565 145.663C125.529 145.898 125.481 146.12 125.445 146.355C125.182 147.861 124.954 149.33 124.93 150.861C124.906 152.107 124.883 153.367 124.871 154.613C124.871 155.132 124.871 155.65 124.93 156.169V156.157ZM104.498 145.33C104.918 145.367 105.349 145.355 105.768 145.367C105.72 145.552 105.66 145.737 105.624 145.923C105.337 147.157 105.409 148.441 105.373 149.688C105.349 150.811 105.373 151.91 105.457 153.021C105.492 153.552 105.528 154.095 105.564 154.626C105.588 154.897 105.6 155.157 105.624 155.428C105.648 155.626 105.696 155.762 105.744 155.934C103.373 156.008 101.001 156.045 98.6658 156.292C98.606 153.749 98.2826 151.219 97.9113 148.7C97.7796 147.824 97.7556 146.799 97.4921 145.972C97.2885 145.355 96.9532 144.737 96.6777 144.145C96.6538 144.096 96.6298 144.046 96.6059 143.984C96.8574 143.947 97.1089 143.812 97.3724 143.738C99.6359 144.626 101.648 145.12 104.498 145.33ZM350.329 415.118C349.982 415.13 349.646 415.204 349.299 415.266C349.263 415.266 349.251 415.266 349.095 415.266C348.173 415.303 347.239 415.439 346.341 415.55C346.233 415.562 345.059 415.698 345.682 415.649C345.263 415.686 344.856 415.686 344.437 415.723C344.077 415.747 343.742 415.846 343.383 415.896C341.335 415.414 339.179 415.019 336.532 414.859C329.131 414.426 321.669 414.439 314.244 414.315C298.638 414.044 283.057 413.933 267.451 413.871C246.277 413.797 225.114 413.772 203.94 413.747C205.856 409.081 204.922 403.39 205.006 398.477C205.042 395.934 205.065 393.403 205.101 390.86C205.916 390.44 206.742 390.033 207.449 389.477C208.682 388.514 208.682 386.366 207.449 385.416C206.754 384.885 205.964 384.49 205.185 384.082C205.209 382.367 205.233 380.638 205.245 378.91C205.365 366.676 205.497 354.442 205.796 342.196C206.06 342.109 206.311 342.109 206.587 341.974C220.791 335.073 237.163 336.344 250.6 344.097C254.541 346.368 260.002 343.418 259.906 339.258C259.343 315.938 285.308 298.581 309.477 308.593C311.01 309.222 313.345 308.148 312.639 306.383C305.345 288.088 309.549 266.027 316.615 248.25C322.46 233.56 329.777 214.697 348.042 212.413C348.281 249.09 348.557 285.754 348.784 322.431C348.892 339.505 349.203 356.578 349.586 373.651C349.898 387.428 348.82 401.464 351.347 415.142C351 415.105 350.664 415.081 350.317 415.093L350.329 415.118ZM347.994 22.5589C337.095 19.769 325.334 24.1021 317.657 31.793C307.932 41.5455 306.531 55.1868 306.291 67.9145C291.704 68.8527 277.092 73.05 263.343 76.9757C247.606 81.4693 232.324 87.3826 217.749 94.3945C212.778 96.7894 216.335 103.234 221.413 102.283C232.156 100.283 243.977 101.555 254.876 101.876C265.595 102.184 276.302 102.789 287.033 103.122C307.309 103.74 327.574 104.332 347.85 104.653C347.802 117.504 347.706 130.356 347.718 143.207C347.754 163.971 347.898 184.735 348.018 205.5C331.813 202.574 317.825 222.622 312.818 234.856C308.435 245.559 306.447 257.2 305.824 268.595C305.177 280.496 307.19 292.149 308.148 303.926C282.673 294.766 255.211 307.21 248.924 330.678C235.187 325.431 219.33 326.234 206.024 332.554C206.036 331.937 206.06 331.332 206.072 330.727C207.581 330.32 208.826 329.443 209.868 328.419C210.611 327.678 210.623 326.616 209.868 325.876C208.862 324.888 207.652 324.061 206.227 323.629C206.455 314.123 206.658 304.605 206.634 295.087C206.634 291.952 207.664 278.866 204.359 273.422C204.395 273.212 204.479 273.027 204.479 272.805C204.479 272.249 204.479 271.829 204.287 271.2C204.024 270.36 203.556 269.62 202.874 269.002C202.562 268.62 202.155 268.311 201.652 268.101C201.305 267.854 200.946 267.607 200.598 267.373C200.251 267.126 199.904 266.854 199.52 266.657C199.137 266.459 198.718 266.323 198.311 266.151C197.951 266.002 197.604 265.854 197.245 265.706C197.389 265.323 197.532 264.941 197.532 264.459C197.532 264.249 197.436 264.114 197.412 263.916C198.011 264.04 198.61 264.114 199.197 263.99C199.904 263.966 200.55 263.768 201.161 263.422C201.64 263.138 202.155 262.83 202.562 262.472C202.982 262.101 203.305 261.645 203.652 261.213C203.832 260.99 204 260.768 204.167 260.534C204.718 259.768 205.03 258.793 205.305 257.904C205.784 256.336 205.485 254.571 205.185 253.003C205.221 253.25 205.257 253.497 205.293 253.744C205.269 253.386 205.257 253.04 205.233 252.682C206.263 249.979 206.167 247.263 206.167 244.041C206.167 239.214 206.167 234.375 206.167 229.548L206.191 201.599C206.191 192.278 206.299 182.958 206.215 173.649C206.167 168.835 206.239 163.959 205.952 159.156C205.772 156.083 205.437 152.984 203.628 150.466C203.509 148.959 202.359 147.602 200.73 147.169C199.975 146.972 199.197 146.997 198.43 146.984C197.209 146.984 196.071 146.984 194.861 147.145C193.987 147.256 193.113 147.318 192.287 147.626L190.73 148.194C190.73 147.243 190.73 146.293 190.634 145.342C190.586 144.812 190.538 144.281 190.43 143.75C190.346 143.342 190.131 142.96 189.939 142.577C190.023 142.429 190.155 142.367 190.227 142.207C191.556 139.158 189.113 136.651 187.424 134.195C185.568 131.491 183.735 128.775 182.094 125.973C178.909 120.541 176.43 114.838 174.597 108.912C172.801 103.135 171.843 97.3079 171.124 91.37C170.741 88.185 170.609 85.0247 170.453 81.8273C170.286 78.5312 168.92 75.5931 168.633 72.334C168.537 71.2476 167.495 70.8526 166.633 71.1242C166.25 69.4576 165.387 67.8281 164.944 66.0998C164.07 62.7049 163.088 59.5322 161.794 56.2238C159.423 50.1747 157.255 44.0763 155.075 37.9655C152.896 31.8547 150.632 25.7686 148.596 19.6085C146.656 13.7446 145.291 7.51036 141.877 2.18967C141.889 1.88104 141.925 1.57242 141.937 1.25145C141.973 -0.365749 139.53 -0.538578 138.955 0.856407C138.679 1.09096 138.452 1.39959 138.404 1.79462C138.368 2.04153 138.404 2.27608 138.404 2.52298C136.356 8.22638 134.799 14.0162 133.039 19.806C131.17 25.9415 128.847 31.9411 126.727 38.0025C124.607 44.0639 122.296 50.0759 119.792 56.0139C118.583 58.8903 117.337 61.742 116.044 64.5813C114.906 67.075 113.625 69.1119 114.032 71.4698C114.02 71.5316 113.96 71.5686 113.948 71.6303C113.241 77.5436 113.804 83.4939 113.373 89.4318C112.978 95.1105 111.9 100.715 110.247 106.196C106.822 117.554 100.917 127.837 92.45 136.775C91.2404 138.059 90.9769 139.38 91.2523 140.565C90.8332 141.713 90.402 142.849 89.9349 143.984C89.6834 144.589 89.384 145.194 89.1804 145.799C88.893 146.7 88.893 147.762 88.7972 148.688C88.6654 149.996 88.5337 151.317 88.4498 152.626C88.1265 152.293 87.839 151.959 87.36 151.774C87.2522 151.737 87.1204 151.725 87.0007 151.688C84.4137 149.725 80.4375 149.404 77.5751 150.984C77.4075 151.083 77.2997 151.256 77.144 151.379C76.5571 151.564 75.9942 151.873 75.5152 152.428C72.9642 155.441 73.0839 160.107 72.7486 163.811C72.3174 168.465 72.4851 173.193 72.4372 177.859C72.3534 186.55 72.2935 195.253 72.3294 203.944C72.3653 212.635 72.3893 221.338 72.4252 230.029C72.4611 238.856 71.527 248.534 75.3355 256.793C75.5152 257.188 75.8266 257.423 76.102 257.694C76.1619 257.978 76.2697 258.262 76.4014 258.534L76.8685 259.497C76.8685 259.497 76.9164 259.608 76.9523 259.669L77.4434 260.237C77.5153 260.324 77.5871 260.41 77.659 260.497C77.8266 260.694 77.9943 260.892 78.162 261.089C78.4614 261.435 78.7608 261.793 79.0602 262.151C79.707 262.916 80.3537 263.669 81.1561 264.286C81.2519 264.879 81.5034 265.435 81.9226 265.904C81.8747 265.928 81.8268 265.928 81.7909 265.953C81.2879 266.175 80.7968 266.447 80.4256 266.842C80.0663 267.212 79.7429 267.62 79.4195 268.027C79.192 268.299 78.9764 268.595 78.7848 268.891C78.677 269.052 78.5812 269.2 78.4853 269.36C78.2698 269.718 78.0422 270.138 77.9344 270.508C77.8386 270.817 77.7787 271.348 77.7668 271.755C77.7548 272.076 77.7668 272.397 77.7907 272.718C77.7907 273.101 77.9823 273.434 78.1141 273.792C77.3356 275.681 76.9523 277.681 76.7368 279.705C71.9581 276.965 66.4609 275.15 61.1074 273.656C53.7298 271.595 46.1726 270.94 38.6034 271.595C40.4838 258.632 38.0286 245.436 31.8606 233.51C28.3874 226.807 23.7286 220.56 18.1715 215.129C15.8121 212.82 12.4227 209.549 8.698 207.203C8.98544 160.255 9.15311 113.319 8.86567 66.3714C8.79382 54.2486 9.02137 42.064 9.03335 29.8919C15.8121 30.5585 23.0938 29.7684 29.7168 29.4721C38.2801 29.0894 46.8433 28.1882 55.3826 27.4969C72.4971 26.1019 89.5996 24.4107 106.714 23.0157C112.139 22.5713 113.696 15.6581 108.043 14.1396C96.1388 10.9299 84.2461 7.70788 72.3414 4.49818C66.5447 2.93037 60.7601 1.3749 54.9514 -0.118851C52.0411 -0.85955 49.1428 -1.61259 46.2325 -2.36564C44.2803 -2.87178 38.8669 -3.30386 38.3639 -5.51362C38.0166 -6.99502 40.1604 -10.1307 40.5916 -11.5256C41.1065 -13.1552 41.406 -14.8835 41.4539 -16.5747C41.5497 -19.9696 40.5197 -23.3151 38.807 -26.315C37.8729 -27.9692 36.6034 -29.5617 35.1422 -31.0061C38.3998 -30.9814 41.6575 -30.9814 44.8432 -30.932C59.79 -30.7098 74.7487 -30.7838 89.7074 -30.7715L177.196 -30.7098C206.359 -30.6851 235.522 -30.8209 264.685 -30.895C292.842 -30.9567 324.184 -28.6605 351.67 -33.2652C351.898 -33.3022 352.054 -33.3886 352.257 -33.438C348.82 -14.8835 348.137 3.80686 348.042 22.5219L347.994 22.5589ZM348.006 54.335C347.922 67.9762 347.934 81.6051 347.874 95.2463C327.586 94.9871 307.309 95.0118 287.033 95.0365C276.745 95.0488 266.457 95.3451 256.169 95.3574C250.013 95.3574 243.57 95.6167 237.187 95.5056C246.924 91.6045 256.888 88.2344 267.176 85.5678C282.386 81.6174 298.063 80.7656 313.489 77.8892C315.968 77.4325 317.633 75.0622 317.693 72.8895C317.956 62.2605 318.184 51.0512 324.34 41.6443C329.238 34.1385 338.676 29.6573 347.994 32.2251C348.006 39.595 348.065 46.9773 348.018 54.3473L348.006 54.335Z" fill="#3A0505"/>
<path d="M129.206 64.7913C129.553 65.0382 129.889 65.2728 130.236 65.5197C131.026 65.9394 131.889 66.1493 132.811 66.1493C133.517 66.174 134.164 66.0382 134.775 65.7542C135.41 65.5691 135.949 65.2481 136.416 64.8037C136.919 64.3839 137.266 63.8901 137.47 63.3223C137.793 62.7667 137.937 62.1742 137.913 61.5446C137.853 61.1372 137.793 60.7298 137.733 60.3101C137.494 59.5323 137.051 58.8534 136.428 58.2732C136.08 58.0386 135.745 57.7917 135.398 57.5448C134.607 57.1251 133.745 56.9152 132.823 56.9152C132.128 56.8905 131.469 57.0263 130.859 57.3102C130.224 57.4954 129.685 57.8164 129.218 58.2608C128.715 58.6805 128.368 59.1743 128.164 59.7546C127.841 60.3101 127.697 60.9027 127.721 61.5322C127.781 61.9396 127.841 62.347 127.9 62.7667C128.14 63.5445 128.583 64.2235 129.206 64.8037V64.7913Z" fill="#3A0505"/>
<path d="M142.919 57.0756C142.333 57.5694 141.925 58.1496 141.674 58.8286C141.303 59.4829 141.123 60.1742 141.159 60.9272C141.231 61.4087 141.303 61.8902 141.374 62.3716C141.662 63.2975 142.177 64.0999 142.919 64.7789C143.327 65.0628 143.734 65.3468 144.129 65.6307C145.063 66.1245 146.069 66.3714 147.159 66.3714C147.985 66.3961 148.752 66.2479 149.471 65.9023C150.213 65.6801 150.86 65.3097 151.399 64.7789C151.986 64.2851 152.393 63.7049 152.644 63.0259C153.028 62.3716 153.195 61.6803 153.159 60.9272C153.087 60.4458 153.016 59.9643 152.944 59.4829C152.656 58.557 152.141 57.7669 151.399 57.0756C150.992 56.7917 150.584 56.5077 150.189 56.2238C149.255 55.73 148.249 55.4831 147.159 55.4831C146.333 55.4584 145.566 55.6066 144.848 55.9522C144.105 56.1744 143.458 56.5448 142.919 57.0756Z" fill="#3A0505"/>
<path d="M139.985 52.582C146.62 52.582 146.632 43.2368 139.985 43.2368C133.338 43.2368 133.338 52.582 139.985 52.582Z" fill="#3A0505"/>
<path d="M125.637 116.418C133.877 116.418 133.889 104.814 125.637 104.814C117.385 104.814 117.385 116.418 125.637 116.418Z" fill="#3A0505"/>
<path d="M141.949 116.196C149.015 116.196 149.027 106.233 141.949 106.233C134.871 106.233 134.871 116.196 141.949 116.196Z" fill="#3A0505"/>
<path d="M153.674 114.171C154.045 114.431 154.429 114.69 154.8 114.961C155.662 115.418 156.596 115.64 157.602 115.653C158.369 115.677 159.076 115.529 159.746 115.221C160.429 115.023 161.028 114.677 161.531 114.184C162.07 113.727 162.453 113.184 162.681 112.566C163.028 111.962 163.184 111.32 163.16 110.628C163.088 110.184 163.028 109.739 162.956 109.295C162.693 108.443 162.213 107.703 161.531 107.073L160.405 106.283C159.543 105.826 158.609 105.604 157.602 105.592C156.836 105.567 156.129 105.715 155.459 106.024C154.776 106.221 154.177 106.579 153.674 107.061C153.135 107.517 152.752 108.061 152.524 108.678C152.177 109.283 152.021 109.925 152.045 110.616C152.105 111.06 152.177 111.505 152.249 111.949C152.512 112.801 152.992 113.542 153.674 114.171Z" fill="#3A0505"/>
<path d="M133.47 133.084C141.853 133.084 141.865 121.27 133.47 121.27C125.074 121.27 125.074 133.084 133.47 133.084Z" fill="#3A0505"/>
<path d="M150.429 132.343C156.908 132.343 156.92 123.208 150.429 123.208C143.937 123.208 143.937 132.343 150.429 132.343Z" fill="#3A0505"/>
</g>
</svg>
