<svg width="345" height="319" viewBox="0 0 345 319" fill="none" xmlns="http://www.w3.org/2000/svg">
<path d="M13.9346 318.958H330.396V182.232C330.396 181.185 330.477 180.097 330.477 179.008C330.477 88.1647 259.597 14.4849 172.206 14.4849C84.8143 14.4849 15.5857 86.532 14.0151 175.994H13.9346V178.967C13.9346 178.967 13.9346 179.009 13.9346 179.05C13.9346 179.05 13.9346 179.092 13.9346 179.134V319V318.958Z" fill="#363635"/>
<g style="mix-blend-mode:screen">
<path d="M172.206 17.8758C252.872 17.8758 319.482 80.4199 329.591 161.426C321.134 78.8291 253.919 14.4849 172.206 14.4849C90.4927 14.4849 23.2375 78.9128 14.8608 161.593C24.8887 80.5455 91.4995 17.8758 172.206 17.8758Z" fill="white"/>
</g>
<path d="M0.0402735 318.958H13.9343V179.092C13.9343 179.092 13.9343 179.05 13.9343 179.008C13.9343 179.008 13.9343 178.967 13.9343 178.925V175.952H14.0148C15.5855 86.49 85.7805 14.4429 172.205 14.4429C258.63 14.4429 330.477 88.1227 330.477 178.967C330.477 180.055 330.436 181.102 330.396 182.19V318.916H344.29V182.316C344.29 181.981 344.29 181.688 344.29 181.353C344.29 180.557 344.33 179.762 344.33 178.967C344.33 80.2942 267.088 0 172.165 0C126.738 0 83.8877 18.2525 51.5086 51.3665C22.4318 81.0896 4.75217 119.772 0.845728 161.509H0.080547L0 175.952V178.673V178.967C0 179.05 0 179.134 0 179.176V318.874L0.0402735 318.958Z" fill="#3F413F"/>
<path d="M0.0405273 247.623H13.9346V179.092C13.9346 179.092 13.9346 179.05 13.9346 179.008C13.9346 179.008 13.9346 178.967 13.9346 178.925V177.92H0.725161C0.483526 177.92 0.24189 177.878 0.0405273 177.794V178.967C0.0405273 178.967 0.0405273 179.134 0.0405273 179.176V247.539V247.623Z" fill="#575857"/>
<path d="M13.9346 252.312H0.0405273V290.952H13.9346V252.312Z" fill="#575857"/>
<path d="M13.9346 295.64H0.0405273V318.958H13.9346V295.64Z" fill="#575857"/>
<path d="M108.534 12.7266C91.2172 19.8852 75.0277 30.0162 60.5698 42.8683C62.8654 47.1802 65.1609 51.4922 67.4162 55.846C80.6658 43.6637 95.8889 33.742 112.521 26.6671C111.152 22.0203 109.823 17.3734 108.534 12.7266Z" fill="#575857"/>
<path d="M112.763 11.0519C114.092 15.6987 115.421 20.3456 116.75 24.9505C132.295 18.8803 149.008 15.2382 166.446 14.6103V0.125488C147.881 0.753441 129.798 4.4793 112.763 11.01V11.0519Z" fill="#575857"/>
<path d="M31.1307 104.617C39.5074 87.4947 50.6629 72.0889 63.9931 59.0694C61.6976 54.7155 59.402 50.3199 57.1065 45.9661C55.2137 47.7243 53.3612 49.5245 51.5489 51.3665C38.4603 64.7209 27.7075 79.9592 19.4517 96.4116C23.3178 99.1746 27.2243 101.896 31.1307 104.575V104.617Z" fill="#575857"/>
<path d="M17.438 100.598C8.5378 119.562 2.89964 140.117 0.926286 161.509H0.161113L0.0805664 173.357C0.281929 173.315 0.523565 173.231 0.7652 173.231H14.176C14.9411 150.248 20.2571 128.479 29.1574 108.803C25.2509 106.082 21.3445 103.361 17.438 100.556V100.598Z" fill="#575857"/>
<path d="M245.018 16.8711C243.246 21.3086 241.515 25.788 239.823 30.2256C253.637 37.0074 266.403 45.7988 277.679 56.3065C280.297 52.3295 282.955 48.3525 285.653 44.4591C273.531 33.4072 259.839 24.1135 245.059 16.8711H245.018Z" fill="#575857"/>
<path d="M240.951 14.9452C219.888 5.35841 196.651 0.041748 172.206 0.041748C171.763 0.041748 171.36 0.041748 170.917 0.041748V14.4847C171.36 14.4847 171.763 14.4847 172.206 14.4847C194.799 14.4847 216.304 19.4246 235.756 28.2996C237.447 23.8202 239.179 19.3827 240.951 14.9452Z" fill="#575857"/>
<path d="M314.327 106.459C323.912 126.721 329.631 149.327 330.436 173.273H344.33C343.525 146.355 336.92 120.944 325.845 98.2537C322.019 101.017 318.193 103.738 314.327 106.459Z" fill="#575857"/>
<path d="M312.233 102.273C316.1 99.5514 319.926 96.8721 323.711 94.0673C314.61 76.6102 302.85 60.9113 288.956 47.5569C286.258 51.5339 283.64 55.5109 280.982 59.488C293.507 71.8377 304.098 86.2388 312.233 102.231V102.273Z" fill="#575857"/>
<path d="M330.436 247.623H344.33V182.358C344.33 182.023 344.33 181.73 344.33 181.395C344.33 180.599 344.371 179.804 344.371 179.009C344.371 178.674 344.371 178.297 344.371 177.962H330.477C330.477 178.339 330.477 178.674 330.477 179.009C330.477 180.097 330.436 181.144 330.396 182.232V247.623H330.436Z" fill="#575857"/>
<path d="M344.331 252.312H330.437V290.952H344.331V252.312Z" fill="#575857"/>
<path d="M344.331 295.64H330.437V318.958H344.331V295.64Z" fill="#575857"/>
<mask id="mask0_1_3032" style="mask-type:luminance" maskUnits="userSpaceOnUse" x="13" y="16" width="316" height="300">
<path d="M13.4609 315.605H328.643V181.266C328.667 180.218 328.727 179.17 328.727 178.122C328.727 88.8547 258.149 16.4766 171.088 16.4766C84.0277 16.4766 15.0959 87.2398 13.5331 175.127H13.4609V178.036C13.4609 178.036 13.4609 178.085 13.4609 178.11C13.4609 178.135 13.4609 178.159 13.4609 178.196V315.605Z" fill="white"/>
</mask>
<g mask="url(#mask0_1_3032)">
<path d="M160.401 84.0178C161.88 75.3881 163.514 66.7955 165.486 58.3014C164.536 58.0918 163.599 57.8946 162.673 57.7343C158.501 57.007 154.33 56.3166 150.146 55.6509C141.635 54.2948 133.088 53.0989 124.552 51.9155C116.342 50.7813 108.107 49.832 99.8962 48.7225C95.0515 48.0691 89.9783 47.4897 84.9894 46.6021C82.573 65.5503 78.9185 84.326 75.0355 103.003C75.0115 103.114 74.9874 103.225 74.9634 103.336C76.8868 103.656 78.7502 104.026 80.5534 104.371C79.76 98.9718 80.6977 93.1282 82.6692 88.2217C85.4101 81.4042 89.8702 75.5607 95.8449 71.4062C97.4317 70.309 100.269 71.3322 100.569 73.3787C101.483 79.518 102.036 85.7067 102.06 91.9201C102.072 94.8788 101.976 97.8376 101.772 100.784C101.615 103.028 101.543 105.432 101.074 107.688C103.887 108.132 106.712 108.575 109.525 109.019C109.525 102.904 110.211 96.5678 112.278 90.8599C114.118 85.7684 116.474 80.1838 120.766 76.7689C124.829 73.5389 130.768 73.6745 133.472 78.6551C135.913 83.1548 134.603 88.7764 133.965 93.5597L132.655 103.472C132.258 106.443 132.006 109.66 131.128 112.545C133.941 113.013 136.766 113.47 139.591 113.926C138.954 109.549 139.664 104.754 140.794 100.624C142.128 95.7541 144.232 90.8475 147.201 86.7793C148.704 84.7205 150.579 82.7233 153.068 82.0083C155.52 81.3056 158.069 81.9467 160.004 83.611C160.136 83.7342 160.233 83.8822 160.365 84.0055L160.401 84.0178Z" fill="#D9DEE2"/>
<path d="M149.244 40.8818C149.244 40.8818 149.232 40.919 149.221 40.9313C149.221 40.9561 149.221 40.9685 149.221 40.9932C149.221 40.9561 149.232 40.8942 149.244 40.8818Z" fill="#A9C2FF"/>
<path d="M113.901 33.0536C113.625 33.3248 113.132 33.8549 113.024 33.9905C112.615 34.533 112.074 35.6178 111.81 36.4685C111.425 37.689 111.233 38.9588 111.112 40.2285C114.058 40.5244 116.991 40.8573 119.924 41.2025C119.96 40.5861 120.02 39.982 120.08 39.3656C120.141 38.6506 120.177 37.9355 120.153 37.2205C120.153 36.8876 120.116 36.5671 120.092 36.2342C120.056 36.074 120.032 35.9014 119.996 35.7411C119.936 35.4699 119.864 35.211 119.78 34.9521C119.744 34.8288 119.491 34.1878 119.696 34.6686C119.972 35.322 119.479 34.1631 119.539 34.2864C119.347 33.8303 119.323 33.7686 119.455 34.0892C119.479 34.1508 119.515 34.2248 119.539 34.2864C119.479 34.2864 119.275 33.7316 119.227 33.6453C119.107 33.4234 118.962 33.2139 118.83 32.992C118.794 32.9426 118.758 32.9057 118.734 32.8687C118.578 32.6961 118.421 32.5358 118.253 32.3756C118.205 32.3262 118.217 32.3386 118.193 32.3139C118.169 32.3139 118.193 32.3139 118.157 32.2893C117.965 32.166 117.772 32.0427 117.58 31.9317C117.532 31.9071 117.448 31.8824 117.388 31.8578C117.315 31.8331 117.195 31.7961 117.087 31.7592C117.051 31.7592 117.015 31.7345 116.979 31.7345C116.847 31.7345 116.714 31.7222 116.582 31.7222C116.462 31.7222 116.342 31.7222 116.209 31.7345C116.005 31.7838 115.801 31.8454 115.608 31.8948C115.608 31.8948 115.608 31.8948 115.596 31.8948C115.548 31.9194 115.5 31.9441 115.452 31.9687C115.248 32.0797 115.043 32.1906 114.839 32.3262C114.707 32.4125 114.178 32.844 114.49 32.5605C114.31 32.7207 114.13 32.881 113.961 33.0536H113.901Z" fill="#9BA7B2"/>
<path d="M149.219 39.1315C149.219 39.1315 149.196 39.0205 149.185 38.9712C149.185 39.0205 149.185 39.0698 149.185 39.1684C149.219 39.3287 149.278 39.4397 149.219 39.1438V39.1315Z" fill="#A9C2FF"/>
<path d="M108.647 33.6329C109.405 31.0687 111.088 28.7387 113.444 27.5182C116.029 26.1744 118.962 25.9649 121.523 27.5182C123.987 29.0099 125.73 31.6235 126.271 34.4959C126.584 36.1479 126.68 37.8245 126.536 39.5134C126.475 40.2901 126.355 41.1407 126.187 41.9667C126.247 41.9667 126.307 41.979 126.367 41.9914C129.649 42.4105 132.943 42.8913 136.225 43.3598C134.602 41.301 133.881 38.3546 134.362 35.815C135.023 32.3508 137.379 29.6633 140.589 28.4921C143.57 27.4072 146.96 27.9374 149.737 29.3674C152.707 30.8961 154.822 33.8179 155.592 37.1218C155.736 37.7259 155.82 38.3546 155.892 39.008C156.181 37.4053 156.469 35.8027 156.734 34.2C157.106 31.87 157.599 29.5523 157.972 27.21C158.176 25.9156 158.489 24.6458 158.814 23.376C156.638 22.8705 154.462 22.3774 152.286 21.9336C147.225 20.898 142.14 19.9488 137.03 19.1721C131.945 18.3831 126.836 17.742 121.751 17.0147C117.075 16.349 112.554 15.1531 107.914 14.3518C107.433 14.3518 106.964 14.3518 106.484 14.3518C106.508 14.4628 106.544 14.5614 106.544 14.6723C106.724 19.4063 106.339 24.091 105.317 28.714C104.812 30.9947 104.32 33.2754 103.815 35.5561C103.586 36.567 103.37 37.5779 103.141 38.6012C103.081 38.897 102.985 39.1682 102.913 39.4518C104.656 39.5997 106.399 39.7846 108.142 39.9572C108.01 37.8368 108.046 35.7041 108.659 33.6576L108.647 33.6329Z" fill="#D9DEE2"/>
<path d="M149.219 41.0177V40.9929C149.195 41.0795 149.172 41.1538 149.16 41.2775C149.172 41.3023 149.195 41.2775 149.219 41.03V41.0177Z" fill="#A9C2FF"/>
<path d="M1.42752 73.9211C1.46359 85.6205 1.43954 97.3198 1.46359 109.007C5.04602 108.884 8.91698 109.833 11.8382 110.807C17.4162 112.644 22.5855 115.911 26.5647 120.336C33.5973 128.152 36.4945 139.272 34.9798 149.727C37.5885 149.073 40.2332 148.58 42.902 148.235C47.1817 147.692 51.762 147.298 55.681 149.406C55.8733 149.505 56.0176 149.628 56.1498 149.764C56.4023 148.568 56.6427 147.36 56.9072 146.164C59.4558 134.218 62.0044 122.223 64.7092 110.252C62.5213 109.537 60.4416 108.588 58.7225 106.948C57.929 106.184 58.0132 104.47 59.0951 103.989C61.3071 102.978 63.8437 102.633 66.4764 102.596C70.9244 83.5001 75.8773 64.5271 82.1165 46.0473C79.1832 45.4309 76.286 44.7159 73.5331 43.6927C71.7539 43.0269 71.3331 39.9942 73.5331 39.5504C80.181 38.182 87.2257 38.3423 94.078 38.7614C94.1141 38.4039 94.1501 38.0341 94.2102 37.6766C94.2944 37.1588 94.4146 36.6657 94.5348 36.1602C94.8113 35.0753 95.0878 33.9781 95.3523 32.8933C95.8932 30.7112 96.4462 28.5414 96.9872 26.3594C98.0451 22.1555 99.668 18.1489 101.676 14.3395C96.4222 14.3395 91.1567 14.3395 85.9033 14.3395C70.2872 14.3395 54.6712 14.4135 39.0672 14.2902C31.1209 14.2285 23.1626 14.2532 15.2163 14.0436C9.44593 13.8833 3.71163 14.0559 -1.87842 12.9834C0.862507 21.6377 0.970701 30.9947 1.10294 40.1668C1.27124 51.4224 1.39146 62.6779 1.42752 73.9458V73.9211Z" fill="#A9C2FF"/>
<path d="M137.872 38.7369C137.848 38.8232 137.848 38.8355 137.836 38.8725C137.836 38.8848 137.836 38.8725 137.836 38.8971C137.812 39.1683 137.812 39.4642 137.824 39.7354C137.86 40.7463 138.233 41.8066 138.918 42.7435C139.135 43.027 139.123 43.3969 139.014 43.7297C142.104 44.1859 145.194 44.6667 148.271 45.1475C148.271 45.1105 148.271 45.0735 148.283 45.0365C148.307 44.8886 148.343 44.753 148.379 44.605C148.451 44.2352 148.512 43.8777 148.62 43.5078C148.812 42.8668 148.992 42.2011 149.125 41.5353C149.125 41.4984 149.137 41.3751 149.161 41.2641C149.137 41.2271 149.149 41.0422 149.221 40.9189C149.245 40.6107 149.257 40.3025 149.257 39.9943C149.257 39.908 149.197 39.4519 149.185 39.1437C149.173 39.0574 149.161 38.9834 149.185 38.9341C149.161 38.8108 149.137 38.6876 149.113 38.5766C149.016 38.1821 148.896 37.7876 148.764 37.4054C148.764 37.3684 148.764 37.3808 148.752 37.3561C148.668 37.1959 148.572 37.0233 148.56 36.9986C148.427 36.7397 148.271 36.4932 148.115 36.2466C148.055 36.1603 147.946 36.0247 147.862 35.9014C147.622 35.6425 147.393 35.3836 147.129 35.1371C147.117 35.1247 147.021 35.0384 146.937 34.9645C146.913 34.9521 146.937 34.9645 146.901 34.9398C146.612 34.7549 146.348 34.57 146.047 34.3974C145.927 34.3357 145.819 34.2741 145.698 34.2125C145.614 34.1631 145.049 34.0029 145.506 34.1138C145.975 34.2248 145.302 34.0522 145.206 34.0152C145.049 33.9659 144.893 33.9166 144.725 33.8673C144.46 33.7933 144.16 33.7563 143.895 33.6824C143.775 33.6824 143.655 33.6577 143.523 33.6577C143.198 33.6454 142.873 33.6577 142.537 33.67C142.501 33.67 142.513 33.67 142.489 33.67C142.356 33.6947 142.236 33.7193 142.104 33.744C141.791 33.818 141.491 33.9166 141.19 34.0152C141.034 34.1015 140.878 34.1755 140.722 34.2618C140.505 34.3851 140.313 34.533 140.096 34.6563C140.048 34.6809 140.06 34.6809 140.036 34.6809C140.012 34.7056 140.012 34.7179 139.952 34.7795C139.844 34.8905 139.724 34.9891 139.616 35.1001C139.531 35.1864 139.447 35.285 139.363 35.3713C139.363 35.3713 139.267 35.4946 139.195 35.5809C139.135 35.6672 139.063 35.7781 139.063 35.7781C138.99 35.8891 138.93 35.9877 138.87 36.0987C138.738 36.3329 138.618 36.5795 138.498 36.826C138.473 36.8877 138.413 37.0356 138.389 37.1096C138.305 37.3438 138.209 37.5657 138.125 37.7999C138.281 37.4054 137.993 38.2437 137.957 38.3547C137.92 38.478 137.896 38.5889 137.872 38.7122V38.7369Z" fill="#9BA7B2"/>
<path d="M387.705 150.799C374.036 148.691 359.442 145.905 345.966 150.54C335.038 154.3 325.637 163.349 322.692 174.95C322.596 175.307 322.343 175.455 322.067 175.505C321.79 175.727 321.466 175.887 321.129 175.912C313.387 176.59 305.729 173.853 298.06 173.113C290.534 172.386 282.852 172.928 275.699 175.517C263.053 180.091 254.505 191.889 243.313 199.014C233.696 205.129 220.869 207.176 211.721 199.014C202.993 191.223 199.326 178.661 187.293 175.036C181.041 173.162 174.309 173.692 167.998 174.888C165.329 175.394 161.663 176.984 158.381 177.292C157.515 184.406 156.674 191.531 155.796 198.645C157.948 199.088 160.004 199.779 161.747 201.073C164.608 203.206 164.295 207.558 160.761 208.778C158.753 209.469 156.626 209.53 154.486 209.321C154.185 211.725 153.897 214.141 153.596 216.545C151.48 233.669 149.352 250.78 147.189 267.904C150.338 268.397 153.416 269.087 156.265 270.184C159.571 271.454 160.364 277.014 156.265 277.914C152.923 278.654 149.425 278.876 145.878 278.851C145.794 279.615 145.698 280.38 145.614 281.132C145.65 281.132 145.674 281.119 145.71 281.119C153.199 281.07 160.761 282.118 168.287 283.117C169.465 274.992 175.151 268.261 182.941 265.438C191.067 262.479 199.843 264.92 206.708 269.864C212.454 262.319 220.797 256.032 230.246 255.6C236.882 255.292 243.373 259.015 246.247 264.822C252.137 259.2 260.576 256.513 268.559 258.88C273.728 260.408 278.248 263.848 281.362 268.323C282.792 270.369 284.752 273.698 285.064 276.718C285.689 276.361 286.339 276.053 287.012 275.831C288.839 275.251 290.883 274.98 292.794 275.153C294.982 275.35 297.11 276.016 299.057 277.076C300.007 277.594 300.897 278.247 301.714 278.962C302.075 279.27 302.375 279.64 302.676 280.01C303.349 280.861 303.638 281.563 303.65 282.488C310.935 281.637 318.208 280.737 325.481 279.813C344.836 277.335 364.142 274.45 383.509 271.997C393.163 270.776 402.828 269.741 412.517 268.89C420.536 268.187 429.167 267.102 437.294 267.891C437.703 267.127 438.135 266.387 438.58 265.722C442.499 259.989 447.837 256.759 454.124 255.65C454.16 255.428 454.184 255.193 454.208 254.972C454.473 253.246 454.845 251.544 455.326 249.868C456.324 246.379 457.743 242.964 459.534 239.82C461.217 236.886 463.85 234.149 467.444 234.445C468.466 234.532 469.452 234.901 470.257 235.542C470.197 201.344 470.113 167.146 470.113 132.948V79.6538C464.559 79.9127 459.053 80.4921 453.463 80.5784C447.44 80.6647 441.417 80.8496 435.455 81.7496C425.621 83.229 415.835 86.163 407.276 91.4518C398.632 96.7898 391.095 104.791 387.669 114.678C383.894 125.564 386.599 135.599 391.912 145.239C393.631 148.371 390.806 151.305 387.729 150.824L387.705 150.799Z" fill="white"/>
<path d="M110.463 151.613C109.417 151.884 108.515 153.918 108.071 154.781C107.265 156.359 106.556 157.986 105.859 159.614C104.32 163.201 102.937 166.887 101.687 170.598C99.5953 176.824 98.0565 183.234 96.7822 189.694C99.2106 190.064 101.639 190.434 104.067 190.804C105.45 191.013 106.844 191.235 108.227 191.445C109.14 184.233 110.523 177.082 111.1 169.809C111.437 165.63 111.641 161.45 111.737 157.259C111.761 156.112 112.266 151.144 110.451 151.625L110.463 151.613Z" fill="#9BA7B2"/>
<path d="M117.435 172.04C116.894 178.747 116.317 185.823 114.803 192.456C117.423 192.863 120.032 193.257 122.653 193.664C122.568 186.822 124.252 179.869 126.836 173.618C128.183 170.364 129.733 167.196 131.525 164.175C133.16 161.414 134.939 158.48 137.343 156.322C141.07 152.981 147.081 151.872 150.891 154.978C152.045 145.72 153.139 136.4 154.281 127.08C149.317 126.316 144.364 125.181 139.507 124.343C130.238 122.753 120.97 121.15 111.701 119.449C102.456 117.76 93.1997 116.083 83.9551 114.37C80.3486 113.704 76.7302 113.014 73.1237 112.274C68.1467 136.166 63.2058 160.07 58.3491 183.986C59.1906 184.085 60.0442 184.196 60.8857 184.307C61.4868 184.393 62.0878 184.492 62.6769 184.566C62.2321 176.984 62.9293 169.439 65.2615 162.153C67.6418 154.695 71.2964 147.594 76.1411 141.504C78.4011 138.668 81.4907 136.548 85.1813 136.758C88.8359 136.967 91.6129 139.667 92.25 143.316C92.9593 147.347 91.9495 151.884 91.4446 155.903C90.9036 160.267 90.2665 164.607 89.4851 168.921C88.7157 173.224 87.8621 177.526 86.7922 181.755C86.3354 183.555 85.9026 185.799 85.2655 187.931C87.766 188.314 90.2785 188.696 92.779 189.078C93.344 182.026 94.6423 175.098 96.5658 168.28C97.5516 164.792 98.7176 161.377 100.064 158.011C101.278 154.991 102.408 151.748 104.32 149.123C106.099 146.694 108.684 144.709 111.797 145.165C114.706 145.584 116.678 147.877 117.519 150.664C118.445 153.746 118.121 157.197 118.036 160.378C117.928 164.261 117.724 168.145 117.411 172.028L117.435 172.04Z" fill="#D9DEE2"/>
<path d="M283.97 282.069C283.249 282.513 282.516 282.34 281.987 281.896C281.638 281.896 281.289 281.822 280.941 281.65C277.863 280.121 277.743 275.744 276.036 272.995C274.016 269.741 270.915 267.078 267.344 265.796C259.542 262.997 251.079 267.201 247.256 274.401C245.729 277.273 240.765 276.102 241.041 272.675C241.738 264.033 232.626 261.074 225.918 263.601C219.018 266.19 215.014 272.576 209.881 277.495C208.21 279.098 205.601 278.777 204.387 276.768C200.228 269.876 191.548 267.448 184.191 270.135C178.3 272.293 173.997 277.631 171.688 283.548C173.997 283.844 176.293 284.115 178.577 284.337C189 285.323 199.422 285.755 209.869 286.285C229.104 287.247 248.314 287.555 267.525 286.088C277.37 285.336 287.192 284.362 297.014 283.265C296.978 283.24 296.954 283.203 296.917 283.178C296.857 283.129 296.653 282.969 296.593 282.907C296.352 282.734 296.112 282.562 295.86 282.402C295.535 282.192 295.186 282.007 294.838 281.822C294.814 281.81 294.718 281.761 294.633 281.724C294.537 281.687 294.309 281.588 294.261 281.563C293.527 281.28 292.77 281.095 292.001 280.922C291.772 280.873 291.544 280.824 291.315 280.774C291.255 280.762 291.279 280.774 291.243 280.762C290.859 280.713 290.462 280.676 290.065 280.663C289.68 280.651 289.284 280.663 288.899 280.676C288.707 280.676 288.514 280.7 288.322 280.725C288.262 280.725 288.25 280.725 288.226 280.725C288.226 280.725 288.226 280.725 288.178 280.725C287.733 280.811 287.288 280.91 286.831 280.984C286.579 281.021 286.326 281.045 286.074 281.082C286.471 281.033 285.797 281.156 285.761 281.169C285.172 281.341 284.559 281.687 283.934 282.081L283.97 282.069Z" fill="#2FA55E"/>
<path d="M141.779 196.598C141.683 195.39 141.887 194.157 142.043 192.899C142.296 190.767 142.957 188.671 143.438 186.575C144.352 182.519 145.253 178.463 146.035 174.383C146.72 170.82 147.73 167.047 147.922 163.411C148.054 160.834 147.093 158.825 144.231 159.379C141.166 159.983 139.134 163.287 137.547 165.741C135.516 168.872 133.737 172.164 132.21 175.591C129.529 181.607 127.666 187.857 125.838 194.157C128.531 194.576 131.224 194.995 133.929 195.402L141.791 196.586L141.779 196.598Z" fill="#9BA7B2"/>
<path d="M45.7989 184.664C46.8688 184.64 47.9026 184.455 48.9365 184.245C51.0884 173.853 53.2522 163.46 55.4522 153.08C55.368 153.129 55.2839 153.191 55.1877 153.228C51.473 154.732 47.2535 154.436 43.3344 154.991C39.223 155.57 35.2559 156.704 31.3128 158.036C29.0528 158.8 26.1916 156.224 27.1654 153.783C31.0844 143.945 29.6659 132.381 22.6933 124.306C19.3032 120.386 14.8553 117.55 9.97449 116.022C7.69038 115.307 5.33415 114.851 2.94185 114.74C2.44896 114.715 1.94406 114.727 1.45117 114.74C1.48724 141.479 1.53532 168.219 1.53532 194.958C1.53532 204.993 1.54734 215.029 1.53532 225.064C5.18989 223.116 9.63788 222.906 13.5209 224.731C17.9208 226.802 20.9382 231.413 21.7076 236.319C24.7971 236.294 27.8987 237.047 30.6276 238.551C32.6592 239.672 35.1838 241.608 36.8908 243.926C40.4252 225.927 44.0317 207.952 47.7343 189.99C46.9289 189.534 46.1114 189.09 45.2459 188.782C43.082 188.03 43.4426 184.726 45.7868 184.677L45.7989 184.664Z" fill="white"/>
<path d="M126.055 101.24L127.822 91.1064C128.171 89.1093 130.431 80.4796 126.608 80.2207C124.468 80.0728 122.388 82.7603 121.355 84.3629C119.744 86.8532 118.349 89.5777 117.171 92.3146C114.815 97.8252 113.048 103.496 112.435 109.488C112.759 109.537 113.084 109.586 113.396 109.636C117.135 110.227 120.874 110.868 124.612 111.472C124.649 108.082 125.466 104.544 126.043 101.24H126.055Z" fill="#9BA7B2"/>
<path d="M83.6784 144.438C82.1877 145.079 81.0456 146.977 80.144 148.272C79.002 149.899 77.932 151.576 76.9463 153.289C74.9747 156.704 73.2556 160.316 71.8852 164.027C69.3967 170.795 67.7017 177.983 67.1006 185.219C69.7694 185.614 72.4382 185.996 75.107 186.39C75.9365 186.514 76.778 186.649 77.6075 186.772C78.1725 183.974 79.1703 181.102 79.7353 178.759C80.7812 174.346 81.7429 169.92 82.5483 165.457C83.3538 161.007 84.015 156.544 84.5319 152.044C84.7723 149.973 85.0969 147.853 85.121 145.757C85.133 144.389 85.0969 143.821 83.6784 144.426V144.438Z" fill="#9BA7B2"/>
<path d="M155.664 88.0121C153.368 86.5944 150.519 92.1543 149.69 93.5967C147.694 97.0732 146.348 100.747 145.338 104.63C144.484 107.91 144.22 111.251 143.751 114.579C147.622 115.196 151.529 115.726 155.4 116.441C155.4 116.441 155.4 116.428 155.4 116.416C155.388 115.775 155.268 115.183 155.304 114.542C155.328 114.074 155.412 113.593 155.46 113.124C155.58 112.101 155.809 111.103 155.977 110.092C156.326 108.095 156.578 106.085 156.722 104.063C156.879 101.98 156.939 99.884 157.047 97.8006C157.047 97.702 157.059 97.6033 157.071 97.517C155.977 95.6678 156.879 93.5844 156.927 91.4516C156.951 90.3174 156.734 88.6778 155.664 88.0244V88.0121Z" fill="#9BA7B2"/>
<path d="M95.7125 92.2776C95.6885 88.3943 95.424 84.5232 95.0273 80.6646C92.2383 83.5247 89.9662 86.9149 88.4635 90.6626C86.5521 95.4336 85.8668 100.254 85.6865 105.271C88.7761 105.74 91.8536 106.245 94.9431 106.726C95.0273 104.741 95.3399 102.756 95.4601 100.796C95.6404 97.9609 95.7246 95.1131 95.7125 92.2776Z" fill="#9BA7B2"/>
<path d="M370.358 13.7479C307.052 14.1054 243.746 14.4013 180.441 14.3643C174.742 14.3643 169.044 14.3643 163.346 14.3643C165.738 15.0793 167.89 16.1519 169.212 18.0997C170.378 19.8133 169.585 22.6364 167.806 23.5857C166.556 24.2514 165.426 24.4363 164.284 24.3993C164.849 27.9868 165.065 31.5866 164.74 35.285C164.512 37.8493 164.115 40.4259 163.682 42.9778C163.418 44.5311 163.141 46.0351 162.769 47.5268C163.61 47.6748 164.464 47.8104 165.305 47.9583C169.813 48.7473 174.586 49.0802 178.673 51.2746C182.893 53.5429 180.356 59.0906 176.485 59.559C174.55 59.7933 172.542 59.596 170.535 59.2755C170.114 77.6197 168.058 95.9022 165.979 114.123C165.798 115.75 165.594 117.365 165.402 118.993C166.832 119.486 168.263 120.028 169.645 120.682C173.324 122.408 170.992 127.376 167.794 127.709C166.652 127.832 165.498 127.881 164.344 127.906C162.709 141.886 160.978 155.866 159.271 169.846C162.973 168.749 167.325 168.428 169.898 168.046C176.63 167.072 183.746 166.838 190.298 169.02C195.756 170.832 200.324 174.198 204.135 178.55C207.922 182.865 210.951 187.981 215.339 191.741C227.06 201.776 241.606 194.145 251.392 185.084C261.105 176.084 270.603 166.653 284.211 164.927C295.848 163.448 311.091 165.038 321.045 172.188C321.682 159.91 330.999 150.392 341.722 145.547C354.778 139.655 369.456 140.542 383.377 142.527C381.273 133.848 381.478 124.158 383.209 115.713C385.529 104.409 390.782 94.6324 399.714 87.3959C409.067 79.8141 420.259 75.4499 432.004 73.6994C438.797 72.6885 445.685 72.294 452.537 72.4419C458.56 72.5652 464.222 73.6994 470.077 74.6609V71.9364C470.077 61.6178 469.945 51.2869 470.125 40.9683C470.305 31.1798 469.957 21.4529 472.878 12.1329C472.938 11.948 473.022 11.8124 473.106 11.6521C456.517 13.5136 439.794 13.378 423.133 13.4643C405.533 13.563 387.933 13.6616 370.334 13.7602L370.358 13.7479ZM352.806 106.985C346.399 108.686 338.513 107.54 331.889 107.626C324.604 107.725 317.318 107.91 310.033 108.058C302.748 108.206 295.475 108.403 288.202 108.723C281.795 109.007 275.387 108.723 268.98 108.785C268.138 108.908 267.297 109.069 266.455 109.167C265.169 109.328 264.712 107.269 265.806 106.702C268.631 105.198 271.6 103.842 274.594 102.584C270.146 93.8065 273.307 81.7249 282.059 76.88C290.246 72.3433 301.63 75.5239 306.884 83.155C313.063 77.0033 321.177 71.7392 329.605 76.6828C331.263 77.6567 332.766 79.0128 333.728 80.714C335.146 83.2166 334.702 86.311 336.829 88.3574C341.77 93.1038 347.697 97.1967 353.588 100.575C354.177 100.907 354.044 101.573 353.672 101.943C355.379 103.213 355.114 106.369 352.806 106.973V106.985Z" fill="#A9C2FF"/>
<path d="M405.341 296.135C407.18 296.123 407.637 295.469 408.382 293.891C410.739 288.935 415.175 286.359 420.007 284.362C424.672 282.426 429.132 282.611 433.688 283.536C433.411 280.454 433.808 277.199 434.698 274.117C431.115 274.622 427.485 274.844 423.902 275.214C418.625 275.757 413.359 276.287 408.082 276.792C397.238 277.828 386.395 278.913 375.551 280.059C336.625 284.164 297.808 289.12 258.774 292.178C239.623 293.682 220.389 295.605 201.166 294.84C191.885 294.471 182.593 293.854 173.372 292.683C163.887 291.475 153.873 290.427 144.953 286.729C144.027 294.779 143.054 302.841 141.755 310.805C190.407 310.892 239.07 310.978 287.722 311.064C318.966 311.114 350.198 311.212 381.442 311.311C383.534 311.311 385.613 311.311 387.705 311.323C387.429 306.589 390.049 301.806 393.632 298.97C395.772 297.269 398.248 296.197 400.941 295.901C402.456 295.728 403.826 296.147 405.329 296.147L405.341 296.135Z" fill="#82CC58"/>
<path d="M132.114 205.61C122.484 204.032 112.855 202.491 103.226 200.937C93.296 199.335 83.3542 197.769 73.4364 196.093C68.6277 195.279 63.8071 194.552 59.0225 193.664C58.1809 193.504 57.3394 193.343 56.4979 193.183C55.6324 197.486 54.7308 201.776 53.8772 206.078C50.2948 224.065 46.9408 242.101 43.5747 260.137C45.6184 259.977 47.662 259.853 49.7298 259.89C49.8259 256.981 50.3068 254.096 50.7997 251.199C51.533 246.872 52.627 242.643 53.7931 238.415C54.8389 234.642 55.993 230.895 57.2312 227.184C58.3372 223.905 59.3711 220.342 61.0902 217.334C62.5688 214.745 64.8289 212.514 67.8463 212.181C70.8998 211.836 73.7249 213.537 75.3117 216.187C77.2713 219.467 76.8024 223.288 76.2374 226.888C75.5882 230.969 74.903 235.025 74.2418 239.105C73.5806 243.173 72.9074 247.242 72.2462 251.322C71.8856 253.504 71.5971 255.723 71.1402 257.893C70.8878 259.064 70.5392 260.162 70.1545 261.259C73.6648 261.579 77.1871 261.875 80.6974 262.196C80.4209 255.489 80.8056 248.721 82.4886 242.237C84.1476 235.863 86.7924 229.292 90.4229 223.818C92.2261 221.106 94.6425 218.628 97.9123 218C101.05 217.395 104.368 218.394 106.195 221.205C107.818 223.695 107.902 226.716 107.65 229.613C107.325 233.434 106.929 237.244 106.58 241.053C105.859 248.758 105.426 256.636 104.164 264.279C107.59 264.587 111.016 264.883 114.442 265.191C113.348 261.789 114.214 257.375 114.767 254.035C115.452 249.892 116.462 245.812 117.772 241.83C119.792 235.715 122.316 228.367 128.002 224.842C133.34 221.525 139.411 224.336 141.515 230.007C142.44 222.549 143.354 215.078 144.292 207.619C140.24 206.954 136.177 206.288 132.126 205.622L132.114 205.61Z" fill="#D9DEE2"/>
<path d="M128.483 233.644C126.38 236.701 125.021 240.461 123.795 243.95C122.545 247.513 121.535 251.174 120.79 254.885C120.417 256.734 120.08 258.596 119.744 260.445C119.443 262.159 119.275 263.959 118.542 265.537C121.078 265.759 123.603 265.993 126.139 266.202C127.93 266.35 129.77 266.461 131.645 266.572C131.801 264.427 132.234 262.245 132.499 260.186C133.064 255.933 133.593 251.668 134.194 247.414C134.699 243.839 135.48 240.227 135.588 236.603C135.636 234.827 135.72 231.597 133.989 230.513C131.897 229.193 129.541 232.128 128.495 233.644H128.483Z" fill="#9BA7B2"/>
<path d="M100.93 227.763C100.978 226.95 101.183 225.261 100.377 224.694C99.4996 224.09 98.1412 224.928 97.48 225.495C95.0396 227.591 93.5008 231.314 92.1184 234.186C90.6157 237.305 89.3654 240.572 88.2835 243.864C86.2999 249.942 84.8212 256.13 84.2803 262.504C87.9348 262.824 91.5894 263.17 95.256 263.478C95.797 263.527 96.3379 263.576 96.8669 263.626C96.8669 263.589 96.8428 263.552 96.8549 263.515C97.2396 255.317 98.6461 247.069 99.6319 238.933C100.077 235.234 100.738 231.499 100.942 227.776L100.93 227.763Z" fill="#9BA7B2"/>
<path d="M330.013 86.6189C329.136 81.6507 325.469 78.9755 320.408 80.233C314.89 81.6137 311.596 86.6559 308.326 90.9584C306.751 93.0295 303.746 91.5625 303.049 89.5283C300.44 81.7863 291.797 76.1894 284.163 80.5781C276.938 84.7327 276.18 95.5814 280.905 101.869C281.53 102.707 281.783 103.804 281.578 104.766C283.49 104.47 285.413 104.199 287.349 104.014C294.622 103.299 301.895 102.682 309.18 102.152C316.729 101.61 324.315 101.326 331.877 101.154C337.899 101.018 345.016 100.007 351.075 101.166C346.086 98.2443 340.977 96.2348 335.76 93.7076C332.514 92.1419 330.65 90.2927 330.001 86.6066L330.013 86.6189Z" fill="white"/>
<path d="M94.3424 274.425C83.7514 273.353 73.1483 272.342 62.5693 271.072C57.6284 270.48 52.6755 269.765 47.7827 268.779C45.8833 268.397 44.044 267.867 42.2047 267.312C41.5796 270.678 40.9304 274.043 40.3053 277.396C40.3053 277.409 40.3053 277.421 40.3053 277.433C40.3053 277.433 40.3053 277.433 40.3053 277.458C38.2977 288.122 36.2661 298.786 34.1503 309.425C34.0541 309.893 33.9098 310.288 33.7295 310.658C36.1819 310.658 38.6343 310.658 41.0867 310.658C39.8365 306.158 39.8725 301.461 41.1709 296.924C42.4812 292.375 44.7052 288.085 47.7226 284.485C50.6559 280.984 56.2099 278.198 60.3694 281.193C64.9135 284.473 63.6633 291.105 63.495 295.987C63.3988 298.761 63.3026 301.547 63.2064 304.321C63.1343 306.33 63.2425 308.562 63.0261 310.67C67.7146 310.67 72.3909 310.67 77.0794 310.682C77.1515 308.5 77.3198 306.355 77.8127 304.198C78.4138 301.535 79.1351 298.897 80.0607 296.332C81.6235 291.981 83.3787 287.21 86.2639 283.573C89.2332 279.85 94.9795 278.296 98.7303 281.773C102.325 285.101 101.363 290.797 101.159 295.186C101.038 297.787 100.918 300.376 100.798 302.977C100.678 305.591 100.774 308.352 99.6078 310.707C99.8483 310.707 100.089 310.707 100.329 310.707C102.878 310.707 105.426 310.707 107.975 310.719C108.384 306.491 109.393 302.287 111.257 298.49C113.12 294.68 115.633 290.822 119.047 288.319C122.725 285.607 127.474 285.952 130.78 289.083C132.15 290.378 133.088 292.116 133.689 293.99C133.942 292.067 134.206 290.144 134.422 288.22C134.807 284.88 135.228 281.539 135.625 278.198C132.102 277.84 128.604 277.433 125.25 277.15C114.947 276.287 104.645 275.449 94.3664 274.401L94.3424 274.425Z" fill="#D9DEE2"/>
<path d="M56.4858 286.926C56.4858 286.926 56.4017 286.889 56.3536 286.876C56.2935 286.876 56.2213 286.876 56.1612 286.876C56.2574 286.876 56.582 286.889 56.2093 286.926C56.1252 286.926 56.1011 286.926 56.0651 286.926C55.9328 286.95 55.8126 286.987 55.6804 287.024C55.0673 287.209 54.5503 287.493 53.8531 288.011C52.8312 288.763 51.7493 290.082 50.9198 291.265C47.0489 296.85 45.3899 303.852 44.9932 310.657C46.0992 310.657 47.2172 310.657 48.3231 310.657C50.8477 310.657 53.3842 310.657 55.9088 310.657C55.8366 308.636 56.0651 306.552 56.1612 304.592C56.2814 301.904 56.3896 299.217 56.5099 296.529C56.606 294.261 56.7383 292.005 56.7984 289.737C56.8104 289.256 56.8224 288.775 56.7984 288.294C56.7743 287.702 56.8104 287.875 56.6782 287.431C56.57 287.061 56.6421 287.111 56.4618 286.901L56.4858 286.926Z" fill="#9BA7B2"/>
<path d="M33.5489 260.877C34.126 257.93 34.703 254.972 35.2921 252.025C35.0516 251.951 34.8232 251.828 34.5948 251.655C33.1162 250.546 32.3468 249.066 31.1086 247.747C30.0627 246.638 28.8605 245.775 27.5141 245.084C24.9415 243.765 21.9842 243.42 19.1952 244.086C16.6225 244.69 13.8335 242.335 14.7231 239.5C15.9012 235.752 14.4827 231.511 11.2008 229.366C8.37571 227.529 4.60093 227.505 1.54744 228.898C1.53542 237.909 1.51138 246.909 1.40318 255.921C1.36712 259.052 1.3551 262.196 1.33105 265.339C3.53101 265.475 5.71894 265.894 7.94293 266.301C12.0904 267.078 16.1898 267.953 20.3011 268.89C24.0399 269.741 27.7786 270.628 31.4692 271.701C31.938 269.272 32.3949 266.844 32.8757 264.427C31.1326 263.725 31.6616 260.951 33.573 260.889L33.5489 260.877Z" fill="#2FA55E"/>
<path d="M93.7052 286.704C93.3446 286.729 92.8637 286.729 92.2627 287.086C90.6518 288.06 89.6419 290.131 88.7283 291.795C87.5021 294.027 86.3721 296.32 85.3863 298.662C84.4246 300.943 83.547 303.261 82.7896 305.628C82.2366 307.341 81.6235 309.018 81.0225 310.707C85.3743 310.707 89.7261 310.707 94.0659 310.707C93.7654 310.016 93.4889 309.351 93.4167 308.549C93.3566 307.81 93.3927 307.07 93.4167 306.33C93.4768 304.937 93.585 303.544 93.6812 302.163C93.8615 299.377 94.0539 296.603 94.2342 293.817C94.3664 291.783 94.8112 288.997 94.3183 287.345C94.2102 287 94.126 286.679 93.6932 286.704H93.7052Z" fill="#9BA7B2"/>
<path d="M18.4016 275.892C14.3143 274.881 10.263 273.821 6.22375 272.65C4.5287 272.157 2.88175 271.664 1.27085 271.06C1.23479 276.336 1.17468 281.625 1.0184 286.889C0.777966 295.321 -0.111632 303.421 -1.04932 311.644C6.48823 310.325 14.2782 310.768 21.9119 310.694C23.2223 310.682 24.5206 310.694 25.831 310.682C25.1097 309.671 24.737 308.352 24.9895 306.836C26.5643 297.368 28.3315 287.937 30.1347 278.506C26.1916 277.778 22.2966 276.854 18.4016 275.892Z" fill="#82CC58"/>
<path d="M64.3718 255.982C64.6723 253.776 65.069 251.594 65.4297 249.399C66.1269 245.171 66.8242 240.942 67.5214 236.726C68.2187 232.534 69.0722 228.318 69.6012 224.102C69.7695 222.734 69.8175 217.593 67.7138 219.997C65.598 222.413 64.8045 226.531 63.7466 229.502C62.3401 233.484 61.0297 237.49 59.8396 241.546C58.7336 245.306 57.7358 249.103 56.6539 252.863C55.9566 255.267 55.3435 257.708 54.5381 260.088C57.7358 260.236 60.9216 260.445 64.1073 260.741C64.1193 259.163 64.1433 257.61 64.3597 255.995L64.3718 255.982Z" fill="#9BA7B2"/>
<path d="M126.86 297.01C126.776 296.628 126.668 296.234 126.536 295.864C126.5 295.753 126.452 295.642 126.416 295.531C126.091 295.038 125.742 294.421 125.478 293.879C125.358 293.78 125.249 293.632 125.141 293.521C125.081 293.46 125.021 293.41 124.961 293.349C125.273 293.632 125.057 293.435 124.913 293.337C124.817 293.312 124.672 293.263 124.624 293.25C124.6 293.25 124.576 293.25 124.564 293.238C124.504 293.238 124.324 293.201 124.228 293.201C124.095 293.201 124.035 293.201 123.999 293.201C123.987 293.201 123.987 293.201 123.939 293.226C123.771 293.263 123.614 293.312 123.458 293.361C123.422 293.361 123.242 293.447 123.182 293.472C123.062 293.534 122.953 293.595 122.845 293.657C122.04 294.113 121.847 294.298 121.246 294.853C116.774 299.057 113.588 304.752 111.917 310.768C116.81 310.768 121.703 310.781 126.608 310.793C126.367 309.733 126.259 308.636 126.283 307.662C126.319 305.492 126.752 303.335 126.969 301.177C127.065 300.253 127.125 299.328 127.089 298.391C127.077 298.095 127.041 297.799 127.017 297.503C127.113 298.477 126.944 297.232 126.896 297.023L126.86 297.01Z" fill="#9BA7B2"/>
<path d="M149.184 38.971C149.184 38.971 149.184 38.9587 149.184 38.9463C149.172 39.0082 149.172 39.0824 149.184 39.1567C149.184 39.07 149.184 39.0082 149.184 38.9587V38.971Z" fill="#3A0505"/>
<path d="M149.219 40.9928C149.219 40.9928 149.219 40.9558 149.219 40.9312C149.136 41.0421 149.136 41.227 149.16 41.2763C149.172 41.1531 149.196 41.0791 149.219 40.9928Z" fill="#3A0505"/>
<path d="M476.93 11.1836C479.154 10.7645 479.129 7.46053 476.809 7.15233C460.989 5.08121 445.048 5.04423 429.12 4.9456C413.504 4.8593 397.887 4.77301 382.283 4.68671C350.775 4.51412 319.266 4.34153 287.746 4.1566C224.44 3.82375 161.134 4.02099 97.8284 4.05798L45.0295 4.09496C36.2297 4.09496 27.4299 4.18126 18.6301 4.29221C9.92647 4.40317 0.814095 3.83607 -7.48081 6.97974C-9.45235 7.73175 -9.45235 10.6658 -7.48081 11.4055C-6.71143 11.7014 -5.93002 11.9356 -5.16064 12.1699C-7.66113 19.616 -8.00976 27.4567 -8.28625 35.4576C-8.63488 45.7639 -8.65892 56.1072 -8.69499 66.4134C-8.7551 86.7424 -8.86329 107.071 -8.85127 127.388C-8.85127 167.726 -9.21192 208.075 -8.76712 248.413C-8.6469 259.668 -8.51466 270.924 -8.39445 282.192C-8.33434 287.826 -8.11795 293.46 -7.82943 299.081C-7.589 303.877 -6.79558 308.488 -6.14641 313.16C-8.68297 315.231 -8.22615 320.446 -4.77595 321.358C2.85777 323.392 10.6718 322.998 18.4858 323.072C26.1556 323.146 33.8254 323.133 41.4832 323.133C57.0992 323.133 72.7273 323.133 88.3433 323.096C119.587 323.047 150.82 322.986 182.064 322.936C244.54 322.825 307.016 322.727 369.504 322.542C404.031 322.431 438.653 323.158 473.059 319.62C473.119 319.719 473.167 319.842 473.239 319.94C474.285 321.494 476.028 321.494 477.062 319.94C479.526 316.242 479.526 311.89 479.706 307.44C479.911 302.447 479.851 297.429 479.899 292.424C479.995 282.106 480.019 271.787 480.031 261.456C480.067 241.127 480.091 220.798 480.127 200.457C480.187 160.107 480.211 119.757 480.211 79.4072C480.211 68.1517 480.235 56.8838 480.211 45.6283C480.187 34.4714 480.728 22.7227 477.41 12.0959C477.29 11.7137 477.11 11.4178 476.905 11.159L476.93 11.1836ZM391.889 145.215C386.575 135.574 383.87 125.539 387.645 114.653C391.071 104.766 398.609 96.7652 407.252 91.4271C415.812 86.1384 425.597 83.2043 435.431 81.7249C441.406 80.825 447.416 80.64 453.439 80.5537C459.029 80.4674 464.535 79.888 470.089 79.6291V132.923C470.089 167.122 470.173 201.32 470.233 235.518C469.428 234.877 468.442 234.507 467.42 234.421C463.814 234.125 461.193 236.862 459.51 239.796C457.707 242.927 456.288 246.342 455.303 249.843C454.822 251.52 454.449 253.221 454.185 254.947C454.149 255.169 454.125 255.403 454.1 255.625C447.813 256.722 442.476 259.964 438.557 265.697C438.1 266.363 437.679 267.102 437.27 267.867C429.156 267.078 420.512 268.163 412.494 268.865C402.804 269.716 393.139 270.751 383.486 271.972C364.131 274.425 344.824 277.31 325.457 279.788C318.184 280.725 310.911 281.612 303.626 282.463C303.614 281.551 303.326 280.836 302.652 279.985C302.352 279.615 302.051 279.258 301.691 278.937C300.873 278.222 299.984 277.569 299.034 277.051C297.098 275.991 294.971 275.313 292.771 275.128C290.859 274.955 288.816 275.214 286.988 275.806C286.315 276.016 285.678 276.336 285.041 276.694C284.728 273.673 282.769 270.345 281.338 268.298C278.224 263.823 273.704 260.384 268.535 258.855C260.553 256.5 252.102 259.175 246.223 264.797C243.362 259.003 236.858 255.28 230.222 255.576C220.773 256.007 212.43 262.294 206.684 269.839C199.82 264.896 191.044 262.455 182.917 265.413C175.139 268.237 169.453 274.968 168.263 283.092C160.737 282.093 153.176 281.045 145.686 281.095C145.65 281.095 145.626 281.107 145.59 281.107C145.674 280.343 145.759 279.578 145.855 278.826C149.401 278.851 152.899 278.629 156.241 277.889C160.341 276.989 159.547 271.429 156.241 270.16C153.392 269.062 150.315 268.372 147.165 267.879C149.341 250.768 151.457 233.644 153.573 216.52C153.873 214.116 154.162 211.7 154.462 209.296C156.602 209.493 158.73 209.444 160.737 208.754C164.272 207.533 164.584 203.194 161.723 201.048C159.98 199.754 157.924 199.064 155.773 198.62C156.65 191.507 157.48 184.381 158.357 177.268C161.627 176.959 165.294 175.381 167.974 174.864C174.298 173.668 181.018 173.125 187.269 175.012C199.303 178.636 202.957 191.198 211.697 198.99C220.845 207.151 233.672 205.117 243.29 198.99C254.494 191.864 263.029 180.078 275.676 175.492C282.841 172.903 290.523 172.361 298.036 173.088C305.706 173.84 313.364 176.565 321.105 175.887C321.442 175.862 321.767 175.702 322.043 175.48C322.32 175.431 322.572 175.295 322.668 174.925C325.614 163.312 335.014 154.263 345.942 150.516C359.43 145.88 374.013 148.666 387.681 150.775C390.759 151.243 393.596 148.309 391.865 145.19L391.889 145.215ZM286.111 281.082C286.363 281.045 286.616 281.033 286.868 280.984C287.325 280.91 287.77 280.811 288.214 280.725C288.263 280.725 288.25 280.725 288.263 280.725C288.287 280.725 288.299 280.725 288.359 280.725C288.551 280.713 288.743 280.688 288.936 280.676C289.32 280.651 289.717 280.651 290.102 280.663C290.499 280.676 290.883 280.713 291.28 280.762C291.304 280.762 291.28 280.762 291.352 280.774C291.58 280.823 291.809 280.873 292.037 280.922C292.807 281.095 293.552 281.28 294.297 281.563C294.345 281.588 294.574 281.686 294.67 281.723C294.754 281.773 294.85 281.81 294.874 281.822C295.223 281.995 295.56 282.192 295.896 282.401C296.149 282.562 296.389 282.734 296.63 282.907C296.69 282.956 296.906 283.129 296.954 283.178C296.99 283.203 297.014 283.24 297.05 283.264C287.241 284.362 277.407 285.336 267.561 286.088C248.339 287.555 229.14 287.246 209.906 286.285C199.459 285.767 189.036 285.323 178.614 284.337C176.329 284.115 174.021 283.844 171.725 283.548C174.033 277.643 178.337 272.292 184.228 270.135C191.573 267.448 200.252 269.876 204.424 276.768C205.638 278.777 208.247 279.098 209.918 277.495C215.051 272.576 219.054 266.19 225.955 263.601C232.675 261.074 241.775 264.033 241.078 272.675C240.801 276.102 245.766 277.273 247.293 274.401C251.104 267.201 259.579 262.997 267.381 265.796C270.951 267.078 274.053 269.741 276.073 272.995C277.78 275.732 277.9 280.108 280.977 281.649C281.326 281.822 281.675 281.884 282.023 281.896C282.552 282.34 283.286 282.512 284.007 282.069C284.644 281.674 285.257 281.329 285.834 281.156C285.858 281.156 286.531 281.021 286.147 281.07L286.111 281.082ZM117.544 150.676C116.714 147.89 114.731 145.597 111.822 145.178C108.708 144.734 106.123 146.706 104.344 149.135C102.421 151.773 101.291 155.015 100.088 158.023C98.742 161.389 97.5639 164.792 96.5902 168.293C94.6667 175.11 93.3684 182.039 92.8034 189.09C90.3029 188.708 87.7904 188.326 85.2899 187.944C85.927 185.811 86.3598 183.58 86.8166 181.767C87.8865 177.539 88.7401 173.236 89.5094 168.934C90.2908 164.607 90.928 160.267 91.469 155.915C91.9739 151.896 92.9717 147.36 92.2744 143.328C91.6373 139.692 88.8483 136.979 85.2057 136.77C81.5151 136.56 78.4255 138.668 76.1655 141.516C71.3208 147.606 67.6662 154.707 65.2859 162.166C62.9537 169.439 62.2565 176.996 62.7013 184.578C62.1002 184.492 61.4991 184.393 60.9101 184.319C60.0686 184.208 59.227 184.097 58.3735 183.999C63.2302 160.082 68.1711 136.178 73.148 112.286C76.7545 113.038 80.373 113.716 83.9795 114.382C93.2241 116.096 102.481 117.772 111.725 119.461C120.982 121.162 130.251 122.765 139.531 124.355C144.376 125.194 149.329 126.328 154.306 127.092C153.164 136.425 152.07 145.732 150.916 154.991C147.105 151.884 141.094 152.994 137.367 156.334C134.975 158.48 133.184 161.414 131.549 164.187C129.758 167.208 128.207 170.376 126.861 173.631C124.276 179.881 122.605 186.822 122.677 193.676C120.056 193.269 117.448 192.875 114.827 192.468C116.342 185.823 116.907 178.759 117.46 172.053C117.772 168.182 117.989 164.286 118.085 160.403C118.169 157.222 118.481 153.77 117.568 150.688L117.544 150.676ZM111.737 157.259C111.641 161.451 111.437 165.63 111.1 169.809C110.511 177.095 109.141 184.233 108.227 191.445C106.845 191.235 105.45 191.013 104.068 190.804C101.639 190.434 99.2109 190.064 96.7825 189.694C98.0568 183.247 99.5956 176.824 101.687 170.598C102.938 166.887 104.32 163.201 105.859 159.614C106.556 157.986 107.265 156.359 108.071 154.781C108.516 153.918 109.417 151.896 110.463 151.613C112.278 151.132 111.773 156.113 111.749 157.247L111.737 157.259ZM85.1216 145.769C85.0975 147.865 84.7609 149.986 84.5325 152.057C84.0156 156.544 83.3424 161.019 82.5489 165.47C81.7435 169.932 80.7818 174.358 79.7359 178.772C79.1829 181.126 78.1731 183.986 77.6081 186.785C76.7786 186.662 75.9371 186.526 75.1076 186.403C72.4388 186.008 69.77 185.626 67.1012 185.232C67.7023 177.995 69.3973 170.82 71.8858 164.04C73.2562 160.329 74.9753 156.717 76.9469 153.302C77.9447 151.576 79.0146 149.899 80.1446 148.284C81.0583 146.99 82.1883 145.091 83.679 144.45C85.0975 143.846 85.1336 144.413 85.1216 145.782V145.769ZM85.6746 105.284C85.8549 100.266 86.5401 95.4461 88.4515 90.6751C89.9542 86.9274 92.2263 83.5371 95.0153 80.677C95.412 84.5357 95.6885 88.4067 95.7006 92.2901C95.7126 95.1379 95.6284 97.9733 95.4481 100.809C95.3159 102.757 95.0153 104.754 94.9312 106.739C91.8416 106.258 88.7641 105.752 85.6746 105.284ZM112.447 109.488C113.06 103.509 114.827 97.8254 117.183 92.3147C118.349 89.5779 119.756 86.8657 121.367 84.3631C122.401 82.7728 124.48 80.0853 126.62 80.2209C130.455 80.4798 128.183 89.1094 127.834 91.1066L126.067 101.24C125.49 104.544 124.673 108.082 124.637 111.473C120.898 110.868 117.171 110.227 113.42 109.636C113.096 109.586 112.783 109.537 112.459 109.488H112.447ZM157.071 97.5172C157.071 97.6158 157.059 97.7144 157.047 97.8007C156.939 99.8842 156.878 101.98 156.722 104.063C156.566 106.085 156.325 108.095 155.977 110.092C155.797 111.103 155.58 112.101 155.46 113.125C155.4 113.593 155.328 114.074 155.304 114.542C155.268 115.183 155.388 115.775 155.4 116.416C155.4 116.416 155.4 116.428 155.4 116.441C151.529 115.738 147.622 115.196 143.751 114.579C144.22 111.251 144.496 107.91 145.338 104.63C146.348 100.747 147.694 97.061 149.69 93.5968C150.519 92.1421 153.368 86.5945 155.664 88.0122C156.734 88.6779 156.951 90.3176 156.927 91.4394C156.878 93.5722 155.977 95.668 157.071 97.5049V97.5172ZM132.198 175.603C133.725 172.188 135.504 168.884 137.536 165.753C139.135 163.3 141.154 159.996 144.22 159.392C147.069 158.837 148.043 160.834 147.91 163.423C147.73 167.06 146.72 170.82 146.023 174.395C145.23 178.476 144.34 182.544 143.426 186.588C142.957 188.683 142.296 190.779 142.032 192.912C141.876 194.169 141.683 195.402 141.767 196.61L133.905 195.427C131.212 195.02 128.508 194.601 125.815 194.182C127.642 187.882 129.505 181.632 132.186 175.616L132.198 175.603ZM153.116 82.0208C150.615 82.7358 148.74 84.7206 147.249 86.7918C144.292 90.86 142.176 95.7666 140.842 100.636C139.712 104.778 139.002 109.562 139.639 113.938C136.814 113.47 134.001 113.014 131.176 112.557C132.054 109.673 132.306 106.455 132.703 103.484L134.013 93.5722C134.639 88.8012 135.949 83.1673 133.521 78.6675C130.828 73.687 124.877 73.5514 120.814 76.7814C116.522 80.1962 114.166 85.7808 112.326 90.8723C110.259 96.5926 109.586 102.929 109.573 109.032C106.76 108.588 103.935 108.156 101.122 107.7C101.579 105.444 101.663 103.04 101.82 100.796C102.024 97.85 102.12 94.8913 102.108 91.9326C102.072 85.7192 101.531 79.5305 100.617 73.3911C100.305 71.3447 97.4798 70.3214 95.8929 71.4186C89.9182 75.5609 85.4582 81.4167 82.7172 88.2341C80.7457 93.153 79.796 98.9842 80.6014 104.384C78.7982 104.039 76.9349 103.669 75.0114 103.348C75.0354 103.237 75.0595 103.126 75.0835 103.016C78.9665 84.3385 82.609 65.5505 85.0374 46.6145C90.0264 47.5022 95.0875 48.0816 99.9442 48.735C108.155 49.8322 116.39 50.7938 124.6 51.9279C133.148 53.0991 141.683 54.2949 150.194 55.6633C154.378 56.3291 158.549 57.0318 162.721 57.7468C163.635 57.9071 164.584 58.1166 165.534 58.3139C163.562 66.8079 161.916 75.4006 160.449 84.0303C160.317 83.907 160.233 83.7467 160.088 83.6358C158.153 81.9715 155.616 81.3304 153.152 82.0331L153.116 82.0208ZM114.791 32.3263C114.995 32.203 115.2 32.0797 115.404 31.9688C115.452 31.9441 115.5 31.9194 115.548 31.8948C115.548 31.8948 115.548 31.8948 115.56 31.8948C115.765 31.8578 115.969 31.7962 116.161 31.7345C116.282 31.7345 116.402 31.7222 116.534 31.7222C116.666 31.7222 116.798 31.7222 116.931 31.7345C116.967 31.7345 117.003 31.7469 117.039 31.7592C117.147 31.7962 117.267 31.8332 117.339 31.8578C117.4 31.8825 117.496 31.9071 117.532 31.9318C117.736 32.0427 117.916 32.166 118.109 32.2893C118.145 32.3139 118.133 32.2893 118.145 32.3139C118.169 32.3386 118.157 32.3386 118.205 32.3756C118.373 32.5359 118.53 32.6961 118.686 32.8687C118.722 32.9057 118.758 32.9427 118.782 32.992C118.914 33.2139 119.059 33.4235 119.179 33.6454C119.227 33.744 119.443 34.2864 119.491 34.2864C119.467 34.2248 119.431 34.1508 119.407 34.0892C119.275 33.7563 119.299 33.8303 119.491 34.2864C119.443 34.1632 119.936 35.322 119.648 34.6686C119.443 34.1878 119.696 34.8289 119.732 34.9522C119.816 35.211 119.888 35.4699 119.948 35.7412C119.984 35.9014 120.008 36.074 120.044 36.2343C120.068 36.5671 120.104 36.8877 120.104 37.2205C120.128 37.9356 120.092 38.6506 120.032 39.3656C119.972 39.982 119.912 40.5861 119.876 41.2025C116.943 40.8573 114.009 40.5245 111.064 40.2286C111.184 38.9588 111.377 37.689 111.761 36.4685C112.026 35.6179 112.567 34.533 112.976 33.9906C113.084 33.855 113.565 33.3372 113.853 33.0536C114.034 32.881 114.214 32.7208 114.382 32.5605C114.082 32.8441 114.599 32.4126 114.731 32.3263H114.791ZM138.125 37.8246C138.209 37.5904 138.305 37.3685 138.389 37.1342C138.413 37.0479 138.473 36.9123 138.497 36.8507C138.618 36.6041 138.726 36.3576 138.87 36.1233C138.93 36.0124 139.002 35.9137 139.062 35.8028C139.062 35.8028 139.135 35.6918 139.195 35.6055C139.267 35.5193 139.363 35.396 139.363 35.396C139.447 35.2973 139.531 35.211 139.615 35.1248C139.724 35.0138 139.844 34.9152 139.952 34.8042C140.012 34.7426 140.012 34.7426 140.036 34.7056C140.06 34.7056 140.048 34.7056 140.096 34.6809C140.301 34.5453 140.505 34.4097 140.721 34.2864C140.878 34.2001 141.034 34.1262 141.19 34.0399C141.491 33.9413 141.791 33.8303 142.104 33.7687C142.236 33.744 142.356 33.7194 142.489 33.6947C142.513 33.6947 142.489 33.6947 142.537 33.6947C142.861 33.6947 143.186 33.67 143.522 33.6824C143.643 33.6824 143.763 33.707 143.895 33.707C144.16 33.7933 144.46 33.818 144.725 33.8919C144.881 33.9413 145.049 33.9906 145.206 34.0399C145.302 34.0769 145.975 34.2495 145.506 34.1385C145.049 34.0276 145.614 34.1878 145.698 34.2371C145.819 34.2988 145.939 34.3604 146.047 34.4221C146.348 34.5823 146.612 34.7796 146.901 34.9645C146.925 34.9768 146.913 34.9645 146.937 34.9891C147.021 35.0631 147.117 35.1494 147.129 35.1617C147.393 35.396 147.622 35.6672 147.862 35.9261C147.946 36.0494 148.055 36.1726 148.115 36.2713C148.271 36.5178 148.427 36.7644 148.56 37.0233C148.572 37.0603 148.668 37.2329 148.752 37.3808C148.752 37.4054 148.752 37.3931 148.764 37.4301C148.896 37.8123 149.016 38.2068 149.113 38.6013C149.137 38.7246 149.161 38.8355 149.185 38.9588C149.185 38.9465 149.185 38.9095 149.185 38.8971C149.185 38.8971 149.185 38.9465 149.185 38.9711C149.185 39.0204 149.209 39.0821 149.221 39.1314C149.281 39.4273 149.221 39.3163 149.185 39.156C149.197 39.4642 149.257 39.9204 149.257 40.0067C149.257 40.3149 149.245 40.6231 149.221 40.9313C149.221 40.9189 149.233 40.8943 149.245 40.882C149.233 40.882 149.233 40.9559 149.221 40.9929V41.0176C149.197 41.2641 149.173 41.3011 149.161 41.2641C149.149 41.3751 149.137 41.4984 149.125 41.5354C148.98 42.2011 148.812 42.8545 148.62 43.5079C148.511 43.8777 148.451 44.2229 148.379 44.605C148.355 44.753 148.307 44.8886 148.283 45.0365C148.283 45.0735 148.283 45.1105 148.271 45.1475C145.181 44.6667 142.104 44.1736 139.014 43.7298C139.123 43.3969 139.123 43.0271 138.918 42.7435C138.233 41.8066 137.86 40.7464 137.824 39.7355C137.824 39.4519 137.812 39.1684 137.836 38.8971C137.836 38.8725 137.836 38.8971 137.836 38.8725C137.836 38.8355 137.848 38.8232 137.872 38.7369C137.896 38.6136 137.932 38.5026 137.956 38.3794C137.981 38.2684 138.269 37.4301 138.125 37.8246ZM103.142 38.5766C103.37 37.5657 103.587 36.5548 103.815 35.5316C104.32 33.2509 104.813 30.9702 105.318 28.6895C106.328 24.0665 106.724 19.3695 106.544 14.6478C106.544 14.5369 106.496 14.4382 106.484 14.3273C106.965 14.3273 107.434 14.3273 107.915 14.3273C112.555 15.1286 117.063 16.3244 121.751 16.9901C126.849 17.7175 131.958 18.3586 137.031 19.1476C142.14 19.9366 147.225 20.8858 152.286 21.909C154.474 22.3529 156.65 22.846 158.814 23.3514C158.489 24.6212 158.177 25.891 157.972 27.1855C157.6 29.5155 157.119 31.8332 156.734 34.1755C156.482 35.7905 156.181 37.3808 155.893 38.9834C155.821 38.3424 155.724 37.7013 155.592 37.0972C154.823 33.7933 152.707 30.8716 149.738 29.3429C146.961 27.9128 143.571 27.3704 140.589 28.4676C137.379 29.6388 135.011 32.3263 134.362 35.7905C133.881 38.3301 134.59 41.2765 136.225 43.3353C132.943 42.8668 129.662 42.3983 126.368 41.9668C126.308 41.9668 126.247 41.9545 126.187 41.9422C126.368 41.1162 126.476 40.2656 126.536 39.4889C126.668 37.8123 126.584 36.1357 126.271 34.4714C125.731 31.6112 123.987 28.9854 121.523 27.4937C118.962 25.9403 116.029 26.1376 113.444 27.4937C111.088 28.7265 109.405 31.0442 108.648 33.6084C108.047 35.6672 107.999 37.7876 108.131 39.908C106.388 39.7355 104.645 39.5505 102.902 39.4026C102.974 39.119 103.07 38.8478 103.13 38.552L103.142 38.5766ZM15.216 14.0314C23.1622 14.241 31.1205 14.2163 39.0668 14.278C54.6829 14.4012 70.2989 14.3149 85.903 14.3273C91.1564 14.3273 96.4219 14.3273 101.675 14.3273C99.6677 18.1367 98.0328 22.1433 96.9869 26.3472C96.4459 28.5292 95.8929 30.699 95.3519 32.881C95.0754 33.9659 94.811 35.0631 94.5345 36.148C94.4022 36.6534 94.294 37.1589 94.2099 37.6643C94.1498 38.0219 94.1137 38.3917 94.0777 38.7492C87.2253 38.3301 80.1807 38.1698 73.5327 39.5382C71.3328 39.9943 71.7535 43.0271 73.5327 43.6804C76.2857 44.7037 79.1829 45.4187 82.1162 46.0351C75.8769 64.5026 70.924 83.4878 66.4761 102.584C63.8433 102.621 61.3068 102.966 59.0948 103.977C58.0129 104.47 57.9287 106.184 58.7221 106.936C60.4412 108.575 62.521 109.525 64.7089 110.24C62.004 122.21 59.4675 134.218 56.9069 146.151C56.6544 147.347 56.414 148.555 56.1495 149.751C56.0173 149.616 55.873 149.492 55.6807 149.394C51.7616 147.286 47.1694 147.68 42.9017 148.223C40.2329 148.568 37.5882 149.061 34.9795 149.714C36.4942 139.272 33.597 128.14 26.5644 120.324C22.5852 115.898 17.4159 112.644 11.8379 110.795C8.90463 109.821 5.03368 108.871 1.46326 108.995C1.43922 97.2953 1.46326 85.5959 1.4272 73.9089C1.39113 62.6534 1.27092 51.3978 1.10261 40.13C0.970376 30.9579 0.862181 21.6132 -1.87874 12.9465C3.72332 14.0191 9.4456 13.8465 15.216 14.0067V14.0314ZM45.2579 188.77C46.1235 189.078 46.941 189.509 47.7464 189.978C44.0558 207.94 40.4373 225.914 36.9029 243.913C35.1959 241.608 32.6713 239.66 30.6397 238.538C27.9108 237.034 24.8092 236.282 21.7197 236.307C20.9503 231.413 17.9328 226.789 13.5329 224.718C9.64997 222.894 5.20198 223.103 1.54741 225.051C1.54741 215.016 1.54741 204.981 1.54741 194.946C1.54741 168.206 1.49933 141.467 1.46326 114.727C1.95615 114.727 2.44903 114.715 2.95394 114.727C5.34624 114.838 7.69045 115.294 9.98657 116.009C14.8673 117.538 19.3153 120.373 22.7054 124.294C29.69 132.369 31.0965 143.932 27.1775 153.77C26.2037 156.211 29.0648 158.788 31.3249 158.023C35.268 156.692 39.2351 155.558 43.3465 154.978C47.2655 154.424 51.4851 154.719 55.1998 153.215C55.296 153.178 55.3681 153.117 55.4643 153.068C53.2643 163.448 51.1004 173.84 48.9486 184.233C47.9147 184.443 46.8809 184.627 45.8109 184.652C43.4667 184.701 43.1061 188.005 45.27 188.757L45.2579 188.77ZM25.831 310.682C24.5207 310.682 23.2224 310.682 21.912 310.694C14.2903 310.768 6.50031 310.325 -1.04925 311.644C-0.111568 303.409 0.778029 295.309 1.01846 286.889C1.16272 281.612 1.22283 276.336 1.27092 271.06C2.86979 271.664 4.52877 272.157 6.22381 272.65C10.2631 273.821 14.3144 274.881 18.4017 275.892C22.2967 276.854 26.1917 277.791 30.1348 278.506C28.3315 287.937 26.5644 297.368 24.9895 306.836C24.7371 308.364 25.1097 309.671 25.831 310.682ZM32.8517 264.427C32.3708 266.856 31.914 269.284 31.4451 271.701C27.7545 270.628 24.0278 269.741 20.2771 268.89C16.1657 267.953 12.0663 267.078 7.91886 266.301C5.69486 265.882 3.50693 265.475 1.30698 265.339C1.33102 262.196 1.34305 259.064 1.37911 255.921C1.47528 246.909 1.51135 237.909 1.52337 228.898C4.57685 227.505 8.35164 227.517 11.1767 229.366C14.4586 231.511 15.8772 235.752 14.699 239.5C13.8094 242.323 16.5985 244.69 19.1711 244.086C21.9601 243.432 24.9174 243.765 27.49 245.084C28.8364 245.775 30.0386 246.638 31.0845 247.747C32.3227 249.066 33.1041 250.546 34.5707 251.655C34.7992 251.828 35.0396 251.951 35.268 252.025C34.691 254.971 34.1139 257.93 33.5249 260.877C31.6255 260.951 31.0845 263.724 32.8276 264.415L32.8517 264.427ZM56.8107 289.761C56.7386 292.03 56.6184 294.298 56.5222 296.554C56.402 299.242 56.2938 301.929 56.1736 304.617C56.0894 306.577 55.861 308.66 55.9211 310.682C53.3966 310.682 50.86 310.682 48.3355 310.682C47.2295 310.682 46.1115 310.682 45.0055 310.682C45.4022 303.877 47.0612 296.862 50.9321 291.29C51.7616 290.094 52.8436 288.775 53.8654 288.035C54.5627 287.518 55.0796 287.234 55.6927 287.049C55.8129 287.012 55.9451 286.988 56.0774 286.951C56.1014 286.951 56.1375 286.951 56.2216 286.951C56.5943 286.914 56.2697 286.901 56.1736 286.901C56.2216 286.901 56.2938 286.901 56.3659 286.901C56.414 286.901 56.4621 286.926 56.4981 286.951C56.6785 287.148 56.6063 287.111 56.7145 287.481C56.8468 287.924 56.7987 287.752 56.8347 288.344C56.8588 288.824 56.8468 289.305 56.8347 289.786L56.8107 289.761ZM94.246 293.817C94.0656 296.603 93.8853 299.377 93.693 302.163C93.5968 303.556 93.4886 304.95 93.4285 306.33C93.3924 307.07 93.3564 307.81 93.4285 308.549C93.5006 309.351 93.7651 310.016 94.0777 310.707C89.7258 310.707 85.374 310.707 81.0342 310.707C81.6353 309.018 82.2484 307.341 82.8014 305.628C83.5587 303.261 84.4363 300.943 85.3981 298.662C86.3838 296.308 87.5139 294.015 88.7401 291.795C89.6537 290.144 90.6635 288.072 92.2744 287.086C92.8635 286.729 93.3564 286.729 93.717 286.704C94.1498 286.679 94.2339 287 94.3421 287.345C94.847 288.997 94.3902 291.783 94.258 293.817H94.246ZM126.945 301.152C126.728 303.31 126.296 305.467 126.259 307.637C126.247 308.599 126.344 309.708 126.584 310.768C121.691 310.768 116.798 310.756 111.894 310.744C113.565 304.715 116.75 299.02 121.222 294.828C121.811 294.273 122.016 294.089 122.821 293.632C122.929 293.571 123.05 293.509 123.158 293.447C123.23 293.423 123.398 293.349 123.434 293.336C123.591 293.287 123.759 293.25 123.915 293.201C123.963 293.201 123.963 293.189 123.975 293.176C124.011 293.176 124.072 293.176 124.204 293.176C124.3 293.176 124.468 293.201 124.54 293.213C124.564 293.213 124.588 293.213 124.6 293.226C124.649 293.238 124.793 293.287 124.889 293.312C125.033 293.41 125.238 293.608 124.937 293.312C124.997 293.361 125.057 293.423 125.117 293.484C125.226 293.595 125.334 293.743 125.454 293.842C125.718 294.384 126.067 295.001 126.392 295.494C126.428 295.605 126.476 295.716 126.512 295.827C126.632 296.209 126.74 296.591 126.837 296.973C126.885 297.183 127.053 298.428 126.957 297.454C126.981 297.75 127.017 298.046 127.029 298.342C127.077 299.266 127.005 300.203 126.909 301.128L126.945 301.152ZM134.386 288.245C134.158 290.156 133.905 292.091 133.653 294.015C133.052 292.141 132.114 290.402 130.744 289.108C127.438 285.977 122.689 285.619 119.01 288.344C115.608 290.859 113.084 294.717 111.22 298.514C109.369 302.311 108.347 306.515 107.939 310.744C105.39 310.744 102.841 310.744 100.293 310.731C100.052 310.731 99.812 310.731 99.5715 310.731C100.738 308.377 100.629 305.615 100.762 303.002C100.882 300.4 101.002 297.812 101.122 295.21C101.327 290.822 102.288 285.126 98.6939 281.797C94.9432 278.321 89.1849 279.874 86.2275 283.597C83.3424 287.222 81.5872 292.005 80.0244 296.357C79.0987 298.921 78.3774 301.559 77.7764 304.222C77.2955 306.38 77.1272 308.525 77.043 310.707C72.3546 310.707 67.6782 310.707 62.9898 310.694C63.2062 308.586 63.098 306.343 63.1701 304.345C63.2663 301.572 63.3625 298.785 63.4586 296.012C63.6269 291.13 64.8772 284.485 60.333 281.218C56.1736 278.222 50.6196 280.996 47.6863 284.51C44.6689 288.109 42.4449 292.4 41.1345 296.949C39.8242 301.498 39.8001 306.195 41.0504 310.682C38.598 310.682 36.1456 310.682 33.6932 310.682C33.8615 310.312 34.0177 309.918 34.1139 309.449C36.2417 298.81 38.2614 288.146 40.269 277.483C40.269 277.483 40.269 277.483 40.269 277.458C40.269 277.446 40.269 277.433 40.269 277.421C40.9061 274.055 41.5433 270.702 42.1684 267.337C44.0077 267.904 45.847 268.434 47.7464 268.804C52.6272 269.79 57.5801 270.505 62.533 271.097C73.1 272.366 83.715 273.377 94.3061 274.45C104.585 275.485 114.887 276.336 125.19 277.199C128.544 277.483 132.03 277.889 135.564 278.247C135.167 281.588 134.747 284.929 134.362 288.27L134.386 288.245ZM54.5506 260.075C55.3561 257.708 55.9692 255.255 56.6664 252.851C57.7484 249.091 58.7462 245.294 59.8522 241.534C61.0423 237.478 62.3527 233.471 63.7592 229.489C64.8171 226.518 65.6105 222.401 67.7263 219.984C69.8421 217.58 69.794 222.721 69.6137 224.09C69.0847 228.306 68.2192 232.522 67.534 236.714C66.8367 240.942 66.1395 245.171 65.4422 249.387C65.0816 251.581 64.6848 253.763 64.3843 255.97C64.1679 257.573 64.1439 259.138 64.1319 260.716C60.9461 260.433 57.7604 260.223 54.5627 260.063L54.5506 260.075ZM96.8667 263.626C96.3257 263.576 95.7847 263.527 95.2558 263.478C91.6012 263.17 87.9466 262.824 84.2801 262.504C84.821 256.143 86.2997 249.942 88.2832 243.864C89.3652 240.56 90.6154 237.305 92.1181 234.186C93.5006 231.314 95.0394 227.591 97.4798 225.495C98.1409 224.928 99.4994 224.09 100.377 224.694C101.182 225.261 100.978 226.937 100.93 227.763C100.738 231.486 100.076 235.222 99.6196 238.92C98.6338 247.057 97.2273 255.317 96.8426 263.503C96.8426 263.54 96.8546 263.577 96.8546 263.613L96.8667 263.626ZM135.588 236.603C135.48 240.227 134.699 243.839 134.194 247.414C133.593 251.668 133.064 255.933 132.499 260.186C132.222 262.257 131.789 264.427 131.645 266.572C129.77 266.474 127.93 266.363 126.139 266.202C123.603 265.993 121.078 265.759 118.542 265.537C119.275 263.959 119.443 262.171 119.744 260.445C120.068 258.584 120.417 256.722 120.79 254.885C121.535 251.174 122.545 247.513 123.795 243.95C125.021 240.461 126.38 236.701 128.483 233.644C129.529 232.128 131.886 229.206 133.977 230.513C135.72 231.597 135.636 234.827 135.576 236.603H135.588ZM127.991 224.829C122.304 228.355 119.78 235.703 117.76 241.817C116.45 245.799 115.44 249.88 114.755 254.022C114.202 257.351 113.336 261.777 114.43 265.179C111.004 264.871 107.578 264.575 104.152 264.267C105.426 256.623 105.847 248.758 106.568 241.041C106.929 237.231 107.313 233.41 107.638 229.6C107.89 226.703 107.806 223.683 106.183 221.193C104.344 218.382 101.038 217.383 97.9005 217.987C94.6306 218.616 92.2143 221.094 90.4111 223.806C86.7685 229.28 84.1358 235.851 82.4768 242.224C80.7818 248.709 80.3971 255.477 80.6856 262.183C77.1753 261.863 73.653 261.567 70.1426 261.246C70.5153 260.149 70.876 259.064 71.1284 257.881C71.5852 255.711 71.8738 253.504 72.2344 251.31C72.8956 247.242 73.5688 243.174 74.23 239.093C74.8912 235.025 75.5764 230.956 76.2256 226.876C76.7906 223.276 77.2715 219.442 75.2999 216.175C73.7131 213.524 70.9 211.823 67.8345 212.168C64.8171 212.501 62.557 214.733 61.0784 217.322C59.3593 220.33 58.3254 223.892 57.2194 227.172C55.9692 230.882 54.8271 234.63 53.7813 238.403C52.6031 242.619 51.5212 246.86 50.7879 251.187C50.295 254.072 49.8141 256.969 49.718 259.878C47.6502 259.853 45.6066 259.977 43.5629 260.125C46.9289 242.089 50.283 224.053 53.8654 206.066C54.7189 201.763 55.6206 197.473 56.4861 193.171C57.3276 193.331 58.1812 193.504 59.0107 193.652C63.8073 194.539 68.6279 195.279 73.4245 196.08C83.3424 197.757 93.2842 199.323 103.214 200.925C112.843 202.479 122.473 204.007 132.102 205.598C136.153 206.263 140.217 206.929 144.268 207.595C143.33 215.053 142.416 222.524 141.491 229.982C139.387 224.312 133.316 221.501 127.979 224.817L127.991 224.829ZM387.717 311.311C385.625 311.311 383.546 311.311 381.454 311.298C350.21 311.2 318.978 311.101 287.734 311.052C239.082 310.966 190.419 310.879 141.767 310.793C143.066 302.829 144.039 294.767 144.965 286.716C153.885 290.402 163.911 291.463 173.384 292.671C182.605 293.842 191.897 294.446 201.178 294.828C220.401 295.593 239.647 293.669 258.786 292.165C297.808 289.096 336.637 284.152 375.563 280.047C386.395 278.9 397.25 277.815 408.094 276.78C413.371 276.274 418.637 275.744 423.914 275.202C427.497 274.832 431.127 274.61 434.71 274.105C433.82 277.187 433.423 280.454 433.7 283.523C429.144 282.611 424.672 282.414 420.019 284.349C415.187 286.359 410.751 288.935 408.394 293.879C407.649 295.457 407.18 296.11 405.353 296.123C403.85 296.123 402.48 295.716 400.965 295.876C398.272 296.172 395.796 297.245 393.656 298.946C390.073 301.794 387.453 306.565 387.729 311.298L387.717 311.311ZM394.365 311.336C394.666 307.464 396.445 303.865 400.484 302.607C404.92 301.226 409.38 304.333 411.784 298.576C412.65 296.492 412.626 294.236 413.78 292.252C415.235 289.761 418.108 287.974 420.957 287.863C426.559 287.641 432.882 290.193 438.052 292.141C440.348 293.004 442.452 290.797 442.572 288.615C442.74 285.483 442.043 282.401 442.355 279.258C442.68 276.126 443.738 273.069 445.421 270.431C447.681 266.88 451.227 263.687 455.086 261.616C455.098 261.629 455.098 261.653 455.11 261.666C456.24 262.923 458.14 262.714 459.294 261.666C460.015 261.012 460.376 260.063 460.58 259.064C461.133 258.386 461.241 257.437 460.929 256.623C461.037 255.625 461.217 254.392 461.506 253.073C462.035 250.583 462.852 247.797 463.814 245.664C464.343 244.493 464.884 243.334 465.521 242.237C466.146 241.164 466.519 240.659 467.216 239.882C467.853 239.179 467.949 239.118 468.923 239.093C469.067 239.093 469.212 239.093 469.356 239.093C469.44 239.093 469.68 239.179 469.837 239.229C469.909 239.303 469.981 239.389 470.005 239.426C470.137 239.648 470.185 239.894 470.221 240.141C470.221 240.141 470.221 240.141 470.221 240.153C470.221 244.764 470.233 249.375 470.245 253.973C470.258 265.228 470.245 276.496 470.342 287.752C470.402 293.386 470.402 299.007 470.51 304.641C470.57 307.686 470.51 310.941 471.039 313.986C445.529 311.508 419.935 311.372 394.341 311.323L394.365 311.336ZM472.902 12.1205C469.981 21.4406 470.318 31.1674 470.149 40.9559C469.969 51.2745 470.101 61.6055 470.101 71.9241V74.6486C464.259 73.687 458.585 72.5528 452.562 72.4295C445.709 72.2816 438.821 72.6761 432.029 73.687C420.284 75.4376 409.092 79.8017 399.739 87.3835C390.807 94.6201 385.553 104.396 383.233 115.701C381.502 124.146 381.298 133.836 383.401 142.515C369.48 140.53 354.802 139.63 341.747 145.535C331.023 150.38 321.707 159.897 321.069 172.176C311.116 165.026 295.872 163.435 284.235 164.915C270.627 166.641 261.13 176.072 251.416 185.071C241.643 194.132 227.085 201.763 215.364 191.728C210.988 187.981 207.958 182.865 204.159 178.537C200.349 174.186 195.78 170.82 190.323 169.008C183.771 166.838 176.654 167.06 169.922 168.034C167.349 168.404 162.985 168.724 159.295 169.834C161.002 155.854 162.733 141.886 164.368 127.894C165.522 127.881 166.664 127.82 167.818 127.696C171.016 127.363 173.36 122.395 169.669 120.669C168.287 120.016 166.856 119.474 165.426 118.98C165.618 117.353 165.823 115.738 166.003 114.111C168.083 95.9022 170.138 77.6073 170.559 59.2631C172.567 59.5837 174.574 59.7809 176.51 59.5467C180.381 59.0659 182.917 53.5183 178.698 51.2622C174.61 49.0678 169.838 48.735 165.33 47.946C164.488 47.798 163.635 47.6624 162.793 47.5145C163.166 46.0228 163.442 44.5064 163.707 42.9654C164.14 40.4258 164.536 37.8493 164.765 35.2727C165.089 31.5743 164.873 27.9745 164.308 24.387C165.438 24.424 166.568 24.2514 167.83 23.5733C169.597 22.6241 170.391 19.8133 169.237 18.0873C167.914 16.1395 165.762 15.0546 163.37 14.3519C169.068 14.3519 174.767 14.3519 180.465 14.3519C243.771 14.3889 307.076 14.0807 370.382 13.7355C387.982 13.6369 405.581 13.5383 423.181 13.4397C439.855 13.341 456.565 13.489 473.155 11.6274C473.071 11.7877 472.986 11.9233 472.926 12.1082L472.902 12.1205Z" fill="#3A0505"/>
<path d="M353.588 100.574C347.698 97.1965 341.783 93.1036 336.83 88.3573C334.702 86.3108 335.147 83.2288 333.729 80.7139C332.755 79.0003 331.264 77.6565 329.605 76.6826C321.178 71.739 313.064 77.0031 306.884 83.1548C301.631 75.5238 290.247 72.3431 282.06 76.8798C273.308 81.7248 270.146 93.8063 274.594 102.584C271.601 103.841 268.62 105.21 265.807 106.701C264.725 107.281 265.17 109.327 266.456 109.167C267.285 109.068 268.139 108.908 268.98 108.785C275.388 108.723 281.795 108.995 288.203 108.723C295.476 108.403 302.749 108.206 310.034 108.058C317.319 107.91 324.604 107.725 331.889 107.626C338.513 107.54 346.387 108.686 352.807 106.985C355.115 106.369 355.38 103.225 353.673 101.955C354.045 101.585 354.177 100.92 353.588 100.587V100.574ZM331.889 101.142C324.328 101.314 316.742 101.598 309.193 102.14C301.908 102.67 294.634 103.287 287.361 104.002C285.426 104.187 283.502 104.458 281.591 104.754C281.795 103.792 281.555 102.695 280.918 101.857C276.181 95.5816 276.951 84.7205 284.176 80.5659C291.797 76.1895 300.453 81.7741 303.062 89.5161C303.747 91.5503 306.752 93.0173 308.339 90.9462C311.609 86.656 314.903 81.6015 320.421 80.2208C325.482 78.951 329.148 81.6385 330.026 86.6067C330.675 90.2928 332.539 92.1297 335.784 93.7077C341.014 96.2349 346.123 98.2321 351.1 101.166C345.041 100.007 337.924 101.006 331.901 101.154L331.889 101.142Z" fill="#3A0505"/>
</g>
</svg>
