<svg width="1440" height="388" viewBox="0 0 1440 388" fill="none" xmlns="http://www.w3.org/2000/svg">
<path d="M1446 7.69702H964.337V388H1446V7.69702Z" fill="#5F4933"/>
<path d="M1013.81 7.69702H964.337V76.288H1013.81V7.69702Z" fill="#886949"/>
<path d="M1234.57 7.69702H1162.62V76.288H1234.57V7.69702Z" fill="#886949"/>
<path d="M1304.47 7.69702H1238.45V76.288H1304.47V7.69702Z" fill="#886949"/>
<path d="M1446 7.69702H1383.39V76.288H1446V7.69702Z" fill="#886949"/>
<path d="M1379.54 7.69702H1308.32V76.288H1379.54V7.69702Z" fill="#906F4D"/>
<path d="M1158.75 7.69702H1092V76.288H1158.75V7.69702Z" fill="#74593E"/>
<path d="M1088.16 7.69702H1017.69V76.288H1088.16V7.69702Z" fill="#906F4D"/>
<g style="mix-blend-mode:multiply">
<path d="M1446 7.69702H964.337V62.4106H1446V7.69702Z" fill="#886949"/>
</g>
<path d="M976.651 80.5347H964.337V120.461H976.651V80.5347Z" fill="#886949"/>
<path d="M1047.99 80.5347H980.493V120.461H1047.99V80.5347Z" fill="#886949"/>
<path d="M1128.3 80.5347H1051.87V120.461H1128.3V80.5347Z" fill="#886949"/>
<path d="M1199.64 80.5347H1132.14V120.461H1199.64V80.5347Z" fill="#906F4D"/>
<path d="M1341.63 80.5347H1272.63V120.461H1341.63V80.5347Z" fill="#74593E"/>
<path d="M1446 80.5347H1424.28V120.461H1446V80.5347Z" fill="#906F4D"/>
<path d="M1420.4 80.5347H1345.47V120.461H1420.4V80.5347Z" fill="#886949"/>
<path d="M1268.79 80.5347H1203.52V120.461H1268.79V80.5347Z" fill="#886949"/>
<path d="M1013.81 124.708H964.337V159.742H1013.81V124.708Z" fill="#886949"/>
<path d="M1088.16 124.708H1017.69V159.742H1088.16V124.708Z" fill="#906F4D"/>
<path d="M1158.75 124.708H1092V159.742H1158.75V124.708Z" fill="#886949"/>
<path d="M1234.57 124.708H1162.62V159.742H1234.57V124.708Z" fill="#886949"/>
<path d="M1304.47 124.708H1238.45V159.742H1304.47V124.708Z" fill="#886949"/>
<path d="M1379.55 124.708H1308.32V159.742H1379.55V124.708Z" fill="#886949"/>
<path d="M1446 124.708H1383.39V159.742H1446V124.708Z" fill="#886949"/>
<path d="M976.651 163.951H964.337V200.616H976.651V163.951Z" fill="#886949"/>
<path d="M1047.99 163.951H980.493V200.616H1047.99V163.951Z" fill="#74593E"/>
<path d="M1128.3 163.951H1051.87V200.616H1128.3V163.951Z" fill="#886949"/>
<path d="M1199.64 163.951H1132.14V200.616H1199.64V163.951Z" fill="#886949"/>
<path d="M1341.63 163.951H1272.63V200.616H1341.63V163.951Z" fill="#906F4D"/>
<path d="M1446 163.951H1424.28V200.616H1446V163.951Z" fill="#886949"/>
<path d="M1420.4 163.951H1345.47V200.616H1420.4V163.951Z" fill="#886949"/>
<path d="M1268.79 163.951H1203.52V200.616H1268.79V163.951Z" fill="#886949"/>
<path d="M1013.81 204.863H964.337V240.694H1013.81V204.863Z" fill="#886949"/>
<path d="M1088.16 204.863H1017.69V240.694H1088.16V204.863Z" fill="#886949"/>
<path d="M1158.75 204.863H1092V240.694H1158.75V204.863Z" fill="#886949"/>
<path d="M1234.57 204.863H1162.62V240.694H1234.57V204.863Z" fill="#886949"/>
<path d="M1304.47 204.863H1238.45V240.694H1304.47V204.863Z" fill="#886949"/>
<path d="M1379.55 204.863H1308.32V240.694H1379.55V204.863Z" fill="#886949"/>
<path d="M1446 204.863H1383.39V240.694H1446V204.863Z" fill="#886949"/>
<path d="M976.651 244.941H964.337V288.962H976.651V244.941Z" fill="#886949"/>
<path d="M1047.99 244.941H980.493V288.962H1047.99V244.941Z" fill="#906F4D"/>
<path d="M1128.3 244.941H1051.87V288.962H1128.3V244.941Z" fill="#886949"/>
<path d="M1199.64 244.941H1132.14V288.962H1199.64V244.941Z" fill="#886949"/>
<path d="M1268.79 244.941H1203.52V288.962H1268.79V244.941Z" fill="#886949"/>
<path d="M1341.63 244.941H1272.63V288.962H1341.63V244.941Z" fill="#886949"/>
<path d="M1420.4 244.941H1345.47V288.962H1420.4V244.941Z" fill="#906F4D"/>
<path d="M1446 244.941H1424.28V288.962H1446V244.941Z" fill="#886949"/>
<path d="M1013.81 293.209H964.337V333.969H1013.81V293.209Z" fill="#886949"/>
<path d="M1158.75 293.209H1092V333.969H1158.75V293.209Z" fill="#886949"/>
<path d="M1304.47 293.209H1238.45V333.969H1304.47V293.209Z" fill="#886949"/>
<path d="M1446 293.209H1383.39V333.969H1446V293.209Z" fill="#74593E"/>
<path d="M1379.55 293.209H1308.32V333.969H1379.55V293.209Z" fill="#886949"/>
<path d="M1234.57 293.209H1162.62V333.969H1234.57V293.209Z" fill="#886949"/>
<path d="M1088.16 293.209H1017.69V333.969H1088.16V293.209Z" fill="#886949"/>
<path d="M976.651 338.178H964.337V388H976.651V338.178Z" fill="#886949"/>
<path d="M1047.99 338.178H980.493V388H1047.99V338.178Z" fill="#74593E"/>
<path d="M1128.3 338.178H1051.87V388H1128.3V338.178Z" fill="#886949"/>
<path d="M1268.79 338.178H1203.52V388H1268.79V338.178Z" fill="#886949"/>
<path d="M1420.4 338.178H1345.47V388H1420.4V338.178Z" fill="#886949"/>
<path d="M1446 338.178H1424.28V388H1446V338.178Z" fill="#886949"/>
<path d="M1341.63 338.178H1272.63V388H1341.63V338.178Z" fill="#886949"/>
<path d="M1199.64 338.178H1132.14V388H1199.64V338.178Z" fill="#886949"/>
<g style="mix-blend-mode:multiply" opacity="0.7">
<path d="M999.844 50.3533H996.146V387.773H999.844V50.3533Z" fill="#626362"/>
</g>
<path d="M996.469 50.3533H965.199V387.773H996.469V50.3533Z" fill="#886949"/>
<g style="mix-blend-mode:multiply">
<path d="M996.469 50.3533H965.199V64.3445H996.469V50.3533Z" fill="#886949"/>
</g>
<path d="M498.076 7.69702H-3.72754V388H498.076V7.69702Z" fill="#5F4933"/>
<path d="M47.8279 7.69702H-3.72754V76.288H47.8279V7.69702Z" fill="#886949"/>
<path d="M277.817 7.69702H202.854V76.288H277.817V7.69702Z" fill="#886949"/>
<path d="M350.662 7.69702H281.874V76.288H350.662V7.69702Z" fill="#886949"/>
<path d="M498.112 7.69702H432.878V76.288H498.112V7.69702Z" fill="#886949"/>
<path d="M428.857 7.69702H354.647V76.288H428.857V7.69702Z" fill="#906F4D"/>
<path d="M198.832 7.69702H129.29V76.288H198.832V7.69702Z" fill="#74593E"/>
<path d="M125.269 7.69702H51.8489V76.288H125.269V7.69702Z" fill="#906F4D"/>
<g style="mix-blend-mode:multiply">
<path d="M498.076 7.69702H-3.72754V62.4106H498.076V7.69702Z" fill="#886949"/>
</g>
<path d="M9.08952 80.5347H-3.72754V120.461H9.08952V80.5347Z" fill="#886949"/>
<path d="M83.4426 80.5347H13.1104V120.461H83.4426V80.5347Z" fill="#886949"/>
<path d="M167.095 80.5347H87.4639V120.461H167.095V80.5347Z" fill="#886949"/>
<path d="M241.448 80.5347H171.116V120.461H241.448V80.5347Z" fill="#906F4D"/>
<path d="M389.365 80.5347H317.489V120.461H389.365V80.5347Z" fill="#74593E"/>
<path d="M498.076 80.5347H475.458V120.461H498.076V80.5347Z" fill="#906F4D"/>
<path d="M471.473 80.5347H393.386V120.461H471.473V80.5347Z" fill="#886949"/>
<path d="M313.468 80.5347H245.469V120.461H313.468V80.5347Z" fill="#886949"/>
<path d="M47.8279 124.708H-3.72754V159.742H47.8279V124.708Z" fill="#886949"/>
<path d="M125.269 124.708H51.8491V159.742H125.269V124.708Z" fill="#906F4D"/>
<path d="M198.832 124.708H129.29V159.742H198.832V124.708Z" fill="#886949"/>
<path d="M277.817 124.708H202.854V159.742H277.817V124.708Z" fill="#886949"/>
<path d="M350.663 124.708H281.874V159.742H350.663V124.708Z" fill="#886949"/>
<path d="M428.857 124.708H354.647V159.742H428.857V124.708Z" fill="#886949"/>
<path d="M498.112 124.708H432.878V159.742H498.112V124.708Z" fill="#886949"/>
<path d="M9.08952 163.951H-3.72754V200.616H9.08952V163.951Z" fill="#886949"/>
<path d="M83.4426 163.951H13.1104V200.616H83.4426V163.951Z" fill="#74593E"/>
<path d="M167.095 163.951H87.4639V200.616H167.095V163.951Z" fill="#886949"/>
<path d="M241.448 163.951H171.116V200.616H241.448V163.951Z" fill="#886949"/>
<path d="M389.365 163.951H317.489V200.616H389.365V163.951Z" fill="#906F4D"/>
<path d="M498.076 163.951H475.458V200.616H498.076V163.951Z" fill="#886949"/>
<path d="M471.473 163.951H393.386V200.616H471.473V163.951Z" fill="#886949"/>
<path d="M313.468 163.951H245.469V200.616H313.468V163.951Z" fill="#886949"/>
<path d="M47.8279 204.863H-3.72754V240.694H47.8279V204.863Z" fill="#886949"/>
<path d="M125.269 204.863H51.8491V240.694H125.269V204.863Z" fill="#886949"/>
<path d="M198.832 204.863H129.29V240.694H198.832V204.863Z" fill="#886949"/>
<path d="M277.817 204.863H202.854V240.694H277.817V204.863Z" fill="#886949"/>
<path d="M350.663 204.863H281.874V240.694H350.663V204.863Z" fill="#886949"/>
<path d="M428.857 204.863H354.647V240.694H428.857V204.863Z" fill="#886949"/>
<path d="M498.112 204.863H432.878V240.694H498.112V204.863Z" fill="#886949"/>
<path d="M9.08952 244.941H-3.72754V288.962H9.08952V244.941Z" fill="#886949"/>
<path d="M83.4426 244.941H13.1104V288.962H83.4426V244.941Z" fill="#906F4D"/>
<path d="M167.095 244.941H87.4639V288.962H167.095V244.941Z" fill="#886949"/>
<path d="M241.448 244.941H171.116V288.962H241.448V244.941Z" fill="#886949"/>
<path d="M313.468 244.941H245.469V288.962H313.468V244.941Z" fill="#886949"/>
<path d="M389.365 244.941H317.489V288.962H389.365V244.941Z" fill="#886949"/>
<path d="M471.473 244.941H393.386V288.962H471.473V244.941Z" fill="#906F4D"/>
<path d="M498.076 244.941H475.458V288.962H498.076V244.941Z" fill="#886949"/>
<path d="M47.8279 293.209H-3.72754V333.969H47.8279V293.209Z" fill="#886949"/>
<path d="M198.832 293.209H129.29V333.969H198.832V293.209Z" fill="#886949"/>
<path d="M350.663 293.209H281.874V333.969H350.663V293.209Z" fill="#886949"/>
<path d="M498.112 293.209H432.878V333.969H498.112V293.209Z" fill="#74593E"/>
<path d="M428.857 293.209H354.647V333.969H428.857V293.209Z" fill="#886949"/>
<path d="M277.817 293.209H202.854V333.969H277.817V293.209Z" fill="#886949"/>
<path d="M125.269 293.209H51.8491V333.969H125.269V293.209Z" fill="#886949"/>
<path d="M9.08952 338.178H-3.72754V388H9.08952V338.178Z" fill="#886949"/>
<path d="M83.4426 338.178H13.1104V388H83.4426V338.178Z" fill="#74593E"/>
<path d="M167.095 338.178H87.4639V388H167.095V338.178Z" fill="#886949"/>
<path d="M313.468 338.178H245.469V388H313.468V338.178Z" fill="#886949"/>
<path d="M471.473 338.178H393.386V388H471.473V338.178Z" fill="#886949"/>
<path d="M498.076 338.178H475.458V388H498.076V338.178Z" fill="#886949"/>
<path d="M389.365 338.178H317.489V388H389.365V338.178Z" fill="#886949"/>
<path d="M241.448 338.178H171.116V388H241.448V338.178Z" fill="#886949"/>
<path d="M997.188 7.69702H495.384V388H997.188V7.69702Z" fill="#5F4933"/>
<path d="M546.939 7.69702H495.384V76.288H546.939V7.69702Z" fill="#886949"/>
<path d="M776.928 7.69702H701.965V76.288H776.928V7.69702Z" fill="#886949"/>
<path d="M849.738 7.69702H780.949V76.288H849.738V7.69702Z" fill="#886949"/>
<path d="M997.188 7.69702H931.954V76.288H997.188V7.69702Z" fill="#886949"/>
<path d="M927.969 7.69702H853.759V76.288H927.969V7.69702Z" fill="#906F4D"/>
<path d="M697.944 7.69702H628.401V76.288H697.944V7.69702Z" fill="#74593E"/>
<path d="M624.38 7.69702H550.96V76.288H624.38V7.69702Z" fill="#906F4D"/>
<g style="mix-blend-mode:multiply">
<path d="M997.188 7.69702H495.384V62.4106H997.188V7.69702Z" fill="#886949"/>
</g>
<path d="M508.201 80.5347H495.384V120.461H508.201V80.5347Z" fill="#886949"/>
<path d="M582.554 80.5347H512.222V120.461H582.554V80.5347Z" fill="#886949"/>
<path d="M666.206 80.5347H586.575V120.461H666.206V80.5347Z" fill="#886949"/>
<path d="M740.523 80.5347H670.191V120.461H740.523V80.5347Z" fill="#906F4D"/>
<path d="M888.44 80.5347H816.564V120.461H888.44V80.5347Z" fill="#74593E"/>
<path d="M997.188 80.5347H974.569V120.461H997.188V80.5347Z" fill="#906F4D"/>
<path d="M970.549 80.5347H892.461V120.461H970.549V80.5347Z" fill="#886949"/>
<path d="M812.543 80.5347H744.544V120.461H812.543V80.5347Z" fill="#886949"/>
<path d="M546.939 124.708H495.384V159.742H546.939V124.708Z" fill="#886949"/>
<path d="M624.38 124.708H550.96V159.742H624.38V124.708Z" fill="#906F4D"/>
<path d="M697.943 124.708H628.401V159.742H697.943V124.708Z" fill="#886949"/>
<path d="M776.928 124.708H701.964V159.742H776.928V124.708Z" fill="#886949"/>
<path d="M849.738 124.708H780.949V159.742H849.738V124.708Z" fill="#886949"/>
<path d="M927.969 124.708H853.759V159.742H927.969V124.708Z" fill="#886949"/>
<path d="M997.188 124.708H931.954V159.742H997.188V124.708Z" fill="#886949"/>
<path d="M508.201 163.951H495.384V200.616H508.201V163.951Z" fill="#886949"/>
<path d="M582.554 163.951H512.222V200.616H582.554V163.951Z" fill="#74593E"/>
<path d="M666.206 163.951H586.575V200.616H666.206V163.951Z" fill="#886949"/>
<path d="M740.523 163.951H670.191V200.616H740.523V163.951Z" fill="#886949"/>
<path d="M888.44 163.951H816.564V200.616H888.44V163.951Z" fill="#906F4D"/>
<path d="M997.188 163.951H974.569V200.616H997.188V163.951Z" fill="#886949"/>
<path d="M970.549 163.951H892.461V200.616H970.549V163.951Z" fill="#886949"/>
<path d="M812.543 163.951H744.544V200.616H812.543V163.951Z" fill="#886949"/>
<path d="M546.939 204.863H495.384V240.694H546.939V204.863Z" fill="#886949"/>
<path d="M624.38 204.863H550.96V240.694H624.38V204.863Z" fill="#886949"/>
<path d="M697.943 204.863H628.401V240.694H697.943V204.863Z" fill="#886949"/>
<path d="M776.928 204.863H701.964V240.694H776.928V204.863Z" fill="#886949"/>
<path d="M849.738 204.863H780.949V240.694H849.738V204.863Z" fill="#886949"/>
<path d="M927.969 204.863H853.759V240.694H927.969V204.863Z" fill="#886949"/>
<path d="M997.188 204.863H931.954V240.694H997.188V204.863Z" fill="#886949"/>
<path d="M508.201 244.941H495.384V288.962H508.201V244.941Z" fill="#886949"/>
<path d="M582.554 244.941H512.222V288.962H582.554V244.941Z" fill="#906F4D"/>
<path d="M666.206 244.941H586.575V288.962H666.206V244.941Z" fill="#886949"/>
<path d="M740.523 244.941H670.191V288.962H740.523V244.941Z" fill="#886949"/>
<path d="M812.543 244.941H744.544V288.962H812.543V244.941Z" fill="#886949"/>
<path d="M888.44 244.941H816.564V288.962H888.44V244.941Z" fill="#886949"/>
<path d="M970.549 244.941H892.461V288.962H970.549V244.941Z" fill="#906F4D"/>
<path d="M997.188 244.941H974.569V288.962H997.188V244.941Z" fill="#886949"/>
<path d="M546.939 293.209H495.384V333.969H546.939V293.209Z" fill="#886949"/>
<path d="M697.943 293.209H628.401V333.969H697.943V293.209Z" fill="#886949"/>
<path d="M849.738 293.209H780.949V333.969H849.738V293.209Z" fill="#886949"/>
<path d="M997.188 293.209H931.954V333.969H997.188V293.209Z" fill="#74593E"/>
<path d="M927.969 293.209H853.759V333.969H927.969V293.209Z" fill="#886949"/>
<path d="M776.928 293.209H701.964V333.969H776.928V293.209Z" fill="#886949"/>
<path d="M624.38 293.209H550.96V333.969H624.38V293.209Z" fill="#886949"/>
<path d="M508.201 338.178H495.384V388H508.201V338.178Z" fill="#886949"/>
<path d="M582.554 338.178H512.222V388H582.554V338.178Z" fill="#74593E"/>
<path d="M666.206 338.178H586.575V388H666.206V338.178Z" fill="#886949"/>
<path d="M812.543 338.178H744.544V388H812.543V338.178Z" fill="#886949"/>
<path d="M970.549 338.178H892.461V388H970.549V338.178Z" fill="#886949"/>
<path d="M997.188 338.178H974.569V388H997.188V338.178Z" fill="#886949"/>
<path d="M888.44 338.178H816.564V388H888.44V338.178Z" fill="#886949"/>
<path d="M740.523 338.178H670.191V388H740.523V338.178Z" fill="#886949"/>
<g style="mix-blend-mode:multiply" opacity="0.7">
<path d="M2.19627 50.3533H-4.26611V387.773H2.19627V50.3533Z" fill="#5F4933"/>
</g>
<g style="mix-blend-mode:multiply" opacity="0.7">
<path d="M62.7273 50.3533H56.2649V387.773H62.7273V50.3533Z" fill="#626362"/>
</g>
<path d="M56.7675 50.3533H2.19629V387.773H56.7675V50.3533Z" fill="#886949"/>
<path d="M30.9539 50.3533H2.19629V387.773H30.9539V50.3533Z" fill="#987552"/>
<g style="mix-blend-mode:multiply">
<path d="M56.7675 50.3533H2.19629V64.3445H56.7675V50.3533Z" fill="#886949"/>
</g>
<g style="mix-blend-mode:multiply" opacity="0.7">
<path d="M936.585 50.3533H930.123V387.773H936.585V50.3533Z" fill="#5F4933"/>
</g>
<g style="mix-blend-mode:multiply" opacity="0.7">
<path d="M997.116 50.3533H990.654V387.773H997.116V50.3533Z" fill="#626362"/>
</g>
<path d="M991.156 50.3533H936.585V387.773H991.156V50.3533Z" fill="#886949"/>
<path d="M965.307 50.3533H936.585V387.773H965.307V50.3533Z" fill="#987552"/>
<g style="mix-blend-mode:multiply">
<path d="M991.156 50.3533H936.585V64.3445H991.156V50.3533Z" fill="#886949"/>
</g>
<g style="mix-blend-mode:multiply" opacity="0.7">
<path d="M469.426 50.3533H462.964V387.773H469.426V50.3533Z" fill="#5F4933"/>
</g>
<g style="mix-blend-mode:multiply" opacity="0.7">
<path d="M529.957 50.3533H523.495V387.773H529.957V50.3533Z" fill="#626362"/>
</g>
<path d="M523.997 50.3533H469.426V387.773H523.997V50.3533Z" fill="#886949"/>
<path d="M498.184 50.3533H469.426V387.773H498.184V50.3533Z" fill="#987552"/>
<g style="mix-blend-mode:multiply">
<path d="M523.997 50.3533H469.426V64.3445H523.997V50.3533Z" fill="#886949"/>
</g>
<path d="M1000.92 0H-8V51.6423H1000.92V0Z" fill="#886949"/>
<path opacity="0.4" d="M1000.92 26.1624H-8V51.6423H1000.92V26.1624Z" fill="#453525"/>
<g style="mix-blend-mode:screen">
<path d="M1000.92 0H-8V8.30372H1000.92V0Z" fill="#886949"/>
</g>
<path d="M1446 0H961.429V51.6423H1446V0Z" fill="#886949"/>
<path opacity="0.4" d="M1446 26.1624H961.429V51.6423H1446V26.1624Z" fill="#453525"/>
<g style="mix-blend-mode:screen">
<path d="M1446 0H961.429V8.30372H1446V0Z" fill="#886949"/>
</g>
</svg>
