<svg width="74" height="101" viewBox="0 0 74 101" fill="none" xmlns="http://www.w3.org/2000/svg">
<g filter="url(#filter0_d_1_19399)">
<path d="M29.8916 9.68262C29.8916 9.68262 29.1441 2.66647 29.7994 1.16956C30.4548 -0.327353 42.7844 -0.419001 44.6584 1.07791C46.5426 2.57483 44.6584 9.68262 44.6584 9.68262H29.8916Z" fill="#F6C423"/>
<path d="M37.4188 7.03498C34.8075 6.86187 31.6227 5.92503 29.5234 4.04116C29.5542 6.56656 29.8819 9.68259 29.8819 9.68259H44.6486C44.6486 9.68259 45.7955 5.33441 45.3962 2.72754C44.1059 5.58899 40.6446 7.25901 37.4086 7.04517L37.4188 7.03498Z" fill="#12AB0F"/>
<path d="M44.761 23.1243V13.0125H29.5027V23.1243C29.5027 26.4236 27.5467 29.4378 24.4848 30.7107C12.524 35.7309 4.19848 47.6248 4.54666 61.4229C4.97676 78.5915 19.0676 92.5831 36.3331 92.9904C54.6942 93.4283 69.717 78.7545 69.717 60.5878C69.717 47.1971 61.5553 35.7207 49.9119 30.7718C46.8091 29.4581 44.761 26.4745 44.761 23.1243Z" fill="#F4ECE5"/>
<path d="M46.2974 6.46484H27.9669C26.9942 6.46484 26.2056 7.24901 26.2056 8.21633V13.4097C26.2056 14.377 26.9942 15.1612 27.9669 15.1612H46.2974C47.2701 15.1612 48.0587 14.377 48.0587 13.4097V8.21633C48.0587 7.24901 47.2701 6.46484 46.2974 6.46484Z" fill="#F4ECE5"/>
<g style="mix-blend-mode:multiply" opacity="0.3">
<path d="M44.5872 12.6969H29.9433C28.1103 12.6969 26.8609 11.7906 26.1953 10.5686V13.4097C26.1953 14.3771 26.9838 15.1612 27.9567 15.1612H46.2974C47.2702 15.1612 48.0587 14.3771 48.0587 13.4097V11.0065C47.3521 12.0044 46.195 12.6969 44.5872 12.6969Z" fill="#25DDFF"/>
</g>
<path d="M47.8285 77.032H26.4249C22.1306 78.3848 19.3501 80.5313 19.3501 82.9509C19.3501 87.0455 27.3085 90.3644 37.1267 90.3644C46.9449 90.3644 54.9033 87.0455 54.9033 82.9509C54.9033 80.5313 52.1228 78.3848 47.8285 77.032Z" fill="#23CF53"/>
<path d="M54.8682 79.9953C56.6193 81.4209 46.9318 82.9585 37.1317 82.9585C27.3316 82.9585 17.2959 81.7264 19.3952 79.9953C20.665 78.9464 27.3316 77.032 37.1317 77.032C46.9318 77.032 53.5882 78.9668 54.8682 79.9953Z" fill="#12AB0F"/>
<g style="mix-blend-mode:multiply" opacity="0.3">
<path d="M66.9652 63.6995C66.3921 66.6467 65.0356 69.7451 62.9626 72.0603C58.3677 77.2129 51.547 81.7746 42.8922 82.9906C36.5204 83.8838 33.7883 84.0005 27.4071 82.9906C25.8404 82.7433 24.6941 82.2693 23.0701 81.7815C19.0866 80.5724 16.899 79.9678 13.5268 77.3709C11.6449 75.9282 9.91588 74.3618 8.4543 72.6787C8.1104 72.2802 7.79516 71.868 7.49902 71.4558C8.54028 82.6197 21.4079 91.5714 37.0936 91.8393C54.2218 92.1347 68.2358 82.2349 68.2358 69.9787C68.2358 67.794 67.7868 65.6918 66.9557 63.6995H66.9652Z" fill="#25DDFF"/>
</g>
<path d="M28.0292 67.1407C28.0499 67.1607 28.07 67.1801 28.0891 67.1985C28.1286 67.2368 28.164 67.2711 28.193 67.2979L28.1983 67.3028L28.1983 67.3028C29.3872 68.4328 30.4177 69.7189 31.2692 71.1189C31.298 71.1637 31.3804 71.2427 31.5356 71.3329C31.6818 71.4179 31.8462 71.4862 31.9742 71.5286C32.4477 71.6856 32.9991 71.6763 33.547 71.573L33.553 71.5719L33.553 71.5719C33.9996 71.4933 34.5026 71.3337 34.9368 71.0908C35.374 70.8462 35.7034 70.5393 35.8692 70.1837C35.8693 70.1835 35.8694 70.1834 35.8694 70.1832L36.3227 70.3943C37.6437 67.543 39.2105 64.814 41.0026 62.2275L28.0292 67.1407ZM28.0292 67.1407C28.0198 67.1267 28.0098 67.1124 28.0045 67.1055C27.989 67.0858 27.9755 67.0717 27.9708 67.0668C27.9595 67.0552 27.9501 67.0466 27.9475 67.0443C27.9405 67.0379 27.9346 67.0329 27.9328 67.0314C27.925 67.0247 27.9157 67.0172 27.9102 67.0128L27.8515 66.9659C27.8397 66.9565 27.827 66.9465 27.8138 66.9359C27.7723 66.9029 27.725 66.8654 27.6815 66.8306C27.6528 66.8076 27.6266 66.7866 27.6055 66.7694L27.579 66.7477L27.5707 66.7408C27.5688 66.7392 27.5679 66.7384 27.5676 66.7382L27.5676 66.7382L27.5677 66.738L27.5571 66.7293C27.2497 66.4763 26.9441 66.2459 26.6328 66.0189L26.6301 66.017C25.9467 65.5256 25.2424 65.0865 24.5072 64.6897L24.5062 64.6891C24.2151 64.5328 24.0601 64.2031 24.0826 63.7959C24.0945 63.6247 24.1773 63.4409 24.3381 63.2407C24.4995 63.0399 24.7135 62.8547 24.9335 62.6845C25.9255 61.9203 27.5057 61.7498 28.5892 62.3315C30.145 63.1745 31.5927 64.2465 32.8715 65.4884L33.3014 65.9059L33.6351 65.4081C33.6641 65.3649 33.6886 65.3232 33.7054 65.2945L33.7074 65.291C33.7264 65.2587 33.737 65.2409 33.7478 65.2248L33.7554 65.2134L33.7624 65.2017C37.2031 59.4085 41.6496 54.2998 46.87 50.0176L46.8705 50.0172C47.3107 49.6552 47.9635 49.4081 48.6564 49.338C49.2487 49.2781 49.8226 49.3522 50.275 49.5509L50.4892 49.6759C50.7967 49.8553 50.9753 50.2146 50.9317 50.5427L50.9315 50.5442C50.878 50.9567 50.5382 51.3122 50.0664 51.698L50.0663 51.698L50.0585 51.7046C49.8809 51.856 49.7004 52.0076 49.5184 52.1606L49.5178 52.1611C49.3447 52.3066 49.1701 52.4533 48.9975 52.6002C48.9468 52.6357 48.9085 52.6723 48.8921 52.6889C48.7331 52.8273 48.5605 52.979 48.3962 53.1321C47.7239 53.739 47.0731 54.3657 46.4338 55.0117C45.3173 56.1322 44.2426 57.314 43.2302 58.5262C42.7229 59.1335 42.2272 59.76 41.744 60.3836L41.744 60.3835L41.7385 60.3908L41.3852 60.8643L41.0319 61.3379L41.0244 61.348L41.0174 61.3584C40.9928 61.3951 40.9652 61.4333 40.9308 61.4805L40.9286 61.4836C40.908 61.512 40.8848 61.544 40.8612 61.5776C40.8513 61.5882 40.843 61.598 40.8362 61.6063L40.8095 61.6329L40.7819 61.6741C40.7573 61.7108 40.7296 61.7489 40.6953 61.7962L40.693 61.7993C40.6619 61.8422 40.6249 61.8932 40.5895 61.9457" fill="white" stroke="black"/>
</g>
<defs>
<filter id="filter0_d_1_19399" x="0.536133" y="0" width="73.1807" height="101" filterUnits="userSpaceOnUse" color-interpolation-filters="sRGB">
<feFlood flood-opacity="0" result="BackgroundImageFix"/>
<feColorMatrix in="SourceAlpha" type="matrix" values="0 0 0 0 0 0 0 0 0 0 0 0 0 0 0 0 0 0 127 0" result="hardAlpha"/>
<feOffset dy="4"/>
<feGaussianBlur stdDeviation="2"/>
<feComposite in2="hardAlpha" operator="out"/>
<feColorMatrix type="matrix" values="0 0 0 0 0 0 0 0 0 0 0 0 0 0 0 0 0 0 0.25 0"/>
<feBlend mode="normal" in2="BackgroundImageFix" result="effect1_dropShadow_1_19399"/>
<feBlend mode="normal" in="SourceGraphic" in2="effect1_dropShadow_1_19399" result="shape"/>
</filter>
</defs>
</svg>
